<svg xmlns="http://www.w3.org/2000/svg" width="532.037" height="532.002" viewBox="0 0 532.037 532.002">
  <g id="Group_2413" data-name="Group 2413" transform="translate(-3421.95 995)">
    <path id="Intersection_1" data-name="Intersection 1" d="M96.656,599A10.67,10.67,0,0,1,86.33,585.711l12.8-51.2a74.343,74.343,0,0,1,48.725-52.843l94.7-31.445c22.25-9.3,32.661-46.144,34.9-60.117a88.682,88.682,0,0,1-31.531-57.771c0-7.552-2.24-10.646-3.435-11.243a9.068,9.068,0,0,1-6.4-6.123,159.467,159.467,0,0,1-11.435-46.635,10.233,10.233,0,0,1,.32-2.581,27.439,27.439,0,0,1,10.347-15.531V193.667A111.231,111.231,0,0,1,341.5,87.021V599Z" transform="translate(3346 -1072)" fill="#ff8f00"/>
    <path id="_001-man" data-name="001-man" d="M511.676,498.752l-12.8-51.2a74.345,74.345,0,0,0-48.747-52.885l-93.867-31.275c-22.891-9.536-33.365-46.4-35.627-60.395a88.7,88.7,0,0,0,31.36-57.664,17.391,17.391,0,0,1,2.581-10.987,10.665,10.665,0,0,0,7.317-6.4,159.447,159.447,0,0,0,11.435-46.613,10.254,10.254,0,0,0-.32-2.581,27.434,27.434,0,0,0-10.347-15.531V106.666c0-34.368-10.5-48.469-21.547-56.64C339,33.472,321.276,0,256,0A111.232,111.232,0,0,0,149.329,106.667v56.555a27.434,27.434,0,0,0-10.347,15.531,10.26,10.26,0,0,0-.32,2.581A159.454,159.454,0,0,0,150.1,227.969a9.067,9.067,0,0,0,6.4,6.123c1.2.6,3.435,3.691,3.435,11.243a88.683,88.683,0,0,0,31.531,57.771c-2.24,13.973-12.651,50.816-34.9,60.117l-94.7,31.445a74.346,74.346,0,0,0-48.725,52.843l-12.8,51.2A10.668,10.668,0,0,0,10.663,512H501.33a10.665,10.665,0,0,0,10.346-13.25Z" transform="translate(3431.992 -985)" fill="none" stroke="#ff8f00" stroke-width="20"/>
  </g>
</svg>
