<svg xmlns="http://www.w3.org/2000/svg" xmlns:xlink="http://www.w3.org/1999/xlink" width="375" height="811" viewBox="0 0 375 811">
  <defs>
    <linearGradient id="linear-gradient" x1="0.5" y1="0.023" x2="0.5" y2="1" gradientUnits="objectBoundingBox">
      <stop offset="0" stop-color="#fff" stop-opacity="0.059"/>
      <stop offset="0.426" stop-color="#fcfcfc"/>
      <stop offset="1" stop-color="#f7f7f7"/>
    </linearGradient>
    <filter id="Path_4590" x="-17.213" y="307.478" width="420" height="526.022" filterUnits="userSpaceOnUse">
      <feOffset dx="5" input="SourceAlpha"/>
      <feGaussianBlur stdDeviation="7.5" result="blur"/>
      <feFlood flood-color="#fff" flood-opacity="0.224"/>
      <feComposite operator="in" in2="blur"/>
      <feComposite in="SourceGraphic"/>
    </filter>
    <filter id="Path_4591" x="-12.713" y="356.826" width="411" height="472.174" filterUnits="userSpaceOnUse">
      <feOffset dx="5" input="SourceAlpha"/>
      <feGaussianBlur stdDeviation="6" result="blur-2"/>
      <feFlood flood-color="#f7f7f7" flood-opacity="0.192"/>
      <feComposite operator="in" in2="blur-2"/>
      <feComposite in="SourceGraphic"/>
    </filter>
    <filter id="Path_4592" x="-9.713" y="385.105" width="405" height="440.895" filterUnits="userSpaceOnUse">
      <feOffset dx="5" input="SourceAlpha"/>
      <feGaussianBlur stdDeviation="5" result="blur-3"/>
      <feFlood flood-color="#e3e3e3" flood-opacity="0.235"/>
      <feComposite operator="in" in2="blur-3"/>
      <feComposite in="SourceGraphic"/>
    </filter>
    <filter id="Path_4593" x="-18.785" y="406.116" width="420.572" height="422.384" filterUnits="userSpaceOnUse">
      <feOffset dx="4" dy="-5" input="SourceAlpha"/>
      <feGaussianBlur stdDeviation="7.5" result="blur-4"/>
      <feFlood flood-color="#f8f8f8" flood-opacity="0.192"/>
      <feComposite operator="in" in2="blur-4"/>
      <feComposite in="SourceGraphic"/>
    </filter>
    <filter id="Path_4594" x="-8.713" y="472.804" width="393" height="342.196" filterUnits="userSpaceOnUse">
      <feOffset dy="-5" input="SourceAlpha"/>
      <feGaussianBlur stdDeviation="3" result="blur-5"/>
      <feFlood flood-color="#8b8b8b" flood-opacity="0.29"/>
      <feComposite operator="in" in2="blur-5"/>
      <feComposite in="SourceGraphic"/>
    </filter>
    <clipPath id="clip-_0.0_Splash_screen">
      <rect width="375" height="811"/>
    </clipPath>
  </defs>
  <g id="_0.0_Splash_screen" data-name="0.0 Splash screen" clip-path="url(#clip-_0.0_Splash_screen)">
    <rect width="375" height="811" fill="#f7f7f7"/>
    <text id="Search" transform="matrix(1, 0, 0, -1, 88, 271)" fill="rgba(30,32,34,0.16)" font-size="35" font-family="AvenirNext-DemiBold, Avenir Next" font-weight="300" letter-spacing="0.005em"><tspan x="0" y="0">ActionCoast</tspan></text>
    <rect id="Rectangle_1617" data-name="Rectangle 1617" width="305" height="52" transform="translate(45 278)" fill="url(#linear-gradient)"/>
    <rect id="Rectangle_1618" data-name="Rectangle 1618" width="305" height="52" transform="translate(45 273)" fill="url(#linear-gradient)"/>
    <text id="Search-2" data-name="Search" transform="translate(88 271)" fill="#1e2022" font-size="35" font-family="AvenirNext-DemiBold, Avenir Next" font-weight="300" letter-spacing="0.005em"><tspan x="0" y="0">ActionCoast</tspan></text>
    <g id="Component_7_1" data-name="Component 7 – 1" transform="translate(-0.285 329.978)">
      <g transform="matrix(1, 0, 0, 1, 0.29, -329.98)" filter="url(#Path_4590)">
        <path id="Path_4590-2" data-name="Path 4590" d="M0-3.5S19.582,20.45,55.619,17.984,92.76-15.152,144.148-13.362,203.459,22.68,261.172,25.145,375-3.5,375-3.5V467.585H0Z" transform="translate(0.29 343.41)" fill="#ecf0f3"/>
      </g>
      <g transform="matrix(1, 0, 0, 1, 0.29, -329.98)" filter="url(#Path_4591)">
        <path id="Path_4591-2" data-name="Path 4591" d="M0-.626S19.582,21.481,55.619,19.205,130.245-3.529,181.633-1.877s56.395,23.121,114.107,25.4S375-.626,375-.626V434.2H0Z" transform="translate(0.29 376.8)" fill="#d1d9e6"/>
      </g>
      <g transform="matrix(1, 0, 0, 1, 0.29, -329.98)" filter="url(#Path_4592)">
        <path id="Path_4592-2" data-name="Path 4592" d="M0-5.011S16.672-1.358,52.709-3.464s40.051-11.5,91.439-9.969S210.338.474,268.051,2.58A521.1,521.1,0,0,0,375-5.011v402.3H0Z" transform="translate(0.29 413.71)" fill="#97a7c3"/>
      </g>
      <g transform="matrix(1, 0, 0, 1, 0.29, -329.98)" filter="url(#Path_4593)">
        <path id="Path_4593-2" data-name="Path 4593" d="M-.572,5.575S22.4-5.242,69.762-6.3,170.507,2.016,188.891,1.337C238.441-.5,247.106-12.014,292.17-14.571A277.691,277.691,0,0,1,375-6.3V362.422H0Z" transform="translate(0.29 448.58)" fill="#3f62ac"/>
      </g>
      <g transform="matrix(1, 0, 0, 1, 0.29, -329.98)" filter="url(#Path_4594)">
        <path id="Path_4594-2" data-name="Path 4594" d="M0-6.778S1.293.2,37.33-1.458,92.76-14.631,144.148-13.424,241.381-3.12,299.094-1.458,375-6.778,375-6.778V310.684H0Z" transform="translate(0.29 500.32)" fill="#193566"/>
      </g>
    </g>
    <g id="sd" transform="translate(134.763 119.419)">
      <path id="Path_4746" data-name="Path 4746" d="M50.884,361.335a46.06,46.06,0,0,0,78.8,8.11,25.076,25.076,0,0,1-26.358-22.764,24.807,24.807,0,0,1,6.359-18.985,14.852,14.852,0,0,0-3.5.092A23.122,23.122,0,0,0,88.67,338.111l-.645.922A50.163,50.163,0,0,1,69.04,355.99l-1.106.645A50.005,50.005,0,0,1,50.884,361.335Z" transform="translate(-40.316 -295.37)" fill="#3f62ac" fill-rule="evenodd"/>
      <path id="Path_4747" data-name="Path 4747" d="M8.172,59.606l1.659-.092.737-.092c.369,0,.829-.092,1.2-.092l1.659-.277,1.567-.277,1.567-.369,1.659-.461,1.567-.461,1.567-.553,1.567-.645,1.475-.645.369-.184a44.8,44.8,0,0,0,17.6-15.3l.553-1.014A30.381,30.381,0,0,1,77.2,27.257a3.361,3.361,0,0,1,2.3,2.857A3.178,3.178,0,0,1,78.03,33.34,18.627,18.627,0,0,0,89.642,67.624H90.1a23.827,23.827,0,0,0,3.686-.829A46.157,46.157,0,1,0,8.172,59.606Z" transform="translate(0 0)" fill="#3f62ac" fill-rule="evenodd"/>
      <path id="Path_4748" data-name="Path 4748" d="M25.982,295.194a45.263,45.263,0,0,0,2.371,6.291,49.694,49.694,0,0,0,17.062-4.694l1.174-.582a50.148,50.148,0,0,0,18.936-16.972h0c.2-.3.4-.612.615-.955A23.623,23.623,0,0,1,83.7,267.928a23.926,23.926,0,0,1,3.474-.056,25.05,25.05,0,0,0,19.981,41.781,46.068,46.068,0,0,0,4.475-7.35,17.944,17.944,0,0,1-3.683.824c-.174.019-.345.037-.519.053a18.607,18.607,0,0,1-11.605-34.248,3.392,3.392,0,0,0-.773-6.092,30.168,30.168,0,0,0-34.282,11.884l-.618.957a43.683,43.683,0,0,1-17.52,15.3l-.415.2c-.246.116-.493.229-.743.34s-.5.221-.758.328-.508.211-.766.314-.512.2-.767.3l-.782.286c-.259.092-.514.18-.773.267l-.565.184-.279.088c-.26.08-.52.16-.78.236l-.808.226c-.267.072-.531.14-.8.207s-.536.131-.8.191h0c-.268.062-.536.122-.808.178s-.534.109-.8.16l-.7.126c-.16.029-.319.055-.479.08-.406.065-.81.125-1.213.179s-.805.1-1.21.145l-.733.071-1.423.1Z" transform="translate(-17.83 -235.548)" fill="#fff" fill-rule="evenodd"/>
      <path id="Path_4749" data-name="Path 4749" d="M207.569,134.581a8.97,8.97,0,1,1-8.97,8.97A8.97,8.97,0,0,1,207.569,134.581Z" transform="translate(-173.7 -121.045)" fill="#fff"/>
    </g>
  </g>
</svg>
