<svg width="1734" height="473" viewBox="0 0 1734 473" fill="none" xmlns="http://www.w3.org/2000/svg">
<path d="M1385.05 314.199C1419.36 314.199 1444.61 287.689 1444.61 256.329V255.909C1444.61 224.129 1419.77 198.24 1385.46 198.24C1351.37 198.24 1326.13 224.549 1326.13 256.329V256.75C1326.13 288.32 1351.17 314.199 1385.05 314.199ZM969.815 314.199C1004.12 314.199 1029.38 287.689 1029.38 256.329V255.909C1029.38 224.129 1004.53 198.24 970.235 198.24C936.135 198.24 910.885 224.549 910.885 256.329V256.75C910.885 288.32 935.925 314.199 969.815 314.199ZM726.725 314.199C745.255 314.199 757.245 307.889 767.135 298.419C769.455 296.519 770.715 293.789 770.715 290.419C770.715 284.319 765.875 279.269 759.775 279.269C756.615 279.269 754.305 280.53 752.825 282C745.885 287.9 738.095 291.889 727.995 291.889C708.415 291.889 694.745 276.109 694.745 256.329V255.909C694.745 236.539 708.415 220.549 726.935 220.549C737.045 220.549 744.195 224.339 750.725 230.019C752.405 231.489 755.145 232.539 758.295 232.539C764.825 232.539 770.085 227.489 770.085 220.969C770.085 216.759 767.765 213.6 766.085 212.13C756.615 203.92 744.825 198.24 727.145 198.24C693.685 198.24 669.275 224.759 669.275 256.329V256.75C669.275 288.32 693.685 314.199 726.725 314.199ZM1274.97 314.199C1293.49 314.199 1305.5 307.889 1315.39 298.419C1317.71 296.519 1318.96 293.789 1318.96 290.419C1318.96 284.319 1314.12 279.269 1308.03 279.269C1304.87 279.269 1302.55 280.53 1301.08 282C1294.14 287.9 1286.34 291.889 1276.24 291.889C1256.66 291.889 1242.98 276.109 1242.98 256.329V255.909C1242.98 236.539 1256.66 220.549 1275.18 220.549C1285.29 220.549 1292.44 224.339 1298.97 230.019C1300.65 231.489 1303.39 232.539 1306.55 232.539C1313.08 232.539 1318.34 227.489 1318.34 220.969C1318.34 216.759 1316.02 213.6 1314.34 212.13C1304.87 203.92 1293.07 198.24 1275.39 198.24C1241.93 198.24 1217.53 224.759 1217.53 256.329V256.75C1217.53 288.32 1241.93 314.199 1274.97 314.199ZM592.245 313.99C609.295 313.99 620.865 306.839 628.445 297.789V302C628.445 307.68 633.495 312.729 640.865 312.729C647.805 312.729 653.275 307.469 653.275 300.519V245.799C653.275 231.279 649.495 219.71 641.285 211.5C633.285 203.29 621.075 199.079 604.455 199.079C589.925 199.079 579.405 201.609 568.675 205.609C564.675 207.079 561.725 210.869 561.725 215.709C561.725 221.599 566.565 226.229 572.465 226.229C573.515 226.229 574.985 226.019 576.465 225.599C583.405 222.859 591.195 221.179 601.085 221.179C618.975 221.179 628.655 229.39 628.655 245.38V248.12C620.025 245.38 611.395 243.49 598.775 243.49C571.625 243.49 552.885 255.059 552.885 279.269V279.689C552.885 302.209 571.405 313.99 592.245 313.99ZM1494.07 313.99C1511.12 313.99 1522.7 306.839 1530.27 297.789V302C1530.27 307.68 1535.31 312.729 1542.68 312.729C1549.62 312.729 1555.11 307.469 1555.11 300.519V245.799C1555.11 231.279 1551.32 219.71 1543.11 211.5C1535.11 203.29 1522.91 199.079 1506.28 199.079C1491.76 199.079 1481.22 201.609 1470.49 205.609C1466.49 207.079 1463.55 210.869 1463.55 215.709C1463.55 221.599 1468.4 226.229 1474.29 226.229C1475.34 226.229 1476.81 226.019 1478.29 225.599C1485.23 222.859 1493.01 221.179 1502.9 221.179C1520.79 221.179 1530.47 229.39 1530.47 245.38V248.12C1521.84 245.38 1513.22 243.49 1500.6 243.49C1473.45 243.49 1454.71 255.059 1454.71 279.269V279.689C1454.71 302.209 1473.24 313.99 1494.07 313.99ZM1615.3 313.779C1638.45 313.779 1656.55 302.209 1656.55 278.849V278.429C1656.55 258.429 1638.03 251.069 1622.03 246.009C1608.97 242.009 1596.98 238.229 1596.98 230.229V229.809C1596.98 223.279 1602.67 218.87 1612.56 218.87C1620.35 218.87 1629.6 221.599 1638.65 226.439C1640.33 227.279 1641.39 227.699 1643.7 227.699C1649.59 227.699 1654.22 223.279 1654.22 217.389C1654.22 212.969 1651.71 209.599 1648.13 207.709C1637.4 202.029 1624.97 198.659 1613.18 198.659C1591.08 198.659 1573.63 211.499 1573.63 232.539V232.959C1573.63 254.219 1592.15 261.169 1608.35 265.589C1621.4 269.589 1633.18 272.739 1633.18 281.159V281.579C1633.18 288.949 1626.86 293.579 1615.92 293.579C1605.82 293.579 1594.66 290.209 1583.93 282.839C1582.25 281.789 1580.35 281.37 1578.46 281.37C1572.56 281.37 1568.14 285.999 1568.14 291.679C1568.14 295.889 1570.26 299.049 1572.98 300.519C1585.82 309.569 1600.98 313.779 1615.3 313.779ZM1709.37 313.569C1716.11 313.569 1721.16 312.52 1726.84 310.63C1730.42 309.15 1733.58 305.569 1733.58 300.729C1733.58 294.839 1728.53 290.209 1722.84 290.209C1722 290.209 1719.68 290.839 1716.53 290.839C1707.9 290.839 1702.85 286.839 1702.85 276.949V222.439H1722.84C1728.95 222.439 1733.99 217.6 1733.99 211.5C1733.99 205.4 1728.95 200.549 1722.84 200.549H1702.85V181.609C1702.85 174.669 1697.16 168.979 1690.21 168.979C1682.85 168.979 1677.38 174.669 1677.38 181.609V200.549H1673.16C1667.06 200.549 1662.22 205.4 1662.22 211.5C1662.22 217.6 1667.06 222.439 1673.16 222.439H1677.38V280.949C1677.38 305.359 1690.64 313.569 1709.37 313.569ZM824.385 313.569C831.115 313.569 836.165 312.52 841.855 310.63C845.425 309.15 848.585 305.569 848.585 300.729C848.585 294.839 843.535 290.209 837.855 290.209C837.015 290.209 834.695 290.839 831.535 290.839C822.905 290.839 817.855 286.839 817.855 276.949V222.439H837.855C843.955 222.439 849.005 217.6 849.005 211.5C849.005 205.4 843.955 200.549 837.855 200.549H817.855V181.609C817.855 174.669 812.175 168.979 805.235 168.979C797.865 168.979 792.395 174.669 792.395 181.609V200.549H788.185C782.085 200.549 777.245 205.4 777.245 211.5C777.245 217.6 782.085 222.439 788.185 222.439H792.395V280.949C792.395 305.359 805.655 313.569 824.385 313.569ZM866.685 300.099C866.685 307.469 872.365 312.729 879.315 312.729C886.675 312.729 892.155 307.469 892.155 300.099V212.13C892.155 204.76 886.675 199.289 879.315 199.289C871.945 199.289 866.685 204.76 866.685 212.13V300.099ZM1046.83 300.099C1046.83 307.469 1052.52 312.729 1059.46 312.729C1066.83 312.729 1072.31 307.469 1072.31 300.099V248.959C1072.31 231.489 1082.4 221.389 1097.35 221.389C1112.51 221.389 1121.14 231.069 1121.14 248.539V300.099C1121.14 307.469 1126.6 312.729 1133.97 312.729C1141.33 312.729 1146.59 307.469 1146.59 300.099V240.75C1146.59 214.87 1132.29 198.24 1107.04 198.24C1089.57 198.24 1079.68 207.289 1072.31 217.599V212.13C1072.31 204.76 1066.83 199.289 1059.46 199.289C1052.1 199.289 1046.83 204.76 1046.83 212.13V300.099ZM599.405 295.469C586.985 295.469 577.725 289.369 577.725 278.639V278.209C577.725 266.429 587.195 259.689 603.825 259.689C613.925 259.689 622.555 261.59 629.075 264.109V271.689C629.075 285.999 616.235 295.469 599.405 295.469ZM1501.22 295.469C1488.8 295.469 1479.55 289.369 1479.55 278.639V278.209C1479.55 266.429 1489.01 259.689 1505.64 259.689C1515.74 259.689 1524.37 261.59 1530.89 264.109V271.689C1530.89 285.999 1518.07 295.469 1501.22 295.469ZM1385.46 291.889C1365.89 291.889 1351.59 275.689 1351.59 256.329V255.909C1351.59 236.539 1364.64 220.549 1385.05 220.549C1405.05 220.549 1419.14 236.749 1419.14 256.329V256.75C1419.14 275.9 1406.3 291.889 1385.46 291.889ZM970.235 291.889C950.655 291.889 936.345 275.689 936.345 256.329V255.909C936.345 236.539 949.395 220.549 969.815 220.549C989.805 220.549 1003.91 236.749 1003.91 256.329V256.75C1003.91 275.9 991.065 291.889 970.235 291.889ZM864.795 171.929C864.795 179.509 871.105 184.559 879.315 184.559C887.525 184.559 893.835 179.509 893.835 171.929V170.669C893.835 163.089 887.525 158.25 879.315 158.25C871.105 158.25 864.795 163.089 864.795 170.669V171.929Z" fill="black"/>
<path d="M236.226 472.452C105.762 472.452 -3.05176e-05 366.69 -3.05176e-05 236.226C-3.05176e-05 105.762 105.762 0 236.226 0C366.69 0 472.452 105.762 472.452 236.226C472.452 366.69 366.69 472.452 236.226 472.452Z" fill="url(#paint0_linear_1157_1067)"/>
<mask id="mask0_1157_1067" style="mask-type:luminance" maskUnits="userSpaceOnUse" x="0" y="0" width="473" height="473">
<path d="M236.226 472.452C105.762 472.452 -3.05176e-05 366.69 -3.05176e-05 236.226C-3.05176e-05 105.762 105.762 0 236.226 0C366.69 0 472.452 105.762 472.452 236.226C472.452 366.69 366.69 472.452 236.226 472.452Z" fill="white"/>
</mask>
<g mask="url(#mask0_1157_1067)">
<path d="M-0.871037 303.346L-0.873472 303.319L-0.57958 303.315C-3.91757 303.357 -7.26443 303.298 -10.5836 303.162L-30.5845 302.348L-30.0075 306.901C-29.3275 312.227 -28.4763 317.533 -27.4935 322.76L-26.2399 328.888C-26.2361 328.931 -25.3771 332.765 -25.3771 332.765C-21.2292 350.84 -15.264 368.318 -7.40711 384.874L-5.61824 388.649L22.8514 372.496L14.1038 350.58C12.436 345.83 10.9184 341.019 9.56892 336.149C13.4843 335.98 17.3922 335.725 21.2919 335.379C52.1115 332.647 81.7777 324.524 109.463 311.239L115.484 308.256C154.668 288.172 188.128 258.189 212.556 221.253L212.573 221.248C213.579 219.708 214.614 218.11 215.723 216.354C236.325 185.866 269.116 166.518 305.725 163.272C311.687 162.743 317.634 162.649 323.534 162.985C299.913 189.111 287.816 224.123 291.025 260.32C297.28 330.86 359.763 383.15 430.284 376.897C431.452 376.793 432.636 376.671 433.802 376.543C440.983 375.709 448.058 374.27 454.944 372.255C445.42 392.75 433.011 411.748 417.997 428.715L415.637 431.383L438.529 455.438L441.334 452.306C468.525 421.933 488.459 385.865 499.774 346.322L500.434 344.011C503.463 333.058 505.788 321.982 507.394 310.802L508.685 301.737L474.846 326.261L471.317 328.646C458.987 336.823 444.781 341.994 430.026 343.713C429.134 343.811 428.259 343.904 427.366 343.983C374.986 348.627 328.603 309.79 323.958 257.4C320.797 221.755 337.616 187.659 367.872 168.417C373.544 164.818 376.645 158.199 375.812 151.543C374.963 144.892 370.291 139.262 363.909 137.187C344.159 130.811 323.594 128.51 302.807 130.353C256.148 134.49 214.359 159.187 188.168 198.109L185.001 203.012C162.62 236.862 131.556 263.983 95.1851 281.437L93.0579 282.441C91.7946 283.034 90.5304 283.614 89.2478 284.184C87.9478 284.753 86.6643 285.316 85.3625 285.866C84.0606 286.414 82.7573 286.948 81.4361 287.474C80.1316 287.993 78.8093 288.504 77.5031 289.004L73.4947 290.469C72.1686 290.94 70.8586 291.394 69.5302 291.839L66.6357 292.781C66.1643 292.932 65.6754 293.082 65.2038 293.232C63.8724 293.642 62.5409 294.05 61.2078 294.441C61.1911 294.448 57.068 295.598 57.068 295.598C55.6984 295.969 54.344 296.314 52.972 296.657C51.6171 296.999 50.2267 297.328 48.8691 297.639L48.8521 297.642C47.4779 297.962 46.1022 298.267 44.7081 298.557C43.3481 298.84 41.9702 299.115 40.6085 299.379L37.0299 300.024C36.2118 300.171 35.3924 300.306 34.5728 300.435C32.49 300.769 30.4225 301.077 28.352 301.354C26.2987 301.63 24.225 301.872 22.1498 302.096L18.3903 302.459L11.0959 302.988L8.9412 303.096L7.17974 303.148C7.16241 303.148 3.86653 303.272 3.86653 303.272L1.06364 303.298L-0.871037 303.346Z" fill="white"/>
</g>
<path d="M141.652 66.6662C167.048 66.6662 187.636 87.2541 187.636 112.65C187.636 138.047 167.048 158.634 141.652 158.634C116.255 158.634 95.6675 138.047 95.6675 112.65C95.6675 87.2541 116.255 66.6662 141.652 66.6662Z" fill="white"/>
<defs>
<linearGradient id="paint0_linear_1157_1067" x1="358.033" y1="0.00614114" x2="118.549" y2="561.256" gradientUnits="userSpaceOnUse">
<stop stop-color="#3A7BD5"/>
<stop offset="0.48" stop-color="#0EBEF5"/>
<stop offset="1" stop-color="#00D2FF"/>
</linearGradient>
</defs>
</svg>
