<svg width="153" height="174" viewBox="0 0 153 174" fill="none" xmlns="http://www.w3.org/2000/svg">
<path d="M0.01756 149.791V168.791C-0.0381972 169.392 0.039213 169.999 0.244286 170.567C0.44936 171.135 0.777059 171.65 1.20408 172.077C1.63111 172.504 2.14697 172.832 2.71499 173.037C3.28301 173.242 3.88923 173.32 4.49056 173.264C5.08031 173.272 5.66577 173.163 6.21229 172.941C6.75882 172.719 7.2553 172.39 7.67236 171.973C8.08942 171.556 8.41858 171.059 8.64036 170.513C8.86215 169.966 8.97205 169.381 8.96356 168.791V149.791C8.97218 149.201 8.86241 148.616 8.64075 148.069C8.41908 147.523 8.09003 147.026 7.67307 146.609C7.2561 146.192 6.75969 145.862 6.21322 145.641C5.66675 145.419 5.08131 145.309 4.49156 145.317C1.69756 145.874 0.01756 147.554 0.01756 149.791Z" fill="#CF1F26"/>
<path d="M33.5525 117.374V167.674C33.5116 168.285 33.5966 168.898 33.8024 169.475C34.0081 170.052 34.3302 170.581 34.7486 171.028C35.1671 171.476 35.673 171.832 36.2349 172.076C36.7969 172.32 37.4029 172.446 38.0155 172.446C38.6281 172.446 39.2342 172.32 39.7961 172.076C40.3581 171.832 40.8639 171.476 41.2824 171.028C41.7008 170.581 42.0229 170.052 42.2287 169.475C42.4344 168.898 42.5195 168.285 42.4785 167.674V117.374C42.487 116.784 42.3771 116.199 42.1553 115.652C41.9335 115.106 41.6044 114.609 41.1873 114.192C40.7703 113.775 40.2738 113.446 39.7272 113.224C39.1807 113.002 38.5953 112.893 38.0055 112.901C37.4059 112.849 36.802 112.928 36.2366 113.135C35.6712 113.341 35.158 113.67 34.7334 114.096C34.3087 114.523 33.983 115.038 33.7791 115.604C33.5752 116.17 33.4972 116.775 33.5525 117.374Z" fill="#ED037C"/>
<path d="M66.5306 83.84V167.674C66.4896 168.285 66.5747 168.898 66.7804 169.475C66.9862 170.052 67.3082 170.581 67.7267 171.028C68.1451 171.476 68.651 171.832 69.213 172.076C69.7749 172.32 70.381 172.446 70.9935 172.446C71.6061 172.446 72.2122 172.32 72.7741 172.076C73.3361 171.832 73.842 171.476 74.2604 171.028C74.6789 170.581 75.0009 170.052 75.2067 169.475C75.4124 168.898 75.4975 168.285 75.4566 167.674V83.84C75.4652 83.2501 75.3553 82.6644 75.1336 82.1177C74.9118 81.571 74.5825 81.0744 74.1654 80.6572C73.7482 80.24 73.2515 79.9108 72.7048 79.689C72.1581 79.4672 71.5725 79.3574 70.9825 79.366C69.8227 79.4456 68.7309 79.9426 67.9093 80.7652C67.0876 81.5877 66.5918 82.68 66.5135 83.84" fill="#FF8F00"/>
<path d="M100.066 50.305V167.674C100.141 168.806 100.645 169.867 101.473 170.642C102.302 171.417 103.394 171.848 104.529 171.848C105.663 171.848 106.755 171.417 107.584 170.642C108.413 169.867 108.916 168.806 108.992 167.674V50.305C109 49.7151 108.89 49.1295 108.669 48.5828C108.447 48.0361 108.118 47.5394 107.7 47.1222C107.283 46.705 106.787 46.3758 106.24 46.154C105.693 45.9322 105.107 45.8224 104.518 45.831C101.725 46.388 100.045 48.068 100.045 50.304" fill="white"/>
<path d="M152.602 21.8L138.63 0.557C138.63 0 138.069 0 137.512 0C136.955 0 136.955 0 136.394 0.557L122.407 21.8C121.85 22.918 122.407 24.037 123.525 24.037H133.585C133.585 24.594 133.028 25.155 133.028 25.712L134.146 167.679C134.24 168.778 134.761 169.795 135.597 170.514C136.434 171.232 137.519 171.594 138.619 171.521C139.719 171.448 140.747 170.946 141.481 170.124C142.215 169.301 142.597 168.223 142.546 167.122L141.98 25.15C142.017 24.847 141.987 24.5393 141.89 24.2496C141.794 23.9598 141.634 23.6952 141.423 23.475H151.483C152.602 23.475 153.159 22.356 152.602 21.8Z" fill="#63B190"/>
</svg>
