<svg width="32" height="46" viewBox="0 0 32 46" fill="none" xmlns="http://www.w3.org/2000/svg">
<path d="M31.2906 9.65137L28.44 41.586L15.6262 45.1384L2.84764 41.591L0 9.65137H31.2906Z" fill="#595959"/>
<path d="M6.52814 24.1091L6.87923 28.0263H15.6453L17.3303 26.0677L15.6453 24.1091H6.52814Z" fill="#EBEBEB"/>
<path d="M15.6453 16.1804H15.6318H5.82269L6.17879 20.0977H15.6453L17.3303 18.139L15.6453 16.1804Z" fill="#EBEBEB"/>
<path d="M15.6453 38.3581L17.3303 36.2808L15.6453 34.2825L15.6281 34.2871L11.2655 33.1091L10.9866 29.9849H8.86665H7.05426L7.60307 36.1355L15.6273 38.3631L15.6453 38.3581Z" fill="#EBEBEB"/>
<path d="M7.36407 0.97168H12.1086V2.95574H9.34813V4.93979H12.1086V6.92385H7.36407V0.97168Z" fill="#595959"/>
<path d="M13.0574 0.97168H17.8019V2.69695H15.0415V3.042H17.8019V7.01011H13.0574V5.19858H15.8179V4.85353H13.0574V0.97168Z" fill="#595959"/>
<path d="M18.7508 0.97168H23.4953V2.69695H20.7348V3.042H23.4953V7.01011H18.7508V5.19858H21.5112V4.85353H18.7508V0.97168Z" fill="#595959"/>
<path d="M20.4554 28.0263L20.0008 33.1067L15.6318 34.2859V38.3613L23.6624 36.1356L23.7213 35.4738L24.6418 25.1609L24.7374 24.1091L25.4446 16.1804H15.6318V20.0977H21.1516L20.7952 24.1091H15.6318V28.0263H20.4554Z" fill="white"/>
</svg>
