<svg width="93" height="93" viewBox="0 0 93 93" fill="none" xmlns="http://www.w3.org/2000/svg">
<rect width="93" height="93" rx="10" fill="#0072BA"/>
<path d="M73.7565 26.3898C72.697 25.8342 72.0159 24.7483 71.9907 23.536C71.9907 21.6925 73.5799 20.3035 75.4718 20.3035C76.6827 20.2782 77.8178 20.8338 78.5746 21.7682C77.2881 22.5006 76.4809 23.8391 76.4304 25.3039C76.4304 27.1475 77.389 28.2839 78.2719 29.2183L75.9259 30.9356C74.5637 29.7234 73.7565 28.1576 73.7565 26.3898ZM65.8608 67.58C64.8518 67.58 64.3472 68.1609 64.2716 68.666C64.65 68.4892 65.0536 68.4134 65.4824 68.4134C66.4914 68.4134 67.3239 68.9943 67.5761 69.5499C67.6771 68.5145 67.0464 67.58 65.8608 67.58ZM65.2806 70.4843C64.0698 70.4843 63.4391 71.444 63.5652 72.2016C63.8175 71.8986 64.322 71.444 65.3311 71.444C66.0374 71.444 66.6932 71.7471 67.1725 72.2521C67.1725 71.3682 66.5419 70.4843 65.2806 70.4843ZM62.8085 73.9189C62.8085 73.5149 62.8842 73.136 63.0607 72.7825C62.6823 72.2774 62.4805 71.646 62.5058 71.0147C62.5058 70.156 62.9598 69.3731 63.7166 68.9185C63.4643 67.0244 64.9779 65.7617 66.6932 65.7617C68.5852 65.7617 69.5438 67.1002 69.8465 68.4134C70.0987 69.3731 70.4771 69.6762 70.9312 69.7519C71.8141 69.853 72.7222 69.8024 73.5799 69.6257C74.1349 69.4994 74.4123 69.1711 74.4123 68.2367C74.4123 66.6456 73.9583 64.5747 73.5799 62.8069C71.915 62.9837 70.2249 63.0595 68.5347 63.0595C64.6247 63.0595 62.4049 61.2917 62.0265 57.4277C61.9256 55.7356 61.4463 54.0941 60.6391 52.6293C59.9327 51.2908 58.3687 49.523 58.3687 47.2501C58.3687 45.5328 58.9994 44.5226 60.967 43.5882C62.4805 42.9316 63.9436 42.1992 65.3815 41.3658C65.3311 43.5882 66.6428 46.543 68.3581 47.8057C70.2501 49.1947 72.0159 49.5735 74.6141 49.5735C77.5908 49.5735 80.4161 48.6896 81.9548 46.9218C81.0719 47.4774 79.8611 47.8057 78.3476 47.8057C73.6808 47.8057 70.7041 44.1943 70.7041 40.3303C70.7041 37.5523 72.2177 35.0774 74.7403 32.9813C76.834 31.264 78.7259 30.2033 80.1638 28.7385C81.1224 27.7788 81.9296 26.6424 81.9296 25.3291C81.9296 23.7381 80.8449 22.2228 79.7098 21.7935C80.4918 20.9348 81.5765 20.4045 82.7369 20.3287C84.6288 20.3287 86.3946 21.7177 86.3946 23.5613C86.3946 24.8493 85.663 26.011 84.5027 26.5413C84.5531 27.6273 83.872 29.0163 83.0396 29.9002C81.4503 31.6175 78.5494 33.4358 76.6574 34.9511C74.7655 36.4664 73.7565 38.0574 73.7565 40.2041C73.7565 43.0578 76.0268 45.1287 78.9277 45.1287C81.6774 45.1792 83.9225 42.9821 83.9729 40.2293C83.9729 40.2041 83.9729 40.1788 83.9729 40.1283C83.9729 37.4766 82.081 35.5067 79.18 34.1935L81.5765 32.4762C84.1747 33.9914 87 36.0876 87 40.5829C87 46.7955 82.0053 52.2253 73.9078 52.2253C71.3852 52.2253 70.6789 51.9222 69.1149 51.2656C70.124 52.2253 71.2087 53.6143 71.2591 55.3063C72.5204 55.6851 73.4033 55.8619 76.1277 55.8619C77.5403 55.8619 78.9278 55.6599 80.2899 55.3063C81.2485 55.0538 81.8035 54.6749 82.1314 54.2204C82.4341 54.7002 82.6107 55.2306 82.6359 55.8114C82.6359 57.1499 81.7278 58.3116 80.4161 58.6652C80.8701 63.1605 81.2233 67.6558 81.2233 71.6965C81.2233 74.7271 79.7098 76.5707 77.5656 76.5707C77.6917 76.4444 77.7674 76.2424 77.7674 76.0656C77.7674 74.8534 76.4304 74.2978 75.497 74.2978C73.6051 74.2978 72.5961 75.813 70.5023 75.813C68.6609 75.813 67.9041 74.2978 66.5167 74.2978C65.6338 74.2978 65.0031 74.8786 65.0031 75.6362C65.0031 76.0151 65.1292 76.3686 65.3815 76.6464C64.1959 76.6212 62.8085 75.4847 62.8085 73.9189ZM58.3183 55.7356C58.3183 55.1043 58.5201 54.7255 59.2769 54.5992C58.6714 53.2102 57.9651 51.8717 57.1831 50.5584C56.9813 50.2554 57.1831 50.0534 57.4354 50.0534C57.8138 50.0281 58.1922 50.2301 58.394 50.5584C58.9237 51.2908 59.4282 52.0485 59.8571 52.8314C60.74 54.2961 61.2192 55.9882 61.2445 57.7055H60.6138C59.2769 57.7055 58.3183 56.7458 58.3183 55.7356ZM55.1146 45.0024C55.1146 43.2346 56.3254 41.7699 58.4696 40.6334C59.9832 39.8758 61.2445 39.3707 63.7671 38.1079C67.7527 36.1381 69.2663 32.9055 69.2663 28.5365C69.2411 27.4505 69.1149 26.3646 68.8879 25.3039C69.7203 26.8949 70.1492 28.6375 70.1492 30.4306C70.1492 34.5976 68.6861 38.6635 64.5238 40.8102C62.758 41.6941 61.749 42.275 60.412 42.9063C58.394 43.7902 57.4354 45.1792 57.4354 46.8208C57.4102 47.7047 57.6372 48.5886 58.066 49.3462C56.2498 48.8411 55.1146 47.1996 55.1146 45.0024ZM57.4354 18.1568C56.1741 18.1568 54.9128 18.2073 53.5758 18.3589L51.8605 15H54.7614C54.7614 15.7071 55.3164 16.2627 56.0227 16.2627C56.7291 16.2627 57.284 15.7071 57.284 15H59.9075C59.9075 15.8081 60.412 16.3385 61.1688 16.3385C61.8751 16.3385 62.4301 15.6314 62.4301 15H65.3311L63.3634 18.4851C61.3958 18.2578 59.4282 18.1568 57.4354 18.1568ZM51.6839 43.1589C51.6839 40.6334 52.8947 38.9161 55.9723 37.4766C57.9399 36.5927 59.3778 36.2644 61.6733 35.3299C66.1635 33.5621 67.2987 30.2033 67.2987 26.3393C67.2987 25.0008 67.0969 23.435 66.4158 22.0965C67.3743 23.233 68.5095 25.0008 68.5095 28.4859C68.5095 32.0974 67.2987 35.4562 63.313 37.4008C61.4211 38.2847 60.1598 38.7898 58.0156 39.8C55.5434 41.0627 54.156 42.8306 54.156 44.9267C54.156 46.2652 54.6858 47.5784 55.6191 48.5381C53.1974 47.831 51.6839 45.558 51.6839 43.1589ZM47.9 41.391C47.9 37.9817 49.792 35.9613 53.4749 34.547C55.493 33.7894 57.4606 33.2086 59.2769 32.653C63.7671 31.0619 65.3311 28.7385 65.3311 24.5462C65.3311 22.7784 64.8265 21.0611 63.9941 20.0509C65.3815 21.2631 66.5167 23.0815 66.5167 26.2383C66.5167 29.5214 65.5581 32.8802 61.0174 34.5976C58.8732 35.431 57.6624 35.8603 55.3921 36.82C51.8605 38.3352 50.7253 40.3556 50.7253 43.0831C50.7253 45.6843 52.1127 47.1238 53.1974 48.0077C50.6244 47.5784 47.9 44.9267 47.9 41.391ZM44.1162 39.7495C44.1162 35.5825 47.2694 31.8448 52.138 30.7084C53.9795 30.2538 55.5434 30.0012 57.6876 29.4456C61.7238 28.3597 62.9851 26.5919 62.9851 24.2684C63.0103 23.6876 62.8589 23.1067 62.531 22.6269C62.5814 22.9805 62.6067 23.334 62.5814 23.7128C62.5814 26.2383 60.2354 28.5112 56.83 28.8395C54.9885 28.9658 53.0461 29.2183 51.1542 29.4204C50.7001 29.4709 50.5235 29.2941 50.5235 28.9153L50.4731 25.8847C50.4731 25.7585 50.5487 25.6322 50.6749 25.6322C50.7001 25.6322 50.7001 25.6322 50.7253 25.6322C50.8515 25.6322 50.9271 25.6827 50.9776 25.8342C51.4821 26.5666 52.3145 26.9959 53.1974 26.9707C54.0803 26.9707 54.5849 26.4656 54.5849 25.8847C54.5849 25.2534 54.0299 24.6725 52.8695 24.6725C50.3974 24.6725 49.1361 26.3898 46.4369 26.3898C43.4603 26.3898 42.4513 24.925 42.4513 23.536C42.426 22.5764 43.0062 21.6925 43.9144 21.3136C43.6873 21.5914 43.5612 21.9703 43.5864 22.3238C43.5864 23.2835 44.7216 24.0411 46.7396 24.0411C48.6316 24.0411 49.8424 23.5866 51.2803 23.5866C53.1722 23.5866 54.3074 24.2179 54.8119 24.925C54.7614 23.4603 53.6767 22.1976 52.2893 22.1976C51.6839 22.147 51.1037 22.4754 50.8262 23.031C50.801 23.1825 50.6496 23.2835 50.5235 23.2835C50.3974 23.2835 50.2713 23.233 50.2713 23.1067L49.9686 19.9499C49.9181 19.5711 50.0947 19.369 50.5992 19.3185L53.8281 19.066C54.3831 20.657 54.7867 21.5409 55.5939 21.5409C56.048 21.5409 56.2245 21.0358 56.2245 20.5813C56.9056 20.4045 57.612 20.3792 58.3183 20.455C57.4858 19.8994 54.7867 20.2024 53.9542 19.066C55.2912 19.0155 56.3002 18.9397 57.3597 18.9397C58.3435 18.9145 59.3021 18.965 60.2607 19.066C61.2697 19.1923 62.2787 19.7731 62.2787 20.8338C62.2787 21.5409 61.9003 22.046 61.194 22.046C60.9418 22.046 60.6895 21.9703 60.4877 21.7935C60.5382 22.2986 61.0679 22.6269 61.5724 22.6269C62.4049 22.6269 62.9598 22.1218 62.9598 21.0358C62.9851 20.4045 62.7832 19.7984 62.4049 19.3185C63.7418 20.4045 64.5491 22.2986 64.5491 24.4957C64.5491 28.3597 63.1616 30.38 58.8732 31.8953C56.6534 32.653 54.8876 33.158 52.6677 33.9914C49.0604 35.3299 46.9162 37.7796 46.9162 41.2648C46.9162 43.664 48.1271 46.3914 50.6496 47.6542C46.8153 47.0733 44.1162 43.5882 44.1162 39.7495ZM35.8926 67.58C34.8835 67.58 34.379 68.1609 34.3033 68.666C34.6817 68.4892 35.0853 68.4134 35.5142 68.4134C36.5232 68.4134 37.3557 68.9943 37.6079 69.5499C37.734 68.5145 37.1034 67.58 35.8926 67.58ZM35.3376 70.4843C34.1268 70.4843 33.4961 71.444 33.6222 72.2016C33.8745 71.8986 34.379 71.444 35.388 71.444C36.0944 71.444 36.7502 71.7471 37.2295 72.2521C37.2295 71.3682 36.5989 70.4843 35.3376 70.4843ZM32.8655 73.8937C32.8655 73.4896 32.9411 73.1108 33.1177 72.7572C32.7393 72.2521 32.5375 71.6208 32.5375 70.9894C32.5375 70.1308 32.9916 69.3479 33.7484 68.8933C33.4961 66.9992 35.0097 65.7365 36.725 65.7365C38.6169 65.7365 39.5755 67.075 39.8782 68.3882C40.1305 69.3479 40.5089 69.6509 40.9377 69.7267C41.8206 69.8277 42.7287 69.7772 43.5864 69.6004C44.1666 69.4741 44.4189 69.1458 44.4189 68.2114C44.4693 61.5695 43.6621 57.3267 43.6621 54.9275C43.6621 52.3263 45.1252 51.1898 46.6387 50.6847C48.6568 49.9776 52.6425 49.422 54.6101 49.4725C55.493 49.4725 55.9471 50.0534 56.3254 50.609C57.057 51.7959 57.7129 53.0081 58.2931 54.2709C57.7885 54.5234 57.4858 55.0538 57.5363 55.6094C57.5363 56.4428 57.9903 57.2257 58.7471 57.6297L51.356 57.8318C51.3055 58.2611 51.2803 58.6652 51.3055 59.0945C51.2551 59.8269 51.81 60.433 52.5416 60.4835C52.5668 60.4835 52.6173 60.4835 52.6425 60.4835C53.1975 60.4835 53.7272 60.2815 54.156 59.9026C54.4083 62.5039 52.8443 63.312 51.1794 63.3878C51.2298 65.7365 51.3812 67.4285 51.3812 71.6713C51.3812 74.7018 49.8676 76.5454 47.7235 76.5454C47.8496 76.4192 47.9253 76.2171 47.9253 76.0403C47.9253 74.8281 46.5883 74.2725 45.6549 74.2725C43.763 74.2725 42.754 75.7878 40.6602 75.7878C38.8188 75.7878 38.062 74.2725 36.6746 74.2725C35.7917 74.2725 35.161 74.8534 35.161 75.611C35.161 75.9898 35.2871 76.3434 35.5394 76.6212C34.2529 76.6212 32.8655 75.4847 32.8655 73.8937ZM30.8474 23.031C30.8222 22.0965 30.0402 21.3642 29.0816 21.3894C29.5861 21.8945 29.8384 22.5764 29.8384 23.2835C29.8384 23.7886 29.7375 24.2684 29.5357 24.7483C30.2672 24.4957 30.8474 23.9149 30.8474 23.031ZM28.8293 42.0729C28.8041 41.2143 28.123 40.5071 27.2401 40.4819C26.887 40.4819 26.5338 40.5829 26.2311 40.8102C27.4419 41.0627 28.35 42.0982 28.4509 43.3356C28.7032 42.9568 28.8293 42.5275 28.8293 42.0729ZM27.8203 23.4098C27.8203 22.4501 27.0635 21.6672 26.105 21.642C25.8275 21.642 25.55 21.7177 25.2977 21.844C26.3824 22.2986 27.1392 23.233 27.0635 25.0008C27.5428 24.622 27.8455 24.0411 27.8203 23.4098ZM30.8979 74.02L26.1554 53.6395L24.44 52.4273L23.6328 48.5128C23.5067 48.0077 23.759 47.7552 24.1373 47.7552C24.4148 47.7805 24.6671 47.9067 24.8437 48.134C25.5248 48.9422 26.2563 49.7251 27.0635 50.4069C27.5933 50.8615 28.1987 51.2403 28.8293 51.5434L32.7393 68.565C32.0582 69.1711 31.6799 70.055 31.6546 70.9641C31.6546 71.6208 31.8312 72.2774 32.1591 72.8582C32.033 73.1866 31.9573 73.5149 31.9573 73.8684C31.9573 74.2725 32.033 74.6513 32.2096 75.0049L30.8979 74.02ZM24.9698 43.0326C24.1373 43.0326 23.5824 43.4872 23.4562 43.9923C23.759 43.9165 24.0869 43.866 24.4148 43.866C25.2977 43.8155 26.1302 44.2953 26.559 45.0782C26.7356 43.8407 26.0293 43.0326 24.9698 43.0326ZM30.3429 54.675C31.0997 54.4729 31.478 53.9173 31.478 53.4122C31.478 52.6546 31.024 52.1495 30.469 51.7707C29.5104 51.1898 28.5014 50.6847 27.6185 49.9271C26.8365 49.2452 26.1302 48.4876 25.5248 47.6542C25.0707 47.1491 24.7175 46.947 24.1373 46.947C23.5067 46.9218 22.977 47.4016 22.9265 48.0077C22.9013 48.2855 22.977 48.5381 23.1283 48.7654C22.1697 48.4623 21.6148 47.4269 21.6148 46.3662C21.64 45.4823 22.1193 44.6741 22.8761 44.2196C22.8004 43.967 22.7499 43.7145 22.7499 43.4619C22.7499 42.1234 23.8094 40.8607 25.5248 40.7344C25.8275 39.8505 26.7861 39.1434 28.0473 39.1434C29.7375 39.1181 31.1249 40.4819 31.1501 42.1992C31.1501 42.2497 31.1501 42.275 31.1501 42.3255C31.1501 43.3356 30.8979 43.5882 30.8979 44.3458C30.8979 44.8004 31.024 45.154 31.6546 45.8106C32.4114 46.5682 32.7898 47.0228 33.2438 47.0228C33.6979 47.0228 33.9502 46.8208 34.4547 46.442C37.3052 44.0428 39.7521 41.5173 43.1828 39.6737C43.2333 42.6538 44.3937 45.053 46.8406 46.8965L44.6964 48.5381C44.3684 48.1845 43.9144 48.0077 43.4351 48.033C42.6026 48.033 41.7954 48.336 40.5341 49.1694C39.071 50.1291 36.6746 52.5788 34.9844 54.2204C34.0259 55.18 33.0168 55.6851 32.0835 55.6851C31.2762 55.6851 30.6456 55.3568 30.3429 54.675ZM33.1682 37.5271C31.3267 37.5271 30.1915 37.6534 28.9302 37.6534C26.9626 37.6534 25.5248 36.82 25.0707 35.2542C25.8275 35.2542 26.4077 34.6228 26.4077 33.8904C26.4077 33.8904 26.4077 33.8904 26.4077 33.8652C26.4077 32.3499 24.0617 30.8346 24.0617 27.9303C24.0617 26.9707 24.1878 26.0868 24.1878 25.4049C24.1878 24.6978 23.5824 24.1169 22.8761 24.1422H22.8508C22.3715 24.1422 21.8922 24.3189 21.5139 24.6473C21.3877 22.8794 22.8508 21.5409 24.6671 21.6672C24.9193 21.1116 25.8527 20.4045 26.9374 20.4045C27.4671 20.3792 28.0221 20.5308 28.4509 20.8591C28.8293 20.7075 29.233 20.657 29.6618 20.657C31.3267 20.6823 32.6637 22.0208 32.6889 23.6876C32.6889 25.4049 31.6799 26.213 30.6708 26.9202C30.2168 27.198 29.9897 27.7283 30.1159 28.2587C30.1663 28.9658 30.5699 30.1528 30.7465 30.7841C30.9483 31.3397 31.3771 31.6175 32.0835 31.5418C35.5646 31.2892 40.5593 30.9104 43.5864 30.7841C46.4369 30.6578 48.455 30.5821 50.801 30.4811C46.3865 31.567 43.8387 34.5218 43.1576 38.7646L41.1395 39.8505C40.6855 38.0827 38.4151 37.5271 33.1682 37.5271ZM19.9751 31.567C16.4435 31.5165 13.593 28.7132 13.593 25.2281C13.593 21.4904 16.4939 18.8387 20.1769 18.8387C21.8166 18.8387 23.3806 19.5711 24.4148 20.8591C22.9517 20.657 21.5643 21.6672 21.1355 22.8289C20.8328 22.7279 20.5048 22.6774 20.1769 22.7026C18.7642 22.6774 17.6039 23.8138 17.5786 25.2029C17.5786 25.2029 17.5786 25.2029 17.5786 25.2281C17.5786 26.6676 18.739 27.8293 20.1769 27.8293C21.64 27.8293 22.5229 26.6929 22.5229 25.2281V24.9756C22.5733 24.9251 22.7247 24.925 22.9013 24.925C23.1535 24.925 23.4058 25.0513 23.4058 25.4807C23.4058 25.9857 23.204 26.9454 23.204 27.8798C23.204 28.6122 23.3553 29.3446 23.6581 30.0265L25.8022 39.0171C25.4491 39.2949 25.1716 39.598 24.9193 39.9768C23.7337 40.1788 22.7499 40.9617 22.2706 42.0729L19.9751 31.567ZM16.7966 31.5165C17.5786 31.9206 18.4111 32.1984 19.2688 32.3246L20.076 36.1128L16.2921 52.4525L14.602 53.6648L9.85955 74.0452L6 77L16.7966 31.5165Z" fill="white"/>
</svg>
