<svg width="106" height="28" viewBox="0 0 106 28" fill="none" xmlns="http://www.w3.org/2000/svg">
<path d="M49.9143 8.40017C49.3532 8.38263 48.8973 8.821 48.8797 9.36457C48.8797 9.3821 48.8797 9.41717 48.8797 9.4347V14.4145C46.4775 12.4857 42.9531 12.8715 41.0243 15.2737C40.2352 16.2732 39.7968 17.5006 39.7968 18.7806C39.7442 21.8667 42.1991 24.4092 45.2852 24.4618C48.3712 24.5144 50.9138 22.0596 50.9664 18.9735C50.9664 18.9034 50.9664 18.8508 50.9664 18.7806V9.4347C50.9664 9.15415 50.8611 8.89114 50.6683 8.69826C50.4578 8.50538 50.1948 8.40017 49.9143 8.40017ZM48.5992 20.1308C48.2485 20.9724 47.5822 21.6388 46.7405 22.007C45.8638 22.3752 44.8819 22.3752 44.0051 22.007C43.1635 21.6563 42.5147 20.9725 42.164 20.1483C41.7958 19.2891 41.7958 18.3072 42.164 17.4305C42.5147 16.5888 43.181 15.9225 44.0051 15.5718C44.8819 15.2036 45.8638 15.2036 46.7405 15.5718C47.5822 15.94 48.2485 16.6063 48.5992 17.448C48.9674 18.2897 48.9674 19.2716 48.5992 20.1308Z" fill="#595959"/>
<path d="M61.5748 14.8353C59.4005 12.661 55.8585 12.661 53.6842 14.8353C52.6321 15.8874 52.0535 17.3077 52.0535 18.7806C52.0009 21.8667 54.4557 24.4092 57.5418 24.4618C60.6279 24.5144 63.1704 22.0595 63.223 18.9735C63.223 18.9033 63.223 18.8507 63.223 18.7806C63.223 18.0441 63.0827 17.3252 62.8022 16.6414C62.5216 15.9575 62.1008 15.3438 61.5748 14.8353ZM60.8558 20.1132C60.6805 20.534 60.4175 20.9023 60.1019 21.2179C59.7862 21.5335 59.4005 21.7965 58.9972 21.9719C58.1204 22.3401 57.1385 22.3401 56.2618 21.9719C55.4201 21.6212 54.7538 20.9373 54.4031 20.1132C54.0349 19.254 54.0349 18.2721 54.4031 17.3953C54.7538 16.5537 55.4201 15.9049 56.2618 15.5367C57.1385 15.1685 58.1204 15.1685 58.9972 15.5367C59.418 15.712 59.7862 15.975 60.1019 16.2907C60.4175 16.6063 60.6805 16.9921 60.8558 17.3953C61.2241 18.2896 61.2241 19.2715 60.8558 20.1132Z" fill="#595959"/>
<path d="M84.6678 14.2216C84.6678 14.0813 84.6327 13.9411 84.5801 13.8183C84.5275 13.6956 84.4398 13.5904 84.3522 13.4852C84.2645 13.3975 84.1417 13.3098 84.019 13.2572C83.8963 13.2046 83.756 13.1696 83.6157 13.1696C83.4228 13.1696 83.23 13.2222 83.0546 13.3274L77.0929 17.2025V9.45222C77.0929 9.17167 76.9876 8.90865 76.7948 8.71577C76.6019 8.52289 76.3389 8.40015 76.0583 8.40015C75.4797 8.40015 75.0238 8.85604 75.0062 9.43468C75.0062 9.43468 75.0062 9.43469 75.0062 9.45222V23.3045C75.0062 23.5851 75.1114 23.8481 75.3043 24.041C75.4972 24.2514 75.7602 24.3566 76.0408 24.3566C76.3213 24.3566 76.5844 24.2514 76.7772 24.041C76.9701 23.8481 77.0929 23.5851 77.0753 23.3045V19.7099L78.2852 18.9209L82.8968 24.0936C83.0897 24.2689 83.3352 24.3741 83.5982 24.3566C83.7385 24.3566 83.8787 24.3391 84.0015 24.2689C84.1242 24.2163 84.2294 24.1462 84.3346 24.041C84.4223 23.9358 84.51 23.8306 84.5626 23.7078C84.6152 23.5851 84.6503 23.4448 84.6503 23.3045C84.6503 23.0415 84.545 22.7785 84.3697 22.5856L80.0913 17.7636L84.2645 15.0457C84.545 14.8704 84.6853 14.5548 84.6678 14.2216Z" fill="#595959"/>
<path d="M67.3612 16.2908C67.6768 15.9752 68.0625 15.7122 68.4834 15.5369C68.9217 15.3615 69.3776 15.2563 69.8511 15.2563C70.2719 15.2563 70.6752 15.3264 71.061 15.4667C71.4467 15.6245 71.8149 15.8349 72.1306 16.1155C72.3234 16.2733 72.5689 16.3434 72.8144 16.3434C73.095 16.361 73.3755 16.2558 73.5684 16.0454C73.7613 15.8525 73.8665 15.5719 73.8665 15.2914C73.8665 14.9933 73.7437 14.6952 73.4983 14.5023C72.4988 13.608 71.2012 13.1171 69.8511 13.1521C66.765 13.1521 64.2575 15.6596 64.2575 18.7457C64.2575 21.8318 66.7474 24.3217 69.816 24.3392C71.1662 24.3392 72.4637 23.8658 73.4807 22.989C73.6911 22.7962 73.8139 22.5156 73.8139 22.2175C73.8314 21.6564 73.393 21.2005 72.8495 21.183C72.8319 21.183 72.7969 21.183 72.7793 21.183C72.5339 21.183 72.3059 21.2531 72.113 21.3934C71.7974 21.6739 71.4467 21.8844 71.061 22.0422C70.6752 22.1824 70.2544 22.2526 69.8511 22.2526C69.3776 22.2526 68.9217 22.1649 68.4834 21.972C68.0625 21.7967 67.6943 21.5337 67.3612 21.218C65.9935 19.8504 65.9935 17.641 67.3436 16.2733C67.3612 16.3084 67.3612 16.3084 67.3612 16.2908Z" fill="#595959"/>
<path d="M105.376 13.8884C105.166 13.6956 104.938 13.5553 104.675 13.4676C104.377 13.3624 104.061 13.2923 103.745 13.2572C103.43 13.2221 103.114 13.2046 102.799 13.2046C102.167 13.2046 101.518 13.3098 100.922 13.5377C100.326 13.7482 99.7826 14.0638 99.2916 14.4495V14.2391C99.2741 13.6605 98.7831 13.2221 98.2045 13.2397C97.6609 13.2572 97.2225 13.6956 97.205 14.2391V23.3396C97.2225 23.9182 97.7135 24.3566 98.2921 24.339C98.8357 24.3215 99.2741 23.8831 99.2916 23.3396V18.7981C99.2916 18.3247 99.3793 17.8688 99.5722 17.4304C99.7475 17.0096 99.993 16.6414 100.326 16.3257C100.642 16.0101 101.028 15.7471 101.431 15.5718C101.869 15.3964 102.325 15.2912 102.799 15.2912C103.272 15.2912 103.728 15.3789 104.166 15.5367C104.306 15.6068 104.447 15.6419 104.605 15.6419C104.745 15.6419 104.885 15.6244 105.008 15.5542C105.131 15.5016 105.236 15.4315 105.341 15.3263C105.429 15.2386 105.516 15.1159 105.569 14.9931C105.622 14.8704 105.657 14.7301 105.657 14.5898C105.674 14.3268 105.569 14.0813 105.376 13.8884Z" fill="#595959"/>
<path d="M95.697 16.6414C94.8027 14.5723 92.7687 13.2221 90.5243 13.2046C87.4382 13.2046 84.9483 15.6945 84.9308 18.7806C84.9308 21.8667 87.4382 24.3741 90.5243 24.3741C91.8569 24.3741 93.1545 23.9007 94.1715 23.0239C94.189 23.0064 94.2066 22.9889 94.2066 22.9889C94.2942 22.9187 94.3819 22.8311 94.4345 22.7259C94.7677 22.2349 94.6449 21.5861 94.1715 21.253C93.7682 20.9899 93.2422 21.0425 92.8915 21.3757C92.8564 21.4108 92.7512 21.4984 92.7512 21.516L92.7337 21.5335C92.4356 21.779 92.1024 21.9894 91.7342 22.1122C91.3484 22.2524 90.9451 22.3226 90.5243 22.305C90.1386 22.305 89.7703 22.2524 89.4021 22.1297C89.0514 22.0069 88.7183 21.8491 88.4202 21.6212C88.1221 21.4108 87.8591 21.1477 87.6487 20.8497C87.4207 20.5516 87.2629 20.2009 87.1577 19.8502H95.0482C95.3288 19.8502 95.5918 19.745 95.7847 19.5521C95.9951 19.3592 96.1003 19.0962 96.0828 18.8157C96.1003 18.0617 95.96 17.3252 95.697 16.6414ZM87.1577 17.7636C87.2629 17.3954 87.4207 17.0622 87.6487 16.7641C87.8591 16.466 88.1221 16.203 88.4202 15.9926C88.7183 15.7822 89.0514 15.6068 89.4021 15.4841C89.7528 15.3613 90.1386 15.3087 90.5068 15.3087C90.875 15.3087 91.2608 15.3613 91.6115 15.4841C92.3128 15.712 92.9266 16.1679 93.3649 16.7641C93.5929 17.0622 93.7507 17.4129 93.8734 17.7636H87.1577Z" fill="#595959"/>
<path d="M101.817 22.8486C101.413 22.8486 101.098 23.1818 101.098 23.5851C101.098 23.9884 101.431 24.304 101.834 24.304C102.237 24.304 102.553 23.9708 102.553 23.5851C102.553 23.1643 102.22 22.8486 101.817 22.8486ZM101.817 24.1462C101.501 24.1637 101.238 23.9182 101.22 23.6026C101.203 23.287 101.448 23.024 101.764 23.0064C102.08 22.9889 102.343 23.2344 102.36 23.55C102.36 23.5676 102.36 23.5676 102.36 23.5851C102.378 23.8832 102.132 24.1462 101.834 24.1462C101.834 24.1462 101.834 24.1462 101.817 24.1462Z" fill="#595959"/>
<path d="M101.992 23.5852C102.08 23.5677 102.132 23.4976 102.132 23.4099C102.132 23.3397 102.115 23.2871 102.062 23.2521C101.992 23.217 101.904 23.1995 101.817 23.1995C101.729 23.1995 101.624 23.1995 101.536 23.217V23.9359H101.694V23.6554H101.764C101.852 23.6554 101.904 23.6904 101.922 23.7606C101.939 23.8132 101.957 23.8833 101.974 23.9359H102.15C102.115 23.8833 102.097 23.8132 102.097 23.7606C102.115 23.6904 102.062 23.6203 101.992 23.5852ZM101.782 23.5326H101.694V23.3222C101.729 23.3222 101.764 23.3222 101.782 23.3222C101.887 23.3222 101.939 23.3748 101.939 23.4274C101.957 23.4976 101.869 23.5502 101.782 23.5326Z" fill="#595959"/>
<path d="M37.8856 10.7499C37.7804 10.6623 36.8335 9.94336 34.7995 9.94336C34.2734 9.94336 33.7299 9.99596 33.2038 10.0836C32.8181 7.40085 30.5912 6.10329 30.5035 6.03315L29.9599 5.71753L29.6092 6.22603C29.1709 6.90988 28.8377 7.6814 28.6448 8.47045C28.2766 9.99596 28.5046 11.4338 29.2761 12.6612C28.3468 13.1873 26.8388 13.31 26.5232 13.3275H1.62408C0.975301 13.3275 0.449264 13.8536 0.449264 14.5023C0.414195 16.6766 0.782421 18.8509 1.53641 20.9025C2.3956 23.1469 3.67563 24.8127 5.32387 25.8297C7.18254 26.9694 10.216 27.6182 13.6353 27.6182C15.1783 27.6182 16.7213 27.4779 18.2469 27.1974C20.3685 26.8116 22.4025 26.0752 24.2787 25.0056C25.8218 24.1113 27.207 22.9715 28.3818 21.6389C30.3632 19.412 31.5381 16.9221 32.3972 14.7128C32.52 14.7128 32.6252 14.7128 32.7479 14.7128C34.9047 14.7128 36.2373 13.8536 36.9738 13.1171C37.4647 12.6612 37.833 12.1001 38.096 11.4689L38.2538 11.013L37.8856 10.7499Z" fill="#595959"/>
<path d="M3.93862 12.6085H7.27019C7.428 12.6085 7.56828 12.4858 7.56828 12.3105V9.32958C7.56828 9.17177 7.44553 9.03149 7.27019 9.03149H3.93862C3.78081 9.03149 3.64053 9.15423 3.64053 9.32958V12.3105C3.65807 12.4858 3.78081 12.6085 3.93862 12.6085Z" fill="#595959"/>
<path d="M8.53271 12.6085H11.8643C12.0221 12.6085 12.1624 12.4858 12.1624 12.3105V9.32958C12.1624 9.17177 12.0396 9.03149 11.8643 9.03149H8.53271C8.3749 9.03149 8.23462 9.15423 8.23462 9.32958V12.3105C8.25215 12.4858 8.3749 12.6085 8.53271 12.6085Z" fill="#595959"/>
<path d="M13.2144 12.6085H16.546C16.7038 12.6085 16.8441 12.4858 16.8441 12.3105V9.32958C16.8441 9.17177 16.7213 9.03149 16.546 9.03149H13.2144C13.0566 9.03149 12.9163 9.15423 12.9163 9.32958V12.3105C12.9163 12.4858 13.0391 12.6085 13.2144 12.6085Z" fill="#595959"/>
<path d="M17.826 12.6085H21.1576C21.3154 12.6085 21.4557 12.4858 21.4557 12.3105V9.32958C21.4557 9.17177 21.3329 9.03149 21.1576 9.03149H17.826C17.6682 9.03149 17.5279 9.15423 17.5279 9.32958V12.3105C17.5279 12.4858 17.6682 12.6085 17.826 12.6085Z" fill="#595959"/>
<path d="M8.53271 8.34781H11.8643C12.0221 8.34781 12.1624 8.20753 12.1624 8.04972V5.06884C12.1624 4.91103 12.0396 4.77075 11.8643 4.77075H8.53271C8.3749 4.77075 8.23462 4.8935 8.23462 5.06884V8.04972C8.25215 8.20753 8.3749 8.34781 8.53271 8.34781Z" fill="#595959"/>
<path d="M13.2144 8.34781H16.546C16.7038 8.34781 16.8441 8.20753 16.8441 8.04972V5.06884C16.8441 4.91103 16.7213 4.77075 16.546 4.77075H13.2144C13.0566 4.77075 12.9163 4.8935 12.9163 5.06884V8.04972C12.9163 8.20753 13.0391 8.34781 13.2144 8.34781Z" fill="#595959"/>
<path d="M17.826 8.34781H21.1576C21.3154 8.34781 21.4557 8.20753 21.4557 8.04972V5.06884C21.4557 4.91103 21.3154 4.77075 21.1576 4.77075H17.826C17.6682 4.77075 17.5279 4.8935 17.5279 5.06884V8.04972C17.5279 8.20753 17.6682 8.34781 17.826 8.34781Z" fill="#595959"/>
<path d="M17.826 4.06924H21.1576C21.3154 4.06924 21.4557 3.9465 21.4557 3.77115V0.790277C21.4557 0.632466 21.3154 0.492188 21.1576 0.492188H17.826C17.6682 0.492188 17.5279 0.614932 17.5279 0.790277V3.77115C17.5279 3.92896 17.6682 4.06924 17.826 4.06924Z" fill="#595959"/>
<path d="M22.4727 12.6085H25.8042C25.9621 12.6085 26.1023 12.4858 26.1023 12.3105V9.32958C26.1023 9.17177 25.9796 9.03149 25.8042 9.03149H22.4727C22.3149 9.03149 22.1746 9.15423 22.1746 9.32958V12.3105C22.1921 12.4858 22.3149 12.6085 22.4727 12.6085Z" fill="#595959"/>
</svg>
