<svg width="32" height="44" viewBox="0 0 32 44" fill="none" xmlns="http://www.w3.org/2000/svg">
<path d="M3.17197 0.231689H5.13267V2.17534H6.93992V0.231689H8.90062V6.11379H6.93992V4.15309H5.14972V6.11379H3.17197V0.231689ZM11.4922 2.19239H9.76163V0.231689H15.1919V2.19239H13.4529V6.11379H11.4922V2.19239ZM16.0529 0.231689H18.1074L19.3691 2.30321L20.6307 0.231689H22.6852V6.11379H20.7245V3.19832L19.352 5.31246L17.9795 3.19832V6.11379H16.0529V0.231689ZM23.657 0.231689H25.6177V4.17014H28.3968V6.11379H23.657V0.231689Z" fill="#595959"/>
<path d="M3.1038 40.3834L0.290619 8.80762H31.2185L28.4054 40.3664L15.729 43.8786" fill="#595959"/>
<path d="M6.03622 15.261H15.7545L17.1995 17.1961L15.7545 19.1312H10.2816L10.6396 23.0953H15.7545L17.1995 25.1028L15.7545 26.957H7.0933L6.03622 15.261ZM7.26379 28.9006H11.1511L11.4239 31.9951L15.7545 33.1545L17.385 35.0862L15.7545 37.1953L7.80938 34.9788L7.26379 28.9006Z" fill="#EBEBEB"/>
<path d="M25.4387 15.261H15.7375V19.1312H25.0807L25.4387 15.261ZM24.7312 23.0953H15.7375V26.9655H20.5114L20.0596 31.9951L15.7375 33.1545V37.1782L23.6656 34.9788L24.7312 23.0953Z" fill="white"/>
</svg>
