<svg width="31" height="31" viewBox="0 0 31 31" fill="none" xmlns="http://www.w3.org/2000/svg">
<path d="M15.3062 0.773438C7.02178 0.773438 0.306152 7.48906 0.306152 15.7734C0.306152 24.0578 7.02178 30.7734 15.3062 30.7734C23.5905 30.7734 30.3062 24.0578 30.3062 15.7734C30.3062 7.48906 23.5905 0.773438 15.3062 0.773438ZM11.6343 21.9906H8.59678V12.2156H11.6343V21.9906ZM10.0968 11.0156C9.1374 11.0156 8.51709 10.3359 8.51709 9.49531C8.51709 8.6375 9.15615 7.97812 10.1358 7.97812C11.1155 7.97812 11.7155 8.6375 11.7343 9.49531C11.7343 10.3359 11.1155 11.0156 10.0968 11.0156ZM22.728 21.9906H19.6905V16.5734C19.6905 15.3125 19.2499 14.4562 18.1515 14.4562C17.3124 14.4562 16.814 15.0359 16.5937 15.5938C16.5124 15.7922 16.4921 16.0734 16.4921 16.3531V21.9891H13.453V15.3328C13.453 14.1125 13.414 13.0922 13.3733 12.2141H16.0124L16.1515 13.5719H16.2124C16.6124 12.9344 17.5921 11.9937 19.2312 11.9937C21.2296 11.9937 22.728 13.3328 22.728 16.2109V21.9906Z" fill="white"/>
</svg>
