<svg width="1055" height="132" viewBox="0 0 1055 132" fill="none" xmlns="http://www.w3.org/2000/svg">
<path d="M90.1285 64.8409L125.305 113.143H147.981L113.677 64.8409L146.092 18.8599H123.416L90.1285 64.8409ZM87.2213 18.8599H66.8711V113.143H87.2213V18.8599Z" fill="#00E1DD"/>
<path d="M225.203 64.8409L260.38 113.143H283.056L248.751 64.8409L281.166 18.8599H258.49L225.203 64.8409ZM222.296 18.8599H201.945V113.143H222.296V18.8599Z" fill="#00E1DD"/>
<path d="M349.729 76.1549V55.8478H310.191V39.167H349.729V18.8599H289.841V113.143H349.729V92.8358H310.191V76.1549H349.729Z" fill="#00E1DD"/>
<path fill-rule="evenodd" clip-rule="evenodd" d="M176.828 113.144H155.749L166.779 72.0925H187.845L176.828 113.144Z" fill="white"/>
<path d="M177.771 58.8976C186.561 58.8976 193.688 51.7865 193.688 43.0144C193.688 34.2423 186.561 27.1311 177.771 27.1311C168.98 27.1311 161.854 34.2423 161.854 43.0144C161.854 51.7865 168.98 58.8976 177.771 58.8976Z" fill="white"/>
<path d="M0 75.4296C5.08755 75.4296 9.30299 79.6361 9.30299 84.8579V103.714C9.30299 119.38 22.0946 131.999 37.6479 131.999V113.143C32.5604 113.143 28.1996 108.936 28.1996 103.714V84.8579C28.1996 77.6054 24.5656 70.788 18.1698 66.0013C24.5656 61.3597 28.1996 54.3972 28.1996 47.1447V28.2881C28.1996 23.0663 32.5604 18.8598 37.6479 18.8598V0.00317383C22.0946 0.00317383 9.30299 12.7676 9.30299 28.2881V47.1447C9.30299 54.3972 5.08755 56.573 0 56.573V75.4296Z" fill="#FDD403"/>
<path d="M1054.28 56.5699C1049.19 56.5699 1044.98 52.3634 1044.98 47.1416V28.285C1044.98 12.6195 1032.19 0.00011003 1016.63 0.00011003V18.8567C1021.72 18.8567 1026.08 23.0632 1026.08 28.285V47.1416C1026.08 54.3942 1029.71 61.2115 1036.11 65.9982C1029.71 70.6398 1026.08 77.6023 1026.08 84.8548V103.711C1026.08 108.933 1021.72 113.14 1016.63 113.14V131.996C1032.19 131.996 1044.98 119.232 1044.98 103.711V84.8548C1044.98 77.6023 1049.19 75.4265 1054.28 75.4265V56.5699Z" fill="#FDD403"/>
<path d="M408.9 113.144H429.25V39.1684H451.636V18.8613H386.66V39.1684H408.9V113.144Z" fill="#F9A077"/>
<path d="M500.473 17.4104C473.582 17.4104 451.778 39.168 451.778 66.0024C451.778 92.8368 473.582 114.594 500.473 114.594C527.365 114.594 549.169 92.8368 549.169 66.0024C549.169 39.168 527.365 17.4104 500.473 17.4104ZM500.473 38.4428C515.445 38.4428 527.801 50.7722 527.801 65.7124C527.801 80.7977 515.445 92.982 500.473 92.982C485.356 92.982 473.146 80.7977 473.146 65.7124C473.146 50.7722 485.356 38.4428 500.473 38.4428Z" fill="#F9A077"/>
<path d="M579.114 113.144V39.1684H599.173C603.825 39.1684 607.604 42.9398 607.604 47.5815C607.604 52.2231 603.825 55.8493 599.173 55.8493H581.73L612.401 113.144H635.513L613.709 72.3849C622.722 67.3081 628.245 58.1699 628.245 47.7263C628.245 31.7707 615.163 18.8613 599.173 18.8613H558.764V113.144H579.114Z" fill="#F9A077"/>
<path d="M644.383 18.8613V113.144H679.124C706.015 113.144 727.819 92.112 727.819 66.0028C727.819 40.0387 706.015 18.8613 679.124 18.8613H644.383ZM679.124 39.1684C694.822 39.1684 707.469 51.2077 707.469 66.0028C707.469 80.798 694.822 92.8372 679.124 92.8372H664.733V39.1684H679.124Z" fill="#F9A077"/>
<path d="M797.299 76.1564V55.8493H757.761V39.1684H797.299V18.8613H737.411V113.144H797.299V92.8372H757.761V76.1564H797.299Z" fill="#F9A077"/>
<path d="M833.785 113.144V39.1684H853.844C858.496 39.1684 862.275 42.9398 862.275 47.5815C862.275 52.2231 858.496 55.8493 853.844 55.8493H836.401L867.072 113.144H890.175L868.371 72.3849C877.384 67.3081 882.907 58.1699 882.907 47.7263C882.907 31.7707 869.825 18.8613 853.844 18.8613H813.435V113.144H833.785Z" fill="#F9A077"/>
<path d="M988.875 113.144L940.907 17.4104L892.938 113.144H915.033L921.574 100.089H960.094L966.635 113.144H988.875ZM930.586 80.7975L940.907 60.2004L951.227 80.7975H930.586Z" fill="#F9A077"/>
</svg>
