<svg width="96" height="30" viewBox="0 0 96 30" fill="none" xmlns="http://www.w3.org/2000/svg">
<path d="M30.2877 8.47274C30.286 8.17591 30.2827 7.87922 30.2745 7.58203C30.2572 6.93558 30.219 6.28326 30.1041 5.64372C29.9875 4.99423 29.7969 4.39032 29.4965 3.80032C29.2017 3.22091 28.8162 2.6907 28.3565 2.2309C27.8968 1.77111 27.3665 1.38571 26.7869 1.09072C26.1974 0.790697 25.5934 0.60016 24.9445 0.483572C24.3046 0.368326 23.6523 0.330357 23.0053 0.312864C22.7083 0.304813 22.4116 0.301434 22.1146 0.299595C21.7622 0.297607 21.4095 0.297607 21.0571 0.297607H13.244H10.0072C9.65454 0.297607 9.30224 0.297607 8.94989 0.299645C8.65285 0.301484 8.35577 0.304863 8.05918 0.312914C7.89747 0.317287 7.73541 0.322953 7.57325 0.330755C7.08682 0.354212 6.59964 0.397199 6.11997 0.483622C5.63329 0.571088 5.17181 0.7001 4.72285 0.885717C4.57321 0.947539 4.42492 1.01572 4.27752 1.09072C3.84277 1.31196 3.43576 1.58405 3.06557 1.90022C2.94217 2.00563 2.82285 2.11591 2.70795 2.23085C2.24806 2.69065 1.86261 3.22086 1.56776 3.80027C1.2674 4.39027 1.07706 4.99418 0.960371 5.64367C0.845571 6.28321 0.807405 6.93553 0.790011 7.58198C0.78186 7.87917 0.778431 8.17586 0.776493 8.4727C0.774257 8.82524 0.774555 9.17784 0.774555 9.53029V14.3419V20.58C0.774555 20.9328 0.774207 21.2851 0.776493 21.6379C0.778431 21.9347 0.78186 22.2314 0.790011 22.5281C0.807405 23.1749 0.845522 23.8273 0.960371 24.4666C1.07706 25.1159 1.2674 25.7203 1.56776 26.3102C1.86261 26.8897 2.24806 27.4198 2.70795 27.8794C3.1675 28.3394 3.69786 28.7247 4.27757 29.0199C4.86712 29.32 5.47108 29.5103 6.12012 29.6269C6.75961 29.742 7.41243 29.7803 8.05923 29.7975C8.35582 29.8054 8.6529 29.809 8.94994 29.8107C9.30229 29.8132 9.65459 29.8129 10.0073 29.8129H21.0571C21.4095 29.8129 21.7622 29.8132 22.1146 29.8107C22.4115 29.809 22.7082 29.8054 23.0053 29.7975C23.6522 29.7803 24.3045 29.7419 24.9444 29.6269C25.5933 29.5103 26.1973 29.32 26.7868 29.0199C27.3665 28.7248 27.8967 28.3394 28.3564 27.8794C28.8162 27.4198 29.2017 26.8897 29.4965 26.3102C29.7969 25.7203 29.9874 25.1159 30.104 24.4666C30.2189 23.8273 30.2571 23.1749 30.2744 22.5281C30.2826 22.2314 30.2859 21.9348 30.2877 21.6379C30.2899 21.2851 30.2897 20.9328 30.2897 20.58V9.53029C30.2898 9.17784 30.2899 8.82524 30.2877 8.47274Z" fill="#595959"/>
<path d="M24.162 18.5167C24.1613 18.5158 24.1607 18.5152 24.1599 18.5143C24.1926 18.4032 24.2263 18.2928 24.2548 18.1789C25.4799 13.2982 22.4901 7.52795 17.4307 4.48975C19.6478 7.49535 20.6281 11.1358 19.7572 14.3195C19.6795 14.6034 19.5861 14.876 19.4829 15.1409C19.3709 15.0673 19.2297 14.9837 19.0402 14.8792C19.0402 14.8792 14.0075 11.7718 8.55281 6.27564C8.40968 6.13137 11.4614 10.6375 14.9249 14.2966C13.2931 13.3809 8.74568 10.0722 5.86686 7.43735C6.22055 8.0272 6.64123 8.59518 7.10366 9.14199C9.50773 12.1908 12.6429 15.9526 16.3991 18.8412C13.76 20.4563 10.0309 20.5818 6.318 18.8429C5.39966 18.4125 4.53633 17.8933 3.73716 17.3033C5.30881 19.8172 7.72939 21.9861 10.6754 23.2523C14.1887 24.7622 17.6825 24.6598 20.2846 23.2771L20.2825 23.2801C20.2944 23.2726 20.3095 23.2644 20.3219 23.2568C20.4287 23.1993 20.5348 23.1408 20.6385 23.079C21.8887 22.4301 24.3581 21.7717 25.6836 24.3507C26.0082 24.9818 26.698 21.6371 24.162 18.5167Z" fill="white"/>
<path d="M41.4912 19.4518C41.7218 21.4995 43.6748 22.842 46.387 22.842C48.964 22.842 50.8219 21.4995 50.8219 19.6419C50.8219 18.0415 49.6964 17.0646 47.1058 16.4139L44.5969 15.7766C40.9894 14.8814 39.3619 13.2538 39.3619 10.5688C39.3619 7.25973 42.2506 4.96753 46.3601 4.96753C50.347 4.96753 53.1816 7.27305 53.2766 10.596H50.6321C50.4285 8.56169 48.7739 7.31361 46.2923 7.31361C43.8373 7.31361 42.1286 8.575 42.1286 10.4193C42.1286 11.8568 43.1866 12.7115 45.7905 13.3761L47.879 13.9184C51.9205 14.9087 53.575 16.4818 53.575 19.3163C53.575 22.9238 50.7132 25.1888 46.1564 25.1888C41.9252 25.1888 39.0364 22.9371 38.8195 19.4519L41.4912 19.4518Z" fill="#595959"/>
<path d="M70.374 24.863H67.7156L64.6099 14.0406H64.5557L61.4637 24.863H58.8056L54.8725 10.6904H57.4492L60.1886 22.0691H60.2431L63.3352 10.6904H65.8304L68.9498 22.0691H69.0042L71.7437 10.6904H74.2932L70.374 24.863Z" fill="#595959"/>
<path d="M76.0097 6.8796C76.0097 6.02557 76.7151 5.33374 77.5695 5.33374C78.4375 5.33374 79.1427 6.02557 79.1427 6.8796C79.1427 7.73423 78.4375 8.43943 77.5695 8.43943C76.7151 8.43943 76.0097 7.73428 76.0097 6.8796ZM76.2811 10.6905H78.8714V24.8631H76.2811V10.6905Z" fill="#595959"/>
<path d="M95.7872 12.7791V10.6903H93.0477V7.30013H90.4707V10.6903H88.3686H85.5192V9.4428C85.5326 8.1814 86.021 7.65238 87.1874 7.65238C87.5669 7.65238 87.9467 7.69353 88.2588 7.7474V5.71307C87.7975 5.64529 87.3771 5.60474 86.889 5.60474C84.1223 5.60474 82.9559 6.7578 82.9559 9.40225V10.6903H80.9761V12.7791H82.9559V24.8629H85.5326V12.7791H88.3686H90.4708V21.1471C90.4708 23.8866 91.5152 24.944 94.2274 24.944C94.8106 24.944 95.4752 24.9035 95.7736 24.8357V22.7202C95.5972 22.7475 95.0818 22.788 94.7971 22.788C93.5901 22.788 93.0478 22.2184 93.0478 20.9437V12.7791H95.7872Z" fill="#595959"/>
</svg>
