<svg width="93" height="93" viewBox="0 0 93 93" fill="none" xmlns="http://www.w3.org/2000/svg">
<rect width="93" height="93" rx="10" fill="white"/>
<path fill-rule="evenodd" clip-rule="evenodd" d="M34.5128 35.0413C34.316 34.5559 34.6144 33.9035 34.6144 33.9035C34.9705 33.7924 35.6344 33.8625 35.8342 34.3243C36.0497 34.8251 35.8342 35.2554 35.2589 35.6C34.97 35.4743 34.7144 35.2829 34.5124 35.0412" fill="#50565B"/>
<path fill-rule="evenodd" clip-rule="evenodd" d="M51.5429 64.1065L48.0259 66.909L48.0071 37.9852H51.5429V64.1065Z" fill="#50565B"/>
<path fill-rule="evenodd" clip-rule="evenodd" d="M53.808 61.5839L53.8186 37.9852H56.6858L56.7141 55.991C56.1613 57.6948 55.2579 59.5508 53.808 61.5839Z" fill="#50565B"/>
<path fill-rule="evenodd" clip-rule="evenodd" d="M42.2441 64.3725L45.8081 67.1764V37.9852H42.2441V64.3725Z" fill="#50565B"/>
<path fill-rule="evenodd" clip-rule="evenodd" d="M40.2494 62.4012L40.2285 37.9852H37.0651V57.204C37.185 58.5005 39.5035 61.7865 40.2494 62.4012Z" fill="#50565B"/>
<path d="M46.7405 70.8858C33.4236 70.8858 22.5909 60.0524 22.5909 46.7362C22.5909 33.42 33.4236 22.5893 46.7405 22.5893C60.0575 22.5893 70.8885 33.422 70.8885 46.7373C70.8885 60.0526 60.0558 70.8862 46.7405 70.8862V71.7411C60.5273 71.7411 71.743 60.524 71.743 46.7373C71.743 32.9505 60.5273 21.7344 46.7405 21.7344C32.9538 21.7344 21.736 32.9501 21.736 46.7362C21.736 60.5224 32.9524 71.7408 46.7405 71.7408V70.8858Z" fill="#50565B"/>
<path d="M46.7405 80.369C28.1935 80.369 13.1052 65.2822 13.1052 46.7372C13.1052 28.1922 28.1935 13.1067 46.7405 13.1067C65.2875 13.1067 80.3731 28.1935 80.3731 46.7372C80.3731 65.2808 65.2857 80.369 46.7405 80.369V81.4757C65.8955 81.4757 81.4798 65.8922 81.4798 46.7372C81.4798 27.5822 65.8955 12 46.7405 12C27.5855 12 12 27.5829 12 46.7372C12 65.8914 27.5835 81.4765 46.7405 81.4765V80.369Z" fill="#50565B"/>
<path fill-rule="evenodd" clip-rule="evenodd" d="M18.1011 56.5846C18.8598 57.3251 19.2442 57.8361 19.659 58.8109C20.0307 59.6793 20.1094 60.2387 20.1612 61.1827L21.8799 60.4206C21.244 59.7164 20.889 59.2815 20.5038 58.4124C20.1121 57.5929 19.8917 56.702 19.8561 55.7943L18.1011 56.5846Z" fill="#50565B"/>
<path fill-rule="evenodd" clip-rule="evenodd" d="M17.9909 60.3893C18.724 59.6258 19.2391 59.2375 20.2172 58.8315C21.0898 58.4681 21.6451 58.3892 22.5883 58.3299L21.8283 56.6112C21.1261 57.2501 20.6839 57.5968 19.8188 57.9859C18.9989 58.3779 18.1076 58.5985 17.1996 58.6342L17.9909 60.3893Z" fill="#50565B"/>
<path fill-rule="evenodd" clip-rule="evenodd" d="M75.306 56.5846C74.5507 57.3265 74.1616 57.8361 73.7489 58.8109C73.3766 59.6815 73.2965 60.2387 73.2467 61.1827L71.528 60.4206C72.1554 59.7104 72.5251 59.2836 72.9027 58.4124C73.2931 57.5923 73.5138 56.7018 73.5517 55.7943L75.306 56.5846Z" fill="#50565B"/>
<path fill-rule="evenodd" clip-rule="evenodd" d="M75.417 60.3893C74.6799 59.628 74.1709 59.2354 73.1907 58.8315C72.3169 58.4713 71.7629 58.3851 70.8197 58.3299L71.5797 56.6112C72.2799 57.2521 72.7241 57.5935 73.5892 57.9859C74.5459 58.4215 75.1585 58.5555 76.2084 58.6342L75.417 60.3893Z" fill="#50565B"/>
<path fill-rule="evenodd" clip-rule="evenodd" d="M33.1848 70.8137C33.6366 70.5667 33.8567 70.7909 33.9698 70.6454C34.054 70.5383 33.9563 70.4919 33.8298 70.3942C33.6614 70.2629 33.4764 70.1573 33.3073 70.0274C33.135 69.8911 32.9875 69.7359 32.8131 69.6006C32.7432 69.5447 32.5836 69.3898 32.49 69.5084C32.3177 69.7305 33.1026 69.9682 32.6414 70.5614C32.5633 70.661 32.3795 70.871 31.8707 71.1518L29.5575 72.4254C29.5036 72.4556 29.4121 72.525 29.3758 72.498C29.3394 72.4711 29.3778 72.3587 29.3947 72.2994L30.2004 69.6672C30.2932 69.2962 30.4457 68.9428 30.6521 68.6209C30.8595 68.357 31.1443 68.732 31.2761 68.5603C31.3603 68.4553 31.3259 68.4365 31.1347 68.2871C31.0384 68.2144 30.8453 68.1033 30.4628 67.805C30.2595 67.6454 30.0765 67.4603 29.8792 67.3068C29.7883 67.238 29.6436 67.0429 29.5245 67.1923C29.4908 67.2377 29.5385 67.3357 29.552 67.3566C29.7473 67.6089 29.7776 67.745 29.6883 68.0681L28.3136 72.8938C28.2159 73.242 28.2253 73.3516 28.2874 73.3987C28.352 73.4505 28.4112 73.4358 28.6044 73.3239L33.1848 70.8137Z" fill="#50565B"/>
<path fill-rule="evenodd" clip-rule="evenodd" d="M39.197 73.3019C39.3444 72.7128 39.7962 73.1296 39.8689 72.8347C39.8917 72.7438 39.8574 72.7243 39.7023 72.6858C39.5859 72.6569 39.4883 72.6663 38.8642 72.5095C38.5828 72.4407 38.164 72.3028 37.8706 72.2301C37.7157 72.1918 37.6202 72.2321 37.6012 72.3028C37.5339 72.5741 38.4188 72.5708 38.2542 73.2292L37.3402 76.8948C37.1053 77.8405 36.6496 77.2812 36.5587 77.6394C36.548 77.6848 36.5823 77.735 36.6786 77.7605C37.0832 77.8602 37.3996 77.9059 37.6293 77.9631C37.9975 78.0553 38.4317 78.1967 39.5485 78.4768C40.1524 78.6256 40.7455 78.0991 40.896 77.4945C40.9323 77.3471 40.8872 77.3107 40.8583 77.3027C40.5789 77.234 40.4274 78.2735 38.6024 77.8197C38.0725 77.6877 38.1702 77.4158 38.2907 76.9351L39.197 73.3019Z" fill="#50565B"/>
<path fill-rule="evenodd" clip-rule="evenodd" d="M43.595 74.2346C43.6341 73.6839 43.6644 73.6792 44.5791 73.7431C46.04 73.8441 45.385 74.7362 45.7391 74.759C45.9135 74.7725 45.8946 74.5066 45.8946 74.4029L45.9188 73.6126C45.9207 73.5927 45.9186 73.5726 45.9126 73.5536C45.9065 73.5345 45.8967 73.5169 45.8837 73.5017C45.8707 73.4865 45.8548 73.474 45.8369 73.4651C45.819 73.4562 45.7995 73.451 45.7796 73.4497C45.1134 73.4043 44.5887 73.3986 44.0507 73.3622C42.8929 73.2794 42.3509 73.2108 42.0405 73.1878C41.9334 73.1817 41.8688 73.2409 41.8647 73.3116C41.8418 73.6314 42.7144 73.4362 42.6645 74.1525L42.4043 77.8808C42.3363 78.8516 41.7923 78.3824 41.7654 78.7479C41.7613 78.7957 41.8058 78.8401 41.9035 78.8455C42.3201 78.8745 42.64 78.8664 42.8742 78.8819C43.2527 78.9088 43.7043 78.9727 44.8548 79.0522C45.4756 79.0966 45.9676 78.4746 46.0113 77.8525C46.0215 77.7011 45.969 77.6742 45.94 77.6721C45.6512 77.6512 45.6855 78.7016 43.8079 78.5715C43.2647 78.5338 43.3137 78.2484 43.3487 77.7549L43.4194 76.7343C43.4517 76.2731 43.4288 76.1755 43.7776 76.1984L44.3364 76.2388C45.1237 76.2946 44.8529 77.1226 45.0945 77.1402C45.2762 77.1537 45.2513 76.8622 45.2513 76.7591L45.2968 75.336C45.3058 75.1227 45.2204 75.1321 45.1672 75.1287C45.0158 75.1172 44.941 75.8497 44.29 75.8046L43.8134 75.7696C43.4882 75.7473 43.4922 75.6915 43.5171 75.3481L43.595 74.2346Z" fill="#50565B"/>
<path fill-rule="evenodd" clip-rule="evenodd" d="M47.6416 78.0685C47.7123 78.8783 46.9737 78.7996 47.0027 79.1174C47.0134 79.2537 47.1609 79.1995 47.2449 79.1922C47.4482 79.1754 47.6494 79.1256 47.8926 79.1039C48.1565 79.0811 48.4143 79.0912 48.7858 79.0585C48.8841 79.0511 49.0735 79.0417 49.0632 78.9306C49.0309 78.5569 48.1094 79.181 47.978 77.6535L47.7406 74.949C47.7351 74.8777 47.7447 74.8204 47.791 74.8163C47.8273 74.813 47.8771 74.8493 47.9351 74.9085L51.9334 78.7269C51.9557 78.7598 51.9866 78.7859 52.0226 78.8025C52.0587 78.8192 52.0986 78.8256 52.1381 78.8213C52.2289 78.8132 52.2242 78.7478 52.2088 78.5742L51.8182 74.112C51.7455 73.2759 52.4039 73.4118 52.383 73.1722C52.3811 73.1493 52.3729 73.0692 52.2289 73.0813C52.1629 73.0887 51.9004 73.1419 51.4238 73.1843C50.9034 73.2297 50.6819 73.2186 50.5608 73.2286C50.5435 73.2295 50.5266 73.2342 50.5113 73.2423C50.496 73.2505 50.4827 73.2619 50.4723 73.2758C50.4619 73.2896 50.4546 73.3056 50.4511 73.3226C50.4476 73.3396 50.4478 73.3571 50.4518 73.374C50.4747 73.6359 51.3843 73.4123 51.4468 74.1353L51.6781 76.7847C51.6949 76.9839 51.6902 77.0816 51.6438 77.0856C51.5973 77.0897 51.4984 77.0015 51.3914 76.8999L48.0475 73.6563C47.898 73.517 47.9842 73.4538 47.7404 73.4746C47.3412 73.5096 47.148 73.5588 46.9507 73.5762C46.8066 73.5877 46.6693 73.5688 46.5253 73.5817C46.5074 73.5819 46.4897 73.5861 46.4736 73.5939C46.4575 73.6017 46.4434 73.613 46.4322 73.627C46.4209 73.641 46.413 73.6573 46.4088 73.6747C46.4047 73.6921 46.4044 73.7103 46.4081 73.7278C46.4413 74.1081 47.2431 73.517 47.3746 75.0459L47.6416 78.0685Z" fill="#50565B"/>
<path fill-rule="evenodd" clip-rule="evenodd" d="M57.0248 71.9519C57.0113 71.9136 56.9595 71.9216 56.9238 71.933C56.8214 71.9633 56.8908 72.2184 56.7535 72.2601C56.5366 72.3268 55.8339 72.0306 54.958 72.3006C53.1291 72.8589 52.898 74.7749 53.2904 76.0566C53.4742 76.6605 54.3985 78.5152 56.5232 77.8641C58.0702 77.3928 58.4856 76.0033 58.3907 75.6991C58.3778 75.6537 58.3012 75.6359 58.2647 75.646C58.0756 75.7052 57.8877 76.8558 56.764 77.1978C55.3786 77.6227 54.3358 76.287 54.0059 75.2112C53.6943 74.1891 53.9543 72.939 55.0206 72.6138C55.8628 72.3573 56.7049 72.8238 57.2906 73.4486C57.3734 73.5307 57.4723 73.6757 57.5875 73.6412C57.7121 73.6035 57.6293 73.4373 57.5996 73.3625L57.0248 71.9519Z" fill="#50565B"/>
<path fill-rule="evenodd" clip-rule="evenodd" d="M59.2105 71.4721C58.8544 70.8023 59.4919 70.7867 59.364 70.5478C59.3175 70.463 59.2778 70.467 59.0763 70.574C58.6953 70.7773 58.4691 70.9322 58.2285 71.0627C57.9929 71.1866 57.7175 71.2957 57.4564 71.435C57.3972 71.468 57.2167 71.5346 57.282 71.6551C57.4119 71.9022 58.0648 71.3037 58.4055 71.9446L60.2042 75.329C60.5597 75.9987 59.98 76.0708 60.112 76.3179C60.1161 76.3293 60.1225 76.3398 60.131 76.3485C60.1395 76.3572 60.1497 76.3639 60.1611 76.3683C60.1724 76.3726 60.1846 76.3744 60.1967 76.3735C60.2088 76.3727 60.2206 76.3692 60.2312 76.3633C60.4042 76.2711 60.6769 76.0887 60.9656 75.9358C61.4887 75.6584 61.7499 75.5547 61.9991 75.4228C62.1526 75.3408 62.1983 75.2814 62.1567 75.2027C62.0375 74.9771 61.4602 75.7002 60.998 74.8351L59.2105 71.4721Z" fill="#50565B"/>
<path fill-rule="evenodd" clip-rule="evenodd" d="M15.7888 43.4941C15.3356 43.276 15.4024 43.0175 15.2186 42.9994C15.0823 42.9853 15.0987 43.0767 15.0846 43.2113C15.0678 43.391 15.0805 43.5735 15.0637 43.7512C15.0448 43.937 14.9944 44.112 14.9755 44.2962C14.968 44.373 14.9257 44.5568 15.077 44.5722C15.3564 44.5992 15.1249 43.9253 15.8755 43.9993C16.1982 44.0445 16.5106 44.1456 16.7986 44.298L19.136 45.4155C19.1913 45.4411 19.3003 45.4761 19.2962 45.5151C19.2921 45.5542 19.1777 45.5743 19.1185 45.5878L16.4667 46.1607C16.0989 46.2573 15.7193 46.3019 15.3391 46.2933C15.006 46.2597 15.1633 45.8888 14.9487 45.8671C14.8133 45.8537 14.8174 45.8867 14.7951 46.09C14.7864 46.1929 14.7992 46.3802 14.7594 46.7902C14.7366 47.0062 14.6827 47.2211 14.6618 47.4318C14.6524 47.5268 14.5696 47.7186 14.7614 47.7375C14.8172 47.7436 14.8725 47.6648 14.8813 47.6467C14.9889 47.3935 15.0846 47.3127 15.4085 47.2347L20.2105 46.11C20.5572 46.0285 20.6433 45.9737 20.6496 45.9086C20.6562 45.8393 20.6132 45.8026 20.4119 45.7107L15.7888 43.4941Z" fill="#50565B"/>
<path fill-rule="evenodd" clip-rule="evenodd" d="M19.587 42.9833C20.3794 43.1657 20.1018 43.7312 20.4136 43.8027C20.5463 43.8329 20.5348 43.6997 20.5517 43.6317C20.59 43.4634 20.5971 43.2884 20.6426 43.0885C20.693 42.8711 20.7732 42.667 20.8439 42.3618C20.8628 42.2804 20.9045 42.1276 20.7985 42.102C20.4309 42.0172 20.7776 42.9361 19.2824 42.5915L16.6369 41.9801C16.5681 41.965 16.5157 41.9397 16.5238 41.9014C16.5318 41.8711 16.5796 41.8422 16.6531 41.8139L21.3885 39.7546C21.4606 39.7243 21.5145 39.7048 21.536 39.6183C21.5528 39.5435 21.4895 39.5289 21.3192 39.489L16.9554 38.4809C16.1379 38.2916 16.4458 37.807 16.2122 37.7517C16.1893 37.7471 16.1112 37.7289 16.0843 37.8473C16.0702 37.9031 16.052 38.1287 15.9618 38.5205C15.8622 38.9501 15.7887 39.1231 15.7665 39.2227C15.7489 39.3042 15.8217 39.3405 15.8755 39.3526C16.132 39.4118 16.1683 38.6209 16.8765 38.7838L19.4654 39.3823C19.6607 39.4267 19.7508 39.461 19.7434 39.4981C19.736 39.5352 19.6223 39.589 19.4963 39.6448L15.4864 41.3541C15.3141 41.4322 15.2758 41.3455 15.2304 41.5447C15.1563 41.8752 15.1483 42.0443 15.1126 42.2051C15.0837 42.3229 15.0284 42.428 14.9995 42.5471C14.9819 42.6212 15.0372 42.6669 15.1085 42.6825C15.4814 42.7686 15.1374 41.9558 16.6299 42.2994L19.587 42.9833Z" fill="#50565B"/>
<path fill-rule="evenodd" clip-rule="evenodd" d="M17.53 36.2734C16.8104 36.0384 17.2318 35.6722 16.9734 35.588C16.8812 35.5578 16.8562 35.5847 16.797 35.7658C16.6839 36.1125 16.6442 36.3411 16.5728 36.5596C16.504 36.773 16.397 36.9986 16.3204 37.2362C16.3014 37.2907 16.2295 37.4354 16.3587 37.4772C16.6245 37.5633 16.6341 36.8074 17.3267 37.0328L20.9715 38.2171C21.6938 38.4513 21.3525 38.8249 21.6184 38.9111C21.6567 38.9232 21.7139 38.9279 21.7315 38.8734C21.7827 38.7158 21.8366 38.4452 21.9227 38.1833C22.0762 37.71 22.1792 37.4946 22.2546 37.2704C22.2983 37.1303 22.2848 37.0657 22.202 37.0387C21.959 36.9592 22.0883 37.7523 21.1539 37.4501L17.53 36.2734Z" fill="#50565B"/>
<path fill-rule="evenodd" clip-rule="evenodd" d="M19.3267 31.7341C18.9672 31.3858 19.1107 31.1612 18.9423 31.0871C18.8171 31.0313 18.8042 31.1235 18.7491 31.246C18.6757 31.4096 18.632 31.5852 18.5593 31.7489C18.4845 31.9186 18.3835 32.0687 18.3062 32.2384C18.2759 32.3083 18.1782 32.4673 18.3183 32.5292C18.5728 32.6437 18.5646 31.9327 19.2507 32.239C19.542 32.3809 19.8055 32.5738 20.0289 32.8085L21.8911 34.595C21.9342 34.6355 22.0265 34.7048 22.0089 34.7392C21.9913 34.7735 21.879 34.7581 21.8218 34.7519L19.1334 34.4653C18.7558 34.4421 18.3832 34.3662 18.0267 34.2397C17.7204 34.1034 17.987 33.8006 17.7897 33.7139C17.6651 33.658 17.6591 33.691 17.577 33.8782C17.5352 33.9711 17.4895 34.1536 17.3225 34.5264C17.235 34.7257 17.1159 34.9118 17.0317 35.1028C16.9913 35.1911 16.8539 35.3458 17.0276 35.4239C17.0794 35.4462 17.1575 35.3903 17.1717 35.3768C17.3508 35.1702 17.468 35.1237 17.7978 35.1507L22.6888 35.5882C23.0416 35.6185 23.1412 35.5923 23.1675 35.5351C23.1945 35.4704 23.1634 35.4226 23.0033 35.2731L19.3267 31.7341Z" fill="#50565B"/>
<path fill-rule="evenodd" clip-rule="evenodd" d="M20.6704 30.0773C20.2073 29.7776 20.2147 29.7507 20.6355 29.1032C21.3074 28.0697 21.8189 28.9961 21.9829 28.7444C22.0616 28.6205 21.8247 28.5041 21.7345 28.4529L21.0565 28.0441C21.027 28.0216 20.9898 28.0116 20.953 28.0163C20.9161 28.0209 20.8826 28.0399 20.8597 28.0691C20.5534 28.5397 20.3413 28.9275 20.0942 29.3071C19.5623 30.1278 19.2844 30.496 19.1416 30.7151C19.1307 30.7299 19.123 30.7468 19.1189 30.7647C19.1149 30.7827 19.1147 30.8013 19.1182 30.8193C19.1218 30.8374 19.129 30.8545 19.1395 30.8695C19.1501 30.8846 19.1636 30.8974 19.1793 30.9069C19.4473 31.0813 19.625 30.3368 20.2282 30.7272L23.3632 32.7628C24.1791 33.2939 23.553 33.4663 23.8607 33.6655C23.9011 33.6917 23.957 33.6807 24 33.6116C24.1918 33.3167 24.3123 33.0745 24.4201 32.9095C24.5938 32.6415 24.8289 32.3366 25.3579 31.5219C25.6432 31.0828 25.3 30.4105 24.7762 30.0704C24.6496 29.9884 24.6059 30.0132 24.5918 30.0341C24.4578 30.238 25.3848 30.733 24.5238 32.0612C24.2726 32.4469 24.0451 32.2686 23.6298 32.0006L22.7721 31.4426C22.383 31.1902 22.2895 31.1598 22.4503 30.9127L22.7061 30.5162C23.0695 29.9595 23.6816 30.5701 23.7919 30.3997C23.8767 30.2704 23.6142 30.1466 23.524 30.0954L22.3067 29.3589C22.1229 29.2464 22.0981 29.3145 22.0731 29.3509C22.0038 29.4579 22.6091 29.8753 22.3108 30.3357L22.0922 30.6738C21.9408 30.9033 21.8954 30.873 21.6062 30.6859L20.6704 30.0773Z" fill="#50565B"/>
<path fill-rule="evenodd" clip-rule="evenodd" d="M28.6275 27.0059C28.7749 27.1325 28.8105 27.185 28.964 27.119C29.3148 26.9602 29.6877 26.8975 29.9866 26.6471C30.6274 26.1086 30.6224 25.1876 29.9482 24.3858C29.2972 23.6096 28.754 23.617 27.9878 23.7692C27.0291 23.9591 26.694 24.1044 26.3492 23.6952C26.0045 23.2859 26.0322 22.8678 26.3533 22.5972C27.1955 21.8904 28.2235 22.9668 28.3366 22.8726C28.4443 22.7818 28.3972 22.6962 28.2761 22.5698L27.5328 21.7956C27.4049 21.6623 27.3436 21.5586 27.269 21.6198C27.2057 21.6729 27.1653 21.8735 27.1024 21.9274C26.955 22.0499 26.5491 21.9847 26.1486 22.3211C25.5771 22.801 25.6148 23.644 26.2064 24.3462C26.7444 24.9898 27.2344 24.9857 27.8511 24.8652C29.0029 24.6381 29.376 24.4599 29.8129 24.9783C30.2242 25.4683 30.1763 26.0078 29.7953 26.3287C29.2521 26.7838 28.482 26.4829 27.8309 26.0259C27.7454 25.9633 27.6895 25.9162 27.6114 25.9822C27.4889 26.0845 27.6862 26.2205 27.7737 26.2945L28.6275 27.0059Z" fill="#50565B"/>
<path fill-rule="evenodd" clip-rule="evenodd" d="M29.4616 20.9611C29.0267 20.339 29.5849 20.3007 29.4294 20.0778C29.3735 19.9991 29.3385 20.0038 29.1823 20.1149C28.884 20.3235 28.7137 20.4817 28.5252 20.6124C28.3422 20.7409 28.1199 20.8581 27.9152 21.0015C27.8698 21.0337 27.724 21.1066 27.8021 21.2175C27.961 21.4464 28.4242 20.8493 28.8416 21.4446L31.041 24.5843C31.4752 25.205 30.9804 25.298 31.14 25.5281C31.1629 25.5611 31.206 25.5988 31.2531 25.5664C31.3894 25.4709 31.5957 25.2871 31.8199 25.1295C32.2272 24.8441 32.4407 24.7336 32.6333 24.5984C32.7544 24.515 32.7827 24.455 32.7329 24.3837C32.5862 24.1743 32.2104 24.8853 31.6477 24.0809L29.4616 20.9611Z" fill="#50565B"/>
<path fill-rule="evenodd" clip-rule="evenodd" d="M51.6744 16.1257C51.7377 15.7716 51.8662 15.6316 52.1497 15.6814C53.1238 15.8537 52.9784 17.0117 52.936 17.2149C52.8936 17.4181 52.6815 18.296 51.9195 18.162C51.8215 18.1361 51.7253 18.1033 51.6319 18.0638C51.5562 18.0497 51.5268 18.1419 51.5182 18.1964C51.5121 18.2294 51.508 18.4314 52.1247 18.539C52.8726 18.671 53.564 18.1775 53.7377 17.1932C53.941 16.0461 53.2287 15.5148 52.4205 15.3884C51.9722 15.3177 51.5211 15.2626 51.4336 15.247C50.957 15.1622 50.616 15.0706 50.5706 15.0632C50.4192 15.0363 50.3753 15.1339 50.3686 15.181C50.3161 15.4724 51.0284 15.2652 50.881 16.0986L50.2714 19.5584C50.0991 20.5412 49.6265 20.2801 49.586 20.5082C49.5809 20.5251 49.58 20.5429 49.5833 20.5601C49.5866 20.5774 49.594 20.5936 49.6049 20.6074C49.6158 20.6212 49.6299 20.6321 49.646 20.6392C49.6621 20.6463 49.6796 20.6494 49.6972 20.6483C49.7335 20.6557 50.2243 20.7102 50.4767 20.7543C50.614 20.7792 50.8855 20.8593 51.3264 20.9367C51.4139 20.9518 51.4738 20.9791 51.498 20.8459C51.5465 20.5699 50.8592 20.7564 51.0314 19.7734L51.6744 16.1257Z" fill="#50565B"/>
<path fill-rule="evenodd" clip-rule="evenodd" d="M57.3311 19.787C56.9002 21.0412 56.2129 21.9369 55.1661 21.6006C54.0789 21.2512 54.2397 19.5427 54.6211 18.4399C54.9981 17.3453 55.6585 16.4068 56.6865 16.7359C57.4707 16.9891 57.907 18.1186 57.3314 19.7869M56.979 16.4742C55.5295 15.9915 54.2992 16.9615 53.728 18.6149C53.2022 20.1472 53.6653 21.4471 54.8786 21.8659C56.8067 22.5283 57.8118 20.8061 58.1753 19.7486C58.7259 18.1483 58.1612 16.8646 56.9793 16.474" fill="#50565B"/>
<path fill-rule="evenodd" clip-rule="evenodd" d="M60.5105 18.7889C60.7838 18.249 61.0545 18.7182 61.1918 18.4469C61.2355 18.3614 61.2106 18.3409 61.0922 18.2793C60.8678 18.1908 60.6481 18.0911 60.4337 17.9805C60.2169 17.8701 59.9019 17.6728 59.6737 17.5565C59.5552 17.496 59.463 17.5208 59.4307 17.5841C59.3048 17.8339 60.0454 17.9691 59.7378 18.5738L58.0223 21.9397C57.5793 22.8081 57.3423 22.2035 57.1761 22.5301C57.1552 22.5725 57.1701 22.6256 57.2448 22.6633C57.5566 22.8229 57.8117 22.9165 57.9867 23.006C58.2721 23.1501 58.5993 23.3533 59.4643 23.7943C59.9302 24.0326 60.563 23.6193 60.8465 23.0652C60.9158 22.9298 60.8848 22.8882 60.8633 22.8767C60.6472 22.7663 60.2513 23.7396 58.8409 23.02C58.4309 22.812 58.5844 22.5658 58.8086 22.1253L60.5105 18.7889Z" fill="#50565B"/>
<path fill-rule="evenodd" clip-rule="evenodd" d="M63.9592 20.9462C64.384 20.3175 64.619 20.8237 64.7731 20.598C64.8262 20.5199 64.8094 20.4882 64.6485 20.3812C64.3475 20.1773 64.1395 20.0755 63.9471 19.947C63.7639 19.821 63.5748 19.6562 63.3681 19.5169C63.3203 19.4839 63.2016 19.3755 63.1244 19.488C62.9695 19.7196 63.6932 19.9376 63.2853 20.5402L61.1432 23.7179C60.7193 24.3453 60.4525 23.9171 60.2982 24.1487C60.2746 24.181 60.2528 24.2349 60.3009 24.2673C60.439 24.3603 60.6867 24.4874 60.9123 24.6402C61.3256 24.9195 61.5041 25.0792 61.7014 25.2103C61.8211 25.2932 61.8885 25.2979 61.9363 25.2255C62.0797 25.0135 61.2812 24.9171 61.8313 24.1026L63.9592 20.9462Z" fill="#50565B"/>
<path fill-rule="evenodd" clip-rule="evenodd" d="M63.7198 25.4124C63.1348 26.1617 62.8036 25.4152 62.6104 25.6601C62.5027 25.7975 62.5922 25.8594 62.6825 25.9301C62.8858 26.0869 63.0709 26.192 63.4083 26.4559C63.7456 26.7198 63.8903 26.8739 64.0936 27.0312C64.2391 27.1457 64.3245 27.2432 64.4418 27.0918C64.5799 26.9154 63.7928 26.5935 64.3981 25.82L66.6203 22.9763C66.8553 22.6735 66.932 22.6814 67.1367 22.8431L67.5662 23.1771C68.1647 23.6039 67.4572 24.1775 67.6571 24.335C67.7891 24.4365 67.9251 24.1478 67.975 24.0656L68.3709 23.4429C68.4154 23.3763 68.484 23.288 68.4094 23.2288C67.9408 22.8632 67.584 22.6232 66.85 22.0501C66.116 21.4769 65.797 21.1871 65.3286 20.8221C65.2529 20.7629 65.1845 20.8523 65.1318 20.9096L64.4007 21.677C64.3272 21.751 64.1899 21.8655 64.2956 21.9477C64.5204 22.1261 65.0146 21.1836 65.5834 21.6286L66.0061 21.9577C66.2108 22.1192 66.2377 22.1907 66.0028 22.4923L63.7198 25.4124Z" fill="#50565B"/>
<path fill-rule="evenodd" clip-rule="evenodd" d="M69.22 25.484C69.6239 25.1084 69.6468 25.1218 70.1738 25.6873C71.016 26.5887 69.9921 26.8608 70.1966 27.0802C70.2963 27.1886 70.4692 26.9846 70.5393 26.9098L71.0994 26.3518C71.114 26.3405 71.1263 26.3264 71.1353 26.3104C71.1444 26.2943 71.1502 26.2765 71.1523 26.2582C71.1545 26.2399 71.1529 26.2213 71.1478 26.2036C71.1426 26.1858 71.1339 26.1693 71.1223 26.155C70.7399 25.7444 70.416 25.4434 70.1058 25.1115C69.4397 24.3966 69.1505 24.039 68.9703 23.8472C68.9587 23.8331 68.9442 23.8215 68.9278 23.8133C68.9115 23.8051 68.8936 23.8003 68.8753 23.7994C68.857 23.7984 68.8387 23.8013 68.8216 23.8078C68.8044 23.8143 68.7888 23.8242 68.7758 23.8371C68.5416 24.0545 69.2215 24.408 68.6949 24.8981L65.9619 27.4478C65.2503 28.1115 65.2341 27.4618 64.9669 27.713C64.9319 27.7453 64.9286 27.8013 64.9857 27.8611C65.2247 28.1185 65.4293 28.2926 65.5654 28.4373C65.7835 28.6709 66.0211 28.9732 66.683 29.6835C67.0418 30.0665 67.7762 29.8962 68.2313 29.4707C68.3431 29.3678 68.3296 29.318 68.3122 29.2997C68.1473 29.1227 67.443 29.9015 66.3639 28.7416C66.0502 28.407 66.2756 28.2287 66.6392 27.8906L67.3858 27.1942C67.7245 26.8778 67.7782 26.7936 67.9762 27.009L68.3007 27.3544C68.7525 27.8397 68.0112 28.2868 68.1505 28.4362C68.2556 28.548 68.44 28.3245 68.5107 28.2491L69.5211 27.246C69.6746 27.0946 69.6119 27.0547 69.5844 27.0217C69.4963 26.9282 68.9469 27.4154 68.5718 27.0137L68.2964 26.7188C68.1086 26.5188 68.1503 26.4805 68.4015 26.2461L69.22 25.484Z" fill="#50565B"/>
<path fill-rule="evenodd" clip-rule="evenodd" d="M73.949 30.4383C73.9813 30.4168 73.9631 30.375 73.9449 30.3475C73.8957 30.2727 73.6736 30.4154 73.6043 30.3152C73.4972 30.1564 73.6271 29.4763 73.1955 28.8355C72.296 27.5018 70.4635 27.9414 69.3521 28.6921C68.8292 29.046 67.2931 30.4262 68.3405 31.9792C69.1026 33.1062 70.4806 32.9936 70.7445 32.8154C70.7614 32.8003 70.7728 32.78 70.7769 32.7577C70.7811 32.7354 70.7777 32.7123 70.7674 32.6922C70.6744 32.5541 69.5636 32.7791 69.0103 31.9577C68.329 30.9465 69.3529 29.6385 70.2873 29.0091C71.1739 28.4112 72.3917 28.2147 72.9156 28.994C73.331 29.6079 73.0683 30.4625 72.6113 31.1564C72.5507 31.2513 72.4368 31.382 72.4941 31.466C72.5546 31.5568 72.6909 31.433 72.7546 31.3818L73.949 30.4383Z" fill="#50565B"/>
<path fill-rule="evenodd" clip-rule="evenodd" d="M70.7504 33.5902C70.0112 33.9349 69.8833 33.3176 69.5938 33.4539C69.4727 33.5111 69.5616 33.6094 69.5905 33.674C69.6632 33.8295 69.7642 33.9729 69.8511 34.1585C69.9466 34.3618 70.0099 34.5712 70.1419 34.8549C70.1763 34.9306 70.2374 35.0778 70.3378 35.0313C70.6779 34.8731 69.8409 34.3602 71.2291 33.7131L73.6904 32.5659C73.7556 32.5357 73.8115 32.5228 73.8284 32.5579C73.8419 32.5868 73.821 32.638 73.783 32.7067L71.3172 37.245C71.2789 37.313 71.2479 37.3609 71.2869 37.4429C71.3199 37.5123 71.3778 37.4853 71.536 37.4107L75.5975 35.5182C76.3556 35.1641 76.4128 35.737 76.6288 35.636C76.6503 35.6252 76.7232 35.5922 76.6732 35.4819C76.6482 35.4301 76.5238 35.2408 76.3553 34.8763C76.1674 34.477 76.1183 34.2954 76.0759 34.2024C76.0388 34.1267 75.9588 34.1446 75.9094 34.1667C75.6703 34.2792 76.1295 34.9253 75.4719 35.2318L73.0609 36.3536C72.8804 36.4384 72.7868 36.4673 72.772 36.4323C72.7571 36.3974 72.8103 36.2876 72.8771 36.1651L74.9815 32.3499C75.0696 32.1809 75.1538 32.2274 75.0676 32.0423C74.9243 31.7352 74.8246 31.5987 74.7539 31.4479C74.7041 31.3381 74.6832 31.2208 74.6328 31.11C74.6006 31.0406 74.5268 31.0386 74.4625 31.0689C74.1164 31.2318 74.8893 31.6607 73.4998 32.3077L70.7504 33.5902Z" fill="#50565B"/>
<path fill-rule="evenodd" clip-rule="evenodd" d="M76.4524 37.8036C77.1741 37.5694 77.0481 38.1139 77.3067 38.0298C77.3976 37.9995 77.4036 37.9645 77.3444 37.7827C77.2313 37.436 77.1303 37.228 77.059 37.0092C76.9911 36.7957 76.9446 36.5486 76.8659 36.3128C76.849 36.2575 76.8221 36.0987 76.6936 36.1405C76.4277 36.2266 76.8619 36.8454 76.1711 37.0688L72.5269 38.2537C71.8052 38.4879 71.8608 37.9865 71.5945 38.072C71.5568 38.0855 71.5083 38.1144 71.5257 38.1697C71.5775 38.3265 71.6923 38.5784 71.7762 38.8394C71.931 39.3133 71.974 39.5477 72.0461 39.7733C72.0915 39.9125 72.1404 39.9577 72.2244 39.9307C72.4655 39.8512 71.8965 39.2844 72.829 38.9814L76.4524 37.8036Z" fill="#50565B"/>
<path fill-rule="evenodd" clip-rule="evenodd" d="M78.1586 42.5497C78.1983 42.543 78.1983 42.4971 78.193 42.4663C78.1779 42.3788 77.9176 42.4171 77.8941 42.2979C77.8619 42.1087 78.2563 41.5399 78.1212 40.7785C77.8419 39.1938 75.9891 38.8524 74.6683 39.0854C74.0476 39.1944 72.0845 39.8327 72.4096 41.676C72.6452 43.0157 73.9505 43.4735 74.265 43.4183C74.2865 43.4112 74.3051 43.3972 74.3178 43.3784C74.3305 43.3596 74.3366 43.3372 74.3351 43.3145C74.3068 43.1509 73.2028 42.9046 73.0303 41.9297C72.8169 40.7287 74.2859 39.9505 75.3939 39.7546C76.4481 39.5688 77.6392 39.8845 77.8021 40.8088C77.932 41.5393 77.3443 42.2131 76.6456 42.6608C76.55 42.7227 76.393 42.7954 76.4119 42.8971C76.4295 43.0031 76.6073 42.947 76.6845 42.9261L78.1586 42.5497Z" fill="#50565B"/>
<path fill-rule="evenodd" clip-rule="evenodd" d="M32.4517 62.6698C32.247 62.8246 32.2357 62.8151 31.9919 62.4914C31.6015 61.975 32.107 61.9213 32.0134 61.795C31.9669 61.7331 31.8788 61.8212 31.8411 61.8522L31.5556 62.086C31.5482 62.0911 31.5419 62.0977 31.5371 62.1053C31.5322 62.1129 31.5289 62.1214 31.5273 62.1303C31.5258 62.1391 31.526 62.1482 31.528 62.157C31.5299 62.1658 31.5336 62.1741 31.5388 62.1815C31.7165 62.4171 31.8679 62.5929 32.0115 62.7827C32.3198 63.1915 32.4537 63.3947 32.5359 63.5037C32.5407 63.5115 32.547 63.5184 32.5545 63.5237C32.562 63.5291 32.5705 63.5329 32.5795 63.5349C32.5885 63.5369 32.5978 63.5371 32.6068 63.5354C32.6159 63.5337 32.6245 63.5303 32.6322 63.5252C32.75 63.4343 32.4269 63.2034 32.6949 63.0021L34.0877 61.954C34.4493 61.6799 34.4418 62.0057 34.5799 61.9022C34.5975 61.887 34.6001 61.8598 34.5739 61.8254C34.4627 61.678 34.3672 61.575 34.3039 61.4923C34.2029 61.3584 34.0932 61.1888 33.7869 60.7808C33.6204 60.5626 33.2591 60.5876 33.0255 60.7619C32.9703 60.8056 32.9749 60.8312 32.9831 60.8427C33.0599 60.9443 33.4214 60.6124 33.9218 61.2769C34.0665 61.4701 33.9521 61.5388 33.7683 61.6789L33.3875 61.9655C33.2131 62.0954 33.1861 62.132 33.0939 62.0092L32.9445 61.8106C32.7345 61.5326 33.1055 61.3696 33.0408 61.2834C32.993 61.2207 32.8988 61.3157 32.8603 61.3487L32.3456 61.7661C32.2675 61.8294 32.2964 61.8543 32.3093 61.8731C32.3497 61.9263 32.6298 61.7297 32.8034 61.9593L32.93 62.1276C33.0182 62.2427 32.9966 62.2583 32.8694 62.3547L32.4517 62.6698Z" fill="#50565B"/>
<path fill-rule="evenodd" clip-rule="evenodd" d="M33.0901 60.378C33.3352 60.3739 33.4383 60.5315 33.5075 60.479C33.5499 60.4474 33.5116 60.4144 33.4679 60.3591C33.4046 60.273 33.3278 60.1942 33.2604 60.106C33.2032 60.0312 33.1595 59.9471 33.0598 59.8171C33.0208 59.7653 32.9959 59.7565 32.9716 59.7733C32.8686 59.8534 33.1304 60.0331 32.9716 60.1518C32.8865 60.1958 32.7919 60.2182 32.6962 60.2171L32.2075 60.2399C32.1468 60.2482 32.0854 60.2496 32.0244 60.244C32.0328 60.188 32.0501 60.1337 32.0756 60.0831L32.277 59.5506C32.2966 59.4759 32.3389 59.4091 32.3981 59.3594C32.5112 59.2733 32.5819 59.4516 32.6706 59.3844C32.7177 59.3481 32.6821 59.3137 32.6538 59.2754C32.5919 59.1932 32.5192 59.1089 32.41 58.9771C32.3104 58.85 32.276 58.7738 32.2303 58.7125C32.1483 58.6035 32.1192 58.5785 32.0809 58.6074C32.0156 58.6572 32.1442 58.774 31.9967 59.1525L31.6518 60.053C31.6141 60.152 31.602 60.2079 31.5563 60.2401C31.4876 60.2617 31.4153 60.2694 31.3436 60.263L30.6508 60.2839C30.2199 60.299 30.1439 60.087 30.0755 60.1391C30.0425 60.1641 30.0391 60.1889 30.0735 60.234C30.1704 60.3661 30.2438 60.4374 30.3044 60.5181C30.3603 60.5921 30.4087 60.6782 30.5012 60.8048C30.5049 60.8128 30.5104 60.8198 30.5174 60.8252C30.5243 60.8306 30.5324 60.8342 30.541 60.8359C30.5497 60.8375 30.5586 60.8371 30.567 60.8346C30.5754 60.8321 30.5831 60.8277 30.5895 60.8216C30.6629 60.7685 30.4723 60.5921 30.603 60.4925C30.6568 60.4528 30.716 60.4372 30.9012 60.4319L31.3799 60.4168C31.4253 60.4148 31.4836 60.4053 31.4991 60.4242C31.5118 60.4437 31.495 60.4814 31.4815 60.5125L31.2128 61.1132C31.1955 61.1545 31.1704 61.1919 31.1387 61.2236C31.0303 61.3044 30.9268 61.1415 30.8553 61.1974C30.8391 61.2081 30.817 61.2224 30.86 61.2816C30.9166 61.3542 30.9751 61.4075 31.1286 61.6128C31.2814 61.8154 31.3353 61.9111 31.3851 61.9784C31.4214 62.0263 31.4443 62.0302 31.4733 62.0087C31.5845 61.9246 31.3448 61.8828 31.5993 61.2669L31.87 60.6145C31.8929 60.542 31.9255 60.473 31.9669 60.4092C32.0251 60.3946 32.0854 60.3895 32.1452 60.3941L33.0901 60.378Z" fill="#50565B"/>
<path fill-rule="evenodd" clip-rule="evenodd" d="M43.1972 26.2062C43.2962 26.2061 43.3943 26.2256 43.4858 26.2635C43.5773 26.3014 43.6604 26.3569 43.7304 26.4269C43.8004 26.4969 43.856 26.5801 43.8938 26.6716C43.9317 26.7631 43.9512 26.8611 43.9512 26.9601C43.9512 27.0592 43.9317 27.1572 43.8938 27.2487C43.856 27.3402 43.8004 27.4233 43.7304 27.4934C43.6604 27.5634 43.5773 27.6189 43.4858 27.6568C43.3943 27.6947 43.2962 27.7141 43.1972 27.7141C42.9973 27.7139 42.8057 27.6343 42.6643 27.493C42.523 27.3517 42.4435 27.16 42.4432 26.9601C42.4435 26.7602 42.523 26.5686 42.6643 26.4273C42.8057 26.2859 42.9973 26.2064 43.1972 26.2062Z" fill="#50565B"/>
<path fill-rule="evenodd" clip-rule="evenodd" d="M36.412 27.715C36.6119 27.7152 36.8035 27.7947 36.9448 27.9361C37.0862 28.0774 37.1657 28.269 37.1659 28.4689C37.1659 28.6689 37.0864 28.8607 36.9451 29.0022C36.8037 29.1437 36.612 29.2234 36.412 29.2236C36.3129 29.2237 36.2148 29.2042 36.1233 29.1662C36.0317 29.1283 35.9486 29.0727 35.8785 29.0026C35.8085 28.9325 35.753 28.8493 35.7152 28.7577C35.6773 28.6661 35.6579 28.568 35.658 28.4689C35.658 28.3699 35.6775 28.2718 35.7153 28.1804C35.7532 28.0889 35.8087 28.0057 35.8788 27.9357C35.9488 27.8657 36.0319 27.8102 36.1234 27.7723C36.2149 27.7344 36.313 27.7149 36.412 27.715Z" fill="#50565B"/>
<path d="M58.7682 30.5692C58.5858 31.002 58.3918 31.0674 57.6763 30.9415C57.0792 30.8364 57.094 30.0522 57.127 29.7203L56.1219 29.4281C55.691 30.2885 55.1801 30.3356 54.7829 30.2803C54.0612 30.1813 54.0243 28.9837 54.0673 28.2788L53.0332 28.0694C52.5324 29.4865 52.3065 29.7045 51.6767 29.8205C51.5367 29.8372 51.3948 29.8183 51.2641 29.7656C51.1334 29.7129 51.018 29.6281 50.9288 29.5189C50.7117 29.2772 50.5814 28.9699 50.5585 28.6458C50.5857 28.4912 50.6024 28.3349 50.6083 28.178L49.5637 28.0165C49.5154 28.1949 49.491 28.3789 49.491 28.5638C49.4289 28.933 49.2419 29.2698 48.9611 29.5176C48.8837 29.5785 48.7926 29.6197 48.6957 29.6376C48.5989 29.6555 48.4991 29.6497 48.405 29.6205C47.9021 29.4874 47.2359 29.0808 47.2359 27.0934H46.1708C46.1708 27.1539 46.1728 27.2125 46.1742 27.2717H46.1708C46.1708 28.7017 45.8214 29.4039 45.0042 29.6199C44.9023 29.6473 44.7953 29.6489 44.6927 29.6246C44.5901 29.6003 44.4951 29.5508 44.4164 29.4806C44.1374 29.2308 43.9523 28.893 43.892 28.5233C43.8946 28.3686 43.8822 28.2139 43.8549 28.0616L42.7986 28.1403C42.7945 28.2895 42.8029 28.4388 42.8236 28.5866C42.8006 28.9583 42.6493 29.3105 42.3954 29.583C42.3143 29.6759 42.2107 29.7466 42.0945 29.7882C41.9783 29.8298 41.8534 29.841 41.7317 29.8207C41.0922 29.7035 40.7764 29.414 40.2836 28.0245L39.2515 28.2339C39.2952 28.9704 39.2697 30.2185 38.6005 30.3101C38.2276 30.3619 37.7811 30.2818 37.2863 29.2943L36.2808 29.5871C36.3487 30.2629 36.0862 30.9139 35.7055 31.0082C35.0287 31.1781 35.0287 31.1781 34.7153 30.6365L34.6245 30.4817L33.7068 31.0209L33.7938 31.1704C34.2797 32.0099 34.6528 32.3693 35.9622 32.0415C36.5486 31.8954 36.9437 31.4471 37.1592 30.8917C37.3716 31.0837 37.6243 31.2259 37.8988 31.3078C38.1733 31.3896 38.4625 31.4092 38.7455 31.3649C39.2719 31.2923 39.8516 30.9864 40.1417 30.0824C40.4957 30.5063 40.993 30.7854 41.5393 30.8667C41.8305 30.9193 42.1302 30.8983 42.4112 30.8055C42.6922 30.7128 42.9455 30.5512 43.1482 30.3356C43.2528 30.2305 43.3472 30.1158 43.4302 29.993C43.5263 30.1107 43.6344 30.2181 43.7527 30.3135C43.9615 30.4868 44.2088 30.6077 44.4739 30.6659C44.739 30.7241 45.0141 30.7181 45.2764 30.6482C45.575 30.5764 45.8564 30.4463 46.1047 30.2655C46.353 30.0848 46.5631 29.8568 46.7231 29.5946C46.8761 29.855 47.0794 30.0822 47.3211 30.2631C47.5629 30.444 47.8382 30.5749 48.1311 30.6482C48.3794 30.7186 48.6407 30.7304 48.8944 30.6826C49.148 30.6348 49.3871 30.5288 49.5927 30.3728C49.7305 30.2689 49.8549 30.1484 49.963 30.014C50.0192 30.0924 50.0797 30.1677 50.1443 30.2394C50.3533 30.4838 50.6219 30.6699 50.924 30.7799C51.2261 30.8898 51.5516 30.9197 51.8687 30.8668C52.3941 30.7939 52.8736 30.528 53.2137 30.1209C53.5483 31.0182 54.1892 31.2735 54.6368 31.3354C54.9147 31.3804 55.1987 31.3698 55.4724 31.3044C55.7461 31.239 56.0042 31.12 56.2317 30.9543C56.3329 31.2217 56.5024 31.458 56.7232 31.6397C56.9441 31.8213 57.2086 31.942 57.4905 31.9897C58.0447 32.0874 59.1979 32.2907 59.7479 30.9813L58.7682 30.5692Z" fill="#50565B"/>
<path fill-rule="evenodd" clip-rule="evenodd" d="M50.1204 26.2506C50.2194 26.2506 50.3174 26.27 50.4089 26.3079C50.5004 26.3458 50.5836 26.4013 50.6536 26.4714C50.7236 26.5414 50.7791 26.6245 50.817 26.716C50.8549 26.8075 50.8744 26.9055 50.8743 27.0046C50.8744 27.1036 50.8549 27.2017 50.817 27.2931C50.7791 27.3846 50.7236 27.4678 50.6536 27.5378C50.5836 27.6078 50.5004 27.6633 50.4089 27.7012C50.3174 27.7391 50.2194 27.7586 50.1204 27.7585C49.9204 27.7585 49.7287 27.679 49.5873 27.5377C49.4459 27.3963 49.3664 27.2045 49.3664 27.0046C49.3664 26.8046 49.4459 26.6129 49.5873 26.4715C49.7287 26.3301 49.9204 26.2507 50.1204 26.2506Z" fill="#50565B"/>
<path fill-rule="evenodd" clip-rule="evenodd" d="M56.996 27.6261C57.0951 27.626 57.1932 27.6455 57.2847 27.6834C57.3763 27.7212 57.4595 27.7767 57.5296 27.8468C57.5996 27.9168 57.6552 27.9999 57.6932 28.0914C57.7312 28.1829 57.7507 28.281 57.7507 28.3801C57.7507 28.4791 57.7312 28.5772 57.6932 28.6687C57.6552 28.7602 57.5996 28.8434 57.5296 28.9134C57.4595 28.9834 57.3763 29.0389 57.2847 29.0768C57.1932 29.1146 57.0951 29.1341 56.996 29.134C56.7961 29.134 56.6043 29.0545 56.4629 28.9131C56.3216 28.7718 56.2421 28.58 56.2421 28.3801C56.2421 28.1801 56.3216 27.9884 56.4629 27.847C56.6043 27.7056 56.7961 27.6261 56.996 27.6261Z" fill="#50565B"/>
<path fill-rule="evenodd" clip-rule="evenodd" d="M36.4273 34.2981L37.2271 33.5286L38.2112 33.9002L37.4542 34.6637L36.4273 34.2981Z" fill="#50565B"/>
<path d="M34.6568 33.6945C39.2118 32.2397 41.9248 31.8202 46.7535 31.8256C51.6268 31.829 54.3481 32.2483 58.8841 33.6945C58.8841 33.6945 59.2605 33.7935 59.4031 33.3463C59.4514 33.2365 59.4562 33.1125 59.4164 32.9994C59.3767 32.8862 59.2954 32.7924 59.189 32.737C54.5936 31.2715 51.6888 30.8238 46.7547 30.8197C41.8646 30.815 38.9656 31.2633 34.3507 32.737C34.2433 32.7896 34.1605 32.8816 34.1193 32.9938C34.0781 33.106 34.0819 33.2298 34.1298 33.3393C34.1531 33.456 34.2216 33.5588 34.3203 33.6252C34.4191 33.6916 34.5401 33.7164 34.657 33.694" fill="#50565B"/>
<path d="M35.6271 36.6364C36.0404 36.5495 36.4639 36.4526 36.9115 36.3496C39.1689 35.8312 41.9775 35.1863 46.7041 35.1822C50.6168 35.1789 53.2707 35.7121 56.6313 36.3885L57.8747 36.637C57.8747 36.637 58.2558 36.6936 58.346 36.2397C58.3798 36.1247 58.3703 36.0014 58.3195 35.8929C58.2687 35.7844 58.1799 35.6982 58.07 35.6506L56.8285 35.4022C53.4133 34.7154 50.7157 34.1728 46.702 34.1769C41.8623 34.181 38.9916 34.8393 36.6852 35.3692C36.243 35.4707 35.8242 35.567 35.4195 35.652C35.3103 35.7 35.2223 35.7861 35.172 35.8943C35.1217 36.0025 35.1126 36.1253 35.1462 36.2397C35.1581 36.3556 35.2151 36.4622 35.3049 36.5364C35.3947 36.6106 35.5101 36.6464 35.6262 36.6362" fill="#50565B"/>
<path fill-rule="evenodd" clip-rule="evenodd" d="M42.5696 33.1335L43.4629 32.4845L44.4586 33.0083L43.5437 33.6472L42.5696 33.1335Z" fill="#50565B"/>
<path fill-rule="evenodd" clip-rule="evenodd" d="M58.8945 34.9957C59.0913 34.5103 58.7935 33.8579 58.7935 33.8579C58.4367 33.7475 57.744 33.8061 57.5724 34.28C57.3866 34.7929 57.5724 35.2111 58.1486 35.5551C58.4377 35.4295 58.6933 35.2376 58.8945 34.9949" fill="#50565B"/>
<path fill-rule="evenodd" clip-rule="evenodd" d="M57.0246 34.2981L56.2247 33.5286L55.2407 33.9002L55.9967 34.6637L57.0246 34.2981Z" fill="#50565B"/>
<path fill-rule="evenodd" clip-rule="evenodd" d="M50.8382 33.1335L49.9442 32.4845L48.9471 33.0083L49.8639 33.6472L50.8382 33.1335Z" fill="#50565B"/>
<path fill-rule="evenodd" clip-rule="evenodd" d="M54.5721 33.6916C54.6563 33.1597 54.0672 32.7652 53.2682 32.6393C52.4691 32.5135 51.7642 32.702 51.68 33.2345C51.5958 33.767 52.1607 34.1535 52.9592 34.2806C53.7576 34.4078 54.4883 34.224 54.5721 33.6916Z" fill="#50565B"/>
<path fill-rule="evenodd" clip-rule="evenodd" d="M64.503 36.3355C64.6544 36.2447 64.7494 36.25 64.8261 36.3779C65.0927 36.8215 64.6161 37.1413 64.5259 37.1912C64.4357 37.2412 64.0399 37.445 63.8331 37.1004C63.8103 37.0526 63.79 37.0037 63.7726 36.9537C63.7536 36.9193 63.7093 36.9385 63.6843 36.9523C63.6728 36.9603 63.5962 37.0244 63.7644 37.3051C63.9677 37.6451 64.383 37.7555 64.8058 37.503C65.2961 37.2053 65.2531 36.751 65.026 36.3908C64.9021 36.1894 64.7701 35.9929 64.7466 35.9533C64.6146 35.7358 64.5347 35.5708 64.5224 35.5507C64.5185 35.5403 64.5123 35.5308 64.5044 35.523C64.4965 35.5151 64.487 35.509 64.4765 35.5051C64.4661 35.5013 64.4549 35.4997 64.4438 35.5004C64.4327 35.5012 64.4219 35.5044 64.4121 35.5097C64.2855 35.5854 64.6025 35.7991 64.2455 36.0132L62.7618 36.9045C62.3411 37.1582 62.2773 36.8843 62.1802 36.9435C62.1721 36.9476 62.1652 36.9536 62.16 36.9608C62.1547 36.9681 62.1513 36.9766 62.15 36.9855C62.1486 36.9944 62.1495 37.0035 62.1524 37.012C62.1553 37.0205 62.1602 37.0282 62.1667 37.0344C62.1768 37.0519 62.3222 37.2625 62.3909 37.377C62.4292 37.4403 62.4905 37.5738 62.6097 37.7729C62.6339 37.8133 62.6433 37.8456 62.7005 37.8112C62.819 37.7405 62.5188 37.5298 62.9402 37.276L64.503 36.3355Z" fill="#50565B"/>
<path fill-rule="evenodd" clip-rule="evenodd" d="M67.6613 44.667C67.7246 44.6569 67.8108 44.6461 67.8027 44.5963C67.7953 44.5432 67.6863 44.552 67.6762 44.4792C67.6633 44.3909 67.8775 44.078 67.8124 43.6195C67.6953 42.7888 66.7878 42.5706 66.1334 42.6628C65.825 42.706 64.8509 42.9941 64.9849 43.9602C65.0663 44.3309 65.2493 44.6717 65.5135 44.9442C65.5363 44.9712 65.558 44.9718 65.6185 44.9632C65.6744 44.9558 65.7814 44.9309 65.9402 44.9079C66.4399 44.838 66.262 45.0958 66.4284 45.0716C66.4667 45.0655 66.4801 45.044 66.4782 45.0278C66.4606 44.9087 66.4303 44.7956 66.4129 44.6745C66.39 44.5196 66.3846 44.3655 66.3631 44.2106C66.3557 44.154 66.3711 44.0449 66.2571 44.0592C66.1097 44.0807 66.4302 44.4356 65.8235 44.5209C65.5973 44.5526 65.268 44.5883 65.1854 43.9951C65.1097 43.4606 65.7872 43.1307 66.319 43.0565C67.3053 42.9178 67.6035 43.319 67.6473 43.626C67.7684 44.4925 66.9195 44.613 66.9289 44.6851C66.939 44.747 66.9592 44.7645 67.0117 44.7577L67.6613 44.667Z" fill="#50565B"/>
<path fill-rule="evenodd" clip-rule="evenodd" d="M67.3472 48.3805C67.6172 48.4081 67.6197 48.4229 67.5767 48.8228C67.5101 49.4617 67.0798 49.1559 67.0638 49.3109C67.0564 49.3866 67.187 49.3829 67.2388 49.3857L67.6265 49.414C67.6358 49.4156 67.6452 49.4153 67.6543 49.4132C67.6634 49.4111 67.672 49.4071 67.6796 49.4016C67.6871 49.3961 67.6935 49.3891 67.6983 49.381C67.703 49.373 67.7061 49.3641 67.7074 49.3548C67.7377 49.064 67.7457 48.8344 67.7726 48.5987C67.8244 48.0911 67.8648 47.8569 67.8797 47.7206C67.8815 47.7113 67.8813 47.7017 67.8792 47.6924C67.877 47.6831 67.873 47.6744 67.8673 47.6668C67.8616 47.6592 67.8543 47.6528 67.8461 47.6482C67.8378 47.6435 67.8286 47.6407 67.8191 47.6398C67.665 47.6236 67.7492 48.0114 67.3963 47.9743L65.5672 47.7813C65.0906 47.7315 65.3282 47.502 65.1479 47.4825C65.125 47.4805 65.1041 47.4976 65.098 47.541C65.0793 47.7241 65.0812 47.8635 65.0697 47.9672C65.0529 48.1315 65.0158 48.3288 64.9627 48.8323C64.9357 49.1048 65.234 49.3339 65.5403 49.3642C65.6137 49.3722 65.6285 49.3507 65.6311 49.338C65.6446 49.2108 65.1256 49.2034 65.2117 48.3834C65.2387 48.1451 65.3766 48.1727 65.6198 48.1983L66.1194 48.2508C66.3475 48.2758 66.3954 48.267 66.3799 48.4191L66.353 48.6643C66.3186 49.009 65.9127 48.8723 65.9012 48.978C65.8938 49.058 66.0352 49.0527 66.087 49.0547L66.7858 49.1045C66.8929 49.1119 66.8882 49.0742 66.8909 49.0506C66.8964 48.9854 66.5387 48.9375 66.5678 48.6522L66.5907 48.4441C66.6058 48.3021 66.6325 48.3054 66.8007 48.323L67.3472 48.3805Z" fill="#50565B"/>
<path fill-rule="evenodd" clip-rule="evenodd" d="M65.1217 49.5276C65.0255 49.5256 64.9952 49.5155 64.9569 49.5942C64.8492 49.7571 64.7649 49.9343 64.7065 50.1206C64.6223 50.5502 64.9071 50.915 65.4147 51.0146C65.9042 51.1102 66.1111 50.9264 66.3599 50.6121C66.6743 50.2184 66.7584 50.048 67.0183 50.0997C67.0707 50.1029 67.1217 50.1174 67.168 50.1421C67.2142 50.1669 67.2545 50.2014 67.2862 50.2432C67.3178 50.2851 67.34 50.3332 67.3513 50.3845C67.3626 50.4357 67.3626 50.4888 67.3514 50.54C67.2416 51.1028 66.5146 51.0106 66.5011 51.0873C66.486 51.158 66.5328 51.1768 66.6183 51.1869L67.1408 51.2522C67.2316 51.2637 67.2883 51.2844 67.2976 51.2346C67.3057 51.1928 67.2599 51.0984 67.2674 51.0563C67.2861 50.9573 67.4642 50.8496 67.5164 50.5816C67.5904 50.1992 67.3172 49.8761 66.8728 49.79C66.4669 49.7105 66.2796 49.8742 66.0784 50.1265C65.7014 50.5992 65.6118 50.7963 65.284 50.7311C65.22 50.7253 65.1578 50.7061 65.1017 50.6746C65.0456 50.6432 64.9968 50.6002 64.9585 50.5486C64.9201 50.4969 64.8932 50.4377 64.8793 50.3749C64.8655 50.3121 64.8651 50.2471 64.8781 50.1841C64.9461 49.8225 65.3366 49.6879 65.7292 49.6555C65.7809 49.6522 65.8174 49.6522 65.8274 49.6003C65.8442 49.5182 65.7251 49.5296 65.6698 49.5296L65.1217 49.5276Z" fill="#50565B"/>
<path fill-rule="evenodd" clip-rule="evenodd" d="M64.7574 51.2099C64.6619 51.1947 64.6328 51.1829 64.5851 51.2536C64.4591 51.4037 64.3536 51.5699 64.2715 51.7478C64.1375 52.1632 64.3752 52.5611 64.8652 52.7219C65.3391 52.8754 65.5694 52.7178 65.8542 52.4365C66.2124 52.0843 66.3173 51.9255 66.5685 52.0083C66.6203 52.0176 66.6695 52.0379 66.7127 52.068C66.7559 52.0982 66.792 52.1373 66.8186 52.1828C66.8452 52.2282 66.8615 52.2789 66.8666 52.3313C66.8716 52.3837 66.8652 52.4366 66.8478 52.4863C66.6701 53.0322 65.9598 52.8519 65.9349 52.9254C65.9134 52.9953 65.9538 53.0189 66.0378 53.0398L66.5507 53.1683C66.639 53.1892 66.6928 53.2154 66.7076 53.1697C66.7211 53.1279 66.6867 53.0304 66.7002 52.988C66.7305 52.8937 66.9203 52.8076 67.0045 52.547C67.1256 52.1775 66.8941 51.822 66.4625 51.6819C66.0701 51.554 65.864 51.6934 65.6345 51.9216C65.2016 52.3431 65.0885 52.5261 64.7708 52.4232C64.7079 52.4096 64.6487 52.383 64.5968 52.345C64.545 52.307 64.5018 52.2584 64.47 52.2026C64.4383 52.1467 64.4187 52.0848 64.4125 52.0208C64.4063 51.9568 64.4137 51.8923 64.4342 51.8314C64.5487 51.4813 64.9526 51.3952 65.345 51.4106C65.3968 51.412 65.4333 51.418 65.4487 51.3663C65.4749 51.2881 65.3579 51.2842 65.3013 51.2768L64.7574 51.2099Z" fill="#50565B"/>
<path fill-rule="evenodd" clip-rule="evenodd" d="M65.9843 54.0391C66.3351 54.165 66.1163 54.3528 66.2435 54.3986C66.2872 54.4138 66.3007 54.4027 66.3343 54.3064C66.397 54.1287 66.4238 54.0123 66.4663 53.8992C66.504 53.7902 66.564 53.6736 66.6097 53.551C66.6191 53.522 66.6595 53.4494 66.5962 53.4264C66.4663 53.3785 66.4413 53.769 66.1048 53.6465L64.3324 53.0009C63.9796 52.873 64.158 52.6839 64.0296 52.6361C64.01 52.63 63.9811 52.6259 63.9717 52.655C63.9434 52.7351 63.9084 52.8751 63.8592 53.0111C63.7711 53.2541 63.7139 53.3652 63.6708 53.4796C63.6438 53.5523 63.6506 53.5873 63.6909 53.6008C63.8094 53.6445 63.7666 53.2312 64.2208 53.3974L65.9843 54.0391Z" fill="#50565B"/>
<path fill-rule="evenodd" clip-rule="evenodd" d="M65.7356 55.5319C65.5975 55.9378 65.0293 56.1634 64.212 55.8671C63.5995 55.6429 63.1674 55.2868 63.3524 54.7448C63.5463 54.182 64.3898 54.2649 64.9285 54.462C65.4644 54.6573 65.9181 54.9999 65.7357 55.5318M64.859 54.001C64.1089 53.7285 63.4553 53.968 63.2257 54.5975C62.8641 55.5952 63.6989 56.1155 64.2154 56.3034C65.0004 56.5882 65.6453 56.2954 65.8621 55.6827C66.1262 54.9328 65.6662 54.2953 64.859 54.001Z" fill="#50565B"/>
<path d="M65.4018 57.881L61.8708 55.7375C65.2536 48.1572 64.979 42.0235 61.032 37.0046L65.0289 34.4471C67.337 37.8444 68.6185 41.8343 68.7203 45.9403C68.8539 50.1653 67.6962 54.3307 65.4018 57.881ZM63.0807 58.1927C62.895 58.4984 62.6169 58.8996 62.4344 59.1582L60.5722 58.0205L60.3622 57.8919L60.3562 57.8812L60.3501 57.8845L60.3447 57.8812L60.3406 57.8892L59.0688 58.5933C59.4313 58.0626 59.7492 57.5029 60.0195 56.9198C60.3692 56.1876 60.6601 55.4287 60.8893 54.6503L61.2104 55.9221L61.2407 55.9147L61.2305 55.9369L61.421 56.0527L63.5174 57.3245C63.3866 57.6207 63.2407 57.9101 63.0804 58.1915M63.3187 60.2866C63.0232 60.9093 62.0511 62.55 60.6784 62.9619C59.7397 63.2434 59.6791 63.2345 58.9373 63.1188L58.4412 63.0454C58.354 63.0126 58.2653 62.9843 58.1753 62.9606C57.9292 62.8905 57.6879 62.8045 57.453 62.7032C57.3944 62.679 57.3924 62.6547 57.3891 62.6345C57.3689 62.487 57.5459 62.1794 57.8657 61.9391L57.8772 61.9303L57.8893 61.9188L58.1997 61.6219C58.5878 61.2647 58.9437 60.874 59.2634 60.4545C59.7484 59.8754 60.1744 59.2493 60.5351 58.5856L63.3187 60.2866ZM58.9462 59.233L59.8826 58.716C59.6997 59.025 59.4999 59.3237 59.2841 59.6107L58.9462 59.233ZM61.8546 54.4956C61.757 54.7339 61.6555 54.974 61.5503 55.216L61.3356 54.365L61.8546 54.4956ZM61.1572 43.4271L60.4484 40.7342L61.5914 42.1559L61.6783 42.2643L61.8164 42.2481L63.144 42.0913C63.1864 42.2354 63.2255 42.3801 63.2626 42.5255L61.1572 43.4271ZM61.1592 38.0137C61.9386 39.116 62.5549 40.325 62.989 41.6033L61.9833 41.7225L61.1592 38.0137ZM60.9734 39.4974L61.308 41.002L60.3568 39.8185L60.9734 39.4974ZM69.223 45.9274C69.1105 41.6162 67.719 37.3654 65.3055 33.9583L65.1002 34.1037L64.9656 33.8917L60.5277 36.7306L60.2908 36.882L60.4308 37.0537L60.8609 38.9885L59.8525 39.513L59.6499 39.619L59.6358 39.6223V39.6256L59.58 39.6545L59.6743 39.7723L60.7454 43.8372L60.8195 44.1193L61.0874 44.0042L63.3797 43.0219C64.0913 46.2721 63.645 49.9196 62.042 54.0243L61.0497 53.7753L60.6425 53.6729L60.6466 53.6918L60.6345 53.6885C60.3796 54.7288 60.0203 55.7406 59.562 56.7086C59.2586 57.3552 58.8989 57.9738 58.487 58.5573L58.1464 59.073L58.17 59.0881L58.1505 59.0996L58.3612 59.3338L58.9704 60.0151C58.9382 60.0562 58.9052 60.0972 58.8708 60.1397C58.565 60.5422 58.2239 60.9167 57.8516 61.2586L57.5446 61.5527C57.0996 61.8947 56.8418 62.343 56.8889 62.7012C56.9024 62.8065 56.9447 62.906 57.0113 62.9887C57.0778 63.0714 57.1659 63.1341 57.2659 63.1698C57.5183 63.2793 57.7778 63.3717 58.0427 63.4466C58.1268 63.4681 58.2095 63.4948 58.2904 63.5266L58.3166 63.5354C58.3185 63.5354 58.3449 63.5401 58.3449 63.5401L58.8596 63.6169C59.6708 63.7421 59.8134 63.7462 60.8226 63.4438C62.7265 62.8723 63.8541 60.3948 63.8832 60.23L63.6359 60.1868L63.7672 59.9721L62.8644 59.4207C63.0509 59.1569 63.3215 58.7637 63.51 58.4527C63.6716 58.1721 63.8185 57.8834 63.9502 57.5876L65.3505 58.4379L65.5566 58.5631L65.6905 58.3625C68.1287 54.6839 69.3631 50.3384 69.223 45.9274ZM34.9524 63.2936C34.5875 63.5964 34.2724 63.8578 33.7581 64.0294C32.0819 64.5896 30.106 61.2484 29.3628 59.9907L29.3426 59.9564L32.4614 57.9266C32.9526 58.8041 33.5112 59.6421 34.1324 60.433C34.5536 60.9237 34.9326 61.4491 35.2653 62.0036C35.4165 62.2481 35.534 62.5119 35.6147 62.7878C35.3845 62.9437 35.1633 63.1125 34.9522 63.2933M29.8911 57.3254L31.9868 56.0536L32.1773 55.9378L32.1671 55.9156L32.1974 55.923L32.5185 54.6512C32.7475 55.4297 33.0383 56.1886 33.3883 56.9207C33.6017 57.3858 33.8485 57.8347 34.127 58.2641L32.6944 57.2732L32.685 57.2859L32.644 57.2078L32.4145 57.3572L30.5744 58.5549C30.4868 58.4396 30.4052 58.3198 30.33 58.1961C30.1685 57.9228 29.9712 57.5007 29.891 57.3255M28.0061 57.881C25.7118 54.3306 24.5541 50.1653 24.6871 45.9403C24.7893 41.8344 26.0706 37.8446 28.3784 34.4471L32.3753 37.0046C28.4288 42.0241 28.1542 48.157 31.537 55.7375L28.0061 57.881ZM33.051 39.8186L32.1003 41.0021L32.4343 39.4981L33.051 39.8186ZM30.4194 41.6051C30.8531 40.3266 31.4691 39.1174 32.2486 38.015L31.4247 41.7232L30.4194 41.6051ZM32.2501 43.4271L30.1456 42.5256C30.1833 42.3803 30.2213 42.2354 30.2648 42.0914L31.591 42.2483L31.7297 42.2645L31.8166 42.1561L32.9577 40.7369L32.2501 43.4271ZM32.0723 54.3654L31.8577 55.217C31.7526 54.9748 31.6502 54.7344 31.5533 54.4961L32.0723 54.3654ZM34.0956 59.5546C33.8089 59.1573 33.5106 58.7067 33.2407 58.2627L34.4821 59.1217L34.0956 59.5546ZM36.091 62.6272C35.9983 62.3152 35.8647 62.0168 35.6938 61.7399C35.3496 61.1673 34.9579 60.6246 34.523 60.1175C34.4833 60.069 34.4435 60.0179 34.4019 59.9661L35.0461 59.2451L35.1121 59.1711L35.2602 59.0748L35.234 59.0344L35.2353 59.033L35.2312 59.0297L34.9041 58.5355C34.4982 57.9592 34.1436 57.3486 33.8443 56.7104C33.3857 55.7423 33.0263 54.7303 32.7718 53.6897L32.7603 53.6931L32.7644 53.6749L32.3564 53.7765L31.3655 54.0249C29.7632 49.9202 29.3161 46.2733 30.0277 43.0231L32.32 44.0046L32.588 44.1197L32.662 43.8377L33.7304 39.7755L33.8281 39.6544L33.7703 39.6241V39.6221L33.7595 39.6194L33.5542 39.5134L32.5464 38.9897L32.9765 37.0543L33.1165 36.8826L32.8788 36.7312L28.4429 33.8922L28.3066 34.1041L28.1019 33.9588C25.6877 37.3652 24.2962 41.6166 24.1837 45.9279C24.0442 50.339 25.279 54.6844 27.7172 58.3631L27.8518 58.5637L28.0571 58.4385L29.4574 57.5882C29.5529 57.7935 29.7361 58.1806 29.8964 58.4512C29.9749 58.5816 30.0601 58.708 30.1515 58.8297L28.8657 59.6665L29.002 59.8772L28.7859 60.0065L28.9287 60.2468C29.8045 61.7271 31.8552 65.1949 33.9165 64.5068C34.4194 64.3251 34.8805 64.0439 35.2724 63.6802C35.5139 63.4695 35.7721 63.2788 36.0446 63.11L36.2182 63.0057C36.2182 63.0043 36.153 62.8117 36.153 62.8117L36.091 62.6272Z" fill="#50565B"/>
<path fill-rule="evenodd" clip-rule="evenodd" d="M48.2328 32.9806C48.2429 32.4413 47.6054 32.1328 46.7975 32.1176C45.9896 32.1025 45.3138 32.3889 45.305 32.9288C45.2962 33.4687 45.9082 33.7724 46.7194 33.7865C47.5266 33.8 48.2253 33.5185 48.2334 32.98" fill="#50565B"/>
<path fill-rule="evenodd" clip-rule="evenodd" d="M38.7911 33.6916C38.7069 33.1597 39.2941 32.7652 40.0931 32.6393C40.8922 32.5135 41.5998 32.702 41.6839 33.2345C41.7679 33.767 41.2032 34.1535 40.4034 34.2806C39.6035 34.4078 38.8753 34.2243 38.7911 33.6916Z" fill="#50565B"/>
<path fill-rule="evenodd" clip-rule="evenodd" d="M29.4562 54.2707C29.8561 54.0754 29.8602 54.4949 29.9922 54.4316C30.0642 54.3953 30.0359 54.3455 30.009 54.2916C29.9511 54.1705 29.8912 54.0775 29.7908 53.8769C29.6912 53.6737 29.6568 53.5678 29.5996 53.4466C29.5552 53.3585 29.5363 53.2939 29.4562 53.3341C29.3619 53.3796 29.6474 53.7166 29.2361 53.9178L27.722 54.6578C27.561 54.7365 27.5301 54.7137 27.4688 54.5912L27.3442 54.3347C27.1612 53.9935 27.5798 53.9093 27.5226 53.7897C27.4843 53.711 27.369 53.8086 27.3307 53.8335L27.0399 54.0173C27.0077 54.0362 26.9618 54.059 26.9827 54.1048C27.12 54.3841 27.2311 54.58 27.4458 55.0203C27.6605 55.4605 27.746 55.6693 27.882 55.9506C27.9048 55.9944 27.9513 55.9715 27.9871 55.958L28.4529 55.7915C28.4983 55.7763 28.5808 55.7592 28.5498 55.6946C28.4852 55.56 28.0892 55.8629 27.9224 55.5223L27.7999 55.2692C27.7394 55.1467 27.7421 55.109 27.9029 55.0295L29.4562 54.2707Z" fill="#50565B"/>
<path fill-rule="evenodd" clip-rule="evenodd" d="M26.8282 52.4811C26.5819 52.5505 26.5737 52.5384 26.4606 52.1481C26.2822 51.5273 26.775 51.6572 26.7299 51.5064C26.709 51.4317 26.5967 51.4815 26.5508 51.499L26.2 51.6138C26.1824 51.6185 26.1672 51.6299 26.1579 51.6457C26.1486 51.6614 26.1458 51.6802 26.1502 51.698C26.2311 51.9814 26.309 52.1995 26.3744 52.4277C26.5165 52.9211 26.5676 53.1588 26.6061 53.2907C26.6078 53.2997 26.6113 53.3084 26.6164 53.316C26.6215 53.3237 26.6282 53.3302 26.636 53.3352C26.6437 53.3402 26.6524 53.3435 26.6615 53.345C26.6706 53.3465 26.68 53.3461 26.6889 53.3438C26.8323 53.302 26.6121 52.9709 26.9352 52.8793L28.6095 52.3986C29.0486 52.2721 28.924 52.573 29.0902 52.5266C29.1117 52.5191 29.1232 52.4963 29.1117 52.4539C29.0599 52.2761 29.0057 52.1443 28.9797 52.0451C28.9319 51.8842 28.8914 51.6869 28.7494 51.1973C28.6746 50.9326 28.3273 50.8256 28.0472 50.9058C27.9785 50.9248 27.9746 50.9523 27.9785 50.965C28.0148 51.0875 28.4699 50.9078 28.6995 51.7069C28.7655 51.9385 28.6329 51.9628 28.4118 52.026L27.954 52.1587C27.7454 52.2173 27.7049 52.2428 27.6625 52.0954L27.5946 51.8557C27.4983 51.5211 27.9042 51.5016 27.8753 51.3986C27.8524 51.3219 27.7299 51.3791 27.684 51.3946L27.0526 51.6012C26.9563 51.6315 26.9738 51.6645 26.9819 51.6874C26.9987 51.7506 27.3313 51.6665 27.41 51.9438L27.4692 52.1472C27.5102 52.2864 27.4833 52.2925 27.3299 52.3364L26.8282 52.4811Z" fill="#50565B"/>
<path fill-rule="evenodd" clip-rule="evenodd" d="M26.7609 50.6929C27.1803 50.6255 27.4537 50.3105 27.3943 49.9329C27.3404 49.5923 27.0058 49.3606 26.9144 49.3741C26.874 49.3801 26.872 49.401 26.874 49.4145C26.8841 49.4677 27.1035 49.5983 27.1345 49.793C27.1837 50.1047 26.814 50.3436 26.4607 50.3986C26.2325 50.4357 25.9591 50.4201 25.9187 50.1656C25.8897 49.9873 26.0069 49.9111 26.1772 49.8418C26.2022 49.8324 26.2311 49.8209 26.2251 49.7926C26.2149 49.7347 26.0283 49.5705 25.9626 49.5818C25.7485 49.6162 25.7355 49.93 25.7526 50.043C25.8225 50.4887 26.2673 50.768 26.761 50.692" fill="#50565B"/>
<path fill-rule="evenodd" clip-rule="evenodd" d="M25.9588 46.4352C25.5931 46.4352 25.7521 46.193 25.6106 46.193C25.5789 46.193 25.5668 46.2065 25.5668 46.2637C25.5668 46.4084 25.5819 46.5317 25.5819 46.7073C25.5819 46.9147 25.5668 47.0014 25.5668 47.1395C25.5668 47.1866 25.5594 47.2176 25.6274 47.2176C25.7364 47.2176 25.6024 46.8481 26.0118 46.8481H26.5354C26.6183 46.8481 26.7044 46.8676 26.7044 46.9645V47.9622C26.7044 48.0316 26.6566 48.045 26.5556 48.045H25.9629C25.6298 48.045 25.7394 47.7864 25.6222 47.7864C25.5851 47.7864 25.5663 47.8167 25.5663 47.8646C25.5663 47.9622 25.5815 48.0954 25.5815 48.2968C25.5815 48.4712 25.5663 48.5714 25.5663 48.6718C25.5663 48.7351 25.5704 48.8367 25.6269 48.8367C25.7683 48.8367 25.606 48.457 26.0113 48.457H27.6721C28.1327 48.457 27.9993 48.7424 28.1487 48.7424C28.1985 48.7424 28.204 48.708 28.204 48.6676C28.204 48.501 28.1905 48.3599 28.1905 48.2193C28.1905 47.9783 28.204 47.8665 28.204 47.7298C28.204 47.6228 28.1757 47.6282 28.1528 47.6282C28.0188 47.6282 28.1528 48.045 27.6911 48.045H27.1053C26.943 48.045 26.9047 48.0343 26.9047 47.8802V46.9854C26.9047 46.8379 26.9451 46.8481 27.1015 46.8481H27.7727C28.1322 46.8481 28.0332 47.0924 28.1631 47.0924C28.1901 47.0924 28.2035 47.0715 28.2035 47.0258C28.2035 46.8549 28.1901 46.723 28.1901 46.603C28.1901 46.4649 28.2035 46.2678 28.2035 46.1566C28.2035 46.1129 28.2076 46.0859 28.1598 46.0859C28.0144 46.0859 28.1524 46.4354 27.6799 46.4354L25.9588 46.4352Z" fill="#50565B"/>
<path fill-rule="evenodd" clip-rule="evenodd" d="M27.7393 45.447C28.1178 45.4853 28.0186 45.7998 28.1682 45.8146C28.2309 45.8213 28.218 45.7527 28.2213 45.7156C28.2307 45.6248 28.2254 45.5332 28.2365 45.4261C28.248 45.309 28.2748 45.1972 28.2896 45.0325C28.2937 44.9888 28.3078 44.9059 28.256 44.8999C28.0796 44.8831 28.2896 45.3361 27.5761 45.2642L26.3131 45.1382C26.2781 45.1355 26.2539 45.1255 26.2559 45.1052C26.2572 45.0884 26.2781 45.0702 26.309 45.0499L28.4047 43.6348C28.435 43.6139 28.4599 43.6004 28.4639 43.5526C28.468 43.5122 28.4389 43.5102 28.3568 43.5014L26.273 43.2926C25.8825 43.2543 25.999 42.979 25.8886 42.9674C25.8765 42.9661 25.8408 42.9628 25.8327 43.0266C25.8308 43.0569 25.8327 43.1747 25.8118 43.3855C25.789 43.6157 25.7634 43.712 25.7601 43.7652C25.7546 43.8095 25.7903 43.8224 25.8179 43.8244C25.939 43.8378 25.9128 43.4224 26.2521 43.4575L27.4901 43.5808C27.5823 43.5895 27.6263 43.6009 27.6241 43.6218C27.6218 43.6427 27.5749 43.677 27.517 43.7154L25.7445 44.8956C25.6677 44.9488 25.6455 44.9064 25.6333 45.0134C25.6165 45.1904 25.6218 45.2793 25.6144 45.3656C25.607 45.4302 25.5875 45.4888 25.5794 45.5514C25.5786 45.5594 25.5794 45.5676 25.5819 45.5753C25.5844 45.583 25.5886 45.5901 25.594 45.5961C25.5995 45.6021 25.6062 45.6068 25.6137 45.61C25.6211 45.6132 25.6292 45.6148 25.6373 45.6146C25.8156 45.6336 25.6123 45.2336 26.326 45.305L27.7393 45.447Z" fill="#50565B"/>
<path fill-rule="evenodd" clip-rule="evenodd" d="M26.5256 41.6298C26.1789 41.555 26.3633 41.337 26.238 41.3119C26.1942 41.3031 26.1827 41.3173 26.1623 41.4162C26.124 41.6027 26.1124 41.7246 26.0875 41.8416C26.0625 41.9561 26.0201 42.0819 25.9939 42.2092C25.9878 42.2395 25.9589 42.3196 26.0222 42.3317C26.1482 42.3593 26.1259 41.9674 26.4564 42.0368L28.206 42.4091C28.5527 42.4825 28.4093 42.6985 28.5351 42.7247C28.5546 42.7288 28.5816 42.7288 28.5877 42.6985C28.6045 42.6144 28.6193 42.4696 28.6496 42.329C28.7054 42.0725 28.7459 41.9534 28.7707 41.8328C28.7875 41.7571 28.7787 41.7252 28.7384 41.7164C28.6213 41.6914 28.7115 42.0942 28.2632 41.9998L26.5256 41.6298Z" fill="#50565B"/>
<path fill-rule="evenodd" clip-rule="evenodd" d="M27.3006 38.5434C27.2838 38.5367 27.2723 38.5575 27.2662 38.5737C27.2486 38.618 27.3617 38.6645 27.3389 38.7251C27.3025 38.8194 26.9982 38.9788 26.8529 39.3579C26.5501 40.1462 27.1955 40.7642 27.7813 40.9885C28.0545 41.0935 28.9985 41.2941 29.3505 40.3779C29.607 39.7107 29.2091 39.1776 29.0718 39.1237C29.0606 39.1219 29.0491 39.1237 29.0391 39.1289C29.029 39.1341 29.0209 39.1424 29.0159 39.1526C28.9829 39.2341 29.3585 39.622 29.1722 40.1079C28.9426 40.7051 28.1578 40.6916 27.6662 40.5031C27.2017 40.3247 26.8105 39.8837 26.989 39.4239C27.1263 39.0606 27.5363 38.9008 27.9308 38.8719C27.9847 38.8672 28.0648 38.8739 28.0836 38.8235C28.1024 38.7731 28.0203 38.7528 27.9846 38.742L27.3006 38.5434Z" fill="#50565B"/>
<path fill-rule="evenodd" clip-rule="evenodd" d="M34.4746 73.867C34.4747 73.97 34.4546 74.072 34.4154 74.1672C34.379 74.2379 34.2894 74.1823 34.1669 74.1218L33.248 73.6532C33.1255 73.5913 33.0278 73.5495 33.0636 73.4788C33.1171 73.3899 33.1884 73.313 33.2729 73.2528L34.4348 72.2593C34.5082 72.1987 34.5385 72.2034 34.5519 72.2115C34.5863 72.2283 34.5654 72.2189 34.5769 72.2956L34.4746 73.867ZM35.5329 71.3041C35.5543 71.0477 35.5491 71.0248 35.4874 70.9938C35.3999 70.95 35.2962 71.0664 35.1905 71.1567L31.1671 74.5294C30.7942 74.8411 30.4724 74.6202 30.3882 74.7852C30.3398 74.8774 30.4569 74.9198 30.5511 74.9669C30.7479 75.0673 30.9584 75.1378 31.1617 75.2415C31.3758 75.3519 31.5656 75.4838 31.7824 75.5929C31.9238 75.6664 32.1076 75.8224 32.1844 75.6738C32.2813 75.4819 31.4929 75.2241 31.7555 74.711C31.8752 74.5285 32.0195 74.3633 32.1844 74.2202C32.5789 73.8325 32.7358 73.8741 32.8505 73.9341L34.1809 74.6113C34.3572 74.7007 34.3553 74.7896 34.294 75.4591C34.2896 75.6446 34.2484 75.8275 34.1728 75.997C33.9533 76.432 33.5124 76.1081 33.4074 76.3149C33.3556 76.414 33.4511 76.4448 33.5739 76.5054C33.7692 76.607 34.0337 76.7054 34.332 76.8562C34.7756 77.0833 34.9445 77.2044 35.1877 77.3295C35.3715 77.4224 35.4246 77.4687 35.4865 77.3463C35.6051 77.1121 35.1002 77.2049 35.1392 76.5882L35.5329 71.3041Z" fill="#50565B"/>
<path fill-rule="evenodd" clip-rule="evenodd" d="M64.0495 71.1086L63.2362 71.7444C63.1285 71.8286 63.0504 71.902 63.0006 71.838C62.9443 71.7513 62.9052 71.6547 62.8855 71.5532L62.474 70.0792C62.4512 69.987 62.4699 69.962 62.4814 69.9526C62.5117 69.9298 62.4929 69.9446 62.5703 69.9661L63.948 70.7222C64.0425 70.7653 64.1272 70.8271 64.1971 70.9039C64.2469 70.9672 64.1565 71.025 64.0495 71.1086ZM67.5318 71.2775C67.3695 71.0709 67.239 71.5684 66.6977 71.2695L62.0734 68.6823C61.85 68.5516 61.8271 68.5496 61.7732 68.5914C61.6975 68.6506 61.7605 68.794 61.7961 68.928L63.152 74.0007C63.2758 74.4693 62.9426 74.6705 63.0557 74.814C63.119 74.8961 63.2051 74.808 63.2893 74.7427C63.4616 74.6095 63.6145 74.4486 63.7948 74.3065C63.986 74.1577 64.1853 74.0427 64.3765 73.8938C64.5031 73.7956 64.7212 73.6946 64.6187 73.5626C64.4861 73.3942 63.9199 73.9968 63.5651 73.545C63.4505 73.3599 63.3626 73.1596 63.304 72.9499C63.1155 72.4268 63.2212 72.3022 63.3229 72.2241L64.5011 71.3039C64.656 71.1827 64.7347 71.223 65.315 71.5597C65.4809 71.6434 65.6294 71.7579 65.7525 71.897C66.0535 72.2795 65.5756 72.544 65.7168 72.7258C65.7855 72.8133 65.8531 72.7393 65.9619 72.6551C66.1342 72.5211 66.3362 72.322 66.5989 72.1172C66.9939 71.8094 67.1755 71.7076 67.3899 71.5414C67.5501 71.4154 67.6155 71.3846 67.5313 71.2775" fill="#50565B"/>
<path fill-rule="evenodd" clip-rule="evenodd" d="M39.7368 27.7173C39.5275 27.7616 39.3093 27.7212 39.1299 27.6048C38.9504 27.4884 38.8244 27.3057 38.7795 27.0966C38.7574 26.9929 38.7559 26.8858 38.7752 26.7816C38.7945 26.6773 38.8342 26.5779 38.892 26.489C38.9498 26.4 39.0245 26.3234 39.112 26.2634C39.1994 26.2034 39.2978 26.1612 39.4016 26.1393C39.6108 26.0949 39.8292 26.1353 40.0086 26.2517C40.1881 26.368 40.3141 26.5509 40.3589 26.7601C40.4031 26.9694 40.3625 27.1878 40.2458 27.3672C40.1292 27.5466 39.9461 27.6723 39.7368 27.7167M41.7369 26.7749L41.5779 26.0343C41.5629 25.9622 41.5337 25.8938 41.4921 25.833C41.4505 25.7723 41.3973 25.7204 41.3355 25.6803C41.2737 25.6402 41.2046 25.6128 41.1322 25.5996C41.0597 25.5864 40.9854 25.5877 40.9134 25.6034L40.2726 25.7427L40.1292 25.0668C40.0982 24.9216 40.0108 24.7946 39.8862 24.7138C39.7615 24.633 39.61 24.605 39.4647 24.6359L38.7336 24.7916C38.6615 24.8067 38.5931 24.8359 38.5323 24.8775C38.4716 24.9191 38.4196 24.9723 38.3794 25.034C38.3392 25.0958 38.3115 25.1648 38.298 25.2372C38.2845 25.3096 38.2855 25.384 38.3008 25.4561L38.4388 26.1293L37.8054 26.2639C37.7335 26.2792 37.6653 26.3084 37.6047 26.35C37.5441 26.3917 37.4924 26.4448 37.4523 26.5065C37.4123 26.5681 37.3848 26.637 37.3715 26.7093C37.3581 26.7816 37.3592 26.8558 37.3745 26.9277L37.5321 27.6695C37.5474 27.7414 37.5766 27.8095 37.6183 27.8701C37.6599 27.9306 37.7131 27.9823 37.7747 28.0223C37.8364 28.0622 37.9053 28.0896 37.9776 28.1029C38.0498 28.1162 38.124 28.1151 38.1958 28.0996L41.304 27.4398C41.4493 27.4086 41.5764 27.3211 41.6575 27.1966C41.7386 27.072 41.7671 26.9204 41.7369 26.7749Z" fill="#50565B"/>
<path fill-rule="evenodd" clip-rule="evenodd" d="M46.6824 26.64C46.4683 26.6401 46.2629 26.5553 46.1113 26.4041C45.9597 26.2528 45.8743 26.0476 45.874 25.8335C45.8743 25.6194 45.9597 25.4141 46.1113 25.2629C46.2629 25.1117 46.4683 25.0268 46.6824 25.027C46.7883 25.027 46.8932 25.0478 46.991 25.0883C47.0889 25.1288 47.1778 25.1883 47.2526 25.2632C47.3275 25.3381 47.3868 25.427 47.4272 25.5249C47.4677 25.6227 47.4885 25.7276 47.4883 25.8335C47.4885 25.9394 47.4677 26.0443 47.4272 26.1421C47.3868 26.24 47.3275 26.3289 47.2526 26.4038C47.1778 26.4787 47.0889 26.5381 46.991 26.5787C46.8932 26.6192 46.7883 26.64 46.6824 26.64ZM48.2692 24.8162H47.621L47.6169 24.1295C47.6169 23.9812 47.558 23.8389 47.4533 23.7339C47.3485 23.6289 47.2064 23.5697 47.0581 23.5693H46.3068C46.1583 23.5693 46.0158 23.6284 45.9107 23.7334C45.8057 23.8385 45.7467 23.9809 45.7467 24.1295V24.8202L45.091 24.8169C45.0173 24.8167 44.9443 24.831 44.8762 24.8591C44.808 24.8872 44.7461 24.9284 44.694 24.9804C44.6418 25.0325 44.6004 25.0943 44.5722 25.1623C44.544 25.2304 44.5294 25.3033 44.5294 25.377V26.134C44.5294 26.2077 44.544 26.2806 44.5722 26.3487C44.6004 26.4168 44.6418 26.4786 44.694 26.5306C44.7461 26.5826 44.808 26.6239 44.8762 26.6519C44.9443 26.68 45.0173 26.6944 45.091 26.6942H48.2692C48.4178 26.6942 48.5603 26.6352 48.6654 26.5301C48.7704 26.4251 48.8294 26.2826 48.8294 26.134V25.377C48.8294 25.2285 48.7704 25.086 48.6654 24.9809C48.5603 24.8759 48.4178 24.8169 48.2692 24.8169" fill="#50565B"/>
<path fill-rule="evenodd" clip-rule="evenodd" d="M54.6283 27.0963C54.5836 27.3055 54.4577 27.4884 54.2782 27.6048C54.0986 27.7212 53.8803 27.7616 53.671 27.717C53.4617 27.6725 53.2786 27.5468 53.162 27.3674C53.0453 27.188 53.0047 26.9697 53.0489 26.7603C53.0935 26.5512 53.2193 26.3683 53.3987 26.2519C53.5781 26.1355 53.7964 26.0951 54.0056 26.1396C54.1093 26.1614 54.2078 26.2035 54.2952 26.2634C54.3827 26.3233 54.4575 26.3999 54.5154 26.4888C54.5732 26.5777 54.6129 26.677 54.6323 26.7813C54.6517 26.8855 54.6503 26.9926 54.6283 27.0963ZM55.6024 26.2636L54.9689 26.129L55.107 25.4557C55.1225 25.3838 55.1236 25.3096 55.1103 25.2373C55.097 25.165 55.0695 25.096 55.0295 25.0343C54.9895 24.9727 54.9376 24.9195 54.877 24.8779C54.8163 24.8363 54.7481 24.8071 54.6761 24.792L53.9423 24.6358C53.7971 24.6051 53.6456 24.6333 53.5212 24.7142C53.3967 24.7951 53.3095 24.9221 53.2786 25.0672L53.1352 25.7431L52.4936 25.603C52.4217 25.5877 52.3475 25.5866 52.2752 25.5999C52.2029 25.6133 52.134 25.6407 52.0723 25.6808C52.0107 25.7208 51.9575 25.7726 51.9159 25.8332C51.8743 25.8938 51.845 25.962 51.8298 26.0339L51.671 26.7744C51.6409 26.9199 51.6694 27.0714 51.7505 27.1959C51.8316 27.3203 51.9586 27.4077 52.1039 27.4389L55.2121 28.0993C55.3573 28.1302 55.5089 28.1022 55.6335 28.0214C55.7581 27.9406 55.8455 27.8136 55.8766 27.6684L56.033 26.9279C56.0484 26.856 56.0496 26.7817 56.0363 26.7093C56.023 26.637 55.9955 26.5679 55.9555 26.5062C55.9155 26.4445 55.8636 26.3913 55.803 26.3496C55.7423 26.3079 55.6741 26.2787 55.6021 26.2634" fill="#50565B"/>
<path fill-rule="evenodd" clip-rule="evenodd" d="M59.6604 30.3747C59.4772 30.2644 59.3453 30.0859 59.2937 29.8784C59.2421 29.6709 59.2749 29.4513 59.385 29.268C59.4394 29.1772 59.5111 29.098 59.5961 29.035C59.6811 28.972 59.7778 28.9264 59.8804 28.9008C59.9831 28.8752 60.0898 28.8702 60.1945 28.8859C60.2991 28.9017 60.3996 28.9379 60.4902 28.9926L59.6604 30.3747ZM60.9564 27.6529C60.8933 27.6149 60.8234 27.5896 60.7505 27.5786C60.6777 27.5677 60.6034 27.5712 60.5319 27.5889C60.4605 27.6067 60.3932 27.6384 60.334 27.6822C60.2747 27.7259 60.2247 27.781 60.1868 27.8441L59.8327 28.4359L59.27 28.0947C59.1427 28.0183 58.9903 27.9955 58.8463 28.0314C58.7023 28.0672 58.5783 28.1588 58.5018 28.2859L58.1115 28.9346C58.0352 29.0623 58.0125 29.2148 58.0483 29.3591C58.0842 29.5034 58.1756 29.6277 58.3027 29.7048L59.5225 30.4816C59.5855 30.5196 59.6554 30.5448 59.7282 30.5557C59.801 30.5667 59.8752 30.5632 59.9466 30.5455C60.0181 30.5277 60.0853 30.4961 60.1445 30.4523C60.2037 30.4086 60.2537 30.3536 60.2916 30.2906L60.683 29.6417C60.8412 29.3764 60.9623 29.1362 60.9623 29.1362L61.5972 28.0369L60.9564 27.6529Z" fill="#50565B"/>
<path fill-rule="evenodd" clip-rule="evenodd" d="M33.7477 30.3749L32.917 28.9928C33.0076 28.938 33.1082 28.9017 33.2129 28.8859C33.3176 28.8702 33.4244 28.8752 33.5272 28.9008C33.63 28.9264 33.7267 28.972 33.8118 29.035C33.8969 29.0981 33.9687 29.1773 34.0231 29.2682C34.1332 29.4515 34.166 29.671 34.1144 29.8785C34.0627 30.086 33.9309 30.2646 33.7477 30.3749ZM35.2962 28.9348L34.9063 28.2857C34.8297 28.1587 34.7058 28.0672 34.5618 28.0314C34.4178 27.9955 34.2655 28.0183 34.1383 28.0947L33.5781 28.4359L33.222 27.8441C33.1841 27.781 33.1341 27.7259 33.0749 27.6822C33.0157 27.6384 32.9484 27.6067 32.8769 27.5889C32.8054 27.5712 32.7312 27.5677 32.6583 27.5786C32.5855 27.5896 32.5155 27.6149 32.4525 27.6529L31.8109 28.037L32.4478 29.1357C32.4478 29.1357 32.5669 29.376 32.7271 29.6412L33.1176 30.2903C33.1553 30.3534 33.2052 30.4084 33.2643 30.4522C33.3234 30.496 33.3906 30.5277 33.4619 30.5455C33.5333 30.5632 33.6075 30.5667 33.6802 30.5557C33.753 30.5448 33.8228 30.5195 33.8858 30.4815L35.105 29.7046C35.1682 29.6667 35.2233 29.6167 35.2671 29.5574C35.311 29.4982 35.3427 29.4308 35.3605 29.3593C35.3782 29.2877 35.3817 29.2134 35.3707 29.1405C35.3596 29.0676 35.3343 28.9976 35.2962 28.9345" fill="#50565B"/>
<path fill-rule="evenodd" clip-rule="evenodd" d="M24.7358 27.4845C24.6092 27.6293 24.4537 27.807 24.3029 27.6764L23.0857 26.6173C22.7242 26.3036 22.8541 26.1542 23.0089 25.9765C23.4318 25.4891 24.1131 25.6069 24.7028 26.1198C25.0589 26.4294 25.3714 26.7521 24.7358 27.4845ZM28.3821 27.2432C28.3726 27.2331 28.3612 27.2251 28.3485 27.2196C28.3358 27.2141 28.3221 27.2113 28.3083 27.2113C28.2945 27.2113 28.2808 27.2141 28.2682 27.2196C28.2555 27.2251 28.2441 27.2331 28.2346 27.2432C28.1928 27.2911 28.1867 27.3704 28.1438 27.419C28.1172 27.458 28.0791 27.4877 28.0347 27.5037C27.9903 27.5198 27.942 27.5215 27.8967 27.5085C26.8369 27.1954 25.6063 26.8459 25.5694 26.8143C25.5102 26.7618 25.5774 26.5746 25.5606 26.3147C25.5434 26.1327 25.4895 25.9561 25.402 25.7956C25.3145 25.6351 25.1953 25.494 25.0516 25.381C24.7742 25.14 23.8404 24.4964 22.9236 25.5533C22.6421 25.8758 22.3816 26.2252 22.1003 26.5469C21.8356 26.8512 21.7778 26.8687 21.5846 27.0901C21.5717 27.1018 21.5613 27.1161 21.5542 27.1319C21.5471 27.1478 21.5433 27.165 21.5432 27.1824C21.5431 27.1998 21.5466 27.2171 21.5535 27.2331C21.5604 27.2491 21.5705 27.2634 21.5832 27.2753C21.802 27.4632 22.035 26.7442 22.7089 27.3306L25.362 29.6361C26.12 30.2965 25.5821 30.5142 25.7753 30.6822C25.8964 30.7865 25.9645 30.6695 26.0109 30.6162C26.2208 30.3759 26.406 30.1133 26.6316 29.8535C26.808 29.6515 26.9453 29.5425 27.0166 29.4598C27.1115 29.3487 27.1102 29.2774 27.0563 29.2327C26.8381 29.0423 26.6699 29.7357 26.0268 29.1749L24.9833 28.2688C24.7733 28.0863 24.706 28.077 24.9281 27.8217C25.1367 27.5807 25.2667 27.541 25.6283 27.6608L26.9323 28.0847C27.413 28.2382 27.9253 28.4138 28.2565 28.0321C28.4231 27.8403 28.5683 27.4067 28.3811 27.2438" fill="#50565B"/>
<path fill-rule="evenodd" clip-rule="evenodd" d="M38.303 19.3905L37.4776 19.6598C37.3672 19.6942 37.2844 19.7305 37.2594 19.6537C37.2342 19.5549 37.2265 19.4524 37.2365 19.3509L37.2668 17.8544C37.2688 17.7614 37.2918 17.746 37.3032 17.7413C37.3334 17.7319 37.3166 17.7372 37.3719 17.7867L38.3165 18.9979C38.3841 19.0748 38.4376 19.163 38.4747 19.2584C38.4997 19.3341 38.4114 19.354 38.3024 19.3891M41.1205 20.8667C41.0377 20.6163 40.8061 21.0181 40.4372 20.5423L37.2871 16.4296C37.1342 16.2276 37.1182 16.2158 37.0623 16.2337C36.9842 16.2599 36.999 16.4134 36.9984 16.5487L36.8429 21.6787C36.8294 22.1533 36.5056 22.2086 36.5615 22.3836C36.5937 22.4805 36.6861 22.4348 36.7722 22.4072C36.948 22.35 37.1142 22.2631 37.2967 22.2039C37.4898 22.1406 37.683 22.1117 37.8764 22.0484C38.0049 22.0066 38.2094 21.9986 38.1598 21.839C38.0924 21.6343 37.4744 21.9683 37.2988 21.423C37.251 21.212 37.2277 20.9963 37.2294 20.78C37.2066 20.234 37.325 20.162 37.4287 20.129L38.6247 19.7412C38.7835 19.6887 38.8374 19.7553 39.2312 20.2825C39.3477 20.4241 39.4402 20.5837 39.5052 20.7552C39.6566 21.2183 39.1968 21.2755 39.2703 21.4956C39.3039 21.6016 39.3773 21.5609 39.4877 21.5259C39.6635 21.4687 39.8789 21.3657 40.1461 21.2782C40.5467 21.1483 40.7204 21.1255 40.9385 21.0548C41.1034 21.0009 41.1627 20.9989 41.121 20.8696" fill="#50565B"/>
<path fill-rule="evenodd" clip-rule="evenodd" d="M77.1395 45.2541L75.7467 45.9227C75.6572 45.9721 75.5599 46.0058 75.459 46.0223C75.3789 46.0297 75.3789 45.9402 75.3668 45.8255L75.2785 44.9576C75.2678 44.8426 75.2502 44.7537 75.3303 44.7457C75.4328 44.7421 75.5352 44.7557 75.6331 44.7861L77.0939 45.1361C77.1848 45.1598 77.1969 45.184 77.1969 45.1967C77.201 45.229 77.1983 45.2102 77.1391 45.2539M78.7278 45.2822C78.7204 45.1988 78.5655 45.1826 78.4337 45.151L73.4341 43.9035C72.9709 43.7884 72.9864 43.4585 72.8026 43.4767C72.6989 43.4882 72.7238 43.5878 72.7332 43.6773C72.752 43.8624 72.8026 44.0455 72.8213 44.2374C72.8422 44.4414 72.8294 44.6353 72.8503 44.8406C72.8631 44.9746 72.8274 45.1772 72.9936 45.1604C73.2097 45.1389 73.0124 44.4629 73.5874 44.4057C73.8044 44.4041 74.0209 44.4278 74.2324 44.4764C74.7736 44.5699 74.8181 44.7006 74.8289 44.8094L74.9555 46.0669C74.9706 46.2335 74.8949 46.273 74.2929 46.5457C74.1295 46.6308 73.9529 46.6877 73.7705 46.714C73.2845 46.7638 73.3269 46.3007 73.0946 46.3249C72.9821 46.3351 73.0071 46.4179 73.0189 46.5316C73.0378 46.7167 73.0937 46.9496 73.1199 47.231C73.1623 47.6525 73.1488 47.8275 73.1717 48.0577C73.1892 48.23 73.1777 48.2893 73.3137 48.2758C73.5776 48.2489 73.2309 47.9352 73.7789 47.6746L78.4894 45.4624C78.721 45.3548 78.7365 45.3413 78.7284 45.2833" fill="#50565B"/>
<path fill-rule="evenodd" clip-rule="evenodd" d="M66.002 42.0029C65.3813 42.2035 64.8232 42.1895 64.6353 41.6488C64.44 41.0861 65.1557 40.6323 65.7018 40.4546C66.2444 40.2782 66.8112 40.2688 66.9978 40.8007C67.137 41.2066 66.8288 41.7344 66.002 42.0029ZM67.1888 40.8431C66.9363 40.0884 66.1817 39.869 65.3624 40.1348C64.6023 40.3819 64.2367 40.973 64.4441 41.6086C64.7733 42.619 65.7515 42.5141 66.2753 42.3451C67.0677 42.0877 67.3968 41.4585 67.1888 40.8431Z" fill="#50565B"/>
<path fill-rule="evenodd" clip-rule="evenodd" d="M65.4944 39.028C65.2837 39.1263 65.0756 39.2011 64.861 38.7427C64.8192 38.6532 64.7674 38.5407 64.8576 38.4997L65.5766 38.1631C65.7893 38.0635 65.8331 38.1577 65.8856 38.2691C66.0284 38.5734 65.8432 38.8648 65.4946 39.0277M66.0977 38.3215C66.0042 38.1181 65.893 37.9203 65.7989 37.7183C65.708 37.5278 65.7127 37.4974 65.6475 37.3587C65.6452 37.3501 65.6412 37.342 65.6356 37.3351C65.63 37.3281 65.623 37.3225 65.615 37.3185C65.607 37.3145 65.5983 37.3122 65.5894 37.3118C65.5805 37.3115 65.5716 37.313 65.5633 37.3163C65.4348 37.3769 65.7201 37.6435 65.3211 37.8311L63.7527 38.5622C63.3044 38.7716 63.3084 38.4714 63.1939 38.5245C63.1232 38.5589 63.1636 38.6167 63.1788 38.6497C63.2495 38.8011 63.3337 38.9446 63.4097 39.1089C63.4702 39.2349 63.4925 39.323 63.5156 39.3741C63.5473 39.4435 63.5795 39.4576 63.6125 39.4429C63.7411 39.3823 63.4557 39.1526 63.8368 38.9743L64.4534 38.6876C64.58 38.629 64.5948 38.5993 64.6688 38.7596C64.7401 38.9098 64.7321 38.9791 64.6083 39.1218L64.1641 39.638C64.0012 39.8273 63.8221 40.0292 63.9332 40.2662C63.9885 40.3873 64.1603 40.5496 64.2697 40.4978C64.2763 40.4956 64.2824 40.492 64.2875 40.4874C64.2926 40.4827 64.2967 40.4771 64.2996 40.4707C64.3024 40.4644 64.3039 40.4576 64.304 40.4506C64.3041 40.4437 64.3027 40.4368 64.3 40.4304C64.2849 40.4002 64.2502 40.3793 64.2354 40.3496C64.2222 40.3293 64.2158 40.3053 64.2172 40.2811C64.2185 40.2569 64.2275 40.2338 64.2428 40.215C64.5889 39.7882 64.9874 39.2907 65.0083 39.2806C65.0446 39.2638 65.1173 39.3364 65.2399 39.3866C65.3249 39.4185 65.4157 39.432 65.5063 39.4263C65.597 39.4207 65.6854 39.3958 65.7657 39.3536C65.9306 39.2779 66.406 38.9819 66.0976 38.3222" fill="#50565B"/>
<path fill-rule="evenodd" clip-rule="evenodd" d="M67.7797 46.4241C67.7474 46.76 67.4371 46.9175 67.053 46.8783C66.8194 46.8554 66.6012 46.8136 66.6531 46.3073C66.6625 46.2077 66.674 46.0852 66.7742 46.0946L67.5686 46.1734C67.8036 46.1983 67.7948 46.3013 67.7806 46.4238M67.9913 45.4362C67.8499 45.4227 67.9591 45.7996 67.5181 45.7553L65.7876 45.5826C65.2914 45.5328 65.4489 45.2763 65.3223 45.2647C65.2436 45.2566 65.2489 45.3279 65.2456 45.3637C65.228 45.5302 65.228 45.6989 65.2092 45.8784C65.1958 46.0191 65.1709 46.1073 65.1649 46.1626C65.1575 46.2394 65.179 46.2686 65.2147 46.2716C65.3567 46.2867 65.2282 45.9411 65.6475 45.9827L66.3288 46.0515C66.4661 46.065 66.4954 46.0481 66.4777 46.2245C66.4601 46.3911 66.4198 46.4474 66.2386 46.506L65.5895 46.7234C65.3526 46.8042 65.0921 46.8863 65.0671 47.1488C65.053 47.2814 65.1182 47.5103 65.2394 47.5217C65.2461 47.5232 65.2532 47.5232 65.2599 47.5218C65.2667 47.5203 65.2731 47.5174 65.2787 47.5132C65.2842 47.5091 65.2888 47.5038 65.2922 47.4977C65.2955 47.4916 65.2975 47.4849 65.298 47.4779C65.302 47.4443 65.2828 47.4086 65.2852 47.3756C65.2854 47.3515 65.2925 47.3279 65.3056 47.3076C65.3187 47.2874 65.3373 47.2712 65.3593 47.2611C65.8804 47.0713 66.4775 46.8457 66.5023 46.8478C66.5406 46.8519 66.5676 46.9521 66.6478 47.0586C66.7053 47.1298 66.7772 47.188 66.8588 47.2294C66.9404 47.2708 67.0298 47.2944 67.1212 47.2987C67.3017 47.3182 67.8617 47.3067 67.9346 46.577C67.9582 46.3541 67.9648 46.1266 67.9871 45.9037C68.008 45.6943 68.0268 45.6687 68.0423 45.516C68.0464 45.4756 68.0289 45.4403 67.9906 45.4365" fill="#50565B"/>
<path fill-rule="evenodd" clip-rule="evenodd" d="M29.6108 37.3516L29.3887 37.7514C29.3604 37.8032 29.3416 37.847 29.3086 37.8282C29.2683 37.8021 29.2331 37.7688 29.2049 37.7299L28.7539 37.184C28.7269 37.1483 28.7302 37.1356 28.7324 37.1295C28.7418 37.1144 28.7365 37.124 28.7728 37.1207L29.4965 37.2082C29.5441 37.21 29.5909 37.2218 29.6338 37.2426C29.6668 37.2594 29.6397 37.2998 29.6108 37.3516ZM31.1063 36.8467C30.9992 36.7861 31.0375 37.0156 30.7535 36.9813L28.3206 36.667C28.2014 36.6508 28.1926 36.6529 28.1772 36.6798C28.1563 36.7182 28.2094 36.768 28.2499 36.8161L29.7817 38.7048C29.9231 38.8792 29.8214 39.0179 29.8962 39.0589C29.9379 39.0818 29.9567 39.032 29.9803 38.9909C30.0282 38.9062 30.0624 38.814 30.1102 38.7263C30.162 38.632 30.2253 38.5519 30.2768 38.457C30.3111 38.3964 30.3828 38.3177 30.3151 38.28C30.2268 38.2302 30.1043 38.5763 29.8688 38.4465C29.7856 38.3884 29.7104 38.3196 29.6453 38.2418C29.4689 38.0553 29.4898 37.9873 29.5168 37.9369L29.8365 37.3593C29.8783 37.2826 29.9207 37.2866 30.227 37.331C30.3135 37.337 30.3979 37.3601 30.4754 37.399C30.6746 37.5087 30.5232 37.6965 30.6174 37.7504C30.6628 37.7754 30.678 37.7328 30.7069 37.6797C30.7547 37.5949 30.8012 37.4791 30.8734 37.3498C30.9805 37.1566 31.0363 37.0851 31.0955 36.9781C31.1387 36.9 31.1608 36.8771 31.1049 36.8468" fill="#50565B"/>
<path d="M53.2871 62.9272C51.7044 64.8149 50.4448 65.7225 48.9867 66.7727C48.238 67.312 47.7548 67.631 46.8594 68.3723C44.1684 66.5316 42.509 65.3811 40.1137 62.944C36.1188 58.8778 35.8098 54.6756 35.8098 49.1829V37.6143L57.8179 37.6156V49.1824C57.8179 54.9478 57.1641 58.3011 53.2871 62.9268M57.8179 36.6206L57.5694 36.6173H34.8128V49.1833C34.8128 54.7299 35.1507 59.3165 39.4021 63.6433C41.9066 66.1915 43.609 67.3574 46.4305 69.289L46.6035 69.4075L46.9139 69.6195L47.2034 69.3804C48.0739 68.6608 48.8345 68.1128 49.5703 67.5823C51.0831 66.493 52.389 65.5511 54.0517 63.5686C58.1017 58.7343 58.8154 55.078 58.8154 49.1833V36.6206H57.8179Z" fill="#50565B"/>
<path fill-rule="evenodd" clip-rule="evenodd" d="M70.9741 24.3246L70.5729 23.6029L70.2039 24.75L70.4469 25.1883L70.9741 24.3246Z" fill="#50565B"/>
<path fill-rule="evenodd" clip-rule="evenodd" d="M42.3777 19.7125C42.5756 20.6456 41.7872 20.4194 41.8513 20.7243C41.8884 20.898 41.9933 20.8677 42.1071 20.8434C42.3569 20.7895 42.5575 20.7149 42.9777 20.6247C43.3978 20.5344 43.6119 20.5231 43.8636 20.4698C44.0453 20.4307 44.1754 20.428 44.135 20.2395C44.0885 20.0208 43.3338 20.4192 43.1292 19.4545L42.3757 15.9109C42.2956 15.5345 42.3495 15.4808 42.6073 15.4264L43.1398 15.3127C43.8546 15.1292 43.8394 16.0426 44.0904 15.989C44.2533 15.9541 44.1188 15.6632 44.0864 15.571L43.8643 14.8655C43.842 14.7887 43.8178 14.6776 43.725 14.699C43.1413 14.8222 42.7279 14.9433 41.8118 15.1373C40.8956 15.3312 40.4693 15.3904 39.8857 15.5142C39.7913 15.5351 39.815 15.6441 39.8251 15.7242L39.945 16.7798C39.9538 16.8848 39.9524 17.0652 40.0851 17.0372C40.3679 16.9766 39.9612 15.991 40.6695 15.8402L41.1959 15.7271C41.4532 15.6732 41.525 15.6996 41.6046 16.0753L42.3777 19.7125Z" fill="#50565B"/>
<path fill-rule="evenodd" clip-rule="evenodd" d="M33.9737 22.6669C34.414 23.5131 33.594 23.5078 33.7381 23.7844C33.8196 23.9412 33.9125 23.8834 34.0161 23.8298C34.2423 23.7106 34.4159 23.5841 34.7956 23.3854C35.1781 23.1862 35.38 23.1175 35.6068 22.9991C35.7717 22.9116 35.8971 22.8752 35.8074 22.7041C35.7031 22.5055 35.083 23.0905 34.6279 22.2174L32.9518 19.0052C32.7734 18.6645 32.8111 18.5985 33.0453 18.478L33.529 18.2249C34.1672 17.8559 34.3975 18.7396 34.625 18.6208C34.7725 18.544 34.5644 18.2997 34.5092 18.2209L34.1053 17.6002C34.0629 17.5315 34.0097 17.4326 33.9256 17.4764C33.3957 17.7524 33.0302 17.9793 32.1996 18.4135C31.369 18.8477 30.9744 19.0161 30.4458 19.2916C30.361 19.336 30.4136 19.4358 30.4439 19.509L30.8431 20.4946C30.8788 20.5937 30.9279 20.7679 31.0464 20.7046C31.3015 20.5714 30.6466 19.7298 31.2887 19.3946L31.766 19.1461C31.9983 19.0237 32.0744 19.0303 32.2514 19.3704L33.9737 22.6669Z" fill="#50565B"/>
<path fill-rule="evenodd" clip-rule="evenodd" d="M43.5163 72.3999L42.6988 72.4565L43.578 73.2698L44.0721 73.2349L43.5163 72.3999Z" fill="#50565B"/>
</svg>
