<svg width="360" height="780" viewBox="0 0 360 780" fill="none" xmlns="http://www.w3.org/2000/svg">
<rect width="360" height="780" rx="30" fill="white"/>
<path d="M42.5264 512V496.49H53.0644V499.152H45.9584V502.936H52.5584V505.576H45.9584V512H42.5264ZM55.0251 512V500.846H58.3471V512H55.0251ZM54.8931 499.02V495.918H58.4571V499.02H54.8931ZM61.0622 512V503.75C61.0622 503.281 61.0476 502.804 61.0182 502.32C60.9889 501.821 60.9449 501.33 60.8862 500.846H64.0762L64.3182 502.914H64.0542C64.4209 502.181 64.9416 501.616 65.6162 501.22C66.2909 500.824 67.0756 500.626 67.9702 500.626C69.2756 500.626 70.2509 501.007 70.8962 501.77C71.5562 502.518 71.8862 503.684 71.8862 505.268V512H68.5642V505.422C68.5642 504.615 68.4176 504.043 68.1242 503.706C67.8309 503.369 67.3909 503.2 66.8042 503.2C66.0709 503.2 65.4842 503.435 65.0442 503.904C64.6042 504.359 64.3842 504.975 64.3842 505.752V512H61.0622ZM78.9324 512.242C77.9644 512.242 77.1064 512.007 76.3584 511.538C75.6251 511.069 75.0458 510.401 74.6204 509.536C74.2098 508.671 74.0044 507.629 74.0044 506.412C74.0044 505.209 74.2098 504.175 74.6204 503.31C75.0311 502.445 75.6104 501.785 76.3584 501.33C77.1064 500.861 77.9644 500.626 78.9324 500.626C79.8124 500.626 80.5971 500.839 81.2864 501.264C81.9904 501.675 82.4598 502.232 82.6944 502.936H82.4084V495.808H85.7304V512H82.4524V509.822H82.7384C82.5038 510.555 82.0344 511.142 81.3304 511.582C80.6264 512.022 79.8271 512.242 78.9324 512.242ZM79.9224 509.734C80.6851 509.734 81.3011 509.463 81.7704 508.92C82.2398 508.377 82.4744 507.541 82.4744 506.412C82.4744 505.283 82.2398 504.454 81.7704 503.926C81.3011 503.398 80.6851 503.134 79.9224 503.134C79.1598 503.134 78.5364 503.398 78.0524 503.926C77.5831 504.454 77.3484 505.283 77.3484 506.412C77.3484 507.541 77.5831 508.377 78.0524 508.92C78.5364 509.463 79.1598 509.734 79.9224 509.734ZM99.8778 512.242C98.4258 512.242 97.3331 511.883 96.5998 511.164C95.8665 510.431 95.4998 509.338 95.4998 507.886V503.332H93.3878V500.846H95.4998V498.118L98.8218 497.304V500.846H101.682V503.332H98.8218V507.71C98.8218 508.414 98.9685 508.898 99.2618 509.162C99.5551 509.426 99.9291 509.558 100.384 509.558C100.662 509.558 100.89 509.543 101.066 509.514C101.256 509.47 101.454 509.411 101.66 509.338V511.912C101.381 512.029 101.088 512.11 100.78 512.154C100.472 512.213 100.171 512.242 99.8778 512.242ZM103.386 512V495.808H106.708V502.936H106.378C106.73 502.188 107.251 501.616 107.94 501.22C108.63 500.824 109.422 500.626 110.316 500.626C111.622 500.626 112.597 501.007 113.242 501.77C113.888 502.518 114.21 503.669 114.21 505.224V512H110.888V505.378C110.888 504.601 110.742 504.043 110.448 503.706C110.17 503.369 109.73 503.2 109.128 503.2C108.395 503.2 107.808 503.427 107.368 503.882C106.928 504.337 106.708 504.945 106.708 505.708V512H103.386ZM122.489 512.242C120.553 512.242 119.042 511.721 117.957 510.68C116.871 509.639 116.329 508.223 116.329 506.434C116.329 505.275 116.556 504.263 117.011 503.398C117.48 502.533 118.125 501.858 118.947 501.374C119.783 500.875 120.758 500.626 121.873 500.626C122.973 500.626 123.889 500.861 124.623 501.33C125.371 501.799 125.928 502.459 126.295 503.31C126.676 504.146 126.867 505.121 126.867 506.236V507.006H119.057V505.356H124.447L124.073 505.664C124.073 504.74 123.882 504.043 123.501 503.574C123.134 503.09 122.599 502.848 121.895 502.848C121.117 502.848 120.516 503.134 120.091 503.706C119.68 504.278 119.475 505.099 119.475 506.17V506.522C119.475 507.607 119.739 508.414 120.267 508.942C120.809 509.47 121.587 509.734 122.599 509.734C123.2 509.734 123.765 509.661 124.293 509.514C124.835 509.353 125.349 509.103 125.833 508.766L126.757 510.966C126.199 511.377 125.554 511.692 124.821 511.912C124.102 512.132 123.325 512.242 122.489 512.242ZM142.003 512.242C141.109 512.242 140.309 512.022 139.605 511.582C138.916 511.142 138.454 510.555 138.219 509.822H138.461V512H135.183V495.808H138.505V502.936H138.219C138.469 502.232 138.938 501.675 139.627 501.264C140.331 500.839 141.123 500.626 142.003 500.626C142.986 500.626 143.844 500.861 144.577 501.33C145.311 501.799 145.883 502.467 146.293 503.332C146.719 504.197 146.931 505.239 146.931 506.456C146.931 507.659 146.719 508.693 146.293 509.558C145.883 510.423 145.303 511.091 144.555 511.56C143.822 512.015 142.971 512.242 142.003 512.242ZM141.013 509.734C141.761 509.734 142.377 509.47 142.861 508.942C143.345 508.414 143.587 507.585 143.587 506.456C143.587 505.327 143.345 504.491 142.861 503.948C142.377 503.405 141.761 503.134 141.013 503.134C140.251 503.134 139.627 503.398 139.143 503.926C138.674 504.454 138.439 505.283 138.439 506.412C138.439 507.541 138.674 508.377 139.143 508.92C139.627 509.463 140.251 509.734 141.013 509.734ZM154.694 512.242C152.758 512.242 151.247 511.721 150.162 510.68C149.076 509.639 148.534 508.223 148.534 506.434C148.534 505.275 148.761 504.263 149.216 503.398C149.685 502.533 150.33 501.858 151.152 501.374C151.988 500.875 152.963 500.626 154.078 500.626C155.178 500.626 156.094 500.861 156.828 501.33C157.576 501.799 158.133 502.459 158.5 503.31C158.881 504.146 159.072 505.121 159.072 506.236V507.006H151.262V505.356H156.652L156.278 505.664C156.278 504.74 156.087 504.043 155.706 503.574C155.339 503.09 154.804 502.848 154.1 502.848C153.322 502.848 152.721 503.134 152.296 503.706C151.885 504.278 151.68 505.099 151.68 506.17V506.522C151.68 507.607 151.944 508.414 152.472 508.942C153.014 509.47 153.792 509.734 154.804 509.734C155.405 509.734 155.97 509.661 156.498 509.514C157.04 509.353 157.554 509.103 158.038 508.766L158.962 510.966C158.404 511.377 157.759 511.692 157.026 511.912C156.307 512.132 155.53 512.242 154.694 512.242ZM165.293 512.242C164.296 512.242 163.387 512.132 162.565 511.912C161.744 511.692 161.047 511.384 160.475 510.988L161.333 508.788C161.905 509.14 162.536 509.419 163.225 509.624C163.929 509.829 164.626 509.932 165.315 509.932C165.961 509.932 166.437 509.829 166.745 509.624C167.053 509.419 167.207 509.14 167.207 508.788C167.207 508.495 167.105 508.267 166.899 508.106C166.709 507.945 166.408 507.827 165.997 507.754L163.731 507.336C162.778 507.145 162.052 506.793 161.553 506.28C161.055 505.767 160.805 505.099 160.805 504.278C160.805 503.559 160.996 502.929 161.377 502.386C161.773 501.829 162.338 501.396 163.071 501.088C163.805 500.78 164.663 500.626 165.645 500.626C166.481 500.626 167.273 500.729 168.021 500.934C168.769 501.139 169.407 501.455 169.935 501.88L169.033 504.014C168.579 503.677 168.051 503.405 167.449 503.2C166.863 502.995 166.298 502.892 165.755 502.892C165.051 502.892 164.545 503.009 164.237 503.244C163.929 503.464 163.775 503.75 163.775 504.102C163.775 504.366 163.863 504.586 164.039 504.762C164.23 504.938 164.516 505.07 164.897 505.158L167.185 505.576C168.168 505.752 168.916 506.082 169.429 506.566C169.943 507.05 170.199 507.717 170.199 508.568C170.199 509.345 169.994 510.005 169.583 510.548C169.173 511.091 168.593 511.509 167.845 511.802C167.112 512.095 166.261 512.242 165.293 512.242ZM177.372 512.242C175.92 512.242 174.827 511.883 174.094 511.164C173.361 510.431 172.994 509.338 172.994 507.886V503.332H170.882V500.846H172.994V498.118L176.316 497.304V500.846H179.176V503.332H176.316V507.71C176.316 508.414 176.463 508.898 176.756 509.162C177.049 509.426 177.423 509.558 177.878 509.558C178.157 509.558 178.384 509.543 178.56 509.514C178.751 509.47 178.949 509.411 179.154 509.338V511.912C178.875 512.029 178.582 512.11 178.274 512.154C177.966 512.213 177.665 512.242 177.372 512.242ZM187.09 516.752V503.75C187.09 503.281 187.075 502.804 187.046 502.32C187.016 501.821 186.972 501.33 186.914 500.846H190.104L190.368 503.024H190.126C190.346 502.291 190.808 501.711 191.512 501.286C192.216 500.846 193.022 500.626 193.932 500.626C194.9 500.626 195.75 500.861 196.484 501.33C197.217 501.785 197.789 502.445 198.2 503.31C198.625 504.175 198.838 505.209 198.838 506.412C198.838 507.629 198.625 508.671 198.2 509.536C197.789 510.401 197.217 511.069 196.484 511.538C195.75 512.007 194.9 512.242 193.932 512.242C193.037 512.242 192.238 512.029 191.534 511.604C190.844 511.179 190.382 510.614 190.148 509.91H190.412V516.752H187.09ZM192.92 509.734C193.697 509.734 194.32 509.463 194.79 508.92C195.259 508.377 195.494 507.541 195.494 506.412C195.494 505.283 195.259 504.454 194.79 503.926C194.32 503.398 193.697 503.134 192.92 503.134C192.157 503.134 191.534 503.398 191.05 503.926C190.58 504.454 190.346 505.283 190.346 506.412C190.346 507.541 190.58 508.377 191.05 508.92C191.534 509.463 192.157 509.734 192.92 509.734ZM206.27 512.242C205.082 512.242 204.048 512.007 203.168 511.538C202.303 511.054 201.628 510.379 201.144 509.514C200.675 508.649 200.44 507.615 200.44 506.412C200.44 505.224 200.675 504.197 201.144 503.332C201.628 502.467 202.303 501.799 203.168 501.33C204.048 500.861 205.082 500.626 206.27 500.626C207.458 500.626 208.492 500.861 209.372 501.33C210.252 501.799 210.927 502.467 211.396 503.332C211.88 504.197 212.122 505.224 212.122 506.412C212.122 507.615 211.88 508.649 211.396 509.514C210.927 510.379 210.252 511.054 209.372 511.538C208.492 512.007 207.458 512.242 206.27 512.242ZM206.27 509.734C207.033 509.734 207.634 509.463 208.074 508.92C208.529 508.377 208.756 507.541 208.756 506.412C208.756 505.283 208.529 504.454 208.074 503.926C207.634 503.398 207.033 503.134 206.27 503.134C205.507 503.134 204.899 503.398 204.444 503.926C204.004 504.454 203.784 505.283 203.784 506.412C203.784 507.541 204.004 508.377 204.444 508.92C204.899 509.463 205.507 509.734 206.27 509.734ZM218.381 512.242C217.384 512.242 216.475 512.132 215.653 511.912C214.832 511.692 214.135 511.384 213.563 510.988L214.421 508.788C214.993 509.14 215.624 509.419 216.313 509.624C217.017 509.829 217.714 509.932 218.403 509.932C219.049 509.932 219.525 509.829 219.833 509.624C220.141 509.419 220.295 509.14 220.295 508.788C220.295 508.495 220.193 508.267 219.987 508.106C219.797 507.945 219.496 507.827 219.085 507.754L216.819 507.336C215.866 507.145 215.14 506.793 214.641 506.28C214.143 505.767 213.893 505.099 213.893 504.278C213.893 503.559 214.084 502.929 214.465 502.386C214.861 501.829 215.426 501.396 216.159 501.088C216.893 500.78 217.751 500.626 218.733 500.626C219.569 500.626 220.361 500.729 221.109 500.934C221.857 501.139 222.495 501.455 223.023 501.88L222.121 504.014C221.667 503.677 221.139 503.405 220.537 503.2C219.951 502.995 219.386 502.892 218.843 502.892C218.139 502.892 217.633 503.009 217.325 503.244C217.017 503.464 216.863 503.75 216.863 504.102C216.863 504.366 216.951 504.586 217.127 504.762C217.318 504.938 217.604 505.07 217.985 505.158L220.273 505.576C221.256 505.752 222.004 506.082 222.517 506.566C223.031 507.05 223.287 507.717 223.287 508.568C223.287 509.345 223.082 510.005 222.671 510.548C222.261 511.091 221.681 511.509 220.933 511.802C220.2 512.095 219.349 512.242 218.381 512.242ZM225.353 512V500.846H228.675V512H225.353ZM225.221 499.02V495.918H228.785V499.02H225.221ZM236.604 512.242C235.152 512.242 234.06 511.883 233.326 511.164C232.593 510.431 232.226 509.338 232.226 507.886V503.332H230.114V500.846H232.226V498.118L235.548 497.304V500.846H238.408V503.332H235.548V507.71C235.548 508.414 235.695 508.898 235.988 509.162C236.282 509.426 236.656 509.558 237.11 509.558C237.389 509.558 237.616 509.543 237.792 509.514C237.983 509.47 238.181 509.411 238.386 509.338V511.912C238.108 512.029 237.814 512.11 237.506 512.154C237.198 512.213 236.898 512.242 236.604 512.242ZM240.113 512V500.846H243.435V512H240.113ZM239.981 499.02V495.918H243.545V499.02H239.981ZM251.43 512.242C250.242 512.242 249.208 512.007 248.328 511.538C247.463 511.054 246.788 510.379 246.304 509.514C245.835 508.649 245.6 507.615 245.6 506.412C245.6 505.224 245.835 504.197 246.304 503.332C246.788 502.467 247.463 501.799 248.328 501.33C249.208 500.861 250.242 500.626 251.43 500.626C252.618 500.626 253.652 500.861 254.532 501.33C255.412 501.799 256.087 502.467 256.556 503.332C257.04 504.197 257.282 505.224 257.282 506.412C257.282 507.615 257.04 508.649 256.556 509.514C256.087 510.379 255.412 511.054 254.532 511.538C253.652 512.007 252.618 512.242 251.43 512.242ZM251.43 509.734C252.193 509.734 252.794 509.463 253.234 508.92C253.689 508.377 253.916 507.541 253.916 506.412C253.916 505.283 253.689 504.454 253.234 503.926C252.794 503.398 252.193 503.134 251.43 503.134C250.667 503.134 250.059 503.398 249.604 503.926C249.164 504.454 248.944 505.283 248.944 506.412C248.944 507.541 249.164 508.377 249.604 508.92C250.059 509.463 250.667 509.734 251.43 509.734ZM259.427 512V503.75C259.427 503.281 259.413 502.804 259.383 502.32C259.354 501.821 259.31 501.33 259.251 500.846H262.441L262.683 502.914H262.419C262.786 502.181 263.307 501.616 263.981 501.22C264.656 500.824 265.441 500.626 266.335 500.626C267.641 500.626 268.616 501.007 269.261 501.77C269.921 502.518 270.251 503.684 270.251 505.268V512H266.929V505.422C266.929 504.615 266.783 504.043 266.489 503.706C266.196 503.369 265.756 503.2 265.169 503.2C264.436 503.2 263.849 503.435 263.409 503.904C262.969 504.359 262.749 504.975 262.749 505.752V512H259.427ZM283.463 512.242C282.495 512.242 281.644 512.007 280.911 511.538C280.177 511.069 279.605 510.401 279.195 509.536C278.784 508.671 278.579 507.629 278.579 506.412C278.579 505.209 278.784 504.175 279.195 503.31C279.605 502.445 280.177 501.785 280.911 501.33C281.644 500.861 282.495 500.626 283.463 500.626C284.357 500.626 285.157 500.846 285.861 501.286C286.579 501.711 287.049 502.291 287.269 503.024H287.027L287.291 500.846H290.481C290.437 501.33 290.393 501.821 290.349 502.32C290.319 502.804 290.305 503.281 290.305 503.75V512H287.005L286.983 509.91H287.247C287.012 510.614 286.543 511.179 285.839 511.604C285.135 512.029 284.343 512.242 283.463 512.242ZM284.475 509.734C285.237 509.734 285.853 509.463 286.323 508.92C286.792 508.377 287.027 507.541 287.027 506.412C287.027 505.283 286.792 504.454 286.323 503.926C285.853 503.398 285.237 503.134 284.475 503.134C283.712 503.134 283.096 503.398 282.627 503.926C282.157 504.454 281.923 505.283 281.923 506.412C281.923 507.541 282.15 508.377 282.605 508.92C283.074 509.463 283.697 509.734 284.475 509.734ZM293.029 512V503.75C293.029 503.281 293.014 502.804 292.985 502.32C292.956 501.821 292.912 501.33 292.853 500.846H296.043L296.285 502.914H296.021C296.388 502.181 296.908 501.616 297.583 501.22C298.258 500.824 299.042 500.626 299.937 500.626C301.242 500.626 302.218 501.007 302.863 501.77C303.523 502.518 303.853 503.684 303.853 505.268V512H300.531V505.422C300.531 504.615 300.384 504.043 300.091 503.706C299.798 503.369 299.358 503.2 298.771 503.2C298.038 503.2 297.451 503.435 297.011 503.904C296.571 504.359 296.351 504.975 296.351 505.752V512H293.029ZM310.899 512.242C309.931 512.242 309.073 512.007 308.325 511.538C307.592 511.069 307.013 510.401 306.587 509.536C306.177 508.671 305.971 507.629 305.971 506.412C305.971 505.209 306.177 504.175 306.587 503.31C306.998 502.445 307.577 501.785 308.325 501.33C309.073 500.861 309.931 500.626 310.899 500.626C311.779 500.626 312.564 500.839 313.253 501.264C313.957 501.675 314.427 502.232 314.661 502.936H314.375V495.808H317.697V512H314.419V509.822H314.705C314.471 510.555 314.001 511.142 313.297 511.582C312.593 512.022 311.794 512.242 310.899 512.242ZM311.889 509.734C312.652 509.734 313.268 509.463 313.737 508.92C314.207 508.377 314.441 507.541 314.441 506.412C314.441 505.283 314.207 504.454 313.737 503.926C313.268 503.398 312.652 503.134 311.889 503.134C311.127 503.134 310.503 503.398 310.019 503.926C309.55 504.454 309.315 505.283 309.315 506.412C309.315 507.541 309.55 508.377 310.019 508.92C310.503 509.463 311.127 509.734 311.889 509.734ZM34.0456 540V523.808H37.3676V533.488H37.4116L41.5476 528.846H45.5076L40.1616 534.786V533.576L45.7936 540H41.7236L37.4116 535.16H37.3676V540H34.0456ZM52.1166 540.242C50.1806 540.242 48.6699 539.721 47.5846 538.68C46.4992 537.639 45.9566 536.223 45.9566 534.434C45.9566 533.275 46.1839 532.263 46.6386 531.398C47.1079 530.533 47.7532 529.858 48.5746 529.374C49.4106 528.875 50.3859 528.626 51.5006 528.626C52.6006 528.626 53.5172 528.861 54.2506 529.33C54.9986 529.799 55.5559 530.459 55.9226 531.31C56.3039 532.146 56.4946 533.121 56.4946 534.236V535.006H48.6846V533.356H54.0746L53.7006 533.664C53.7006 532.74 53.5099 532.043 53.1286 531.574C52.7619 531.09 52.2266 530.848 51.5226 530.848C50.7452 530.848 50.1439 531.134 49.7186 531.706C49.3079 532.278 49.1026 533.099 49.1026 534.17V534.522C49.1026 535.607 49.3666 536.414 49.8946 536.942C50.4372 537.47 51.2146 537.734 52.2266 537.734C52.8279 537.734 53.3926 537.661 53.9206 537.514C54.4632 537.353 54.9766 537.103 55.4606 536.766L56.3846 538.966C55.8272 539.377 55.1819 539.692 54.4486 539.912C53.7299 540.132 52.9526 540.242 52.1166 540.242ZM64.2123 540.242C62.2763 540.242 60.7656 539.721 59.6803 538.68C58.5949 537.639 58.0523 536.223 58.0523 534.434C58.0523 533.275 58.2796 532.263 58.7343 531.398C59.2036 530.533 59.8489 529.858 60.6703 529.374C61.5063 528.875 62.4816 528.626 63.5963 528.626C64.6963 528.626 65.6129 528.861 66.3463 529.33C67.0943 529.799 67.6516 530.459 68.0183 531.31C68.3996 532.146 68.5903 533.121 68.5903 534.236V535.006H60.7803V533.356H66.1703L65.7963 533.664C65.7963 532.74 65.6056 532.043 65.2243 531.574C64.8576 531.09 64.3223 530.848 63.6183 530.848C62.8409 530.848 62.2396 531.134 61.8143 531.706C61.4036 532.278 61.1983 533.099 61.1983 534.17V534.522C61.1983 535.607 61.4623 536.414 61.9903 536.942C62.5329 537.47 63.3103 537.734 64.3223 537.734C64.9236 537.734 65.4883 537.661 66.0163 537.514C66.5589 537.353 67.0723 537.103 67.5563 536.766L68.4803 538.966C67.9229 539.377 67.2776 539.692 66.5443 539.912C65.8256 540.132 65.0483 540.242 64.2123 540.242ZM70.698 544.752V531.75C70.698 531.281 70.6833 530.804 70.654 530.32C70.6247 529.821 70.5807 529.33 70.522 528.846H73.712L73.976 531.024H73.734C73.954 530.291 74.416 529.711 75.12 529.286C75.824 528.846 76.6307 528.626 77.54 528.626C78.508 528.626 79.3587 528.861 80.092 529.33C80.8253 529.785 81.3973 530.445 81.808 531.31C82.2333 532.175 82.446 533.209 82.446 534.412C82.446 535.629 82.2333 536.671 81.808 537.536C81.3973 538.401 80.8253 539.069 80.092 539.538C79.3587 540.007 78.508 540.242 77.54 540.242C76.6453 540.242 75.846 540.029 75.142 539.604C74.4527 539.179 73.9907 538.614 73.756 537.91H74.02V544.752H70.698ZM76.528 537.734C77.3053 537.734 77.9287 537.463 78.398 536.92C78.8673 536.377 79.102 535.541 79.102 534.412C79.102 533.283 78.8673 532.454 78.398 531.926C77.9287 531.398 77.3053 531.134 76.528 531.134C75.7653 531.134 75.142 531.398 74.658 531.926C74.1887 532.454 73.954 533.283 73.954 534.412C73.954 535.541 74.1887 536.377 74.658 536.92C75.142 537.463 75.7653 537.734 76.528 537.734ZM90.6974 544.994L89.9274 542.398C90.6167 542.266 91.196 542.112 91.6654 541.936C92.1494 541.76 92.5454 541.525 92.8534 541.232C93.1614 540.953 93.4107 540.587 93.6014 540.132L94.1514 538.834L94.0634 540.11L89.2234 528.846H92.7214L95.9114 536.92H95.2294L98.4634 528.846H101.763L96.7254 540.44C96.3587 541.276 95.9627 541.965 95.5374 542.508C95.1267 543.065 94.6794 543.505 94.1954 543.828C93.7114 544.151 93.176 544.4 92.5894 544.576C92.0174 544.752 91.3867 544.891 90.6974 544.994ZM107.925 540.242C106.737 540.242 105.703 540.007 104.823 539.538C103.958 539.054 103.283 538.379 102.799 537.514C102.33 536.649 102.095 535.615 102.095 534.412C102.095 533.224 102.33 532.197 102.799 531.332C103.283 530.467 103.958 529.799 104.823 529.33C105.703 528.861 106.737 528.626 107.925 528.626C109.113 528.626 110.147 528.861 111.027 529.33C111.907 529.799 112.582 530.467 113.051 531.332C113.535 532.197 113.777 533.224 113.777 534.412C113.777 535.615 113.535 536.649 113.051 537.514C112.582 538.379 111.907 539.054 111.027 539.538C110.147 540.007 109.113 540.242 107.925 540.242ZM107.925 537.734C108.688 537.734 109.289 537.463 109.729 536.92C110.184 536.377 110.411 535.541 110.411 534.412C110.411 533.283 110.184 532.454 109.729 531.926C109.289 531.398 108.688 531.134 107.925 531.134C107.163 531.134 106.554 531.398 106.099 531.926C105.659 532.454 105.439 533.283 105.439 534.412C105.439 535.541 105.659 536.377 106.099 536.92C106.554 537.463 107.163 537.734 107.925 537.734ZM119.971 540.242C118.577 540.242 117.543 539.861 116.869 539.098C116.194 538.321 115.857 537.147 115.857 535.578V528.846H119.179V535.578C119.179 536.282 119.318 536.803 119.597 537.14C119.89 537.477 120.337 537.646 120.939 537.646C121.599 537.646 122.141 537.419 122.567 536.964C123.007 536.495 123.227 535.871 123.227 535.094V528.846H126.549V540H123.315V537.866H123.623C123.285 538.614 122.801 539.201 122.171 539.626C121.555 540.037 120.821 540.242 119.971 540.242ZM129.264 540V531.794C129.264 531.31 129.249 530.819 129.22 530.32C129.205 529.821 129.169 529.33 129.11 528.846H132.3L132.674 532.102H132.168C132.315 531.31 132.549 530.657 132.872 530.144C133.209 529.631 133.62 529.249 134.104 529C134.603 528.751 135.167 528.626 135.798 528.626C136.077 528.626 136.297 528.641 136.458 528.67C136.619 528.685 136.781 528.721 136.942 528.78L136.92 531.706C136.612 531.574 136.348 531.493 136.128 531.464C135.923 531.42 135.659 531.398 135.336 531.398C134.72 531.398 134.207 531.515 133.796 531.75C133.4 531.985 133.099 532.329 132.894 532.784C132.703 533.239 132.608 533.789 132.608 534.434V540H129.264ZM145.376 540V531.332H143.264V528.846H146.322L145.376 529.704V528.098C145.376 526.646 145.75 525.553 146.498 524.82C147.26 524.087 148.397 523.72 149.908 523.72C150.245 523.72 150.604 523.742 150.986 523.786C151.382 523.83 151.726 523.918 152.02 524.05V526.602C151.814 526.529 151.58 526.477 151.316 526.448C151.052 526.404 150.795 526.382 150.546 526.382C150.208 526.382 149.893 526.441 149.6 526.558C149.321 526.675 149.094 526.873 148.918 527.152C148.756 527.416 148.676 527.775 148.676 528.23V529.396L148.214 528.846H151.492V531.332H148.698V540H145.376ZM157.253 540.242C156.285 540.242 155.434 540.007 154.701 539.538C153.967 539.069 153.395 538.401 152.985 537.536C152.574 536.671 152.369 535.629 152.369 534.412C152.369 533.209 152.574 532.175 152.985 531.31C153.395 530.445 153.967 529.785 154.701 529.33C155.434 528.861 156.285 528.626 157.253 528.626C158.147 528.626 158.947 528.846 159.651 529.286C160.369 529.711 160.839 530.291 161.059 531.024H160.817L161.081 528.846H164.271C164.227 529.33 164.183 529.821 164.139 530.32C164.109 530.804 164.095 531.281 164.095 531.75V540H160.795L160.773 537.91H161.037C160.802 538.614 160.333 539.179 159.629 539.604C158.925 540.029 158.133 540.242 157.253 540.242ZM158.265 537.734C159.027 537.734 159.643 537.463 160.113 536.92C160.582 536.377 160.817 535.541 160.817 534.412C160.817 533.283 160.582 532.454 160.113 531.926C159.643 531.398 159.027 531.134 158.265 531.134C157.502 531.134 156.886 531.398 156.417 531.926C155.947 532.454 155.713 533.283 155.713 534.412C155.713 535.541 155.94 536.377 156.395 536.92C156.864 537.463 157.487 537.734 158.265 537.734ZM172.187 540.242C170.999 540.242 169.958 540.007 169.063 539.538C168.168 539.069 167.479 538.394 166.995 537.514C166.511 536.634 166.269 535.593 166.269 534.39C166.269 533.173 166.511 532.139 166.995 531.288C167.494 530.423 168.183 529.763 169.063 529.308C169.958 528.853 170.999 528.626 172.187 528.626C172.935 528.626 173.661 528.736 174.365 528.956C175.084 529.176 175.67 529.484 176.125 529.88L175.157 532.168C174.79 531.831 174.365 531.581 173.881 531.42C173.412 531.244 172.957 531.156 172.517 531.156C171.622 531.156 170.926 531.435 170.427 531.992C169.928 532.549 169.679 533.356 169.679 534.412C169.679 535.468 169.928 536.275 170.427 536.832C170.926 537.389 171.622 537.668 172.517 537.668C172.942 537.668 173.39 537.587 173.859 537.426C174.343 537.265 174.776 537.023 175.157 536.7L176.125 538.966C175.656 539.362 175.062 539.677 174.343 539.912C173.639 540.132 172.92 540.242 172.187 540.242ZM183.408 540.242C181.472 540.242 179.961 539.721 178.876 538.68C177.79 537.639 177.248 536.223 177.248 534.434C177.248 533.275 177.475 532.263 177.93 531.398C178.399 530.533 179.044 529.858 179.866 529.374C180.702 528.875 181.677 528.626 182.792 528.626C183.892 528.626 184.808 528.861 185.542 529.33C186.29 529.799 186.847 530.459 187.214 531.31C187.595 532.146 187.786 533.121 187.786 534.236V535.006H179.976V533.356H185.366L184.992 533.664C184.992 532.74 184.801 532.043 184.42 531.574C184.053 531.09 183.518 530.848 182.814 530.848C182.036 530.848 181.435 531.134 181.01 531.706C180.599 532.278 180.394 533.099 180.394 534.17V534.522C180.394 535.607 180.658 536.414 181.186 536.942C181.728 537.47 182.506 537.734 183.518 537.734C184.119 537.734 184.684 537.661 185.212 537.514C185.754 537.353 186.268 537.103 186.752 536.766L187.676 538.966C187.118 539.377 186.473 539.692 185.74 539.912C185.021 540.132 184.244 540.242 183.408 540.242ZM196.102 540V528.846H199.424V540H196.102ZM195.97 527.02V523.918H199.534V527.02H195.97ZM202.139 540V531.75C202.139 531.281 202.125 530.804 202.095 530.32C202.066 529.821 202.022 529.33 201.963 528.846H205.153L205.395 530.914H205.131C205.498 530.181 206.019 529.616 206.693 529.22C207.368 528.824 208.153 528.626 209.047 528.626C210.353 528.626 211.328 529.007 211.973 529.77C212.633 530.518 212.963 531.684 212.963 533.268V540H209.641V533.422C209.641 532.615 209.495 532.043 209.201 531.706C208.908 531.369 208.468 531.2 207.881 531.2C207.148 531.2 206.561 531.435 206.121 531.904C205.681 532.359 205.461 532.975 205.461 533.752V540H202.139ZM227.055 540.242C225.603 540.242 224.51 539.883 223.777 539.164C223.043 538.431 222.677 537.338 222.677 535.886V531.332H220.565V528.846H222.677V526.118L225.999 525.304V528.846H228.859V531.332H225.999V535.71C225.999 536.414 226.145 536.898 226.439 537.162C226.732 537.426 227.106 537.558 227.561 537.558C227.839 537.558 228.067 537.543 228.243 537.514C228.433 537.47 228.631 537.411 228.837 537.338V539.912C228.558 540.029 228.265 540.11 227.957 540.154C227.649 540.213 227.348 540.242 227.055 540.242ZM230.563 540V523.808H233.885V530.936H233.555C233.907 530.188 234.428 529.616 235.117 529.22C235.807 528.824 236.599 528.626 237.493 528.626C238.799 528.626 239.774 529.007 240.419 529.77C241.065 530.518 241.387 531.669 241.387 533.224V540H238.065V533.378C238.065 532.601 237.919 532.043 237.625 531.706C237.347 531.369 236.907 531.2 236.305 531.2C235.572 531.2 234.985 531.427 234.545 531.882C234.105 532.337 233.885 532.945 233.885 533.708V540H230.563ZM249.665 540.242C247.729 540.242 246.219 539.721 245.133 538.68C244.048 537.639 243.505 536.223 243.505 534.434C243.505 533.275 243.733 532.263 244.187 531.398C244.657 530.533 245.302 529.858 246.123 529.374C246.959 528.875 247.935 528.626 249.049 528.626C250.149 528.626 251.066 528.861 251.799 529.33C252.547 529.799 253.105 530.459 253.471 531.31C253.853 532.146 254.043 533.121 254.043 534.236V535.006H246.233V533.356H251.623L251.249 533.664C251.249 532.74 251.059 532.043 250.677 531.574C250.311 531.09 249.775 530.848 249.071 530.848C248.294 530.848 247.693 531.134 247.267 531.706C246.857 532.278 246.651 533.099 246.651 534.17V534.522C246.651 535.607 246.915 536.414 247.443 536.942C247.986 537.47 248.763 537.734 249.775 537.734C250.377 537.734 250.941 537.661 251.469 537.514C252.012 537.353 252.525 537.103 253.009 536.766L253.933 538.966C253.376 539.377 252.731 539.692 251.997 539.912C251.279 540.132 250.501 540.242 249.665 540.242ZM267.728 540.242C266.54 540.242 265.499 540.007 264.604 539.538C263.709 539.069 263.02 538.394 262.536 537.514C262.052 536.634 261.81 535.593 261.81 534.39C261.81 533.173 262.052 532.139 262.536 531.288C263.035 530.423 263.724 529.763 264.604 529.308C265.499 528.853 266.54 528.626 267.728 528.626C268.476 528.626 269.202 528.736 269.906 528.956C270.625 529.176 271.211 529.484 271.666 529.88L270.698 532.168C270.331 531.831 269.906 531.581 269.422 531.42C268.953 531.244 268.498 531.156 268.058 531.156C267.163 531.156 266.467 531.435 265.968 531.992C265.469 532.549 265.22 533.356 265.22 534.412C265.22 535.468 265.469 536.275 265.968 536.832C266.467 537.389 267.163 537.668 268.058 537.668C268.483 537.668 268.931 537.587 269.4 537.426C269.884 537.265 270.317 537.023 270.698 536.7L271.666 538.966C271.197 539.362 270.603 539.677 269.884 539.912C269.18 540.132 268.461 540.242 267.728 540.242ZM278.949 540.242C277.013 540.242 275.502 539.721 274.417 538.68C273.331 537.639 272.789 536.223 272.789 534.434C272.789 533.275 273.016 532.263 273.471 531.398C273.94 530.533 274.585 529.858 275.407 529.374C276.243 528.875 277.218 528.626 278.333 528.626C279.433 528.626 280.349 528.861 281.083 529.33C281.831 529.799 282.388 530.459 282.755 531.31C283.136 532.146 283.327 533.121 283.327 534.236V535.006H275.517V533.356H280.907L280.533 533.664C280.533 532.74 280.342 532.043 279.961 531.574C279.594 531.09 279.059 530.848 278.355 530.848C277.577 530.848 276.976 531.134 276.551 531.706C276.14 532.278 275.935 533.099 275.935 534.17V534.522C275.935 535.607 276.199 536.414 276.727 536.942C277.269 537.47 278.047 537.734 279.059 537.734C279.66 537.734 280.225 537.661 280.753 537.514C281.295 537.353 281.809 537.103 282.293 536.766L283.217 538.966C282.659 539.377 282.014 539.692 281.281 539.912C280.562 540.132 279.785 540.242 278.949 540.242ZM285.434 540V531.75C285.434 531.281 285.42 530.804 285.39 530.32C285.361 529.821 285.317 529.33 285.258 528.846H288.448L288.69 530.914H288.426C288.793 530.181 289.314 529.616 289.988 529.22C290.663 528.824 291.448 528.626 292.342 528.626C293.648 528.626 294.623 529.007 295.268 529.77C295.928 530.518 296.258 531.684 296.258 533.268V540H292.936V533.422C292.936 532.615 292.79 532.043 292.496 531.706C292.203 531.369 291.763 531.2 291.176 531.2C290.443 531.2 289.856 531.435 289.416 531.904C288.976 532.359 288.756 532.975 288.756 533.752V540H285.434ZM304.141 540.242C302.689 540.242 301.596 539.883 300.863 539.164C300.129 538.431 299.763 537.338 299.763 535.886V531.332H297.651V528.846H299.763V526.118L303.085 525.304V528.846H305.945V531.332H303.085V535.71C303.085 536.414 303.231 536.898 303.525 537.162C303.818 537.426 304.192 537.558 304.647 537.558C304.925 537.558 305.153 537.543 305.329 537.514C305.519 537.47 305.717 537.411 305.923 537.338V539.912C305.644 540.029 305.351 540.11 305.043 540.154C304.735 540.213 304.434 540.242 304.141 540.242ZM313.152 540.242C311.216 540.242 309.705 539.721 308.62 538.68C307.534 537.639 306.992 536.223 306.992 534.434C306.992 533.275 307.219 532.263 307.674 531.398C308.143 530.533 308.788 529.858 309.61 529.374C310.446 528.875 311.421 528.626 312.536 528.626C313.636 528.626 314.552 528.861 315.286 529.33C316.034 529.799 316.591 530.459 316.958 531.31C317.339 532.146 317.53 533.121 317.53 534.236V535.006H309.72V533.356H315.11L314.736 533.664C314.736 532.74 314.545 532.043 314.164 531.574C313.797 531.09 313.262 530.848 312.558 530.848C311.78 530.848 311.179 531.134 310.754 531.706C310.343 532.278 310.138 533.099 310.138 534.17V534.522C310.138 535.607 310.402 536.414 310.93 536.942C311.472 537.47 312.25 537.734 313.262 537.734C313.863 537.734 314.428 537.661 314.956 537.514C315.498 537.353 316.012 537.103 316.496 536.766L317.42 538.966C316.862 539.377 316.217 539.692 315.484 539.912C314.765 540.132 313.988 540.242 313.152 540.242ZM319.615 540V531.794C319.615 531.31 319.601 530.819 319.571 530.32C319.557 529.821 319.52 529.33 319.461 528.846H322.651L323.025 532.102H322.519C322.666 531.31 322.901 530.657 323.223 530.144C323.561 529.631 323.971 529.249 324.455 529C324.954 528.751 325.519 528.626 326.149 528.626C326.428 528.626 326.648 528.641 326.809 528.67C326.971 528.685 327.132 528.721 327.293 528.78L327.271 531.706C326.963 531.574 326.699 531.493 326.479 531.464C326.274 531.42 326.01 531.398 325.687 531.398C325.071 531.398 324.558 531.515 324.147 531.75C323.751 531.985 323.451 532.329 323.245 532.784C323.055 533.239 322.959 533.789 322.959 534.434V540H319.615ZM115.187 568.242C113.999 568.242 112.965 568.007 112.085 567.538C111.22 567.054 110.545 566.379 110.061 565.514C109.592 564.649 109.357 563.615 109.357 562.412C109.357 561.224 109.592 560.197 110.061 559.332C110.545 558.467 111.22 557.799 112.085 557.33C112.965 556.861 113.999 556.626 115.187 556.626C116.375 556.626 117.409 556.861 118.289 557.33C119.169 557.799 119.844 558.467 120.313 559.332C120.797 560.197 121.039 561.224 121.039 562.412C121.039 563.615 120.797 564.649 120.313 565.514C119.844 566.379 119.169 567.054 118.289 567.538C117.409 568.007 116.375 568.242 115.187 568.242ZM115.187 565.734C115.95 565.734 116.551 565.463 116.991 564.92C117.446 564.377 117.673 563.541 117.673 562.412C117.673 561.283 117.446 560.454 116.991 559.926C116.551 559.398 115.95 559.134 115.187 559.134C114.424 559.134 113.816 559.398 113.361 559.926C112.921 560.454 112.701 561.283 112.701 562.412C112.701 563.541 112.921 564.377 113.361 564.92C113.816 565.463 114.424 565.734 115.187 565.734ZM123.913 568V559.332H121.801V556.846H124.859L123.913 557.704V556.098C123.913 554.646 124.287 553.553 125.035 552.82C125.798 552.087 126.934 551.72 128.445 551.72C128.782 551.72 129.142 551.742 129.523 551.786C129.919 551.83 130.264 551.918 130.557 552.05V554.602C130.352 554.529 130.117 554.477 129.853 554.448C129.589 554.404 129.332 554.382 129.083 554.382C128.746 554.382 128.43 554.441 128.137 554.558C127.858 554.675 127.631 554.873 127.455 555.152C127.294 555.416 127.213 555.775 127.213 556.23V557.396L126.751 556.846H130.029V559.332H127.235V568H123.913ZM142.986 568.242C141.534 568.242 140.442 567.883 139.708 567.164C138.975 566.431 138.608 565.338 138.608 563.886V559.332H136.496V556.846H138.608V554.118L141.93 553.304V556.846H144.79V559.332H141.93V563.71C141.93 564.414 142.077 564.898 142.37 565.162C142.664 565.426 143.038 565.558 143.492 565.558C143.771 565.558 143.998 565.543 144.174 565.514C144.365 565.47 144.563 565.411 144.768 565.338V567.912C144.49 568.029 144.196 568.11 143.888 568.154C143.58 568.213 143.28 568.242 142.986 568.242ZM146.495 568V551.808H149.817V558.936H149.487C149.839 558.188 150.36 557.616 151.049 557.22C151.738 556.824 152.53 556.626 153.425 556.626C154.73 556.626 155.706 557.007 156.351 557.77C156.996 558.518 157.319 559.669 157.319 561.224V568H153.997V561.378C153.997 560.601 153.85 560.043 153.557 559.706C153.278 559.369 152.838 559.2 152.237 559.2C151.504 559.2 150.917 559.427 150.477 559.882C150.037 560.337 149.817 560.945 149.817 561.708V568H146.495ZM165.597 568.242C163.661 568.242 162.15 567.721 161.065 566.68C159.98 565.639 159.437 564.223 159.437 562.434C159.437 561.275 159.664 560.263 160.119 559.398C160.588 558.533 161.234 557.858 162.055 557.374C162.891 556.875 163.866 556.626 164.981 556.626C166.081 556.626 166.998 556.861 167.731 557.33C168.479 557.799 169.036 558.459 169.403 559.31C169.784 560.146 169.975 561.121 169.975 562.236V563.006H162.165V561.356H167.555L167.181 561.664C167.181 560.74 166.99 560.043 166.609 559.574C166.242 559.09 165.707 558.848 165.003 558.848C164.226 558.848 163.624 559.134 163.199 559.706C162.788 560.278 162.583 561.099 162.583 562.17V562.522C162.583 563.607 162.847 564.414 163.375 564.942C163.918 565.47 164.695 565.734 165.707 565.734C166.308 565.734 166.873 565.661 167.401 565.514C167.944 565.353 168.457 565.103 168.941 564.766L169.865 566.966C169.308 567.377 168.662 567.692 167.929 567.912C167.21 568.132 166.433 568.242 165.597 568.242ZM182.406 568.242C181.408 568.242 180.499 568.132 179.678 567.912C178.856 567.692 178.16 567.384 177.588 566.988L178.446 564.788C179.018 565.14 179.648 565.419 180.338 565.624C181.042 565.829 181.738 565.932 182.428 565.932C183.073 565.932 183.55 565.829 183.858 565.624C184.166 565.419 184.32 565.14 184.32 564.788C184.32 564.495 184.217 564.267 184.012 564.106C183.821 563.945 183.52 563.827 183.11 563.754L180.844 563.336C179.89 563.145 179.164 562.793 178.666 562.28C178.167 561.767 177.918 561.099 177.918 560.278C177.918 559.559 178.108 558.929 178.49 558.386C178.886 557.829 179.45 557.396 180.184 557.088C180.917 556.78 181.775 556.626 182.758 556.626C183.594 556.626 184.386 556.729 185.134 556.934C185.882 557.139 186.52 557.455 187.048 557.88L186.146 560.014C185.691 559.677 185.163 559.405 184.562 559.2C183.975 558.995 183.41 558.892 182.868 558.892C182.164 558.892 181.658 559.009 181.35 559.244C181.042 559.464 180.888 559.75 180.888 560.102C180.888 560.366 180.976 560.586 181.152 560.762C181.342 560.938 181.628 561.07 182.01 561.158L184.298 561.576C185.28 561.752 186.028 562.082 186.542 562.566C187.055 563.05 187.312 563.717 187.312 564.568C187.312 565.345 187.106 566.005 186.696 566.548C186.285 567.091 185.706 567.509 184.958 567.802C184.224 568.095 183.374 568.242 182.406 568.242ZM194.746 568.242C193.558 568.242 192.516 568.007 191.622 567.538C190.727 567.069 190.038 566.394 189.554 565.514C189.07 564.634 188.828 563.593 188.828 562.39C188.828 561.173 189.07 560.139 189.554 559.288C190.052 558.423 190.742 557.763 191.622 557.308C192.516 556.853 193.558 556.626 194.746 556.626C195.494 556.626 196.22 556.736 196.924 556.956C197.642 557.176 198.229 557.484 198.684 557.88L197.716 560.168C197.349 559.831 196.924 559.581 196.44 559.42C195.97 559.244 195.516 559.156 195.076 559.156C194.181 559.156 193.484 559.435 192.986 559.992C192.487 560.549 192.238 561.356 192.238 562.412C192.238 563.468 192.487 564.275 192.986 564.832C193.484 565.389 194.181 565.668 195.076 565.668C195.501 565.668 195.948 565.587 196.418 565.426C196.902 565.265 197.334 565.023 197.716 564.7L198.684 566.966C198.214 567.362 197.62 567.677 196.902 567.912C196.198 568.132 195.479 568.242 194.746 568.242ZM200.549 568V559.794C200.549 559.31 200.534 558.819 200.505 558.32C200.49 557.821 200.454 557.33 200.395 556.846H203.585L203.959 560.102H203.453C203.6 559.31 203.834 558.657 204.157 558.144C204.494 557.631 204.905 557.249 205.389 557C205.888 556.751 206.452 556.626 207.083 556.626C207.362 556.626 207.582 556.641 207.743 556.67C207.904 556.685 208.066 556.721 208.227 556.78L208.205 559.706C207.897 559.574 207.633 559.493 207.413 559.464C207.208 559.42 206.944 559.398 206.621 559.398C206.005 559.398 205.492 559.515 205.081 559.75C204.685 559.985 204.384 560.329 204.179 560.784C203.988 561.239 203.893 561.789 203.893 562.434V568H200.549ZM215.033 568.242C213.097 568.242 211.586 567.721 210.501 566.68C209.415 565.639 208.873 564.223 208.873 562.434C208.873 561.275 209.1 560.263 209.555 559.398C210.024 558.533 210.669 557.858 211.491 557.374C212.327 556.875 213.302 556.626 214.417 556.626C215.517 556.626 216.433 556.861 217.167 557.33C217.915 557.799 218.472 558.459 218.839 559.31C219.22 560.146 219.411 561.121 219.411 562.236V563.006H211.601V561.356H216.991L216.617 561.664C216.617 560.74 216.426 560.043 216.045 559.574C215.678 559.09 215.143 558.848 214.439 558.848C213.661 558.848 213.06 559.134 212.635 559.706C212.224 560.278 212.019 561.099 212.019 562.17V562.522C212.019 563.607 212.283 564.414 212.811 564.942C213.353 565.47 214.131 565.734 215.143 565.734C215.744 565.734 216.309 565.661 216.837 565.514C217.379 565.353 217.893 565.103 218.377 564.766L219.301 566.966C218.743 567.377 218.098 567.692 217.365 567.912C216.646 568.132 215.869 568.242 215.033 568.242ZM227.128 568.242C225.192 568.242 223.682 567.721 222.596 566.68C221.511 565.639 220.968 564.223 220.968 562.434C220.968 561.275 221.196 560.263 221.65 559.398C222.12 558.533 222.765 557.858 223.586 557.374C224.422 556.875 225.398 556.626 226.512 556.626C227.612 556.626 228.529 556.861 229.262 557.33C230.01 557.799 230.568 558.459 230.934 559.31C231.316 560.146 231.506 561.121 231.506 562.236V563.006H223.696V561.356H229.086L228.712 561.664C228.712 560.74 228.522 560.043 228.14 559.574C227.774 559.09 227.238 558.848 226.534 558.848C225.757 558.848 225.156 559.134 224.73 559.706C224.32 560.278 224.114 561.099 224.114 562.17V562.522C224.114 563.607 224.378 564.414 224.906 564.942C225.449 565.47 226.226 565.734 227.238 565.734C227.84 565.734 228.404 565.661 228.932 565.514C229.475 565.353 229.988 565.103 230.472 564.766L231.396 566.966C230.839 567.377 230.194 567.692 229.46 567.912C228.742 568.132 227.964 568.242 227.128 568.242ZM233.614 568V559.75C233.614 559.281 233.599 558.804 233.57 558.32C233.541 557.821 233.497 557.33 233.438 556.846H236.628L236.87 558.914H236.606C236.973 558.181 237.493 557.616 238.168 557.22C238.843 556.824 239.627 556.626 240.522 556.626C241.827 556.626 242.803 557.007 243.448 557.77C244.108 558.518 244.438 559.684 244.438 561.268V568H241.116V561.422C241.116 560.615 240.969 560.043 240.676 559.706C240.383 559.369 239.943 559.2 239.356 559.2C238.623 559.2 238.036 559.435 237.596 559.904C237.156 560.359 236.936 560.975 236.936 561.752V568H233.614ZM246.82 568V564.48H250.384V568H246.82Z" fill="#2C3032"/>
<rect x="32" y="652" width="296" height="52" rx="26" fill="#272D69"/>
<path d="M115.684 684.16C114.777 684.16 113.94 684.048 113.172 683.824C112.415 683.589 111.764 683.269 111.22 682.864L111.86 681.248C112.223 681.504 112.601 681.723 112.996 681.904C113.391 682.075 113.812 682.208 114.26 682.304C114.708 682.389 115.183 682.432 115.684 682.432C116.527 682.432 117.135 682.293 117.508 682.016C117.881 681.739 118.068 681.376 118.068 680.928C118.068 680.533 117.94 680.235 117.684 680.032C117.428 679.819 116.969 679.643 116.308 679.504L114.5 679.136C113.465 678.923 112.692 678.565 112.18 678.064C111.668 677.563 111.412 676.891 111.412 676.048C111.412 675.344 111.599 674.731 111.972 674.208C112.345 673.685 112.868 673.28 113.54 672.992C114.212 672.704 114.996 672.56 115.892 672.56C116.692 672.56 117.433 672.677 118.116 672.912C118.799 673.136 119.369 673.461 119.828 673.888L119.188 675.424C118.729 675.04 118.228 674.757 117.684 674.576C117.14 674.384 116.532 674.288 115.86 674.288C115.103 674.288 114.511 674.437 114.084 674.736C113.668 675.024 113.46 675.424 113.46 675.936C113.46 676.331 113.588 676.645 113.844 676.88C114.111 677.115 114.559 677.296 115.188 677.424L116.98 677.776C118.047 677.989 118.836 678.341 119.348 678.832C119.86 679.312 120.116 679.963 120.116 680.784C120.116 681.456 119.935 682.048 119.572 682.56C119.209 683.061 118.697 683.456 118.036 683.744C117.375 684.021 116.591 684.16 115.684 684.16ZM125.918 684.16C124.958 684.16 124.233 683.909 123.742 683.408C123.252 682.907 123.006 682.155 123.006 681.152V677.424H121.454V675.92H123.006V673.856L125.006 673.344V675.92H127.166V677.424H125.006V681.024C125.006 681.579 125.113 681.968 125.326 682.192C125.54 682.416 125.833 682.528 126.206 682.528C126.409 682.528 126.58 682.512 126.718 682.48C126.868 682.448 127.012 682.405 127.15 682.352V683.936C126.969 684.011 126.766 684.064 126.542 684.096C126.329 684.139 126.121 684.16 125.918 684.16ZM132.285 684.16C131.581 684.16 130.962 683.995 130.429 683.664C129.896 683.323 129.48 682.837 129.181 682.208C128.882 681.579 128.733 680.827 128.733 679.952C128.733 679.077 128.882 678.331 129.181 677.712C129.48 677.083 129.896 676.603 130.429 676.272C130.962 675.931 131.581 675.76 132.285 675.76C132.968 675.76 133.565 675.931 134.077 676.272C134.6 676.603 134.946 677.051 135.117 677.616H134.941L135.117 675.92H137.037C137.005 676.251 136.973 676.587 136.941 676.928C136.92 677.269 136.909 677.605 136.909 677.936V684H134.925L134.909 682.336H135.101C134.93 682.891 134.584 683.333 134.061 683.664C133.538 683.995 132.946 684.16 132.285 684.16ZM132.845 682.624C133.474 682.624 133.981 682.405 134.365 681.968C134.749 681.52 134.941 680.848 134.941 679.952C134.941 679.056 134.749 678.389 134.365 677.952C133.981 677.515 133.474 677.296 132.845 677.296C132.216 677.296 131.709 677.515 131.325 677.952C130.941 678.389 130.749 679.056 130.749 679.952C130.749 680.848 130.936 681.52 131.309 681.968C131.693 682.405 132.205 682.624 132.845 682.624ZM139.711 684V677.984C139.711 677.643 139.7 677.296 139.679 676.944C139.668 676.592 139.641 676.251 139.599 675.92H141.535L141.759 678.128H141.439C141.545 677.595 141.721 677.152 141.967 676.8C142.223 676.448 142.532 676.187 142.895 676.016C143.257 675.845 143.652 675.76 144.079 675.76C144.271 675.76 144.425 675.771 144.543 675.792C144.66 675.803 144.777 675.829 144.895 675.872L144.879 677.632C144.676 677.547 144.5 677.493 144.351 677.472C144.212 677.451 144.036 677.44 143.823 677.44C143.364 677.44 142.975 677.536 142.655 677.728C142.345 677.92 142.111 678.187 141.951 678.528C141.801 678.869 141.727 679.259 141.727 679.696V684H139.711ZM150.557 684.16C149.597 684.16 148.872 683.909 148.381 683.408C147.89 682.907 147.645 682.155 147.645 681.152V677.424H146.093V675.92H147.645V673.856L149.645 673.344V675.92H151.805V677.424H149.645V681.024C149.645 681.579 149.752 681.968 149.965 682.192C150.178 682.416 150.472 682.528 150.845 682.528C151.048 682.528 151.218 682.512 151.357 682.48C151.506 682.448 151.65 682.405 151.789 682.352V683.936C151.608 684.011 151.405 684.064 151.181 684.096C150.968 684.139 150.76 684.16 150.557 684.16ZM158.994 684V672.72H164.002C165.24 672.72 166.184 673.019 166.834 673.616C167.485 674.213 167.81 675.035 167.81 676.08C167.81 677.115 167.485 677.936 166.834 678.544C166.184 679.152 165.24 679.456 164.002 679.456H161.058V684H158.994ZM161.058 677.824H163.762C164.445 677.824 164.957 677.675 165.298 677.376C165.64 677.067 165.81 676.635 165.81 676.08C165.81 675.525 165.64 675.099 165.298 674.8C164.957 674.491 164.445 674.336 163.762 674.336H161.058V677.824ZM173.388 684.16C172.556 684.16 171.836 683.989 171.228 683.648C170.62 683.307 170.145 682.821 169.804 682.192C169.473 681.563 169.308 680.816 169.308 679.952C169.308 679.088 169.473 678.347 169.804 677.728C170.145 677.099 170.62 676.613 171.228 676.272C171.836 675.931 172.556 675.76 173.388 675.76C174.22 675.76 174.94 675.931 175.548 676.272C176.167 676.613 176.641 677.099 176.972 677.728C177.313 678.347 177.484 679.088 177.484 679.952C177.484 680.816 177.313 681.563 176.972 682.192C176.641 682.821 176.167 683.307 175.548 683.648C174.94 683.989 174.22 684.16 173.388 684.16ZM173.388 682.624C174.017 682.624 174.519 682.405 174.892 681.968C175.265 681.52 175.452 680.848 175.452 679.952C175.452 679.056 175.265 678.389 174.892 677.952C174.519 677.515 174.017 677.296 173.388 677.296C172.759 677.296 172.257 677.515 171.884 677.952C171.511 678.389 171.324 679.056 171.324 679.952C171.324 680.848 171.511 681.52 171.884 681.968C172.257 682.405 172.759 682.624 173.388 682.624ZM182.729 684.16C182.035 684.16 181.395 684.08 180.809 683.92C180.233 683.749 179.747 683.515 179.353 683.216L179.913 681.872C180.318 682.149 180.766 682.363 181.257 682.512C181.747 682.661 182.243 682.736 182.745 682.736C183.278 682.736 183.673 682.645 183.929 682.464C184.195 682.283 184.329 682.037 184.329 681.728C184.329 681.483 184.243 681.291 184.073 681.152C183.913 681.003 183.651 680.891 183.289 680.816L181.689 680.512C181.006 680.363 180.483 680.107 180.121 679.744C179.769 679.381 179.593 678.907 179.593 678.32C179.593 677.819 179.726 677.376 179.993 676.992C180.27 676.608 180.659 676.309 181.161 676.096C181.673 675.872 182.27 675.76 182.953 675.76C183.55 675.76 184.11 675.84 184.633 676C185.166 676.16 185.614 676.4 185.977 676.72L185.401 678.016C185.07 677.749 184.691 677.541 184.265 677.392C183.838 677.243 183.422 677.168 183.017 677.168C182.462 677.168 182.057 677.269 181.801 677.472C181.545 677.664 181.417 677.915 181.417 678.224C181.417 678.459 181.491 678.656 181.641 678.816C181.801 678.965 182.046 679.077 182.377 679.152L183.977 679.456C184.691 679.595 185.23 679.84 185.593 680.192C185.966 680.533 186.153 681.003 186.153 681.6C186.153 682.133 186.009 682.592 185.721 682.976C185.433 683.36 185.033 683.653 184.521 683.856C184.009 684.059 183.411 684.16 182.729 684.16ZM188.504 684V675.92H190.504V684H188.504ZM188.392 674.4V672.448H190.616V674.4H188.392ZM196.772 684.16C195.812 684.16 195.087 683.909 194.596 683.408C194.105 682.907 193.86 682.155 193.86 681.152V677.424H192.308V675.92H193.86V673.856L195.86 673.344V675.92H198.02V677.424H195.86V681.024C195.86 681.579 195.967 681.968 196.18 682.192C196.393 682.416 196.687 682.528 197.06 682.528C197.263 682.528 197.433 682.512 197.572 682.48C197.721 682.448 197.865 682.405 198.004 682.352V683.936C197.823 684.011 197.62 684.064 197.396 684.096C197.183 684.139 196.975 684.16 196.772 684.16ZM200.019 684V675.92H202.019V684H200.019ZM199.907 674.4V672.448H202.131V674.4H199.907ZM208.479 684.16C207.647 684.16 206.927 683.989 206.319 683.648C205.711 683.307 205.236 682.821 204.895 682.192C204.564 681.563 204.399 680.816 204.399 679.952C204.399 679.088 204.564 678.347 204.895 677.728C205.236 677.099 205.711 676.613 206.319 676.272C206.927 675.931 207.647 675.76 208.479 675.76C209.311 675.76 210.031 675.931 210.639 676.272C211.257 676.613 211.732 677.099 212.063 677.728C212.404 678.347 212.575 679.088 212.575 679.952C212.575 680.816 212.404 681.563 212.063 682.192C211.732 682.821 211.257 683.307 210.639 683.648C210.031 683.989 209.311 684.16 208.479 684.16ZM208.479 682.624C209.108 682.624 209.609 682.405 209.983 681.968C210.356 681.52 210.543 680.848 210.543 679.952C210.543 679.056 210.356 678.389 209.983 677.952C209.609 677.515 209.108 677.296 208.479 677.296C207.849 677.296 207.348 677.515 206.975 677.952C206.601 678.389 206.415 679.056 206.415 679.952C206.415 680.848 206.601 681.52 206.975 681.968C207.348 682.405 207.849 682.624 208.479 682.624ZM214.939 684V677.936C214.939 677.605 214.929 677.269 214.907 676.928C214.886 676.587 214.854 676.251 214.811 675.92H216.747L216.907 677.52H216.715C216.971 676.955 217.35 676.523 217.851 676.224C218.353 675.915 218.934 675.76 219.595 675.76C220.545 675.76 221.259 676.027 221.739 676.56C222.219 677.093 222.459 677.925 222.459 679.056V684H220.459V679.152C220.459 678.501 220.331 678.037 220.075 677.76C219.83 677.472 219.457 677.328 218.955 677.328C218.337 677.328 217.846 677.52 217.483 677.904C217.121 678.288 216.939 678.8 216.939 679.44V684H214.939ZM225.22 684V675.92H227.22V684H225.22ZM225.108 674.4V672.448H227.332V674.4H225.108ZM230.032 684V677.936C230.032 677.605 230.021 677.269 230 676.928C229.978 676.587 229.946 676.251 229.904 675.92H231.84L232 677.52H231.808C232.064 676.955 232.442 676.523 232.944 676.224C233.445 675.915 234.026 675.76 234.688 675.76C235.637 675.76 236.352 676.027 236.832 676.56C237.312 677.093 237.552 677.925 237.552 679.056V684H235.552V679.152C235.552 678.501 235.424 678.037 235.168 677.76C234.922 677.472 234.549 677.328 234.048 677.328C233.429 677.328 232.938 677.52 232.576 677.904C232.213 678.288 232.032 678.8 232.032 679.44V684H230.032ZM244.056 687.584C243.31 687.584 242.632 687.504 242.024 687.344C241.427 687.184 240.894 686.939 240.424 686.608L240.856 685.168C241.166 685.371 241.486 685.536 241.816 685.664C242.147 685.792 242.488 685.888 242.84 685.952C243.192 686.016 243.55 686.048 243.912 686.048C244.659 686.048 245.214 685.861 245.576 685.488C245.95 685.125 246.136 684.603 246.136 683.92V681.984H246.296C246.126 682.539 245.779 682.981 245.256 683.312C244.744 683.643 244.152 683.808 243.48 683.808C242.755 683.808 242.12 683.648 241.576 683.328C241.043 682.997 240.627 682.528 240.328 681.92C240.03 681.312 239.88 680.597 239.88 679.776C239.88 678.955 240.03 678.245 240.328 677.648C240.627 677.04 241.043 676.576 241.576 676.256C242.12 675.925 242.755 675.76 243.48 675.76C244.163 675.76 244.755 675.925 245.256 676.256C245.768 676.576 246.11 677.013 246.28 677.568L246.136 677.472L246.296 675.92H248.232C248.19 676.251 248.158 676.587 248.136 676.928C248.115 677.269 248.104 677.605 248.104 677.936V683.68C248.104 684.949 247.758 685.915 247.064 686.576C246.382 687.248 245.379 687.584 244.056 687.584ZM244.024 682.272C244.664 682.272 245.171 682.059 245.544 681.632C245.928 681.195 246.12 680.576 246.12 679.776C246.12 678.976 245.928 678.363 245.544 677.936C245.171 677.509 244.664 677.296 244.024 677.296C243.374 677.296 242.856 677.509 242.472 677.936C242.088 678.363 241.896 678.976 241.896 679.776C241.896 680.576 242.088 681.195 242.472 681.632C242.856 682.059 243.374 682.272 244.024 682.272Z" fill="white"/>
<path fill-rule="evenodd" clip-rule="evenodd" d="M216 239C216 266.338 195.35 288.5 180.006 288.5C164.663 288.5 144.243 264.872 144.012 239C143.782 213.128 146.458 189.5 180.006 189.5C213.555 189.5 216 211.662 216 239ZM207 239C207 250.425 202.663 260.872 196.696 268.421C190.43 276.348 183.751 279.5 180.006 279.5C176.472 279.5 169.856 276.236 163.468 267.955C157.418 260.113 153.107 249.596 153.012 238.92C152.895 225.777 153.668 215.62 157.298 208.755C158.952 205.628 161.182 203.252 164.396 201.556C167.723 199.801 172.638 198.5 180.006 198.5C187.456 198.5 192.396 199.737 195.718 201.419C198.897 203.029 201.054 205.272 202.653 208.252C206.224 214.911 207 224.987 207 239Z" stroke="#008C8C" stroke-opacity="0.2" stroke-width="4" stroke-linecap="round" stroke-dasharray="10 10"/>
<path d="M156.182 289.818C154.425 288.061 151.575 288.061 149.818 289.818C148.061 291.575 148.061 294.425 149.818 296.182C159.211 305.575 167.746 311 180 311C192.254 311 200.789 305.575 210.182 296.182C211.939 294.425 211.939 291.575 210.182 289.818C208.425 288.061 205.575 288.061 203.818 289.818C195.211 298.425 188.84 302 180 302C171.16 302 164.789 298.425 156.182 289.818Z" stroke="#008C8C" stroke-opacity="0.2" stroke-width="4" stroke-linecap="round" stroke-dasharray="10 10"/>
<path fill-rule="evenodd" clip-rule="evenodd" d="M252 234.5C252 261.838 231.35 284 216.006 284C200.663 284 180.243 260.372 180.012 234.5C179.782 208.628 182.458 185 216.006 185C249.555 185 252 207.162 252 234.5ZM243 234.5C243 245.925 238.663 256.372 232.696 263.921C226.43 271.848 219.751 275 216.006 275C212.472 275 205.856 271.736 199.468 263.455C193.418 255.613 189.107 245.096 189.012 234.42C188.895 221.277 189.668 211.12 193.298 204.255C194.952 201.128 197.182 198.752 200.396 197.056C203.723 195.301 208.638 194 216.006 194C223.456 194 228.396 195.237 231.718 196.919C234.897 198.529 237.054 200.772 238.653 203.752C242.224 210.411 243 220.487 243 234.5Z" fill="#272D69"/>
</svg>
