<svg width="360" height="780" viewBox="0 0 360 780" fill="none" xmlns="http://www.w3.org/2000/svg">
<g clip-path="url(#clip0_1_1546)">
<rect width="360" height="780" rx="30" fill="#008080"/>
<rect opacity="0.1" x="40" y="105" width="280" height="285" rx="140" fill="white"/>
<path d="M118.053 467.216H128.389C130.907 467.216 132.859 467.824 134.245 469.04C135.653 470.256 136.357 471.909 136.357 474C136.357 476.069 135.653 477.723 134.245 478.96C132.837 480.176 130.885 480.784 128.389 480.784H123.045V490H118.053V467.216ZM127.749 476.976C130.352 476.976 131.653 475.995 131.653 474.032C131.653 472.048 130.352 471.056 127.749 471.056H123.045V476.976H127.749ZM149.455 473.392C150.137 473.392 150.713 473.499 151.183 473.712L151.151 478.128C150.361 477.765 149.572 477.584 148.783 477.584C147.503 477.584 146.521 477.936 145.839 478.64C145.177 479.323 144.847 480.283 144.847 481.52V490H140.015V478.416C140.015 476.688 139.929 475.141 139.759 473.776H144.303L144.623 476.56C145.028 475.536 145.657 474.757 146.51 474.224C147.385 473.669 148.367 473.392 149.455 473.392ZM168.387 482.288H157.699C157.784 483.803 158.179 484.912 158.883 485.616C159.587 486.299 160.632 486.64 162.019 486.64C162.851 486.64 163.683 486.501 164.515 486.224C165.347 485.947 166.115 485.541 166.819 485.008L168.099 488.272C167.331 488.891 166.371 489.381 165.219 489.744C164.088 490.085 162.947 490.256 161.795 490.256C159.064 490.256 156.92 489.509 155.363 488.016C153.806 486.501 153.027 484.443 153.027 481.84C153.027 480.197 153.358 478.736 154.019 477.456C154.702 476.155 155.651 475.152 156.867 474.448C158.083 473.723 159.459 473.36 160.995 473.36C163.278 473.36 165.08 474.107 166.403 475.6C167.726 477.072 168.387 479.067 168.387 481.584V482.288ZM161.123 476.752C160.206 476.752 159.459 477.019 158.883 477.552C158.328 478.085 157.966 478.864 157.795 479.888H164.227C163.971 477.797 162.936 476.752 161.123 476.752ZM182.341 473.36C183.727 473.36 184.965 473.723 186.053 474.448C187.141 475.152 187.983 476.155 188.581 477.456C189.199 478.757 189.509 480.24 189.509 481.904C189.509 483.568 189.21 485.04 188.613 486.32C188.015 487.579 187.173 488.549 186.085 489.232C184.997 489.915 183.749 490.256 182.341 490.256C181.21 490.256 180.197 490.021 179.301 489.552C178.405 489.083 177.722 488.432 177.253 487.6V496.912H172.421V478.416C172.421 476.688 172.335 475.141 172.165 473.776H176.709L177.029 476.464C177.455 475.504 178.138 474.747 179.077 474.192C180.037 473.637 181.125 473.36 182.341 473.36ZM180.965 486.576C182.159 486.576 183.077 486.181 183.717 485.392C184.357 484.581 184.677 483.419 184.677 481.904C184.677 480.389 184.346 479.205 183.685 478.352C183.045 477.499 182.138 477.072 180.965 477.072C179.77 477.072 178.842 477.488 178.181 478.32C177.541 479.131 177.221 480.304 177.221 481.84C177.221 483.376 177.541 484.549 178.181 485.36C178.842 486.171 179.77 486.576 180.965 486.576ZM209.864 473.776V490H205.096V487.6C204.606 488.432 203.912 489.083 203.016 489.552C202.12 490.021 201.107 490.256 199.976 490.256C198.568 490.256 197.32 489.915 196.232 489.232C195.166 488.549 194.323 487.579 193.704 486.32C193.107 485.04 192.808 483.568 192.808 481.904C192.808 480.24 193.107 478.757 193.704 477.456C194.323 476.155 195.176 475.152 196.264 474.448C197.352 473.723 198.59 473.36 199.976 473.36C201.107 473.36 202.12 473.605 203.016 474.096C203.912 474.587 204.606 475.248 205.096 476.08V473.776H209.864ZM201.384 486.576C202.579 486.576 203.496 486.171 204.136 485.36C204.776 484.549 205.096 483.376 205.096 481.84C205.096 480.304 204.776 479.131 204.136 478.32C203.496 477.488 202.579 477.072 201.384 477.072C200.19 477.072 199.262 477.499 198.6 478.352C197.939 479.205 197.608 480.389 197.608 481.904C197.608 483.419 197.928 484.581 198.568 485.392C199.23 486.181 200.168 486.576 201.384 486.576ZM224.205 473.392C224.887 473.392 225.463 473.499 225.933 473.712L225.901 478.128C225.111 477.765 224.322 477.584 223.533 477.584C222.253 477.584 221.271 477.936 220.589 478.64C219.927 479.323 219.597 480.283 219.597 481.52V490H214.765V478.416C214.765 476.688 214.679 475.141 214.509 473.776H219.053L219.373 476.56C219.778 475.536 220.407 474.757 221.26 474.224C222.135 473.669 223.117 473.392 224.205 473.392ZM243.137 482.288H232.449C232.534 483.803 232.929 484.912 233.633 485.616C234.337 486.299 235.382 486.64 236.769 486.64C237.601 486.64 238.433 486.501 239.265 486.224C240.097 485.947 240.865 485.541 241.569 485.008L242.849 488.272C242.081 488.891 241.121 489.381 239.969 489.744C238.838 490.085 237.697 490.256 236.545 490.256C233.814 490.256 231.67 489.509 230.113 488.016C228.556 486.501 227.777 484.443 227.777 481.84C227.777 480.197 228.108 478.736 228.769 477.456C229.452 476.155 230.401 475.152 231.617 474.448C232.833 473.723 234.209 473.36 235.745 473.36C238.028 473.36 239.83 474.107 241.153 475.6C242.476 477.072 243.137 479.067 243.137 481.584V482.288ZM235.873 476.752C234.956 476.752 234.209 477.019 233.633 477.552C233.078 478.085 232.716 478.864 232.545 479.888H238.977C238.721 477.797 237.686 476.752 235.873 476.752Z" fill="white"/>
<path d="M77.8303 539V527.72H78.9823L83.5103 537.944H83.0463L87.5743 527.72H88.7263V539H87.5103V529.432H87.9903L83.7183 539H82.8383L78.5503 529.432H79.0303V539H77.8303ZM94.4606 539.144C93.746 539.144 93.122 538.979 92.5886 538.648C92.0553 538.307 91.6393 537.827 91.3406 537.208C91.0526 536.589 90.9086 535.848 90.9086 534.984C90.9086 534.109 91.0526 533.363 91.3406 532.744C91.6393 532.125 92.0553 531.651 92.5886 531.32C93.122 530.989 93.746 530.824 94.4606 530.824C95.186 530.824 95.81 531.011 96.3326 531.384C96.866 531.747 97.218 532.243 97.3886 532.872H97.1966L97.3726 530.968H98.6206C98.5886 531.277 98.5566 531.592 98.5246 531.912C98.5033 532.221 98.4926 532.525 98.4926 532.824V539H97.1966V537.112H97.3726C97.202 537.741 96.85 538.237 96.3166 538.6C95.7833 538.963 95.1646 539.144 94.4606 539.144ZM94.7166 538.088C95.4846 538.088 96.0926 537.827 96.5406 537.304C96.9886 536.771 97.2126 535.997 97.2126 534.984C97.2126 533.96 96.9886 533.187 96.5406 532.664C96.0926 532.131 95.4846 531.864 94.7166 531.864C93.9593 531.864 93.3513 532.131 92.8926 532.664C92.4446 533.187 92.2206 533.96 92.2206 534.984C92.2206 535.997 92.4446 536.771 92.8926 537.304C93.3513 537.827 93.9593 538.088 94.7166 538.088ZM100.998 539V527.224H102.294V534.536H102.326L106.054 530.968H107.686L103.286 535.16L103.318 534.504L108.102 539H106.422L102.326 535.224H102.294V539H100.998ZM112.598 539.144C111.339 539.144 110.347 538.781 109.622 538.056C108.896 537.32 108.534 536.301 108.534 535C108.534 534.157 108.694 533.427 109.014 532.808C109.334 532.179 109.782 531.693 110.358 531.352C110.934 531 111.595 530.824 112.342 530.824C113.078 530.824 113.696 530.979 114.198 531.288C114.699 531.597 115.083 532.04 115.35 532.616C115.616 533.181 115.75 533.853 115.75 534.632V535.112H109.526V534.296H114.902L114.63 534.504C114.63 533.651 114.438 532.984 114.054 532.504C113.67 532.024 113.099 531.784 112.342 531.784C111.542 531.784 110.918 532.067 110.47 532.632C110.022 533.187 109.798 533.939 109.798 534.888V535.032C109.798 536.035 110.043 536.797 110.534 537.32C111.035 537.832 111.734 538.088 112.63 538.088C113.11 538.088 113.558 538.019 113.974 537.88C114.4 537.731 114.806 537.491 115.19 537.16L115.638 538.072C115.286 538.413 114.838 538.68 114.294 538.872C113.76 539.053 113.195 539.144 112.598 539.144ZM124.577 539.144C123.937 539.144 123.339 539.059 122.785 538.888C122.23 538.707 121.771 538.456 121.409 538.136L121.857 537.224C122.251 537.533 122.678 537.763 123.137 537.912C123.606 538.061 124.091 538.136 124.593 538.136C125.233 538.136 125.713 538.024 126.033 537.8C126.363 537.565 126.529 537.245 126.529 536.84C126.529 536.531 126.422 536.285 126.209 536.104C126.006 535.912 125.67 535.763 125.201 535.656L123.713 535.352C123.03 535.203 122.518 534.952 122.177 534.6C121.835 534.237 121.665 533.779 121.665 533.224C121.665 532.755 121.787 532.344 122.033 531.992C122.278 531.629 122.635 531.347 123.105 531.144C123.574 530.931 124.123 530.824 124.753 530.824C125.339 530.824 125.878 530.915 126.369 531.096C126.87 531.267 127.286 531.517 127.617 531.848L127.153 532.744C126.833 532.435 126.465 532.205 126.049 532.056C125.643 531.896 125.222 531.816 124.785 531.816C124.155 531.816 123.681 531.944 123.361 532.2C123.051 532.445 122.897 532.771 122.897 533.176C122.897 533.485 122.993 533.741 123.185 533.944C123.387 534.136 123.697 534.28 124.113 534.376L125.601 534.68C126.326 534.84 126.865 535.091 127.217 535.432C127.579 535.763 127.761 536.211 127.761 536.776C127.761 537.256 127.627 537.677 127.361 538.04C127.094 538.392 126.721 538.664 126.241 538.856C125.771 539.048 125.217 539.144 124.577 539.144ZM132.674 539.144C131.725 539.144 131.005 538.883 130.514 538.36C130.034 537.837 129.794 537.037 129.794 535.96V530.968H131.09V535.928C131.09 536.664 131.239 537.208 131.538 537.56C131.837 537.901 132.301 538.072 132.93 538.072C133.634 538.072 134.199 537.843 134.626 537.384C135.053 536.925 135.266 536.312 135.266 535.544V530.968H136.562V539H135.298V537.192H135.506C135.282 537.811 134.919 538.291 134.418 538.632C133.927 538.973 133.346 539.144 132.674 539.144ZM139.045 539V532.904C139.045 532.584 139.034 532.259 139.013 531.928C139.002 531.597 138.981 531.277 138.949 530.968H140.197L140.357 532.92L140.133 532.936C140.239 532.456 140.426 532.061 140.693 531.752C140.959 531.443 141.274 531.213 141.637 531.064C141.999 530.904 142.378 530.824 142.773 530.824C142.933 530.824 143.071 530.829 143.189 530.84C143.317 530.851 143.434 530.877 143.541 530.92L143.525 532.072C143.365 532.019 143.215 531.987 143.077 531.976C142.949 531.955 142.799 531.944 142.629 531.944C142.159 531.944 141.749 532.056 141.397 532.28C141.055 532.504 140.794 532.792 140.613 533.144C140.442 533.496 140.357 533.869 140.357 534.264V539H139.045ZM148.363 539.144C147.105 539.144 146.113 538.781 145.387 538.056C144.662 537.32 144.299 536.301 144.299 535C144.299 534.157 144.459 533.427 144.779 532.808C145.099 532.179 145.547 531.693 146.123 531.352C146.699 531 147.361 530.824 148.107 530.824C148.843 530.824 149.462 530.979 149.963 531.288C150.465 531.597 150.849 532.04 151.115 532.616C151.382 533.181 151.515 533.853 151.515 534.632V535.112H145.291V534.296H150.667L150.395 534.504C150.395 533.651 150.203 532.984 149.819 532.504C149.435 532.024 148.865 531.784 148.107 531.784C147.307 531.784 146.683 532.067 146.235 532.632C145.787 533.187 145.563 533.939 145.563 534.888V535.032C145.563 536.035 145.809 536.797 146.299 537.32C146.801 537.832 147.499 538.088 148.395 538.088C148.875 538.088 149.323 538.019 149.739 537.88C150.166 537.731 150.571 537.491 150.955 537.16L151.403 538.072C151.051 538.413 150.603 538.68 150.059 538.872C149.526 539.053 148.961 539.144 148.363 539.144ZM157.35 542.632L157.046 541.56C157.548 541.443 157.964 541.304 158.294 541.144C158.636 540.995 158.918 540.792 159.142 540.536C159.366 540.28 159.558 539.96 159.718 539.576L160.134 538.632L160.102 539.176L156.598 530.968H158.006L160.902 538.024H160.486L163.35 530.968H164.71L160.998 539.672C160.785 540.184 160.55 540.611 160.294 540.952C160.038 541.304 159.761 541.587 159.462 541.8C159.174 542.024 158.854 542.2 158.502 542.328C158.15 542.456 157.766 542.557 157.35 542.632ZM169.357 539.144C168.589 539.144 167.917 538.979 167.341 538.648C166.776 538.307 166.338 537.827 166.029 537.208C165.72 536.579 165.565 535.837 165.565 534.984C165.565 534.12 165.72 533.379 166.029 532.76C166.338 532.141 166.776 531.667 167.341 531.336C167.917 530.995 168.589 530.824 169.357 530.824C170.136 530.824 170.808 530.995 171.373 531.336C171.949 531.667 172.392 532.141 172.701 532.76C173.021 533.379 173.181 534.12 173.181 534.984C173.181 535.837 173.021 536.579 172.701 537.208C172.392 537.827 171.949 538.307 171.373 538.648C170.808 538.979 170.136 539.144 169.357 539.144ZM169.357 538.088C170.125 538.088 170.733 537.827 171.181 537.304C171.629 536.771 171.853 535.997 171.853 534.984C171.853 533.96 171.624 533.187 171.165 532.664C170.717 532.131 170.114 531.864 169.357 531.864C168.6 531.864 167.997 532.131 167.549 532.664C167.101 533.187 166.877 533.96 166.877 534.984C166.877 535.997 167.101 536.771 167.549 537.304C167.997 537.827 168.6 538.088 169.357 538.088ZM178.034 539.144C177.084 539.144 176.364 538.883 175.874 538.36C175.394 537.837 175.154 537.037 175.154 535.96V530.968H176.45V535.928C176.45 536.664 176.599 537.208 176.898 537.56C177.196 537.901 177.66 538.072 178.29 538.072C178.994 538.072 179.559 537.843 179.986 537.384C180.412 536.925 180.626 536.312 180.626 535.544V530.968H181.922V539H180.658V537.192H180.866C180.642 537.811 180.279 538.291 179.778 538.632C179.287 538.973 178.706 539.144 178.034 539.144ZM191.664 539.144C190.949 539.144 190.325 538.979 189.792 538.648C189.258 538.307 188.842 537.827 188.544 537.208C188.256 536.589 188.112 535.848 188.112 534.984C188.112 534.109 188.256 533.363 188.544 532.744C188.842 532.125 189.258 531.651 189.792 531.32C190.325 530.989 190.949 530.824 191.664 530.824C192.389 530.824 193.013 531.011 193.536 531.384C194.069 531.747 194.421 532.243 194.592 532.872H194.4L194.576 530.968H195.824C195.792 531.277 195.76 531.592 195.728 531.912C195.706 532.221 195.696 532.525 195.696 532.824V539H194.4V537.112H194.576C194.405 537.741 194.053 538.237 193.52 538.6C192.986 538.963 192.368 539.144 191.664 539.144ZM191.92 538.088C192.688 538.088 193.296 537.827 193.744 537.304C194.192 536.771 194.416 535.997 194.416 534.984C194.416 533.96 194.192 533.187 193.744 532.664C193.296 532.131 192.688 531.864 191.92 531.864C191.162 531.864 190.554 532.131 190.096 532.664C189.648 533.187 189.424 533.96 189.424 534.984C189.424 535.997 189.648 536.771 190.096 537.304C190.554 537.827 191.162 538.088 191.92 538.088ZM198.17 539V532.904C198.17 532.584 198.159 532.259 198.138 531.928C198.127 531.597 198.106 531.277 198.074 530.968H199.322L199.482 532.92L199.258 532.936C199.364 532.456 199.551 532.061 199.818 531.752C200.084 531.443 200.399 531.213 200.762 531.064C201.124 530.904 201.503 530.824 201.898 530.824C202.058 530.824 202.196 530.829 202.314 530.84C202.442 530.851 202.559 530.877 202.666 530.92L202.65 532.072C202.49 532.019 202.34 531.987 202.202 531.976C202.074 531.955 201.924 531.944 201.754 531.944C201.284 531.944 200.874 532.056 200.522 532.28C200.18 532.504 199.919 532.792 199.738 533.144C199.567 533.496 199.482 533.869 199.482 534.264V539H198.17ZM207.488 539.144C206.23 539.144 205.238 538.781 204.512 538.056C203.787 537.32 203.424 536.301 203.424 535C203.424 534.157 203.584 533.427 203.904 532.808C204.224 532.179 204.672 531.693 205.248 531.352C205.824 531 206.486 530.824 207.232 530.824C207.968 530.824 208.587 530.979 209.088 531.288C209.59 531.597 209.974 532.04 210.24 532.616C210.507 533.181 210.64 533.853 210.64 534.632V535.112H204.416V534.296H209.792L209.52 534.504C209.52 533.651 209.328 532.984 208.944 532.504C208.56 532.024 207.99 531.784 207.232 531.784C206.432 531.784 205.808 532.067 205.36 532.632C204.912 533.187 204.688 533.939 204.688 534.888V535.032C204.688 536.035 204.934 536.797 205.424 537.32C205.926 537.832 206.624 538.088 207.52 538.088C208 538.088 208.448 538.019 208.864 537.88C209.291 537.731 209.696 537.491 210.08 537.16L210.528 538.072C210.176 538.413 209.728 538.68 209.184 538.872C208.651 539.053 208.086 539.144 207.488 539.144ZM216.795 539V530.968H218.091V539H216.795ZM216.635 529.144V527.688H218.235V529.144H216.635ZM220.608 539V532.824C220.608 532.525 220.592 532.221 220.56 531.912C220.538 531.592 220.512 531.277 220.48 530.968H221.728L221.888 532.728H221.696C221.93 532.109 222.304 531.64 222.816 531.32C223.338 530.989 223.941 530.824 224.624 530.824C225.573 530.824 226.288 531.08 226.768 531.592C227.258 532.093 227.504 532.888 227.504 533.976V539H226.208V534.056C226.208 533.299 226.053 532.749 225.744 532.408C225.445 532.056 224.976 531.88 224.336 531.88C223.589 531.88 222.997 532.109 222.56 532.568C222.122 533.027 221.904 533.64 221.904 534.408V539H220.608ZM237.211 539.144C236.496 539.144 235.872 538.979 235.339 538.648C234.805 538.307 234.389 537.827 234.091 537.208C233.803 536.589 233.659 535.848 233.659 534.984C233.659 534.109 233.803 533.363 234.091 532.744C234.389 532.125 234.805 531.651 235.339 531.32C235.872 530.989 236.496 530.824 237.211 530.824C237.936 530.824 238.56 531.011 239.083 531.384C239.616 531.747 239.968 532.243 240.139 532.872H239.947L240.123 530.968H241.371C241.339 531.277 241.307 531.592 241.275 531.912C241.253 532.221 241.243 532.525 241.243 532.824V539H239.947V537.112H240.123C239.952 537.741 239.6 538.237 239.067 538.6C238.533 538.963 237.915 539.144 237.211 539.144ZM237.467 538.088C238.235 538.088 238.843 537.827 239.291 537.304C239.739 536.771 239.963 535.997 239.963 534.984C239.963 533.96 239.739 533.187 239.291 532.664C238.843 532.131 238.235 531.864 237.467 531.864C236.709 531.864 236.101 532.131 235.643 532.664C235.195 533.187 234.971 533.96 234.971 534.984C234.971 535.997 235.195 536.771 235.643 537.304C236.101 537.827 236.709 538.088 237.467 538.088ZM253.712 542.456V537.112H253.888C253.718 537.741 253.366 538.237 252.832 538.6C252.299 538.963 251.68 539.144 250.976 539.144C250.262 539.144 249.638 538.979 249.104 538.648C248.571 538.307 248.155 537.827 247.856 537.208C247.568 536.589 247.424 535.848 247.424 534.984C247.424 534.109 247.568 533.363 247.856 532.744C248.155 532.125 248.571 531.651 249.104 531.32C249.638 530.989 250.262 530.824 250.976 530.824C251.702 530.824 252.326 531.011 252.848 531.384C253.382 531.747 253.734 532.243 253.904 532.872H253.712L253.888 530.968H255.136C255.104 531.277 255.072 531.592 255.04 531.912C255.019 532.221 255.008 532.525 255.008 532.824V542.456H253.712ZM251.232 538.088C252 538.088 252.608 537.827 253.056 537.304C253.504 536.771 253.728 535.997 253.728 534.984C253.728 533.96 253.504 533.187 253.056 532.664C252.608 532.131 252 531.864 251.232 531.864C250.475 531.864 249.867 532.131 249.408 532.664C248.96 533.187 248.736 533.96 248.736 534.984C248.736 535.997 248.96 536.771 249.408 537.304C249.867 537.827 250.475 538.088 251.232 538.088ZM260.346 539.144C259.397 539.144 258.677 538.883 258.186 538.36C257.706 537.837 257.466 537.037 257.466 535.96V530.968H258.762V535.928C258.762 536.664 258.911 537.208 259.21 537.56C259.509 537.901 259.973 538.072 260.602 538.072C261.306 538.072 261.871 537.843 262.298 537.384C262.725 536.925 262.938 536.312 262.938 535.544V530.968H264.234V539H262.97V537.192H263.178C262.954 537.811 262.591 538.291 262.09 538.632C261.599 538.973 261.018 539.144 260.346 539.144ZM266.748 539V530.968H268.044V539H266.748ZM266.588 529.144V527.688H268.188V529.144H266.588ZM274.129 539.144C272.87 539.144 271.878 538.781 271.153 538.056C270.428 537.32 270.065 536.301 270.065 535C270.065 534.157 270.225 533.427 270.545 532.808C270.865 532.179 271.313 531.693 271.889 531.352C272.465 531 273.126 530.824 273.873 530.824C274.609 530.824 275.228 530.979 275.729 531.288C276.23 531.597 276.614 532.04 276.881 532.616C277.148 533.181 277.281 533.853 277.281 534.632V535.112H271.057V534.296H276.433L276.161 534.504C276.161 533.651 275.969 532.984 275.585 532.504C275.201 532.024 274.63 531.784 273.873 531.784C273.073 531.784 272.449 532.067 272.001 532.632C271.553 533.187 271.329 533.939 271.329 534.888V535.032C271.329 536.035 271.574 536.797 272.065 537.32C272.566 537.832 273.265 538.088 274.161 538.088C274.641 538.088 275.089 538.019 275.505 537.88C275.932 537.731 276.337 537.491 276.721 537.16L277.169 538.072C276.817 538.413 276.369 538.68 275.825 538.872C275.292 539.053 274.726 539.144 274.129 539.144ZM282.112 539.144C281.323 539.144 280.72 538.92 280.304 538.472C279.888 538.013 279.68 537.325 279.68 536.408V531.976H278.112V530.968H279.68V528.776L280.976 528.408V530.968H283.28V531.976H280.976V536.264C280.976 536.904 281.083 537.363 281.296 537.64C281.52 537.907 281.851 538.04 282.288 538.04C282.491 538.04 282.672 538.024 282.832 537.992C282.992 537.949 283.136 537.901 283.264 537.848V538.936C283.115 539 282.933 539.048 282.72 539.08C282.517 539.123 282.315 539.144 282.112 539.144ZM136.77 561.144C135.511 561.144 134.519 560.781 133.794 560.056C133.068 559.32 132.706 558.301 132.706 557C132.706 556.157 132.866 555.427 133.186 554.808C133.506 554.179 133.954 553.693 134.53 553.352C135.106 553 135.767 552.824 136.514 552.824C137.25 552.824 137.868 552.979 138.37 553.288C138.871 553.597 139.255 554.04 139.522 554.616C139.788 555.181 139.922 555.853 139.922 556.632V557.112H133.698V556.296H139.074L138.802 556.504C138.802 555.651 138.61 554.984 138.226 554.504C137.842 554.024 137.271 553.784 136.514 553.784C135.714 553.784 135.09 554.067 134.642 554.632C134.194 555.187 133.97 555.939 133.97 556.888V557.032C133.97 558.035 134.215 558.797 134.706 559.32C135.207 559.832 135.906 560.088 136.802 560.088C137.282 560.088 137.73 560.019 138.146 559.88C138.572 559.731 138.978 559.491 139.362 559.16L139.81 560.072C139.458 560.413 139.01 560.68 138.466 560.872C137.932 561.053 137.367 561.144 136.77 561.144ZM141.905 561V554.824C141.905 554.525 141.889 554.221 141.857 553.912C141.835 553.592 141.809 553.277 141.777 552.968H143.025L143.185 554.728H142.993C143.227 554.109 143.601 553.64 144.113 553.32C144.635 552.989 145.238 552.824 145.921 552.824C146.87 552.824 147.585 553.08 148.065 553.592C148.555 554.093 148.801 554.888 148.801 555.976V561H147.505V556.056C147.505 555.299 147.35 554.749 147.041 554.408C146.742 554.056 146.273 553.88 145.633 553.88C144.886 553.88 144.294 554.109 143.857 554.568C143.419 555.027 143.201 555.64 143.201 556.408V561H141.905ZM153.57 561L150.13 552.968H151.538L154.418 560.04H153.986L156.898 552.968H158.242L154.802 561H153.57ZM159.702 561V552.968H160.998V561H159.702ZM159.542 551.144V549.688H161.142V551.144H159.542ZM163.482 561V554.904C163.482 554.584 163.471 554.259 163.45 553.928C163.439 553.597 163.418 553.277 163.386 552.968H164.634L164.794 554.92L164.57 554.936C164.677 554.456 164.863 554.061 165.13 553.752C165.397 553.443 165.711 553.213 166.074 553.064C166.437 552.904 166.815 552.824 167.21 552.824C167.37 552.824 167.509 552.829 167.626 552.84C167.754 552.851 167.871 552.877 167.978 552.92L167.962 554.072C167.802 554.019 167.653 553.987 167.514 553.976C167.386 553.955 167.237 553.944 167.066 553.944C166.597 553.944 166.186 554.056 165.834 554.28C165.493 554.504 165.231 554.792 165.05 555.144C164.879 555.496 164.794 555.869 164.794 556.264V561H163.482ZM172.529 561.144C171.761 561.144 171.089 560.979 170.513 560.648C169.947 560.307 169.51 559.827 169.201 559.208C168.891 558.579 168.737 557.837 168.737 556.984C168.737 556.12 168.891 555.379 169.201 554.76C169.51 554.141 169.947 553.667 170.513 553.336C171.089 552.995 171.761 552.824 172.529 552.824C173.307 552.824 173.979 552.995 174.545 553.336C175.121 553.667 175.563 554.141 175.873 554.76C176.193 555.379 176.353 556.12 176.353 556.984C176.353 557.837 176.193 558.579 175.873 559.208C175.563 559.827 175.121 560.307 174.545 560.648C173.979 560.979 173.307 561.144 172.529 561.144ZM172.529 560.088C173.297 560.088 173.905 559.827 174.353 559.304C174.801 558.771 175.025 557.997 175.025 556.984C175.025 555.96 174.795 555.187 174.337 554.664C173.889 554.131 173.286 553.864 172.529 553.864C171.771 553.864 171.169 554.131 170.721 554.664C170.273 555.187 170.049 555.96 170.049 556.984C170.049 557.997 170.273 558.771 170.721 559.304C171.169 559.827 171.771 560.088 172.529 560.088ZM178.373 561V554.824C178.373 554.525 178.357 554.221 178.325 553.912C178.304 553.592 178.277 553.277 178.245 552.968H179.493L179.653 554.728H179.461C179.696 554.109 180.069 553.64 180.581 553.32C181.104 552.989 181.707 552.824 182.389 552.824C183.339 552.824 184.053 553.08 184.533 553.592C185.024 554.093 185.269 554.888 185.269 555.976V561H183.973V556.056C183.973 555.299 183.819 554.749 183.509 554.408C183.211 554.056 182.741 553.88 182.101 553.88C181.355 553.88 180.763 554.109 180.325 554.568C179.888 555.027 179.669 555.64 179.669 556.408V561H178.373ZM187.748 561V554.824C187.748 554.525 187.732 554.221 187.7 553.912C187.679 553.592 187.652 553.277 187.62 552.968H188.868L189.028 554.728H188.836C189.05 554.12 189.386 553.651 189.844 553.32C190.314 552.989 190.879 552.824 191.54 552.824C192.212 552.824 192.756 552.984 193.172 553.304C193.599 553.624 193.887 554.12 194.036 554.792H193.796C193.999 554.184 194.356 553.704 194.868 553.352C195.38 553 195.978 552.824 196.66 552.824C197.546 552.824 198.212 553.08 198.66 553.592C199.108 554.093 199.332 554.888 199.332 555.976V561H198.036V556.056C198.036 555.299 197.903 554.749 197.636 554.408C197.37 554.056 196.943 553.88 196.356 553.88C195.684 553.88 195.151 554.115 194.756 554.584C194.372 555.043 194.18 555.661 194.18 556.44V561H192.884V556.056C192.884 555.299 192.751 554.749 192.484 554.408C192.218 554.056 191.791 553.88 191.204 553.88C190.532 553.88 190.004 554.115 189.62 554.584C189.236 555.043 189.044 555.661 189.044 556.44V561H187.748ZM205.363 561.144C204.105 561.144 203.113 560.781 202.387 560.056C201.662 559.32 201.299 558.301 201.299 557C201.299 556.157 201.459 555.427 201.779 554.808C202.099 554.179 202.547 553.693 203.123 553.352C203.699 553 204.361 552.824 205.107 552.824C205.843 552.824 206.462 552.979 206.963 553.288C207.465 553.597 207.849 554.04 208.115 554.616C208.382 555.181 208.515 555.853 208.515 556.632V557.112H202.291V556.296H207.667L207.395 556.504C207.395 555.651 207.203 554.984 206.819 554.504C206.435 554.024 205.865 553.784 205.107 553.784C204.307 553.784 203.683 554.067 203.235 554.632C202.787 555.187 202.563 555.939 202.563 556.888V557.032C202.563 558.035 202.809 558.797 203.299 559.32C203.801 559.832 204.499 560.088 205.395 560.088C205.875 560.088 206.323 560.019 206.739 559.88C207.166 559.731 207.571 559.491 207.955 559.16L208.403 560.072C208.051 560.413 207.603 560.68 207.059 560.872C206.526 561.053 205.961 561.144 205.363 561.144ZM210.498 561V554.824C210.498 554.525 210.482 554.221 210.45 553.912C210.429 553.592 210.402 553.277 210.37 552.968H211.618L211.778 554.728H211.586C211.821 554.109 212.194 553.64 212.706 553.32C213.229 552.989 213.832 552.824 214.514 552.824C215.464 552.824 216.178 553.08 216.658 553.592C217.149 554.093 217.394 554.888 217.394 555.976V561H216.098V556.056C216.098 555.299 215.944 554.749 215.634 554.408C215.336 554.056 214.866 553.88 214.226 553.88C213.48 553.88 212.888 554.109 212.45 554.568C212.013 555.027 211.794 555.64 211.794 556.408V561H210.498ZM222.721 561.144C221.932 561.144 221.329 560.92 220.913 560.472C220.497 560.013 220.289 559.325 220.289 558.408V553.976H218.721V552.968H220.289V550.776L221.585 550.408V552.968H223.889V553.976H221.585V558.264C221.585 558.904 221.692 559.363 221.905 559.64C222.129 559.907 222.46 560.04 222.897 560.04C223.1 560.04 223.281 560.024 223.441 559.992C223.601 559.949 223.745 559.901 223.873 559.848V560.936C223.724 561 223.543 561.048 223.329 561.08C223.127 561.123 222.924 561.144 222.721 561.144ZM225.43 561V559.368H227.062V561H225.43ZM47.5748 583V577.736L47.8628 578.632L43.1908 571.72H44.7268L48.4388 577.336H48.1028L51.7988 571.72H53.2708L48.6148 578.632L48.9028 577.736V583H47.5748ZM56.3959 583.144C55.6279 583.144 54.9559 582.979 54.3799 582.648C53.8146 582.307 53.3773 581.827 53.0679 581.208C52.7586 580.579 52.6039 579.837 52.6039 578.984C52.6039 578.12 52.7586 577.379 53.0679 576.76C53.3773 576.141 53.8146 575.667 54.3799 575.336C54.9559 574.995 55.6279 574.824 56.3959 574.824C57.1746 574.824 57.8466 574.995 58.4119 575.336C58.9879 575.667 59.4306 576.141 59.7399 576.76C60.0599 577.379 60.2199 578.12 60.2199 578.984C60.2199 579.837 60.0599 580.579 59.7399 581.208C59.4306 581.827 58.9879 582.307 58.4119 582.648C57.8466 582.979 57.1746 583.144 56.3959 583.144ZM56.3959 582.088C57.1639 582.088 57.7719 581.827 58.2199 581.304C58.6679 580.771 58.8919 579.997 58.8919 578.984C58.8919 577.96 58.6626 577.187 58.2039 576.664C57.7559 576.131 57.1533 575.864 56.3959 575.864C55.6386 575.864 55.0359 576.131 54.5879 576.664C54.1399 577.187 53.9159 577.96 53.9159 578.984C53.9159 579.997 54.1399 580.771 54.5879 581.304C55.0359 581.827 55.6386 582.088 56.3959 582.088ZM65.0726 583.144C64.1232 583.144 63.4032 582.883 62.9126 582.36C62.4326 581.837 62.1926 581.037 62.1926 579.96V574.968H63.4886V579.928C63.4886 580.664 63.6379 581.208 63.9366 581.56C64.2352 581.901 64.6992 582.072 65.3286 582.072C66.0326 582.072 66.5979 581.843 67.0246 581.384C67.4512 580.925 67.6646 580.312 67.6646 579.544V574.968H68.9606V583H67.6966V581.192H67.9046C67.6806 581.811 67.3179 582.291 66.8166 582.632C66.3259 582.973 65.7446 583.144 65.0726 583.144ZM78.3188 583.144C77.6788 583.144 77.0815 583.059 76.5268 582.888C75.9721 582.707 75.5135 582.456 75.1508 582.136L75.5988 581.224C75.9935 581.533 76.4201 581.763 76.8788 581.912C77.3481 582.061 77.8335 582.136 78.3348 582.136C78.9748 582.136 79.4548 582.024 79.7748 581.8C80.1055 581.565 80.2708 581.245 80.2708 580.84C80.2708 580.531 80.1641 580.285 79.9508 580.104C79.7481 579.912 79.4121 579.763 78.9428 579.656L77.4548 579.352C76.7721 579.203 76.2601 578.952 75.9188 578.6C75.5775 578.237 75.4068 577.779 75.4068 577.224C75.4068 576.755 75.5295 576.344 75.7748 575.992C76.0201 575.629 76.3775 575.347 76.8468 575.144C77.3161 574.931 77.8655 574.824 78.4948 574.824C79.0815 574.824 79.6201 574.915 80.1108 575.096C80.6121 575.267 81.0281 575.517 81.3588 575.848L80.8948 576.744C80.5748 576.435 80.2068 576.205 79.7908 576.056C79.3855 575.896 78.9641 575.816 78.5268 575.816C77.8975 575.816 77.4228 575.944 77.1028 576.2C76.7935 576.445 76.6388 576.771 76.6388 577.176C76.6388 577.485 76.7348 577.741 76.9268 577.944C77.1295 578.136 77.4388 578.28 77.8548 578.376L79.3428 578.68C80.0681 578.84 80.6068 579.091 80.9588 579.432C81.3215 579.763 81.5028 580.211 81.5028 580.776C81.5028 581.256 81.3695 581.677 81.1028 582.04C80.8361 582.392 80.4628 582.664 79.9828 582.856C79.5135 583.048 78.9588 583.144 78.3188 583.144ZM83.5843 583V571.224H84.8803V576.744H84.6723C84.8963 576.115 85.2696 575.64 85.7923 575.32C86.3256 574.989 86.939 574.824 87.6323 574.824C88.5923 574.824 89.307 575.085 89.7763 575.608C90.2456 576.12 90.4803 576.899 90.4803 577.944V583H89.1843V578.024C89.1843 577.277 89.035 576.733 88.7363 576.392C88.4483 576.051 87.979 575.88 87.3283 575.88C86.5816 575.88 85.9843 576.109 85.5363 576.568C85.099 577.027 84.8803 577.629 84.8803 578.376V583H83.5843ZM96.2553 583.144C95.4873 583.144 94.8153 582.979 94.2393 582.648C93.674 582.307 93.2366 581.827 92.9273 581.208C92.618 580.579 92.4633 579.837 92.4633 578.984C92.4633 578.12 92.618 577.379 92.9273 576.76C93.2366 576.141 93.674 575.667 94.2393 575.336C94.8153 574.995 95.4873 574.824 96.2553 574.824C97.034 574.824 97.706 574.995 98.2713 575.336C98.8473 575.667 99.29 576.141 99.5993 576.76C99.9193 577.379 100.079 578.12 100.079 578.984C100.079 579.837 99.9193 580.579 99.5993 581.208C99.29 581.827 98.8473 582.307 98.2713 582.648C97.706 582.979 97.034 583.144 96.2553 583.144ZM96.2553 582.088C97.0233 582.088 97.6313 581.827 98.0793 581.304C98.5273 580.771 98.7513 579.997 98.7513 578.984C98.7513 577.96 98.522 577.187 98.0633 576.664C97.6153 576.131 97.0126 575.864 96.2553 575.864C95.498 575.864 94.8953 576.131 94.4473 576.664C93.9993 577.187 93.7753 577.96 93.7753 578.984C93.7753 579.997 93.9993 580.771 94.4473 581.304C94.8953 581.827 95.498 582.088 96.2553 582.088ZM104.932 583.144C103.983 583.144 103.263 582.883 102.772 582.36C102.292 581.837 102.052 581.037 102.052 579.96V574.968H103.348V579.928C103.348 580.664 103.497 581.208 103.796 581.56C104.095 581.901 104.559 582.072 105.188 582.072C105.892 582.072 106.457 581.843 106.884 581.384C107.311 580.925 107.524 580.312 107.524 579.544V574.968H108.82V583H107.556V581.192H107.764C107.54 581.811 107.177 582.291 106.676 582.632C106.185 582.973 105.604 583.144 104.932 583.144ZM111.334 583V571.224H112.63V583H111.334ZM118.187 583.144C117.483 583.144 116.864 582.979 116.331 582.648C115.797 582.307 115.381 581.827 115.083 581.208C114.795 580.589 114.651 579.848 114.651 578.984C114.651 578.109 114.795 577.363 115.083 576.744C115.381 576.125 115.797 575.651 116.331 575.32C116.864 574.989 117.483 574.824 118.187 574.824C118.912 574.824 119.536 575.005 120.059 575.368C120.592 575.731 120.949 576.221 121.131 576.84H120.939V571.224H122.235V583H120.955V581.08H121.131C120.96 581.72 120.608 582.227 120.075 582.6C119.541 582.963 118.912 583.144 118.187 583.144ZM118.459 582.088C119.216 582.088 119.824 581.827 120.283 581.304C120.741 580.771 120.971 579.997 120.971 578.984C120.971 577.96 120.741 577.187 120.283 576.664C119.824 576.131 119.216 575.864 118.459 575.864C117.701 575.864 117.093 576.131 116.635 576.664C116.187 577.187 115.963 577.96 115.963 578.984C115.963 579.997 116.187 580.771 116.635 581.304C117.093 581.827 117.701 582.088 118.459 582.088ZM132.944 583.144C132.219 583.144 131.595 582.963 131.072 582.6C130.55 582.227 130.198 581.72 130.016 581.08H130.192V583H128.912V571.224H130.208V576.84H130.016C130.198 576.221 130.55 575.731 131.072 575.368C131.595 575.005 132.219 574.824 132.944 574.824C133.67 574.824 134.294 574.995 134.816 575.336C135.35 575.667 135.76 576.141 136.048 576.76C136.347 577.379 136.496 578.12 136.496 578.984C136.496 579.848 136.347 580.589 136.048 581.208C135.75 581.827 135.334 582.307 134.8 582.648C134.278 582.979 133.659 583.144 132.944 583.144ZM132.672 582.088C133.43 582.088 134.038 581.827 134.496 581.304C134.955 580.781 135.184 580.008 135.184 578.984C135.184 577.96 134.955 577.187 134.496 576.664C134.038 576.131 133.43 575.864 132.672 575.864C131.915 575.864 131.307 576.131 130.848 576.664C130.4 577.187 130.176 577.96 130.176 578.984C130.176 579.997 130.4 580.771 130.848 581.304C131.307 581.827 131.915 582.088 132.672 582.088ZM142.074 583.144C140.816 583.144 139.824 582.781 139.098 582.056C138.373 581.32 138.01 580.301 138.01 579C138.01 578.157 138.17 577.427 138.49 576.808C138.81 576.179 139.258 575.693 139.834 575.352C140.41 575 141.072 574.824 141.818 574.824C142.554 574.824 143.173 574.979 143.674 575.288C144.176 575.597 144.56 576.04 144.826 576.616C145.093 577.181 145.226 577.853 145.226 578.632V579.112H139.002V578.296H144.378L144.106 578.504C144.106 577.651 143.914 576.984 143.53 576.504C143.146 576.024 142.576 575.784 141.818 575.784C141.018 575.784 140.394 576.067 139.946 576.632C139.498 577.187 139.274 577.939 139.274 578.888V579.032C139.274 580.035 139.52 580.797 140.01 581.32C140.512 581.832 141.21 582.088 142.106 582.088C142.586 582.088 143.034 582.019 143.45 581.88C143.877 581.731 144.282 581.491 144.666 581.16L145.114 582.072C144.762 582.413 144.314 582.68 143.77 582.872C143.237 583.053 142.672 583.144 142.074 583.144ZM154.437 583.144C153.723 583.144 153.099 582.979 152.565 582.648C152.032 582.307 151.616 581.827 151.317 581.208C151.029 580.589 150.885 579.848 150.885 578.984C150.885 578.109 151.029 577.363 151.317 576.744C151.616 576.125 152.032 575.651 152.565 575.32C153.099 574.989 153.723 574.824 154.437 574.824C155.163 574.824 155.787 575.011 156.309 575.384C156.843 575.747 157.195 576.243 157.365 576.872H157.173L157.349 574.968H158.597C158.565 575.277 158.533 575.592 158.501 575.912C158.48 576.221 158.469 576.525 158.469 576.824V583H157.173V581.112H157.349C157.179 581.741 156.827 582.237 156.293 582.6C155.76 582.963 155.141 583.144 154.437 583.144ZM154.693 582.088C155.461 582.088 156.069 581.827 156.517 581.304C156.965 580.771 157.189 579.997 157.189 578.984C157.189 577.96 156.965 577.187 156.517 576.664C156.069 576.131 155.461 575.864 154.693 575.864C153.936 575.864 153.328 576.131 152.869 576.664C152.421 577.187 152.197 577.96 152.197 578.984C152.197 579.997 152.421 580.771 152.869 581.304C153.328 581.827 153.936 582.088 154.693 582.088ZM165.007 583.144C164.282 583.144 163.658 582.963 163.135 582.6C162.612 582.227 162.26 581.72 162.079 581.08H162.255V583H160.975V571.224H162.271V576.84H162.079C162.26 576.221 162.612 575.731 163.135 575.368C163.658 575.005 164.282 574.824 165.007 574.824C165.732 574.824 166.356 574.995 166.879 575.336C167.412 575.667 167.823 576.141 168.111 576.76C168.41 577.379 168.559 578.12 168.559 578.984C168.559 579.848 168.41 580.589 168.111 581.208C167.812 581.827 167.396 582.307 166.863 582.648C166.34 582.979 165.722 583.144 165.007 583.144ZM164.735 582.088C165.492 582.088 166.1 581.827 166.559 581.304C167.018 580.781 167.247 580.008 167.247 578.984C167.247 577.96 167.018 577.187 166.559 576.664C166.1 576.131 165.492 575.864 164.735 575.864C163.978 575.864 163.37 576.131 162.911 576.664C162.463 577.187 162.239 577.96 162.239 578.984C162.239 579.997 162.463 580.771 162.911 581.304C163.37 581.827 163.978 582.088 164.735 582.088ZM170.569 583V571.224H171.865V583H170.569ZM177.949 583.144C176.691 583.144 175.699 582.781 174.973 582.056C174.248 581.32 173.885 580.301 173.885 579C173.885 578.157 174.045 577.427 174.365 576.808C174.685 576.179 175.133 575.693 175.709 575.352C176.285 575 176.947 574.824 177.693 574.824C178.429 574.824 179.048 574.979 179.549 575.288C180.051 575.597 180.435 576.04 180.701 576.616C180.968 577.181 181.101 577.853 181.101 578.632V579.112H174.877V578.296H180.253L179.981 578.504C179.981 577.651 179.789 576.984 179.405 576.504C179.021 576.024 178.451 575.784 177.693 575.784C176.893 575.784 176.269 576.067 175.821 576.632C175.373 577.187 175.149 577.939 175.149 578.888V579.032C175.149 580.035 175.395 580.797 175.885 581.32C176.387 581.832 177.085 582.088 177.981 582.088C178.461 582.088 178.909 582.019 179.325 581.88C179.752 581.731 180.157 581.491 180.541 581.16L180.989 582.072C180.637 582.413 180.189 582.68 179.645 582.872C179.112 583.053 178.547 583.144 177.949 583.144ZM190.104 583.144C189.315 583.144 188.712 582.92 188.296 582.472C187.88 582.013 187.672 581.325 187.672 580.408V575.976H186.104V574.968H187.672V572.776L188.968 572.408V574.968H191.272V575.976H188.968V580.264C188.968 580.904 189.075 581.363 189.288 581.64C189.512 581.907 189.843 582.04 190.28 582.04C190.483 582.04 190.664 582.024 190.824 581.992C190.984 581.949 191.128 581.901 191.256 581.848V582.936C191.107 583 190.926 583.048 190.712 583.08C190.51 583.123 190.307 583.144 190.104 583.144ZM196.068 583.144C195.3 583.144 194.628 582.979 194.052 582.648C193.486 582.307 193.049 581.827 192.74 581.208C192.43 580.579 192.276 579.837 192.276 578.984C192.276 578.12 192.43 577.379 192.74 576.76C193.049 576.141 193.486 575.667 194.052 575.336C194.628 574.995 195.3 574.824 196.068 574.824C196.846 574.824 197.518 574.995 198.084 575.336C198.66 575.667 199.102 576.141 199.412 576.76C199.732 577.379 199.892 578.12 199.892 578.984C199.892 579.837 199.732 580.579 199.412 581.208C199.102 581.827 198.66 582.307 198.084 582.648C197.518 582.979 196.846 583.144 196.068 583.144ZM196.068 582.088C196.836 582.088 197.444 581.827 197.892 581.304C198.34 580.771 198.564 579.997 198.564 578.984C198.564 577.96 198.334 577.187 197.876 576.664C197.428 576.131 196.825 575.864 196.068 575.864C195.31 575.864 194.708 576.131 194.26 576.664C193.812 577.187 193.588 577.96 193.588 578.984C193.588 579.997 193.812 580.771 194.26 581.304C194.708 581.827 195.31 582.088 196.068 582.088ZM208.756 583.144C208.116 583.144 207.519 583.059 206.964 582.888C206.41 582.707 205.951 582.456 205.588 582.136L206.036 581.224C206.431 581.533 206.858 581.763 207.316 581.912C207.786 582.061 208.271 582.136 208.772 582.136C209.412 582.136 209.892 582.024 210.212 581.8C210.543 581.565 210.708 581.245 210.708 580.84C210.708 580.531 210.602 580.285 210.388 580.104C210.186 579.912 209.85 579.763 209.38 579.656L207.892 579.352C207.21 579.203 206.698 578.952 206.356 578.6C206.015 578.237 205.844 577.779 205.844 577.224C205.844 576.755 205.967 576.344 206.212 575.992C206.458 575.629 206.815 575.347 207.284 575.144C207.754 574.931 208.303 574.824 208.932 574.824C209.519 574.824 210.058 574.915 210.548 575.096C211.05 575.267 211.466 575.517 211.796 575.848L211.332 576.744C211.012 576.435 210.644 576.205 210.228 576.056C209.823 575.896 209.402 575.816 208.964 575.816C208.335 575.816 207.86 575.944 207.54 576.2C207.231 576.445 207.076 576.771 207.076 577.176C207.076 577.485 207.172 577.741 207.364 577.944C207.567 578.136 207.876 578.28 208.292 578.376L209.78 578.68C210.506 578.84 211.044 579.091 211.396 579.432C211.759 579.763 211.94 580.211 211.94 580.776C211.94 581.256 211.807 581.677 211.54 582.04C211.274 582.392 210.9 582.664 210.42 582.856C209.951 583.048 209.396 583.144 208.756 583.144ZM214.022 586.456V576.824C214.022 576.525 214.006 576.221 213.974 575.912C213.952 575.592 213.926 575.277 213.894 574.968H215.142L215.318 576.872H215.126C215.296 576.243 215.643 575.747 216.166 575.384C216.688 575.011 217.312 574.824 218.038 574.824C218.763 574.824 219.387 574.989 219.91 575.32C220.443 575.651 220.859 576.125 221.158 576.744C221.456 577.363 221.606 578.109 221.606 578.984C221.606 579.848 221.456 580.589 221.158 581.208C220.87 581.827 220.459 582.307 219.926 582.648C219.392 582.979 218.763 583.144 218.038 583.144C217.323 583.144 216.704 582.963 216.182 582.6C215.659 582.237 215.312 581.741 215.142 581.112H215.318V586.456H214.022ZM217.782 582.088C218.55 582.088 219.158 581.827 219.606 581.304C220.064 580.771 220.294 579.997 220.294 578.984C220.294 577.96 220.064 577.187 219.606 576.664C219.158 576.131 218.55 575.864 217.782 575.864C217.024 575.864 216.416 576.131 215.958 576.664C215.51 577.187 215.286 577.96 215.286 578.984C215.286 579.997 215.51 580.771 215.958 581.304C216.416 581.827 217.024 582.088 217.782 582.088ZM227.184 583.144C225.925 583.144 224.933 582.781 224.208 582.056C223.482 581.32 223.12 580.301 223.12 579C223.12 578.157 223.28 577.427 223.6 576.808C223.92 576.179 224.368 575.693 224.944 575.352C225.52 575 226.181 574.824 226.928 574.824C227.664 574.824 228.282 574.979 228.784 575.288C229.285 575.597 229.669 576.04 229.936 576.616C230.202 577.181 230.336 577.853 230.336 578.632V579.112H224.112V578.296H229.488L229.216 578.504C229.216 577.651 229.024 576.984 228.64 576.504C228.256 576.024 227.685 575.784 226.928 575.784C226.128 575.784 225.504 576.067 225.056 576.632C224.608 577.187 224.384 577.939 224.384 578.888V579.032C224.384 580.035 224.629 580.797 225.12 581.32C225.621 581.832 226.32 582.088 227.216 582.088C227.696 582.088 228.144 582.019 228.56 581.88C228.986 581.731 229.392 581.491 229.776 581.16L230.224 582.072C229.872 582.413 229.424 582.68 228.88 582.872C228.346 583.053 227.781 583.144 227.184 583.144ZM235.375 583.144C234.66 583.144 234.036 582.979 233.503 582.648C232.969 582.307 232.553 581.827 232.255 581.208C231.967 580.589 231.823 579.848 231.823 578.984C231.823 578.109 231.967 577.363 232.255 576.744C232.553 576.125 232.969 575.651 233.503 575.32C234.036 574.989 234.66 574.824 235.375 574.824C236.1 574.824 236.724 575.011 237.247 575.384C237.78 575.747 238.132 576.243 238.303 576.872H238.111L238.287 574.968H239.535C239.503 575.277 239.471 575.592 239.439 575.912C239.417 576.221 239.407 576.525 239.407 576.824V583H238.111V581.112H238.287C238.116 581.741 237.764 582.237 237.231 582.6C236.697 582.963 236.079 583.144 235.375 583.144ZM235.631 582.088C236.399 582.088 237.007 581.827 237.455 581.304C237.903 580.771 238.127 579.997 238.127 578.984C238.127 577.96 237.903 577.187 237.455 576.664C237.007 576.131 236.399 575.864 235.631 575.864C234.873 575.864 234.265 576.131 233.807 576.664C233.359 577.187 233.135 577.96 233.135 578.984C233.135 579.997 233.359 580.771 233.807 581.304C234.265 581.827 234.873 582.088 235.631 582.088ZM241.912 583V571.224H243.208V578.536H243.24L246.968 574.968H248.6L244.2 579.16L244.232 578.504L249.016 583H247.336L243.24 579.224H243.208V583H241.912ZM257.615 583.144C256.847 583.144 256.175 582.979 255.599 582.648C255.033 582.307 254.596 581.827 254.287 581.208C253.977 580.579 253.823 579.837 253.823 578.984C253.823 578.12 253.977 577.379 254.287 576.76C254.596 576.141 255.033 575.667 255.599 575.336C256.175 574.995 256.847 574.824 257.615 574.824C258.393 574.824 259.065 574.995 259.631 575.336C260.207 575.667 260.649 576.141 260.959 576.76C261.279 577.379 261.439 578.12 261.439 578.984C261.439 579.837 261.279 580.579 260.959 581.208C260.649 581.827 260.207 582.307 259.631 582.648C259.065 582.979 258.393 583.144 257.615 583.144ZM257.615 582.088C258.383 582.088 258.991 581.827 259.439 581.304C259.887 580.771 260.111 579.997 260.111 578.984C260.111 577.96 259.881 577.187 259.423 576.664C258.975 576.131 258.372 575.864 257.615 575.864C256.857 575.864 256.255 576.131 255.807 576.664C255.359 577.187 255.135 577.96 255.135 578.984C255.135 579.997 255.359 580.771 255.807 581.304C256.255 581.827 256.857 582.088 257.615 582.088ZM266.291 583.144C265.342 583.144 264.622 582.883 264.131 582.36C263.651 581.837 263.411 581.037 263.411 579.96V574.968H264.707V579.928C264.707 580.664 264.857 581.208 265.155 581.56C265.454 581.901 265.918 582.072 266.547 582.072C267.251 582.072 267.817 581.843 268.243 581.384C268.67 580.925 268.883 580.312 268.883 579.544V574.968H270.179V583H268.915V581.192H269.123C268.899 581.811 268.537 582.291 268.035 582.632C267.545 582.973 266.963 583.144 266.291 583.144ZM275.542 583.144C274.752 583.144 274.15 582.92 273.734 582.472C273.318 582.013 273.11 581.325 273.11 580.408V575.976H271.542V574.968H273.11V572.776L274.406 572.408V574.968H276.71V575.976H274.406V580.264C274.406 580.904 274.512 581.363 274.726 581.64C274.95 581.907 275.28 582.04 275.718 582.04C275.92 582.04 276.102 582.024 276.262 581.992C276.422 581.949 276.566 581.901 276.694 581.848V582.936C276.544 583 276.363 583.048 276.15 583.08C275.947 583.123 275.744 583.144 275.542 583.144ZM282.459 583V571.224H283.755V583H282.459ZM289.568 583.144C288.8 583.144 288.128 582.979 287.552 582.648C286.986 582.307 286.549 581.827 286.24 581.208C285.93 580.579 285.776 579.837 285.776 578.984C285.776 578.12 285.93 577.379 286.24 576.76C286.549 576.141 286.986 575.667 287.552 575.336C288.128 574.995 288.8 574.824 289.568 574.824C290.346 574.824 291.018 574.995 291.584 575.336C292.16 575.667 292.602 576.141 292.912 576.76C293.232 577.379 293.392 578.12 293.392 578.984C293.392 579.837 293.232 580.579 292.912 581.208C292.602 581.827 292.16 582.307 291.584 582.648C291.018 582.979 290.346 583.144 289.568 583.144ZM289.568 582.088C290.336 582.088 290.944 581.827 291.392 581.304C291.84 580.771 292.064 579.997 292.064 578.984C292.064 577.96 291.834 577.187 291.376 576.664C290.928 576.131 290.325 575.864 289.568 575.864C288.81 575.864 288.208 576.131 287.76 576.664C287.312 577.187 287.088 577.96 287.088 578.984C287.088 579.997 287.312 580.771 287.76 581.304C288.208 581.827 288.81 582.088 289.568 582.088ZM298.244 583.144C297.295 583.144 296.575 582.883 296.084 582.36C295.604 581.837 295.364 581.037 295.364 579.96V574.968H296.66V579.928C296.66 580.664 296.81 581.208 297.108 581.56C297.407 581.901 297.871 582.072 298.5 582.072C299.204 582.072 299.77 581.843 300.196 581.384C300.623 580.925 300.836 580.312 300.836 579.544V574.968H302.132V583H300.868V581.192H301.076C300.852 581.811 300.49 582.291 299.988 582.632C299.498 582.973 298.916 583.144 298.244 583.144ZM307.687 583.144C306.983 583.144 306.364 582.979 305.831 582.648C305.297 582.307 304.881 581.827 304.583 581.208C304.295 580.589 304.151 579.848 304.151 578.984C304.151 578.109 304.295 577.363 304.583 576.744C304.881 576.125 305.297 575.651 305.831 575.32C306.364 574.989 306.983 574.824 307.687 574.824C308.412 574.824 309.036 575.005 309.559 575.368C310.092 575.731 310.449 576.221 310.631 576.84H310.439V571.224H311.735V583H310.455V581.08H310.631C310.46 581.72 310.108 582.227 309.575 582.6C309.041 582.963 308.412 583.144 307.687 583.144ZM307.959 582.088C308.716 582.088 309.324 581.827 309.783 581.304C310.241 580.771 310.471 579.997 310.471 578.984C310.471 577.96 310.241 577.187 309.783 576.664C309.324 576.131 308.716 575.864 307.959 575.864C307.201 575.864 306.593 576.131 306.135 576.664C305.687 577.187 305.463 577.96 305.463 578.984C305.463 579.997 305.687 580.771 306.135 581.304C306.593 581.827 307.201 582.088 307.959 582.088ZM313.985 583V581.368H315.617V583H313.985ZM75.817 605V599.736L76.105 600.632L71.433 593.72H72.969L76.681 599.336H76.345L80.041 593.72H81.513L76.857 600.632L77.145 599.736V605H75.817ZM84.6381 605.144C83.8701 605.144 83.1981 604.979 82.6221 604.648C82.0568 604.307 81.6195 603.827 81.3101 603.208C81.0008 602.579 80.8461 601.837 80.8461 600.984C80.8461 600.12 81.0008 599.379 81.3101 598.76C81.6195 598.141 82.0568 597.667 82.6221 597.336C83.1981 596.995 83.8701 596.824 84.6381 596.824C85.4168 596.824 86.0888 596.995 86.6541 597.336C87.2301 597.667 87.6728 598.141 87.9821 598.76C88.3021 599.379 88.4621 600.12 88.4621 600.984C88.4621 601.837 88.3021 602.579 87.9821 603.208C87.6728 603.827 87.2301 604.307 86.6541 604.648C86.0888 604.979 85.4168 605.144 84.6381 605.144ZM84.6381 604.088C85.4061 604.088 86.0141 603.827 86.4621 603.304C86.9101 602.771 87.1341 601.997 87.1341 600.984C87.1341 599.96 86.9048 599.187 86.4461 598.664C85.9981 598.131 85.3955 597.864 84.6381 597.864C83.8808 597.864 83.2781 598.131 82.8301 598.664C82.3821 599.187 82.1581 599.96 82.1581 600.984C82.1581 601.997 82.3821 602.771 82.8301 603.304C83.2781 603.827 83.8808 604.088 84.6381 604.088ZM93.3148 605.144C92.3654 605.144 91.6454 604.883 91.1548 604.36C90.6748 603.837 90.4348 603.037 90.4348 601.96V596.968H91.7308V601.928C91.7308 602.664 91.8801 603.208 92.1788 603.56C92.4774 603.901 92.9414 604.072 93.5708 604.072C94.2748 604.072 94.8401 603.843 95.2668 603.384C95.6934 602.925 95.9068 602.312 95.9068 601.544V596.968H97.2028V605H95.9388V603.192H96.1468C95.9228 603.811 95.5601 604.291 95.0588 604.632C94.5681 604.973 93.9868 605.144 93.3148 605.144ZM99.6851 605V598.904C99.6851 598.584 99.6745 598.259 99.6531 597.928C99.6425 597.597 99.6211 597.277 99.5891 596.968H100.837L100.997 598.92L100.773 598.936C100.88 598.456 101.066 598.061 101.333 597.752C101.6 597.443 101.914 597.213 102.277 597.064C102.64 596.904 103.018 596.824 103.413 596.824C103.573 596.824 103.712 596.829 103.829 596.84C103.957 596.851 104.074 596.877 104.181 596.92L104.165 598.072C104.005 598.019 103.856 597.987 103.717 597.976C103.589 597.955 103.44 597.944 103.269 597.944C102.8 597.944 102.389 598.056 102.037 598.28C101.696 598.504 101.434 598.792 101.253 599.144C101.082 599.496 100.997 599.869 100.997 600.264V605H99.6851ZM110.118 605V597.976H108.55V596.968H110.47L110.118 597.304V595.96C110.118 595.053 110.347 594.36 110.806 593.88C111.264 593.4 111.92 593.16 112.774 593.16C112.987 593.16 113.206 593.181 113.43 593.224C113.664 593.256 113.856 593.304 114.006 593.368V594.44C113.878 594.387 113.718 594.344 113.526 594.312C113.344 594.269 113.158 594.248 112.966 594.248C112.635 594.248 112.352 594.317 112.118 594.456C111.883 594.584 111.707 594.781 111.59 595.048C111.472 595.315 111.414 595.656 111.414 596.072V597.24L111.206 596.968H113.654V597.976H111.414V605H110.118ZM118.086 605.144C117.371 605.144 116.747 604.979 116.214 604.648C115.68 604.307 115.264 603.827 114.966 603.208C114.678 602.589 114.534 601.848 114.534 600.984C114.534 600.109 114.678 599.363 114.966 598.744C115.264 598.125 115.68 597.651 116.214 597.32C116.747 596.989 117.371 596.824 118.086 596.824C118.811 596.824 119.435 597.011 119.958 597.384C120.491 597.747 120.843 598.243 121.014 598.872H120.822L120.998 596.968H122.246C122.214 597.277 122.182 597.592 122.15 597.912C122.128 598.221 122.118 598.525 122.118 598.824V605H120.822V603.112H120.998C120.827 603.741 120.475 604.237 119.942 604.6C119.408 604.963 118.79 605.144 118.086 605.144ZM118.342 604.088C119.11 604.088 119.718 603.827 120.166 603.304C120.614 602.771 120.838 601.997 120.838 600.984C120.838 599.96 120.614 599.187 120.166 598.664C119.718 598.131 119.11 597.864 118.342 597.864C117.584 597.864 116.976 598.131 116.518 598.664C116.07 599.187 115.846 599.96 115.846 600.984C115.846 601.997 116.07 602.771 116.518 603.304C116.976 603.827 117.584 604.088 118.342 604.088ZM127.999 605.144C127.21 605.144 126.522 604.973 125.935 604.632C125.359 604.291 124.911 603.805 124.591 603.176C124.282 602.547 124.127 601.8 124.127 600.936C124.127 600.061 124.287 599.32 124.607 598.712C124.927 598.093 125.375 597.624 125.951 597.304C126.538 596.984 127.221 596.824 127.999 596.824C128.511 596.824 129.007 596.915 129.487 597.096C129.978 597.277 130.383 597.533 130.703 597.864L130.239 598.792C129.919 598.483 129.567 598.253 129.183 598.104C128.81 597.955 128.442 597.88 128.079 597.88C127.247 597.88 126.602 598.141 126.143 598.664C125.685 599.187 125.455 599.949 125.455 600.952C125.455 601.944 125.685 602.712 126.143 603.256C126.602 603.8 127.247 604.072 128.079 604.072C128.431 604.072 128.794 604.003 129.167 603.864C129.551 603.725 129.909 603.496 130.239 603.176L130.703 604.088C130.373 604.429 129.962 604.691 129.471 604.872C128.981 605.053 128.49 605.144 127.999 605.144ZM135.957 605.144C134.698 605.144 133.706 604.781 132.981 604.056C132.256 603.32 131.893 602.301 131.893 601C131.893 600.157 132.053 599.427 132.373 598.808C132.693 598.179 133.141 597.693 133.717 597.352C134.293 597 134.954 596.824 135.701 596.824C136.437 596.824 137.056 596.979 137.557 597.288C138.058 597.597 138.442 598.04 138.709 598.616C138.976 599.181 139.109 599.853 139.109 600.632V601.112H132.885V600.296H138.261L137.989 600.504C137.989 599.651 137.797 598.984 137.413 598.504C137.029 598.024 136.458 597.784 135.701 597.784C134.901 597.784 134.277 598.067 133.829 598.632C133.381 599.187 133.157 599.939 133.157 600.888V601.032C133.157 602.035 133.402 602.797 133.893 603.32C134.394 603.832 135.093 604.088 135.989 604.088C136.469 604.088 136.917 604.019 137.333 603.88C137.76 603.731 138.165 603.491 138.549 603.16L138.997 604.072C138.645 604.413 138.197 604.68 137.653 604.872C137.12 605.053 136.554 605.144 135.957 605.144ZM147.936 605.144C147.296 605.144 146.699 605.059 146.144 604.888C145.589 604.707 145.131 604.456 144.768 604.136L145.216 603.224C145.611 603.533 146.037 603.763 146.496 603.912C146.965 604.061 147.451 604.136 147.952 604.136C148.592 604.136 149.072 604.024 149.392 603.8C149.723 603.565 149.888 603.245 149.888 602.84C149.888 602.531 149.781 602.285 149.568 602.104C149.365 601.912 149.029 601.763 148.56 601.656L147.072 601.352C146.389 601.203 145.877 600.952 145.536 600.6C145.195 600.237 145.024 599.779 145.024 599.224C145.024 598.755 145.147 598.344 145.392 597.992C145.637 597.629 145.995 597.347 146.464 597.144C146.933 596.931 147.483 596.824 148.112 596.824C148.699 596.824 149.237 596.915 149.728 597.096C150.229 597.267 150.645 597.517 150.976 597.848L150.512 598.744C150.192 598.435 149.824 598.205 149.408 598.056C149.003 597.896 148.581 597.816 148.144 597.816C147.515 597.816 147.04 597.944 146.72 598.2C146.411 598.445 146.256 598.771 146.256 599.176C146.256 599.485 146.352 599.741 146.544 599.944C146.747 600.136 147.056 600.28 147.472 600.376L148.96 600.68C149.685 600.84 150.224 601.091 150.576 601.432C150.939 601.763 151.12 602.211 151.12 602.776C151.12 603.256 150.987 603.677 150.72 604.04C150.453 604.392 150.08 604.664 149.6 604.856C149.131 605.048 148.576 605.144 147.936 605.144ZM153.202 605V593.224H154.498V598.744H154.289C154.514 598.115 154.887 597.64 155.41 597.32C155.943 596.989 156.556 596.824 157.25 596.824C158.21 596.824 158.924 597.085 159.394 597.608C159.863 598.12 160.098 598.899 160.098 599.944V605H158.802V600.024C158.802 599.277 158.652 598.733 158.354 598.392C158.066 598.051 157.596 597.88 156.946 597.88C156.199 597.88 155.602 598.109 155.154 598.568C154.716 599.027 154.498 599.629 154.498 600.376V605H153.202ZM165.873 605.144C165.105 605.144 164.433 604.979 163.857 604.648C163.291 604.307 162.854 603.827 162.545 603.208C162.235 602.579 162.081 601.837 162.081 600.984C162.081 600.12 162.235 599.379 162.545 598.76C162.854 598.141 163.291 597.667 163.857 597.336C164.433 596.995 165.105 596.824 165.873 596.824C166.651 596.824 167.323 596.995 167.889 597.336C168.465 597.667 168.907 598.141 169.217 598.76C169.537 599.379 169.697 600.12 169.697 600.984C169.697 601.837 169.537 602.579 169.217 603.208C168.907 603.827 168.465 604.307 167.889 604.648C167.323 604.979 166.651 605.144 165.873 605.144ZM165.873 604.088C166.641 604.088 167.249 603.827 167.697 603.304C168.145 602.771 168.369 601.997 168.369 600.984C168.369 599.96 168.139 599.187 167.681 598.664C167.233 598.131 166.63 597.864 165.873 597.864C165.115 597.864 164.513 598.131 164.065 598.664C163.617 599.187 163.393 599.96 163.393 600.984C163.393 601.997 163.617 602.771 164.065 603.304C164.513 603.827 165.115 604.088 165.873 604.088ZM174.549 605.144C173.6 605.144 172.88 604.883 172.389 604.36C171.909 603.837 171.669 603.037 171.669 601.96V596.968H172.965V601.928C172.965 602.664 173.114 603.208 173.413 603.56C173.712 603.901 174.176 604.072 174.805 604.072C175.509 604.072 176.074 603.843 176.501 603.384C176.928 602.925 177.141 602.312 177.141 601.544V596.968H178.437V605H177.173V603.192H177.381C177.157 603.811 176.794 604.291 176.293 604.632C175.802 604.973 175.221 605.144 174.549 605.144ZM180.952 605V593.224H182.248V605H180.952ZM187.804 605.144C187.1 605.144 186.481 604.979 185.948 604.648C185.415 604.307 184.999 603.827 184.7 603.208C184.412 602.589 184.268 601.848 184.268 600.984C184.268 600.109 184.412 599.363 184.7 598.744C184.999 598.125 185.415 597.651 185.948 597.32C186.481 596.989 187.1 596.824 187.804 596.824C188.529 596.824 189.153 597.005 189.676 597.368C190.209 597.731 190.567 598.221 190.748 598.84H190.556V593.224H191.852V605H190.572V603.08H190.748C190.577 603.72 190.225 604.227 189.692 604.6C189.159 604.963 188.529 605.144 187.804 605.144ZM188.076 604.088C188.833 604.088 189.441 603.827 189.9 603.304C190.359 602.771 190.588 601.997 190.588 600.984C190.588 599.96 190.359 599.187 189.9 598.664C189.441 598.131 188.833 597.864 188.076 597.864C187.319 597.864 186.711 598.131 186.252 598.664C185.804 599.187 185.58 599.96 185.58 600.984C185.58 601.997 185.804 602.771 186.252 603.304C186.711 603.827 187.319 604.088 188.076 604.088ZM202.562 605.144C201.836 605.144 201.212 604.963 200.69 604.6C200.167 604.227 199.815 603.72 199.634 603.08H199.81V605H198.53V593.224H199.826V598.84H199.634C199.815 598.221 200.167 597.731 200.69 597.368C201.212 597.005 201.836 596.824 202.562 596.824C203.287 596.824 203.911 596.995 204.434 597.336C204.967 597.667 205.378 598.141 205.666 598.76C205.964 599.379 206.114 600.12 206.114 600.984C206.114 601.848 205.964 602.589 205.666 603.208C205.367 603.827 204.951 604.307 204.418 604.648C203.895 604.979 203.276 605.144 202.562 605.144ZM202.29 604.088C203.047 604.088 203.655 603.827 204.114 603.304C204.572 602.781 204.802 602.008 204.802 600.984C204.802 599.96 204.572 599.187 204.114 598.664C203.655 598.131 203.047 597.864 202.29 597.864C201.532 597.864 200.924 598.131 200.466 598.664C200.018 599.187 199.794 599.96 199.794 600.984C199.794 601.997 200.018 602.771 200.466 603.304C200.924 603.827 201.532 604.088 202.29 604.088ZM211.691 605.144C210.433 605.144 209.441 604.781 208.715 604.056C207.99 603.32 207.627 602.301 207.627 601C207.627 600.157 207.787 599.427 208.107 598.808C208.427 598.179 208.875 597.693 209.451 597.352C210.027 597 210.689 596.824 211.435 596.824C212.171 596.824 212.79 596.979 213.291 597.288C213.793 597.597 214.177 598.04 214.443 598.616C214.71 599.181 214.843 599.853 214.843 600.632V601.112H208.619V600.296H213.995L213.723 600.504C213.723 599.651 213.531 598.984 213.147 598.504C212.763 598.024 212.193 597.784 211.435 597.784C210.635 597.784 210.011 598.067 209.563 598.632C209.115 599.187 208.891 599.939 208.891 600.888V601.032C208.891 602.035 209.137 602.797 209.627 603.32C210.129 603.832 210.827 604.088 211.723 604.088C212.203 604.088 212.651 604.019 213.067 603.88C213.494 603.731 213.899 603.491 214.283 603.16L214.731 604.072C214.379 604.413 213.931 604.68 213.387 604.872C212.854 605.053 212.289 605.144 211.691 605.144ZM224.566 605.144C223.308 605.144 222.316 604.781 221.59 604.056C220.865 603.32 220.502 602.301 220.502 601C220.502 600.157 220.662 599.427 220.982 598.808C221.302 598.179 221.75 597.693 222.326 597.352C222.902 597 223.564 596.824 224.31 596.824C225.046 596.824 225.665 596.979 226.166 597.288C226.668 597.597 227.052 598.04 227.318 598.616C227.585 599.181 227.718 599.853 227.718 600.632V601.112H221.494V600.296H226.87L226.598 600.504C226.598 599.651 226.406 598.984 226.022 598.504C225.638 598.024 225.068 597.784 224.31 597.784C223.51 597.784 222.886 598.067 222.438 598.632C221.99 599.187 221.766 599.939 221.766 600.888V601.032C221.766 602.035 222.012 602.797 222.502 603.32C223.004 603.832 223.702 604.088 224.598 604.088C225.078 604.088 225.526 604.019 225.942 603.88C226.369 603.731 226.774 603.491 227.158 603.16L227.606 604.072C227.254 604.413 226.806 604.68 226.262 604.872C225.729 605.053 225.164 605.144 224.566 605.144ZM231.976 605L228.536 596.968H229.944L232.824 604.04H232.392L235.304 596.968H236.648L233.208 605H231.976ZM241.566 605.144C240.308 605.144 239.316 604.781 238.59 604.056C237.865 603.32 237.502 602.301 237.502 601C237.502 600.157 237.662 599.427 237.982 598.808C238.302 598.179 238.75 597.693 239.326 597.352C239.902 597 240.564 596.824 241.31 596.824C242.046 596.824 242.665 596.979 243.166 597.288C243.668 597.597 244.052 598.04 244.318 598.616C244.585 599.181 244.718 599.853 244.718 600.632V601.112H238.494V600.296H243.87L243.598 600.504C243.598 599.651 243.406 598.984 243.022 598.504C242.638 598.024 242.068 597.784 241.31 597.784C240.51 597.784 239.886 598.067 239.438 598.632C238.99 599.187 238.766 599.939 238.766 600.888V601.032C238.766 602.035 239.012 602.797 239.502 603.32C240.004 603.832 240.702 604.088 241.598 604.088C242.078 604.088 242.526 604.019 242.942 603.88C243.369 603.731 243.774 603.491 244.158 603.16L244.606 604.072C244.254 604.413 243.806 604.68 243.262 604.872C242.729 605.053 242.164 605.144 241.566 605.144ZM246.702 605V598.824C246.702 598.525 246.686 598.221 246.654 597.912C246.632 597.592 246.606 597.277 246.574 596.968H247.822L247.982 598.728H247.789C248.024 598.109 248.398 597.64 248.91 597.32C249.432 596.989 250.035 596.824 250.718 596.824C251.667 596.824 252.382 597.08 252.862 597.592C253.352 598.093 253.598 598.888 253.598 599.976V605H252.302V600.056C252.302 599.299 252.147 598.749 251.838 598.408C251.539 598.056 251.07 597.88 250.43 597.88C249.683 597.88 249.091 598.109 248.654 598.568C248.216 599.027 247.998 599.64 247.998 600.408V605H246.702ZM256.077 605V593.224H257.373V605H256.077ZM259.569 608.632L259.265 607.56C259.766 607.443 260.182 607.304 260.513 607.144C260.854 606.995 261.137 606.792 261.361 606.536C261.585 606.28 261.777 605.96 261.937 605.576L262.353 604.632L262.321 605.176L258.817 596.968H260.225L263.121 604.024H262.705L265.569 596.968H266.929L263.217 605.672C263.004 606.184 262.769 606.611 262.513 606.952C262.257 607.304 261.98 607.587 261.681 607.8C261.393 608.024 261.073 608.2 260.721 608.328C260.369 608.456 259.985 608.557 259.569 608.632ZM272.561 605V593.224H273.857V605H272.561ZM276.373 605V596.968H277.669V605H276.373ZM276.213 595.144V593.688H277.813V595.144H276.213ZM283.034 605.144C282.245 605.144 281.642 604.92 281.226 604.472C280.81 604.013 280.602 603.325 280.602 602.408V597.976H279.034V596.968H280.602V594.776L281.898 594.408V596.968H284.202V597.976H281.898V602.264C281.898 602.904 282.005 603.363 282.218 603.64C282.442 603.907 282.773 604.04 283.21 604.04C283.413 604.04 283.594 604.024 283.754 603.992C283.914 603.949 284.058 603.901 284.186 603.848V604.936C284.037 605 283.855 605.048 283.642 605.08C283.439 605.123 283.237 605.144 283.034 605.144ZM286.414 606.824L285.806 606.36C286.094 606.061 286.281 605.779 286.366 605.512C286.462 605.256 286.51 604.995 286.51 604.728L286.798 605H285.742V603.368H287.374V604.52C287.374 604.947 287.305 605.347 287.166 605.72C287.028 606.104 286.777 606.472 286.414 606.824ZM88.8968 630.456V620.824C88.8968 620.525 88.8808 620.221 88.8488 619.912C88.8275 619.592 88.8008 619.277 88.7688 618.968H90.0168L90.1928 620.872H90.0008C90.1715 620.243 90.5181 619.747 91.0408 619.384C91.5635 619.011 92.1875 618.824 92.9128 618.824C93.6381 618.824 94.2621 618.989 94.7848 619.32C95.3181 619.651 95.7341 620.125 96.0328 620.744C96.3315 621.363 96.4808 622.109 96.4808 622.984C96.4808 623.848 96.3315 624.589 96.0328 625.208C95.7448 625.827 95.3341 626.307 94.8008 626.648C94.2675 626.979 93.6381 627.144 92.9128 627.144C92.1981 627.144 91.5795 626.963 91.0568 626.6C90.5341 626.237 90.1875 625.741 90.0168 625.112H90.1928V630.456H88.8968ZM92.6568 626.088C93.4248 626.088 94.0328 625.827 94.4808 625.304C94.9395 624.771 95.1688 623.997 95.1688 622.984C95.1688 621.96 94.9395 621.187 94.4808 620.664C94.0328 620.131 93.4248 619.864 92.6568 619.864C91.8995 619.864 91.2915 620.131 90.8328 620.664C90.3848 621.187 90.1608 621.96 90.1608 622.984C90.1608 623.997 90.3848 624.771 90.8328 625.304C91.2915 625.827 91.8995 626.088 92.6568 626.088ZM98.4586 627V620.904C98.4586 620.584 98.4479 620.259 98.4266 619.928C98.4159 619.597 98.3946 619.277 98.3626 618.968H99.6106L99.7706 620.92L99.5466 620.936C99.6532 620.456 99.8399 620.061 100.107 619.752C100.373 619.443 100.688 619.213 101.051 619.064C101.413 618.904 101.792 618.824 102.187 618.824C102.347 618.824 102.485 618.829 102.603 618.84C102.731 618.851 102.848 618.877 102.955 618.92L102.939 620.072C102.779 620.019 102.629 619.987 102.491 619.976C102.363 619.955 102.213 619.944 102.043 619.944C101.573 619.944 101.163 620.056 100.811 620.28C100.469 620.504 100.208 620.792 100.027 621.144C99.8559 621.496 99.7706 621.869 99.7706 622.264V627H98.4586ZM107.777 627.144C106.519 627.144 105.527 626.781 104.801 626.056C104.076 625.32 103.713 624.301 103.713 623C103.713 622.157 103.873 621.427 104.193 620.808C104.513 620.179 104.961 619.693 105.537 619.352C106.113 619 106.775 618.824 107.521 618.824C108.257 618.824 108.876 618.979 109.377 619.288C109.879 619.597 110.263 620.04 110.529 620.616C110.796 621.181 110.929 621.853 110.929 622.632V623.112H104.705V622.296H110.081L109.809 622.504C109.809 621.651 109.617 620.984 109.233 620.504C108.849 620.024 108.279 619.784 107.521 619.784C106.721 619.784 106.097 620.067 105.649 620.632C105.201 621.187 104.977 621.939 104.977 622.888V623.032C104.977 624.035 105.223 624.797 105.713 625.32C106.215 625.832 106.913 626.088 107.809 626.088C108.289 626.088 108.737 626.019 109.153 625.88C109.58 625.731 109.985 625.491 110.369 625.16L110.817 626.072C110.465 626.413 110.017 626.68 109.473 626.872C108.94 627.053 108.375 627.144 107.777 627.144ZM113.328 627V619.976H111.76V618.968H113.68L113.328 619.304V617.96C113.328 617.053 113.558 616.36 114.016 615.88C114.475 615.4 115.131 615.16 115.984 615.16C116.198 615.16 116.416 615.181 116.64 615.224C116.875 615.256 117.067 615.304 117.216 615.368V616.44C117.088 616.387 116.928 616.344 116.736 616.312C116.555 616.269 116.368 616.248 116.176 616.248C115.846 616.248 115.563 616.317 115.328 616.456C115.094 616.584 114.918 616.781 114.8 617.048C114.683 617.315 114.624 617.656 114.624 618.072V619.24L114.416 618.968H116.864V619.976H114.624V627H113.328ZM121.668 627.144C120.409 627.144 119.417 626.781 118.692 626.056C117.967 625.32 117.604 624.301 117.604 623C117.604 622.157 117.764 621.427 118.084 620.808C118.404 620.179 118.852 619.693 119.428 619.352C120.004 619 120.665 618.824 121.412 618.824C122.148 618.824 122.767 618.979 123.268 619.288C123.769 619.597 124.153 620.04 124.42 620.616C124.687 621.181 124.82 621.853 124.82 622.632V623.112H118.596V622.296H123.972L123.7 622.504C123.7 621.651 123.508 620.984 123.124 620.504C122.74 620.024 122.169 619.784 121.412 619.784C120.612 619.784 119.988 620.067 119.54 620.632C119.092 621.187 118.868 621.939 118.868 622.888V623.032C118.868 624.035 119.113 624.797 119.604 625.32C120.105 625.832 120.804 626.088 121.7 626.088C122.18 626.088 122.628 626.019 123.044 625.88C123.471 625.731 123.876 625.491 124.26 625.16L124.708 626.072C124.356 626.413 123.908 626.68 123.364 626.872C122.831 627.053 122.265 627.144 121.668 627.144ZM126.771 627V620.904C126.771 620.584 126.76 620.259 126.739 619.928C126.728 619.597 126.707 619.277 126.675 618.968H127.923L128.083 620.92L127.859 620.936C127.966 620.456 128.152 620.061 128.419 619.752C128.686 619.443 129 619.213 129.363 619.064C129.726 618.904 130.104 618.824 130.499 618.824C130.659 618.824 130.798 618.829 130.915 618.84C131.043 618.851 131.16 618.877 131.267 618.92L131.251 620.072C131.091 620.019 130.942 619.987 130.803 619.976C130.675 619.955 130.526 619.944 130.355 619.944C129.886 619.944 129.475 620.056 129.123 620.28C128.782 620.504 128.52 620.792 128.339 621.144C128.168 621.496 128.083 621.869 128.083 622.264V627H126.771ZM135.593 627.144C134.879 627.144 134.255 626.979 133.721 626.648C133.188 626.307 132.772 625.827 132.473 625.208C132.185 624.589 132.041 623.848 132.041 622.984C132.041 622.109 132.185 621.363 132.473 620.744C132.772 620.125 133.188 619.651 133.721 619.32C134.255 618.989 134.879 618.824 135.593 618.824C136.319 618.824 136.943 619.011 137.465 619.384C137.999 619.747 138.351 620.243 138.521 620.872H138.329L138.505 618.968H139.753C139.721 619.277 139.689 619.592 139.657 619.912C139.636 620.221 139.625 620.525 139.625 620.824V627H138.329V625.112H138.505C138.335 625.741 137.983 626.237 137.449 626.6C136.916 626.963 136.297 627.144 135.593 627.144ZM135.849 626.088C136.617 626.088 137.225 625.827 137.673 625.304C138.121 624.771 138.345 623.997 138.345 622.984C138.345 621.96 138.121 621.187 137.673 620.664C137.225 620.131 136.617 619.864 135.849 619.864C135.092 619.864 134.484 620.131 134.025 620.664C133.577 621.187 133.353 621.96 133.353 622.984C133.353 623.997 133.577 624.771 134.025 625.304C134.484 625.827 135.092 626.088 135.849 626.088ZM146.163 627.144C145.438 627.144 144.814 626.963 144.291 626.6C143.769 626.227 143.417 625.72 143.235 625.08H143.411V627H142.131V615.224H143.427V620.84H143.235C143.417 620.221 143.769 619.731 144.291 619.368C144.814 619.005 145.438 618.824 146.163 618.824C146.889 618.824 147.513 618.995 148.035 619.336C148.569 619.667 148.979 620.141 149.267 620.76C149.566 621.379 149.715 622.12 149.715 622.984C149.715 623.848 149.566 624.589 149.267 625.208C148.969 625.827 148.553 626.307 148.019 626.648C147.497 626.979 146.878 627.144 146.163 627.144ZM145.891 626.088C146.649 626.088 147.257 625.827 147.715 625.304C148.174 624.781 148.403 624.008 148.403 622.984C148.403 621.96 148.174 621.187 147.715 620.664C147.257 620.131 146.649 619.864 145.891 619.864C145.134 619.864 144.526 620.131 144.067 620.664C143.619 621.187 143.395 621.96 143.395 622.984C143.395 623.997 143.619 624.771 144.067 625.304C144.526 625.827 145.134 626.088 145.891 626.088ZM151.725 627V615.224H153.021V627H151.725ZM155.217 630.632L154.913 629.56C155.415 629.443 155.831 629.304 156.161 629.144C156.503 628.995 156.785 628.792 157.009 628.536C157.233 628.28 157.425 627.96 157.585 627.576L158.001 626.632L157.969 627.176L154.465 618.968H155.873L158.769 626.024H158.353L161.217 618.968H162.577L158.865 627.672C158.652 628.184 158.417 628.611 158.161 628.952C157.905 629.304 157.628 629.587 157.329 629.8C157.041 630.024 156.721 630.2 156.369 630.328C156.017 630.456 155.633 630.557 155.217 630.632ZM168.625 627V619.976H167.057V618.968H168.977L168.625 619.304V617.96C168.625 617.053 168.855 616.36 169.313 615.88C169.772 615.4 170.428 615.16 171.281 615.16C171.495 615.16 171.713 615.181 171.937 615.224C172.172 615.256 172.364 615.304 172.513 615.368V616.44C172.385 616.387 172.225 616.344 172.033 616.312C171.852 616.269 171.665 616.248 171.473 616.248C171.143 616.248 170.86 616.317 170.625 616.456C170.391 616.584 170.215 616.781 170.097 617.048C169.98 617.315 169.921 617.656 169.921 618.072V619.24L169.713 618.968H172.161V619.976H169.921V627H168.625ZM173.584 627V620.904C173.584 620.584 173.573 620.259 173.552 619.928C173.541 619.597 173.52 619.277 173.488 618.968H174.736L174.896 620.92L174.672 620.936C174.778 620.456 174.965 620.061 175.232 619.752C175.498 619.443 175.813 619.213 176.176 619.064C176.538 618.904 176.917 618.824 177.312 618.824C177.472 618.824 177.61 618.829 177.728 618.84C177.856 618.851 177.973 618.877 178.08 618.92L178.064 620.072C177.904 620.019 177.754 619.987 177.616 619.976C177.488 619.955 177.338 619.944 177.168 619.944C176.698 619.944 176.288 620.056 175.936 620.28C175.594 620.504 175.333 620.792 175.152 621.144C174.981 621.496 174.896 621.869 174.896 622.264V627H173.584ZM182.63 627.144C181.862 627.144 181.19 626.979 180.614 626.648C180.049 626.307 179.612 625.827 179.302 625.208C178.993 624.579 178.838 623.837 178.838 622.984C178.838 622.12 178.993 621.379 179.302 620.76C179.612 620.141 180.049 619.667 180.614 619.336C181.19 618.995 181.862 618.824 182.63 618.824C183.409 618.824 184.081 618.995 184.646 619.336C185.222 619.667 185.665 620.141 185.974 620.76C186.294 621.379 186.454 622.12 186.454 622.984C186.454 623.837 186.294 624.579 185.974 625.208C185.665 625.827 185.222 626.307 184.646 626.648C184.081 626.979 183.409 627.144 182.63 627.144ZM182.63 626.088C183.398 626.088 184.006 625.827 184.454 625.304C184.902 624.771 185.126 623.997 185.126 622.984C185.126 621.96 184.897 621.187 184.438 620.664C183.99 620.131 183.388 619.864 182.63 619.864C181.873 619.864 181.27 620.131 180.822 620.664C180.374 621.187 180.15 621.96 180.15 622.984C180.15 623.997 180.374 624.771 180.822 625.304C181.27 625.827 181.873 626.088 182.63 626.088ZM188.475 627V620.824C188.475 620.525 188.459 620.221 188.427 619.912C188.406 619.592 188.379 619.277 188.347 618.968H189.595L189.755 620.728H189.563C189.776 620.12 190.112 619.651 190.571 619.32C191.04 618.989 191.606 618.824 192.267 618.824C192.939 618.824 193.483 618.984 193.899 619.304C194.326 619.624 194.614 620.12 194.763 620.792H194.523C194.726 620.184 195.083 619.704 195.595 619.352C196.107 619 196.704 618.824 197.387 618.824C198.272 618.824 198.939 619.08 199.387 619.592C199.835 620.093 200.059 620.888 200.059 621.976V627H198.763V622.056C198.763 621.299 198.63 620.749 198.363 620.408C198.096 620.056 197.67 619.88 197.083 619.88C196.411 619.88 195.878 620.115 195.483 620.584C195.099 621.043 194.907 621.661 194.907 622.44V627H193.611V622.056C193.611 621.299 193.478 620.749 193.211 620.408C192.944 620.056 192.518 619.88 191.931 619.88C191.259 619.88 190.731 620.115 190.347 620.584C189.963 621.043 189.771 621.661 189.771 622.44V627H188.475ZM209.542 627.144C208.752 627.144 208.15 626.92 207.734 626.472C207.318 626.013 207.11 625.325 207.11 624.408V619.976H205.542V618.968H207.11V616.776L208.406 616.408V618.968H210.71V619.976H208.406V624.264C208.406 624.904 208.512 625.363 208.726 625.64C208.95 625.907 209.28 626.04 209.718 626.04C209.92 626.04 210.102 626.024 210.262 625.992C210.422 625.949 210.566 625.901 210.694 625.848V626.936C210.544 627 210.363 627.048 210.15 627.08C209.947 627.123 209.744 627.144 209.542 627.144ZM212.287 627V615.224H213.583V620.744H213.375C213.599 620.115 213.973 619.64 214.495 619.32C215.029 618.989 215.642 618.824 216.335 618.824C217.295 618.824 218.01 619.085 218.479 619.608C218.949 620.12 219.183 620.899 219.183 621.944V627H217.887V622.024C217.887 621.277 217.738 620.733 217.439 620.392C217.151 620.051 216.682 619.88 216.031 619.88C215.285 619.88 214.687 620.109 214.239 620.568C213.802 621.027 213.583 621.629 213.583 622.376V627H212.287ZM225.23 627.144C223.972 627.144 222.98 626.781 222.254 626.056C221.529 625.32 221.166 624.301 221.166 623C221.166 622.157 221.326 621.427 221.646 620.808C221.966 620.179 222.414 619.693 222.99 619.352C223.566 619 224.228 618.824 224.974 618.824C225.71 618.824 226.329 618.979 226.83 619.288C227.332 619.597 227.716 620.04 227.982 620.616C228.249 621.181 228.382 621.853 228.382 622.632V623.112H222.158V622.296H227.534L227.262 622.504C227.262 621.651 227.07 620.984 226.686 620.504C226.302 620.024 225.732 619.784 224.974 619.784C224.174 619.784 223.55 620.067 223.102 620.632C222.654 621.187 222.43 621.939 222.43 622.888V623.032C222.43 624.035 222.676 624.797 223.166 625.32C223.668 625.832 224.366 626.088 225.262 626.088C225.742 626.088 226.19 626.019 226.606 625.88C227.033 625.731 227.438 625.491 227.822 625.16L228.27 626.072C227.918 626.413 227.47 626.68 226.926 626.872C226.393 627.053 225.828 627.144 225.23 627.144ZM234.953 627V619.976H233.385V618.968H235.305L234.953 619.304V617.96C234.953 617.053 235.183 616.36 235.641 615.88C236.1 615.4 236.756 615.16 237.609 615.16C237.823 615.16 238.041 615.181 238.265 615.224C238.5 615.256 238.692 615.304 238.841 615.368V616.44C238.713 616.387 238.553 616.344 238.361 616.312C238.18 616.269 237.993 616.248 237.801 616.248C237.471 616.248 237.188 616.317 236.953 616.456C236.719 616.584 236.543 616.781 236.425 617.048C236.308 617.315 236.249 617.656 236.249 618.072V619.24L236.041 618.968H238.489V619.976H236.249V627H234.953ZM239.912 627V620.904C239.912 620.584 239.901 620.259 239.88 619.928C239.869 619.597 239.848 619.277 239.816 618.968H241.064L241.224 620.92L241 620.936C241.106 620.456 241.293 620.061 241.56 619.752C241.826 619.443 242.141 619.213 242.504 619.064C242.866 618.904 243.245 618.824 243.64 618.824C243.8 618.824 243.938 618.829 244.056 618.84C244.184 618.851 244.301 618.877 244.408 618.92L244.392 620.072C244.232 620.019 244.082 619.987 243.944 619.976C243.816 619.955 243.666 619.944 243.496 619.944C243.026 619.944 242.616 620.056 242.264 620.28C241.922 620.504 241.661 620.792 241.48 621.144C241.309 621.496 241.224 621.869 241.224 622.264V627H239.912ZM248.958 627.144C248.19 627.144 247.518 626.979 246.942 626.648C246.377 626.307 245.94 625.827 245.63 625.208C245.321 624.579 245.166 623.837 245.166 622.984C245.166 622.12 245.321 621.379 245.63 620.76C245.94 620.141 246.377 619.667 246.942 619.336C247.518 618.995 248.19 618.824 248.958 618.824C249.737 618.824 250.409 618.995 250.974 619.336C251.55 619.667 251.993 620.141 252.302 620.76C252.622 621.379 252.782 622.12 252.782 622.984C252.782 623.837 252.622 624.579 252.302 625.208C251.993 625.827 251.55 626.307 250.974 626.648C250.409 626.979 249.737 627.144 248.958 627.144ZM248.958 626.088C249.726 626.088 250.334 625.827 250.782 625.304C251.23 624.771 251.454 623.997 251.454 622.984C251.454 621.96 251.225 621.187 250.766 620.664C250.318 620.131 249.716 619.864 248.958 619.864C248.201 619.864 247.598 620.131 247.15 620.664C246.702 621.187 246.478 621.96 246.478 622.984C246.478 623.997 246.702 624.771 247.15 625.304C247.598 625.827 248.201 626.088 248.958 626.088ZM254.803 627V620.824C254.803 620.525 254.787 620.221 254.755 619.912C254.734 619.592 254.707 619.277 254.675 618.968H255.923L256.083 620.728H255.891C256.126 620.109 256.499 619.64 257.011 619.32C257.534 618.989 258.136 618.824 258.819 618.824C259.768 618.824 260.483 619.08 260.963 619.592C261.454 620.093 261.699 620.888 261.699 621.976V627H260.403V622.056C260.403 621.299 260.248 620.749 259.939 620.408C259.64 620.056 259.171 619.88 258.531 619.88C257.784 619.88 257.192 620.109 256.755 620.568C256.318 621.027 256.099 621.64 256.099 622.408V627H254.803ZM267.026 627.144C266.237 627.144 265.634 626.92 265.218 626.472C264.802 626.013 264.594 625.325 264.594 624.408V619.976H263.026V618.968H264.594V616.776L265.89 616.408V618.968H268.194V619.976H265.89V624.264C265.89 624.904 265.997 625.363 266.21 625.64C266.434 625.907 266.765 626.04 267.202 626.04C267.405 626.04 267.586 626.024 267.746 625.992C267.906 625.949 268.05 625.901 268.178 625.848V626.936C268.029 627 267.847 627.048 267.634 627.08C267.431 627.123 267.229 627.144 267.026 627.144ZM269.735 627V625.368H271.367V627H269.735Z" fill="white"/>
<rect x="32" y="652" width="296" height="52" rx="26" fill="#272D69"/>
<path d="M162.248 684V672.72H163.8L170.344 681.184H169.928V672.72H171.848V684H170.296L163.768 675.536H164.168V684H162.248ZM178.71 684.16C177.355 684.16 176.294 683.787 175.526 683.04C174.758 682.293 174.374 681.269 174.374 679.968C174.374 679.125 174.539 678.389 174.87 677.76C175.201 677.131 175.659 676.64 176.246 676.288C176.843 675.936 177.537 675.76 178.326 675.76C179.105 675.76 179.755 675.925 180.278 676.256C180.801 676.587 181.195 677.051 181.462 677.648C181.739 678.245 181.878 678.944 181.878 679.744V680.272H175.99V679.216H180.454L180.182 679.44C180.182 678.693 180.022 678.123 179.702 677.728C179.393 677.333 178.939 677.136 178.342 677.136C177.681 677.136 177.169 677.371 176.806 677.84C176.454 678.309 176.278 678.965 176.278 679.808V680.016C176.278 680.891 176.491 681.547 176.918 681.984C177.355 682.411 177.969 682.624 178.758 682.624C179.217 682.624 179.643 682.565 180.038 682.448C180.443 682.32 180.827 682.117 181.19 681.84L181.782 683.184C181.398 683.493 180.939 683.733 180.406 683.904C179.873 684.075 179.307 684.16 178.71 684.16ZM182.917 684L186.677 679.376V680.288L183.125 675.92H185.493L187.813 678.912H187.093L189.413 675.92H191.765L188.245 680.288V679.376L191.989 684H189.605L187.093 680.784H187.813L185.285 684H182.917ZM197.042 684.16C196.082 684.16 195.357 683.909 194.866 683.408C194.375 682.907 194.13 682.155 194.13 681.152V677.424H192.578V675.92H194.13V673.856L196.13 673.344V675.92H198.29V677.424H196.13V681.024C196.13 681.579 196.237 681.968 196.45 682.192C196.663 682.416 196.957 682.528 197.33 682.528C197.533 682.528 197.703 682.512 197.842 682.48C197.991 682.448 198.135 682.405 198.274 682.352V683.936C198.093 684.011 197.89 684.064 197.666 684.096C197.453 684.139 197.245 684.16 197.042 684.16Z" fill="white"/>
<g filter="url(#filter0_b_1_1546)">
<path fill-rule="evenodd" clip-rule="evenodd" d="M28.4142 57L30.7071 59.2929C31.0976 59.6834 31.0976 60.3166 30.7071 60.7071C30.3166 61.0976 29.6834 61.0976 29.2929 60.7071L25.2929 56.7071C24.9024 56.3166 24.9024 55.6834 25.2929 55.2929L29.2929 51.2929C29.6834 50.9024 30.3166 50.9024 30.7071 51.2929C31.0976 51.6834 31.0976 52.3166 30.7071 52.7071L28.4142 55L33 55C36.3137 55 39 57.6863 39 61L39 64C39 64.5523 38.5523 65 38 65C37.4477 65 37 64.5523 37 64L37 61C37 58.7909 35.2091 57 33 57L28.4142 57Z" fill="white"/>
<path d="M307.03 64.16C306.123 64.16 305.286 64.048 304.518 63.824C303.76 63.5893 303.11 63.2693 302.566 62.864L303.206 61.248C303.568 61.504 303.947 61.7227 304.342 61.904C304.736 62.0747 305.158 62.208 305.606 62.304C306.054 62.3893 306.528 62.432 307.03 62.432C307.872 62.432 308.48 62.2933 308.854 62.016C309.227 61.7387 309.414 61.376 309.414 60.928C309.414 60.5333 309.286 60.2347 309.03 60.032C308.774 59.8187 308.315 59.6427 307.654 59.504L305.846 59.136C304.811 58.9227 304.038 58.5653 303.526 58.064C303.014 57.5627 302.758 56.8907 302.758 56.048C302.758 55.344 302.944 54.7307 303.318 54.208C303.691 53.6853 304.214 53.28 304.886 52.992C305.558 52.704 306.342 52.56 307.238 52.56C308.038 52.56 308.779 52.6773 309.462 52.912C310.144 53.136 310.715 53.4613 311.174 53.888L310.534 55.424C310.075 55.04 309.574 54.7573 309.03 54.576C308.486 54.384 307.878 54.288 307.206 54.288C306.448 54.288 305.856 54.4373 305.43 54.736C305.014 55.024 304.806 55.424 304.806 55.936C304.806 56.3307 304.934 56.6453 305.19 56.88C305.456 57.1147 305.904 57.296 306.534 57.424L308.326 57.776C309.392 57.9893 310.182 58.3413 310.694 58.832C311.206 59.312 311.462 59.9627 311.462 60.784C311.462 61.456 311.28 62.048 310.918 62.56C310.555 63.0613 310.043 63.456 309.382 63.744C308.72 64.0213 307.936 64.16 307.03 64.16ZM313.886 64V52.224H315.886V59.36H315.918L319.198 55.92H321.614L317.534 60.192L317.55 59.392L321.902 64H319.422L315.918 60.384H315.886V64H313.886ZM323.354 64V55.92H325.354V64H323.354ZM323.242 54.4V52.448H325.466V54.4H323.242ZM328.166 67.456V57.936C328.166 57.6053 328.155 57.2693 328.134 56.928C328.113 56.5867 328.081 56.2507 328.038 55.92H329.974L330.15 57.616H329.974C330.134 57.0507 330.47 56.6027 330.982 56.272C331.505 55.9307 332.107 55.76 332.79 55.76C333.505 55.76 334.129 55.9307 334.662 56.272C335.195 56.6027 335.611 57.0827 335.91 57.712C336.209 58.3307 336.358 59.0773 336.358 59.952C336.358 60.8267 336.209 61.5787 335.91 62.208C335.611 62.8373 335.195 63.3227 334.662 63.664C334.129 63.9947 333.505 64.16 332.79 64.16C332.118 64.16 331.526 63.9947 331.014 63.664C330.502 63.3333 330.161 62.8907 329.99 62.336H330.166V67.456H328.166ZM332.23 62.624C332.87 62.624 333.382 62.4053 333.766 61.968C334.15 61.52 334.342 60.848 334.342 59.952C334.342 59.056 334.15 58.3893 333.766 57.952C333.382 57.5147 332.87 57.296 332.23 57.296C331.601 57.296 331.094 57.5147 330.71 57.952C330.326 58.3893 330.134 59.056 330.134 59.952C330.134 60.848 330.326 61.52 330.71 61.968C331.094 62.4053 331.601 62.624 332.23 62.624Z" fill="white"/>
</g>
<rect x="140" y="733" width="32" height="6" rx="3" fill="white"/>
<rect x="188" y="733" width="8" height="6" rx="3" stroke="white" stroke-width="2"/>
<rect x="212" y="733" width="8" height="6" rx="3" stroke="white" stroke-width="2"/>
<path d="M297 348.857V271.806C297 270.519 297.248 269.244 297.731 268.051L311.576 233.871C312.494 231.607 312.55 229.086 311.736 226.783L289 162.5" stroke="#2C3032" stroke-width="6" stroke-linecap="round" stroke-linejoin="round"/>
<path d="M299 348.857V271.806C299 270.519 299.248 269.244 299.731 268.051L313.576 233.871C314.494 231.607 314.55 229.086 313.736 226.783L291 162.5" stroke="#272D69" stroke-width="6" stroke-linecap="round" stroke-linejoin="round"/>
<path d="M308.324 348.857H284.815" stroke="#2C3032" stroke-width="6" stroke-linecap="round" stroke-linejoin="round"/>
<path d="M310.324 348.857H286.815" stroke="#272D69" stroke-width="6" stroke-linecap="round" stroke-linejoin="round"/>
<path d="M255.265 171.838L259.837 165.474" stroke="#FFE99B" stroke-width="15" stroke-linecap="round" stroke-linejoin="round"/>
<path d="M247.04 152.509C246.134 152.932 245.739 154.008 246.16 154.911L262.021 188.925C262.441 189.827 263.519 190.218 264.426 189.795L269.805 187.287C280.146 182.465 284.636 170.21 279.835 159.913C275.033 149.617 262.759 145.179 252.418 150.001L247.04 152.509Z" fill="#4668AF" stroke="#272D69" stroke-width="4"/>
<rect x="-0.408" y="0.874958" width="15.4669" height="7.51241" rx="0.682647" transform="matrix(-0.939693 0.34202 0.34202 0.939693 294.727 151.192)" fill="#272D69" stroke="#272D69" stroke-width="1.36529"/>
<rect x="72.9607" y="158" width="115.468" height="185.574" rx="16" fill="#2C3032"/>
<rect x="185.483" y="241.066" width="78.9426" height="102.508" rx="16" fill="#2C3032"/>
<rect x="60.0002" y="332.381" width="14.139" height="20.6193" rx="7.06949" fill="#2C3032"/>
<rect x="130.695" y="332.381" width="14.139" height="20.6193" rx="7.06949" fill="#2C3032"/>
<rect x="176.647" y="332.381" width="14.139" height="20.6193" rx="7.06949" fill="#2C3032"/>
<rect x="241.45" y="332.381" width="14.139" height="20.6193" rx="7.06949" fill="#2C3032"/>
<rect x="94.7585" y="158" width="115.468" height="185.574" rx="16" fill="#4668AF"/>
<path d="M94.7585 298.894C94.7585 290.057 101.922 282.894 110.759 282.894H221.326C230.163 282.894 237.326 290.057 237.326 298.894V341.574C237.326 342.678 236.431 343.574 235.326 343.574H110.759C101.922 343.574 94.7585 336.41 94.7585 327.574V298.894Z" fill="#4668AF"/>
<path d="M94.7585 292.32V303.513C94.7585 308.719 98.9787 312.939 104.184 312.939H227.901C233.106 312.939 237.326 308.719 237.326 303.513V284.894C237.326 283.789 236.431 282.894 235.326 282.894H104.184C98.9787 282.894 94.7585 287.114 94.7585 292.32Z" fill="#E0D5CE"/>
<path d="M60 257.066C60 248.23 67.1634 241.066 76 241.066H122.943C131.779 241.066 138.943 248.23 138.943 257.066V327.574C138.943 336.411 131.779 343.574 122.943 343.574H62C60.8954 343.574 60 342.679 60 341.574V257.066Z" fill="#2C3032"/>
<rect x="115.967" y="241.066" width="22.9758" height="102.508" rx="11.4879" fill="#4668AF"/>
<path d="M241.45 252.554C241.45 246.21 246.594 241.066 252.938 241.066C259.283 241.066 264.426 246.21 264.426 252.554V327.574C264.426 336.411 257.263 343.574 248.426 343.574H243.45C242.346 343.574 241.45 342.679 241.45 341.574V252.554Z" fill="#4668AF"/>
</g>
<defs>
<filter id="filter0_b_1_1546" x="-6" y="-6" width="373" height="96" filterUnits="userSpaceOnUse" color-interpolation-filters="sRGB">
<feFlood flood-opacity="0" result="BackgroundImageFix"/>
<feGaussianBlur in="BackgroundImageFix" stdDeviation="3"/>
<feComposite in2="SourceAlpha" operator="in" result="effect1_backgroundBlur_1_1546"/>
<feBlend mode="normal" in="SourceGraphic" in2="effect1_backgroundBlur_1_1546" result="shape"/>
</filter>
<clipPath id="clip0_1_1546">
<rect width="360" height="780" rx="30" fill="white"/>
</clipPath>
</defs>
</svg>
