<svg width="360" height="780" viewBox="0 0 360 780" fill="none" xmlns="http://www.w3.org/2000/svg">
<g clip-path="url(#clip0_1_1915)">
<rect width="360" height="780" rx="30" fill="#008080"/>
<path d="M101.754 439V420.504H94.5864V416.44H113.914V420.504H106.746V439H101.754ZM117.312 439V415.448H122.144V425.816H121.664C122.176 424.728 122.933 423.896 123.936 423.32C124.939 422.744 126.091 422.456 127.392 422.456C129.291 422.456 130.709 423.011 131.648 424.12C132.587 425.208 133.056 426.883 133.056 429.144V439H128.224V429.368C128.224 428.237 128.011 427.427 127.584 426.936C127.179 426.445 126.539 426.2 125.664 426.2C124.597 426.2 123.744 426.531 123.104 427.192C122.464 427.853 122.144 428.739 122.144 429.848V439H117.312ZM144.241 439.352C142.833 439.352 141.596 439.011 140.529 438.328C139.462 437.645 138.63 436.675 138.033 435.416C137.436 434.157 137.137 432.643 137.137 430.872C137.137 429.123 137.436 427.619 138.033 426.36C138.63 425.101 139.462 424.141 140.529 423.48C141.596 422.797 142.833 422.456 144.241 422.456C145.542 422.456 146.705 422.776 147.729 423.416C148.774 424.035 149.457 424.877 149.777 425.944H149.425L149.809 422.776H154.449C154.385 423.48 154.321 424.195 154.257 424.92C154.214 425.624 154.193 426.317 154.193 427V439H149.393L149.361 435.96H149.745C149.404 436.984 148.721 437.805 147.697 438.424C146.673 439.043 145.521 439.352 144.241 439.352ZM145.713 435.704C146.822 435.704 147.718 435.309 148.401 434.52C149.084 433.731 149.425 432.515 149.425 430.872C149.425 429.229 149.084 428.024 148.401 427.256C147.718 426.488 146.822 426.104 145.713 426.104C144.604 426.104 143.708 426.488 143.025 427.256C142.342 428.024 142.001 429.229 142.001 430.872C142.001 432.515 142.332 433.731 142.993 434.52C143.676 435.309 144.582 435.704 145.713 435.704ZM159.156 439V427C159.156 426.317 159.135 425.624 159.092 424.92C159.049 424.195 158.985 423.48 158.9 422.776H163.54L163.892 425.784H163.508C164.041 424.717 164.799 423.896 165.78 423.32C166.761 422.744 167.903 422.456 169.204 422.456C171.103 422.456 172.521 423.011 173.46 424.12C174.42 425.208 174.9 426.904 174.9 429.208V439H170.068V429.432C170.068 428.259 169.855 427.427 169.428 426.936C169.001 426.445 168.361 426.2 167.508 426.2C166.441 426.2 165.588 426.541 164.948 427.224C164.308 427.885 163.988 428.781 163.988 429.912V439H159.156ZM179.781 439V415.448H184.613V429.528H184.677L190.693 422.776H196.453L188.677 431.416V429.656L196.869 439H190.949L184.677 431.96H184.613V439H179.781ZM214.979 439V428.28L216.003 431.128L206.115 416.44H211.875L218.083 426.104H217.059L223.267 416.44H228.835L218.979 431.128L219.971 428.28V439H214.979ZM235.68 439.352C233.952 439.352 232.448 439.011 231.168 438.328C229.909 437.624 228.928 436.643 228.224 435.384C227.541 434.125 227.2 432.621 227.2 430.872C227.2 429.144 227.541 427.651 228.224 426.392C228.928 425.133 229.909 424.163 231.168 423.48C232.448 422.797 233.952 422.456 235.68 422.456C237.408 422.456 238.912 422.797 240.192 423.48C241.472 424.163 242.453 425.133 243.136 426.392C243.84 427.651 244.192 429.144 244.192 430.872C244.192 432.621 243.84 434.125 243.136 435.384C242.453 436.643 241.472 437.624 240.192 438.328C238.912 439.011 237.408 439.352 235.68 439.352ZM235.68 435.704C236.789 435.704 237.664 435.309 238.304 434.52C238.965 433.731 239.296 432.515 239.296 430.872C239.296 429.229 238.965 428.024 238.304 427.256C237.664 426.488 236.789 426.104 235.68 426.104C234.57 426.104 233.685 426.488 233.024 427.256C232.384 428.024 232.064 429.229 232.064 430.872C232.064 432.515 232.384 433.731 233.024 434.52C233.685 435.309 234.57 435.704 235.68 435.704ZM254.2 439.352C252.173 439.352 250.669 438.797 249.688 437.688C248.707 436.557 248.216 434.851 248.216 432.568V422.776H253.048V432.568C253.048 433.592 253.251 434.349 253.656 434.84C254.083 435.331 254.733 435.576 255.608 435.576C256.568 435.576 257.357 435.245 257.976 434.584C258.616 433.901 258.936 432.995 258.936 431.864V422.776H263.768V439H259.064V435.896H259.512C259.021 436.984 258.317 437.837 257.4 438.456C256.504 439.053 255.437 439.352 254.2 439.352Z" fill="white"/>
<path d="M74.5187 482V476.078L74.8427 477.086L69.5867 469.31H71.3147L75.4907 475.628H75.1127L79.2707 469.31H80.9267L75.6887 477.086L76.0127 476.078V482H74.5187ZM84.4425 482.162C83.5785 482.162 82.8225 481.976 82.1745 481.604C81.5385 481.22 81.0465 480.68 80.6985 479.984C80.3505 479.276 80.1765 478.442 80.1765 477.482C80.1765 476.51 80.3505 475.676 80.6985 474.98C81.0465 474.284 81.5385 473.75 82.1745 473.378C82.8225 472.994 83.5785 472.802 84.4425 472.802C85.3185 472.802 86.0745 472.994 86.7105 473.378C87.3585 473.75 87.8565 474.284 88.2045 474.98C88.5645 475.676 88.7445 476.51 88.7445 477.482C88.7445 478.442 88.5645 479.276 88.2045 479.984C87.8565 480.68 87.3585 481.22 86.7105 481.604C86.0745 481.976 85.3185 482.162 84.4425 482.162ZM84.4425 480.974C85.3065 480.974 85.9905 480.68 86.4945 480.092C86.9985 479.492 87.2505 478.622 87.2505 477.482C87.2505 476.33 86.9925 475.46 86.4765 474.872C85.9725 474.272 85.2945 473.972 84.4425 473.972C83.5905 473.972 82.9125 474.272 82.4085 474.872C81.9045 475.46 81.6525 476.33 81.6525 477.482C81.6525 478.622 81.9045 479.492 82.4085 480.092C82.9125 480.68 83.5905 480.974 84.4425 480.974ZM94.2037 482.162C93.1357 482.162 92.3257 481.868 91.7737 481.28C91.2337 480.692 90.9637 479.792 90.9637 478.58V472.964H92.4217V478.544C92.4217 479.372 92.5897 479.984 92.9257 480.38C93.2617 480.764 93.7837 480.956 94.4917 480.956C95.2837 480.956 95.9197 480.698 96.3997 480.182C96.8797 479.666 97.1197 478.976 97.1197 478.112V472.964H98.5777V482H97.1557V479.966H97.3897C97.1377 480.662 96.7297 481.202 96.1657 481.586C95.6137 481.97 94.9597 482.162 94.2037 482.162ZM109.898 482.162C109.01 482.162 108.236 481.97 107.576 481.586C106.928 481.202 106.424 480.656 106.064 479.948C105.716 479.24 105.542 478.4 105.542 477.428C105.542 476.444 105.722 475.61 106.082 474.926C106.442 474.23 106.946 473.702 107.594 473.342C108.254 472.982 109.022 472.802 109.898 472.802C110.474 472.802 111.032 472.904 111.572 473.108C112.124 473.312 112.58 473.6 112.94 473.972L112.418 475.016C112.058 474.668 111.662 474.41 111.23 474.242C110.81 474.074 110.396 473.99 109.988 473.99C109.052 473.99 108.326 474.284 107.81 474.872C107.294 475.46 107.036 476.318 107.036 477.446C107.036 478.562 107.294 479.426 107.81 480.038C108.326 480.65 109.052 480.956 109.988 480.956C110.384 480.956 110.792 480.878 111.212 480.722C111.644 480.566 112.046 480.308 112.418 479.948L112.94 480.974C112.568 481.358 112.106 481.652 111.554 481.856C111.002 482.06 110.45 482.162 109.898 482.162ZM118.38 482.162C117.576 482.162 116.874 481.976 116.274 481.604C115.674 481.22 115.206 480.68 114.87 479.984C114.546 479.288 114.384 478.454 114.384 477.482C114.384 476.498 114.546 475.658 114.87 474.962C115.206 474.266 115.674 473.732 116.274 473.36C116.874 472.988 117.576 472.802 118.38 472.802C119.196 472.802 119.898 473.012 120.486 473.432C121.086 473.84 121.482 474.398 121.674 475.106H121.458L121.656 472.964H123.06C123.024 473.312 122.988 473.666 122.952 474.026C122.928 474.374 122.916 474.716 122.916 475.052V482H121.458V479.876H121.656C121.464 480.584 121.068 481.142 120.468 481.55C119.868 481.958 119.172 482.162 118.38 482.162ZM118.668 480.974C119.532 480.974 120.216 480.68 120.72 480.092C121.224 479.492 121.476 478.622 121.476 477.482C121.476 476.33 121.224 475.46 120.72 474.872C120.216 474.272 119.532 473.972 118.668 473.972C117.816 473.972 117.132 474.272 116.616 474.872C116.112 475.46 115.86 476.33 115.86 477.482C115.86 478.622 116.112 479.492 116.616 480.092C117.132 480.68 117.816 480.974 118.668 480.974ZM125.735 482V475.052C125.735 474.716 125.717 474.374 125.681 474.026C125.657 473.666 125.627 473.312 125.591 472.964H126.995L127.175 474.944H126.958C127.223 474.248 127.643 473.72 128.219 473.36C128.807 472.988 129.485 472.802 130.253 472.802C131.321 472.802 132.125 473.09 132.665 473.666C133.217 474.23 133.493 475.124 133.493 476.348V482H132.035V476.438C132.035 475.586 131.861 474.968 131.513 474.584C131.177 474.188 130.649 473.99 129.929 473.99C129.089 473.99 128.423 474.248 127.931 474.764C127.439 475.28 127.193 475.97 127.193 476.834V482H125.735ZM140.975 482V475.052C140.975 474.716 140.957 474.374 140.921 474.026C140.897 473.666 140.867 473.312 140.831 472.964H142.235L142.415 474.944H142.199C142.463 474.248 142.883 473.72 143.459 473.36C144.047 472.988 144.725 472.802 145.493 472.802C146.561 472.802 147.365 473.09 147.905 473.666C148.457 474.23 148.733 475.124 148.733 476.348V482H147.275V476.438C147.275 475.586 147.101 474.968 146.753 474.584C146.417 474.188 145.889 473.99 145.169 473.99C144.329 473.99 143.663 474.248 143.171 474.764C142.679 475.28 142.433 475.97 142.433 476.834V482H140.975ZM155.23 482.162C154.366 482.162 153.61 481.976 152.962 481.604C152.326 481.22 151.834 480.68 151.486 479.984C151.138 479.276 150.964 478.442 150.964 477.482C150.964 476.51 151.138 475.676 151.486 474.98C151.834 474.284 152.326 473.75 152.962 473.378C153.61 472.994 154.366 472.802 155.23 472.802C156.106 472.802 156.862 472.994 157.498 473.378C158.146 473.75 158.644 474.284 158.992 474.98C159.352 475.676 159.532 476.51 159.532 477.482C159.532 478.442 159.352 479.276 158.992 479.984C158.644 480.68 158.146 481.22 157.498 481.604C156.862 481.976 156.106 482.162 155.23 482.162ZM155.23 480.974C156.094 480.974 156.778 480.68 157.282 480.092C157.786 479.492 158.038 478.622 158.038 477.482C158.038 476.33 157.78 475.46 157.264 474.872C156.76 474.272 156.082 473.972 155.23 473.972C154.378 473.972 153.7 474.272 153.196 474.872C152.692 475.46 152.44 476.33 152.44 477.482C152.44 478.622 152.692 479.492 153.196 480.092C153.7 480.68 154.378 480.974 155.23 480.974ZM164.094 482L160.746 472.964H162.294L165.084 480.92H164.616L167.496 472.964H168.756L171.582 480.92H171.132L173.94 472.964H175.416L172.05 482H170.646L167.73 473.918H168.45L165.516 482H164.094ZM185.818 482.162C184.93 482.162 184.156 481.97 183.496 481.586C182.848 481.202 182.344 480.656 181.984 479.948C181.636 479.24 181.462 478.4 181.462 477.428C181.462 476.444 181.642 475.61 182.002 474.926C182.362 474.23 182.866 473.702 183.514 473.342C184.174 472.982 184.942 472.802 185.818 472.802C186.394 472.802 186.952 472.904 187.492 473.108C188.044 473.312 188.5 473.6 188.86 473.972L188.338 475.016C187.978 474.668 187.582 474.41 187.15 474.242C186.73 474.074 186.316 473.99 185.908 473.99C184.972 473.99 184.246 474.284 183.73 474.872C183.214 475.46 182.956 476.318 182.956 477.446C182.956 478.562 183.214 479.426 183.73 480.038C184.246 480.65 184.972 480.956 185.908 480.956C186.304 480.956 186.712 480.878 187.132 480.722C187.564 480.566 187.966 480.308 188.338 479.948L188.86 480.974C188.488 481.358 188.026 481.652 187.474 481.856C186.922 482.06 186.37 482.162 185.818 482.162ZM190.932 482V468.752H192.39V482H190.932ZM198.929 482.162C198.065 482.162 197.309 481.976 196.661 481.604C196.025 481.22 195.533 480.68 195.185 479.984C194.837 479.276 194.663 478.442 194.663 477.482C194.663 476.51 194.837 475.676 195.185 474.98C195.533 474.284 196.025 473.75 196.661 473.378C197.309 472.994 198.065 472.802 198.929 472.802C199.805 472.802 200.561 472.994 201.197 473.378C201.845 473.75 202.343 474.284 202.691 474.98C203.051 475.676 203.231 476.51 203.231 477.482C203.231 478.442 203.051 479.276 202.691 479.984C202.343 480.68 201.845 481.22 201.197 481.604C200.561 481.976 199.805 482.162 198.929 482.162ZM198.929 480.974C199.793 480.974 200.477 480.68 200.981 480.092C201.485 479.492 201.737 478.622 201.737 477.482C201.737 476.33 201.479 475.46 200.963 474.872C200.459 474.272 199.781 473.972 198.929 473.972C198.077 473.972 197.399 474.272 196.895 474.872C196.391 475.46 196.139 476.33 196.139 477.482C196.139 478.622 196.391 479.492 196.895 480.092C197.399 480.68 198.077 480.974 198.929 480.974ZM208.51 482.162C207.79 482.162 207.118 482.066 206.494 481.874C205.87 481.67 205.354 481.388 204.946 481.028L205.45 480.002C205.894 480.35 206.374 480.608 206.89 480.776C207.418 480.944 207.964 481.028 208.528 481.028C209.248 481.028 209.788 480.902 210.148 480.65C210.52 480.386 210.706 480.026 210.706 479.57C210.706 479.222 210.586 478.946 210.346 478.742C210.118 478.526 209.74 478.358 209.212 478.238L207.538 477.896C206.77 477.728 206.194 477.446 205.81 477.05C205.426 476.642 205.234 476.126 205.234 475.502C205.234 474.974 205.372 474.512 205.648 474.116C205.924 473.708 206.326 473.39 206.854 473.162C207.382 472.922 208 472.802 208.708 472.802C209.368 472.802 209.974 472.904 210.526 473.108C211.09 473.3 211.558 473.582 211.93 473.954L211.408 474.962C211.048 474.614 210.634 474.356 210.166 474.188C209.71 474.008 209.236 473.918 208.744 473.918C208.036 473.918 207.502 474.062 207.142 474.35C206.794 474.626 206.62 474.992 206.62 475.448C206.62 475.796 206.728 476.084 206.944 476.312C207.172 476.528 207.52 476.69 207.988 476.798L209.662 477.14C210.478 477.32 211.084 477.602 211.48 477.986C211.888 478.358 212.092 478.862 212.092 479.498C212.092 480.038 211.942 480.512 211.642 480.92C211.342 481.316 210.922 481.622 210.382 481.838C209.854 482.054 209.23 482.162 208.51 482.162ZM218.448 482.162C217.032 482.162 215.916 481.754 215.1 480.938C214.284 480.11 213.876 478.964 213.876 477.5C213.876 476.552 214.056 475.73 214.416 475.034C214.776 474.326 215.28 473.78 215.928 473.396C216.576 473 217.32 472.802 218.16 472.802C218.988 472.802 219.684 472.976 220.248 473.324C220.812 473.672 221.244 474.17 221.544 474.818C221.844 475.454 221.994 476.21 221.994 477.086V477.626H214.992V476.708H221.04L220.734 476.942C220.734 475.982 220.518 475.232 220.086 474.692C219.654 474.152 219.012 473.882 218.16 473.882C217.26 473.882 216.558 474.2 216.054 474.836C215.55 475.46 215.298 476.306 215.298 477.374V477.536C215.298 478.664 215.574 479.522 216.126 480.11C216.69 480.686 217.476 480.974 218.484 480.974C219.024 480.974 219.528 480.896 219.996 480.74C220.476 480.572 220.932 480.302 221.364 479.93L221.868 480.956C221.472 481.34 220.968 481.64 220.356 481.856C219.756 482.06 219.12 482.162 218.448 482.162ZM232.122 482.162C231.234 482.162 230.556 481.91 230.088 481.406C229.62 480.89 229.386 480.116 229.386 479.084V474.098H227.622V472.964H229.386V470.498L230.844 470.084V472.964H233.436V474.098H230.844V478.922C230.844 479.642 230.964 480.158 231.204 480.47C231.456 480.77 231.828 480.92 232.32 480.92C232.548 480.92 232.752 480.902 232.932 480.866C233.112 480.818 233.274 480.764 233.418 480.704V481.928C233.25 482 233.046 482.054 232.806 482.09C232.578 482.138 232.35 482.162 232.122 482.162ZM235.211 482V468.752H236.669V474.962H236.435C236.687 474.254 237.107 473.72 237.695 473.36C238.295 472.988 238.985 472.802 239.765 472.802C240.845 472.802 241.649 473.096 242.177 473.684C242.705 474.26 242.969 475.136 242.969 476.312V482H241.511V476.402C241.511 475.562 241.343 474.95 241.007 474.566C240.683 474.182 240.155 473.99 239.423 473.99C238.583 473.99 237.911 474.248 237.407 474.764C236.915 475.28 236.669 475.958 236.669 476.798V482H235.211ZM249.772 482.162C248.356 482.162 247.24 481.754 246.424 480.938C245.608 480.11 245.2 478.964 245.2 477.5C245.2 476.552 245.38 475.73 245.74 475.034C246.1 474.326 246.604 473.78 247.252 473.396C247.9 473 248.644 472.802 249.484 472.802C250.312 472.802 251.008 472.976 251.572 473.324C252.136 473.672 252.568 474.17 252.868 474.818C253.168 475.454 253.318 476.21 253.318 477.086V477.626H246.316V476.708H252.364L252.058 476.942C252.058 475.982 251.842 475.232 251.41 474.692C250.978 474.152 250.336 473.882 249.484 473.882C248.584 473.882 247.882 474.2 247.378 474.836C246.874 475.46 246.622 476.306 246.622 477.374V477.536C246.622 478.664 246.898 479.522 247.45 480.11C248.014 480.686 248.8 480.974 249.808 480.974C250.348 480.974 250.852 480.896 251.32 480.74C251.8 480.572 252.256 480.302 252.688 479.93L253.192 480.956C252.796 481.34 252.292 481.64 251.68 481.856C251.08 482.06 250.444 482.162 249.772 482.162ZM263.68 482.162C262.876 482.162 262.174 481.976 261.574 481.604C260.974 481.22 260.506 480.68 260.17 479.984C259.846 479.288 259.684 478.454 259.684 477.482C259.684 476.498 259.846 475.658 260.17 474.962C260.506 474.266 260.974 473.732 261.574 473.36C262.174 472.988 262.876 472.802 263.68 472.802C264.496 472.802 265.198 473.012 265.786 473.432C266.386 473.84 266.782 474.398 266.974 475.106H266.758L266.956 472.964H268.36C268.324 473.312 268.288 473.666 268.252 474.026C268.228 474.374 268.216 474.716 268.216 475.052V482H266.758V479.876H266.956C266.764 480.584 266.368 481.142 265.768 481.55C265.168 481.958 264.472 482.162 263.68 482.162ZM263.968 480.974C264.832 480.974 265.516 480.68 266.02 480.092C266.524 479.492 266.776 478.622 266.776 477.482C266.776 476.33 266.524 475.46 266.02 474.872C265.516 474.272 264.832 473.972 263.968 473.972C263.116 473.972 262.432 474.272 261.916 474.872C261.412 475.46 261.16 476.33 261.16 477.482C261.16 478.622 261.412 479.492 261.916 480.092C262.432 480.68 263.116 480.974 263.968 480.974ZM271.035 485.888V475.052C271.035 474.716 271.017 474.374 270.981 474.026C270.957 473.666 270.927 473.312 270.891 472.964H272.295L272.493 475.106H272.277C272.469 474.398 272.859 473.84 273.447 473.432C274.035 473.012 274.737 472.802 275.553 472.802C276.369 472.802 277.071 472.988 277.659 473.36C278.259 473.732 278.727 474.266 279.063 474.962C279.399 475.658 279.567 476.498 279.567 477.482C279.567 478.454 279.399 479.288 279.063 479.984C278.739 480.68 278.277 481.22 277.677 481.604C277.077 481.976 276.369 482.162 275.553 482.162C274.749 482.162 274.053 481.958 273.465 481.55C272.877 481.142 272.487 480.584 272.295 479.876H272.493V485.888H271.035ZM275.265 480.974C276.129 480.974 276.813 480.68 277.317 480.092C277.833 479.492 278.091 478.622 278.091 477.482C278.091 476.33 277.833 475.46 277.317 474.872C276.813 474.272 276.129 473.972 275.265 473.972C274.413 473.972 273.729 474.272 273.213 474.872C272.709 475.46 272.457 476.33 272.457 477.482C272.457 478.622 272.709 479.492 273.213 480.092C273.729 480.68 274.413 480.974 275.265 480.974ZM281.828 485.888V475.052C281.828 474.716 281.81 474.374 281.774 474.026C281.75 473.666 281.72 473.312 281.684 472.964H283.088L283.286 475.106H283.07C283.262 474.398 283.652 473.84 284.24 473.432C284.828 473.012 285.53 472.802 286.346 472.802C287.162 472.802 287.864 472.988 288.452 473.36C289.052 473.732 289.52 474.266 289.856 474.962C290.192 475.658 290.36 476.498 290.36 477.482C290.36 478.454 290.192 479.288 289.856 479.984C289.532 480.68 289.07 481.22 288.47 481.604C287.87 481.976 287.162 482.162 286.346 482.162C285.542 482.162 284.846 481.958 284.258 481.55C283.67 481.142 283.28 480.584 283.088 479.876H283.286V485.888H281.828ZM286.058 480.974C286.922 480.974 287.606 480.68 288.11 480.092C288.626 479.492 288.884 478.622 288.884 477.482C288.884 476.33 288.626 475.46 288.11 474.872C287.606 474.272 286.922 473.972 286.058 473.972C285.206 473.972 284.522 474.272 284.006 474.872C283.502 475.46 283.25 476.33 283.25 477.482C283.25 478.622 283.502 479.492 284.006 480.092C284.522 480.68 285.206 480.974 286.058 480.974ZM292.685 484.052L292.001 483.53C292.325 483.194 292.535 482.876 292.631 482.576C292.739 482.288 292.793 481.994 292.793 481.694L293.117 482H291.929V480.164H293.765V481.46C293.765 481.94 293.687 482.39 293.531 482.81C293.375 483.242 293.093 483.656 292.685 484.052ZM40.3675 506.162C39.4795 506.162 38.7055 505.97 38.0455 505.586C37.3975 505.202 36.8935 504.656 36.5335 503.948C36.1855 503.24 36.0115 502.4 36.0115 501.428C36.0115 500.444 36.1915 499.61 36.5515 498.926C36.9115 498.23 37.4155 497.702 38.0635 497.342C38.7235 496.982 39.4915 496.802 40.3675 496.802C40.9435 496.802 41.5015 496.904 42.0415 497.108C42.5935 497.312 43.0495 497.6 43.4095 497.972L42.8875 499.016C42.5275 498.668 42.1315 498.41 41.6995 498.242C41.2795 498.074 40.8655 497.99 40.4575 497.99C39.5215 497.99 38.7955 498.284 38.2795 498.872C37.7635 499.46 37.5055 500.318 37.5055 501.446C37.5055 502.562 37.7635 503.426 38.2795 504.038C38.7955 504.65 39.5215 504.956 40.4575 504.956C40.8535 504.956 41.2615 504.878 41.6815 504.722C42.1135 504.566 42.5155 504.308 42.8875 503.948L43.4095 504.974C43.0375 505.358 42.5755 505.652 42.0235 505.856C41.4715 506.06 40.9195 506.162 40.3675 506.162ZM49.0138 506.162C48.1498 506.162 47.3938 505.976 46.7458 505.604C46.1098 505.22 45.6178 504.68 45.2698 503.984C44.9218 503.276 44.7478 502.442 44.7478 501.482C44.7478 500.51 44.9218 499.676 45.2698 498.98C45.6178 498.284 46.1098 497.75 46.7458 497.378C47.3938 496.994 48.1498 496.802 49.0138 496.802C49.8898 496.802 50.6458 496.994 51.2818 497.378C51.9298 497.75 52.4278 498.284 52.7758 498.98C53.1358 499.676 53.3158 500.51 53.3158 501.482C53.3158 502.442 53.1358 503.276 52.7758 503.984C52.4278 504.68 51.9298 505.22 51.2818 505.604C50.6458 505.976 49.8898 506.162 49.0138 506.162ZM49.0138 504.974C49.8778 504.974 50.5618 504.68 51.0658 504.092C51.5698 503.492 51.8218 502.622 51.8218 501.482C51.8218 500.33 51.5638 499.46 51.0478 498.872C50.5438 498.272 49.8658 497.972 49.0138 497.972C48.1618 497.972 47.4838 498.272 46.9798 498.872C46.4758 499.46 46.2238 500.33 46.2238 501.482C46.2238 502.622 46.4758 503.492 46.9798 504.092C47.4838 504.68 48.1618 504.974 49.0138 504.974ZM55.589 506V499.052C55.589 498.716 55.571 498.374 55.535 498.026C55.511 497.666 55.481 497.312 55.445 496.964H56.849L57.029 498.944H56.813C57.077 498.248 57.497 497.72 58.073 497.36C58.661 496.988 59.339 496.802 60.107 496.802C61.175 496.802 61.979 497.09 62.519 497.666C63.071 498.23 63.347 499.124 63.347 500.348V506H61.889V500.438C61.889 499.586 61.715 498.968 61.367 498.584C61.031 498.188 60.503 497.99 59.783 497.99C58.943 497.99 58.277 498.248 57.785 498.764C57.293 499.28 57.047 499.97 57.047 500.834V506H55.589ZM69.1419 506.162C68.4219 506.162 67.7499 506.066 67.1259 505.874C66.5019 505.67 65.9859 505.388 65.5779 505.028L66.0819 504.002C66.5259 504.35 67.0059 504.608 67.5219 504.776C68.0499 504.944 68.5959 505.028 69.1599 505.028C69.8799 505.028 70.4199 504.902 70.7799 504.65C71.1519 504.386 71.3379 504.026 71.3379 503.57C71.3379 503.222 71.2179 502.946 70.9779 502.742C70.7499 502.526 70.3719 502.358 69.8439 502.238L68.1699 501.896C67.4019 501.728 66.8259 501.446 66.4419 501.05C66.0579 500.642 65.8659 500.126 65.8659 499.502C65.8659 498.974 66.0039 498.512 66.2799 498.116C66.5559 497.708 66.9579 497.39 67.4859 497.162C68.0139 496.922 68.6319 496.802 69.3399 496.802C69.9999 496.802 70.6059 496.904 71.1579 497.108C71.7219 497.3 72.1899 497.582 72.5619 497.954L72.0399 498.962C71.6799 498.614 71.2659 498.356 70.7979 498.188C70.3419 498.008 69.8679 497.918 69.3759 497.918C68.6679 497.918 68.1339 498.062 67.7739 498.35C67.4259 498.626 67.2519 498.992 67.2519 499.448C67.2519 499.796 67.3599 500.084 67.5759 500.312C67.8039 500.528 68.1519 500.69 68.6199 500.798L70.2939 501.14C71.1099 501.32 71.7159 501.602 72.1119 501.986C72.5199 502.358 72.7239 502.862 72.7239 503.498C72.7239 504.038 72.5739 504.512 72.2739 504.92C71.9739 505.316 71.5539 505.622 71.0139 505.838C70.4859 506.054 69.8619 506.162 69.1419 506.162ZM78.2516 506.162C77.1836 506.162 76.3736 505.868 75.8216 505.28C75.2816 504.692 75.0116 503.792 75.0116 502.58V496.964H76.4696V502.544C76.4696 503.372 76.6376 503.984 76.9736 504.38C77.3096 504.764 77.8316 504.956 78.5396 504.956C79.3316 504.956 79.9676 504.698 80.4476 504.182C80.9276 503.666 81.1676 502.976 81.1676 502.112V496.964H82.6256V506H81.2036V503.966H81.4376C81.1856 504.662 80.7776 505.202 80.2136 505.586C79.6616 505.97 79.0076 506.162 78.2516 506.162ZM85.4542 506V492.752H86.9122V506H85.4542ZM92.9473 506.162C92.0593 506.162 91.3813 505.91 90.9133 505.406C90.4453 504.89 90.2113 504.116 90.2113 503.084V498.098H88.4473V496.964H90.2113V494.498L91.6693 494.084V496.964H94.2613V498.098H91.6693V502.922C91.6693 503.642 91.7893 504.158 92.0293 504.47C92.2813 504.77 92.6533 504.92 93.1453 504.92C93.3733 504.92 93.5773 504.902 93.7573 504.866C93.9373 504.818 94.0993 504.764 94.2433 504.704V505.928C94.0753 506 93.8713 506.054 93.6313 506.09C93.4033 506.138 93.1753 506.162 92.9473 506.162ZM103.934 506.162C103.046 506.162 102.368 505.91 101.9 505.406C101.432 504.89 101.198 504.116 101.198 503.084V498.098H99.4336V496.964H101.198V494.498L102.656 494.084V496.964H105.248V498.098H102.656V502.922C102.656 503.642 102.776 504.158 103.016 504.47C103.268 504.77 103.64 504.92 104.132 504.92C104.36 504.92 104.564 504.902 104.744 504.866C104.924 504.818 105.086 504.764 105.23 504.704V505.928C105.062 506 104.858 506.054 104.618 506.09C104.39 506.138 104.162 506.162 103.934 506.162ZM107.023 506V492.752H108.481V498.962H108.247C108.499 498.254 108.919 497.72 109.507 497.36C110.107 496.988 110.797 496.802 111.577 496.802C112.657 496.802 113.461 497.096 113.989 497.684C114.517 498.26 114.781 499.136 114.781 500.312V506H113.323V500.402C113.323 499.562 113.155 498.95 112.819 498.566C112.495 498.182 111.967 497.99 111.235 497.99C110.395 497.99 109.723 498.248 109.219 498.764C108.727 499.28 108.481 499.958 108.481 500.798V506H107.023ZM121.583 506.162C120.167 506.162 119.051 505.754 118.235 504.938C117.419 504.11 117.011 502.964 117.011 501.5C117.011 500.552 117.191 499.73 117.551 499.034C117.911 498.326 118.415 497.78 119.063 497.396C119.711 497 120.455 496.802 121.295 496.802C122.123 496.802 122.819 496.976 123.383 497.324C123.947 497.672 124.379 498.17 124.679 498.818C124.979 499.454 125.129 500.21 125.129 501.086V501.626H118.127V500.708H124.175L123.869 500.942C123.869 499.982 123.653 499.232 123.221 498.692C122.789 498.152 122.147 497.882 121.295 497.882C120.395 497.882 119.693 498.2 119.189 498.836C118.685 499.46 118.433 500.306 118.433 501.374V501.536C118.433 502.664 118.709 503.522 119.261 504.11C119.825 504.686 120.611 504.974 121.619 504.974C122.159 504.974 122.663 504.896 123.131 504.74C123.611 504.572 124.067 504.302 124.499 503.93L125.003 504.956C124.607 505.34 124.103 505.64 123.491 505.856C122.891 506.06 122.255 506.162 121.583 506.162ZM135.258 506.162C134.37 506.162 133.692 505.91 133.224 505.406C132.756 504.89 132.522 504.116 132.522 503.084V498.098H130.758V496.964H132.522V494.498L133.98 494.084V496.964H136.572V498.098H133.98V502.922C133.98 503.642 134.1 504.158 134.34 504.47C134.592 504.77 134.964 504.92 135.456 504.92C135.684 504.92 135.888 504.902 136.068 504.866C136.248 504.818 136.41 504.764 136.554 504.704V505.928C136.386 506 136.182 506.054 135.942 506.09C135.714 506.138 135.486 506.162 135.258 506.162ZM142.273 506.162C140.857 506.162 139.741 505.754 138.925 504.938C138.109 504.11 137.701 502.964 137.701 501.5C137.701 500.552 137.881 499.73 138.241 499.034C138.601 498.326 139.105 497.78 139.753 497.396C140.401 497 141.145 496.802 141.985 496.802C142.813 496.802 143.509 496.976 144.073 497.324C144.637 497.672 145.069 498.17 145.369 498.818C145.669 499.454 145.819 500.21 145.819 501.086V501.626H138.817V500.708H144.865L144.559 500.942C144.559 499.982 144.343 499.232 143.911 498.692C143.479 498.152 142.837 497.882 141.985 497.882C141.085 497.882 140.383 498.2 139.879 498.836C139.375 499.46 139.123 500.306 139.123 501.374V501.536C139.123 502.664 139.399 503.522 139.951 504.11C140.515 504.686 141.301 504.974 142.309 504.974C142.849 504.974 143.353 504.896 143.821 504.74C144.301 504.572 144.757 504.302 145.189 503.93L145.693 504.956C145.297 505.34 144.793 505.64 144.181 505.856C143.581 506.06 142.945 506.162 142.273 506.162ZM151.056 506.162C150.336 506.162 149.664 506.066 149.04 505.874C148.416 505.67 147.9 505.388 147.492 505.028L147.996 504.002C148.44 504.35 148.92 504.608 149.436 504.776C149.964 504.944 150.51 505.028 151.074 505.028C151.794 505.028 152.334 504.902 152.694 504.65C153.066 504.386 153.252 504.026 153.252 503.57C153.252 503.222 153.132 502.946 152.892 502.742C152.664 502.526 152.286 502.358 151.758 502.238L150.084 501.896C149.316 501.728 148.74 501.446 148.356 501.05C147.972 500.642 147.78 500.126 147.78 499.502C147.78 498.974 147.918 498.512 148.194 498.116C148.47 497.708 148.872 497.39 149.4 497.162C149.928 496.922 150.546 496.802 151.254 496.802C151.914 496.802 152.52 496.904 153.072 497.108C153.636 497.3 154.104 497.582 154.476 497.954L153.954 498.962C153.594 498.614 153.18 498.356 152.712 498.188C152.256 498.008 151.782 497.918 151.29 497.918C150.582 497.918 150.048 498.062 149.688 498.35C149.34 498.626 149.166 498.992 149.166 499.448C149.166 499.796 149.274 500.084 149.49 500.312C149.718 500.528 150.066 500.69 150.534 500.798L152.208 501.14C153.024 501.32 153.63 501.602 154.026 501.986C154.434 502.358 154.638 502.862 154.638 503.498C154.638 504.038 154.488 504.512 154.188 504.92C153.888 505.316 153.468 505.622 152.928 505.838C152.4 506.054 151.776 506.162 151.056 506.162ZM160.096 506.162C159.208 506.162 158.53 505.91 158.062 505.406C157.594 504.89 157.36 504.116 157.36 503.084V498.098H155.596V496.964H157.36V494.498L158.818 494.084V496.964H161.41V498.098H158.818V502.922C158.818 503.642 158.938 504.158 159.178 504.47C159.43 504.77 159.802 504.92 160.294 504.92C160.522 504.92 160.726 504.902 160.906 504.866C161.086 504.818 161.248 504.764 161.392 504.704V505.928C161.224 506 161.02 506.054 160.78 506.09C160.552 506.138 160.324 506.162 160.096 506.162ZM167.878 506V492.752H169.336V498.962H169.102C169.354 498.254 169.774 497.72 170.362 497.36C170.962 496.988 171.652 496.802 172.432 496.802C173.512 496.802 174.316 497.096 174.844 497.684C175.372 498.26 175.636 499.136 175.636 500.312V506H174.178V500.402C174.178 499.562 174.01 498.95 173.674 498.566C173.35 498.182 172.822 497.99 172.09 497.99C171.25 497.99 170.578 498.248 170.074 498.764C169.582 499.28 169.336 499.958 169.336 500.798V506H167.878ZM178.425 506V496.964H179.883V506H178.425ZM178.245 494.912V493.274H180.045V494.912H178.245ZM185.72 506.162C185 506.162 184.328 506.066 183.704 505.874C183.08 505.67 182.564 505.388 182.156 505.028L182.66 504.002C183.104 504.35 183.584 504.608 184.1 504.776C184.628 504.944 185.174 505.028 185.738 505.028C186.458 505.028 186.998 504.902 187.358 504.65C187.73 504.386 187.916 504.026 187.916 503.57C187.916 503.222 187.796 502.946 187.556 502.742C187.328 502.526 186.95 502.358 186.422 502.238L184.748 501.896C183.98 501.728 183.404 501.446 183.02 501.05C182.636 500.642 182.444 500.126 182.444 499.502C182.444 498.974 182.582 498.512 182.858 498.116C183.134 497.708 183.536 497.39 184.064 497.162C184.592 496.922 185.21 496.802 185.918 496.802C186.578 496.802 187.184 496.904 187.736 497.108C188.3 497.3 188.768 497.582 189.14 497.954L188.618 498.962C188.258 498.614 187.844 498.356 187.376 498.188C186.92 498.008 186.446 497.918 185.954 497.918C185.246 497.918 184.712 498.062 184.352 498.35C184.004 498.626 183.83 498.992 183.83 499.448C183.83 499.796 183.938 500.084 184.154 500.312C184.382 500.528 184.73 500.69 185.198 500.798L186.872 501.14C187.688 501.32 188.294 501.602 188.69 501.986C189.098 502.358 189.302 502.862 189.302 503.498C189.302 504.038 189.152 504.512 188.852 504.92C188.552 505.316 188.132 505.622 187.592 505.838C187.064 506.054 186.44 506.162 185.72 506.162ZM194.76 506.162C193.872 506.162 193.194 505.91 192.726 505.406C192.258 504.89 192.024 504.116 192.024 503.084V498.098H190.26V496.964H192.024V494.498L193.482 494.084V496.964H196.074V498.098H193.482V502.922C193.482 503.642 193.602 504.158 193.842 504.47C194.094 504.77 194.466 504.92 194.958 504.92C195.186 504.92 195.39 504.902 195.57 504.866C195.75 504.818 195.912 504.764 196.056 504.704V505.928C195.888 506 195.684 506.054 195.444 506.09C195.216 506.138 194.988 506.162 194.76 506.162ZM201.469 506.162C200.605 506.162 199.849 505.976 199.201 505.604C198.565 505.22 198.073 504.68 197.725 503.984C197.377 503.276 197.203 502.442 197.203 501.482C197.203 500.51 197.377 499.676 197.725 498.98C198.073 498.284 198.565 497.75 199.201 497.378C199.849 496.994 200.605 496.802 201.469 496.802C202.345 496.802 203.101 496.994 203.737 497.378C204.385 497.75 204.883 498.284 205.231 498.98C205.591 499.676 205.771 500.51 205.771 501.482C205.771 502.442 205.591 503.276 205.231 503.984C204.883 504.68 204.385 505.22 203.737 505.604C203.101 505.976 202.345 506.162 201.469 506.162ZM201.469 504.974C202.333 504.974 203.017 504.68 203.521 504.092C204.025 503.492 204.277 502.622 204.277 501.482C204.277 500.33 204.019 499.46 203.503 498.872C202.999 498.272 202.321 497.972 201.469 497.972C200.617 497.972 199.939 498.272 199.435 498.872C198.931 499.46 198.679 500.33 198.679 501.482C198.679 502.622 198.931 503.492 199.435 504.092C199.939 504.68 200.617 504.974 201.469 504.974ZM208.008 506V499.142C208.008 498.782 207.996 498.416 207.972 498.044C207.96 497.672 207.936 497.312 207.9 496.964H209.304L209.484 499.16L209.232 499.178C209.352 498.638 209.562 498.194 209.862 497.846C210.162 497.498 210.516 497.24 210.924 497.072C211.332 496.892 211.758 496.802 212.202 496.802C212.382 496.802 212.538 496.808 212.67 496.82C212.814 496.832 212.946 496.862 213.066 496.91L213.048 498.206C212.868 498.146 212.7 498.11 212.544 498.098C212.4 498.074 212.232 498.062 212.04 498.062C211.512 498.062 211.05 498.188 210.654 498.44C210.27 498.692 209.976 499.016 209.772 499.412C209.58 499.808 209.484 500.228 209.484 500.672V506H208.008ZM214.768 510.086L214.426 508.88C214.99 508.748 215.458 508.592 215.83 508.412C216.214 508.244 216.532 508.016 216.784 507.728C217.036 507.44 217.252 507.08 217.432 506.648L217.9 505.586L217.864 506.198L213.922 496.964H215.506L218.764 504.902H218.296L221.518 496.964H223.048L218.872 506.756C218.632 507.332 218.368 507.812 218.08 508.196C217.792 508.592 217.48 508.91 217.144 509.15C216.82 509.402 216.46 509.6 216.064 509.744C215.668 509.888 215.236 510.002 214.768 510.086ZM232.588 506.162C231.7 506.162 231.022 505.91 230.554 505.406C230.086 504.89 229.852 504.116 229.852 503.084V498.098H228.088V496.964H229.852V494.498L231.31 494.084V496.964H233.902V498.098H231.31V502.922C231.31 503.642 231.43 504.158 231.67 504.47C231.922 504.77 232.294 504.92 232.786 504.92C233.014 504.92 233.218 504.902 233.398 504.866C233.578 504.818 233.74 504.764 233.884 504.704V505.928C233.716 506 233.512 506.054 233.272 506.09C233.044 506.138 232.816 506.162 232.588 506.162ZM239.297 506.162C238.433 506.162 237.677 505.976 237.029 505.604C236.393 505.22 235.901 504.68 235.553 503.984C235.205 503.276 235.031 502.442 235.031 501.482C235.031 500.51 235.205 499.676 235.553 498.98C235.901 498.284 236.393 497.75 237.029 497.378C237.677 496.994 238.433 496.802 239.297 496.802C240.173 496.802 240.929 496.994 241.565 497.378C242.213 497.75 242.711 498.284 243.059 498.98C243.419 499.676 243.599 500.51 243.599 501.482C243.599 502.442 243.419 503.276 243.059 503.984C242.711 504.68 242.213 505.22 241.565 505.604C240.929 505.976 240.173 506.162 239.297 506.162ZM239.297 504.974C240.161 504.974 240.845 504.68 241.349 504.092C241.853 503.492 242.105 502.622 242.105 501.482C242.105 500.33 241.847 499.46 241.331 498.872C240.827 498.272 240.149 497.972 239.297 497.972C238.445 497.972 237.767 498.272 237.263 498.872C236.759 499.46 236.507 500.33 236.507 501.482C236.507 502.622 236.759 503.492 237.263 504.092C237.767 504.68 238.445 504.974 239.297 504.974ZM254.544 510.014C253.764 510.014 253.044 509.918 252.384 509.726C251.724 509.534 251.13 509.24 250.602 508.844L251.034 507.746C251.406 508.01 251.772 508.22 252.132 508.376C252.492 508.532 252.864 508.646 253.248 508.718C253.632 508.802 254.04 508.844 254.472 508.844C255.36 508.844 256.032 508.61 256.488 508.142C256.944 507.674 257.172 507.008 257.172 506.144V503.498H257.352C257.16 504.206 256.764 504.77 256.164 505.19C255.564 505.598 254.862 505.802 254.058 505.802C253.23 505.802 252.51 505.622 251.898 505.262C251.298 504.89 250.83 504.368 250.494 503.696C250.17 503.012 250.008 502.208 250.008 501.284C250.008 500.372 250.17 499.58 250.494 498.908C250.83 498.236 251.298 497.72 251.898 497.36C252.51 496.988 253.23 496.802 254.058 496.802C254.874 496.802 255.576 497.006 256.164 497.414C256.764 497.822 257.16 498.386 257.352 499.106L257.172 498.926L257.334 496.964H258.756C258.708 497.312 258.672 497.666 258.648 498.026C258.624 498.374 258.612 498.716 258.612 499.052V505.946C258.612 507.29 258.264 508.304 257.568 508.988C256.884 509.672 255.876 510.014 254.544 510.014ZM254.328 504.614C255.204 504.614 255.894 504.326 256.398 503.75C256.902 503.162 257.154 502.34 257.154 501.284C257.154 500.228 256.902 499.412 256.398 498.836C255.894 498.26 255.204 497.972 254.328 497.972C253.464 497.972 252.774 498.26 252.258 498.836C251.742 499.412 251.484 500.228 251.484 501.284C251.484 502.34 251.742 503.162 252.258 503.75C252.774 504.326 253.464 504.614 254.328 504.614ZM261.411 506V496.964H262.869V506H261.411ZM261.231 494.912V493.274H263.031V494.912H261.231ZM268.364 506L264.494 496.964H266.078L269.318 504.92H268.832L272.108 496.964H273.62L269.75 506H268.364ZM279.154 506.162C277.738 506.162 276.622 505.754 275.806 504.938C274.99 504.11 274.582 502.964 274.582 501.5C274.582 500.552 274.762 499.73 275.122 499.034C275.482 498.326 275.986 497.78 276.634 497.396C277.282 497 278.026 496.802 278.866 496.802C279.694 496.802 280.39 496.976 280.954 497.324C281.518 497.672 281.95 498.17 282.25 498.818C282.55 499.454 282.7 500.21 282.7 501.086V501.626H275.698V500.708H281.746L281.44 500.942C281.44 499.982 281.224 499.232 280.792 498.692C280.36 498.152 279.718 497.882 278.866 497.882C277.966 497.882 277.264 498.2 276.76 498.836C276.256 499.46 276.004 500.306 276.004 501.374V501.536C276.004 502.664 276.28 503.522 276.832 504.11C277.396 504.686 278.182 504.974 279.19 504.974C279.73 504.974 280.234 504.896 280.702 504.74C281.182 504.572 281.638 504.302 282.07 503.93L282.574 504.956C282.178 505.34 281.674 505.64 281.062 505.856C280.462 506.06 279.826 506.162 279.154 506.162ZM289.264 510.086L288.922 508.88C289.486 508.748 289.954 508.592 290.326 508.412C290.71 508.244 291.028 508.016 291.28 507.728C291.532 507.44 291.748 507.08 291.928 506.648L292.396 505.586L292.36 506.198L288.418 496.964H290.002L293.26 504.902H292.792L296.014 496.964H297.544L293.368 506.756C293.128 507.332 292.864 507.812 292.576 508.196C292.288 508.592 291.976 508.91 291.64 509.15C291.316 509.402 290.956 509.6 290.56 509.744C290.164 509.888 289.732 510.002 289.264 510.086ZM302.772 506.162C301.908 506.162 301.152 505.976 300.504 505.604C299.868 505.22 299.376 504.68 299.028 503.984C298.68 503.276 298.506 502.442 298.506 501.482C298.506 500.51 298.68 499.676 299.028 498.98C299.376 498.284 299.868 497.75 300.504 497.378C301.152 496.994 301.908 496.802 302.772 496.802C303.648 496.802 304.404 496.994 305.04 497.378C305.688 497.75 306.186 498.284 306.534 498.98C306.894 499.676 307.074 500.51 307.074 501.482C307.074 502.442 306.894 503.276 306.534 503.984C306.186 504.68 305.688 505.22 305.04 505.604C304.404 505.976 303.648 506.162 302.772 506.162ZM302.772 504.974C303.636 504.974 304.32 504.68 304.824 504.092C305.328 503.492 305.58 502.622 305.58 501.482C305.58 500.33 305.322 499.46 304.806 498.872C304.302 498.272 303.624 497.972 302.772 497.972C301.92 497.972 301.242 498.272 300.738 498.872C300.234 499.46 299.982 500.33 299.982 501.482C299.982 502.622 300.234 503.492 300.738 504.092C301.242 504.68 301.92 504.974 302.772 504.974ZM312.533 506.162C311.465 506.162 310.655 505.868 310.103 505.28C309.563 504.692 309.293 503.792 309.293 502.58V496.964H310.751V502.544C310.751 503.372 310.919 503.984 311.255 504.38C311.591 504.764 312.113 504.956 312.821 504.956C313.613 504.956 314.249 504.698 314.729 504.182C315.209 503.666 315.449 502.976 315.449 502.112V496.964H316.907V506H315.485V503.966H315.719C315.467 504.662 315.059 505.202 314.495 505.586C313.943 505.97 313.289 506.162 312.533 506.162ZM319.699 506V499.142C319.699 498.782 319.687 498.416 319.663 498.044C319.651 497.672 319.627 497.312 319.591 496.964H320.995L321.175 499.16L320.923 499.178C321.043 498.638 321.253 498.194 321.553 497.846C321.853 497.498 322.207 497.24 322.615 497.072C323.023 496.892 323.449 496.802 323.893 496.802C324.073 496.802 324.229 496.808 324.361 496.82C324.505 496.832 324.637 496.862 324.757 496.91L324.739 498.206C324.559 498.146 324.391 498.11 324.235 498.098C324.091 498.074 323.923 498.062 323.731 498.062C323.203 498.062 322.741 498.188 322.345 498.44C321.961 498.692 321.667 499.016 321.463 499.412C321.271 499.808 321.175 500.228 321.175 500.672V506H319.699ZM63.0707 530V522.098H61.3067V520.964H63.4667L63.0707 521.342V519.83C63.0707 518.81 63.3287 518.03 63.8447 517.49C64.3607 516.95 65.0987 516.68 66.0587 516.68C66.2987 516.68 66.5447 516.704 66.7967 516.752C67.0607 516.788 67.2767 516.842 67.4447 516.914V518.12C67.3007 518.06 67.1207 518.012 66.9047 517.976C66.7007 517.928 66.4907 517.904 66.2747 517.904C65.9027 517.904 65.5847 517.982 65.3207 518.138C65.0567 518.282 64.8587 518.504 64.7267 518.804C64.5947 519.104 64.5287 519.488 64.5287 519.956V521.27L64.2947 520.964H67.0487V522.098H64.5287V530H63.0707ZM72.4526 530.162C71.0366 530.162 69.9206 529.754 69.1046 528.938C68.2886 528.11 67.8806 526.964 67.8806 525.5C67.8806 524.552 68.0606 523.73 68.4206 523.034C68.7806 522.326 69.2846 521.78 69.9326 521.396C70.5806 521 71.3246 520.802 72.1646 520.802C72.9926 520.802 73.6886 520.976 74.2526 521.324C74.8166 521.672 75.2486 522.17 75.5486 522.818C75.8486 523.454 75.9986 524.21 75.9986 525.086V525.626H68.9966V524.708H75.0446L74.7386 524.942C74.7386 523.982 74.5226 523.232 74.0906 522.692C73.6586 522.152 73.0166 521.882 72.1646 521.882C71.2646 521.882 70.5626 522.2 70.0586 522.836C69.5546 523.46 69.3026 524.306 69.3026 525.374V525.536C69.3026 526.664 69.5786 527.522 70.1306 528.11C70.6946 528.686 71.4806 528.974 72.4886 528.974C73.0286 528.974 73.5326 528.896 74.0006 528.74C74.4806 528.572 74.9366 528.302 75.3686 527.93L75.8726 528.956C75.4766 529.34 74.9726 529.64 74.3606 529.856C73.7606 530.06 73.1246 530.162 72.4526 530.162ZM82.2436 530.162C80.8276 530.162 79.7116 529.754 78.8956 528.938C78.0796 528.11 77.6716 526.964 77.6716 525.5C77.6716 524.552 77.8516 523.73 78.2116 523.034C78.5716 522.326 79.0756 521.78 79.7236 521.396C80.3716 521 81.1156 520.802 81.9556 520.802C82.7836 520.802 83.4796 520.976 84.0436 521.324C84.6076 521.672 85.0396 522.17 85.3396 522.818C85.6396 523.454 85.7896 524.21 85.7896 525.086V525.626H78.7876V524.708H84.8356L84.5296 524.942C84.5296 523.982 84.3136 523.232 83.8816 522.692C83.4496 522.152 82.8076 521.882 81.9556 521.882C81.0556 521.882 80.3536 522.2 79.8496 522.836C79.3456 523.46 79.0936 524.306 79.0936 525.374V525.536C79.0936 526.664 79.3696 527.522 79.9216 528.11C80.4856 528.686 81.2716 528.974 82.2796 528.974C82.8196 528.974 83.3236 528.896 83.7916 528.74C84.2716 528.572 84.7276 528.302 85.1596 527.93L85.6636 528.956C85.2676 529.34 84.7636 529.64 84.1516 529.856C83.5516 530.06 82.9156 530.162 82.2436 530.162ZM91.4406 530.162C90.6486 530.162 89.9526 529.976 89.3526 529.604C88.7526 529.22 88.2846 528.68 87.9486 527.984C87.6246 527.288 87.4626 526.454 87.4626 525.482C87.4626 524.498 87.6246 523.658 87.9486 522.962C88.2846 522.266 88.7526 521.732 89.3526 521.36C89.9526 520.988 90.6486 520.802 91.4406 520.802C92.2566 520.802 92.9586 521.006 93.5466 521.414C94.1466 521.822 94.5486 522.374 94.7526 523.07H94.5366V516.752H95.9946V530H94.5546V527.84H94.7526C94.5606 528.56 94.1646 529.13 93.5646 529.55C92.9646 529.958 92.2566 530.162 91.4406 530.162ZM91.7466 528.974C92.5986 528.974 93.2826 528.68 93.7986 528.092C94.3146 527.492 94.5726 526.622 94.5726 525.482C94.5726 524.33 94.3146 523.46 93.7986 522.872C93.2826 522.272 92.5986 521.972 91.7466 521.972C90.8946 521.972 90.2106 522.272 89.6946 522.872C89.1906 523.46 88.9386 524.33 88.9386 525.482C88.9386 526.622 89.1906 527.492 89.6946 528.092C90.2106 528.68 90.8946 528.974 91.7466 528.974ZM103.35 530.162C102.534 530.162 101.832 529.958 101.244 529.55C100.656 529.13 100.26 528.56 100.056 527.84H100.254V530H98.8136V516.752H100.272V523.07H100.056C100.26 522.374 100.656 521.822 101.244 521.414C101.832 521.006 102.534 520.802 103.35 520.802C104.166 520.802 104.868 520.994 105.456 521.378C106.056 521.75 106.518 522.284 106.842 522.98C107.178 523.676 107.346 524.51 107.346 525.482C107.346 526.454 107.178 527.288 106.842 527.984C106.506 528.68 106.038 529.22 105.438 529.604C104.85 529.976 104.154 530.162 103.35 530.162ZM103.044 528.974C103.896 528.974 104.58 528.68 105.096 528.092C105.612 527.504 105.87 526.634 105.87 525.482C105.87 524.33 105.612 523.46 105.096 522.872C104.58 522.272 103.896 521.972 103.044 521.972C102.192 521.972 101.508 522.272 100.992 522.872C100.488 523.46 100.236 524.33 100.236 525.482C100.236 526.622 100.488 527.492 100.992 528.092C101.508 528.68 102.192 528.974 103.044 528.974ZM113.045 530.162C112.241 530.162 111.539 529.976 110.939 529.604C110.339 529.22 109.871 528.68 109.535 527.984C109.211 527.288 109.049 526.454 109.049 525.482C109.049 524.498 109.211 523.658 109.535 522.962C109.871 522.266 110.339 521.732 110.939 521.36C111.539 520.988 112.241 520.802 113.045 520.802C113.861 520.802 114.563 521.012 115.151 521.432C115.751 521.84 116.147 522.398 116.339 523.106H116.123L116.321 520.964H117.725C117.689 521.312 117.653 521.666 117.617 522.026C117.593 522.374 117.581 522.716 117.581 523.052V530H116.123V527.876H116.321C116.129 528.584 115.733 529.142 115.133 529.55C114.533 529.958 113.837 530.162 113.045 530.162ZM113.333 528.974C114.197 528.974 114.881 528.68 115.385 528.092C115.889 527.492 116.141 526.622 116.141 525.482C116.141 524.33 115.889 523.46 115.385 522.872C114.881 522.272 114.197 521.972 113.333 521.972C112.481 521.972 111.797 522.272 111.281 522.872C110.777 523.46 110.525 524.33 110.525 525.482C110.525 526.622 110.777 527.492 111.281 528.092C111.797 528.68 112.481 528.974 113.333 528.974ZM124.198 530.162C123.31 530.162 122.536 529.97 121.876 529.586C121.228 529.202 120.724 528.656 120.364 527.948C120.016 527.24 119.842 526.4 119.842 525.428C119.842 524.444 120.022 523.61 120.382 522.926C120.742 522.23 121.246 521.702 121.894 521.342C122.554 520.982 123.322 520.802 124.198 520.802C124.774 520.802 125.332 520.904 125.872 521.108C126.424 521.312 126.88 521.6 127.24 521.972L126.718 523.016C126.358 522.668 125.962 522.41 125.53 522.242C125.11 522.074 124.696 521.99 124.288 521.99C123.352 521.99 122.626 522.284 122.11 522.872C121.594 523.46 121.336 524.318 121.336 525.446C121.336 526.562 121.594 527.426 122.11 528.038C122.626 528.65 123.352 528.956 124.288 528.956C124.684 528.956 125.092 528.878 125.512 528.722C125.944 528.566 126.346 528.308 126.718 527.948L127.24 528.974C126.868 529.358 126.406 529.652 125.854 529.856C125.302 530.06 124.75 530.162 124.198 530.162ZM129.312 530V516.752H130.77V524.978H130.806L135 520.964H136.836L131.886 525.68L131.922 524.942L137.304 530H135.414L130.806 525.752H130.77V530H129.312ZM146.977 530.162C146.113 530.162 145.357 529.976 144.709 529.604C144.073 529.22 143.581 528.68 143.233 527.984C142.885 527.276 142.711 526.442 142.711 525.482C142.711 524.51 142.885 523.676 143.233 522.98C143.581 522.284 144.073 521.75 144.709 521.378C145.357 520.994 146.113 520.802 146.977 520.802C147.853 520.802 148.609 520.994 149.245 521.378C149.893 521.75 150.391 522.284 150.739 522.98C151.099 523.676 151.279 524.51 151.279 525.482C151.279 526.442 151.099 527.276 150.739 527.984C150.391 528.68 149.893 529.22 149.245 529.604C148.609 529.976 147.853 530.162 146.977 530.162ZM146.977 528.974C147.841 528.974 148.525 528.68 149.029 528.092C149.533 527.492 149.785 526.622 149.785 525.482C149.785 524.33 149.527 523.46 149.011 522.872C148.507 522.272 147.829 521.972 146.977 521.972C146.125 521.972 145.447 522.272 144.943 522.872C144.439 523.46 144.187 524.33 144.187 525.482C144.187 526.622 144.439 527.492 144.943 528.092C145.447 528.68 146.125 528.974 146.977 528.974ZM153.516 530V523.142C153.516 522.782 153.504 522.416 153.48 522.044C153.468 521.672 153.444 521.312 153.408 520.964H154.812L154.992 523.16L154.74 523.178C154.86 522.638 155.07 522.194 155.37 521.846C155.67 521.498 156.024 521.24 156.432 521.072C156.84 520.892 157.266 520.802 157.71 520.802C157.89 520.802 158.046 520.808 158.178 520.82C158.322 520.832 158.454 520.862 158.574 520.91L158.556 522.206C158.376 522.146 158.208 522.11 158.052 522.098C157.908 522.074 157.74 522.062 157.548 522.062C157.02 522.062 156.558 522.188 156.162 522.44C155.778 522.692 155.484 523.016 155.28 523.412C155.088 523.808 154.992 524.228 154.992 524.672V530H153.516ZM167.79 530.162C167.07 530.162 166.398 530.066 165.774 529.874C165.15 529.67 164.634 529.388 164.226 529.028L164.73 528.002C165.174 528.35 165.654 528.608 166.17 528.776C166.698 528.944 167.244 529.028 167.808 529.028C168.528 529.028 169.068 528.902 169.428 528.65C169.8 528.386 169.986 528.026 169.986 527.57C169.986 527.222 169.866 526.946 169.626 526.742C169.398 526.526 169.02 526.358 168.492 526.238L166.818 525.896C166.05 525.728 165.474 525.446 165.09 525.05C164.706 524.642 164.514 524.126 164.514 523.502C164.514 522.974 164.652 522.512 164.928 522.116C165.204 521.708 165.606 521.39 166.134 521.162C166.662 520.922 167.28 520.802 167.988 520.802C168.648 520.802 169.254 520.904 169.806 521.108C170.37 521.3 170.838 521.582 171.21 521.954L170.688 522.962C170.328 522.614 169.914 522.356 169.446 522.188C168.99 522.008 168.516 521.918 168.024 521.918C167.316 521.918 166.782 522.062 166.422 522.35C166.074 522.626 165.9 522.992 165.9 523.448C165.9 523.796 166.008 524.084 166.224 524.312C166.452 524.528 166.8 524.69 167.268 524.798L168.942 525.14C169.758 525.32 170.364 525.602 170.76 525.986C171.168 526.358 171.372 526.862 171.372 527.498C171.372 528.038 171.222 528.512 170.922 528.92C170.622 529.316 170.202 529.622 169.662 529.838C169.134 530.054 168.51 530.162 167.79 530.162ZM176.83 530.162C175.942 530.162 175.264 529.91 174.796 529.406C174.328 528.89 174.094 528.116 174.094 527.084V522.098H172.33V520.964H174.094V518.498L175.552 518.084V520.964H178.144V522.098H175.552V526.922C175.552 527.642 175.672 528.158 175.912 528.47C176.164 528.77 176.536 528.92 177.028 528.92C177.256 528.92 177.46 528.902 177.64 528.866C177.82 528.818 177.982 528.764 178.126 528.704V529.928C177.958 530 177.754 530.054 177.514 530.09C177.286 530.138 177.058 530.162 176.83 530.162ZM183.357 530.162C182.553 530.162 181.851 529.976 181.251 529.604C180.651 529.22 180.183 528.68 179.847 527.984C179.523 527.288 179.361 526.454 179.361 525.482C179.361 524.498 179.523 523.658 179.847 522.962C180.183 522.266 180.651 521.732 181.251 521.36C181.851 520.988 182.553 520.802 183.357 520.802C184.173 520.802 184.875 521.012 185.463 521.432C186.063 521.84 186.459 522.398 186.651 523.106H186.435L186.633 520.964H188.037C188.001 521.312 187.965 521.666 187.929 522.026C187.905 522.374 187.893 522.716 187.893 523.052V530H186.435V527.876H186.633C186.441 528.584 186.045 529.142 185.445 529.55C184.845 529.958 184.149 530.162 183.357 530.162ZM183.645 528.974C184.509 528.974 185.193 528.68 185.697 528.092C186.201 527.492 186.453 526.622 186.453 525.482C186.453 524.33 186.201 523.46 185.697 522.872C185.193 522.272 184.509 521.972 183.645 521.972C182.793 521.972 182.109 522.272 181.593 522.872C181.089 523.46 180.837 524.33 180.837 525.482C180.837 526.622 181.089 527.492 181.593 528.092C182.109 528.68 182.793 528.974 183.645 528.974ZM190.676 530V523.142C190.676 522.782 190.664 522.416 190.64 522.044C190.628 521.672 190.604 521.312 190.568 520.964H191.972L192.152 523.16L191.9 523.178C192.02 522.638 192.23 522.194 192.53 521.846C192.83 521.498 193.184 521.24 193.592 521.072C194 520.892 194.426 520.802 194.87 520.802C195.05 520.802 195.206 520.808 195.338 520.82C195.482 520.832 195.614 520.862 195.734 520.91L195.716 522.206C195.536 522.146 195.368 522.11 195.212 522.098C195.068 522.074 194.9 522.062 194.708 522.062C194.18 522.062 193.718 522.188 193.322 522.44C192.938 522.692 192.644 523.016 192.44 523.412C192.248 523.808 192.152 524.228 192.152 524.672V530H190.676ZM200.93 530.162C200.042 530.162 199.364 529.91 198.896 529.406C198.428 528.89 198.194 528.116 198.194 527.084V522.098H196.43V520.964H198.194V518.498L199.652 518.084V520.964H202.244V522.098H199.652V526.922C199.652 527.642 199.772 528.158 200.012 528.47C200.264 528.77 200.636 528.92 201.128 528.92C201.356 528.92 201.56 528.902 201.74 528.866C201.92 528.818 202.082 528.764 202.226 528.704V529.928C202.058 530 201.854 530.054 201.614 530.09C201.386 530.138 201.158 530.162 200.93 530.162ZM212.15 530.162C211.346 530.162 210.644 529.976 210.044 529.604C209.444 529.22 208.976 528.68 208.64 527.984C208.316 527.288 208.154 526.454 208.154 525.482C208.154 524.498 208.316 523.658 208.64 522.962C208.976 522.266 209.444 521.732 210.044 521.36C210.644 520.988 211.346 520.802 212.15 520.802C212.966 520.802 213.668 521.012 214.256 521.432C214.856 521.84 215.252 522.398 215.444 523.106H215.228L215.426 520.964H216.83C216.794 521.312 216.758 521.666 216.722 522.026C216.698 522.374 216.686 522.716 216.686 523.052V530H215.228V527.876H215.426C215.234 528.584 214.838 529.142 214.238 529.55C213.638 529.958 212.942 530.162 212.15 530.162ZM212.438 528.974C213.302 528.974 213.986 528.68 214.49 528.092C214.994 527.492 215.246 526.622 215.246 525.482C215.246 524.33 214.994 523.46 214.49 522.872C213.986 522.272 213.302 521.972 212.438 521.972C211.586 521.972 210.902 522.272 210.386 522.872C209.882 523.46 209.63 524.33 209.63 525.482C209.63 526.622 209.882 527.492 210.386 528.092C210.902 528.68 211.586 528.974 212.438 528.974ZM224.198 530V523.052C224.198 522.716 224.18 522.374 224.144 522.026C224.12 521.666 224.09 521.312 224.054 520.964H225.458L225.638 522.944H225.422C225.686 522.248 226.106 521.72 226.682 521.36C227.27 520.988 227.948 520.802 228.716 520.802C229.784 520.802 230.588 521.09 231.128 521.666C231.68 522.23 231.956 523.124 231.956 524.348V530H230.498V524.438C230.498 523.586 230.324 522.968 229.976 522.584C229.64 522.188 229.112 521.99 228.392 521.99C227.552 521.99 226.886 522.248 226.394 522.764C225.902 523.28 225.656 523.97 225.656 524.834V530H224.198ZM238.759 530.162C237.343 530.162 236.227 529.754 235.411 528.938C234.595 528.11 234.187 526.964 234.187 525.5C234.187 524.552 234.367 523.73 234.727 523.034C235.087 522.326 235.591 521.78 236.239 521.396C236.887 521 237.631 520.802 238.471 520.802C239.299 520.802 239.995 520.976 240.559 521.324C241.123 521.672 241.555 522.17 241.855 522.818C242.155 523.454 242.305 524.21 242.305 525.086V525.626H235.303V524.708H241.351L241.045 524.942C241.045 523.982 240.829 523.232 240.397 522.692C239.965 522.152 239.323 521.882 238.471 521.882C237.571 521.882 236.869 522.2 236.365 522.836C235.861 523.46 235.609 524.306 235.609 525.374V525.536C235.609 526.664 235.885 527.522 236.437 528.11C237.001 528.686 237.787 528.974 238.795 528.974C239.335 528.974 239.839 528.896 240.307 528.74C240.787 528.572 241.243 528.302 241.675 527.93L242.179 528.956C241.783 529.34 241.279 529.64 240.667 529.856C240.067 530.06 239.431 530.162 238.759 530.162ZM246.843 530L243.495 520.964H245.043L247.833 528.92H247.365L250.245 520.964H251.505L254.331 528.92H253.881L256.689 520.964H258.165L254.799 530H253.395L250.479 521.918H251.199L248.265 530H246.843ZM267.973 530.162C267.085 530.162 266.407 529.91 265.939 529.406C265.471 528.89 265.237 528.116 265.237 527.084V522.098H263.473V520.964H265.237V518.498L266.695 518.084V520.964H269.287V522.098H266.695V526.922C266.695 527.642 266.815 528.158 267.055 528.47C267.307 528.77 267.679 528.92 268.171 528.92C268.399 528.92 268.603 528.902 268.783 528.866C268.963 528.818 269.125 528.764 269.269 528.704V529.928C269.101 530 268.897 530.054 268.657 530.09C268.429 530.138 268.201 530.162 267.973 530.162ZM274.988 530.162C273.572 530.162 272.456 529.754 271.64 528.938C270.824 528.11 270.416 526.964 270.416 525.5C270.416 524.552 270.596 523.73 270.956 523.034C271.316 522.326 271.82 521.78 272.468 521.396C273.116 521 273.86 520.802 274.7 520.802C275.528 520.802 276.224 520.976 276.788 521.324C277.352 521.672 277.784 522.17 278.084 522.818C278.384 523.454 278.534 524.21 278.534 525.086V525.626H271.532V524.708H277.58L277.274 524.942C277.274 523.982 277.058 523.232 276.626 522.692C276.194 522.152 275.552 521.882 274.7 521.882C273.8 521.882 273.098 522.2 272.594 522.836C272.09 523.46 271.838 524.306 271.838 525.374V525.536C271.838 526.664 272.114 527.522 272.666 528.11C273.23 528.686 274.016 528.974 275.024 528.974C275.564 528.974 276.068 528.896 276.536 528.74C277.016 528.572 277.472 528.302 277.904 527.93L278.408 528.956C278.012 529.34 277.508 529.64 276.896 529.856C276.296 530.06 275.66 530.162 274.988 530.162ZM283.771 530.162C283.051 530.162 282.379 530.066 281.755 529.874C281.131 529.67 280.615 529.388 280.207 529.028L280.711 528.002C281.155 528.35 281.635 528.608 282.151 528.776C282.679 528.944 283.225 529.028 283.789 529.028C284.509 529.028 285.049 528.902 285.409 528.65C285.781 528.386 285.967 528.026 285.967 527.57C285.967 527.222 285.847 526.946 285.607 526.742C285.379 526.526 285.001 526.358 284.473 526.238L282.799 525.896C282.031 525.728 281.455 525.446 281.071 525.05C280.687 524.642 280.495 524.126 280.495 523.502C280.495 522.974 280.633 522.512 280.909 522.116C281.185 521.708 281.587 521.39 282.115 521.162C282.643 520.922 283.261 520.802 283.969 520.802C284.629 520.802 285.235 520.904 285.787 521.108C286.351 521.3 286.819 521.582 287.191 521.954L286.669 522.962C286.309 522.614 285.895 522.356 285.427 522.188C284.971 522.008 284.497 521.918 284.005 521.918C283.297 521.918 282.763 522.062 282.403 522.35C282.055 522.626 281.881 522.992 281.881 523.448C281.881 523.796 281.989 524.084 282.205 524.312C282.433 524.528 282.781 524.69 283.249 524.798L284.923 525.14C285.739 525.32 286.345 525.602 286.741 525.986C287.149 526.358 287.353 526.862 287.353 527.498C287.353 528.038 287.203 528.512 286.903 528.92C286.603 529.316 286.183 529.622 285.643 529.838C285.115 530.054 284.491 530.162 283.771 530.162ZM292.811 530.162C291.923 530.162 291.245 529.91 290.777 529.406C290.309 528.89 290.075 528.116 290.075 527.084V522.098H288.311V520.964H290.075V518.498L291.533 518.084V520.964H294.125V522.098H291.533V526.922C291.533 527.642 291.653 528.158 291.893 528.47C292.145 528.77 292.517 528.92 293.009 528.92C293.237 528.92 293.441 528.902 293.621 528.866C293.801 528.818 293.963 528.764 294.107 528.704V529.928C293.939 530 293.735 530.054 293.495 530.09C293.267 530.138 293.039 530.162 292.811 530.162ZM295.858 530V528.164H297.694V530H295.858Z" fill="white"/>
<path d="M240.466 271.591C240.466 291.469 213.618 320.438 180.5 320.438C147.382 320.438 120.534 291.469 120.534 271.591C120.534 251.712 147.382 277.161 180.5 277.161C213.618 277.161 240.466 251.712 240.466 271.591Z" fill="#272D69"/>
<path d="M303 165.907C303 157.806 288.002 146 269.5 146C250.998 146 236 157.806 236 165.907C236 174.008 250.998 163.637 269.5 163.637C288.002 163.637 303 174.008 303 165.907Z" fill="#272D69"/>
<path d="M125 165.907C125 157.806 110.002 146 91.5 146C72.9985 146 58 157.806 58 165.907C58 174.008 72.9985 163.637 91.5 163.637C110.002 163.637 125 174.008 125 165.907Z" fill="#272D69"/>
<path fill-rule="evenodd" clip-rule="evenodd" d="M246 213C246 199.745 256.745 189 270 189C283.255 189 294 199.745 294 213C294 226.255 283.255 237 270 237C256.745 237 246 226.255 246 213ZM285 203C285 205.761 282.761 208 280 208C277.239 208 275 205.761 275 203C275 200.239 277.239 198 280 198C282.761 198 285 200.239 285 203ZM270.5 203C271.881 203 273 201.881 273 200.5C273 199.119 271.881 198 270.5 198C269.119 198 268 199.119 268 200.5C268 201.881 269.119 203 270.5 203Z" fill="#272D69"/>
<path fill-rule="evenodd" clip-rule="evenodd" d="M68 213C68 199.745 78.7452 189 92 189C105.255 189 116 199.745 116 213C116 226.255 105.255 237 92 237C78.7452 237 68 226.255 68 213ZM107 203C107 205.761 104.761 208 102 208C99.2386 208 97 205.761 97 203C97 200.239 99.2386 198 102 198C104.761 198 107 200.239 107 203ZM92.5 203C93.8807 203 95 201.881 95 200.5C95 199.119 93.8807 198 92.5 198C91.1193 198 90 199.119 90 200.5C90 201.881 91.1193 203 92.5 203Z" fill="#272D69"/>
<rect x="30" y="644" width="232" height="52" rx="26" fill="#272D69"/>
<path d="M93.404 676V666.416H89.676V664.72H99.196V666.416H95.468V676H93.404ZM103.532 676.16C102.7 676.16 101.98 675.989 101.372 675.648C100.764 675.307 100.29 674.821 99.9483 674.192C99.6176 673.563 99.4523 672.816 99.4523 671.952C99.4523 671.088 99.6176 670.347 99.9483 669.728C100.29 669.099 100.764 668.613 101.372 668.272C101.98 667.931 102.7 667.76 103.532 667.76C104.364 667.76 105.084 667.931 105.692 668.272C106.311 668.613 106.786 669.099 107.116 669.728C107.458 670.347 107.628 671.088 107.628 671.952C107.628 672.816 107.458 673.563 107.116 674.192C106.786 674.821 106.311 675.307 105.692 675.648C105.084 675.989 104.364 676.16 103.532 676.16ZM103.532 674.624C104.162 674.624 104.663 674.405 105.036 673.968C105.41 673.52 105.596 672.848 105.596 671.952C105.596 671.056 105.41 670.389 105.036 669.952C104.663 669.515 104.162 669.296 103.532 669.296C102.903 669.296 102.402 669.515 102.028 669.952C101.655 670.389 101.468 671.056 101.468 671.952C101.468 672.848 101.655 673.52 102.028 673.968C102.402 674.405 102.903 674.624 103.532 674.624ZM115.184 676V664.72H117.248V669.424H123.024V664.72H125.088V676H123.024V671.136H117.248V676H115.184ZM131.702 676.16C130.87 676.16 130.15 675.989 129.542 675.648C128.934 675.307 128.46 674.821 128.118 674.192C127.788 673.563 127.622 672.816 127.622 671.952C127.622 671.088 127.788 670.347 128.118 669.728C128.46 669.099 128.934 668.613 129.542 668.272C130.15 667.931 130.87 667.76 131.702 667.76C132.534 667.76 133.254 667.931 133.862 668.272C134.481 668.613 134.956 669.099 135.286 669.728C135.628 670.347 135.798 671.088 135.798 671.952C135.798 672.816 135.628 673.563 135.286 674.192C134.956 674.821 134.481 675.307 133.862 675.648C133.254 675.989 132.534 676.16 131.702 676.16ZM131.702 674.624C132.332 674.624 132.833 674.405 133.206 673.968C133.58 673.52 133.766 672.848 133.766 671.952C133.766 671.056 133.58 670.389 133.206 669.952C132.833 669.515 132.332 669.296 131.702 669.296C131.073 669.296 130.572 669.515 130.198 669.952C129.825 670.389 129.638 671.056 129.638 671.952C129.638 672.848 129.825 673.52 130.198 673.968C130.572 674.405 131.073 674.624 131.702 674.624ZM138.163 676V669.936C138.163 669.605 138.152 669.269 138.131 668.928C138.11 668.587 138.078 668.251 138.035 667.92H139.971L140.131 669.52H139.939C140.163 668.965 140.504 668.533 140.963 668.224C141.432 667.915 141.987 667.76 142.627 667.76C143.267 667.76 143.795 667.915 144.211 668.224C144.638 668.523 144.936 668.992 145.107 669.632H144.851C145.075 669.056 145.443 668.603 145.955 668.272C146.467 667.931 147.054 667.76 147.715 667.76C148.622 667.76 149.299 668.027 149.747 668.56C150.195 669.093 150.419 669.925 150.419 671.056V676H148.419V671.136C148.419 670.496 148.312 670.037 148.099 669.76C147.886 669.472 147.544 669.328 147.075 669.328C146.52 669.328 146.083 669.525 145.763 669.92C145.443 670.304 145.283 670.827 145.283 671.488V676H143.283V671.136C143.283 670.496 143.176 670.037 142.963 669.76C142.75 669.472 142.408 669.328 141.939 669.328C141.384 669.328 140.947 669.525 140.627 669.92C140.318 670.304 140.163 670.827 140.163 671.488V676H138.163ZM157.098 676.16C155.743 676.16 154.682 675.787 153.914 675.04C153.146 674.293 152.762 673.269 152.762 671.968C152.762 671.125 152.927 670.389 153.258 669.76C153.588 669.131 154.047 668.64 154.634 668.288C155.231 667.936 155.924 667.76 156.714 667.76C157.492 667.76 158.143 667.925 158.666 668.256C159.188 668.587 159.583 669.051 159.85 669.648C160.127 670.245 160.266 670.944 160.266 671.744V672.272H154.378V671.216H158.842L158.57 671.44C158.57 670.693 158.41 670.123 158.09 669.728C157.78 669.333 157.327 669.136 156.73 669.136C156.068 669.136 155.556 669.371 155.194 669.84C154.842 670.309 154.666 670.965 154.666 671.808V672.016C154.666 672.891 154.879 673.547 155.306 673.984C155.743 674.411 156.356 674.624 157.146 674.624C157.604 674.624 158.031 674.565 158.426 674.448C158.831 674.32 159.215 674.117 159.578 673.84L160.17 675.184C159.786 675.493 159.327 675.733 158.794 675.904C158.26 676.075 157.695 676.16 157.098 676.16ZM162.599 679.456V669.936C162.599 669.605 162.589 669.269 162.567 668.928C162.546 668.587 162.514 668.251 162.471 667.92H164.407L164.583 669.616H164.407C164.567 669.051 164.903 668.603 165.415 668.272C165.938 667.931 166.541 667.76 167.223 667.76C167.938 667.76 168.562 667.931 169.095 668.272C169.629 668.603 170.045 669.083 170.343 669.712C170.642 670.331 170.791 671.077 170.791 671.952C170.791 672.827 170.642 673.579 170.343 674.208C170.045 674.837 169.629 675.323 169.095 675.664C168.562 675.995 167.938 676.16 167.223 676.16C166.551 676.16 165.959 675.995 165.447 675.664C164.935 675.333 164.594 674.891 164.423 674.336H164.599V679.456H162.599ZM166.663 674.624C167.303 674.624 167.815 674.405 168.199 673.968C168.583 673.52 168.775 672.848 168.775 671.952C168.775 671.056 168.583 670.389 168.199 669.952C167.815 669.515 167.303 669.296 166.663 669.296C166.034 669.296 165.527 669.515 165.143 669.952C164.759 670.389 164.567 671.056 164.567 671.952C164.567 672.848 164.759 673.52 165.143 673.968C165.527 674.405 166.034 674.624 166.663 674.624ZM176.281 676.16C175.577 676.16 174.958 675.995 174.425 675.664C173.892 675.323 173.476 674.837 173.177 674.208C172.878 673.579 172.729 672.827 172.729 671.952C172.729 671.077 172.878 670.331 173.177 669.712C173.476 669.083 173.892 668.603 174.425 668.272C174.958 667.931 175.577 667.76 176.281 667.76C176.964 667.76 177.561 667.931 178.073 668.272C178.596 668.603 178.942 669.051 179.113 669.616H178.937L179.113 667.92H181.033C181.001 668.251 180.969 668.587 180.937 668.928C180.916 669.269 180.905 669.605 180.905 669.936V676H178.921L178.905 674.336H179.097C178.926 674.891 178.58 675.333 178.057 675.664C177.534 675.995 176.942 676.16 176.281 676.16ZM176.841 674.624C177.47 674.624 177.977 674.405 178.361 673.968C178.745 673.52 178.937 672.848 178.937 671.952C178.937 671.056 178.745 670.389 178.361 669.952C177.977 669.515 177.47 669.296 176.841 669.296C176.212 669.296 175.705 669.515 175.321 669.952C174.937 670.389 174.745 671.056 174.745 671.952C174.745 672.848 174.932 673.52 175.305 673.968C175.689 674.405 176.201 674.624 176.841 674.624ZM187.467 679.584C186.72 679.584 186.043 679.504 185.435 679.344C184.838 679.184 184.304 678.939 183.835 678.608L184.267 677.168C184.576 677.371 184.896 677.536 185.227 677.664C185.558 677.792 185.899 677.888 186.251 677.952C186.603 678.016 186.96 678.048 187.323 678.048C188.07 678.048 188.624 677.861 188.987 677.488C189.36 677.125 189.547 676.603 189.547 675.92V673.984H189.707C189.536 674.539 189.19 674.981 188.667 675.312C188.155 675.643 187.563 675.808 186.891 675.808C186.166 675.808 185.531 675.648 184.987 675.328C184.454 674.997 184.038 674.528 183.739 673.92C183.44 673.312 183.291 672.597 183.291 671.776C183.291 670.955 183.44 670.245 183.739 669.648C184.038 669.04 184.454 668.576 184.987 668.256C185.531 667.925 186.166 667.76 186.891 667.76C187.574 667.76 188.166 667.925 188.667 668.256C189.179 668.576 189.52 669.013 189.691 669.568L189.547 669.472L189.707 667.92H191.643C191.6 668.251 191.568 668.587 191.547 668.928C191.526 669.269 191.515 669.605 191.515 669.936V675.68C191.515 676.949 191.168 677.915 190.475 678.576C189.792 679.248 188.79 679.584 187.467 679.584ZM187.435 674.272C188.075 674.272 188.582 674.059 188.955 673.632C189.339 673.195 189.531 672.576 189.531 671.776C189.531 670.976 189.339 670.363 188.955 669.936C188.582 669.509 188.075 669.296 187.435 669.296C186.784 669.296 186.267 669.509 185.883 669.936C185.499 670.363 185.307 670.976 185.307 671.776C185.307 672.576 185.499 673.195 185.883 673.632C186.267 674.059 186.784 674.272 187.435 674.272ZM198.22 676.16C196.865 676.16 195.804 675.787 195.036 675.04C194.268 674.293 193.884 673.269 193.884 671.968C193.884 671.125 194.049 670.389 194.38 669.76C194.711 669.131 195.169 668.64 195.756 668.288C196.353 667.936 197.047 667.76 197.836 667.76C198.615 667.76 199.265 667.925 199.788 668.256C200.311 668.587 200.705 669.051 200.972 669.648C201.249 670.245 201.388 670.944 201.388 671.744V672.272H195.5V671.216H199.964L199.692 671.44C199.692 670.693 199.532 670.123 199.212 669.728C198.903 669.333 198.449 669.136 197.852 669.136C197.191 669.136 196.679 669.371 196.316 669.84C195.964 670.309 195.788 670.965 195.788 671.808V672.016C195.788 672.891 196.001 673.547 196.428 673.984C196.865 674.411 197.479 674.624 198.268 674.624C198.727 674.624 199.153 674.565 199.548 674.448C199.953 674.32 200.337 674.117 200.7 673.84L201.292 675.184C200.908 675.493 200.449 675.733 199.916 675.904C199.383 676.075 198.817 676.16 198.22 676.16Z" fill="white"/>
<g filter="url(#filter0_d_1_1915)">
<circle cx="304" cy="670" r="26" fill="#009999"/>
</g>
<path d="M292.462 670C292.462 667.089 293.52 664.277 295.439 662.088C297.359 659.899 300.009 658.483 302.895 658.103C305.782 657.723 308.708 658.405 311.128 660.022C313.549 661.64 315.299 664.082 316.053 666.894C316.806 669.706 316.512 672.696 315.224 675.308C313.936 677.919 311.743 679.973 309.054 681.087C306.364 682.201 303.361 682.299 300.604 681.363C298.228 680.557 296.174 679.029 294.72 677.008C294.333 676.47 294.535 675.731 295.108 675.4C295.682 675.069 296.411 675.271 296.811 675.799C297.964 677.32 299.551 678.471 301.376 679.091C303.581 679.839 305.984 679.761 308.135 678.869C310.287 677.978 312.041 676.335 313.072 674.246C314.102 672.157 314.337 669.765 313.734 667.515C313.132 665.266 311.732 663.312 309.795 662.018C307.859 660.724 305.518 660.178 303.209 660.482C300.899 660.786 298.78 661.919 297.244 663.67C295.708 665.421 294.862 667.671 294.862 670L297.385 670L293.662 674.308L290 670L292.462 670Z" fill="white"/>
<path d="M303.5 664V670.3L308 674.5" stroke="white" stroke-width="2.03025" stroke-linecap="round"/>
</g>
<defs>
<filter id="filter0_d_1_1915" x="276" y="642" width="58" height="58" filterUnits="userSpaceOnUse" color-interpolation-filters="sRGB">
<feFlood flood-opacity="0" result="BackgroundImageFix"/>
<feColorMatrix in="SourceAlpha" type="matrix" values="0 0 0 0 0 0 0 0 0 0 0 0 0 0 0 0 0 0 127 0" result="hardAlpha"/>
<feMorphology radius="1" operator="erode" in="SourceAlpha" result="effect1_dropShadow_1_1915"/>
<feOffset dx="1" dy="1"/>
<feGaussianBlur stdDeviation="2"/>
<feColorMatrix type="matrix" values="0 0 0 0 0.172549 0 0 0 0 0.188235 0 0 0 0 0.196078 0 0 0 0.2 0"/>
<feBlend mode="normal" in2="BackgroundImageFix" result="effect1_dropShadow_1_1915"/>
<feBlend mode="normal" in="SourceGraphic" in2="effect1_dropShadow_1_1915" result="shape"/>
</filter>
<clipPath id="clip0_1_1915">
<rect width="360" height="780" rx="30" fill="white"/>
</clipPath>
</defs>
</svg>
