<svg width="360" height="780" viewBox="0 0 360 780" fill="none" xmlns="http://www.w3.org/2000/svg">
<g clip-path="url(#clip0_1_3386)">
<rect width="360" height="780" rx="18" fill="#F8F8F8"/>
<path d="M44.9649 498V482.49H48.3969V495.118H55.3929V498H44.9649ZM62.7728 498.242C60.8368 498.242 59.3262 497.721 58.2408 496.68C57.1555 495.639 56.6128 494.223 56.6128 492.434C56.6128 491.275 56.8402 490.263 57.2948 489.398C57.7642 488.533 58.4095 487.858 59.2308 487.374C60.0668 486.875 61.0422 486.626 62.1568 486.626C63.2568 486.626 64.1735 486.861 64.9068 487.33C65.6548 487.799 66.2122 488.459 66.5788 489.31C66.9602 490.146 67.1508 491.121 67.1508 492.236V493.006H59.3408V491.356H64.7308L64.3568 491.664C64.3568 490.74 64.1662 490.043 63.7848 489.574C63.4182 489.09 62.8828 488.848 62.1788 488.848C61.4015 488.848 60.8002 489.134 60.3748 489.706C59.9642 490.278 59.7588 491.099 59.7588 492.17V492.522C59.7588 493.607 60.0228 494.414 60.5508 494.942C61.0935 495.47 61.8708 495.734 62.8828 495.734C63.4842 495.734 64.0488 495.661 64.5768 495.514C65.1195 495.353 65.6328 495.103 66.1168 494.766L67.0408 496.966C66.4835 497.377 65.8382 497.692 65.1048 497.912C64.3862 498.132 63.6088 498.242 62.7728 498.242ZM74.4081 498.242C72.9561 498.242 71.8634 497.883 71.1301 497.164C70.3967 496.431 70.0301 495.338 70.0301 493.886V489.332H67.9181V486.846H70.0301V484.118L73.3521 483.304V486.846H76.2121V489.332H73.3521V493.71C73.3521 494.414 73.4987 494.898 73.7921 495.162C74.0854 495.426 74.4594 495.558 74.9141 495.558C75.1927 495.558 75.4201 495.543 75.5961 495.514C75.7867 495.47 75.9847 495.411 76.1901 495.338V497.912C75.9114 498.029 75.6181 498.11 75.3101 498.154C75.0021 498.213 74.7014 498.242 74.4081 498.242ZM79.3012 489.178L78.0032 488.144C78.5165 487.616 78.8759 487.125 79.0812 486.67C79.3012 486.215 79.4112 485.731 79.4112 485.218L80.1812 486.01H77.6952V482.49H81.2812V484.756C81.2812 485.592 81.1345 486.355 80.8412 487.044C80.5479 487.733 80.0345 488.445 79.3012 489.178ZM87.2085 498.242C86.2111 498.242 85.3018 498.132 84.4805 497.912C83.6591 497.692 82.9625 497.384 82.3905 496.988L83.2485 494.788C83.8205 495.14 84.4511 495.419 85.1405 495.624C85.8445 495.829 86.5411 495.932 87.2305 495.932C87.8758 495.932 88.3525 495.829 88.6605 495.624C88.9685 495.419 89.1225 495.14 89.1225 494.788C89.1225 494.495 89.0198 494.267 88.8145 494.106C88.6238 493.945 88.3231 493.827 87.9125 493.754L85.6465 493.336C84.6931 493.145 83.9671 492.793 83.4685 492.28C82.9698 491.767 82.7205 491.099 82.7205 490.278C82.7205 489.559 82.9111 488.929 83.2925 488.386C83.6885 487.829 84.2531 487.396 84.9865 487.088C85.7198 486.78 86.5778 486.626 87.5605 486.626C88.3965 486.626 89.1885 486.729 89.9365 486.934C90.6845 487.139 91.3225 487.455 91.8505 487.88L90.9485 490.014C90.4938 489.677 89.9658 489.405 89.3645 489.2C88.7778 488.995 88.2131 488.892 87.6705 488.892C86.9665 488.892 86.4605 489.009 86.1525 489.244C85.8445 489.464 85.6905 489.75 85.6905 490.102C85.6905 490.366 85.7785 490.586 85.9545 490.762C86.1451 490.938 86.4311 491.07 86.8125 491.158L89.1005 491.576C90.0831 491.752 90.8311 492.082 91.3445 492.566C91.8578 493.05 92.1145 493.717 92.1145 494.568C92.1145 495.345 91.9091 496.005 91.4985 496.548C91.0878 497.091 90.5085 497.509 89.7605 497.802C89.0271 498.095 88.1765 498.242 87.2085 498.242ZM104.503 498.242C103.506 498.242 102.597 498.132 101.775 497.912C100.954 497.692 100.257 497.384 99.6854 496.988L100.543 494.788C101.115 495.14 101.746 495.419 102.435 495.624C103.139 495.829 103.836 495.932 104.525 495.932C105.171 495.932 105.647 495.829 105.955 495.624C106.263 495.419 106.417 495.14 106.417 494.788C106.417 494.495 106.315 494.267 106.109 494.106C105.919 493.945 105.618 493.827 105.207 493.754L102.941 493.336C101.988 493.145 101.262 492.793 100.763 492.28C100.265 491.767 100.015 491.099 100.015 490.278C100.015 489.559 100.206 488.929 100.587 488.386C100.983 487.829 101.548 487.396 102.281 487.088C103.015 486.78 103.873 486.626 104.855 486.626C105.691 486.626 106.483 486.729 107.231 486.934C107.979 487.139 108.617 487.455 109.145 487.88L108.243 490.014C107.789 489.677 107.261 489.405 106.659 489.2C106.073 488.995 105.508 488.892 104.965 488.892C104.261 488.892 103.755 489.009 103.447 489.244C103.139 489.464 102.985 489.75 102.985 490.102C102.985 490.366 103.073 490.586 103.249 490.762C103.44 490.938 103.726 491.07 104.107 491.158L106.395 491.576C107.378 491.752 108.126 492.082 108.639 492.566C109.153 493.05 109.409 493.717 109.409 494.568C109.409 495.345 109.204 496.005 108.793 496.548C108.383 497.091 107.803 497.509 107.055 497.802C106.322 498.095 105.471 498.242 104.503 498.242ZM117.085 498.242C115.149 498.242 113.639 497.721 112.553 496.68C111.468 495.639 110.925 494.223 110.925 492.434C110.925 491.275 111.153 490.263 111.607 489.398C112.077 488.533 112.722 487.858 113.543 487.374C114.379 486.875 115.355 486.626 116.469 486.626C117.569 486.626 118.486 486.861 119.219 487.33C119.967 487.799 120.525 488.459 120.891 489.31C121.273 490.146 121.463 491.121 121.463 492.236V493.006H113.653V491.356H119.043L118.669 491.664C118.669 490.74 118.479 490.043 118.097 489.574C117.731 489.09 117.195 488.848 116.491 488.848C115.714 488.848 115.113 489.134 114.687 489.706C114.277 490.278 114.071 491.099 114.071 492.17V492.522C114.071 493.607 114.335 494.414 114.863 494.942C115.406 495.47 116.183 495.734 117.195 495.734C117.797 495.734 118.361 495.661 118.889 495.514C119.432 495.353 119.945 495.103 120.429 494.766L121.353 496.966C120.796 497.377 120.151 497.692 119.417 497.912C118.699 498.132 117.921 498.242 117.085 498.242ZM129.181 498.242C127.245 498.242 125.734 497.721 124.649 496.68C123.564 495.639 123.021 494.223 123.021 492.434C123.021 491.275 123.248 490.263 123.703 489.398C124.172 488.533 124.818 487.858 125.639 487.374C126.475 486.875 127.45 486.626 128.565 486.626C129.665 486.626 130.582 486.861 131.315 487.33C132.063 487.799 132.62 488.459 132.987 489.31C133.368 490.146 133.559 491.121 133.559 492.236V493.006H125.749V491.356H131.139L130.765 491.664C130.765 490.74 130.574 490.043 130.193 489.574C129.826 489.09 129.291 488.848 128.587 488.848C127.81 488.848 127.208 489.134 126.783 489.706C126.372 490.278 126.167 491.099 126.167 492.17V492.522C126.167 493.607 126.431 494.414 126.959 494.942C127.502 495.47 128.279 495.734 129.291 495.734C129.892 495.734 130.457 495.661 130.985 495.514C131.528 495.353 132.041 495.103 132.525 494.766L133.449 496.966C132.892 497.377 132.246 497.692 131.513 497.912C130.794 498.132 130.017 498.242 129.181 498.242ZM141.876 498V481.808H145.198V488.936H144.868C145.22 488.188 145.74 487.616 146.43 487.22C147.119 486.824 147.911 486.626 148.806 486.626C150.111 486.626 151.086 487.007 151.732 487.77C152.377 488.518 152.7 489.669 152.7 491.224V498H149.378V491.378C149.378 490.601 149.231 490.043 148.938 489.706C148.659 489.369 148.219 489.2 147.618 489.2C146.884 489.2 146.298 489.427 145.858 489.882C145.418 490.337 145.198 490.945 145.198 491.708V498H141.876ZM160.648 498.242C159.46 498.242 158.426 498.007 157.546 497.538C156.681 497.054 156.006 496.379 155.522 495.514C155.053 494.649 154.818 493.615 154.818 492.412C154.818 491.224 155.053 490.197 155.522 489.332C156.006 488.467 156.681 487.799 157.546 487.33C158.426 486.861 159.46 486.626 160.648 486.626C161.836 486.626 162.87 486.861 163.75 487.33C164.63 487.799 165.305 488.467 165.774 489.332C166.258 490.197 166.5 491.224 166.5 492.412C166.5 493.615 166.258 494.649 165.774 495.514C165.305 496.379 164.63 497.054 163.75 497.538C162.87 498.007 161.836 498.242 160.648 498.242ZM160.648 495.734C161.411 495.734 162.012 495.463 162.452 494.92C162.907 494.377 163.134 493.541 163.134 492.412C163.134 491.283 162.907 490.454 162.452 489.926C162.012 489.398 161.411 489.134 160.648 489.134C159.885 489.134 159.277 489.398 158.822 489.926C158.382 490.454 158.162 491.283 158.162 492.412C158.162 493.541 158.382 494.377 158.822 494.92C159.277 495.463 159.885 495.734 160.648 495.734ZM171.533 498L167.045 486.846H170.455L173.403 494.876H172.831L175.801 486.846H178.001L180.949 494.876H180.487L183.391 486.846H186.603L182.137 498H179.277L176.109 489.772H177.451L174.393 498H171.533ZM199.404 498.242C197.952 498.242 196.86 497.883 196.126 497.164C195.393 496.431 195.026 495.338 195.026 493.886V489.332H192.914V486.846H195.026V484.118L198.348 483.304V486.846H201.208V489.332H198.348V493.71C198.348 494.414 198.495 494.898 198.788 495.162C199.082 495.426 199.456 495.558 199.91 495.558C200.189 495.558 200.416 495.543 200.592 495.514C200.783 495.47 200.981 495.411 201.186 495.338V497.912C200.908 498.029 200.614 498.11 200.306 498.154C199.998 498.213 199.698 498.242 199.404 498.242ZM207.247 498.242C206.279 498.242 205.428 498.007 204.695 497.538C203.961 497.069 203.389 496.401 202.979 495.536C202.568 494.671 202.363 493.629 202.363 492.412C202.363 491.209 202.568 490.175 202.979 489.31C203.389 488.445 203.961 487.785 204.695 487.33C205.428 486.861 206.279 486.626 207.247 486.626C208.141 486.626 208.941 486.846 209.645 487.286C210.363 487.711 210.833 488.291 211.053 489.024H210.811L211.075 486.846H214.265C214.221 487.33 214.177 487.821 214.133 488.32C214.103 488.804 214.089 489.281 214.089 489.75V498H210.789L210.767 495.91H211.031C210.796 496.614 210.327 497.179 209.623 497.604C208.919 498.029 208.127 498.242 207.247 498.242ZM208.259 495.734C209.021 495.734 209.637 495.463 210.107 494.92C210.576 494.377 210.811 493.541 210.811 492.412C210.811 491.283 210.576 490.454 210.107 489.926C209.637 489.398 209.021 489.134 208.259 489.134C207.496 489.134 206.88 489.398 206.411 489.926C205.941 490.454 205.707 491.283 205.707 492.412C205.707 493.541 205.934 494.377 206.389 494.92C206.858 495.463 207.481 495.734 208.259 495.734ZM220.927 498.242C219.93 498.242 219.021 498.132 218.199 497.912C217.378 497.692 216.681 497.384 216.109 496.988L216.967 494.788C217.539 495.14 218.17 495.419 218.859 495.624C219.563 495.829 220.26 495.932 220.949 495.932C221.595 495.932 222.071 495.829 222.379 495.624C222.687 495.419 222.841 495.14 222.841 494.788C222.841 494.495 222.739 494.267 222.533 494.106C222.343 493.945 222.042 493.827 221.631 493.754L219.365 493.336C218.412 493.145 217.686 492.793 217.187 492.28C216.689 491.767 216.439 491.099 216.439 490.278C216.439 489.559 216.63 488.929 217.011 488.386C217.407 487.829 217.972 487.396 218.705 487.088C219.439 486.78 220.297 486.626 221.279 486.626C222.115 486.626 222.907 486.729 223.655 486.934C224.403 487.139 225.041 487.455 225.569 487.88L224.667 490.014C224.213 489.677 223.685 489.405 223.083 489.2C222.497 488.995 221.932 488.892 221.389 488.892C220.685 488.892 220.179 489.009 219.871 489.244C219.563 489.464 219.409 489.75 219.409 490.102C219.409 490.366 219.497 490.586 219.673 490.762C219.864 490.938 220.15 491.07 220.531 491.158L222.819 491.576C223.802 491.752 224.55 492.082 225.063 492.566C225.577 493.05 225.833 493.717 225.833 494.568C225.833 495.345 225.628 496.005 225.217 496.548C224.807 497.091 224.227 497.509 223.479 497.802C222.746 498.095 221.895 498.242 220.927 498.242ZM227.899 498V481.808H231.221V491.488H231.265L235.401 486.846H239.361L234.015 492.786V491.576L239.647 498H235.577L231.265 493.16H231.221V498H227.899ZM244.496 498.242C243.498 498.242 242.589 498.132 241.768 497.912C240.946 497.692 240.25 497.384 239.678 496.988L240.536 494.788C241.108 495.14 241.738 495.419 242.428 495.624C243.132 495.829 243.828 495.932 244.518 495.932C245.163 495.932 245.64 495.829 245.948 495.624C246.256 495.419 246.41 495.14 246.41 494.788C246.41 494.495 246.307 494.267 246.102 494.106C245.911 493.945 245.61 493.827 245.2 493.754L242.934 493.336C241.98 493.145 241.254 492.793 240.756 492.28C240.257 491.767 240.008 491.099 240.008 490.278C240.008 489.559 240.198 488.929 240.58 488.386C240.976 487.829 241.54 487.396 242.274 487.088C243.007 486.78 243.865 486.626 244.848 486.626C245.684 486.626 246.476 486.729 247.224 486.934C247.972 487.139 248.61 487.455 249.138 487.88L248.236 490.014C247.781 489.677 247.253 489.405 246.652 489.2C246.065 488.995 245.5 488.892 244.958 488.892C244.254 488.892 243.748 489.009 243.44 489.244C243.132 489.464 242.978 489.75 242.978 490.102C242.978 490.366 243.066 490.586 243.242 490.762C243.432 490.938 243.718 491.07 244.1 491.158L246.388 491.576C247.37 491.752 248.118 492.082 248.632 492.566C249.145 493.05 249.402 493.717 249.402 494.568C249.402 495.345 249.196 496.005 248.786 496.548C248.375 497.091 247.796 497.509 247.048 497.802C246.314 498.095 245.464 498.242 244.496 498.242ZM260.823 498L256.335 486.846H259.745L262.693 494.876H262.12L265.091 486.846H267.291L270.239 494.876H269.777L272.681 486.846H275.893L271.427 498H268.567L265.399 489.772H266.741L263.683 498H260.823ZM282.292 498.242C281.104 498.242 280.07 498.007 279.19 497.538C278.325 497.054 277.65 496.379 277.166 495.514C276.697 494.649 276.462 493.615 276.462 492.412C276.462 491.224 276.697 490.197 277.166 489.332C277.65 488.467 278.325 487.799 279.19 487.33C280.07 486.861 281.104 486.626 282.292 486.626C283.48 486.626 284.514 486.861 285.394 487.33C286.274 487.799 286.949 488.467 287.418 489.332C287.902 490.197 288.144 491.224 288.144 492.412C288.144 493.615 287.902 494.649 287.418 495.514C286.949 496.379 286.274 497.054 285.394 497.538C284.514 498.007 283.48 498.242 282.292 498.242ZM282.292 495.734C283.055 495.734 283.656 495.463 284.096 494.92C284.551 494.377 284.778 493.541 284.778 492.412C284.778 491.283 284.551 490.454 284.096 489.926C283.656 489.398 283.055 489.134 282.292 489.134C281.53 489.134 280.921 489.398 280.466 489.926C280.026 490.454 279.806 491.283 279.806 492.412C279.806 493.541 280.026 494.377 280.466 494.92C280.921 495.463 281.53 495.734 282.292 495.734ZM290.268 498V489.794C290.268 489.31 290.253 488.819 290.224 488.32C290.209 487.821 290.172 487.33 290.114 486.846H293.304L293.678 490.102H293.172C293.318 489.31 293.553 488.657 293.876 488.144C294.213 487.631 294.624 487.249 295.108 487C295.606 486.751 296.171 486.626 296.802 486.626C297.08 486.626 297.3 486.641 297.462 486.67C297.623 486.685 297.784 486.721 297.946 486.78L297.924 489.706C297.616 489.574 297.352 489.493 297.132 489.464C296.926 489.42 296.662 489.398 296.34 489.398C295.724 489.398 295.21 489.515 294.8 489.75C294.404 489.985 294.103 490.329 293.898 490.784C293.707 491.239 293.612 491.789 293.612 492.434V498H290.268ZM299.335 498V481.808H302.657V491.488H302.701L306.837 486.846H310.797L305.451 492.786V491.576L311.083 498H307.013L302.701 493.16H302.657V498H299.335ZM311.982 498V494.48H315.546V498H311.982ZM51.7217 526V510.49H58.9597C60.705 510.49 62.025 510.915 62.9197 511.766C63.829 512.602 64.2837 513.753 64.2837 515.22C64.2837 516.672 63.829 517.831 62.9197 518.696C62.025 519.547 60.705 519.972 58.9597 519.972H55.1537V526H51.7217ZM55.1537 517.31H58.5197C59.341 517.31 59.9497 517.127 60.3457 516.76C60.7564 516.393 60.9617 515.88 60.9617 515.22C60.9617 514.56 60.7564 514.054 60.3457 513.702C59.9497 513.335 59.341 513.152 58.5197 513.152H55.1537V517.31ZM66.3474 526V509.808H69.6694V526H66.3474ZM77.9945 526.242C76.0585 526.242 74.5478 525.721 73.4625 524.68C72.3772 523.639 71.8345 522.223 71.8345 520.434C71.8345 519.275 72.0618 518.263 72.5165 517.398C72.9858 516.533 73.6312 515.858 74.4525 515.374C75.2885 514.875 76.2638 514.626 77.3785 514.626C78.4785 514.626 79.3952 514.861 80.1285 515.33C80.8765 515.799 81.4338 516.459 81.8005 517.31C82.1818 518.146 82.3725 519.121 82.3725 520.236V521.006H74.5625V519.356H79.9525L79.5785 519.664C79.5785 518.74 79.3878 518.043 79.0065 517.574C78.6398 517.09 78.1045 516.848 77.4005 516.848C76.6232 516.848 76.0218 517.134 75.5965 517.706C75.1858 518.278 74.9805 519.099 74.9805 520.17V520.522C74.9805 521.607 75.2445 522.414 75.7725 522.942C76.3152 523.47 77.0925 523.734 78.1045 523.734C78.7058 523.734 79.2705 523.661 79.7985 523.514C80.3412 523.353 80.8545 523.103 81.3385 522.766L82.2625 524.966C81.7052 525.377 81.0598 525.692 80.3265 525.912C79.6078 526.132 78.8305 526.242 77.9945 526.242ZM88.8142 526.242C87.8462 526.242 86.9955 526.007 86.2622 525.538C85.5289 525.069 84.9569 524.401 84.5462 523.536C84.1355 522.671 83.9302 521.629 83.9302 520.412C83.9302 519.209 84.1355 518.175 84.5462 517.31C84.9569 516.445 85.5289 515.785 86.2622 515.33C86.9955 514.861 87.8462 514.626 88.8142 514.626C89.7089 514.626 90.5082 514.846 91.2122 515.286C91.9309 515.711 92.4002 516.291 92.6202 517.024H92.3782L92.6422 514.846H95.8322C95.7882 515.33 95.7442 515.821 95.7002 516.32C95.6709 516.804 95.6562 517.281 95.6562 517.75V526H92.3562L92.3342 523.91H92.5982C92.3635 524.614 91.8942 525.179 91.1902 525.604C90.4862 526.029 89.6942 526.242 88.8142 526.242ZM89.8262 523.734C90.5889 523.734 91.2049 523.463 91.6742 522.92C92.1435 522.377 92.3782 521.541 92.3782 520.412C92.3782 519.283 92.1435 518.454 91.6742 517.926C91.2049 517.398 90.5889 517.134 89.8262 517.134C89.0635 517.134 88.4475 517.398 87.9782 517.926C87.5089 518.454 87.2742 519.283 87.2742 520.412C87.2742 521.541 87.5015 522.377 87.9562 522.92C88.4255 523.463 89.0489 523.734 89.8262 523.734ZM102.495 526.242C101.497 526.242 100.588 526.132 99.7666 525.912C98.9453 525.692 98.2486 525.384 97.6766 524.988L98.5346 522.788C99.1066 523.14 99.7373 523.419 100.427 523.624C101.131 523.829 101.827 523.932 102.517 523.932C103.162 523.932 103.639 523.829 103.947 523.624C104.255 523.419 104.409 523.14 104.409 522.788C104.409 522.495 104.306 522.267 104.101 522.106C103.91 521.945 103.609 521.827 103.199 521.754L100.933 521.336C99.9793 521.145 99.2533 520.793 98.7546 520.28C98.2559 519.767 98.0066 519.099 98.0066 518.278C98.0066 517.559 98.1973 516.929 98.5786 516.386C98.9746 515.829 99.5393 515.396 100.273 515.088C101.006 514.78 101.864 514.626 102.847 514.626C103.683 514.626 104.475 514.729 105.223 514.934C105.971 515.139 106.609 515.455 107.137 515.88L106.235 518.014C105.78 517.677 105.252 517.405 104.651 517.2C104.064 516.995 103.499 516.892 102.957 516.892C102.253 516.892 101.747 517.009 101.439 517.244C101.131 517.464 100.977 517.75 100.977 518.102C100.977 518.366 101.065 518.586 101.241 518.762C101.431 518.938 101.717 519.07 102.099 519.158L104.387 519.576C105.369 519.752 106.117 520.082 106.631 520.566C107.144 521.05 107.401 521.717 107.401 522.568C107.401 523.345 107.195 524.005 106.785 524.548C106.374 525.091 105.795 525.509 105.047 525.802C104.313 526.095 103.463 526.242 102.495 526.242ZM115.077 526.242C113.141 526.242 111.63 525.721 110.545 524.68C109.459 523.639 108.917 522.223 108.917 520.434C108.917 519.275 109.144 518.263 109.599 517.398C110.068 516.533 110.713 515.858 111.535 515.374C112.371 514.875 113.346 514.626 114.461 514.626C115.561 514.626 116.477 514.861 117.211 515.33C117.959 515.799 118.516 516.459 118.883 517.31C119.264 518.146 119.455 519.121 119.455 520.236V521.006H111.645V519.356H117.035L116.661 519.664C116.661 518.74 116.47 518.043 116.089 517.574C115.722 517.09 115.187 516.848 114.483 516.848C113.705 516.848 113.104 517.134 112.679 517.706C112.268 518.278 112.063 519.099 112.063 520.17V520.522C112.063 521.607 112.327 522.414 112.855 522.942C113.397 523.47 114.175 523.734 115.187 523.734C115.788 523.734 116.353 523.661 116.881 523.514C117.423 523.353 117.937 523.103 118.421 522.766L119.345 524.966C118.787 525.377 118.142 525.692 117.409 525.912C116.69 526.132 115.913 526.242 115.077 526.242ZM131.885 526.242C130.888 526.242 129.979 526.132 129.157 525.912C128.336 525.692 127.639 525.384 127.067 524.988L127.925 522.788C128.497 523.14 129.128 523.419 129.817 523.624C130.521 523.829 131.218 523.932 131.907 523.932C132.553 523.932 133.029 523.829 133.337 523.624C133.645 523.419 133.799 523.14 133.799 522.788C133.799 522.495 133.697 522.267 133.491 522.106C133.301 521.945 133 521.827 132.589 521.754L130.323 521.336C129.37 521.145 128.644 520.793 128.145 520.28C127.647 519.767 127.397 519.099 127.397 518.278C127.397 517.559 127.588 516.929 127.969 516.386C128.365 515.829 128.93 515.396 129.663 515.088C130.397 514.78 131.255 514.626 132.237 514.626C133.073 514.626 133.865 514.729 134.613 514.934C135.361 515.139 135.999 515.455 136.527 515.88L135.625 518.014C135.171 517.677 134.643 517.405 134.041 517.2C133.455 516.995 132.89 516.892 132.347 516.892C131.643 516.892 131.137 517.009 130.829 517.244C130.521 517.464 130.367 517.75 130.367 518.102C130.367 518.366 130.455 518.586 130.631 518.762C130.822 518.938 131.108 519.07 131.489 519.158L133.777 519.576C134.76 519.752 135.508 520.082 136.021 520.566C136.535 521.05 136.791 521.717 136.791 522.568C136.791 523.345 136.586 524.005 136.175 524.548C135.765 525.091 135.185 525.509 134.437 525.802C133.704 526.095 132.853 526.242 131.885 526.242ZM143.964 526.242C142.512 526.242 141.419 525.883 140.686 525.164C139.952 524.431 139.586 523.338 139.586 521.886V517.332H137.474V514.846H139.586V512.118L142.908 511.304V514.846H145.768V517.332H142.908V521.71C142.908 522.414 143.054 522.898 143.348 523.162C143.641 523.426 144.015 523.558 144.47 523.558C144.748 523.558 144.976 523.543 145.152 523.514C145.342 523.47 145.54 523.411 145.746 523.338V525.912C145.467 526.029 145.174 526.11 144.866 526.154C144.558 526.213 144.257 526.242 143.964 526.242ZM151.806 526.242C150.838 526.242 149.988 526.007 149.254 525.538C148.521 525.069 147.949 524.401 147.538 523.536C147.128 522.671 146.922 521.629 146.922 520.412C146.922 519.209 147.128 518.175 147.538 517.31C147.949 516.445 148.521 515.785 149.254 515.33C149.988 514.861 150.838 514.626 151.806 514.626C152.701 514.626 153.5 514.846 154.204 515.286C154.923 515.711 155.392 516.291 155.612 517.024H155.37L155.634 514.846H158.824C158.78 515.33 158.736 515.821 158.692 516.32C158.663 516.804 158.648 517.281 158.648 517.75V526H155.348L155.326 523.91H155.59C155.356 524.614 154.886 525.179 154.182 525.604C153.478 526.029 152.686 526.242 151.806 526.242ZM152.818 523.734C153.581 523.734 154.197 523.463 154.666 522.92C155.136 522.377 155.37 521.541 155.37 520.412C155.37 519.283 155.136 518.454 154.666 517.926C154.197 517.398 153.581 517.134 152.818 517.134C152.056 517.134 151.44 517.398 150.97 517.926C150.501 518.454 150.266 519.283 150.266 520.412C150.266 521.541 150.494 522.377 150.948 522.92C151.418 523.463 152.041 523.734 152.818 523.734ZM161.351 526V517.794C161.351 517.31 161.336 516.819 161.307 516.32C161.292 515.821 161.255 515.33 161.197 514.846H164.387L164.761 518.102H164.255C164.401 517.31 164.636 516.657 164.959 516.144C165.296 515.631 165.707 515.249 166.191 515C166.689 514.751 167.254 514.626 167.885 514.626C168.163 514.626 168.383 514.641 168.545 514.67C168.706 514.685 168.867 514.721 169.029 514.78L169.007 517.706C168.699 517.574 168.435 517.493 168.215 517.464C168.009 517.42 167.745 517.398 167.423 517.398C166.807 517.398 166.293 517.515 165.883 517.75C165.487 517.985 165.186 518.329 164.981 518.784C164.79 519.239 164.695 519.789 164.695 520.434V526H161.351ZM176.276 526.242C174.824 526.242 173.732 525.883 172.998 525.164C172.265 524.431 171.898 523.338 171.898 521.886V517.332H169.786V514.846H171.898V512.118L175.22 511.304V514.846H178.08V517.332H175.22V521.71C175.22 522.414 175.367 522.898 175.66 523.162C175.954 523.426 176.328 523.558 176.782 523.558C177.061 523.558 177.288 523.543 177.464 523.514C177.655 523.47 177.853 523.411 178.058 523.338V525.912C177.78 526.029 177.486 526.11 177.178 526.154C176.87 526.213 176.57 526.242 176.276 526.242ZM191.208 526.242C189.756 526.242 188.663 525.883 187.93 525.164C187.197 524.431 186.83 523.338 186.83 521.886V517.332H184.718V514.846H186.83V512.118L190.152 511.304V514.846H193.012V517.332H190.152V521.71C190.152 522.414 190.299 522.898 190.592 523.162C190.885 523.426 191.259 523.558 191.714 523.558C191.993 523.558 192.22 523.543 192.396 523.514C192.587 523.47 192.785 523.411 192.99 523.338V525.912C192.711 526.029 192.418 526.11 192.11 526.154C191.802 526.213 191.501 526.242 191.208 526.242ZM194.717 526V509.808H198.039V516.936H197.709C198.061 516.188 198.581 515.616 199.271 515.22C199.96 514.824 200.752 514.626 201.647 514.626C202.952 514.626 203.927 515.007 204.573 515.77C205.218 516.518 205.541 517.669 205.541 519.224V526H202.219V519.378C202.219 518.601 202.072 518.043 201.779 517.706C201.5 517.369 201.06 517.2 200.459 517.2C199.725 517.2 199.139 517.427 198.699 517.882C198.259 518.337 198.039 518.945 198.039 519.708V526H194.717ZM213.819 526.242C211.883 526.242 210.372 525.721 209.287 524.68C208.201 523.639 207.659 522.223 207.659 520.434C207.659 519.275 207.886 518.263 208.341 517.398C208.81 516.533 209.455 515.858 210.277 515.374C211.113 514.875 212.088 514.626 213.203 514.626C214.303 514.626 215.219 514.861 215.953 515.33C216.701 515.799 217.258 516.459 217.625 517.31C218.006 518.146 218.197 519.121 218.197 520.236V521.006H210.387V519.356H215.777L215.403 519.664C215.403 518.74 215.212 518.043 214.831 517.574C214.464 517.09 213.929 516.848 213.225 516.848C212.447 516.848 211.846 517.134 211.421 517.706C211.01 518.278 210.805 519.099 210.805 520.17V520.522C210.805 521.607 211.069 522.414 211.597 522.942C212.139 523.47 212.917 523.734 213.929 523.734C214.53 523.734 215.095 523.661 215.623 523.514C216.165 523.353 216.679 523.103 217.163 522.766L218.087 524.966C217.529 525.377 216.884 525.692 216.151 525.912C215.432 526.132 214.655 526.242 213.819 526.242ZM231.727 526.242C230.275 526.242 229.183 525.883 228.449 525.164C227.716 524.431 227.349 523.338 227.349 521.886V517.332H225.237V514.846H227.349V512.118L230.671 511.304V514.846H233.531V517.332H230.671V521.71C230.671 522.414 230.818 522.898 231.111 523.162C231.405 523.426 231.779 523.558 232.233 523.558C232.512 523.558 232.739 523.543 232.915 523.514C233.106 523.47 233.304 523.411 233.509 523.338V525.912C233.231 526.029 232.937 526.11 232.629 526.154C232.321 526.213 232.021 526.242 231.727 526.242ZM239.284 526.242C237.891 526.242 236.857 525.861 236.182 525.098C235.507 524.321 235.17 523.147 235.17 521.578V514.846H238.492V521.578C238.492 522.282 238.631 522.803 238.91 523.14C239.203 523.477 239.651 523.646 240.252 523.646C240.912 523.646 241.455 523.419 241.88 522.964C242.32 522.495 242.54 521.871 242.54 521.094V514.846H245.862V526H242.628V523.866H242.936C242.599 524.614 242.115 525.201 241.484 525.626C240.868 526.037 240.135 526.242 239.284 526.242ZM253.813 526.242C252.361 526.242 251.269 525.883 250.535 525.164C249.802 524.431 249.435 523.338 249.435 521.886V517.332H247.323V514.846H249.435V512.118L252.757 511.304V514.846H255.617V517.332H252.757V521.71C252.757 522.414 252.904 522.898 253.197 523.162C253.491 523.426 253.865 523.558 254.319 523.558C254.598 523.558 254.825 523.543 255.001 523.514C255.192 523.47 255.39 523.411 255.595 523.338V525.912C255.317 526.029 255.023 526.11 254.715 526.154C254.407 526.213 254.107 526.242 253.813 526.242ZM262.495 526.242C261.307 526.242 260.273 526.007 259.393 525.538C258.527 525.054 257.853 524.379 257.369 523.514C256.899 522.649 256.665 521.615 256.665 520.412C256.665 519.224 256.899 518.197 257.369 517.332C257.853 516.467 258.527 515.799 259.393 515.33C260.273 514.861 261.307 514.626 262.495 514.626C263.683 514.626 264.717 514.861 265.597 515.33C266.477 515.799 267.151 516.467 267.621 517.332C268.105 518.197 268.347 519.224 268.347 520.412C268.347 521.615 268.105 522.649 267.621 523.514C267.151 524.379 266.477 525.054 265.597 525.538C264.717 526.007 263.683 526.242 262.495 526.242ZM262.495 523.734C263.257 523.734 263.859 523.463 264.299 522.92C264.753 522.377 264.981 521.541 264.981 520.412C264.981 519.283 264.753 518.454 264.299 517.926C263.859 517.398 263.257 517.134 262.495 517.134C261.732 517.134 261.123 517.398 260.669 517.926C260.229 518.454 260.009 519.283 260.009 520.412C260.009 521.541 260.229 522.377 260.669 522.92C261.123 523.463 261.732 523.734 262.495 523.734ZM270.47 526V517.794C270.47 517.31 270.455 516.819 270.426 516.32C270.411 515.821 270.375 515.33 270.316 514.846H273.506L273.88 518.102H273.374C273.521 517.31 273.755 516.657 274.078 516.144C274.415 515.631 274.826 515.249 275.31 515C275.809 514.751 276.373 514.626 277.004 514.626C277.283 514.626 277.503 514.641 277.664 514.67C277.825 514.685 277.987 514.721 278.148 514.78L278.126 517.706C277.818 517.574 277.554 517.493 277.334 517.464C277.129 517.42 276.865 517.398 276.542 517.398C275.926 517.398 275.413 517.515 275.002 517.75C274.606 517.985 274.305 518.329 274.1 518.784C273.909 519.239 273.814 519.789 273.814 520.434V526H270.47ZM279.537 526V514.846H282.859V526H279.537ZM279.405 513.02V509.918H282.969V513.02H279.405ZM289.908 526.242C288.94 526.242 288.089 526.007 287.356 525.538C286.623 525.069 286.051 524.401 285.64 523.536C285.229 522.671 285.024 521.629 285.024 520.412C285.024 519.209 285.229 518.175 285.64 517.31C286.051 516.445 286.623 515.785 287.356 515.33C288.089 514.861 288.94 514.626 289.908 514.626C290.803 514.626 291.602 514.846 292.306 515.286C293.025 515.711 293.494 516.291 293.714 517.024H293.472L293.736 514.846H296.926C296.882 515.33 296.838 515.821 296.794 516.32C296.765 516.804 296.75 517.281 296.75 517.75V526H293.45L293.428 523.91H293.692C293.457 524.614 292.988 525.179 292.284 525.604C291.58 526.029 290.788 526.242 289.908 526.242ZM290.92 523.734C291.683 523.734 292.299 523.463 292.768 522.92C293.237 522.377 293.472 521.541 293.472 520.412C293.472 519.283 293.237 518.454 292.768 517.926C292.299 517.398 291.683 517.134 290.92 517.134C290.157 517.134 289.541 517.398 289.072 517.926C288.603 518.454 288.368 519.283 288.368 520.412C288.368 521.541 288.595 522.377 289.05 522.92C289.519 523.463 290.143 523.734 290.92 523.734ZM299.474 526V509.808H302.796V526H299.474ZM305.225 526V522.48H308.789V526H305.225Z" fill="#272D69"/>
<rect x="32" y="652" width="296" height="52" rx="26" fill="#FFD179"/>
<path d="M114.184 684.16C113.277 684.16 112.44 684.048 111.672 683.824C110.915 683.589 110.264 683.269 109.72 682.864L110.36 681.248C110.723 681.504 111.101 681.723 111.496 681.904C111.891 682.075 112.312 682.208 112.76 682.304C113.208 682.389 113.683 682.432 114.184 682.432C115.027 682.432 115.635 682.293 116.008 682.016C116.381 681.739 116.568 681.376 116.568 680.928C116.568 680.533 116.44 680.235 116.184 680.032C115.928 679.819 115.469 679.643 114.808 679.504L113 679.136C111.965 678.923 111.192 678.565 110.68 678.064C110.168 677.563 109.912 676.891 109.912 676.048C109.912 675.344 110.099 674.731 110.472 674.208C110.845 673.685 111.368 673.28 112.04 672.992C112.712 672.704 113.496 672.56 114.392 672.56C115.192 672.56 115.933 672.677 116.616 672.912C117.299 673.136 117.869 673.461 118.328 673.888L117.688 675.424C117.229 675.04 116.728 674.757 116.184 674.576C115.64 674.384 115.032 674.288 114.36 674.288C113.603 674.288 113.011 674.437 112.584 674.736C112.168 675.024 111.96 675.424 111.96 675.936C111.96 676.331 112.088 676.645 112.344 676.88C112.611 677.115 113.059 677.296 113.688 677.424L115.48 677.776C116.547 677.989 117.336 678.341 117.848 678.832C118.36 679.312 118.616 679.963 118.616 680.784C118.616 681.456 118.435 682.048 118.072 682.56C117.709 683.061 117.197 683.456 116.536 683.744C115.875 684.021 115.091 684.16 114.184 684.16ZM124.418 684.16C123.458 684.16 122.733 683.909 122.242 683.408C121.752 682.907 121.506 682.155 121.506 681.152V677.424H119.954V675.92H121.506V673.856L123.506 673.344V675.92H125.666V677.424H123.506V681.024C123.506 681.579 123.613 681.968 123.826 682.192C124.04 682.416 124.333 682.528 124.706 682.528C124.909 682.528 125.08 682.512 125.218 682.48C125.368 682.448 125.512 682.405 125.65 682.352V683.936C125.469 684.011 125.266 684.064 125.042 684.096C124.829 684.139 124.621 684.16 124.418 684.16ZM130.785 684.16C130.081 684.16 129.462 683.995 128.929 683.664C128.396 683.323 127.98 682.837 127.681 682.208C127.382 681.579 127.233 680.827 127.233 679.952C127.233 679.077 127.382 678.331 127.681 677.712C127.98 677.083 128.396 676.603 128.929 676.272C129.462 675.931 130.081 675.76 130.785 675.76C131.468 675.76 132.065 675.931 132.577 676.272C133.1 676.603 133.446 677.051 133.617 677.616H133.441L133.617 675.92H135.537C135.505 676.251 135.473 676.587 135.441 676.928C135.42 677.269 135.409 677.605 135.409 677.936V684H133.425L133.409 682.336H133.601C133.43 682.891 133.084 683.333 132.561 683.664C132.038 683.995 131.446 684.16 130.785 684.16ZM131.345 682.624C131.974 682.624 132.481 682.405 132.865 681.968C133.249 681.52 133.441 680.848 133.441 679.952C133.441 679.056 133.249 678.389 132.865 677.952C132.481 677.515 131.974 677.296 131.345 677.296C130.716 677.296 130.209 677.515 129.825 677.952C129.441 678.389 129.249 679.056 129.249 679.952C129.249 680.848 129.436 681.52 129.809 681.968C130.193 682.405 130.705 682.624 131.345 682.624ZM138.211 684V677.984C138.211 677.643 138.2 677.296 138.179 676.944C138.168 676.592 138.141 676.251 138.099 675.92H140.035L140.259 678.128H139.939C140.045 677.595 140.221 677.152 140.467 676.8C140.723 676.448 141.032 676.187 141.395 676.016C141.757 675.845 142.152 675.76 142.579 675.76C142.771 675.76 142.925 675.771 143.043 675.792C143.16 675.803 143.277 675.829 143.395 675.872L143.379 677.632C143.176 677.547 143 677.493 142.851 677.472C142.712 677.451 142.536 677.44 142.323 677.44C141.864 677.44 141.475 677.536 141.155 677.728C140.845 677.92 140.611 678.187 140.451 678.528C140.301 678.869 140.227 679.259 140.227 679.696V684H138.211ZM149.057 684.16C148.097 684.16 147.372 683.909 146.881 683.408C146.39 682.907 146.145 682.155 146.145 681.152V677.424H144.593V675.92H146.145V673.856L148.145 673.344V675.92H150.305V677.424H148.145V681.024C148.145 681.579 148.252 681.968 148.465 682.192C148.678 682.416 148.972 682.528 149.345 682.528C149.548 682.528 149.718 682.512 149.857 682.48C150.006 682.448 150.15 682.405 150.289 682.352V683.936C150.108 684.011 149.905 684.064 149.681 684.096C149.468 684.139 149.26 684.16 149.057 684.16ZM160.79 684.16C159.83 684.16 159.105 683.909 158.614 683.408C158.124 682.907 157.878 682.155 157.878 681.152V677.424H156.326V675.92H157.878V673.856L159.878 673.344V675.92H162.038V677.424H159.878V681.024C159.878 681.579 159.985 681.968 160.198 682.192C160.412 682.416 160.705 682.528 161.078 682.528C161.281 682.528 161.452 682.512 161.59 682.48C161.74 682.448 161.884 682.405 162.022 682.352V683.936C161.841 684.011 161.638 684.064 161.414 684.096C161.201 684.139 160.993 684.16 160.79 684.16ZM164.037 684V672.224H166.037V677.536H165.813C166.058 676.96 166.437 676.523 166.949 676.224C167.461 675.915 168.047 675.76 168.709 675.76C169.669 675.76 170.383 676.032 170.853 676.576C171.322 677.109 171.557 677.925 171.557 679.024V684H169.557V679.12C169.557 678.491 169.434 678.037 169.189 677.76C168.954 677.472 168.575 677.328 168.053 677.328C167.445 677.328 166.954 677.52 166.581 677.904C166.218 678.277 166.037 678.779 166.037 679.408V684H164.037ZM178.221 684.16C176.867 684.16 175.805 683.787 175.037 683.04C174.269 682.293 173.885 681.269 173.885 679.968C173.885 679.125 174.051 678.389 174.381 677.76C174.712 677.131 175.171 676.64 175.757 676.288C176.355 675.936 177.048 675.76 177.837 675.76C178.616 675.76 179.267 675.925 179.789 676.256C180.312 676.587 180.707 677.051 180.973 677.648C181.251 678.245 181.389 678.944 181.389 679.744V680.272H175.501V679.216H179.965L179.693 679.44C179.693 678.693 179.533 678.123 179.213 677.728C178.904 677.333 178.451 677.136 177.853 677.136C177.192 677.136 176.68 677.371 176.317 677.84C175.965 678.309 175.789 678.965 175.789 679.808V680.016C175.789 680.891 176.003 681.547 176.429 681.984C176.867 682.411 177.48 682.624 178.269 682.624C178.728 682.624 179.155 682.565 179.549 682.448C179.955 682.32 180.339 682.117 180.701 681.84L181.293 683.184C180.909 683.493 180.451 683.733 179.917 683.904C179.384 684.075 178.819 684.16 178.221 684.16ZM191.57 684V674.416H187.842V672.72H197.362V674.416H193.634V684H191.57ZM201.009 684.16C200.017 684.16 199.275 683.888 198.785 683.344C198.294 682.8 198.049 681.968 198.049 680.848V675.92H200.049V680.832C200.049 681.429 200.171 681.872 200.417 682.16C200.662 682.437 201.035 682.576 201.537 682.576C202.102 682.576 202.561 682.384 202.913 682C203.275 681.616 203.457 681.109 203.457 680.48V675.92H205.457V684H203.505V682.352H203.729C203.494 682.928 203.137 683.376 202.657 683.696C202.187 684.005 201.638 684.16 201.009 684.16ZM211.724 684.16C210.764 684.16 210.039 683.909 209.548 683.408C209.057 682.907 208.812 682.155 208.812 681.152V677.424H207.26V675.92H208.812V673.856L210.812 673.344V675.92H212.972V677.424H210.812V681.024C210.812 681.579 210.919 681.968 211.132 682.192C211.345 682.416 211.639 682.528 212.012 682.528C212.215 682.528 212.385 682.512 212.524 682.48C212.673 682.448 212.817 682.405 212.956 682.352V683.936C212.775 684.011 212.572 684.064 212.348 684.096C212.135 684.139 211.927 684.16 211.724 684.16ZM218.54 684.16C217.708 684.16 216.988 683.989 216.38 683.648C215.772 683.307 215.298 682.821 214.956 682.192C214.626 681.563 214.46 680.816 214.46 679.952C214.46 679.088 214.626 678.347 214.956 677.728C215.298 677.099 215.772 676.613 216.38 676.272C216.988 675.931 217.708 675.76 218.54 675.76C219.372 675.76 220.092 675.931 220.7 676.272C221.319 676.613 221.794 677.099 222.124 677.728C222.466 678.347 222.636 679.088 222.636 679.952C222.636 680.816 222.466 681.563 222.124 682.192C221.794 682.821 221.319 683.307 220.7 683.648C220.092 683.989 219.372 684.16 218.54 684.16ZM218.54 682.624C219.17 682.624 219.671 682.405 220.044 681.968C220.418 681.52 220.604 680.848 220.604 679.952C220.604 679.056 220.418 678.389 220.044 677.952C219.671 677.515 219.17 677.296 218.54 677.296C217.911 677.296 217.41 677.515 217.036 677.952C216.663 678.389 216.476 679.056 216.476 679.952C216.476 680.848 216.663 681.52 217.036 681.968C217.41 682.405 217.911 682.624 218.54 682.624ZM224.985 684V677.984C224.985 677.643 224.974 677.296 224.953 676.944C224.942 676.592 224.916 676.251 224.873 675.92H226.809L227.033 678.128H226.713C226.82 677.595 226.996 677.152 227.241 676.8C227.497 676.448 227.806 676.187 228.169 676.016C228.532 675.845 228.926 675.76 229.353 675.76C229.545 675.76 229.7 675.771 229.817 675.792C229.934 675.803 230.052 675.829 230.169 675.872L230.153 677.632C229.95 677.547 229.774 677.493 229.625 677.472C229.486 677.451 229.31 677.44 229.097 677.44C228.638 677.44 228.249 677.536 227.929 677.728C227.62 677.92 227.385 678.187 227.225 678.528C227.076 678.869 227.001 679.259 227.001 679.696V684H224.985ZM231.922 684V675.92H233.922V684H231.922ZM231.81 674.4V672.448H234.034V674.4H231.81ZM239.854 684.16C239.15 684.16 238.532 683.995 237.998 683.664C237.465 683.323 237.049 682.837 236.75 682.208C236.452 681.579 236.302 680.827 236.302 679.952C236.302 679.077 236.452 678.331 236.75 677.712C237.049 677.083 237.465 676.603 237.998 676.272C238.532 675.931 239.15 675.76 239.854 675.76C240.537 675.76 241.134 675.931 241.646 676.272C242.169 676.603 242.516 677.051 242.686 677.616H242.51L242.686 675.92H244.606C244.574 676.251 244.542 676.587 244.51 676.928C244.489 677.269 244.478 677.605 244.478 677.936V684H242.494L242.478 682.336H242.67C242.5 682.891 242.153 683.333 241.63 683.664C241.108 683.995 240.516 684.16 239.854 684.16ZM240.414 682.624C241.044 682.624 241.55 682.405 241.934 681.968C242.318 681.52 242.51 680.848 242.51 679.952C242.51 679.056 242.318 678.389 241.934 677.952C241.55 677.515 241.044 677.296 240.414 677.296C239.785 677.296 239.278 677.515 238.894 677.952C238.51 678.389 238.318 679.056 238.318 679.952C238.318 680.848 238.505 681.52 238.878 681.968C239.262 682.405 239.774 682.624 240.414 682.624ZM247.296 684V672.224H249.296V684H247.296Z" fill="#272D69"/>
<path fill-rule="evenodd" clip-rule="evenodd" d="M197.081 162.643C206.466 155.125 209.893 141.921 204.613 130.521C198.402 117.11 182.495 111.273 169.085 117.484C161.273 121.102 156.032 128.009 154.244 135.797C146.289 130.478 135.834 129.309 126.516 133.624C112.292 140.212 106.102 157.082 112.689 171.306C113.39 172.818 114.207 174.24 115.124 175.565C110.303 174.951 105.256 175.642 100.521 177.835C87.1099 184.046 81.2733 199.952 87.4841 213.363C90.5631 220.011 96.0249 224.798 102.384 227.178C90.7726 234.112 86.041 248.84 91.8507 261.384C98.0615 274.795 113.968 280.631 127.379 274.421C128.047 274.111 128.697 273.777 129.327 273.421C129.593 273.911 129.866 274.4 130.144 274.887C161.587 329.823 232.803 378.81 318.068 408.774C331.848 413.617 367.501 426.529 382.5 430.5V266.887C330.334 247.538 279.09 221.945 266.447 208.242C276.306 198.187 279.456 182.701 273.188 169.165C265.095 151.691 244.368 144.086 226.894 152.178C220.781 155.009 215.877 159.386 212.429 164.628C207.409 163.445 202.265 162.776 197.081 162.643ZM170.715 166.739C169.2 166.156 167.736 165.435 166.345 164.584C166.069 166.057 165.677 167.505 165.175 168.913C167.005 168.11 168.853 167.386 170.715 166.739ZM134.143 187.435C135.806 187.692 137.496 187.801 139.196 187.757C138.171 188.908 137.185 190.088 136.239 191.293C136.177 191.152 136.113 191.011 136.048 190.871C135.489 189.663 134.851 188.517 134.143 187.435Z" fill="#272D69"/>
<rect x="125" y="109" width="110" height="236" rx="10" fill="#008080" stroke="#272D69" stroke-width="4"/>
<path d="M152.657 111C152.657 109.067 154.224 107.5 156.157 107.5H203.843C205.776 107.5 207.343 109.067 207.343 111V115.881C207.343 117.814 205.776 119.381 203.843 119.381H156.157C154.224 119.381 152.657 117.814 152.657 115.881V111Z" fill="#272D69" stroke="#272D69"/>
<mask id="mask0_1_3386" style="mask-type:alpha" maskUnits="userSpaceOnUse" x="197" y="182" width="14" height="13">
<circle cx="203.722" cy="188.49" r="6.30887" fill="#2C3032"/>
</mask>
<g mask="url(#mask0_1_3386)">
<path fill-rule="evenodd" clip-rule="evenodd" d="M210.031 188.49C210.031 191.974 207.206 194.798 203.722 194.798C200.237 194.798 197.413 191.974 197.413 188.49C197.413 185.005 200.237 182.181 203.722 182.181C207.206 182.181 210.031 185.005 210.031 188.49ZM207.07 186.141C207.07 186.917 206.441 187.546 205.665 187.546C204.889 187.546 204.26 186.917 204.26 186.141C204.26 185.365 204.889 184.735 205.665 184.735C206.441 184.735 207.07 185.365 207.07 186.141ZM202.982 186.013C203.406 186.013 203.749 185.669 203.749 185.246C203.749 184.823 203.406 184.479 202.982 184.479C202.559 184.479 202.216 184.823 202.216 185.246C202.216 185.669 202.559 186.013 202.982 186.013Z" fill="#272D69"/>
</g>
<mask id="mask1_1_3386" style="mask-type:alpha" maskUnits="userSpaceOnUse" x="150" y="182" width="14" height="13">
<circle cx="157.104" cy="188.49" r="6.30887" fill="#2C3032"/>
</mask>
<g mask="url(#mask1_1_3386)">
<path fill-rule="evenodd" clip-rule="evenodd" d="M163.413 188.49C163.413 191.974 160.588 194.798 157.104 194.798C153.62 194.798 150.795 191.974 150.795 188.49C150.795 185.005 153.62 182.181 157.104 182.181C160.588 182.181 163.413 185.005 163.413 188.49ZM160.453 186.141C160.453 186.917 159.823 187.546 159.047 187.546C158.271 187.546 157.642 186.917 157.642 186.141C157.642 185.365 158.271 184.735 159.047 184.735C159.823 184.735 160.453 185.365 160.453 186.141ZM156.365 186.013C156.788 186.013 157.131 185.669 157.131 185.246C157.131 184.823 156.788 184.479 156.365 184.479C155.941 184.479 155.598 184.823 155.598 185.246C155.598 185.669 155.941 186.013 156.365 186.013Z" fill="#272D69"/>
</g>
<path d="M196.394 203.892C196.394 209.117 189.337 216.732 180.631 216.732C171.925 216.732 164.868 209.117 164.868 203.892C164.868 198.666 171.925 205.356 180.631 205.356C189.337 205.356 196.394 198.666 196.394 203.892Z" fill="#272D69"/>
<path d="M212.654 176.111C212.654 173.981 208.711 170.878 203.848 170.878C198.984 170.878 195.042 173.981 195.042 176.111C195.042 178.24 198.984 175.514 203.848 175.514C208.711 175.514 212.654 178.24 212.654 176.111Z" fill="#272D69"/>
<path d="M166.042 176.111C166.042 173.981 162.099 170.878 157.235 170.878C152.372 170.878 148.429 173.981 148.429 176.111C148.429 178.24 152.372 175.514 157.235 175.514C162.099 175.514 166.042 178.24 166.042 176.111Z" fill="#272D69"/>
</g>
<defs>
<clipPath id="clip0_1_3386">
<rect width="360" height="780" rx="18" fill="white"/>
</clipPath>
</defs>
</svg>
