<svg width="360" height="780" viewBox="0 0 360 780" fill="none" xmlns="http://www.w3.org/2000/svg">
<g clip-path="url(#clip0_1_1890)">
<rect width="360" height="780" rx="30" fill="#008080"/>
<path d="M59.5044 439V420.504H52.3364V416.44H71.6644V420.504H64.4964V439H59.5044ZM75.0621 439V422.776H79.8941V439H75.0621ZM74.8701 420.12V415.608H80.0541V420.12H74.8701ZM84.8434 439V427C84.8434 426.317 84.822 425.624 84.7794 424.92C84.7367 424.195 84.6727 423.48 84.5874 422.776H89.2274L89.5794 425.784H89.1954C89.6647 424.76 90.358 423.949 91.2754 423.352C92.1927 422.755 93.2807 422.456 94.5394 422.456C95.7767 422.456 96.8114 422.755 97.6434 423.352C98.4967 423.928 99.1047 424.835 99.4674 426.072H98.9554C99.4247 424.963 100.171 424.088 101.195 423.448C102.219 422.787 103.382 422.456 104.683 422.456C106.518 422.456 107.883 423 108.779 424.088C109.675 425.176 110.123 426.883 110.123 429.208V439H105.291V429.368C105.291 428.237 105.11 427.427 104.747 426.936C104.385 426.445 103.798 426.2 102.987 426.2C102.027 426.2 101.27 426.541 100.715 427.224C100.161 427.907 99.8834 428.845 99.8834 430.04V439H95.0514V429.368C95.0514 428.237 94.87 427.427 94.5074 426.936C94.1447 426.445 93.558 426.2 92.7474 426.2C91.7874 426.2 91.03 426.541 90.4754 427.224C89.942 427.907 89.6754 428.845 89.6754 430.04V439H84.8434ZM123.16 439.352C120.344 439.352 118.146 438.595 116.568 437.08C114.989 435.565 114.2 433.507 114.2 430.904C114.2 429.219 114.53 427.747 115.192 426.488C115.874 425.229 116.813 424.248 118.008 423.544C119.224 422.819 120.642 422.456 122.264 422.456C123.864 422.456 125.197 422.797 126.264 423.48C127.352 424.163 128.162 425.123 128.696 426.36C129.25 427.576 129.528 428.995 129.528 430.616V431.736H118.168V429.336H126.008L125.464 429.784C125.464 428.44 125.186 427.427 124.632 426.744C124.098 426.04 123.32 425.688 122.296 425.688C121.165 425.688 120.29 426.104 119.672 426.936C119.074 427.768 118.776 428.963 118.776 430.52V431.032C118.776 432.611 119.16 433.784 119.928 434.552C120.717 435.32 121.848 435.704 123.32 435.704C124.194 435.704 125.016 435.597 125.784 435.384C126.573 435.149 127.32 434.787 128.024 434.296L129.368 437.496C128.557 438.093 127.618 438.552 126.552 438.872C125.506 439.192 124.376 439.352 123.16 439.352ZM151.209 439.352C149.097 439.352 147.507 438.829 146.441 437.784C145.374 436.717 144.841 435.128 144.841 433.016V426.392H141.769V422.776H144.841V418.808L149.673 417.624V422.776H153.833V426.392H149.673V432.76C149.673 433.784 149.886 434.488 150.313 434.872C150.739 435.256 151.283 435.448 151.945 435.448C152.35 435.448 152.681 435.427 152.937 435.384C153.214 435.32 153.502 435.235 153.801 435.128V438.872C153.395 439.043 152.969 439.16 152.521 439.224C152.073 439.309 151.635 439.352 151.209 439.352ZM164.836 439.352C163.108 439.352 161.604 439.011 160.324 438.328C159.065 437.624 158.084 436.643 157.38 435.384C156.697 434.125 156.356 432.621 156.356 430.872C156.356 429.144 156.697 427.651 157.38 426.392C158.084 425.133 159.065 424.163 160.324 423.48C161.604 422.797 163.108 422.456 164.836 422.456C166.564 422.456 168.068 422.797 169.348 423.48C170.628 424.163 171.609 425.133 172.292 426.392C172.996 427.651 173.348 429.144 173.348 430.872C173.348 432.621 172.996 434.125 172.292 435.384C171.609 436.643 170.628 437.624 169.348 438.328C168.068 439.011 166.564 439.352 164.836 439.352ZM164.836 435.704C165.945 435.704 166.82 435.309 167.46 434.52C168.121 433.731 168.452 432.515 168.452 430.872C168.452 429.229 168.121 428.024 167.46 427.256C166.82 426.488 165.945 426.104 164.836 426.104C163.727 426.104 162.841 426.488 162.18 427.256C161.54 428.024 161.22 429.229 161.22 430.872C161.22 432.515 161.54 433.731 162.18 434.52C162.841 435.309 163.727 435.704 164.836 435.704ZM193.388 439.352C191.361 439.352 189.857 438.797 188.876 437.688C187.894 436.557 187.404 434.851 187.404 432.568V422.776H192.236V432.568C192.236 433.592 192.438 434.349 192.844 434.84C193.27 435.331 193.921 435.576 194.796 435.576C195.756 435.576 196.545 435.245 197.164 434.584C197.804 433.901 198.124 432.995 198.124 431.864V422.776H202.956V439H198.252V435.896H198.7C198.209 436.984 197.505 437.837 196.588 438.456C195.692 439.053 194.625 439.352 193.388 439.352ZM207.937 445.912V427C207.937 426.317 207.916 425.624 207.873 424.92C207.83 424.195 207.766 423.48 207.681 422.776H212.321L212.705 425.944H212.353C212.673 424.877 213.345 424.035 214.369 423.416C215.393 422.776 216.566 422.456 217.889 422.456C219.297 422.456 220.534 422.797 221.601 423.48C222.668 424.141 223.5 425.101 224.097 426.36C224.716 427.619 225.025 429.123 225.025 430.872C225.025 432.643 224.716 434.157 224.097 435.416C223.5 436.675 222.668 437.645 221.601 438.328C220.534 439.011 219.297 439.352 217.889 439.352C216.588 439.352 215.425 439.043 214.401 438.424C213.398 437.805 212.726 436.984 212.385 435.96H212.769V445.912H207.937ZM216.417 435.704C217.548 435.704 218.454 435.309 219.137 434.52C219.82 433.731 220.161 432.515 220.161 430.872C220.161 429.229 219.82 428.024 219.137 427.256C218.454 426.488 217.548 426.104 216.417 426.104C215.308 426.104 214.401 426.488 213.697 427.256C213.014 428.024 212.673 429.229 212.673 430.872C212.673 432.515 213.014 433.731 213.697 434.52C214.401 435.309 215.308 435.704 216.417 435.704ZM229.156 439V415.448H233.988V439H229.156ZM246.617 439.352C244.889 439.352 243.385 439.011 242.105 438.328C240.846 437.624 239.865 436.643 239.161 435.384C238.478 434.125 238.137 432.621 238.137 430.872C238.137 429.144 238.478 427.651 239.161 426.392C239.865 425.133 240.846 424.163 242.105 423.48C243.385 422.797 244.889 422.456 246.617 422.456C248.345 422.456 249.849 422.797 251.129 423.48C252.409 424.163 253.39 425.133 254.073 426.392C254.777 427.651 255.129 429.144 255.129 430.872C255.129 432.621 254.777 434.125 254.073 435.384C253.39 436.643 252.409 437.624 251.129 438.328C249.849 439.011 248.345 439.352 246.617 439.352ZM246.617 435.704C247.726 435.704 248.601 435.309 249.241 434.52C249.902 433.731 250.233 432.515 250.233 430.872C250.233 429.229 249.902 428.024 249.241 427.256C248.601 426.488 247.726 426.104 246.617 426.104C245.508 426.104 244.622 426.488 243.961 427.256C243.321 428.024 243.001 429.229 243.001 430.872C243.001 432.515 243.321 433.731 243.961 434.52C244.622 435.309 245.508 435.704 246.617 435.704ZM265.554 439.352C264.146 439.352 262.908 439.011 261.842 438.328C260.775 437.645 259.943 436.675 259.346 435.416C258.748 434.157 258.45 432.643 258.45 430.872C258.45 429.123 258.748 427.619 259.346 426.36C259.943 425.101 260.775 424.141 261.842 423.48C262.908 422.797 264.146 422.456 265.554 422.456C266.855 422.456 268.018 422.776 269.042 423.416C270.087 424.035 270.77 424.877 271.09 425.944H270.738L271.122 422.776H275.762C275.698 423.48 275.634 424.195 275.57 424.92C275.527 425.624 275.506 426.317 275.506 427V439H270.706L270.674 435.96H271.058C270.716 436.984 270.034 437.805 269.01 438.424C267.986 439.043 266.834 439.352 265.554 439.352ZM267.026 435.704C268.135 435.704 269.031 435.309 269.714 434.52C270.396 433.731 270.738 432.515 270.738 430.872C270.738 429.229 270.396 428.024 269.714 427.256C269.031 426.488 268.135 426.104 267.026 426.104C265.916 426.104 265.02 426.488 264.338 427.256C263.655 428.024 263.314 429.229 263.314 430.872C263.314 432.515 263.644 433.731 264.306 434.52C264.988 435.309 265.895 435.704 267.026 435.704ZM286.836 439.352C285.428 439.352 284.18 439.011 283.092 438.328C282.026 437.645 281.183 436.675 280.564 435.416C279.967 434.157 279.668 432.643 279.668 430.872C279.668 429.123 279.967 427.619 280.564 426.36C281.162 425.101 282.004 424.141 283.092 423.48C284.18 422.797 285.428 422.456 286.836 422.456C288.116 422.456 289.258 422.765 290.26 423.384C291.284 423.981 291.967 424.792 292.308 425.816H291.892V415.448H296.724V439H291.956V435.832H292.372C292.031 436.899 291.348 437.752 290.324 438.392C289.3 439.032 288.138 439.352 286.836 439.352ZM288.276 435.704C289.386 435.704 290.282 435.309 290.964 434.52C291.647 433.731 291.988 432.515 291.988 430.872C291.988 429.229 291.647 428.024 290.964 427.256C290.282 426.488 289.386 426.104 288.276 426.104C287.167 426.104 286.26 426.488 285.556 427.256C284.874 428.024 284.532 429.229 284.532 430.872C284.532 432.515 284.874 433.731 285.556 434.52C286.26 435.309 287.167 435.704 288.276 435.704ZM302.391 431.864L300.887 416.44H306.839L305.303 431.864H302.391ZM301.271 439V433.88H306.455V439H301.271Z" fill="white"/>
<path d="M97.2987 482V470.57H92.8167V469.31H103.257V470.57H98.7927V482H97.2987ZM104.922 482V468.752H106.38V474.962H106.146C106.398 474.254 106.818 473.72 107.406 473.36C108.006 472.988 108.696 472.802 109.476 472.802C110.556 472.802 111.36 473.096 111.888 473.684C112.416 474.26 112.68 475.136 112.68 476.312V482H111.222V476.402C111.222 475.562 111.054 474.95 110.718 474.566C110.394 474.182 109.866 473.99 109.134 473.99C108.294 473.99 107.622 474.248 107.118 474.764C106.626 475.28 106.38 475.958 106.38 476.798V482H104.922ZM119.483 482.162C118.067 482.162 116.951 481.754 116.135 480.938C115.319 480.11 114.911 478.964 114.911 477.5C114.911 476.552 115.091 475.73 115.451 475.034C115.811 474.326 116.315 473.78 116.963 473.396C117.611 473 118.355 472.802 119.195 472.802C120.023 472.802 120.719 472.976 121.283 473.324C121.847 473.672 122.279 474.17 122.579 474.818C122.879 475.454 123.029 476.21 123.029 477.086V477.626H116.027V476.708H122.075L121.769 476.942C121.769 475.982 121.553 475.232 121.121 474.692C120.689 474.152 120.047 473.882 119.195 473.882C118.295 473.882 117.593 474.2 117.089 474.836C116.585 475.46 116.333 476.306 116.333 477.374V477.536C116.333 478.664 116.609 479.522 117.161 480.11C117.725 480.686 118.511 480.974 119.519 480.974C120.059 480.974 120.563 480.896 121.031 480.74C121.511 480.572 121.967 480.302 122.399 479.93L122.903 480.956C122.507 481.34 122.003 481.64 121.391 481.856C120.791 482.06 120.155 482.162 119.483 482.162ZM133.157 482.162C132.269 482.162 131.591 481.91 131.123 481.406C130.655 480.89 130.421 480.116 130.421 479.084V474.098H128.657V472.964H130.421V470.498L131.879 470.084V472.964H134.471V474.098H131.879V478.922C131.879 479.642 131.999 480.158 132.239 480.47C132.491 480.77 132.863 480.92 133.355 480.92C133.583 480.92 133.787 480.902 133.967 480.866C134.147 480.818 134.309 480.764 134.453 480.704V481.928C134.285 482 134.081 482.054 133.841 482.09C133.613 482.138 133.385 482.162 133.157 482.162ZM140.172 482.162C138.756 482.162 137.64 481.754 136.824 480.938C136.008 480.11 135.6 478.964 135.6 477.5C135.6 476.552 135.78 475.73 136.14 475.034C136.5 474.326 137.004 473.78 137.652 473.396C138.3 473 139.044 472.802 139.884 472.802C140.712 472.802 141.408 472.976 141.972 473.324C142.536 473.672 142.968 474.17 143.268 474.818C143.568 475.454 143.718 476.21 143.718 477.086V477.626H136.716V476.708H142.764L142.458 476.942C142.458 475.982 142.242 475.232 141.81 474.692C141.378 474.152 140.736 473.882 139.884 473.882C138.984 473.882 138.282 474.2 137.778 474.836C137.274 475.46 137.022 476.306 137.022 477.374V477.536C137.022 478.664 137.298 479.522 137.85 480.11C138.414 480.686 139.2 480.974 140.208 480.974C140.748 480.974 141.252 480.896 141.72 480.74C142.2 480.572 142.656 480.302 143.088 479.93L143.592 480.956C143.196 481.34 142.692 481.64 142.08 481.856C141.48 482.06 140.844 482.162 140.172 482.162ZM148.955 482.162C148.235 482.162 147.563 482.066 146.939 481.874C146.315 481.67 145.799 481.388 145.391 481.028L145.895 480.002C146.339 480.35 146.819 480.608 147.335 480.776C147.863 480.944 148.409 481.028 148.973 481.028C149.693 481.028 150.233 480.902 150.593 480.65C150.965 480.386 151.151 480.026 151.151 479.57C151.151 479.222 151.031 478.946 150.791 478.742C150.563 478.526 150.185 478.358 149.657 478.238L147.983 477.896C147.215 477.728 146.639 477.446 146.255 477.05C145.871 476.642 145.679 476.126 145.679 475.502C145.679 474.974 145.817 474.512 146.093 474.116C146.369 473.708 146.771 473.39 147.299 473.162C147.827 472.922 148.445 472.802 149.153 472.802C149.813 472.802 150.419 472.904 150.971 473.108C151.535 473.3 152.003 473.582 152.375 473.954L151.853 474.962C151.493 474.614 151.079 474.356 150.611 474.188C150.155 474.008 149.681 473.918 149.189 473.918C148.481 473.918 147.947 474.062 147.587 474.35C147.239 474.626 147.065 474.992 147.065 475.448C147.065 475.796 147.173 476.084 147.389 476.312C147.617 476.528 147.965 476.69 148.433 476.798L150.107 477.14C150.923 477.32 151.529 477.602 151.925 477.986C152.333 478.358 152.537 478.862 152.537 479.498C152.537 480.038 152.387 480.512 152.087 480.92C151.787 481.316 151.367 481.622 150.827 481.838C150.299 482.054 149.675 482.162 148.955 482.162ZM157.995 482.162C157.107 482.162 156.429 481.91 155.961 481.406C155.493 480.89 155.259 480.116 155.259 479.084V474.098H153.495V472.964H155.259V470.498L156.717 470.084V472.964H159.309V474.098H156.717V478.922C156.717 479.642 156.837 480.158 157.077 480.47C157.329 480.77 157.701 480.92 158.193 480.92C158.421 480.92 158.625 480.902 158.805 480.866C158.985 480.818 159.147 480.764 159.291 480.704V481.928C159.123 482 158.919 482.054 158.679 482.09C158.451 482.138 158.223 482.162 157.995 482.162ZM165.777 485.888V475.052C165.777 474.716 165.759 474.374 165.723 474.026C165.699 473.666 165.669 473.312 165.633 472.964H167.037L167.235 475.106H167.019C167.211 474.398 167.601 473.84 168.189 473.432C168.777 473.012 169.479 472.802 170.295 472.802C171.111 472.802 171.813 472.988 172.401 473.36C173.001 473.732 173.469 474.266 173.805 474.962C174.141 475.658 174.309 476.498 174.309 477.482C174.309 478.454 174.141 479.288 173.805 479.984C173.481 480.68 173.019 481.22 172.419 481.604C171.819 481.976 171.111 482.162 170.295 482.162C169.491 482.162 168.795 481.958 168.207 481.55C167.619 481.142 167.229 480.584 167.037 479.876H167.235V485.888H165.777ZM170.007 480.974C170.871 480.974 171.555 480.68 172.059 480.092C172.575 479.492 172.833 478.622 172.833 477.482C172.833 476.33 172.575 475.46 172.059 474.872C171.555 474.272 170.871 473.972 170.007 473.972C169.155 473.972 168.471 474.272 167.955 474.872C167.451 475.46 167.199 476.33 167.199 477.482C167.199 478.622 167.451 479.492 167.955 480.092C168.471 480.68 169.155 480.974 170.007 480.974ZM180.008 482.162C179.204 482.162 178.502 481.976 177.902 481.604C177.302 481.22 176.834 480.68 176.498 479.984C176.174 479.288 176.012 478.454 176.012 477.482C176.012 476.498 176.174 475.658 176.498 474.962C176.834 474.266 177.302 473.732 177.902 473.36C178.502 472.988 179.204 472.802 180.008 472.802C180.824 472.802 181.526 473.012 182.114 473.432C182.714 473.84 183.11 474.398 183.302 475.106H183.086L183.284 472.964H184.688C184.652 473.312 184.616 473.666 184.58 474.026C184.556 474.374 184.544 474.716 184.544 475.052V482H183.086V479.876H183.284C183.092 480.584 182.696 481.142 182.096 481.55C181.496 481.958 180.8 482.162 180.008 482.162ZM180.296 480.974C181.16 480.974 181.844 480.68 182.348 480.092C182.852 479.492 183.104 478.622 183.104 477.482C183.104 476.33 182.852 475.46 182.348 474.872C181.844 474.272 181.16 473.972 180.296 473.972C179.444 473.972 178.76 474.272 178.244 474.872C177.74 475.46 177.488 476.33 177.488 477.482C177.488 478.622 177.74 479.492 178.244 480.092C178.76 480.68 179.444 480.974 180.296 480.974ZM187.327 482V475.142C187.327 474.782 187.315 474.416 187.291 474.044C187.279 473.672 187.255 473.312 187.219 472.964H188.623L188.803 475.16L188.551 475.178C188.671 474.638 188.881 474.194 189.181 473.846C189.481 473.498 189.835 473.24 190.243 473.072C190.651 472.892 191.077 472.802 191.521 472.802C191.701 472.802 191.857 472.808 191.989 472.82C192.133 472.832 192.265 472.862 192.385 472.91L192.367 474.206C192.187 474.146 192.019 474.11 191.863 474.098C191.719 474.074 191.551 474.062 191.359 474.062C190.831 474.062 190.369 474.188 189.973 474.44C189.589 474.692 189.295 475.016 189.091 475.412C188.899 475.808 188.803 476.228 188.803 476.672V482H187.327ZM197.581 482.162C196.693 482.162 196.015 481.91 195.547 481.406C195.079 480.89 194.845 480.116 194.845 479.084V474.098H193.081V472.964H194.845V470.498L196.303 470.084V472.964H198.895V474.098H196.303V478.922C196.303 479.642 196.423 480.158 196.663 480.47C196.915 480.77 197.287 480.92 197.779 480.92C198.007 480.92 198.211 480.902 198.391 480.866C198.571 480.818 198.733 480.764 198.877 480.704V481.928C198.709 482 198.505 482.054 198.265 482.09C198.037 482.138 197.809 482.162 197.581 482.162ZM205.363 482V472.964H206.821V482H205.363ZM205.183 470.912V469.274H206.983V470.912H205.183ZM212.658 482.162C211.938 482.162 211.266 482.066 210.642 481.874C210.018 481.67 209.502 481.388 209.094 481.028L209.598 480.002C210.042 480.35 210.522 480.608 211.038 480.776C211.566 480.944 212.112 481.028 212.676 481.028C213.396 481.028 213.936 480.902 214.296 480.65C214.668 480.386 214.854 480.026 214.854 479.57C214.854 479.222 214.734 478.946 214.494 478.742C214.266 478.526 213.888 478.358 213.36 478.238L211.686 477.896C210.918 477.728 210.342 477.446 209.958 477.05C209.574 476.642 209.382 476.126 209.382 475.502C209.382 474.974 209.52 474.512 209.796 474.116C210.072 473.708 210.474 473.39 211.002 473.162C211.53 472.922 212.148 472.802 212.856 472.802C213.516 472.802 214.122 472.904 214.674 473.108C215.238 473.3 215.706 473.582 216.078 473.954L215.556 474.962C215.196 474.614 214.782 474.356 214.314 474.188C213.858 474.008 213.384 473.918 212.892 473.918C212.184 473.918 211.65 474.062 211.29 474.35C210.942 474.626 210.768 474.992 210.768 475.448C210.768 475.796 210.876 476.084 211.092 476.312C211.32 476.528 211.668 476.69 212.136 476.798L213.81 477.14C214.626 477.32 215.232 477.602 215.628 477.986C216.036 478.358 216.24 478.862 216.24 479.498C216.24 480.038 216.09 480.512 215.79 480.92C215.49 481.316 215.07 481.622 214.53 481.838C214.002 482.054 213.378 482.162 212.658 482.162ZM226.696 482.162C225.904 482.162 225.208 481.976 224.608 481.604C224.008 481.22 223.54 480.68 223.204 479.984C222.88 479.288 222.718 478.454 222.718 477.482C222.718 476.498 222.88 475.658 223.204 474.962C223.54 474.266 224.008 473.732 224.608 473.36C225.208 472.988 225.904 472.802 226.696 472.802C227.512 472.802 228.214 473.006 228.802 473.414C229.402 473.822 229.804 474.374 230.008 475.07H229.792V468.752H231.25V482H229.81V479.84H230.008C229.816 480.56 229.42 481.13 228.82 481.55C228.22 481.958 227.512 482.162 226.696 482.162ZM227.002 480.974C227.854 480.974 228.538 480.68 229.054 480.092C229.57 479.492 229.828 478.622 229.828 477.482C229.828 476.33 229.57 475.46 229.054 474.872C228.538 474.272 227.854 473.972 227.002 473.972C226.15 473.972 225.466 474.272 224.95 474.872C224.446 475.46 224.194 476.33 224.194 477.482C224.194 478.622 224.446 479.492 224.95 480.092C225.466 480.68 226.15 480.974 227.002 480.974ZM237.776 482.162C236.912 482.162 236.156 481.976 235.508 481.604C234.872 481.22 234.38 480.68 234.032 479.984C233.684 479.276 233.51 478.442 233.51 477.482C233.51 476.51 233.684 475.676 234.032 474.98C234.38 474.284 234.872 473.75 235.508 473.378C236.156 472.994 236.912 472.802 237.776 472.802C238.652 472.802 239.408 472.994 240.044 473.378C240.692 473.75 241.19 474.284 241.538 474.98C241.898 475.676 242.078 476.51 242.078 477.482C242.078 478.442 241.898 479.276 241.538 479.984C241.19 480.68 240.692 481.22 240.044 481.604C239.408 481.976 238.652 482.162 237.776 482.162ZM237.776 480.974C238.64 480.974 239.324 480.68 239.828 480.092C240.332 479.492 240.584 478.622 240.584 477.482C240.584 476.33 240.326 475.46 239.81 474.872C239.306 474.272 238.628 473.972 237.776 473.972C236.924 473.972 236.246 474.272 235.742 474.872C235.238 475.46 234.986 476.33 234.986 477.482C234.986 478.622 235.238 479.492 235.742 480.092C236.246 480.68 236.924 480.974 237.776 480.974ZM244.352 482V475.052C244.352 474.716 244.334 474.374 244.298 474.026C244.274 473.666 244.244 473.312 244.208 472.964H245.612L245.792 474.944H245.576C245.84 474.248 246.26 473.72 246.836 473.36C247.424 472.988 248.102 472.802 248.87 472.802C249.938 472.802 250.742 473.09 251.282 473.666C251.834 474.23 252.11 475.124 252.11 476.348V482H250.652V476.438C250.652 475.586 250.478 474.968 250.13 474.584C249.794 474.188 249.266 473.99 248.546 473.99C247.706 473.99 247.04 474.248 246.548 474.764C246.056 475.28 245.81 475.97 245.81 476.834V482H244.352ZM258.913 482.162C257.497 482.162 256.381 481.754 255.565 480.938C254.749 480.11 254.341 478.964 254.341 477.5C254.341 476.552 254.521 475.73 254.881 475.034C255.241 474.326 255.745 473.78 256.393 473.396C257.041 473 257.785 472.802 258.625 472.802C259.453 472.802 260.149 472.976 260.713 473.324C261.277 473.672 261.709 474.17 262.009 474.818C262.309 475.454 262.459 476.21 262.459 477.086V477.626H255.457V476.708H261.505L261.199 476.942C261.199 475.982 260.983 475.232 260.551 474.692C260.119 474.152 259.477 473.882 258.625 473.882C257.725 473.882 257.023 474.2 256.519 474.836C256.015 475.46 255.763 476.306 255.763 477.374V477.536C255.763 478.664 256.039 479.522 256.591 480.11C257.155 480.686 257.941 480.974 258.949 480.974C259.489 480.974 259.993 480.896 260.461 480.74C260.941 480.572 261.397 480.302 261.829 479.93L262.333 480.956C261.937 481.34 261.433 481.64 260.821 481.856C260.221 482.06 259.585 482.162 258.913 482.162ZM264.402 482V480.164H266.238V482H264.402ZM59.1379 506V500.078L59.4619 501.086L54.2059 493.31H55.9339L60.1099 499.628H59.7319L63.8899 493.31H65.5459L60.3079 501.086L60.6319 500.078V506H59.1379ZM69.0616 506.162C68.1976 506.162 67.4416 505.976 66.7936 505.604C66.1576 505.22 65.6656 504.68 65.3176 503.984C64.9696 503.276 64.7956 502.442 64.7956 501.482C64.7956 500.51 64.9696 499.676 65.3176 498.98C65.6656 498.284 66.1576 497.75 66.7936 497.378C67.4416 496.994 68.1976 496.802 69.0616 496.802C69.9376 496.802 70.6936 496.994 71.3296 497.378C71.9776 497.75 72.4756 498.284 72.8236 498.98C73.1836 499.676 73.3636 500.51 73.3636 501.482C73.3636 502.442 73.1836 503.276 72.8236 503.984C72.4756 504.68 71.9776 505.22 71.3296 505.604C70.6936 505.976 69.9376 506.162 69.0616 506.162ZM69.0616 504.974C69.9256 504.974 70.6096 504.68 71.1136 504.092C71.6176 503.492 71.8696 502.622 71.8696 501.482C71.8696 500.33 71.6116 499.46 71.0956 498.872C70.5916 498.272 69.9136 497.972 69.0616 497.972C68.2096 497.972 67.5316 498.272 67.0276 498.872C66.5236 499.46 66.2716 500.33 66.2716 501.482C66.2716 502.622 66.5236 503.492 67.0276 504.092C67.5316 504.68 68.2096 504.974 69.0616 504.974ZM78.8228 506.162C77.7548 506.162 76.9448 505.868 76.3928 505.28C75.8528 504.692 75.5828 503.792 75.5828 502.58V496.964H77.0408V502.544C77.0408 503.372 77.2088 503.984 77.5448 504.38C77.8808 504.764 78.4028 504.956 79.1108 504.956C79.9028 504.956 80.5388 504.698 81.0188 504.182C81.4988 503.666 81.7388 502.976 81.7388 502.112V496.964H83.1968V506H81.7748V503.966H82.0088C81.7568 504.662 81.3488 505.202 80.7848 505.586C80.2328 505.97 79.5788 506.162 78.8228 506.162ZM94.5169 506.162C93.6289 506.162 92.8549 505.97 92.1949 505.586C91.5469 505.202 91.0429 504.656 90.6829 503.948C90.3349 503.24 90.1609 502.4 90.1609 501.428C90.1609 500.444 90.3409 499.61 90.7009 498.926C91.0609 498.23 91.5649 497.702 92.2129 497.342C92.8729 496.982 93.6409 496.802 94.5169 496.802C95.0929 496.802 95.6509 496.904 96.1909 497.108C96.7429 497.312 97.1989 497.6 97.5589 497.972L97.0369 499.016C96.6769 498.668 96.2809 498.41 95.8489 498.242C95.4289 498.074 95.0149 497.99 94.6069 497.99C93.6709 497.99 92.9449 498.284 92.4289 498.872C91.9129 499.46 91.6549 500.318 91.6549 501.446C91.6549 502.562 91.9129 503.426 92.4289 504.038C92.9449 504.65 93.6709 504.956 94.6069 504.956C95.0029 504.956 95.4109 504.878 95.8309 504.722C96.2629 504.566 96.6649 504.308 97.0369 503.948L97.5589 504.974C97.1869 505.358 96.7249 505.652 96.1729 505.856C95.6209 506.06 95.0689 506.162 94.5169 506.162ZM102.999 506.162C102.195 506.162 101.493 505.976 100.893 505.604C100.293 505.22 99.8247 504.68 99.4887 503.984C99.1647 503.288 99.0027 502.454 99.0027 501.482C99.0027 500.498 99.1647 499.658 99.4887 498.962C99.8247 498.266 100.293 497.732 100.893 497.36C101.493 496.988 102.195 496.802 102.999 496.802C103.815 496.802 104.517 497.012 105.105 497.432C105.705 497.84 106.101 498.398 106.293 499.106H106.077L106.275 496.964H107.679C107.643 497.312 107.607 497.666 107.571 498.026C107.547 498.374 107.535 498.716 107.535 499.052V506H106.077V503.876H106.275C106.083 504.584 105.687 505.142 105.087 505.55C104.487 505.958 103.791 506.162 102.999 506.162ZM103.287 504.974C104.151 504.974 104.835 504.68 105.339 504.092C105.843 503.492 106.095 502.622 106.095 501.482C106.095 500.33 105.843 499.46 105.339 498.872C104.835 498.272 104.151 497.972 103.287 497.972C102.435 497.972 101.751 498.272 101.235 498.872C100.731 499.46 100.479 500.33 100.479 501.482C100.479 502.622 100.731 503.492 101.235 504.092C101.751 504.68 102.435 504.974 103.287 504.974ZM110.354 506V499.052C110.354 498.716 110.336 498.374 110.3 498.026C110.276 497.666 110.246 497.312 110.21 496.964H111.614L111.794 498.944H111.578C111.842 498.248 112.262 497.72 112.838 497.36C113.426 496.988 114.104 496.802 114.872 496.802C115.94 496.802 116.744 497.09 117.284 497.666C117.836 498.23 118.112 499.124 118.112 500.348V506H116.654V500.438C116.654 499.586 116.48 498.968 116.132 498.584C115.796 498.188 115.268 497.99 114.548 497.99C113.708 497.99 113.042 498.248 112.55 498.764C112.058 499.28 111.812 499.97 111.812 500.834V506H110.354ZM125.594 509.888V499.052C125.594 498.716 125.576 498.374 125.54 498.026C125.516 497.666 125.486 497.312 125.45 496.964H126.854L127.052 499.106H126.836C127.028 498.398 127.418 497.84 128.006 497.432C128.594 497.012 129.296 496.802 130.112 496.802C130.928 496.802 131.63 496.988 132.218 497.36C132.818 497.732 133.286 498.266 133.622 498.962C133.958 499.658 134.126 500.498 134.126 501.482C134.126 502.454 133.958 503.288 133.622 503.984C133.298 504.68 132.836 505.22 132.236 505.604C131.636 505.976 130.928 506.162 130.112 506.162C129.308 506.162 128.612 505.958 128.024 505.55C127.436 505.142 127.046 504.584 126.854 503.876H127.052V509.888H125.594ZM129.824 504.974C130.688 504.974 131.372 504.68 131.876 504.092C132.392 503.492 132.65 502.622 132.65 501.482C132.65 500.33 132.392 499.46 131.876 498.872C131.372 498.272 130.688 497.972 129.824 497.972C128.972 497.972 128.288 498.272 127.772 498.872C127.268 499.46 127.016 500.33 127.016 501.482C127.016 502.622 127.268 503.492 127.772 504.092C128.288 504.68 128.972 504.974 129.824 504.974ZM139.573 506.162C138.505 506.162 137.695 505.868 137.143 505.28C136.603 504.692 136.333 503.792 136.333 502.58V496.964H137.791V502.544C137.791 503.372 137.959 503.984 138.295 504.38C138.631 504.764 139.153 504.956 139.861 504.956C140.653 504.956 141.289 504.698 141.769 504.182C142.249 503.666 142.489 502.976 142.489 502.112V496.964H143.947V506H142.525V503.966H142.759C142.507 504.662 142.099 505.202 141.535 505.586C140.983 505.97 140.329 506.162 139.573 506.162ZM149.98 506.162C149.092 506.162 148.414 505.91 147.946 505.406C147.478 504.89 147.244 504.116 147.244 503.084V498.098H145.48V496.964H147.244V494.498L148.702 494.084V496.964H151.294V498.098H148.702V502.922C148.702 503.642 148.822 504.158 149.062 504.47C149.314 504.77 149.686 504.92 150.178 504.92C150.406 504.92 150.61 504.902 150.79 504.866C150.97 504.818 151.132 504.764 151.276 504.704V505.928C151.108 506 150.904 506.054 150.664 506.09C150.436 506.138 150.208 506.162 149.98 506.162ZM157.402 510.086L157.06 508.88C157.624 508.748 158.092 508.592 158.464 508.412C158.848 508.244 159.166 508.016 159.418 507.728C159.67 507.44 159.886 507.08 160.066 506.648L160.534 505.586L160.498 506.198L156.556 496.964H158.14L161.398 504.902H160.93L164.152 496.964H165.682L161.506 506.756C161.266 507.332 161.002 507.812 160.714 508.196C160.426 508.592 160.114 508.91 159.778 509.15C159.454 509.402 159.094 509.6 158.698 509.744C158.302 509.888 157.87 510.002 157.402 510.086ZM170.909 506.162C170.045 506.162 169.289 505.976 168.641 505.604C168.005 505.22 167.513 504.68 167.165 503.984C166.817 503.276 166.643 502.442 166.643 501.482C166.643 500.51 166.817 499.676 167.165 498.98C167.513 498.284 168.005 497.75 168.641 497.378C169.289 496.994 170.045 496.802 170.909 496.802C171.785 496.802 172.541 496.994 173.177 497.378C173.825 497.75 174.323 498.284 174.671 498.98C175.031 499.676 175.211 500.51 175.211 501.482C175.211 502.442 175.031 503.276 174.671 503.984C174.323 504.68 173.825 505.22 173.177 505.604C172.541 505.976 171.785 506.162 170.909 506.162ZM170.909 504.974C171.773 504.974 172.457 504.68 172.961 504.092C173.465 503.492 173.717 502.622 173.717 501.482C173.717 500.33 173.459 499.46 172.943 498.872C172.439 498.272 171.761 497.972 170.909 497.972C170.057 497.972 169.379 498.272 168.875 498.872C168.371 499.46 168.119 500.33 168.119 501.482C168.119 502.622 168.371 503.492 168.875 504.092C169.379 504.68 170.057 504.974 170.909 504.974ZM180.671 506.162C179.603 506.162 178.793 505.868 178.241 505.28C177.701 504.692 177.431 503.792 177.431 502.58V496.964H178.889V502.544C178.889 503.372 179.057 503.984 179.393 504.38C179.729 504.764 180.251 504.956 180.959 504.956C181.751 504.956 182.387 504.698 182.867 504.182C183.347 503.666 183.587 502.976 183.587 502.112V496.964H185.045V506H183.623V503.966H183.857C183.605 504.662 183.197 505.202 182.633 505.586C182.081 505.97 181.427 506.162 180.671 506.162ZM187.837 506V499.142C187.837 498.782 187.825 498.416 187.801 498.044C187.789 497.672 187.765 497.312 187.729 496.964H189.133L189.313 499.16L189.061 499.178C189.181 498.638 189.391 498.194 189.691 497.846C189.991 497.498 190.345 497.24 190.753 497.072C191.161 496.892 191.587 496.802 192.031 496.802C192.211 496.802 192.367 496.808 192.499 496.82C192.643 496.832 192.775 496.862 192.895 496.91L192.877 498.206C192.697 498.146 192.529 498.11 192.373 498.098C192.229 498.074 192.061 498.062 191.869 498.062C191.341 498.062 190.879 498.188 190.483 498.44C190.099 498.692 189.805 499.016 189.601 499.412C189.409 499.808 189.313 500.228 189.313 500.672V506H187.837ZM199.106 509.888V499.052C199.106 498.716 199.088 498.374 199.052 498.026C199.028 497.666 198.998 497.312 198.962 496.964H200.366L200.564 499.106H200.348C200.54 498.398 200.93 497.84 201.518 497.432C202.106 497.012 202.808 496.802 203.624 496.802C204.44 496.802 205.142 496.988 205.73 497.36C206.33 497.732 206.798 498.266 207.134 498.962C207.47 499.658 207.638 500.498 207.638 501.482C207.638 502.454 207.47 503.288 207.134 503.984C206.81 504.68 206.348 505.22 205.748 505.604C205.148 505.976 204.44 506.162 203.624 506.162C202.82 506.162 202.124 505.958 201.536 505.55C200.948 505.142 200.558 504.584 200.366 503.876H200.564V509.888H199.106ZM203.336 504.974C204.2 504.974 204.884 504.68 205.388 504.092C205.904 503.492 206.162 502.622 206.162 501.482C206.162 500.33 205.904 499.46 205.388 498.872C204.884 498.272 204.2 497.972 203.336 497.972C202.484 497.972 201.8 498.272 201.284 498.872C200.78 499.46 200.528 500.33 200.528 501.482C200.528 502.622 200.78 503.492 201.284 504.092C201.8 504.68 202.484 504.974 203.336 504.974ZM209.899 506V492.752H211.357V498.962H211.123C211.375 498.254 211.795 497.72 212.383 497.36C212.983 496.988 213.673 496.802 214.453 496.802C215.533 496.802 216.337 497.096 216.865 497.684C217.393 498.26 217.657 499.136 217.657 500.312V506H216.199V500.402C216.199 499.562 216.031 498.95 215.695 498.566C215.371 498.182 214.843 497.99 214.111 497.99C213.271 497.99 212.599 498.248 212.095 498.764C211.603 499.28 211.357 499.958 211.357 500.798V506H209.899ZM224.153 506.162C223.289 506.162 222.533 505.976 221.885 505.604C221.249 505.22 220.757 504.68 220.409 503.984C220.061 503.276 219.887 502.442 219.887 501.482C219.887 500.51 220.061 499.676 220.409 498.98C220.757 498.284 221.249 497.75 221.885 497.378C222.533 496.994 223.289 496.802 224.153 496.802C225.029 496.802 225.785 496.994 226.421 497.378C227.069 497.75 227.567 498.284 227.915 498.98C228.275 499.676 228.455 500.51 228.455 501.482C228.455 502.442 228.275 503.276 227.915 503.984C227.567 504.68 227.069 505.22 226.421 505.604C225.785 505.976 225.029 506.162 224.153 506.162ZM224.153 504.974C225.017 504.974 225.701 504.68 226.205 504.092C226.709 503.492 226.961 502.622 226.961 501.482C226.961 500.33 226.703 499.46 226.187 498.872C225.683 498.272 225.005 497.972 224.153 497.972C223.301 497.972 222.623 498.272 222.119 498.872C221.615 499.46 221.363 500.33 221.363 501.482C221.363 502.622 221.615 503.492 222.119 504.092C222.623 504.68 223.301 504.974 224.153 504.974ZM230.729 506V499.052C230.729 498.716 230.711 498.374 230.675 498.026C230.651 497.666 230.621 497.312 230.585 496.964H231.989L232.169 498.944H231.953C232.217 498.248 232.637 497.72 233.213 497.36C233.801 496.988 234.479 496.802 235.247 496.802C236.315 496.802 237.119 497.09 237.659 497.666C238.211 498.23 238.487 499.124 238.487 500.348V506H237.029V500.438C237.029 499.586 236.855 498.968 236.507 498.584C236.171 498.188 235.643 497.99 234.923 497.99C234.083 497.99 233.417 498.248 232.925 498.764C232.433 499.28 232.187 499.97 232.187 500.834V506H230.729ZM245.29 506.162C243.874 506.162 242.758 505.754 241.942 504.938C241.126 504.11 240.718 502.964 240.718 501.5C240.718 500.552 240.898 499.73 241.258 499.034C241.618 498.326 242.122 497.78 242.77 497.396C243.418 497 244.162 496.802 245.002 496.802C245.83 496.802 246.526 496.976 247.09 497.324C247.654 497.672 248.086 498.17 248.386 498.818C248.686 499.454 248.836 500.21 248.836 501.086V501.626H241.834V500.708H247.882L247.576 500.942C247.576 499.982 247.36 499.232 246.928 498.692C246.496 498.152 245.854 497.882 245.002 497.882C244.102 497.882 243.4 498.2 242.896 498.836C242.392 499.46 242.14 500.306 242.14 501.374V501.536C242.14 502.664 242.416 503.522 242.968 504.11C243.532 504.686 244.318 504.974 245.326 504.974C245.866 504.974 246.37 504.896 246.838 504.74C247.318 504.572 247.774 504.302 248.206 503.93L248.71 504.956C248.314 505.34 247.81 505.64 247.198 505.856C246.598 506.06 245.962 506.162 245.29 506.162ZM259.18 506.162C258.388 506.162 257.692 505.976 257.092 505.604C256.492 505.22 256.024 504.68 255.688 503.984C255.364 503.288 255.202 502.454 255.202 501.482C255.202 500.498 255.364 499.658 255.688 498.962C256.024 498.266 256.492 497.732 257.092 497.36C257.692 496.988 258.388 496.802 259.18 496.802C259.996 496.802 260.698 497.006 261.286 497.414C261.886 497.822 262.288 498.374 262.492 499.07H262.276V492.752H263.734V506H262.294V503.84H262.492C262.3 504.56 261.904 505.13 261.304 505.55C260.704 505.958 259.996 506.162 259.18 506.162ZM259.486 504.974C260.338 504.974 261.022 504.68 261.538 504.092C262.054 503.492 262.312 502.622 262.312 501.482C262.312 500.33 262.054 499.46 261.538 498.872C261.022 498.272 260.338 497.972 259.486 497.972C258.634 497.972 257.95 498.272 257.434 498.872C256.93 499.46 256.678 500.33 256.678 501.482C256.678 502.622 256.93 503.492 257.434 504.092C257.95 504.68 258.634 504.974 259.486 504.974ZM270.261 506.162C269.397 506.162 268.641 505.976 267.993 505.604C267.357 505.22 266.865 504.68 266.517 503.984C266.169 503.276 265.995 502.442 265.995 501.482C265.995 500.51 266.169 499.676 266.517 498.98C266.865 498.284 267.357 497.75 267.993 497.378C268.641 496.994 269.397 496.802 270.261 496.802C271.137 496.802 271.893 496.994 272.529 497.378C273.177 497.75 273.675 498.284 274.023 498.98C274.383 499.676 274.563 500.51 274.563 501.482C274.563 502.442 274.383 503.276 274.023 503.984C273.675 504.68 273.177 505.22 272.529 505.604C271.893 505.976 271.137 506.162 270.261 506.162ZM270.261 504.974C271.125 504.974 271.809 504.68 272.313 504.092C272.817 503.492 273.069 502.622 273.069 501.482C273.069 500.33 272.811 499.46 272.295 498.872C271.791 498.272 271.113 497.972 270.261 497.972C269.409 497.972 268.731 498.272 268.227 498.872C267.723 499.46 267.471 500.33 267.471 501.482C267.471 502.622 267.723 503.492 268.227 504.092C268.731 504.68 269.409 504.974 270.261 504.974ZM279.125 506L275.777 496.964H277.325L280.115 504.92H279.647L282.527 496.964H283.787L286.613 504.92H286.163L288.971 496.964H290.447L287.081 506H285.677L282.761 497.918H283.481L280.547 506H279.125ZM292.358 506V499.052C292.358 498.716 292.34 498.374 292.304 498.026C292.28 497.666 292.25 497.312 292.214 496.964H293.618L293.798 498.944H293.582C293.846 498.248 294.266 497.72 294.842 497.36C295.43 496.988 296.108 496.802 296.876 496.802C297.944 496.802 298.748 497.09 299.288 497.666C299.84 498.23 300.116 499.124 300.116 500.348V506H298.658V500.438C298.658 499.586 298.484 498.968 298.136 498.584C297.8 498.188 297.272 497.99 296.552 497.99C295.712 497.99 295.046 498.248 294.554 498.764C294.062 499.28 293.816 499.97 293.816 500.834V506H292.358ZM302.616 506V504.164H304.452V506H302.616ZM36.7139 554V541.31H41.8799C43.2119 541.31 44.2379 541.634 44.9579 542.282C45.6779 542.918 46.0379 543.806 46.0379 544.946C46.0379 546.062 45.6779 546.95 44.9579 547.61C44.2379 548.258 43.2119 548.582 41.8799 548.582H38.2079V554H36.7139ZM38.2079 547.34H41.7359C42.6599 547.34 43.3559 547.13 43.8239 546.71C44.3039 546.29 44.5439 545.702 44.5439 544.946C44.5439 544.178 44.3039 543.584 43.8239 543.164C43.3559 542.744 42.6599 542.534 41.7359 542.534H38.2079V547.34ZM48.2765 554V540.752H49.7345V554H48.2765ZM56.5796 554.162C55.1636 554.162 54.0476 553.754 53.2316 552.938C52.4156 552.11 52.0076 550.964 52.0076 549.5C52.0076 548.552 52.1876 547.73 52.5476 547.034C52.9076 546.326 53.4116 545.78 54.0596 545.396C54.7076 545 55.4516 544.802 56.2916 544.802C57.1196 544.802 57.8156 544.976 58.3796 545.324C58.9436 545.672 59.3756 546.17 59.6756 546.818C59.9756 547.454 60.1256 548.21 60.1256 549.086V549.626H53.1236V548.708H59.1716L58.8656 548.942C58.8656 547.982 58.6496 547.232 58.2176 546.692C57.7856 546.152 57.1436 545.882 56.2916 545.882C55.3916 545.882 54.6896 546.2 54.1856 546.836C53.6816 547.46 53.4296 548.306 53.4296 549.374V549.536C53.4296 550.664 53.7056 551.522 54.2576 552.11C54.8216 552.686 55.6076 552.974 56.6156 552.974C57.1556 552.974 57.6596 552.896 58.1276 552.74C58.6076 552.572 59.0636 552.302 59.4956 551.93L59.9996 552.956C59.6036 553.34 59.0996 553.64 58.4876 553.856C57.8876 554.06 57.2516 554.162 56.5796 554.162ZM65.7946 554.162C64.9906 554.162 64.2886 553.976 63.6886 553.604C63.0886 553.22 62.6206 552.68 62.2846 551.984C61.9606 551.288 61.7986 550.454 61.7986 549.482C61.7986 548.498 61.9606 547.658 62.2846 546.962C62.6206 546.266 63.0886 545.732 63.6886 545.36C64.2886 544.988 64.9906 544.802 65.7946 544.802C66.6106 544.802 67.3126 545.012 67.9006 545.432C68.5006 545.84 68.8966 546.398 69.0886 547.106H68.8726L69.0706 544.964H70.4746C70.4386 545.312 70.4026 545.666 70.3666 546.026C70.3426 546.374 70.3306 546.716 70.3306 547.052V554H68.8726V551.876H69.0706C68.8786 552.584 68.4826 553.142 67.8826 553.55C67.2826 553.958 66.5866 554.162 65.7946 554.162ZM66.0826 552.974C66.9466 552.974 67.6306 552.68 68.1346 552.092C68.6386 551.492 68.8906 550.622 68.8906 549.482C68.8906 548.33 68.6386 547.46 68.1346 546.872C67.6306 546.272 66.9466 545.972 66.0826 545.972C65.2306 545.972 64.5466 546.272 64.0306 546.872C63.5266 547.46 63.2746 548.33 63.2746 549.482C63.2746 550.622 63.5266 551.492 64.0306 552.092C64.5466 552.68 65.2306 552.974 66.0826 552.974ZM76.1555 554.162C75.4355 554.162 74.7635 554.066 74.1395 553.874C73.5155 553.67 72.9995 553.388 72.5915 553.028L73.0955 552.002C73.5395 552.35 74.0195 552.608 74.5355 552.776C75.0635 552.944 75.6095 553.028 76.1735 553.028C76.8935 553.028 77.4335 552.902 77.7935 552.65C78.1655 552.386 78.3515 552.026 78.3515 551.57C78.3515 551.222 78.2315 550.946 77.9915 550.742C77.7635 550.526 77.3855 550.358 76.8575 550.238L75.1835 549.896C74.4155 549.728 73.8395 549.446 73.4555 549.05C73.0715 548.642 72.8795 548.126 72.8795 547.502C72.8795 546.974 73.0175 546.512 73.2935 546.116C73.5695 545.708 73.9715 545.39 74.4995 545.162C75.0275 544.922 75.6455 544.802 76.3535 544.802C77.0135 544.802 77.6195 544.904 78.1715 545.108C78.7355 545.3 79.2035 545.582 79.5755 545.954L79.0535 546.962C78.6935 546.614 78.2795 546.356 77.8115 546.188C77.3555 546.008 76.8815 545.918 76.3895 545.918C75.6815 545.918 75.1475 546.062 74.7875 546.35C74.4395 546.626 74.2655 546.992 74.2655 547.448C74.2655 547.796 74.3735 548.084 74.5895 548.312C74.8175 548.528 75.1655 548.69 75.6335 548.798L77.3075 549.14C78.1235 549.32 78.7295 549.602 79.1255 549.986C79.5335 550.358 79.7375 550.862 79.7375 551.498C79.7375 552.038 79.5875 552.512 79.2875 552.92C78.9875 553.316 78.5675 553.622 78.0275 553.838C77.4995 554.054 76.8755 554.162 76.1555 554.162ZM86.0932 554.162C84.6772 554.162 83.5612 553.754 82.7452 552.938C81.9292 552.11 81.5212 550.964 81.5212 549.5C81.5212 548.552 81.7012 547.73 82.0612 547.034C82.4212 546.326 82.9252 545.78 83.5732 545.396C84.2212 545 84.9652 544.802 85.8052 544.802C86.6332 544.802 87.3292 544.976 87.8932 545.324C88.4572 545.672 88.8892 546.17 89.1892 546.818C89.4892 547.454 89.6392 548.21 89.6392 549.086V549.626H82.6372V548.708H88.6852L88.3792 548.942C88.3792 547.982 88.1632 547.232 87.7312 546.692C87.2992 546.152 86.6572 545.882 85.8052 545.882C84.9052 545.882 84.2032 546.2 83.6992 546.836C83.1952 547.46 82.9432 548.306 82.9432 549.374V549.536C82.9432 550.664 83.2192 551.522 83.7712 552.11C84.3352 552.686 85.1212 552.974 86.1292 552.974C86.6692 552.974 87.1732 552.896 87.6412 552.74C88.1212 552.572 88.5772 552.302 89.0092 551.93L89.5132 552.956C89.1172 553.34 88.6132 553.64 88.0012 553.856C87.4012 554.06 86.7652 554.162 86.0932 554.162ZM99.7496 554.162C98.6816 554.162 97.8716 553.868 97.3196 553.28C96.7796 552.692 96.5096 551.792 96.5096 550.58V544.964H97.9676V550.544C97.9676 551.372 98.1356 551.984 98.4716 552.38C98.8076 552.764 99.3296 552.956 100.038 552.956C100.83 552.956 101.466 552.698 101.946 552.182C102.426 551.666 102.666 550.976 102.666 550.112V544.964H104.124V554H102.702V551.966H102.936C102.684 552.662 102.276 553.202 101.712 553.586C101.16 553.97 100.506 554.162 99.7496 554.162ZM106.952 557.888V547.052C106.952 546.716 106.934 546.374 106.898 546.026C106.874 545.666 106.844 545.312 106.808 544.964H108.212L108.41 547.106H108.194C108.386 546.398 108.776 545.84 109.364 545.432C109.952 545.012 110.654 544.802 111.47 544.802C112.286 544.802 112.988 544.988 113.576 545.36C114.176 545.732 114.644 546.266 114.98 546.962C115.316 547.658 115.484 548.498 115.484 549.482C115.484 550.454 115.316 551.288 114.98 551.984C114.656 552.68 114.194 553.22 113.594 553.604C112.994 553.976 112.286 554.162 111.47 554.162C110.666 554.162 109.97 553.958 109.382 553.55C108.794 553.142 108.404 552.584 108.212 551.876H108.41V557.888H106.952ZM111.182 552.974C112.046 552.974 112.73 552.68 113.234 552.092C113.75 551.492 114.008 550.622 114.008 549.482C114.008 548.33 113.75 547.46 113.234 546.872C112.73 546.272 112.046 545.972 111.182 545.972C110.33 545.972 109.646 546.272 109.13 546.872C108.626 547.46 108.374 548.33 108.374 549.482C108.374 550.622 108.626 551.492 109.13 552.092C109.646 552.68 110.33 552.974 111.182 552.974ZM117.745 554V540.752H119.203V554H117.745ZM125.742 554.162C124.878 554.162 124.122 553.976 123.474 553.604C122.838 553.22 122.346 552.68 121.998 551.984C121.65 551.276 121.476 550.442 121.476 549.482C121.476 548.51 121.65 547.676 121.998 546.98C122.346 546.284 122.838 545.75 123.474 545.378C124.122 544.994 124.878 544.802 125.742 544.802C126.618 544.802 127.374 544.994 128.01 545.378C128.658 545.75 129.156 546.284 129.504 546.98C129.864 547.676 130.044 548.51 130.044 549.482C130.044 550.442 129.864 551.276 129.504 551.984C129.156 552.68 128.658 553.22 128.01 553.604C127.374 553.976 126.618 554.162 125.742 554.162ZM125.742 552.974C126.606 552.974 127.29 552.68 127.794 552.092C128.298 551.492 128.55 550.622 128.55 549.482C128.55 548.33 128.292 547.46 127.776 546.872C127.272 546.272 126.594 545.972 125.742 545.972C124.89 545.972 124.212 546.272 123.708 546.872C123.204 547.46 122.952 548.33 122.952 549.482C122.952 550.622 123.204 551.492 123.708 552.092C124.212 552.68 124.89 552.974 125.742 552.974ZM135.756 554.162C134.952 554.162 134.25 553.976 133.65 553.604C133.05 553.22 132.582 552.68 132.246 551.984C131.922 551.288 131.76 550.454 131.76 549.482C131.76 548.498 131.922 547.658 132.246 546.962C132.582 546.266 133.05 545.732 133.65 545.36C134.25 544.988 134.952 544.802 135.756 544.802C136.572 544.802 137.274 545.012 137.862 545.432C138.462 545.84 138.858 546.398 139.05 547.106H138.834L139.032 544.964H140.436C140.4 545.312 140.364 545.666 140.328 546.026C140.304 546.374 140.292 546.716 140.292 547.052V554H138.834V551.876H139.032C138.84 552.584 138.444 553.142 137.844 553.55C137.244 553.958 136.548 554.162 135.756 554.162ZM136.044 552.974C136.908 552.974 137.592 552.68 138.096 552.092C138.6 551.492 138.852 550.622 138.852 549.482C138.852 548.33 138.6 547.46 138.096 546.872C137.592 546.272 136.908 545.972 136.044 545.972C135.192 545.972 134.508 546.272 133.992 546.872C133.488 547.46 133.236 548.33 133.236 549.482C133.236 550.622 133.488 551.492 133.992 552.092C134.508 552.68 135.192 552.974 136.044 552.974ZM146.53 554.162C145.738 554.162 145.042 553.976 144.442 553.604C143.842 553.22 143.374 552.68 143.038 551.984C142.714 551.288 142.552 550.454 142.552 549.482C142.552 548.498 142.714 547.658 143.038 546.962C143.374 546.266 143.842 545.732 144.442 545.36C145.042 544.988 145.738 544.802 146.53 544.802C147.346 544.802 148.048 545.006 148.636 545.414C149.236 545.822 149.638 546.374 149.842 547.07H149.626V540.752H151.084V554H149.644V551.84H149.842C149.65 552.56 149.254 553.13 148.654 553.55C148.054 553.958 147.346 554.162 146.53 554.162ZM146.836 552.974C147.688 552.974 148.372 552.68 148.888 552.092C149.404 551.492 149.662 550.622 149.662 549.482C149.662 548.33 149.404 547.46 148.888 546.872C148.372 546.272 147.688 545.972 146.836 545.972C145.984 545.972 145.3 546.272 144.784 546.872C144.28 547.46 144.028 548.33 144.028 549.482C144.028 550.622 144.28 551.492 144.784 552.092C145.3 552.68 145.984 552.974 146.836 552.974ZM158.237 558.086L157.895 556.88C158.459 556.748 158.927 556.592 159.299 556.412C159.683 556.244 160.001 556.016 160.253 555.728C160.505 555.44 160.721 555.08 160.901 554.648L161.369 553.586L161.333 554.198L157.391 544.964H158.975L162.233 552.902H161.765L164.987 544.964H166.517L162.341 554.756C162.101 555.332 161.837 555.812 161.549 556.196C161.261 556.592 160.949 556.91 160.613 557.15C160.289 557.402 159.929 557.6 159.533 557.744C159.137 557.888 158.705 558.002 158.237 558.086ZM171.744 554.162C170.88 554.162 170.124 553.976 169.476 553.604C168.84 553.22 168.348 552.68 168 551.984C167.652 551.276 167.478 550.442 167.478 549.482C167.478 548.51 167.652 547.676 168 546.98C168.348 546.284 168.84 545.75 169.476 545.378C170.124 544.994 170.88 544.802 171.744 544.802C172.62 544.802 173.376 544.994 174.012 545.378C174.66 545.75 175.158 546.284 175.506 546.98C175.866 547.676 176.046 548.51 176.046 549.482C176.046 550.442 175.866 551.276 175.506 551.984C175.158 552.68 174.66 553.22 174.012 553.604C173.376 553.976 172.62 554.162 171.744 554.162ZM171.744 552.974C172.608 552.974 173.292 552.68 173.796 552.092C174.3 551.492 174.552 550.622 174.552 549.482C174.552 548.33 174.294 547.46 173.778 546.872C173.274 546.272 172.596 545.972 171.744 545.972C170.892 545.972 170.214 546.272 169.71 546.872C169.206 547.46 168.954 548.33 168.954 549.482C168.954 550.622 169.206 551.492 169.71 552.092C170.214 552.68 170.892 552.974 171.744 552.974ZM181.505 554.162C180.437 554.162 179.627 553.868 179.075 553.28C178.535 552.692 178.265 551.792 178.265 550.58V544.964H179.723V550.544C179.723 551.372 179.891 551.984 180.227 552.38C180.563 552.764 181.085 552.956 181.793 552.956C182.585 552.956 183.221 552.698 183.701 552.182C184.181 551.666 184.421 550.976 184.421 550.112V544.964H185.879V554H184.457V551.966H184.691C184.439 552.662 184.031 553.202 183.467 553.586C182.915 553.97 182.261 554.162 181.505 554.162ZM188.672 554V547.142C188.672 546.782 188.66 546.416 188.636 546.044C188.624 545.672 188.6 545.312 188.564 544.964H189.968L190.148 547.16L189.896 547.178C190.016 546.638 190.226 546.194 190.526 545.846C190.826 545.498 191.18 545.24 191.588 545.072C191.996 544.892 192.422 544.802 192.866 544.802C193.046 544.802 193.202 544.808 193.334 544.82C193.478 544.832 193.61 544.862 193.73 544.91L193.712 546.206C193.532 546.146 193.364 546.11 193.208 546.098C193.064 546.074 192.896 546.062 192.704 546.062C192.176 546.062 191.714 546.188 191.318 546.44C190.934 546.692 190.64 547.016 190.436 547.412C190.244 547.808 190.148 548.228 190.148 548.672V554H188.672ZM199.905 554V547.142C199.905 546.782 199.893 546.416 199.869 546.044C199.857 545.672 199.833 545.312 199.797 544.964H201.201L201.381 547.16L201.129 547.178C201.249 546.638 201.459 546.194 201.759 545.846C202.059 545.498 202.413 545.24 202.821 545.072C203.229 544.892 203.655 544.802 204.099 544.802C204.279 544.802 204.435 544.808 204.567 544.82C204.711 544.832 204.843 544.862 204.963 544.91L204.945 546.206C204.765 546.146 204.597 546.11 204.441 546.098C204.297 546.074 204.129 546.062 203.937 546.062C203.409 546.062 202.947 546.188 202.551 546.44C202.167 546.692 201.873 547.016 201.669 547.412C201.477 547.808 201.381 548.228 201.381 548.672V554H199.905ZM210.388 554.162C208.972 554.162 207.856 553.754 207.04 552.938C206.224 552.11 205.816 550.964 205.816 549.5C205.816 548.552 205.996 547.73 206.356 547.034C206.716 546.326 207.22 545.78 207.868 545.396C208.516 545 209.26 544.802 210.1 544.802C210.928 544.802 211.624 544.976 212.188 545.324C212.752 545.672 213.184 546.17 213.484 546.818C213.784 547.454 213.934 548.21 213.934 549.086V549.626H206.932V548.708H212.98L212.674 548.942C212.674 547.982 212.458 547.232 212.026 546.692C211.594 546.152 210.952 545.882 210.1 545.882C209.2 545.882 208.498 546.2 207.994 546.836C207.49 547.46 207.238 548.306 207.238 549.374V549.536C207.238 550.664 207.514 551.522 208.066 552.11C208.63 552.686 209.416 552.974 210.424 552.974C210.964 552.974 211.468 552.896 211.936 552.74C212.416 552.572 212.872 552.302 213.304 551.93L213.808 552.956C213.412 553.34 212.908 553.64 212.296 553.856C211.696 554.06 211.06 554.162 210.388 554.162ZM219.171 554.162C218.451 554.162 217.779 554.066 217.155 553.874C216.531 553.67 216.015 553.388 215.607 553.028L216.111 552.002C216.555 552.35 217.035 552.608 217.551 552.776C218.079 552.944 218.625 553.028 219.189 553.028C219.909 553.028 220.449 552.902 220.809 552.65C221.181 552.386 221.367 552.026 221.367 551.57C221.367 551.222 221.247 550.946 221.007 550.742C220.779 550.526 220.401 550.358 219.873 550.238L218.199 549.896C217.431 549.728 216.855 549.446 216.471 549.05C216.087 548.642 215.895 548.126 215.895 547.502C215.895 546.974 216.033 546.512 216.309 546.116C216.585 545.708 216.987 545.39 217.515 545.162C218.043 544.922 218.661 544.802 219.369 544.802C220.029 544.802 220.635 544.904 221.187 545.108C221.751 545.3 222.219 545.582 222.591 545.954L222.069 546.962C221.709 546.614 221.295 546.356 220.827 546.188C220.371 546.008 219.897 545.918 219.405 545.918C218.697 545.918 218.163 546.062 217.803 546.35C217.455 546.626 217.281 546.992 217.281 547.448C217.281 547.796 217.389 548.084 217.605 548.312C217.833 548.528 218.181 548.69 218.649 548.798L220.323 549.14C221.139 549.32 221.745 549.602 222.141 549.986C222.549 550.358 222.753 550.862 222.753 551.498C222.753 552.038 222.603 552.512 222.303 552.92C222.003 553.316 221.583 553.622 221.043 553.838C220.515 554.054 219.891 554.162 219.171 554.162ZM228.281 554.162C227.213 554.162 226.403 553.868 225.851 553.28C225.311 552.692 225.041 551.792 225.041 550.58V544.964H226.499V550.544C226.499 551.372 226.667 551.984 227.003 552.38C227.339 552.764 227.861 552.956 228.569 552.956C229.361 552.956 229.997 552.698 230.477 552.182C230.957 551.666 231.197 550.976 231.197 550.112V544.964H232.655V554H231.233V551.966H231.467C231.215 552.662 230.807 553.202 230.243 553.586C229.691 553.97 229.037 554.162 228.281 554.162ZM235.484 554V540.752H236.942V554H235.484ZM242.977 554.162C242.089 554.162 241.411 553.91 240.943 553.406C240.475 552.89 240.241 552.116 240.241 551.084V546.098H238.477V544.964H240.241V542.498L241.699 542.084V544.964H244.291V546.098H241.699V550.922C241.699 551.642 241.819 552.158 242.059 552.47C242.311 552.77 242.683 552.92 243.175 552.92C243.403 552.92 243.607 552.902 243.787 552.866C243.967 552.818 244.129 552.764 244.273 552.704V553.928C244.105 554 243.901 554.054 243.661 554.09C243.433 554.138 243.205 554.162 242.977 554.162ZM249.072 554.162C248.352 554.162 247.68 554.066 247.056 553.874C246.432 553.67 245.916 553.388 245.508 553.028L246.012 552.002C246.456 552.35 246.936 552.608 247.452 552.776C247.98 552.944 248.526 553.028 249.09 553.028C249.81 553.028 250.35 552.902 250.71 552.65C251.082 552.386 251.268 552.026 251.268 551.57C251.268 551.222 251.148 550.946 250.908 550.742C250.68 550.526 250.302 550.358 249.774 550.238L248.1 549.896C247.332 549.728 246.756 549.446 246.372 549.05C245.988 548.642 245.796 548.126 245.796 547.502C245.796 546.974 245.934 546.512 246.21 546.116C246.486 545.708 246.888 545.39 247.416 545.162C247.944 544.922 248.562 544.802 249.27 544.802C249.93 544.802 250.536 544.904 251.088 545.108C251.652 545.3 252.12 545.582 252.492 545.954L251.97 546.962C251.61 546.614 251.196 546.356 250.728 546.188C250.272 546.008 249.798 545.918 249.306 545.918C248.598 545.918 248.064 546.062 247.704 546.35C247.356 546.626 247.182 546.992 247.182 547.448C247.182 547.796 247.29 548.084 247.506 548.312C247.734 548.528 248.082 548.69 248.55 548.798L250.224 549.14C251.04 549.32 251.646 549.602 252.042 549.986C252.45 550.358 252.654 550.862 252.654 551.498C252.654 552.038 252.504 552.512 252.204 552.92C251.904 553.316 251.484 553.622 250.944 553.838C250.416 554.054 249.792 554.162 249.072 554.162ZM262.893 554.162C262.005 554.162 261.327 553.91 260.859 553.406C260.391 552.89 260.157 552.116 260.157 551.084V546.098H258.393V544.964H260.157V542.498L261.615 542.084V544.964H264.207V546.098H261.615V550.922C261.615 551.642 261.735 552.158 261.975 552.47C262.227 552.77 262.599 552.92 263.091 552.92C263.319 552.92 263.523 552.902 263.703 552.866C263.883 552.818 264.045 552.764 264.189 552.704V553.928C264.021 554 263.817 554.054 263.577 554.09C263.349 554.138 263.121 554.162 262.893 554.162ZM269.602 554.162C268.738 554.162 267.982 553.976 267.334 553.604C266.698 553.22 266.206 552.68 265.858 551.984C265.51 551.276 265.336 550.442 265.336 549.482C265.336 548.51 265.51 547.676 265.858 546.98C266.206 546.284 266.698 545.75 267.334 545.378C267.982 544.994 268.738 544.802 269.602 544.802C270.478 544.802 271.234 544.994 271.87 545.378C272.518 545.75 273.016 546.284 273.364 546.98C273.724 547.676 273.904 548.51 273.904 549.482C273.904 550.442 273.724 551.276 273.364 551.984C273.016 552.68 272.518 553.22 271.87 553.604C271.234 553.976 270.478 554.162 269.602 554.162ZM269.602 552.974C270.466 552.974 271.15 552.68 271.654 552.092C272.158 551.492 272.41 550.622 272.41 549.482C272.41 548.33 272.152 547.46 271.636 546.872C271.132 546.272 270.454 545.972 269.602 545.972C268.75 545.972 268.072 546.272 267.568 546.872C267.064 547.46 266.812 548.33 266.812 549.482C266.812 550.622 267.064 551.492 267.568 552.092C268.072 552.68 268.75 552.974 269.602 552.974ZM280.87 554V547.052C280.87 546.716 280.852 546.374 280.816 546.026C280.792 545.666 280.762 545.312 280.726 544.964H282.13L282.31 546.944H282.094C282.334 546.26 282.712 545.732 283.228 545.36C283.756 544.988 284.392 544.802 285.136 544.802C285.892 544.802 286.504 544.982 286.972 545.342C287.452 545.702 287.776 546.26 287.944 547.016H287.674C287.902 546.332 288.304 545.792 288.88 545.396C289.456 545 290.128 544.802 290.896 544.802C291.892 544.802 292.642 545.09 293.146 545.666C293.65 546.23 293.902 547.124 293.902 548.348V554H292.444V548.438C292.444 547.586 292.294 546.968 291.994 546.584C291.694 546.188 291.214 545.99 290.554 545.99C289.798 545.99 289.198 546.254 288.754 546.782C288.322 547.298 288.106 547.994 288.106 548.87V554H286.648V548.438C286.648 547.586 286.498 546.968 286.198 546.584C285.898 546.188 285.418 545.99 284.758 545.99C284.002 545.99 283.408 546.254 282.976 546.782C282.544 547.298 282.328 547.994 282.328 548.87V554H280.87ZM300.111 554.162C299.307 554.162 298.605 553.976 298.005 553.604C297.405 553.22 296.937 552.68 296.601 551.984C296.277 551.288 296.115 550.454 296.115 549.482C296.115 548.498 296.277 547.658 296.601 546.962C296.937 546.266 297.405 545.732 298.005 545.36C298.605 544.988 299.307 544.802 300.111 544.802C300.927 544.802 301.629 545.012 302.217 545.432C302.817 545.84 303.213 546.398 303.405 547.106H303.189L303.387 544.964H304.791C304.755 545.312 304.719 545.666 304.683 546.026C304.659 546.374 304.647 546.716 304.647 547.052V554H303.189V551.876H303.387C303.195 552.584 302.799 553.142 302.199 553.55C301.599 553.958 300.903 554.162 300.111 554.162ZM300.399 552.974C301.263 552.974 301.947 552.68 302.451 552.092C302.955 551.492 303.207 550.622 303.207 549.482C303.207 548.33 302.955 547.46 302.451 546.872C301.947 546.272 301.263 545.972 300.399 545.972C299.547 545.972 298.863 546.272 298.347 546.872C297.843 547.46 297.591 548.33 297.591 549.482C297.591 550.622 297.843 551.492 298.347 552.092C298.863 552.68 299.547 552.974 300.399 552.974ZM307.466 554V540.752H308.924V548.978H308.96L313.154 544.964H314.99L310.04 549.68L310.076 548.942L315.458 554H313.568L308.96 549.752H308.924V554H307.466ZM320.515 554.162C319.099 554.162 317.983 553.754 317.167 552.938C316.351 552.11 315.943 550.964 315.943 549.5C315.943 548.552 316.123 547.73 316.483 547.034C316.843 546.326 317.347 545.78 317.995 545.396C318.643 545 319.387 544.802 320.227 544.802C321.055 544.802 321.751 544.976 322.315 545.324C322.879 545.672 323.311 546.17 323.611 546.818C323.911 547.454 324.061 548.21 324.061 549.086V549.626H317.059V548.708H323.107L322.801 548.942C322.801 547.982 322.585 547.232 322.153 546.692C321.721 546.152 321.079 545.882 320.227 545.882C319.327 545.882 318.625 546.2 318.121 546.836C317.617 547.46 317.365 548.306 317.365 549.374V549.536C317.365 550.664 317.641 551.522 318.193 552.11C318.757 552.686 319.543 552.974 320.551 552.974C321.091 552.974 321.595 552.896 322.063 552.74C322.543 552.572 322.999 552.302 323.431 551.93L323.935 552.956C323.539 553.34 323.035 553.64 322.423 553.856C321.823 554.06 321.187 554.162 320.515 554.162ZM94.4063 578.162C93.5183 578.162 92.8403 577.91 92.3723 577.406C91.9043 576.89 91.6703 576.116 91.6703 575.084V570.098H89.9063V568.964H91.6703V566.498L93.1283 566.084V568.964H95.7203V570.098H93.1283V574.922C93.1283 575.642 93.2483 576.158 93.4883 576.47C93.7403 576.77 94.1123 576.92 94.6043 576.92C94.8323 576.92 95.0363 576.902 95.2163 576.866C95.3963 576.818 95.5583 576.764 95.7023 576.704V577.928C95.5343 578 95.3303 578.054 95.0903 578.09C94.8623 578.138 94.6343 578.162 94.4063 578.162ZM97.4952 578V564.752H98.9532V570.962H98.7192C98.9712 570.254 99.3912 569.72 99.9792 569.36C100.579 568.988 101.269 568.802 102.049 568.802C103.129 568.802 103.933 569.096 104.461 569.684C104.989 570.26 105.253 571.136 105.253 572.312V578H103.795V572.402C103.795 571.562 103.627 570.95 103.291 570.566C102.967 570.182 102.439 569.99 101.707 569.99C100.867 569.99 100.195 570.248 99.6912 570.764C99.1992 571.28 98.9532 571.958 98.9532 572.798V578H97.4952ZM112.056 578.162C110.64 578.162 109.524 577.754 108.708 576.938C107.892 576.11 107.484 574.964 107.484 573.5C107.484 572.552 107.664 571.73 108.024 571.034C108.384 570.326 108.888 569.78 109.536 569.396C110.184 569 110.928 568.802 111.768 568.802C112.596 568.802 113.292 568.976 113.856 569.324C114.42 569.672 114.852 570.17 115.152 570.818C115.452 571.454 115.602 572.21 115.602 573.086V573.626H108.6V572.708H114.648L114.342 572.942C114.342 571.982 114.126 571.232 113.694 570.692C113.262 570.152 112.62 569.882 111.768 569.882C110.868 569.882 110.166 570.2 109.662 570.836C109.158 571.46 108.906 572.306 108.906 573.374V573.536C108.906 574.664 109.182 575.522 109.734 576.11C110.298 576.686 111.084 576.974 112.092 576.974C112.632 576.974 113.136 576.896 113.604 576.74C114.084 576.572 114.54 576.302 114.972 575.93L115.476 576.956C115.08 577.34 114.576 577.64 113.964 577.856C113.364 578.06 112.728 578.162 112.056 578.162ZM122.49 578V571.142C122.49 570.782 122.478 570.416 122.454 570.044C122.442 569.672 122.418 569.312 122.382 568.964H123.786L123.966 571.16L123.714 571.178C123.834 570.638 124.044 570.194 124.344 569.846C124.644 569.498 124.998 569.24 125.406 569.072C125.814 568.892 126.24 568.802 126.684 568.802C126.864 568.802 127.02 568.808 127.152 568.82C127.296 568.832 127.428 568.862 127.548 568.91L127.53 570.206C127.35 570.146 127.182 570.11 127.026 570.098C126.882 570.074 126.714 570.062 126.522 570.062C125.994 570.062 125.532 570.188 125.136 570.44C124.752 570.692 124.458 571.016 124.254 571.412C124.062 571.808 123.966 572.228 123.966 572.672V578H122.49ZM132.974 578.162C131.558 578.162 130.442 577.754 129.626 576.938C128.81 576.11 128.402 574.964 128.402 573.5C128.402 572.552 128.582 571.73 128.942 571.034C129.302 570.326 129.806 569.78 130.454 569.396C131.102 569 131.846 568.802 132.686 568.802C133.514 568.802 134.21 568.976 134.774 569.324C135.338 569.672 135.77 570.17 136.07 570.818C136.37 571.454 136.52 572.21 136.52 573.086V573.626H129.518V572.708H135.566L135.26 572.942C135.26 571.982 135.044 571.232 134.612 570.692C134.18 570.152 133.538 569.882 132.686 569.882C131.786 569.882 131.084 570.2 130.58 570.836C130.076 571.46 129.824 572.306 129.824 573.374V573.536C129.824 574.664 130.1 575.522 130.652 576.11C131.216 576.686 132.002 576.974 133.01 576.974C133.55 576.974 134.054 576.896 134.522 576.74C135.002 576.572 135.458 576.302 135.89 575.93L136.394 576.956C135.998 577.34 135.494 577.64 134.882 577.856C134.282 578.06 133.646 578.162 132.974 578.162ZM141.757 578.162C141.037 578.162 140.365 578.066 139.741 577.874C139.117 577.67 138.601 577.388 138.193 577.028L138.697 576.002C139.141 576.35 139.621 576.608 140.137 576.776C140.665 576.944 141.211 577.028 141.775 577.028C142.495 577.028 143.035 576.902 143.395 576.65C143.767 576.386 143.953 576.026 143.953 575.57C143.953 575.222 143.833 574.946 143.593 574.742C143.365 574.526 142.987 574.358 142.459 574.238L140.785 573.896C140.017 573.728 139.441 573.446 139.057 573.05C138.673 572.642 138.481 572.126 138.481 571.502C138.481 570.974 138.619 570.512 138.895 570.116C139.171 569.708 139.573 569.39 140.101 569.162C140.629 568.922 141.247 568.802 141.955 568.802C142.615 568.802 143.221 568.904 143.773 569.108C144.337 569.3 144.805 569.582 145.177 569.954L144.655 570.962C144.295 570.614 143.881 570.356 143.413 570.188C142.957 570.008 142.483 569.918 141.991 569.918C141.283 569.918 140.749 570.062 140.389 570.35C140.041 570.626 139.867 570.992 139.867 571.448C139.867 571.796 139.975 572.084 140.191 572.312C140.419 572.528 140.767 572.69 141.235 572.798L142.909 573.14C143.725 573.32 144.331 573.602 144.727 573.986C145.135 574.358 145.339 574.862 145.339 575.498C145.339 576.038 145.189 576.512 144.889 576.92C144.589 577.316 144.169 577.622 143.629 577.838C143.101 578.054 142.477 578.162 141.757 578.162ZM151.695 578.162C150.279 578.162 149.163 577.754 148.347 576.938C147.531 576.11 147.123 574.964 147.123 573.5C147.123 572.552 147.303 571.73 147.663 571.034C148.023 570.326 148.527 569.78 149.175 569.396C149.823 569 150.567 568.802 151.407 568.802C152.235 568.802 152.931 568.976 153.495 569.324C154.059 569.672 154.491 570.17 154.791 570.818C155.091 571.454 155.241 572.21 155.241 573.086V573.626H148.239V572.708H154.287L153.981 572.942C153.981 571.982 153.765 571.232 153.333 570.692C152.901 570.152 152.259 569.882 151.407 569.882C150.507 569.882 149.805 570.2 149.301 570.836C148.797 571.46 148.545 572.306 148.545 573.374V573.536C148.545 574.664 148.821 575.522 149.373 576.11C149.937 576.686 150.723 576.974 151.731 576.974C152.271 576.974 152.775 576.896 153.243 576.74C153.723 576.572 154.179 576.302 154.611 575.93L155.115 576.956C154.719 577.34 154.215 577.64 153.603 577.856C153.003 578.06 152.367 578.162 151.695 578.162ZM160.91 578.162C160.106 578.162 159.404 577.976 158.804 577.604C158.204 577.22 157.736 576.68 157.4 575.984C157.076 575.288 156.914 574.454 156.914 573.482C156.914 572.498 157.076 571.658 157.4 570.962C157.736 570.266 158.204 569.732 158.804 569.36C159.404 568.988 160.106 568.802 160.91 568.802C161.726 568.802 162.428 569.012 163.016 569.432C163.616 569.84 164.012 570.398 164.204 571.106H163.988L164.186 568.964H165.59C165.554 569.312 165.518 569.666 165.482 570.026C165.458 570.374 165.446 570.716 165.446 571.052V578H163.988V575.876H164.186C163.994 576.584 163.598 577.142 162.998 577.55C162.398 577.958 161.702 578.162 160.91 578.162ZM161.198 576.974C162.062 576.974 162.746 576.68 163.25 576.092C163.754 575.492 164.006 574.622 164.006 573.482C164.006 572.33 163.754 571.46 163.25 570.872C162.746 570.272 162.062 569.972 161.198 569.972C160.346 569.972 159.662 570.272 159.146 570.872C158.642 571.46 158.39 572.33 158.39 573.482C158.39 574.622 158.642 575.492 159.146 576.092C159.662 576.68 160.346 576.974 161.198 576.974ZM168.229 578V571.142C168.229 570.782 168.217 570.416 168.193 570.044C168.181 569.672 168.157 569.312 168.121 568.964H169.525L169.705 571.16L169.453 571.178C169.573 570.638 169.783 570.194 170.083 569.846C170.383 569.498 170.737 569.24 171.145 569.072C171.553 568.892 171.979 568.802 172.423 568.802C172.603 568.802 172.759 568.808 172.891 568.82C173.035 568.832 173.167 568.862 173.287 568.91L173.269 570.206C173.089 570.146 172.921 570.11 172.765 570.098C172.621 570.074 172.453 570.062 172.261 570.062C171.733 570.062 171.271 570.188 170.875 570.44C170.491 570.692 170.197 571.016 169.993 571.412C169.801 571.808 169.705 572.228 169.705 572.672V578H168.229ZM178.496 578.162C177.608 578.162 176.834 577.97 176.174 577.586C175.526 577.202 175.022 576.656 174.662 575.948C174.314 575.24 174.14 574.4 174.14 573.428C174.14 572.444 174.32 571.61 174.68 570.926C175.04 570.23 175.544 569.702 176.192 569.342C176.852 568.982 177.62 568.802 178.496 568.802C179.072 568.802 179.63 568.904 180.17 569.108C180.722 569.312 181.178 569.6 181.538 569.972L181.016 571.016C180.656 570.668 180.26 570.41 179.828 570.242C179.408 570.074 178.994 569.99 178.586 569.99C177.65 569.99 176.924 570.284 176.408 570.872C175.892 571.46 175.634 572.318 175.634 573.446C175.634 574.562 175.892 575.426 176.408 576.038C176.924 576.65 177.65 576.956 178.586 576.956C178.982 576.956 179.39 576.878 179.81 576.722C180.242 576.566 180.644 576.308 181.016 575.948L181.538 576.974C181.166 577.358 180.704 577.652 180.152 577.856C179.6 578.06 179.048 578.162 178.496 578.162ZM183.61 578V564.752H185.068V570.962H184.834C185.086 570.254 185.506 569.72 186.094 569.36C186.694 568.988 187.384 568.802 188.164 568.802C189.244 568.802 190.048 569.096 190.576 569.684C191.104 570.26 191.368 571.136 191.368 572.312V578H189.91V572.402C189.91 571.562 189.742 570.95 189.406 570.566C189.082 570.182 188.554 569.99 187.822 569.99C186.982 569.99 186.31 570.248 185.806 570.764C185.314 571.28 185.068 571.958 185.068 572.798V578H183.61ZM198.171 578.162C196.755 578.162 195.639 577.754 194.823 576.938C194.007 576.11 193.599 574.964 193.599 573.5C193.599 572.552 193.779 571.73 194.139 571.034C194.499 570.326 195.003 569.78 195.651 569.396C196.299 569 197.043 568.802 197.883 568.802C198.711 568.802 199.407 568.976 199.971 569.324C200.535 569.672 200.967 570.17 201.267 570.818C201.567 571.454 201.717 572.21 201.717 573.086V573.626H194.715V572.708H200.763L200.457 572.942C200.457 571.982 200.241 571.232 199.809 570.692C199.377 570.152 198.735 569.882 197.883 569.882C196.983 569.882 196.281 570.2 195.777 570.836C195.273 571.46 195.021 572.306 195.021 573.374V573.536C195.021 574.664 195.297 575.522 195.849 576.11C196.413 576.686 197.199 576.974 198.207 576.974C198.747 576.974 199.251 576.896 199.719 576.74C200.199 576.572 200.655 576.302 201.087 575.93L201.591 576.956C201.195 577.34 200.691 577.64 200.079 577.856C199.479 578.06 198.843 578.162 198.171 578.162ZM203.912 578V571.142C203.912 570.782 203.9 570.416 203.876 570.044C203.864 569.672 203.84 569.312 203.804 568.964H205.208L205.388 571.16L205.136 571.178C205.256 570.638 205.466 570.194 205.766 569.846C206.066 569.498 206.42 569.24 206.828 569.072C207.236 568.892 207.662 568.802 208.106 568.802C208.286 568.802 208.442 568.808 208.574 568.82C208.718 568.832 208.85 568.862 208.97 568.91L208.952 570.206C208.772 570.146 208.604 570.11 208.448 570.098C208.304 570.074 208.136 570.062 207.944 570.062C207.416 570.062 206.954 570.188 206.558 570.44C206.174 570.692 205.88 571.016 205.676 571.412C205.484 571.808 205.388 572.228 205.388 572.672V578H203.912ZM215.181 578V564.752H216.639V570.962H216.405C216.657 570.254 217.077 569.72 217.665 569.36C218.265 568.988 218.955 568.802 219.735 568.802C220.815 568.802 221.619 569.096 222.147 569.684C222.675 570.26 222.939 571.136 222.939 572.312V578H221.481V572.402C221.481 571.562 221.313 570.95 220.977 570.566C220.653 570.182 220.125 569.99 219.393 569.99C218.553 569.99 217.881 570.248 217.377 570.764C216.885 571.28 216.639 571.958 216.639 572.798V578H215.181ZM229.166 578.162C228.362 578.162 227.66 577.976 227.06 577.604C226.46 577.22 225.992 576.68 225.656 575.984C225.332 575.288 225.17 574.454 225.17 573.482C225.17 572.498 225.332 571.658 225.656 570.962C225.992 570.266 226.46 569.732 227.06 569.36C227.66 568.988 228.362 568.802 229.166 568.802C229.982 568.802 230.684 569.012 231.272 569.432C231.872 569.84 232.268 570.398 232.46 571.106H232.244L232.442 568.964H233.846C233.81 569.312 233.774 569.666 233.738 570.026C233.714 570.374 233.702 570.716 233.702 571.052V578H232.244V575.876H232.442C232.25 576.584 231.854 577.142 231.254 577.55C230.654 577.958 229.958 578.162 229.166 578.162ZM229.454 576.974C230.318 576.974 231.002 576.68 231.506 576.092C232.01 575.492 232.262 574.622 232.262 573.482C232.262 572.33 232.01 571.46 231.506 570.872C231.002 570.272 230.318 569.972 229.454 569.972C228.602 569.972 227.918 570.272 227.402 570.872C226.898 571.46 226.646 572.33 226.646 573.482C226.646 574.622 226.898 575.492 227.402 576.092C227.918 576.68 228.602 576.974 229.454 576.974ZM236.521 581.888V571.052C236.521 570.716 236.503 570.374 236.467 570.026C236.443 569.666 236.413 569.312 236.377 568.964H237.781L237.979 571.106H237.763C237.955 570.398 238.345 569.84 238.933 569.432C239.521 569.012 240.223 568.802 241.039 568.802C241.855 568.802 242.557 568.988 243.145 569.36C243.745 569.732 244.213 570.266 244.549 570.962C244.885 571.658 245.053 572.498 245.053 573.482C245.053 574.454 244.885 575.288 244.549 575.984C244.225 576.68 243.763 577.22 243.163 577.604C242.563 577.976 241.855 578.162 241.039 578.162C240.235 578.162 239.539 577.958 238.951 577.55C238.363 577.142 237.973 576.584 237.781 575.876H237.979V581.888H236.521ZM240.751 576.974C241.615 576.974 242.299 576.68 242.803 576.092C243.319 575.492 243.577 574.622 243.577 573.482C243.577 572.33 243.319 571.46 242.803 570.872C242.299 570.272 241.615 569.972 240.751 569.972C239.899 569.972 239.215 570.272 238.699 570.872C238.195 571.46 237.943 572.33 237.943 573.482C237.943 574.622 238.195 575.492 238.699 576.092C239.215 576.68 239.899 576.974 240.751 576.974ZM247.314 581.888V571.052C247.314 570.716 247.296 570.374 247.26 570.026C247.236 569.666 247.206 569.312 247.17 568.964H248.574L248.772 571.106H248.556C248.748 570.398 249.138 569.84 249.726 569.432C250.314 569.012 251.016 568.802 251.832 568.802C252.648 568.802 253.35 568.988 253.938 569.36C254.538 569.732 255.006 570.266 255.342 570.962C255.678 571.658 255.846 572.498 255.846 573.482C255.846 574.454 255.678 575.288 255.342 575.984C255.018 576.68 254.556 577.22 253.956 577.604C253.356 577.976 252.648 578.162 251.832 578.162C251.028 578.162 250.332 577.958 249.744 577.55C249.156 577.142 248.766 576.584 248.574 575.876H248.772V581.888H247.314ZM251.544 576.974C252.408 576.974 253.092 576.68 253.596 576.092C254.112 575.492 254.37 574.622 254.37 573.482C254.37 572.33 254.112 571.46 253.596 570.872C253.092 570.272 252.408 569.972 251.544 569.972C250.692 569.972 250.008 570.272 249.492 570.872C248.988 571.46 248.736 572.33 248.736 573.482C248.736 574.622 248.988 575.492 249.492 576.092C250.008 576.68 250.692 576.974 251.544 576.974ZM257.624 582.086L257.282 580.88C257.846 580.748 258.314 580.592 258.686 580.412C259.07 580.244 259.388 580.016 259.64 579.728C259.892 579.44 260.108 579.08 260.288 578.648L260.756 577.586L260.72 578.198L256.778 568.964H258.362L261.62 576.902H261.152L264.374 568.964H265.904L261.728 578.756C261.488 579.332 261.224 579.812 260.936 580.196C260.648 580.592 260.336 580.91 260 581.15C259.676 581.402 259.316 581.6 258.92 581.744C258.524 581.888 258.092 582.002 257.624 582.086ZM267.726 574.688L267.276 565.31H269.076L268.626 574.688H267.726ZM267.258 578V576.164H269.094V578H267.258Z" fill="white"/>
<rect x="32" y="644" width="296" height="52" rx="26" fill="#272D69"/>
<path d="M89.38 670.352C89.38 669.168 89.5933 668.144 90.02 667.28C90.4573 666.416 91.0813 665.749 91.892 665.28C92.7027 664.8 93.668 664.56 94.788 664.56C95.8973 664.56 96.8573 664.8 97.668 665.28C98.4787 665.749 99.1027 666.416 99.54 667.28C99.988 668.144 100.212 669.163 100.212 670.336C100.212 671.52 99.988 672.549 99.54 673.424C99.1027 674.288 98.4787 674.96 97.668 675.44C96.8573 675.92 95.8973 676.16 94.788 676.16C93.668 676.16 92.7027 675.92 91.892 675.44C91.092 674.96 90.4733 674.288 90.036 673.424C89.5987 672.549 89.38 671.525 89.38 670.352ZM91.54 670.352C91.54 671.621 91.812 672.613 92.356 673.328C92.9 674.043 93.7107 674.4 94.788 674.4C95.8333 674.4 96.6387 674.043 97.204 673.328C97.7693 672.613 98.052 671.621 98.052 670.352C98.052 669.072 97.7693 668.08 97.204 667.376C96.6493 666.672 95.844 666.32 94.788 666.32C93.7107 666.32 92.9 666.672 92.356 667.376C91.812 668.08 91.54 669.072 91.54 670.352ZM102.982 676V664.72H105.046V669.712H105.078L109.99 664.72H112.486L106.598 670.592L106.614 669.696L112.87 676H110.294L105.078 670.784H105.046V676H102.982ZM115.104 678.128L114.288 677.488C114.63 677.136 114.864 676.805 114.992 676.496C115.131 676.197 115.2 675.877 115.2 675.536L115.632 676H114.128V673.776H116.368V675.248C116.368 675.792 116.272 676.288 116.08 676.736C115.899 677.195 115.574 677.659 115.104 678.128ZM128.856 676.16C127.245 676.16 126.045 675.76 125.256 674.96C124.477 674.149 124.088 672.955 124.088 671.376V664.72H126.152V671.36C126.152 672.363 126.365 673.12 126.792 673.632C127.229 674.144 127.917 674.4 128.856 674.4C129.752 674.4 130.424 674.144 130.872 673.632C131.33 673.12 131.56 672.363 131.56 671.36V664.72H133.592V671.376C133.592 672.955 133.192 674.149 132.392 674.96C131.602 675.76 130.424 676.16 128.856 676.16ZM136.476 679.456V669.936C136.476 669.605 136.465 669.269 136.444 668.928C136.422 668.587 136.39 668.251 136.348 667.92H138.284L138.46 669.616H138.284C138.444 669.051 138.78 668.603 139.292 668.272C139.814 667.931 140.417 667.76 141.1 667.76C141.814 667.76 142.438 667.931 142.972 668.272C143.505 668.603 143.921 669.083 144.22 669.712C144.518 670.331 144.668 671.077 144.668 671.952C144.668 672.827 144.518 673.579 144.22 674.208C143.921 674.837 143.505 675.323 142.972 675.664C142.438 675.995 141.814 676.16 141.1 676.16C140.428 676.16 139.836 675.995 139.324 675.664C138.812 675.333 138.47 674.891 138.3 674.336H138.476V679.456H136.476ZM140.54 674.624C141.18 674.624 141.692 674.405 142.076 673.968C142.46 673.52 142.652 672.848 142.652 671.952C142.652 671.056 142.46 670.389 142.076 669.952C141.692 669.515 141.18 669.296 140.54 669.296C139.91 669.296 139.404 669.515 139.02 669.952C138.636 670.389 138.444 671.056 138.444 671.952C138.444 672.848 138.636 673.52 139.02 673.968C139.404 674.405 139.91 674.624 140.54 674.624ZM147.037 676V664.224H149.037V676H147.037ZM155.497 676.16C154.665 676.16 153.945 675.989 153.337 675.648C152.729 675.307 152.255 674.821 151.913 674.192C151.583 673.563 151.417 672.816 151.417 671.952C151.417 671.088 151.583 670.347 151.913 669.728C152.255 669.099 152.729 668.613 153.337 668.272C153.945 667.931 154.665 667.76 155.497 667.76C156.329 667.76 157.049 667.931 157.657 668.272C158.276 668.613 158.751 669.099 159.081 669.728C159.423 670.347 159.593 671.088 159.593 671.952C159.593 672.816 159.423 673.563 159.081 674.192C158.751 674.821 158.276 675.307 157.657 675.648C157.049 675.989 156.329 676.16 155.497 676.16ZM155.497 674.624C156.127 674.624 156.628 674.405 157.001 673.968C157.375 673.52 157.561 672.848 157.561 671.952C157.561 671.056 157.375 670.389 157.001 669.952C156.628 669.515 156.127 669.296 155.497 669.296C154.868 669.296 154.367 669.515 153.993 669.952C153.62 670.389 153.433 671.056 153.433 671.952C153.433 672.848 153.62 673.52 153.993 673.968C154.367 674.405 154.868 674.624 155.497 674.624ZM165.078 676.16C164.374 676.16 163.755 675.995 163.222 675.664C162.689 675.323 162.273 674.837 161.974 674.208C161.675 673.579 161.526 672.827 161.526 671.952C161.526 671.077 161.675 670.331 161.974 669.712C162.273 669.083 162.689 668.603 163.222 668.272C163.755 667.931 164.374 667.76 165.078 667.76C165.761 667.76 166.358 667.931 166.87 668.272C167.393 668.603 167.739 669.051 167.91 669.616H167.734L167.91 667.92H169.83C169.798 668.251 169.766 668.587 169.734 668.928C169.713 669.269 169.702 669.605 169.702 669.936V676H167.718L167.702 674.336H167.894C167.723 674.891 167.377 675.333 166.854 675.664C166.331 675.995 165.739 676.16 165.078 676.16ZM165.638 674.624C166.267 674.624 166.774 674.405 167.158 673.968C167.542 673.52 167.734 672.848 167.734 671.952C167.734 671.056 167.542 670.389 167.158 669.952C166.774 669.515 166.267 669.296 165.638 669.296C165.009 669.296 164.502 669.515 164.118 669.952C163.734 670.389 163.542 671.056 163.542 671.952C163.542 672.848 163.729 673.52 164.102 673.968C164.486 674.405 164.998 674.624 165.638 674.624ZM175.656 676.16C174.952 676.16 174.328 675.995 173.784 675.664C173.251 675.323 172.835 674.837 172.536 674.208C172.237 673.579 172.088 672.827 172.088 671.952C172.088 671.077 172.237 670.331 172.536 669.712C172.835 669.083 173.251 668.603 173.784 668.272C174.328 667.931 174.952 667.76 175.656 667.76C176.328 667.76 176.92 667.925 177.432 668.256C177.955 668.576 178.301 669.013 178.472 669.568H178.264V664.224H180.264V676H178.296V674.288H178.488C178.317 674.864 177.971 675.323 177.448 675.664C176.936 675.995 176.339 676.16 175.656 676.16ZM176.216 674.624C176.845 674.624 177.352 674.405 177.736 673.968C178.12 673.52 178.312 672.848 178.312 671.952C178.312 671.056 178.12 670.389 177.736 669.952C177.352 669.515 176.845 669.296 176.216 669.296C175.587 669.296 175.075 669.515 174.68 669.952C174.296 670.389 174.104 671.056 174.104 671.952C174.104 672.848 174.296 673.52 174.68 673.968C175.075 674.405 175.587 674.624 176.216 674.624ZM188.112 676V669.936C188.112 669.605 188.102 669.269 188.08 668.928C188.059 668.587 188.027 668.251 187.984 667.92H189.92L190.08 669.52H189.888C190.112 668.965 190.454 668.533 190.912 668.224C191.382 667.915 191.936 667.76 192.576 667.76C193.216 667.76 193.744 667.915 194.16 668.224C194.587 668.523 194.886 668.992 195.056 669.632H194.8C195.024 669.056 195.392 668.603 195.904 668.272C196.416 667.931 197.003 667.76 197.664 667.76C198.571 667.76 199.248 668.027 199.696 668.56C200.144 669.093 200.368 669.925 200.368 671.056V676H198.368V671.136C198.368 670.496 198.262 670.037 198.048 669.76C197.835 669.472 197.494 669.328 197.024 669.328C196.47 669.328 196.032 669.525 195.712 669.92C195.392 670.304 195.232 670.827 195.232 671.488V676H193.232V671.136C193.232 670.496 193.126 670.037 192.912 669.76C192.699 669.472 192.358 669.328 191.888 669.328C191.334 669.328 190.896 669.525 190.576 669.92C190.267 670.304 190.112 670.827 190.112 671.488V676H188.112ZM202.905 679.632L202.441 678.048C202.942 677.941 203.364 677.819 203.705 677.68C204.046 677.541 204.329 677.36 204.553 677.136C204.777 676.912 204.964 676.624 205.113 676.272L205.513 675.328L205.465 676.112L201.945 667.92H204.073L206.601 674.224H206.137L208.681 667.92H210.697L207.017 676.448C206.772 677.024 206.505 677.499 206.217 677.872C205.929 678.256 205.62 678.56 205.289 678.784C204.958 679.019 204.596 679.2 204.201 679.328C203.806 679.456 203.374 679.557 202.905 679.632ZM217.407 676V669.984C217.407 669.643 217.396 669.296 217.375 668.944C217.364 668.592 217.338 668.251 217.295 667.92H219.231L219.455 670.128H219.135C219.242 669.595 219.418 669.152 219.663 668.8C219.919 668.448 220.228 668.187 220.591 668.016C220.954 667.845 221.348 667.76 221.775 667.76C221.967 667.76 222.122 667.771 222.239 667.792C222.356 667.803 222.474 667.829 222.591 667.872L222.575 669.632C222.372 669.547 222.196 669.493 222.047 669.472C221.908 669.451 221.732 669.44 221.519 669.44C221.06 669.44 220.671 669.536 220.351 669.728C220.042 669.92 219.807 670.187 219.647 670.528C219.498 670.869 219.423 671.259 219.423 671.696V676H217.407ZM228.123 676.16C226.769 676.16 225.707 675.787 224.939 675.04C224.171 674.293 223.787 673.269 223.787 671.968C223.787 671.125 223.953 670.389 224.283 669.76C224.614 669.131 225.073 668.64 225.659 668.288C226.257 667.936 226.95 667.76 227.739 667.76C228.518 667.76 229.169 667.925 229.691 668.256C230.214 668.587 230.609 669.051 230.875 669.648C231.153 670.245 231.291 670.944 231.291 671.744V672.272H225.403V671.216H229.867L229.595 671.44C229.595 670.693 229.435 670.123 229.115 669.728C228.806 669.333 228.353 669.136 227.755 669.136C227.094 669.136 226.582 669.371 226.219 669.84C225.867 670.309 225.691 670.965 225.691 671.808V672.016C225.691 672.891 225.905 673.547 226.331 673.984C226.769 674.411 227.382 674.624 228.171 674.624C228.63 674.624 229.057 674.565 229.451 674.448C229.857 674.32 230.241 674.117 230.603 673.84L231.195 675.184C230.811 675.493 230.353 675.733 229.819 675.904C229.286 676.075 228.721 676.16 228.123 676.16ZM236.505 676.16C235.812 676.16 235.172 676.08 234.585 675.92C234.009 675.749 233.524 675.515 233.129 675.216L233.689 673.872C234.094 674.149 234.542 674.363 235.033 674.512C235.524 674.661 236.02 674.736 236.521 674.736C237.054 674.736 237.449 674.645 237.705 674.464C237.972 674.283 238.105 674.037 238.105 673.728C238.105 673.483 238.02 673.291 237.849 673.152C237.689 673.003 237.428 672.891 237.065 672.816L235.465 672.512C234.782 672.363 234.26 672.107 233.897 671.744C233.545 671.381 233.369 670.907 233.369 670.32C233.369 669.819 233.502 669.376 233.769 668.992C234.046 668.608 234.436 668.309 234.937 668.096C235.449 667.872 236.046 667.76 236.729 667.76C237.326 667.76 237.886 667.84 238.409 668C238.942 668.16 239.39 668.4 239.753 668.72L239.177 670.016C238.846 669.749 238.468 669.541 238.041 669.392C237.614 669.243 237.198 669.168 236.793 669.168C236.238 669.168 235.833 669.269 235.577 669.472C235.321 669.664 235.193 669.915 235.193 670.224C235.193 670.459 235.268 670.656 235.417 670.816C235.577 670.965 235.822 671.077 236.153 671.152L237.753 671.456C238.468 671.595 239.006 671.84 239.369 672.192C239.742 672.533 239.929 673.003 239.929 673.6C239.929 674.133 239.785 674.592 239.497 674.976C239.209 675.36 238.809 675.653 238.297 675.856C237.785 676.059 237.188 676.16 236.505 676.16ZM245.193 676.16C244.201 676.16 243.459 675.888 242.969 675.344C242.478 674.8 242.233 673.968 242.233 672.848V667.92H244.233V672.832C244.233 673.429 244.355 673.872 244.601 674.16C244.846 674.437 245.219 674.576 245.721 674.576C246.286 674.576 246.745 674.384 247.097 674C247.459 673.616 247.641 673.109 247.641 672.48V667.92H249.641V676H247.689V674.352H247.913C247.678 674.928 247.321 675.376 246.841 675.696C246.371 676.005 245.822 676.16 245.193 676.16ZM252.452 676V664.224H254.452V676H252.452ZM260.72 676.16C259.76 676.16 259.034 675.909 258.544 675.408C258.053 674.907 257.808 674.155 257.808 673.152V669.424H256.256V667.92H257.808V665.856L259.808 665.344V667.92H261.968V669.424H259.808V673.024C259.808 673.579 259.914 673.968 260.128 674.192C260.341 674.416 260.634 674.528 261.008 674.528C261.21 674.528 261.381 674.512 261.52 674.48C261.669 674.448 261.813 674.405 261.952 674.352V675.936C261.77 676.011 261.568 676.064 261.344 676.096C261.13 676.139 260.922 676.16 260.72 676.16ZM266.846 676.16C266.153 676.16 265.513 676.08 264.926 675.92C264.35 675.749 263.865 675.515 263.47 675.216L264.03 673.872C264.435 674.149 264.883 674.363 265.374 674.512C265.865 674.661 266.361 674.736 266.862 674.736C267.395 674.736 267.79 674.645 268.046 674.464C268.313 674.283 268.446 674.037 268.446 673.728C268.446 673.483 268.361 673.291 268.19 673.152C268.03 673.003 267.769 672.891 267.406 672.816L265.806 672.512C265.123 672.363 264.601 672.107 264.238 671.744C263.886 671.381 263.71 670.907 263.71 670.32C263.71 669.819 263.843 669.376 264.11 668.992C264.387 668.608 264.777 668.309 265.278 668.096C265.79 667.872 266.387 667.76 267.07 667.76C267.667 667.76 268.227 667.84 268.75 668C269.283 668.16 269.731 668.4 270.094 668.72L269.518 670.016C269.187 669.749 268.809 669.541 268.382 669.392C267.955 669.243 267.539 669.168 267.134 669.168C266.579 669.168 266.174 669.269 265.918 669.472C265.662 669.664 265.534 669.915 265.534 670.224C265.534 670.459 265.609 670.656 265.758 670.816C265.918 670.965 266.163 671.077 266.494 671.152L268.094 671.456C268.809 671.595 269.347 671.84 269.71 672.192C270.083 672.533 270.27 673.003 270.27 673.6C270.27 674.133 270.126 674.592 269.838 674.976C269.55 675.36 269.15 675.653 268.638 675.856C268.126 676.059 267.529 676.16 266.846 676.16Z" fill="white"/>
<path d="M102.248 736V724.72H103.8L110.344 733.184H109.928V724.72H111.848V736H110.296L103.768 727.536H104.168V736H102.248ZM118.454 736.16C117.622 736.16 116.902 735.989 116.294 735.648C115.686 735.307 115.211 734.821 114.87 734.192C114.539 733.563 114.374 732.816 114.374 731.952C114.374 731.088 114.539 730.347 114.87 729.728C115.211 729.099 115.686 728.613 116.294 728.272C116.902 727.931 117.622 727.76 118.454 727.76C119.286 727.76 120.006 727.931 120.614 728.272C121.233 728.613 121.707 729.099 122.038 729.728C122.379 730.347 122.55 731.088 122.55 731.952C122.55 732.816 122.379 733.563 122.038 734.192C121.707 734.821 121.233 735.307 120.614 735.648C120.006 735.989 119.286 736.16 118.454 736.16ZM118.454 734.624C119.083 734.624 119.585 734.405 119.958 733.968C120.331 733.52 120.518 732.848 120.518 731.952C120.518 731.056 120.331 730.389 119.958 729.952C119.585 729.515 119.083 729.296 118.454 729.296C117.825 729.296 117.323 729.515 116.95 729.952C116.577 730.389 116.39 731.056 116.39 731.952C116.39 732.848 116.577 733.52 116.95 733.968C117.323 734.405 117.825 734.624 118.454 734.624ZM125.37 738.128L124.554 737.488C124.895 737.136 125.13 736.805 125.258 736.496C125.397 736.197 125.466 735.877 125.466 735.536L125.898 736H124.394V733.776H126.634V735.248C126.634 735.792 126.538 736.288 126.346 736.736C126.165 737.195 125.839 737.659 125.37 738.128ZM137.393 736.16C136.689 736.16 136.065 735.995 135.521 735.664C134.988 735.323 134.572 734.837 134.273 734.208C133.975 733.579 133.825 732.827 133.825 731.952C133.825 731.077 133.975 730.331 134.273 729.712C134.572 729.083 134.988 728.603 135.521 728.272C136.065 727.931 136.689 727.76 137.393 727.76C138.065 727.76 138.657 727.925 139.169 728.256C139.692 728.576 140.039 729.013 140.209 729.568H140.001V724.224H142.001V736H140.033V734.288H140.225C140.055 734.864 139.708 735.323 139.185 735.664C138.673 735.995 138.076 736.16 137.393 736.16ZM137.953 734.624C138.583 734.624 139.089 734.405 139.473 733.968C139.857 733.52 140.049 732.848 140.049 731.952C140.049 731.056 139.857 730.389 139.473 729.952C139.089 729.515 138.583 729.296 137.953 729.296C137.324 729.296 136.812 729.515 136.417 729.952C136.033 730.389 135.841 731.056 135.841 731.952C135.841 732.848 136.033 733.52 136.417 733.968C136.812 734.405 137.324 734.624 137.953 734.624ZM144.819 736V727.92H146.819V736H144.819ZM144.707 726.4V724.448H146.931V726.4H144.707ZM152.511 736.16C151.818 736.16 151.178 736.08 150.591 735.92C150.015 735.749 149.53 735.515 149.135 735.216L149.695 733.872C150.1 734.149 150.548 734.363 151.039 734.512C151.53 734.661 152.026 734.736 152.527 734.736C153.06 734.736 153.455 734.645 153.711 734.464C153.978 734.283 154.111 734.037 154.111 733.728C154.111 733.483 154.026 733.291 153.855 733.152C153.695 733.003 153.434 732.891 153.071 732.816L151.471 732.512C150.788 732.363 150.266 732.107 149.903 731.744C149.551 731.381 149.375 730.907 149.375 730.32C149.375 729.819 149.508 729.376 149.775 728.992C150.052 728.608 150.442 728.309 150.943 728.096C151.455 727.872 152.052 727.76 152.735 727.76C153.332 727.76 153.892 727.84 154.415 728C154.948 728.16 155.396 728.4 155.759 728.72L155.183 730.016C154.852 729.749 154.474 729.541 154.047 729.392C153.62 729.243 153.204 729.168 152.799 729.168C152.244 729.168 151.839 729.269 151.583 729.472C151.327 729.664 151.199 729.915 151.199 730.224C151.199 730.459 151.274 730.656 151.423 730.816C151.583 730.965 151.828 731.077 152.159 731.152L153.759 731.456C154.474 731.595 155.012 731.84 155.375 732.192C155.748 732.533 155.935 733.003 155.935 733.6C155.935 734.133 155.791 734.592 155.503 734.976C155.215 735.36 154.815 735.653 154.303 735.856C153.791 736.059 153.194 736.16 152.511 736.16ZM161.999 736.16C161.167 736.16 160.436 735.989 159.807 735.648C159.188 735.307 158.708 734.821 158.367 734.192C158.025 733.552 157.855 732.795 157.855 731.92C157.855 731.045 158.025 730.299 158.367 729.68C158.719 729.061 159.204 728.587 159.823 728.256C160.441 727.925 161.167 727.76 161.999 727.76C162.532 727.76 163.049 727.845 163.551 728.016C164.063 728.176 164.479 728.411 164.799 728.72L164.191 730.112C163.903 729.845 163.577 729.648 163.215 729.52C162.863 729.381 162.516 729.312 162.175 729.312C161.46 729.312 160.9 729.536 160.495 729.984C160.1 730.432 159.903 731.083 159.903 731.936C159.903 732.789 160.1 733.445 160.495 733.904C160.9 734.363 161.46 734.592 162.175 734.592C162.505 734.592 162.847 734.528 163.199 734.4C163.561 734.272 163.892 734.075 164.191 733.808L164.799 735.184C164.468 735.493 164.047 735.733 163.535 735.904C163.033 736.075 162.521 736.16 161.999 736.16ZM170.062 736.16C169.358 736.16 168.74 735.995 168.206 735.664C167.673 735.323 167.257 734.837 166.958 734.208C166.66 733.579 166.51 732.827 166.51 731.952C166.51 731.077 166.66 730.331 166.958 729.712C167.257 729.083 167.673 728.603 168.206 728.272C168.74 727.931 169.358 727.76 170.062 727.76C170.745 727.76 171.342 727.931 171.854 728.272C172.377 728.603 172.724 729.051 172.894 729.616H172.718L172.894 727.92H174.814C174.782 728.251 174.75 728.587 174.718 728.928C174.697 729.269 174.686 729.605 174.686 729.936V736H172.702L172.686 734.336H172.878C172.708 734.891 172.361 735.333 171.838 735.664C171.316 735.995 170.724 736.16 170.062 736.16ZM170.622 734.624C171.252 734.624 171.758 734.405 172.142 733.968C172.526 733.52 172.718 732.848 172.718 731.952C172.718 731.056 172.526 730.389 172.142 729.952C171.758 729.515 171.252 729.296 170.622 729.296C169.993 729.296 169.486 729.515 169.102 729.952C168.718 730.389 168.526 731.056 168.526 731.952C168.526 732.848 168.713 733.52 169.086 733.968C169.47 734.405 169.982 734.624 170.622 734.624ZM177.488 736V729.984C177.488 729.643 177.478 729.296 177.456 728.944C177.446 728.592 177.419 728.251 177.376 727.92H179.312L179.536 730.128H179.216C179.323 729.595 179.499 729.152 179.744 728.8C180 728.448 180.31 728.187 180.672 728.016C181.035 727.845 181.43 727.76 181.856 727.76C182.048 727.76 182.203 727.771 182.32 727.792C182.438 727.803 182.555 727.829 182.672 727.872L182.656 729.632C182.454 729.547 182.278 729.493 182.128 729.472C181.99 729.451 181.814 729.44 181.6 729.44C181.142 729.44 180.752 729.536 180.432 729.728C180.123 729.92 179.888 730.187 179.728 730.528C179.579 730.869 179.504 731.259 179.504 731.696V736H177.488ZM187.437 736.16C186.733 736.16 186.109 735.995 185.565 735.664C185.031 735.323 184.615 734.837 184.317 734.208C184.018 733.579 183.869 732.827 183.869 731.952C183.869 731.077 184.018 730.331 184.317 729.712C184.615 729.083 185.031 728.603 185.565 728.272C186.109 727.931 186.733 727.76 187.437 727.76C188.109 727.76 188.701 727.925 189.213 728.256C189.735 728.576 190.082 729.013 190.253 729.568H190.045V724.224H192.045V736H190.077V734.288H190.269C190.098 734.864 189.751 735.323 189.229 735.664C188.717 735.995 188.119 736.16 187.437 736.16ZM187.997 734.624C188.626 734.624 189.133 734.405 189.517 733.968C189.901 733.52 190.093 732.848 190.093 731.952C190.093 731.056 189.901 730.389 189.517 729.952C189.133 729.515 188.626 729.296 187.997 729.296C187.367 729.296 186.855 729.515 186.461 729.952C186.077 730.389 185.885 731.056 185.885 731.952C185.885 732.848 186.077 733.52 186.461 733.968C186.855 734.405 187.367 734.624 187.997 734.624ZM199.893 736V729.936C199.893 729.605 199.882 729.269 199.861 728.928C199.84 728.587 199.808 728.251 199.765 727.92H201.701L201.861 729.52H201.669C201.893 728.965 202.234 728.533 202.693 728.224C203.162 727.915 203.717 727.76 204.357 727.76C204.997 727.76 205.525 727.915 205.941 728.224C206.368 728.523 206.666 728.992 206.837 729.632H206.581C206.805 729.056 207.173 728.603 207.685 728.272C208.197 727.931 208.784 727.76 209.445 727.76C210.352 727.76 211.029 728.027 211.477 728.56C211.925 729.093 212.149 729.925 212.149 731.056V736H210.149V731.136C210.149 730.496 210.042 730.037 209.829 729.76C209.616 729.472 209.274 729.328 208.805 729.328C208.25 729.328 207.813 729.525 207.493 729.92C207.173 730.304 207.013 730.827 207.013 731.488V736H205.013V731.136C205.013 730.496 204.906 730.037 204.693 729.76C204.48 729.472 204.138 729.328 203.669 729.328C203.114 729.328 202.677 729.525 202.357 729.92C202.048 730.304 201.893 730.827 201.893 731.488V736H199.893ZM214.685 739.632L214.221 738.048C214.723 737.941 215.144 737.819 215.485 737.68C215.827 737.541 216.109 737.36 216.333 737.136C216.557 736.912 216.744 736.624 216.893 736.272L217.293 735.328L217.245 736.112L213.725 727.92H215.853L218.381 734.224H217.918L220.462 727.92H222.477L218.798 736.448C218.552 737.024 218.286 737.499 217.997 737.872C217.709 738.256 217.4 738.56 217.069 738.784C216.739 739.019 216.376 739.2 215.981 739.328C215.587 739.456 215.155 739.557 214.685 739.632ZM232.66 736.16C231.7 736.16 230.974 735.909 230.484 735.408C229.993 734.907 229.748 734.155 229.748 733.152V729.424H228.196V727.92H229.748V725.856L231.748 725.344V727.92H233.908V729.424H231.748V733.024C231.748 733.579 231.854 733.968 232.068 734.192C232.281 734.416 232.574 734.528 232.948 734.528C233.15 734.528 233.321 734.512 233.46 734.48C233.609 734.448 233.753 734.405 233.892 734.352V735.936C233.71 736.011 233.508 736.064 233.284 736.096C233.07 736.139 232.862 736.16 232.66 736.16ZM239.732 736.16C238.377 736.16 237.316 735.787 236.548 735.04C235.78 734.293 235.396 733.269 235.396 731.968C235.396 731.125 235.561 730.389 235.892 729.76C236.223 729.131 236.681 728.64 237.268 728.288C237.865 727.936 238.559 727.76 239.348 727.76C240.127 727.76 240.777 727.925 241.3 728.256C241.823 728.587 242.217 729.051 242.484 729.648C242.761 730.245 242.9 730.944 242.9 731.744V732.272H237.012V731.216H241.476L241.204 731.44C241.204 730.693 241.044 730.123 240.724 729.728C240.415 729.333 239.961 729.136 239.364 729.136C238.703 729.136 238.191 729.371 237.828 729.84C237.476 730.309 237.3 730.965 237.3 731.808V732.016C237.3 732.891 237.513 733.547 237.94 733.984C238.377 734.411 238.991 734.624 239.78 734.624C240.239 734.624 240.665 734.565 241.06 734.448C241.465 734.32 241.849 734.117 242.212 733.84L242.804 735.184C242.42 735.493 241.961 735.733 241.428 735.904C240.895 736.075 240.329 736.16 239.732 736.16ZM248.114 736.16C247.42 736.16 246.78 736.08 246.194 735.92C245.618 735.749 245.132 735.515 244.738 735.216L245.298 733.872C245.703 734.149 246.151 734.363 246.642 734.512C247.132 734.661 247.628 734.736 248.13 734.736C248.663 734.736 249.058 734.645 249.314 734.464C249.58 734.283 249.714 734.037 249.714 733.728C249.714 733.483 249.628 733.291 249.458 733.152C249.298 733.003 249.036 732.891 248.674 732.816L247.074 732.512C246.391 732.363 245.868 732.107 245.506 731.744C245.154 731.381 244.978 730.907 244.978 730.32C244.978 729.819 245.111 729.376 245.378 728.992C245.655 728.608 246.044 728.309 246.546 728.096C247.058 727.872 247.655 727.76 248.338 727.76C248.935 727.76 249.495 727.84 250.018 728C250.551 728.16 250.999 728.4 251.362 728.72L250.786 730.016C250.455 729.749 250.076 729.541 249.65 729.392C249.223 729.243 248.807 729.168 248.402 729.168C247.847 729.168 247.442 729.269 247.186 729.472C246.93 729.664 246.802 729.915 246.802 730.224C246.802 730.459 246.876 730.656 247.026 730.816C247.186 730.965 247.431 731.077 247.762 731.152L249.362 731.456C250.076 731.595 250.615 731.84 250.978 732.192C251.351 732.533 251.538 733.003 251.538 733.6C251.538 734.133 251.394 734.592 251.106 734.976C250.818 735.36 250.418 735.653 249.906 735.856C249.394 736.059 248.796 736.16 248.114 736.16ZM257.267 736.16C256.307 736.16 255.582 735.909 255.091 735.408C254.6 734.907 254.355 734.155 254.355 733.152V729.424H252.803V727.92H254.355V725.856L256.355 725.344V727.92H258.515V729.424H256.355V733.024C256.355 733.579 256.462 733.968 256.675 734.192C256.888 734.416 257.182 734.528 257.555 734.528C257.758 734.528 257.928 734.512 258.067 734.48C258.216 734.448 258.36 734.405 258.499 734.352V735.936C258.318 736.011 258.115 736.064 257.891 736.096C257.678 736.139 257.47 736.16 257.267 736.16Z" fill="white"/>
<rect opacity="0.1" x="32" y="100" width="296" height="296" rx="32" fill="white"/>
<path fill-rule="evenodd" clip-rule="evenodd" d="M245.835 252.216C245.835 238.961 256.58 228.216 269.835 228.216C283.09 228.216 293.835 238.961 293.835 252.216C293.835 265.471 283.09 276.216 269.835 276.216C256.58 276.216 245.835 265.471 245.835 252.216ZM284.835 242.216C284.835 244.978 282.596 247.216 279.835 247.216C277.073 247.216 274.835 244.978 274.835 242.216C274.835 239.455 277.073 237.216 279.835 237.216C282.596 237.216 284.835 239.455 284.835 242.216ZM270.335 242.216C271.715 242.216 272.835 241.097 272.835 239.716C272.835 238.336 271.715 237.216 270.335 237.216C268.954 237.216 267.835 238.336 267.835 239.716C267.835 241.097 268.954 242.216 270.335 242.216Z" fill="#272D69"/>
<path fill-rule="evenodd" clip-rule="evenodd" d="M67.8347 252.216C67.8347 238.961 78.5799 228.216 91.8347 228.216C105.09 228.216 115.835 238.961 115.835 252.216C115.835 265.471 105.09 276.216 91.8347 276.216C78.5799 276.216 67.8347 265.471 67.8347 252.216ZM106.835 242.216C106.835 244.978 104.596 247.216 101.835 247.216C99.0733 247.216 96.8347 244.978 96.8347 242.216C96.8347 239.455 99.0733 237.216 101.835 237.216C104.596 237.216 106.835 239.455 106.835 242.216ZM92.3347 242.216C93.7154 242.216 94.8347 241.097 94.8347 239.716C94.8347 238.336 93.7154 237.216 92.3347 237.216C90.954 237.216 89.8347 238.336 89.8347 239.716C89.8347 241.097 90.954 242.216 92.3347 242.216Z" fill="#272D69"/>
<path d="M299.517 207.569C301.614 199.744 290.182 184.459 272.311 179.67C254.44 174.882 236.897 182.403 234.8 190.228C232.704 198.053 249.875 191.918 267.746 196.706C285.617 201.495 297.421 215.394 299.517 207.569Z" fill="#272D69"/>
<path d="M125.869 190.887C123.773 183.063 106.23 175.541 88.3585 180.33C70.4874 185.118 59.0555 200.403 61.1522 208.228C63.2489 216.053 75.0521 202.154 92.9232 197.365C110.794 192.577 127.966 198.712 125.869 190.887Z" fill="#272D69"/>
<path d="M214.639 287.986C214.639 296.219 199.193 308.216 180.139 308.216C161.086 308.216 145.639 296.219 145.639 287.986C145.639 279.754 161.086 278.216 180.139 278.216C199.193 278.216 214.639 279.754 214.639 287.986Z" fill="#272D69"/>
</g>
<defs>
<clipPath id="clip0_1_1890">
<rect width="360" height="780" rx="30" fill="white"/>
</clipPath>
</defs>
</svg>
