<svg width="360" height="780" viewBox="0 0 360 780" fill="none" xmlns="http://www.w3.org/2000/svg">
<g clip-path="url(#clip0_1_2003)">
<rect width="360" height="780" rx="30" fill="#008080"/>
<path d="M107.358 439.288C104.158 439.288 101.726 438.467 100.062 436.824C98.3979 435.181 97.5659 432.771 97.5659 429.592V416.216H102.462V429.816C102.462 431.629 102.878 433.016 103.71 433.976C104.563 434.915 105.779 435.384 107.358 435.384C108.937 435.384 110.142 434.915 110.974 433.976C111.806 433.016 112.222 431.629 112.222 429.816V416.216H117.15V429.592C117.15 432.749 116.307 435.16 114.622 436.824C112.958 438.467 110.537 439.288 107.358 439.288ZM132.169 422.36C133.556 422.36 134.793 422.723 135.881 423.448C136.969 424.152 137.812 425.155 138.409 426.456C139.028 427.757 139.337 429.24 139.337 430.904C139.337 432.568 139.038 434.04 138.441 435.32C137.844 436.579 137.001 437.549 135.913 438.232C134.825 438.915 133.577 439.256 132.169 439.256C131.038 439.256 130.025 439.021 129.129 438.552C128.233 438.083 127.55 437.432 127.081 436.6V445.912H122.249V427.416C122.249 425.688 122.164 424.141 121.993 422.776H126.537L126.857 425.464C127.284 424.504 127.966 423.747 128.905 423.192C129.865 422.637 130.953 422.36 132.169 422.36ZM130.793 435.576C131.988 435.576 132.905 435.181 133.545 434.392C134.185 433.581 134.505 432.419 134.505 430.904C134.505 429.389 134.174 428.205 133.513 427.352C132.873 426.499 131.966 426.072 130.793 426.072C129.598 426.072 128.67 426.488 128.009 427.32C127.369 428.131 127.049 429.304 127.049 430.84C127.049 432.376 127.369 433.549 128.009 434.36C128.67 435.171 129.598 435.576 130.793 435.576ZM143.436 415.448H148.268V439H143.436V415.448ZM160.962 439.256C159.234 439.256 157.719 438.915 156.418 438.232C155.138 437.549 154.146 436.568 153.442 435.288C152.759 434.008 152.418 432.515 152.418 430.808C152.418 429.101 152.759 427.608 153.442 426.328C154.146 425.048 155.138 424.067 156.418 423.384C157.719 422.701 159.234 422.36 160.962 422.36C162.668 422.36 164.162 422.701 165.442 423.384C166.722 424.067 167.703 425.048 168.386 426.328C169.09 427.608 169.442 429.101 169.442 430.808C169.442 432.515 169.09 434.008 168.386 435.288C167.703 436.568 166.722 437.549 165.442 438.232C164.162 438.915 162.668 439.256 160.962 439.256ZM160.962 435.576C162.156 435.576 163.063 435.181 163.682 434.392C164.322 433.603 164.642 432.408 164.642 430.808C164.642 429.229 164.322 428.045 163.682 427.256C163.063 426.445 162.156 426.04 160.962 426.04C159.746 426.04 158.818 426.445 158.178 427.256C157.538 428.045 157.218 429.229 157.218 430.808C157.218 433.987 158.466 435.576 160.962 435.576ZM189.786 422.776V439H185.018V436.6C184.527 437.432 183.834 438.083 182.938 438.552C182.042 439.021 181.029 439.256 179.898 439.256C178.49 439.256 177.242 438.915 176.154 438.232C175.087 437.549 174.245 436.579 173.626 435.32C173.029 434.04 172.73 432.568 172.73 430.904C172.73 429.24 173.029 427.757 173.626 426.456C174.245 425.155 175.098 424.152 176.186 423.448C177.274 422.723 178.511 422.36 179.898 422.36C181.029 422.36 182.042 422.605 182.938 423.096C183.834 423.587 184.527 424.248 185.018 425.08V422.776H189.786ZM181.306 435.576C182.501 435.576 183.418 435.171 184.058 434.36C184.698 433.549 185.018 432.376 185.018 430.84C185.018 429.304 184.698 428.131 184.058 427.32C183.418 426.488 182.501 426.072 181.306 426.072C180.111 426.072 179.183 426.499 178.522 427.352C177.861 428.205 177.53 429.389 177.53 430.904C177.53 432.419 177.85 433.581 178.49 434.392C179.151 435.181 180.09 435.576 181.306 435.576ZM210.942 415.448V439H206.174V436.6C205.684 437.432 204.99 438.083 204.094 438.552C203.198 439.021 202.185 439.256 201.054 439.256C199.668 439.256 198.43 438.904 197.342 438.2C196.254 437.475 195.401 436.472 194.782 435.192C194.185 433.891 193.886 432.408 193.886 430.744C193.886 429.08 194.185 427.619 194.782 426.36C195.401 425.08 196.244 424.099 197.31 423.416C198.398 422.712 199.646 422.36 201.054 422.36C202.142 422.36 203.134 422.595 204.03 423.064C204.926 423.512 205.62 424.141 206.11 424.952V415.448H210.942ZM202.462 435.576C203.657 435.576 204.574 435.171 205.214 434.36C205.854 433.528 206.174 432.344 206.174 430.808C206.174 429.293 205.844 428.131 205.182 427.32C204.542 426.488 203.636 426.072 202.462 426.072C201.268 426.072 200.34 426.477 199.678 427.288C199.017 428.099 198.686 429.251 198.686 430.744C198.686 432.28 199.017 433.475 199.678 434.328C200.34 435.16 201.268 435.576 202.462 435.576ZM215.843 422.776H220.675V439H215.843V422.776ZM220.835 415.16V419.704H215.683V415.16H220.835ZM235.64 422.36C239.48 422.36 241.4 424.632 241.4 429.176V439H236.568V429.4C236.568 428.269 236.355 427.448 235.928 426.936C235.523 426.403 234.872 426.136 233.976 426.136C232.909 426.136 232.056 426.477 231.416 427.16C230.776 427.843 230.456 428.76 230.456 429.912V439H225.624V427.416C225.624 425.688 225.539 424.141 225.368 422.776H229.912L230.232 425.336C230.808 424.376 231.555 423.64 232.472 423.128C233.411 422.616 234.467 422.36 235.64 422.36ZM262.665 422.776V438.264C262.665 440.845 261.918 442.808 260.425 444.152C258.932 445.496 256.756 446.168 253.897 446.168C251.316 446.168 249.076 445.667 247.177 444.664L247.913 441.08C249.876 442.061 251.817 442.552 253.737 442.552C255.124 442.552 256.158 442.221 256.841 441.56C257.524 440.92 257.865 439.939 257.865 438.616V435.8C257.353 436.589 256.638 437.251 255.721 437.784C254.804 438.296 253.79 438.552 252.681 438.552C251.273 438.552 250.025 438.221 248.937 437.56C247.849 436.877 246.996 435.928 246.377 434.712C245.758 433.475 245.449 432.056 245.449 430.456C245.449 428.856 245.758 427.448 246.377 426.232C246.996 424.995 247.849 424.045 248.937 423.384C250.025 422.701 251.273 422.36 252.681 422.36C253.812 422.36 254.836 422.605 255.753 423.096C256.67 423.587 257.374 424.248 257.865 425.08V422.776H262.665ZM254.089 434.872C255.262 434.872 256.18 434.488 256.841 433.72C257.524 432.931 257.865 431.843 257.865 430.456C257.865 429.091 257.534 428.024 256.873 427.256C256.212 426.467 255.284 426.072 254.089 426.072C252.894 426.072 251.956 426.467 251.273 427.256C250.59 428.024 250.249 429.091 250.249 430.456C250.249 431.821 250.59 432.899 251.273 433.688C251.956 434.477 252.894 434.872 254.089 434.872Z" fill="white"/>
<rect x="16" y="40" width="328" height="98" rx="8" fill="#FFF8F4"/>
<path d="M37.504 68.392V73H36.192V68.376L31.712 61.608H33.248L36.864 67.208L40.48 61.608H41.984L37.504 68.392ZM45.0604 73.112C44.303 73.112 43.6364 72.9413 43.0604 72.6C42.4844 72.2587 42.0364 71.7733 41.7164 71.144C41.407 70.5147 41.2524 69.7787 41.2524 68.936C41.2524 68.0933 41.407 67.3573 41.7164 66.728C42.0364 66.0987 42.4844 65.6133 43.0604 65.272C43.6364 64.9307 44.303 64.76 45.0604 64.76C45.8177 64.76 46.4844 64.9307 47.0604 65.272C47.6364 65.6133 48.079 66.0987 48.3884 66.728C48.7084 67.3573 48.8684 68.0933 48.8684 68.936C48.8684 69.7787 48.7084 70.5147 48.3884 71.144C48.079 71.7733 47.6364 72.2587 47.0604 72.6C46.4844 72.9413 45.8177 73.112 45.0604 73.112ZM45.0604 72.04C45.8604 72.04 46.4737 71.7787 46.9004 71.256C47.327 70.7227 47.5404 69.9493 47.5404 68.936C47.5404 67.9547 47.3217 67.1973 46.8844 66.664C46.447 66.12 45.839 65.848 45.0604 65.848C44.271 65.848 43.6577 66.12 43.2204 66.664C42.783 67.1973 42.5644 67.9547 42.5644 68.936C42.5644 69.9493 42.7777 70.7227 43.2044 71.256C43.6417 71.7787 44.2604 72.04 45.0604 72.04ZM57.6246 64.952V73H56.3606V71.608C56.1046 72.0987 55.7473 72.472 55.2886 72.728C54.83 72.984 54.3126 73.112 53.7366 73.112C52.7873 73.112 52.0673 72.8453 51.5766 72.312C51.086 71.7787 50.8406 70.9893 50.8406 69.944V64.952H52.1366V69.912C52.1366 70.6373 52.286 71.1707 52.5846 71.512C52.8833 71.8533 53.3366 72.024 53.9446 72.024C54.6593 72.024 55.2353 71.7947 55.6726 71.336C56.11 70.8667 56.3286 70.2533 56.3286 69.496V64.952H57.6246ZM67.6709 73.112C66.8922 73.112 66.2095 72.9413 65.6229 72.6C65.0469 72.2587 64.5989 71.7787 64.2789 71.16C63.9695 70.5307 63.8149 69.8 63.8149 68.968C63.8149 68.136 63.9749 67.4053 64.2949 66.776C64.6149 66.136 65.0682 65.64 65.6549 65.288C66.2522 64.936 66.9455 64.76 67.7349 64.76C68.2789 64.76 68.8015 64.856 69.3029 65.048C69.8149 65.2293 70.2362 65.4853 70.5669 65.816L70.1349 66.776C69.7295 66.456 69.3349 66.2213 68.9509 66.072C68.5775 65.9227 68.1935 65.848 67.7989 65.848C66.9775 65.848 66.3322 66.1253 65.8629 66.68C65.3935 67.224 65.1589 67.9867 65.1589 68.968C65.1589 69.9387 65.3882 70.696 65.8469 71.24C66.3162 71.7733 66.9669 72.04 67.7989 72.04C68.1935 72.04 68.5775 71.9653 68.9509 71.816C69.3349 71.6667 69.7295 71.432 70.1349 71.112L70.5669 72.072C70.2255 72.392 69.7935 72.648 69.2709 72.84C68.7589 73.0213 68.2255 73.112 67.6709 73.112ZM79.3048 64.952V73H78.0248V71.544C77.7901 72.0453 77.4328 72.4347 76.9528 72.712C76.4834 72.9787 75.9341 73.112 75.3048 73.112C74.5901 73.112 73.9608 72.9413 73.4168 72.6C72.8834 72.2587 72.4674 71.7787 72.1688 71.16C71.8808 70.5307 71.7368 69.8 71.7368 68.968C71.7368 68.136 71.8861 67.4053 72.1848 66.776C72.4834 66.136 72.8994 65.64 73.4328 65.288C73.9768 64.936 74.6008 64.76 75.3048 64.76C75.9341 64.76 76.4834 64.8987 76.9528 65.176C77.4221 65.4533 77.7794 65.8427 78.0248 66.344V64.952H79.3048ZM75.5608 72.04C76.3501 72.04 76.9581 71.7733 77.3848 71.24C77.8114 70.696 78.0248 69.928 78.0248 68.936C78.0248 67.944 77.8114 67.1813 77.3848 66.648C76.9581 66.1147 76.3501 65.848 75.5608 65.848C74.7714 65.848 74.1528 66.1253 73.7048 66.68C73.2674 67.224 73.0488 67.9867 73.0488 68.968C73.0488 69.9493 73.2674 70.7067 73.7048 71.24C74.1421 71.7733 74.7608 72.04 75.5608 72.04ZM85.8265 64.76C87.7572 64.76 88.7225 65.8213 88.7225 67.944V73H87.4265V68.008C87.4265 67.2613 87.2772 66.7173 86.9785 66.376C86.6798 66.024 86.2105 65.848 85.5705 65.848C84.8238 65.848 84.2265 66.0773 83.7785 66.536C83.3305 66.9947 83.1065 67.6133 83.1065 68.392V73H81.8105V67.208C81.8105 66.376 81.7678 65.624 81.6825 64.952H82.9145L83.0425 66.392C83.2878 65.8693 83.6558 65.4693 84.1465 65.192C84.6372 64.904 85.1972 64.76 85.8265 64.76ZM99.3578 64.76C101.288 64.76 102.254 65.8213 102.254 67.944V73H100.958V68.008C100.958 67.2613 100.808 66.7173 100.51 66.376C100.211 66.024 99.7418 65.848 99.1018 65.848C98.3551 65.848 97.7578 66.0773 97.3098 66.536C96.8618 66.9947 96.6378 67.6133 96.6378 68.392V73H95.3418V67.208C95.3418 66.376 95.2991 65.624 95.2138 64.952H96.4457L96.5738 66.392C96.8191 65.8693 97.1871 65.4693 97.6778 65.192C98.1684 64.904 98.7284 64.76 99.3578 64.76ZM108.029 73.112C107.272 73.112 106.605 72.9413 106.029 72.6C105.453 72.2587 105.005 71.7733 104.685 71.144C104.376 70.5147 104.221 69.7787 104.221 68.936C104.221 68.0933 104.376 67.3573 104.685 66.728C105.005 66.0987 105.453 65.6133 106.029 65.272C106.605 64.9307 107.272 64.76 108.029 64.76C108.786 64.76 109.453 64.9307 110.029 65.272C110.605 65.6133 111.048 66.0987 111.357 66.728C111.677 67.3573 111.837 68.0933 111.837 68.936C111.837 69.7787 111.677 70.5147 111.357 71.144C111.048 71.7733 110.605 72.2587 110.029 72.6C109.453 72.9413 108.786 73.112 108.029 73.112ZM108.029 72.04C108.829 72.04 109.442 71.7787 109.869 71.256C110.296 70.7227 110.509 69.9493 110.509 68.936C110.509 67.9547 110.29 67.1973 109.853 66.664C109.416 66.12 108.808 65.848 108.029 65.848C107.24 65.848 106.626 66.12 106.189 66.664C105.752 67.1973 105.533 67.9547 105.533 68.936C105.533 69.9493 105.746 70.7227 106.173 71.256C106.61 71.7787 107.229 72.04 108.029 72.04ZM125.988 64.952L123.012 73H121.764L119.46 66.712L117.172 73H115.924L112.948 64.952H114.308L116.58 71.448L118.932 64.952H120.068L122.388 71.464L124.708 64.952H125.988ZM135.858 64.76C136.562 64.76 137.186 64.936 137.73 65.288C138.274 65.64 138.695 66.136 138.994 66.776C139.292 67.4053 139.442 68.136 139.442 68.968C139.442 69.8 139.292 70.5307 138.994 71.16C138.695 71.7787 138.274 72.2587 137.73 72.6C137.196 72.9413 136.572 73.112 135.858 73.112C135.228 73.112 134.679 72.9733 134.21 72.696C133.74 72.4187 133.383 72.024 133.138 71.512V76.456H131.842V67.208C131.842 66.376 131.799 65.624 131.714 64.952H132.946L133.074 66.504C133.298 65.9493 133.65 65.5227 134.13 65.224C134.62 64.9147 135.196 64.76 135.858 64.76ZM135.618 72.04C136.407 72.04 137.015 71.7733 137.442 71.24C137.879 70.7067 138.098 69.9493 138.098 68.968C138.098 67.9867 137.879 67.224 137.442 66.68C137.004 66.1253 136.396 65.848 135.618 65.848C134.818 65.848 134.204 66.1147 133.778 66.648C133.351 67.1813 133.138 67.944 133.138 68.936C133.138 69.928 133.351 70.696 133.778 71.24C134.204 71.7733 134.818 72.04 135.618 72.04ZM148.172 64.952V73H146.908V71.608C146.652 72.0987 146.294 72.472 145.836 72.728C145.377 72.984 144.86 73.112 144.284 73.112C143.334 73.112 142.614 72.8453 142.124 72.312C141.633 71.7787 141.388 70.9893 141.388 69.944V64.952H142.684V69.912C142.684 70.6373 142.833 71.1707 143.132 71.512C143.43 71.8533 143.884 72.024 144.492 72.024C145.206 72.024 145.782 71.7947 146.22 71.336C146.657 70.8667 146.876 70.2533 146.876 69.496V64.952H148.172ZM152.398 65.976V70.376C152.398 70.9733 152.521 71.3947 152.766 71.64C153.011 71.8747 153.358 71.992 153.806 71.992C154.105 71.992 154.393 71.944 154.67 71.848V72.952C154.339 73.0587 153.966 73.112 153.55 73.112C152.782 73.112 152.179 72.8987 151.742 72.472C151.315 72.0347 151.102 71.3947 151.102 70.552V65.976H149.534V64.952H151.102V62.888L152.398 62.424V64.952H154.702V65.976H152.398ZM167.508 64.952L163.748 73.736C163.353 74.6533 162.857 75.3253 162.26 75.752C161.662 76.1787 160.926 76.472 160.052 76.632L159.78 75.624C160.537 75.4533 161.108 75.224 161.492 74.936C161.886 74.6587 162.212 74.2267 162.468 73.64L162.788 72.92L159.38 64.952H160.74L163.46 71.592L166.212 64.952H167.508ZM172.17 73.112C171.412 73.112 170.746 72.9413 170.17 72.6C169.594 72.2587 169.146 71.7733 168.826 71.144C168.516 70.5147 168.362 69.7787 168.362 68.936C168.362 68.0933 168.516 67.3573 168.826 66.728C169.146 66.0987 169.594 65.6133 170.17 65.272C170.746 64.9307 171.412 64.76 172.17 64.76C172.927 64.76 173.594 64.9307 174.17 65.272C174.746 65.6133 175.188 66.0987 175.498 66.728C175.818 67.3573 175.978 68.0933 175.978 68.936C175.978 69.7787 175.818 70.5147 175.498 71.144C175.188 71.7733 174.746 72.2587 174.17 72.6C173.594 72.9413 172.927 73.112 172.17 73.112ZM172.17 72.04C172.97 72.04 173.583 71.7787 174.01 71.256C174.436 70.7227 174.65 69.9493 174.65 68.936C174.65 67.9547 174.431 67.1973 173.994 66.664C173.556 66.12 172.948 65.848 172.17 65.848C171.38 65.848 170.767 66.12 170.33 66.664C169.892 67.1973 169.674 67.9547 169.674 68.936C169.674 69.9493 169.887 70.7227 170.314 71.256C170.751 71.7787 171.37 72.04 172.17 72.04ZM184.734 64.952V73H183.47V71.608C183.214 72.0987 182.857 72.472 182.398 72.728C181.939 72.984 181.422 73.112 180.846 73.112C179.897 73.112 179.177 72.8453 178.686 72.312C178.195 71.7787 177.95 70.9893 177.95 69.944V64.952H179.246V69.912C179.246 70.6373 179.395 71.1707 179.694 71.512C179.993 71.8533 180.446 72.024 181.054 72.024C181.769 72.024 182.345 71.7947 182.782 71.336C183.219 70.8667 183.438 70.2533 183.438 69.496V64.952H184.734ZM190.976 64.76C191.243 64.76 191.488 64.792 191.712 64.856L191.68 66.04C191.435 65.9547 191.152 65.912 190.832 65.912C190.054 65.912 189.472 66.1573 189.088 66.648C188.715 67.128 188.528 67.7147 188.528 68.408V73H187.232V67.208C187.232 66.376 187.19 65.624 187.104 64.952H188.336L188.464 66.44C188.667 65.896 188.992 65.48 189.44 65.192C189.888 64.904 190.4 64.76 190.976 64.76ZM201.217 64.76C201.921 64.76 202.545 64.936 203.089 65.288C203.633 65.64 204.054 66.136 204.353 66.776C204.652 67.4053 204.801 68.136 204.801 68.968C204.801 69.8 204.652 70.5307 204.353 71.16C204.054 71.7787 203.633 72.2587 203.089 72.6C202.556 72.9413 201.932 73.112 201.217 73.112C200.588 73.112 200.038 72.9733 199.569 72.696C199.1 72.4187 198.742 72.024 198.497 71.512V76.456H197.201V67.208C197.201 66.376 197.158 65.624 197.073 64.952H198.305L198.433 66.504C198.657 65.9493 199.009 65.5227 199.489 65.224C199.98 64.9147 200.556 64.76 201.217 64.76ZM200.977 72.04C201.766 72.04 202.374 71.7733 202.801 71.24C203.238 70.7067 203.457 69.9493 203.457 68.968C203.457 67.9867 203.238 67.224 202.801 66.68C202.364 66.1253 201.756 65.848 200.977 65.848C200.177 65.848 199.564 66.1147 199.137 66.648C198.71 67.1813 198.497 67.944 198.497 68.936C198.497 69.928 198.71 70.696 199.137 71.24C199.564 71.7733 200.177 72.04 200.977 72.04ZM210.811 64.76C212.742 64.76 213.707 65.8213 213.707 67.944V73H212.411V68.008C212.411 67.2613 212.262 66.7173 211.963 66.376C211.664 66.024 211.195 65.848 210.555 65.848C209.808 65.848 209.211 66.0773 208.763 66.536C208.315 66.9947 208.091 67.6133 208.091 68.392V73H206.795V61.224H208.091V66.264C208.347 65.7733 208.71 65.4 209.179 65.144C209.659 64.888 210.203 64.76 210.811 64.76ZM219.482 73.112C218.725 73.112 218.058 72.9413 217.482 72.6C216.906 72.2587 216.458 71.7733 216.138 71.144C215.829 70.5147 215.674 69.7787 215.674 68.936C215.674 68.0933 215.829 67.3573 216.138 66.728C216.458 66.0987 216.906 65.6133 217.482 65.272C218.058 64.9307 218.725 64.76 219.482 64.76C220.24 64.76 220.906 64.9307 221.482 65.272C222.058 65.6133 222.501 66.0987 222.81 66.728C223.13 67.3573 223.29 68.0933 223.29 68.936C223.29 69.7787 223.13 70.5147 222.81 71.144C222.501 71.7733 222.058 72.2587 221.482 72.6C220.906 72.9413 220.24 73.112 219.482 73.112ZM219.482 72.04C220.282 72.04 220.896 71.7787 221.322 71.256C221.749 70.7227 221.962 69.9493 221.962 68.936C221.962 67.9547 221.744 67.1973 221.306 66.664C220.869 66.12 220.261 65.848 219.482 65.848C218.693 65.848 218.08 66.12 217.642 66.664C217.205 67.1973 216.986 67.9547 216.986 68.936C216.986 69.9493 217.2 70.7227 217.626 71.256C218.064 71.7787 218.682 72.04 219.482 72.04ZM229.327 64.76C231.257 64.76 232.223 65.8213 232.223 67.944V73H230.927V68.008C230.927 67.2613 230.777 66.7173 230.479 66.376C230.18 66.024 229.711 65.848 229.071 65.848C228.324 65.848 227.727 66.0773 227.279 66.536C226.831 66.9947 226.607 67.6133 226.607 68.392V73H225.311V67.208C225.311 66.376 225.268 65.624 225.183 64.952H226.414L226.543 66.392C226.788 65.8693 227.156 65.4693 227.647 65.192C228.137 64.904 228.697 64.76 229.327 64.76ZM241.406 68.936H235.502C235.513 69.96 235.747 70.7333 236.206 71.256C236.675 71.7787 237.353 72.04 238.238 72.04C239.177 72.04 240.041 71.7253 240.83 71.096L241.262 72.04C240.91 72.3707 240.457 72.632 239.902 72.824C239.358 73.016 238.798 73.112 238.222 73.112C236.963 73.112 235.977 72.744 235.262 72.008C234.547 71.2613 234.19 70.2427 234.19 68.952C234.19 68.1307 234.35 67.4053 234.67 66.776C234.99 66.136 235.438 65.64 236.014 65.288C236.59 64.936 237.246 64.76 237.982 64.76C239.049 64.76 239.886 65.112 240.494 65.816C241.102 66.5093 241.406 67.4693 241.406 68.696V68.936ZM237.998 65.768C237.326 65.768 236.777 65.9707 236.35 66.376C235.934 66.7813 235.667 67.352 235.55 68.088H240.238C240.174 67.3307 239.95 66.7547 239.566 66.36C239.193 65.9653 238.67 65.768 237.998 65.768ZM254.633 61.224V73H253.353V71.544C253.118 72.0453 252.761 72.4347 252.281 72.712C251.812 72.9787 251.262 73.112 250.633 73.112C249.929 73.112 249.305 72.936 248.761 72.584C248.228 72.232 247.812 71.7413 247.513 71.112C247.214 70.472 247.065 69.736 247.065 68.904C247.065 68.072 247.209 67.3467 247.497 66.728C247.796 66.0987 248.217 65.6133 248.761 65.272C249.305 64.9307 249.929 64.76 250.633 64.76C251.262 64.76 251.812 64.8987 252.281 65.176C252.75 65.4427 253.102 65.8213 253.337 66.312V61.224H254.633ZM250.889 72.04C251.678 72.04 252.286 71.7733 252.713 71.24C253.14 70.696 253.353 69.928 253.353 68.936C253.353 67.9547 253.14 67.1973 252.713 66.664C252.286 66.12 251.678 65.848 250.889 65.848C250.1 65.848 249.481 66.1147 249.033 66.648C248.596 67.1813 248.377 67.9333 248.377 68.904C248.377 69.896 248.596 70.6693 249.033 71.224C249.481 71.768 250.1 72.04 250.889 72.04ZM260.467 73.112C259.709 73.112 259.043 72.9413 258.467 72.6C257.891 72.2587 257.443 71.7733 257.123 71.144C256.813 70.5147 256.659 69.7787 256.659 68.936C256.659 68.0933 256.813 67.3573 257.123 66.728C257.443 66.0987 257.891 65.6133 258.467 65.272C259.043 64.9307 259.709 64.76 260.467 64.76C261.224 64.76 261.891 64.9307 262.467 65.272C263.043 65.6133 263.485 66.0987 263.795 66.728C264.115 67.3573 264.275 68.0933 264.275 68.936C264.275 69.7787 264.115 70.5147 263.795 71.144C263.485 71.7733 263.043 72.2587 262.467 72.6C261.891 72.9413 261.224 73.112 260.467 73.112ZM260.467 72.04C261.267 72.04 261.88 71.7787 262.307 71.256C262.733 70.7227 262.947 69.9493 262.947 68.936C262.947 67.9547 262.728 67.1973 262.291 66.664C261.853 66.12 261.245 65.848 260.467 65.848C259.677 65.848 259.064 66.12 258.627 66.664C258.189 67.1973 257.971 67.9547 257.971 68.936C257.971 69.9493 258.184 70.7227 258.611 71.256C259.048 71.7787 259.667 72.04 260.467 72.04ZM278.425 64.952L275.449 73H274.201L271.897 66.712L269.609 73H268.361L265.385 64.952H266.745L269.017 71.448L271.369 64.952H272.505L274.825 71.464L277.145 64.952H278.425ZM284.123 64.76C286.054 64.76 287.019 65.8213 287.019 67.944V73H285.723V68.008C285.723 67.2613 285.574 66.7173 285.275 66.376C284.977 66.024 284.507 65.848 283.867 65.848C283.121 65.848 282.523 66.0773 282.075 66.536C281.627 66.9947 281.403 67.6133 281.403 68.392V73H280.107V67.208C280.107 66.376 280.065 65.624 279.979 64.952H281.211L281.339 66.392C281.585 65.8693 281.953 65.4693 282.443 65.192C282.934 64.904 283.494 64.76 284.123 64.76ZM290.891 71.352V72.52C290.891 72.968 290.816 73.3787 290.667 73.752C290.517 74.1253 290.267 74.488 289.915 74.84L289.307 74.376C289.723 73.896 289.957 73.4373 290.011 73H289.243V71.352H290.891ZM301.358 64.76C302.062 64.76 302.686 64.9307 303.23 65.272C303.774 65.6133 304.195 66.0987 304.494 66.728C304.792 67.3467 304.942 68.072 304.942 68.904C304.942 69.736 304.792 70.472 304.494 71.112C304.195 71.7413 303.774 72.232 303.23 72.584C302.686 72.936 302.062 73.112 301.358 73.112C300.728 73.112 300.179 72.9733 299.71 72.696C299.24 72.4187 298.883 72.024 298.638 71.512V73H297.342V61.224H298.638V66.376C298.872 65.8533 299.224 65.4533 299.694 65.176C300.174 64.8987 300.728 64.76 301.358 64.76ZM301.118 72.04C301.896 72.04 302.504 71.768 302.942 71.224C303.379 70.6693 303.598 69.896 303.598 68.904C303.598 67.9333 303.379 67.1813 302.942 66.648C302.515 66.1147 301.907 65.848 301.118 65.848C300.318 65.848 299.704 66.1147 299.278 66.648C298.851 67.1813 298.638 67.944 298.638 68.936C298.638 69.928 298.851 70.696 299.278 71.24C299.704 71.7733 300.318 72.04 301.118 72.04ZM313.672 64.952V73H312.408V71.608C312.152 72.0987 311.794 72.472 311.336 72.728C310.877 72.984 310.36 73.112 309.784 73.112C308.834 73.112 308.114 72.8453 307.624 72.312C307.133 71.7787 306.888 70.9893 306.888 69.944V64.952H308.184V69.912C308.184 70.6373 308.333 71.1707 308.632 71.512C308.93 71.8533 309.384 72.024 309.992 72.024C310.706 72.024 311.282 71.7947 311.72 71.336C312.157 70.8667 312.376 70.2533 312.376 69.496V64.952H313.672ZM317.898 65.976V70.376C317.898 70.9733 318.021 71.3947 318.266 71.64C318.511 71.8747 318.858 71.992 319.306 71.992C319.605 71.992 319.893 71.944 320.17 71.848V72.952C319.839 73.0587 319.466 73.112 319.05 73.112C318.282 73.112 317.679 72.8987 317.242 72.472C316.815 72.0347 316.602 71.3947 316.602 70.552V65.976H315.034V64.952H316.602V62.888L317.898 62.424V64.952H320.202V65.976H317.898ZM37.264 86.76C37.968 86.76 38.592 86.936 39.136 87.288C39.68 87.64 40.1013 88.136 40.4 88.776C40.6987 89.4053 40.848 90.136 40.848 90.968C40.848 91.8 40.6987 92.5307 40.4 93.16C40.1013 93.7787 39.68 94.2587 39.136 94.6C38.6027 94.9413 37.9787 95.112 37.264 95.112C36.6347 95.112 36.0853 94.9733 35.616 94.696C35.1467 94.4187 34.7893 94.024 34.544 93.512V98.456H33.248V89.208C33.248 88.376 33.2053 87.624 33.12 86.952H34.352L34.48 88.504C34.704 87.9493 35.056 87.5227 35.536 87.224C36.0267 86.9147 36.6027 86.76 37.264 86.76ZM37.024 94.04C37.8133 94.04 38.4213 93.7733 38.848 93.24C39.2853 92.7067 39.504 91.9493 39.504 90.968C39.504 89.9867 39.2853 89.224 38.848 88.68C38.4107 88.1253 37.8027 87.848 37.024 87.848C36.224 87.848 35.6107 88.1147 35.184 88.648C34.7573 89.1813 34.544 89.944 34.544 90.936C34.544 91.928 34.7573 92.696 35.184 93.24C35.6107 93.7733 36.224 94.04 37.024 94.04ZM42.8418 83.224H44.1378V95H42.8418V83.224ZM53.3903 90.936H47.4863C47.4969 91.96 47.7316 92.7333 48.1903 93.256C48.6596 93.7787 49.3369 94.04 50.2223 94.04C51.1609 94.04 52.0249 93.7253 52.8143 93.096L53.2463 94.04C52.8943 94.3707 52.4409 94.632 51.8863 94.824C51.3423 95.016 50.7823 95.112 50.2063 95.112C48.9476 95.112 47.9609 94.744 47.2463 94.008C46.5316 93.2613 46.1743 92.2427 46.1743 90.952C46.1743 90.1307 46.3343 89.4053 46.6543 88.776C46.9743 88.136 47.4223 87.64 47.9983 87.288C48.5743 86.936 49.2303 86.76 49.9663 86.76C51.0329 86.76 51.8703 87.112 52.4783 87.816C53.0863 88.5093 53.3903 89.4693 53.3903 90.696V90.936ZM49.9823 87.768C49.3103 87.768 48.7609 87.9707 48.3343 88.376C47.9183 88.7813 47.6516 89.352 47.5343 90.088H52.2223C52.1583 89.3307 51.9343 88.7547 51.5503 88.36C51.1769 87.9653 50.6543 87.768 49.9823 87.768ZM62.4454 86.952V95H61.1654V93.544C60.9307 94.0453 60.5734 94.4347 60.0934 94.712C59.624 94.9787 59.0747 95.112 58.4454 95.112C57.7307 95.112 57.1014 94.9413 56.5574 94.6C56.024 94.2587 55.608 93.7787 55.3094 93.16C55.0214 92.5307 54.8774 91.8 54.8774 90.968C54.8774 90.136 55.0267 89.4053 55.3254 88.776C55.624 88.136 56.04 87.64 56.5734 87.288C57.1174 86.936 57.7414 86.76 58.4454 86.76C59.0747 86.76 59.624 86.8987 60.0934 87.176C60.5627 87.4533 60.92 87.8427 61.1654 88.344V86.952H62.4454ZM58.7014 94.04C59.4907 94.04 60.0987 93.7733 60.5254 93.24C60.952 92.696 61.1654 91.928 61.1654 90.936C61.1654 89.944 60.952 89.1813 60.5254 88.648C60.0987 88.1147 59.4907 87.848 58.7014 87.848C57.912 87.848 57.2934 88.1253 56.8454 88.68C56.408 89.224 56.1894 89.9867 56.1894 90.968C56.1894 91.9493 56.408 92.7067 56.8454 93.24C57.2827 93.7733 57.9014 94.04 58.7014 94.04ZM67.6711 95.112C66.3165 95.112 65.2445 94.7653 64.4551 94.072L64.8871 93.112C65.3245 93.4533 65.7671 93.6987 66.2151 93.848C66.6631 93.9973 67.1645 94.072 67.7191 94.072C68.3271 94.072 68.7858 93.9707 69.0951 93.768C69.4151 93.5547 69.5751 93.2507 69.5751 92.856C69.5751 92.536 69.4685 92.28 69.2551 92.088C69.0418 91.896 68.6898 91.7467 68.1991 91.64L66.8391 91.32C66.1671 91.1707 65.6445 90.904 65.2711 90.52C64.9085 90.136 64.7271 89.6773 64.7271 89.144C64.7271 88.44 65.0098 87.8693 65.5751 87.432C66.1405 86.984 66.8871 86.76 67.8151 86.76C68.3805 86.76 68.9138 86.8507 69.4151 87.032C69.9165 87.2133 70.3378 87.4747 70.6791 87.816L70.2471 88.76C69.4898 88.1307 68.6791 87.816 67.8151 87.816C67.2391 87.816 66.7911 87.928 66.4711 88.152C66.1618 88.3653 66.0071 88.6693 66.0071 89.064C66.0071 89.3947 66.1031 89.656 66.2951 89.848C66.4978 90.04 66.8178 90.1893 67.2551 90.296L68.6151 90.632C69.3618 90.8027 69.9165 91.0693 70.2791 91.432C70.6418 91.784 70.8231 92.248 70.8231 92.824C70.8231 93.5173 70.5405 94.072 69.9751 94.488C69.4098 94.904 68.6418 95.112 67.6711 95.112ZM79.6246 90.936H73.7206C73.7313 91.96 73.966 92.7333 74.4246 93.256C74.894 93.7787 75.5713 94.04 76.4566 94.04C77.3953 94.04 78.2593 93.7253 79.0486 93.096L79.4806 94.04C79.1286 94.3707 78.6753 94.632 78.1206 94.824C77.5766 95.016 77.0166 95.112 76.4406 95.112C75.182 95.112 74.1953 94.744 73.4806 94.008C72.766 93.2613 72.4086 92.2427 72.4086 90.952C72.4086 90.1307 72.5686 89.4053 72.8886 88.776C73.2086 88.136 73.6566 87.64 74.2326 87.288C74.8086 86.936 75.4646 86.76 76.2006 86.76C77.2673 86.76 78.1046 87.112 78.7126 87.816C79.3206 88.5093 79.6246 89.4693 79.6246 90.696V90.936ZM76.2166 87.768C75.5446 87.768 74.9953 87.9707 74.5686 88.376C74.1526 88.7813 73.886 89.352 73.7686 90.088H78.4566C78.3926 89.3307 78.1686 88.7547 77.7846 88.36C77.4113 87.9653 76.8886 87.768 76.2166 87.768ZM92.8516 83.224V95H91.5716V93.544C91.337 94.0453 90.9796 94.4347 90.4996 94.712C90.0303 94.9787 89.481 95.112 88.8516 95.112C88.1476 95.112 87.5236 94.936 86.9796 94.584C86.4463 94.232 86.0303 93.7413 85.7316 93.112C85.433 92.472 85.2836 91.736 85.2836 90.904C85.2836 90.072 85.4276 89.3467 85.7156 88.728C86.0143 88.0987 86.4356 87.6133 86.9796 87.272C87.5236 86.9307 88.1476 86.76 88.8516 86.76C89.481 86.76 90.0303 86.8987 90.4996 87.176C90.969 87.4427 91.321 87.8213 91.5556 88.312V83.224H92.8516ZM89.1076 94.04C89.897 94.04 90.505 93.7733 90.9316 93.24C91.3583 92.696 91.5716 91.928 91.5716 90.936C91.5716 89.9547 91.3583 89.1973 90.9316 88.664C90.505 88.12 89.897 87.848 89.1076 87.848C88.3183 87.848 87.6996 88.1147 87.2516 88.648C86.8143 89.1813 86.5956 89.9333 86.5956 90.904C86.5956 91.896 86.8143 92.6693 87.2516 93.224C87.6996 93.768 88.3183 94.04 89.1076 94.04ZM98.6854 95.112C97.928 95.112 97.2614 94.9413 96.6854 94.6C96.1094 94.2587 95.6614 93.7733 95.3414 93.144C95.032 92.5147 94.8774 91.7787 94.8774 90.936C94.8774 90.0933 95.032 89.3573 95.3414 88.728C95.6614 88.0987 96.1094 87.6133 96.6854 87.272C97.2614 86.9307 97.928 86.76 98.6854 86.76C99.4427 86.76 100.109 86.9307 100.685 87.272C101.261 87.6133 101.704 88.0987 102.013 88.728C102.333 89.3573 102.493 90.0933 102.493 90.936C102.493 91.7787 102.333 92.5147 102.013 93.144C101.704 93.7733 101.261 94.2587 100.685 94.6C100.109 94.9413 99.4427 95.112 98.6854 95.112ZM98.6854 94.04C99.4854 94.04 100.099 93.7787 100.525 93.256C100.952 92.7227 101.165 91.9493 101.165 90.936C101.165 89.9547 100.947 89.1973 100.509 88.664C100.072 88.12 99.464 87.848 98.6854 87.848C97.896 87.848 97.2827 88.12 96.8454 88.664C96.408 89.1973 96.1894 89.9547 96.1894 90.936C96.1894 91.9493 96.4027 92.7227 96.8294 93.256C97.2667 93.7787 97.8854 94.04 98.6854 94.04ZM112.702 86.76C114.632 86.76 115.598 87.8213 115.598 89.944V95H114.302V90.008C114.302 89.2613 114.152 88.7173 113.854 88.376C113.555 88.024 113.086 87.848 112.446 87.848C111.699 87.848 111.102 88.0773 110.654 88.536C110.206 88.9947 109.982 89.6133 109.982 90.392V95H108.686V89.208C108.686 88.376 108.643 87.624 108.558 86.952H109.789L109.918 88.392C110.163 87.8693 110.531 87.4693 111.022 87.192C111.512 86.904 112.072 86.76 112.702 86.76ZM121.373 95.112C120.616 95.112 119.949 94.9413 119.373 94.6C118.797 94.2587 118.349 93.7733 118.029 93.144C117.72 92.5147 117.565 91.7787 117.565 90.936C117.565 90.0933 117.72 89.3573 118.029 88.728C118.349 88.0987 118.797 87.6133 119.373 87.272C119.949 86.9307 120.616 86.76 121.373 86.76C122.13 86.76 122.797 86.9307 123.373 87.272C123.949 87.6133 124.392 88.0987 124.701 88.728C125.021 89.3573 125.181 90.0933 125.181 90.936C125.181 91.7787 125.021 92.5147 124.701 93.144C124.392 93.7733 123.949 94.2587 123.373 94.6C122.797 94.9413 122.13 95.112 121.373 95.112ZM121.373 94.04C122.173 94.04 122.786 93.7787 123.213 93.256C123.64 92.7227 123.853 91.9493 123.853 90.936C123.853 89.9547 123.634 89.1973 123.197 88.664C122.76 88.12 122.152 87.848 121.373 87.848C120.584 87.848 119.97 88.12 119.533 88.664C119.096 89.1973 118.877 89.9547 118.877 90.936C118.877 91.9493 119.09 92.7227 119.517 93.256C119.954 93.7787 120.573 94.04 121.373 94.04ZM128.914 87.976V92.376C128.914 92.9733 129.036 93.3947 129.282 93.64C129.527 93.8747 129.874 93.992 130.322 93.992C130.62 93.992 130.908 93.944 131.186 93.848V94.952C130.855 95.0587 130.482 95.112 130.066 95.112C129.298 95.112 128.695 94.8987 128.258 94.472C127.831 94.0347 127.618 93.3947 127.618 92.552V87.976H126.05V86.952H127.618V84.888L128.914 84.424V86.952H131.218V87.976H128.914ZM140.327 95.112C139.548 95.112 138.866 94.9413 138.279 94.6C137.703 94.2587 137.255 93.7787 136.935 93.16C136.626 92.5307 136.471 91.8 136.471 90.968C136.471 90.136 136.631 89.4053 136.951 88.776C137.271 88.136 137.724 87.64 138.311 87.288C138.908 86.936 139.602 86.76 140.391 86.76C140.935 86.76 141.458 86.856 141.959 87.048C142.471 87.2293 142.892 87.4853 143.223 87.816L142.791 88.776C142.386 88.456 141.991 88.2213 141.607 88.072C141.234 87.9227 140.85 87.848 140.455 87.848C139.634 87.848 138.988 88.1253 138.519 88.68C138.05 89.224 137.815 89.9867 137.815 90.968C137.815 91.9387 138.044 92.696 138.503 93.24C138.972 93.7733 139.623 94.04 140.455 94.04C140.85 94.04 141.234 93.9653 141.607 93.816C141.991 93.6667 142.386 93.432 142.791 93.112L143.223 94.072C142.882 94.392 142.45 94.648 141.927 94.84C141.415 95.0213 140.882 95.112 140.327 95.112ZM144.873 83.224H146.169V95H144.873V83.224ZM152.014 95.112C151.256 95.112 150.59 94.9413 150.014 94.6C149.438 94.2587 148.99 93.7733 148.67 93.144C148.36 92.5147 148.206 91.7787 148.206 90.936C148.206 90.0933 148.36 89.3573 148.67 88.728C148.99 88.0987 149.438 87.6133 150.014 87.272C150.59 86.9307 151.256 86.76 152.014 86.76C152.771 86.76 153.438 86.9307 154.014 87.272C154.59 87.6133 155.032 88.0987 155.342 88.728C155.662 89.3573 155.822 90.0933 155.822 90.936C155.822 91.7787 155.662 92.5147 155.342 93.144C155.032 93.7733 154.59 94.2587 154.014 94.6C153.438 94.9413 152.771 95.112 152.014 95.112ZM152.014 94.04C152.814 94.04 153.427 93.7787 153.854 93.256C154.28 92.7227 154.494 91.9493 154.494 90.936C154.494 89.9547 154.275 89.1973 153.838 88.664C153.4 88.12 152.792 87.848 152.014 87.848C151.224 87.848 150.611 88.12 150.174 88.664C149.736 89.1973 149.518 89.9547 149.518 90.936C149.518 91.9493 149.731 92.7227 150.158 93.256C150.595 93.7787 151.214 94.04 152.014 94.04ZM160.562 95.112C159.207 95.112 158.135 94.7653 157.346 94.072L157.778 93.112C158.215 93.4533 158.658 93.6987 159.106 93.848C159.554 93.9973 160.055 94.072 160.61 94.072C161.218 94.072 161.676 93.9707 161.986 93.768C162.306 93.5547 162.466 93.2507 162.466 92.856C162.466 92.536 162.359 92.28 162.146 92.088C161.932 91.896 161.58 91.7467 161.09 91.64L159.73 91.32C159.058 91.1707 158.535 90.904 158.162 90.52C157.799 90.136 157.618 89.6773 157.618 89.144C157.618 88.44 157.9 87.8693 158.466 87.432C159.031 86.984 159.778 86.76 160.706 86.76C161.271 86.76 161.804 86.8507 162.306 87.032C162.807 87.2133 163.228 87.4747 163.57 87.816L163.138 88.76C162.38 88.1307 161.57 87.816 160.706 87.816C160.13 87.816 159.682 87.928 159.362 88.152C159.052 88.3653 158.898 88.6693 158.898 89.064C158.898 89.3947 158.994 89.656 159.186 89.848C159.388 90.04 159.708 90.1893 160.146 90.296L161.506 90.632C162.252 90.8027 162.807 91.0693 163.17 91.432C163.532 91.784 163.714 92.248 163.714 92.824C163.714 93.5173 163.431 94.072 162.866 94.488C162.3 94.904 161.532 95.112 160.562 95.112ZM172.515 90.936H166.611C166.622 91.96 166.857 92.7333 167.315 93.256C167.785 93.7787 168.462 94.04 169.347 94.04C170.286 94.04 171.15 93.7253 171.939 93.096L172.371 94.04C172.019 94.3707 171.566 94.632 171.011 94.824C170.467 95.016 169.907 95.112 169.331 95.112C168.073 95.112 167.086 94.744 166.371 94.008C165.657 93.2613 165.299 92.2427 165.299 90.952C165.299 90.1307 165.459 89.4053 165.779 88.776C166.099 88.136 166.547 87.64 167.123 87.288C167.699 86.936 168.355 86.76 169.091 86.76C170.158 86.76 170.995 87.112 171.603 87.816C172.211 88.5093 172.515 89.4693 172.515 90.696V90.936ZM169.107 87.768C168.435 87.768 167.886 87.9707 167.459 88.376C167.043 88.7813 166.777 89.352 166.659 90.088H171.347C171.283 89.3307 171.059 88.7547 170.675 88.36C170.302 87.9653 169.779 87.768 169.107 87.768ZM180.382 87.976V92.376C180.382 92.9733 180.505 93.3947 180.75 93.64C180.996 93.8747 181.342 93.992 181.79 93.992C182.089 93.992 182.377 93.944 182.654 93.848V94.952C182.324 95.0587 181.95 95.112 181.534 95.112C180.766 95.112 180.164 94.8987 179.726 94.472C179.3 94.0347 179.086 93.3947 179.086 92.552V87.976H177.518V86.952H179.086V84.888L180.382 84.424V86.952H182.686V87.976H180.382ZM188.264 86.76C190.195 86.76 191.16 87.8213 191.16 89.944V95H189.864V90.008C189.864 89.2613 189.715 88.7173 189.416 88.376C189.117 88.024 188.648 87.848 188.008 87.848C187.261 87.848 186.664 88.0773 186.216 88.536C185.768 88.9947 185.544 89.6133 185.544 90.392V95H184.248V83.224H185.544V88.264C185.8 87.7733 186.163 87.4 186.632 87.144C187.112 86.888 187.656 86.76 188.264 86.76ZM200.343 90.936H194.439C194.45 91.96 194.685 92.7333 195.143 93.256C195.613 93.7787 196.29 94.04 197.175 94.04C198.114 94.04 198.978 93.7253 199.767 93.096L200.199 94.04C199.847 94.3707 199.394 94.632 198.839 94.824C198.295 95.016 197.735 95.112 197.159 95.112C195.901 95.112 194.914 94.744 194.199 94.008C193.485 93.2613 193.127 92.2427 193.127 90.952C193.127 90.1307 193.287 89.4053 193.607 88.776C193.927 88.136 194.375 87.64 194.951 87.288C195.527 86.936 196.183 86.76 196.919 86.76C197.986 86.76 198.823 87.112 199.431 87.816C200.039 88.5093 200.343 89.4693 200.343 90.696V90.936ZM196.935 87.768C196.263 87.768 195.714 87.9707 195.287 88.376C194.871 88.7813 194.605 89.352 194.487 90.088H199.175C199.111 89.3307 198.887 88.7547 198.503 88.36C198.13 87.9653 197.607 87.768 196.935 87.768ZM213.57 86.952V95H212.29V93.544C212.056 94.0453 211.698 94.4347 211.218 94.712C210.749 94.9787 210.2 95.112 209.57 95.112C208.856 95.112 208.226 94.9413 207.682 94.6C207.149 94.2587 206.733 93.7787 206.434 93.16C206.146 92.5307 206.002 91.8 206.002 90.968C206.002 90.136 206.152 89.4053 206.45 88.776C206.749 88.136 207.165 87.64 207.698 87.288C208.242 86.936 208.866 86.76 209.57 86.76C210.2 86.76 210.749 86.8987 211.218 87.176C211.688 87.4533 212.045 87.8427 212.29 88.344V86.952H213.57ZM209.826 94.04C210.616 94.04 211.224 93.7733 211.65 93.24C212.077 92.696 212.29 91.928 212.29 90.936C212.29 89.944 212.077 89.1813 211.65 88.648C211.224 88.1147 210.616 87.848 209.826 87.848C209.037 87.848 208.418 88.1253 207.97 88.68C207.533 89.224 207.314 89.9867 207.314 90.968C207.314 91.9493 207.533 92.7067 207.97 93.24C208.408 93.7733 209.026 94.04 209.826 94.04ZM220.092 86.76C220.796 86.76 221.42 86.936 221.964 87.288C222.508 87.64 222.929 88.136 223.228 88.776C223.527 89.4053 223.676 90.136 223.676 90.968C223.676 91.8 223.527 92.5307 223.228 93.16C222.929 93.7787 222.508 94.2587 221.964 94.6C221.431 94.9413 220.807 95.112 220.092 95.112C219.463 95.112 218.913 94.9733 218.444 94.696C217.975 94.4187 217.617 94.024 217.372 93.512V98.456H216.076V89.208C216.076 88.376 216.033 87.624 215.948 86.952H217.18L217.308 88.504C217.532 87.9493 217.884 87.5227 218.364 87.224C218.855 86.9147 219.431 86.76 220.092 86.76ZM219.852 94.04C220.641 94.04 221.249 93.7733 221.676 93.24C222.113 92.7067 222.332 91.9493 222.332 90.968C222.332 89.9867 222.113 89.224 221.676 88.68C221.239 88.1253 220.631 87.848 219.852 87.848C219.052 87.848 218.439 88.1147 218.012 88.648C217.585 89.1813 217.372 89.944 217.372 90.936C217.372 91.928 217.585 92.696 218.012 93.24C218.439 93.7733 219.052 94.04 219.852 94.04ZM229.686 86.76C230.39 86.76 231.014 86.936 231.558 87.288C232.102 87.64 232.523 88.136 232.822 88.776C233.121 89.4053 233.27 90.136 233.27 90.968C233.27 91.8 233.121 92.5307 232.822 93.16C232.523 93.7787 232.102 94.2587 231.558 94.6C231.025 94.9413 230.401 95.112 229.686 95.112C229.057 95.112 228.507 94.9733 228.038 94.696C227.569 94.4187 227.211 94.024 226.966 93.512V98.456H225.67V89.208C225.67 88.376 225.627 87.624 225.542 86.952H226.774L226.902 88.504C227.126 87.9493 227.478 87.5227 227.958 87.224C228.449 86.9147 229.025 86.76 229.686 86.76ZM229.446 94.04C230.235 94.04 230.843 93.7733 231.27 93.24C231.707 92.7067 231.926 91.9493 231.926 90.968C231.926 89.9867 231.707 89.224 231.27 88.68C230.833 88.1253 230.225 87.848 229.446 87.848C228.646 87.848 228.033 88.1147 227.606 88.648C227.179 89.1813 226.966 89.944 226.966 90.936C226.966 91.928 227.179 92.696 227.606 93.24C228.033 93.7733 228.646 94.04 229.446 94.04ZM243.452 86.76C244.156 86.76 244.78 86.9307 245.324 87.272C245.868 87.6133 246.289 88.0987 246.588 88.728C246.886 89.3467 247.036 90.072 247.036 90.904C247.036 91.736 246.886 92.472 246.588 93.112C246.289 93.7413 245.868 94.232 245.324 94.584C244.78 94.936 244.156 95.112 243.452 95.112C242.822 95.112 242.273 94.9733 241.804 94.696C241.334 94.4187 240.977 94.024 240.732 93.512V95H239.436V83.224H240.732V88.376C240.966 87.8533 241.318 87.4533 241.788 87.176C242.268 86.8987 242.822 86.76 243.452 86.76ZM243.212 94.04C243.99 94.04 244.598 93.768 245.036 93.224C245.473 92.6693 245.692 91.896 245.692 90.904C245.692 89.9333 245.473 89.1813 245.036 88.648C244.609 88.1147 244.001 87.848 243.212 87.848C242.412 87.848 241.798 88.1147 241.372 88.648C240.945 89.1813 240.732 89.944 240.732 90.936C240.732 91.928 240.945 92.696 241.372 93.24C241.798 93.7733 242.412 94.04 243.212 94.04ZM255.765 90.936H249.861C249.872 91.96 250.107 92.7333 250.565 93.256C251.035 93.7787 251.712 94.04 252.597 94.04C253.536 94.04 254.4 93.7253 255.189 93.096L255.621 94.04C255.269 94.3707 254.816 94.632 254.261 94.824C253.717 95.016 253.157 95.112 252.581 95.112C251.323 95.112 250.336 94.744 249.621 94.008C248.907 93.2613 248.549 92.2427 248.549 90.952C248.549 90.1307 248.709 89.4053 249.029 88.776C249.349 88.136 249.797 87.64 250.373 87.288C250.949 86.936 251.605 86.76 252.341 86.76C253.408 86.76 254.245 87.112 254.853 87.816C255.461 88.5093 255.765 89.4693 255.765 90.696V90.936ZM252.357 87.768C251.685 87.768 251.136 87.9707 250.709 88.376C250.293 88.7813 250.027 89.352 249.909 90.088H254.597C254.533 89.3307 254.309 88.7547 253.925 88.36C253.552 87.9653 253.029 87.768 252.357 87.768ZM260.805 84.28C260.378 84.28 260.042 84.4027 259.797 84.648C259.562 84.8827 259.445 85.2933 259.445 85.88V86.952H261.413V87.976H259.445V95H258.149V87.976H256.581V86.952H258.149V85.72C258.149 84.8773 258.357 84.2427 258.773 83.816C259.199 83.3787 259.791 83.16 260.549 83.16C260.922 83.16 261.285 83.208 261.637 83.304V84.408C261.338 84.3227 261.061 84.28 260.805 84.28ZM266.357 95.112C265.6 95.112 264.933 94.9413 264.357 94.6C263.781 94.2587 263.333 93.7733 263.013 93.144C262.704 92.5147 262.549 91.7787 262.549 90.936C262.549 90.0933 262.704 89.3573 263.013 88.728C263.333 88.0987 263.781 87.6133 264.357 87.272C264.933 86.9307 265.6 86.76 266.357 86.76C267.115 86.76 267.781 86.9307 268.357 87.272C268.933 87.6133 269.376 88.0987 269.685 88.728C270.005 89.3573 270.165 90.0933 270.165 90.936C270.165 91.7787 270.005 92.5147 269.685 93.144C269.376 93.7733 268.933 94.2587 268.357 94.6C267.781 94.9413 267.115 95.112 266.357 95.112ZM266.357 94.04C267.157 94.04 267.771 93.7787 268.197 93.256C268.624 92.7227 268.837 91.9493 268.837 90.936C268.837 89.9547 268.619 89.1973 268.181 88.664C267.744 88.12 267.136 87.848 266.357 87.848C265.568 87.848 264.955 88.12 264.517 88.664C264.08 89.1973 263.861 89.9547 263.861 90.936C263.861 91.9493 264.075 92.7227 264.501 93.256C264.939 93.7787 265.557 94.04 266.357 94.04ZM275.93 86.76C276.196 86.76 276.442 86.792 276.666 86.856L276.634 88.04C276.388 87.9547 276.106 87.912 275.786 87.912C275.007 87.912 274.426 88.1573 274.042 88.648C273.668 89.128 273.482 89.7147 273.482 90.408V95H272.186V89.208C272.186 88.376 272.143 87.624 272.058 86.952H273.289L273.418 88.44C273.62 87.896 273.946 87.48 274.394 87.192C274.842 86.904 275.354 86.76 275.93 86.76ZM284.562 90.936H278.658C278.669 91.96 278.903 92.7333 279.362 93.256C279.831 93.7787 280.509 94.04 281.394 94.04C282.333 94.04 283.197 93.7253 283.986 93.096L284.418 94.04C284.066 94.3707 283.613 94.632 283.058 94.824C282.514 95.016 281.954 95.112 281.378 95.112C280.119 95.112 279.133 94.744 278.418 94.008C277.703 93.2613 277.346 92.2427 277.346 90.952C277.346 90.1307 277.506 89.4053 277.826 88.776C278.146 88.136 278.594 87.64 279.17 87.288C279.746 86.936 280.402 86.76 281.138 86.76C282.205 86.76 283.042 87.112 283.65 87.816C284.258 88.5093 284.562 89.4693 284.562 90.696V90.936ZM281.154 87.768C280.482 87.768 279.933 87.9707 279.506 88.376C279.09 88.7813 278.823 89.352 278.706 90.088H283.394C283.33 89.3307 283.106 88.7547 282.722 88.36C282.349 87.9653 281.826 87.768 281.154 87.768ZM292.429 87.976V92.376C292.429 92.9733 292.552 93.3947 292.797 93.64C293.042 93.8747 293.389 93.992 293.837 93.992C294.136 93.992 294.424 93.944 294.701 93.848V94.952C294.37 95.0587 293.997 95.112 293.581 95.112C292.813 95.112 292.21 94.8987 291.773 94.472C291.346 94.0347 291.133 93.3947 291.133 92.552V87.976H289.565V86.952H291.133V84.888L292.429 84.424V86.952H294.733V87.976H292.429ZM300.311 86.76C302.242 86.76 303.207 87.8213 303.207 89.944V95H301.911V90.008C301.911 89.2613 301.762 88.7173 301.463 88.376C301.164 88.024 300.695 87.848 300.055 87.848C299.308 87.848 298.711 88.0773 298.263 88.536C297.815 88.9947 297.591 89.6133 297.591 90.392V95H296.295V83.224H297.591V88.264C297.847 87.7733 298.21 87.4 298.679 87.144C299.159 86.888 299.703 86.76 300.311 86.76ZM312.39 90.936H306.486C306.497 91.96 306.732 92.7333 307.19 93.256C307.66 93.7787 308.337 94.04 309.222 94.04C310.161 94.04 311.025 93.7253 311.814 93.096L312.246 94.04C311.894 94.3707 311.441 94.632 310.886 94.824C310.342 95.016 309.782 95.112 309.206 95.112C307.948 95.112 306.961 94.744 306.246 94.008C305.532 93.2613 305.174 92.2427 305.174 90.952C305.174 90.1307 305.334 89.4053 305.654 88.776C305.974 88.136 306.422 87.64 306.998 87.288C307.574 86.936 308.23 86.76 308.966 86.76C310.033 86.76 310.87 87.112 311.478 87.816C312.086 88.5093 312.39 89.4693 312.39 90.696V90.936ZM308.982 87.768C308.31 87.768 307.761 87.9707 307.334 88.376C306.918 88.7813 306.652 89.352 306.534 90.088H311.222C311.158 89.3307 310.934 88.7547 310.55 88.36C310.177 87.9653 309.654 87.768 308.982 87.768ZM39.984 108.952V117H38.72V115.608C38.464 116.099 38.1067 116.472 37.648 116.728C37.1893 116.984 36.672 117.112 36.096 117.112C35.1467 117.112 34.4267 116.845 33.936 116.312C33.4453 115.779 33.2 114.989 33.2 113.944V108.952H34.496V113.912C34.496 114.637 34.6453 115.171 34.944 115.512C35.2427 115.853 35.696 116.024 36.304 116.024C37.0187 116.024 37.5947 115.795 38.032 115.336C38.4693 114.867 38.688 114.253 38.688 113.496V108.952H39.984ZM46.4984 108.76C47.2024 108.76 47.8264 108.936 48.3704 109.288C48.9144 109.64 49.3357 110.136 49.6344 110.776C49.933 111.405 50.0824 112.136 50.0824 112.968C50.0824 113.8 49.933 114.531 49.6344 115.16C49.3357 115.779 48.9144 116.259 48.3704 116.6C47.837 116.941 47.213 117.112 46.4984 117.112C45.869 117.112 45.3197 116.973 44.8504 116.696C44.381 116.419 44.0237 116.024 43.7784 115.512V120.456H42.4824V111.208C42.4824 110.376 42.4397 109.624 42.3544 108.952H43.5864L43.7144 110.504C43.9384 109.949 44.2904 109.523 44.7704 109.224C45.261 108.915 45.837 108.76 46.4984 108.76ZM46.2584 116.04C47.0477 116.04 47.6557 115.773 48.0824 115.24C48.5197 114.707 48.7384 113.949 48.7384 112.968C48.7384 111.987 48.5197 111.224 48.0824 110.68C47.645 110.125 47.037 109.848 46.2584 109.848C45.4584 109.848 44.845 110.115 44.4184 110.648C43.9917 111.181 43.7784 111.944 43.7784 112.936C43.7784 113.928 43.9917 114.696 44.4184 115.24C44.845 115.773 45.4584 116.04 46.2584 116.04ZM52.0761 105.224H53.3721V117H52.0761V105.224ZM59.2166 117.112C58.4593 117.112 57.7926 116.941 57.2166 116.6C56.6406 116.259 56.1926 115.773 55.8726 115.144C55.5633 114.515 55.4086 113.779 55.4086 112.936C55.4086 112.093 55.5633 111.357 55.8726 110.728C56.1926 110.099 56.6406 109.613 57.2166 109.272C57.7926 108.931 58.4593 108.76 59.2166 108.76C59.974 108.76 60.6406 108.931 61.2166 109.272C61.7926 109.613 62.2353 110.099 62.5446 110.728C62.8646 111.357 63.0246 112.093 63.0246 112.936C63.0246 113.779 62.8646 114.515 62.5446 115.144C62.2353 115.773 61.7926 116.259 61.2166 116.6C60.6406 116.941 59.974 117.112 59.2166 117.112ZM59.2166 116.04C60.0166 116.04 60.63 115.779 61.0566 115.256C61.4833 114.723 61.6966 113.949 61.6966 112.936C61.6966 111.955 61.478 111.197 61.0406 110.664C60.6033 110.12 59.9953 109.848 59.2166 109.848C58.4273 109.848 57.814 110.12 57.3766 110.664C56.9393 111.197 56.7206 111.955 56.7206 112.936C56.7206 113.949 56.934 114.723 57.3606 115.256C57.798 115.779 58.4166 116.04 59.2166 116.04ZM72.1329 108.952V117H70.8529V115.544C70.6182 116.045 70.2609 116.435 69.7809 116.712C69.3115 116.979 68.7622 117.112 68.1329 117.112C67.4182 117.112 66.7889 116.941 66.2449 116.6C65.7115 116.259 65.2955 115.779 64.9969 115.16C64.7089 114.531 64.5649 113.8 64.5649 112.968C64.5649 112.136 64.7142 111.405 65.0129 110.776C65.3115 110.136 65.7275 109.64 66.2609 109.288C66.8049 108.936 67.4289 108.76 68.1329 108.76C68.7622 108.76 69.3115 108.899 69.7809 109.176C70.2502 109.453 70.6075 109.843 70.8529 110.344V108.952H72.1329ZM68.3889 116.04C69.1782 116.04 69.7862 115.773 70.2129 115.24C70.6395 114.696 70.8529 113.928 70.8529 112.936C70.8529 111.944 70.6395 111.181 70.2129 110.648C69.7862 110.115 69.1782 109.848 68.3889 109.848C67.5995 109.848 66.9809 110.125 66.5329 110.68C66.0955 111.224 65.8769 111.987 65.8769 112.968C65.8769 113.949 66.0955 114.707 66.5329 115.24C66.9702 115.773 67.5889 116.04 68.3889 116.04ZM81.7266 105.224V117H80.4466V115.544C80.212 116.045 79.8546 116.435 79.3746 116.712C78.9053 116.979 78.356 117.112 77.7266 117.112C77.0226 117.112 76.3986 116.936 75.8546 116.584C75.3213 116.232 74.9053 115.741 74.6066 115.112C74.308 114.472 74.1586 113.736 74.1586 112.904C74.1586 112.072 74.3026 111.347 74.5906 110.728C74.8893 110.099 75.3106 109.613 75.8546 109.272C76.3986 108.931 77.0226 108.76 77.7266 108.76C78.356 108.76 78.9053 108.899 79.3746 109.176C79.844 109.443 80.196 109.821 80.4306 110.312V105.224H81.7266ZM77.9826 116.04C78.772 116.04 79.38 115.773 79.8066 115.24C80.2333 114.696 80.4466 113.928 80.4466 112.936C80.4466 111.955 80.2333 111.197 79.8066 110.664C79.38 110.12 78.772 109.848 77.9826 109.848C77.1933 109.848 76.5746 110.115 76.1266 110.648C75.6893 111.181 75.4706 111.933 75.4706 112.904C75.4706 113.896 75.6893 114.669 76.1266 115.224C76.5746 115.768 77.1933 116.04 77.9826 116.04ZM88.4043 108.952H89.7003V117H88.4043V108.952ZM89.8603 105.544V107.016H88.2763V105.544H89.8603ZM94.9368 117.112C93.5821 117.112 92.5101 116.765 91.7208 116.072L92.1528 115.112C92.5901 115.453 93.0328 115.699 93.4808 115.848C93.9288 115.997 94.4301 116.072 94.9848 116.072C95.5928 116.072 96.0514 115.971 96.3608 115.768C96.6808 115.555 96.8408 115.251 96.8408 114.856C96.8408 114.536 96.7341 114.28 96.5208 114.088C96.3074 113.896 95.9554 113.747 95.4648 113.64L94.1048 113.32C93.4328 113.171 92.9101 112.904 92.5368 112.52C92.1741 112.136 91.9928 111.677 91.9928 111.144C91.9928 110.44 92.2754 109.869 92.8408 109.432C93.4061 108.984 94.1528 108.76 95.0807 108.76C95.6461 108.76 96.1794 108.851 96.6808 109.032C97.1821 109.213 97.6034 109.475 97.9448 109.816L97.5128 110.76C96.7554 110.131 95.9448 109.816 95.0807 109.816C94.5048 109.816 94.0568 109.928 93.7368 110.152C93.4274 110.365 93.2728 110.669 93.2728 111.064C93.2728 111.395 93.3688 111.656 93.5608 111.848C93.7634 112.04 94.0834 112.189 94.5208 112.296L95.8808 112.632C96.6274 112.803 97.1821 113.069 97.5448 113.432C97.9074 113.784 98.0888 114.248 98.0888 114.824C98.0888 115.517 97.8061 116.072 97.2408 116.488C96.6754 116.904 95.9074 117.112 94.9368 117.112ZM106.054 108.952H110.998V117H109.702V109.976H106.054V117H104.758V109.976H103.19V108.952H104.758V107.88C104.758 107.229 104.854 106.707 105.046 106.312C105.249 105.917 105.574 105.629 106.022 105.448C106.47 105.267 107.078 105.176 107.846 105.176H108.358V106.184H107.958C107.403 106.184 106.993 106.232 106.726 106.328C106.47 106.424 106.294 106.611 106.198 106.888C106.102 107.155 106.054 107.571 106.054 108.136V108.952ZM111.158 105.464V106.968H109.542V105.464H111.158ZM117.514 108.76C119.445 108.76 120.41 109.821 120.41 111.944V117H119.114V112.008C119.114 111.261 118.965 110.717 118.666 110.376C118.367 110.024 117.898 109.848 117.258 109.848C116.511 109.848 115.914 110.077 115.466 110.536C115.018 110.995 114.794 111.613 114.794 112.392V117H113.498V111.208C113.498 110.376 113.455 109.624 113.37 108.952H114.602L114.73 110.392C114.975 109.869 115.343 109.469 115.834 109.192C116.325 108.904 116.885 108.76 117.514 108.76ZM122.857 108.952H124.153V117H122.857V108.952ZM124.313 105.544V107.016H122.729V105.544H124.313ZM129.39 117.112C128.035 117.112 126.963 116.765 126.174 116.072L126.606 115.112C127.043 115.453 127.486 115.699 127.934 115.848C128.382 115.997 128.883 116.072 129.438 116.072C130.046 116.072 130.505 115.971 130.814 115.768C131.134 115.555 131.294 115.251 131.294 114.856C131.294 114.536 131.187 114.28 130.974 114.088C130.761 113.896 130.409 113.747 129.918 113.64L128.558 113.32C127.886 113.171 127.363 112.904 126.99 112.52C126.627 112.136 126.446 111.677 126.446 111.144C126.446 110.44 126.729 109.869 127.294 109.432C127.859 108.984 128.606 108.76 129.534 108.76C130.099 108.76 130.633 108.851 131.134 109.032C131.635 109.213 132.057 109.475 132.398 109.816L131.966 110.76C131.209 110.131 130.398 109.816 129.534 109.816C128.958 109.816 128.51 109.928 128.19 110.152C127.881 110.365 127.726 110.669 127.726 111.064C127.726 111.395 127.822 111.656 128.014 111.848C128.217 112.04 128.537 112.189 128.974 112.296L130.334 112.632C131.081 112.803 131.635 113.069 131.998 113.432C132.361 113.784 132.542 114.248 132.542 114.824C132.542 115.517 132.259 116.072 131.694 116.488C131.129 116.904 130.361 117.112 129.39 117.112ZM138.623 108.76C140.554 108.76 141.519 109.821 141.519 111.944V117H140.223V112.008C140.223 111.261 140.074 110.717 139.775 110.376C139.477 110.024 139.007 109.848 138.367 109.848C137.621 109.848 137.023 110.077 136.575 110.536C136.127 110.995 135.903 111.613 135.903 112.392V117H134.607V105.224H135.903V110.264C136.159 109.773 136.522 109.4 136.991 109.144C137.471 108.888 138.015 108.76 138.623 108.76ZM150.703 112.936H144.799C144.809 113.96 145.044 114.733 145.503 115.256C145.972 115.779 146.649 116.04 147.535 116.04C148.473 116.04 149.337 115.725 150.127 115.096L150.559 116.04C150.207 116.371 149.753 116.632 149.199 116.824C148.655 117.016 148.095 117.112 147.519 117.112C146.26 117.112 145.273 116.744 144.559 116.008C143.844 115.261 143.487 114.243 143.487 112.952C143.487 112.131 143.647 111.405 143.967 110.776C144.287 110.136 144.735 109.64 145.311 109.288C145.887 108.936 146.543 108.76 147.279 108.76C148.345 108.76 149.183 109.112 149.791 109.816C150.399 110.509 150.703 111.469 150.703 112.696V112.936ZM147.295 109.768C146.623 109.768 146.073 109.971 145.647 110.376C145.231 110.781 144.964 111.352 144.847 112.088H149.535C149.471 111.331 149.247 110.755 148.863 110.36C148.489 109.965 147.967 109.768 147.295 109.768ZM159.758 105.224V117H158.478V115.544C158.243 116.045 157.886 116.435 157.406 116.712C156.937 116.979 156.387 117.112 155.758 117.112C155.054 117.112 154.43 116.936 153.886 116.584C153.353 116.232 152.937 115.741 152.638 115.112C152.339 114.472 152.19 113.736 152.19 112.904C152.19 112.072 152.334 111.347 152.622 110.728C152.921 110.099 153.342 109.613 153.886 109.272C154.43 108.931 155.054 108.76 155.758 108.76C156.387 108.76 156.937 108.899 157.406 109.176C157.875 109.443 158.227 109.821 158.462 110.312V105.224H159.758ZM156.014 116.04C156.803 116.04 157.411 115.773 157.838 115.24C158.265 114.696 158.478 113.928 158.478 112.936C158.478 111.955 158.265 111.197 157.838 110.664C157.411 110.12 156.803 109.848 156.014 109.848C155.225 109.848 154.606 110.115 154.158 110.648C153.721 111.181 153.502 111.933 153.502 112.904C153.502 113.896 153.721 114.669 154.158 115.224C154.606 115.768 155.225 116.04 156.014 116.04ZM163.688 115.352V117H162.04V115.352H163.688Z" fill="#2C3032"/>
<rect x="33" y="544" width="30" height="30" rx="15" fill="#272D69" stroke="#272D69" stroke-width="2"/>
<path d="M40.889 559.667L45.3335 564.111L55.1113 554.333" stroke="white" stroke-width="2" stroke-linecap="round" stroke-linejoin="round"/>
<path d="M81.408 553.608H82.72V565H81.408V553.608ZM94.301 556.76C96.0823 556.76 96.973 557.821 96.973 559.944V565H95.677V560.008C95.677 559.251 95.5437 558.701 95.277 558.36C95.021 558.019 94.5997 557.848 94.013 557.848C93.3303 557.848 92.797 558.077 92.413 558.536C92.029 558.995 91.837 559.619 91.837 560.408V565H90.541V560.008C90.541 559.261 90.4077 558.717 90.141 558.376C89.8743 558.024 89.4477 557.848 88.861 557.848C88.1783 557.848 87.6397 558.077 87.245 558.536C86.861 558.995 86.669 559.619 86.669 560.408V565H85.373V559.208C85.373 558.376 85.3303 557.624 85.245 556.952H86.477L86.605 558.36C86.829 557.848 87.1597 557.453 87.597 557.176C88.045 556.899 88.5623 556.76 89.149 556.76C89.789 556.76 90.3117 556.888 90.717 557.144C91.1223 557.4 91.421 557.795 91.613 558.328C91.8583 557.848 92.2157 557.469 92.685 557.192C93.165 556.904 93.7037 556.76 94.301 556.76ZM106.524 556.952V565H105.244V563.544C105.009 564.045 104.652 564.435 104.172 564.712C103.702 564.979 103.153 565.112 102.524 565.112C101.809 565.112 101.18 564.941 100.636 564.6C100.102 564.259 99.6862 563.779 99.3875 563.16C99.0995 562.531 98.9555 561.8 98.9555 560.968C98.9555 560.136 99.1048 559.405 99.4035 558.776C99.7022 558.136 100.118 557.64 100.652 557.288C101.196 556.936 101.82 556.76 102.524 556.76C103.153 556.76 103.702 556.899 104.172 557.176C104.641 557.453 104.998 557.843 105.244 558.344V556.952H106.524ZM102.78 564.04C103.569 564.04 104.177 563.773 104.604 563.24C105.03 562.696 105.244 561.928 105.244 560.936C105.244 559.944 105.03 559.181 104.604 558.648C104.177 558.115 103.569 557.848 102.78 557.848C101.99 557.848 101.372 558.125 100.924 558.68C100.486 559.224 100.268 559.987 100.268 560.968C100.268 561.949 100.486 562.707 100.924 563.24C101.361 563.773 101.98 564.04 102.78 564.04ZM116.197 556.952V564.936C116.197 566.131 115.888 567.032 115.269 567.64C114.661 568.259 113.76 568.568 112.565 568.568C111.339 568.568 110.283 568.291 109.397 567.736L109.621 566.68C110.133 566.968 110.613 567.176 111.061 567.304C111.52 567.432 112.021 567.496 112.565 567.496C113.344 567.496 113.931 567.288 114.325 566.872C114.72 566.467 114.917 565.859 114.917 565.048V563.144C114.672 563.656 114.309 564.056 113.829 564.344C113.36 564.621 112.8 564.76 112.149 564.76C111.445 564.76 110.816 564.595 110.261 564.264C109.717 563.933 109.296 563.464 108.997 562.856C108.699 562.248 108.549 561.549 108.549 560.76C108.549 559.971 108.699 559.272 108.997 558.664C109.296 558.056 109.717 557.587 110.261 557.256C110.816 556.925 111.445 556.76 112.149 556.76C112.789 556.76 113.344 556.899 113.813 557.176C114.293 557.453 114.656 557.843 114.901 558.344V556.952H116.197ZM112.405 563.672C113.184 563.672 113.792 563.416 114.229 562.904C114.677 562.381 114.901 561.667 114.901 560.76C114.901 559.853 114.677 559.144 114.229 558.632C113.792 558.109 113.184 557.848 112.405 557.848C111.616 557.848 110.992 558.109 110.533 558.632C110.085 559.144 109.861 559.853 109.861 560.76C109.861 561.667 110.085 562.381 110.533 562.904C110.992 563.416 111.616 563.672 112.405 563.672ZM125.422 560.936H119.518C119.528 561.96 119.763 562.733 120.222 563.256C120.691 563.779 121.368 564.04 122.254 564.04C123.192 564.04 124.056 563.725 124.846 563.096L125.278 564.04C124.926 564.371 124.472 564.632 123.918 564.824C123.374 565.016 122.814 565.112 122.238 565.112C120.979 565.112 119.992 564.744 119.278 564.008C118.563 563.261 118.206 562.243 118.206 560.952C118.206 560.131 118.366 559.405 118.686 558.776C119.006 558.136 119.454 557.64 120.03 557.288C120.606 556.936 121.262 556.76 121.998 556.76C123.064 556.76 123.902 557.112 124.51 557.816C125.118 558.509 125.422 559.469 125.422 560.696V560.936ZM122.014 557.768C121.342 557.768 120.792 557.971 120.366 558.376C119.95 558.781 119.683 559.352 119.566 560.088H124.254C124.19 559.331 123.966 558.755 123.582 558.36C123.208 557.965 122.686 557.768 122.014 557.768ZM130.109 565.112C128.754 565.112 127.682 564.765 126.893 564.072L127.325 563.112C127.762 563.453 128.205 563.699 128.653 563.848C129.101 563.997 129.602 564.072 130.157 564.072C130.765 564.072 131.223 563.971 131.533 563.768C131.853 563.555 132.013 563.251 132.013 562.856C132.013 562.536 131.906 562.28 131.693 562.088C131.479 561.896 131.127 561.747 130.637 561.64L129.277 561.32C128.605 561.171 128.082 560.904 127.709 560.52C127.346 560.136 127.165 559.677 127.165 559.144C127.165 558.44 127.447 557.869 128.013 557.432C128.578 556.984 129.325 556.76 130.253 556.76C130.818 556.76 131.351 556.851 131.853 557.032C132.354 557.213 132.775 557.475 133.117 557.816L132.685 558.76C131.927 558.131 131.117 557.816 130.253 557.816C129.677 557.816 129.229 557.928 128.909 558.152C128.599 558.365 128.445 558.669 128.445 559.064C128.445 559.395 128.541 559.656 128.733 559.848C128.935 560.04 129.255 560.189 129.693 560.296L131.053 560.632C131.799 560.803 132.354 561.069 132.717 561.432C133.079 561.784 133.261 562.248 133.261 562.824C133.261 563.517 132.978 564.072 132.413 564.488C131.847 564.904 131.079 565.112 130.109 565.112ZM144.106 565.128C142.613 565.128 141.482 564.744 140.714 563.976C139.957 563.197 139.578 562.051 139.578 560.536V553.608H140.874V560.648C140.874 561.757 141.146 562.595 141.69 563.16C142.234 563.725 143.039 564.008 144.106 564.008C145.162 564.008 145.957 563.725 146.49 563.16C147.034 562.595 147.306 561.757 147.306 560.648V553.608H148.618V560.536C148.618 562.04 148.234 563.181 147.466 563.96C146.698 564.739 145.578 565.128 144.106 565.128ZM155.217 556.76C155.921 556.76 156.545 556.936 157.089 557.288C157.633 557.64 158.054 558.136 158.353 558.776C158.652 559.405 158.801 560.136 158.801 560.968C158.801 561.8 158.652 562.531 158.353 563.16C158.054 563.779 157.633 564.259 157.089 564.6C156.556 564.941 155.932 565.112 155.217 565.112C154.588 565.112 154.038 564.973 153.569 564.696C153.1 564.419 152.742 564.024 152.497 563.512V568.456H151.201V559.208C151.201 558.376 151.158 557.624 151.073 556.952H152.305L152.433 558.504C152.657 557.949 153.009 557.523 153.489 557.224C153.98 556.915 154.556 556.76 155.217 556.76ZM154.977 564.04C155.766 564.04 156.374 563.773 156.801 563.24C157.238 562.707 157.457 561.949 157.457 560.968C157.457 559.987 157.238 559.224 156.801 558.68C156.364 558.125 155.756 557.848 154.977 557.848C154.177 557.848 153.564 558.115 153.137 558.648C152.71 559.181 152.497 559.944 152.497 560.936C152.497 561.928 152.71 562.696 153.137 563.24C153.564 563.773 154.177 564.04 154.977 564.04ZM160.795 553.224H162.091V565H160.795V553.224ZM167.935 565.112C167.178 565.112 166.511 564.941 165.935 564.6C165.359 564.259 164.911 563.773 164.591 563.144C164.282 562.515 164.127 561.779 164.127 560.936C164.127 560.093 164.282 559.357 164.591 558.728C164.911 558.099 165.359 557.613 165.935 557.272C166.511 556.931 167.178 556.76 167.935 556.76C168.693 556.76 169.359 556.931 169.935 557.272C170.511 557.613 170.954 558.099 171.263 558.728C171.583 559.357 171.743 560.093 171.743 560.936C171.743 561.779 171.583 562.515 171.263 563.144C170.954 563.773 170.511 564.259 169.935 564.6C169.359 564.941 168.693 565.112 167.935 565.112ZM167.935 564.04C168.735 564.04 169.349 563.779 169.775 563.256C170.202 562.723 170.415 561.949 170.415 560.936C170.415 559.955 170.197 559.197 169.759 558.664C169.322 558.12 168.714 557.848 167.935 557.848C167.146 557.848 166.533 558.12 166.095 558.664C165.658 559.197 165.439 559.955 165.439 560.936C165.439 561.949 165.653 562.723 166.079 563.256C166.517 563.779 167.135 564.04 167.935 564.04ZM180.852 556.952V565H179.572V563.544C179.337 564.045 178.98 564.435 178.5 564.712C178.03 564.979 177.481 565.112 176.852 565.112C176.137 565.112 175.508 564.941 174.964 564.6C174.43 564.259 174.014 563.779 173.716 563.16C173.428 562.531 173.284 561.8 173.284 560.968C173.284 560.136 173.433 559.405 173.732 558.776C174.03 558.136 174.446 557.64 174.98 557.288C175.524 556.936 176.148 556.76 176.852 556.76C177.481 556.76 178.03 556.899 178.5 557.176C178.969 557.453 179.326 557.843 179.572 558.344V556.952H180.852ZM177.108 564.04C177.897 564.04 178.505 563.773 178.932 563.24C179.358 562.696 179.572 561.928 179.572 560.936C179.572 559.944 179.358 559.181 178.932 558.648C178.505 558.115 177.897 557.848 177.108 557.848C176.318 557.848 175.7 558.125 175.252 558.68C174.814 559.224 174.596 559.987 174.596 560.968C174.596 561.949 174.814 562.707 175.252 563.24C175.689 563.773 176.308 564.04 177.108 564.04ZM190.445 553.224V565H189.165V563.544C188.931 564.045 188.573 564.435 188.093 564.712C187.624 564.979 187.075 565.112 186.445 565.112C185.741 565.112 185.117 564.936 184.573 564.584C184.04 564.232 183.624 563.741 183.325 563.112C183.027 562.472 182.877 561.736 182.877 560.904C182.877 560.072 183.021 559.347 183.309 558.728C183.608 558.099 184.029 557.613 184.573 557.272C185.117 556.931 185.741 556.76 186.445 556.76C187.075 556.76 187.624 556.899 188.093 557.176C188.563 557.443 188.915 557.821 189.149 558.312V553.224H190.445ZM186.701 564.04C187.491 564.04 188.099 563.773 188.525 563.24C188.952 562.696 189.165 561.928 189.165 560.936C189.165 559.955 188.952 559.197 188.525 558.664C188.099 558.12 187.491 557.848 186.701 557.848C185.912 557.848 185.293 558.115 184.845 558.648C184.408 559.181 184.189 559.933 184.189 560.904C184.189 561.896 184.408 562.669 184.845 563.224C185.293 563.768 185.912 564.04 186.701 564.04ZM199.687 560.936H193.783C193.794 561.96 194.028 562.733 194.487 563.256C194.956 563.779 195.634 564.04 196.519 564.04C197.458 564.04 198.322 563.725 199.111 563.096L199.543 564.04C199.191 564.371 198.738 564.632 198.183 564.824C197.639 565.016 197.079 565.112 196.503 565.112C195.244 565.112 194.258 564.744 193.543 564.008C192.828 563.261 192.471 562.243 192.471 560.952C192.471 560.131 192.631 559.405 192.951 558.776C193.271 558.136 193.719 557.64 194.295 557.288C194.871 556.936 195.527 556.76 196.263 556.76C197.33 556.76 198.167 557.112 198.775 557.816C199.383 558.509 199.687 559.469 199.687 560.696V560.936ZM196.279 557.768C195.607 557.768 195.058 557.971 194.631 558.376C194.215 558.781 193.948 559.352 193.831 560.088H198.519C198.455 559.331 198.231 558.755 197.847 558.36C197.474 557.965 196.951 557.768 196.279 557.768ZM208.742 553.224V565H207.462V563.544C207.228 564.045 206.87 564.435 206.39 564.712C205.921 564.979 205.372 565.112 204.742 565.112C204.038 565.112 203.414 564.936 202.87 564.584C202.337 564.232 201.921 563.741 201.622 563.112C201.324 562.472 201.174 561.736 201.174 560.904C201.174 560.072 201.318 559.347 201.606 558.728C201.905 558.099 202.326 557.613 202.87 557.272C203.414 556.931 204.038 556.76 204.742 556.76C205.372 556.76 205.921 556.899 206.39 557.176C206.86 557.443 207.212 557.821 207.446 558.312V553.224H208.742ZM204.998 564.04C205.788 564.04 206.396 563.773 206.822 563.24C207.249 562.696 207.462 561.928 207.462 560.936C207.462 559.955 207.249 559.197 206.822 558.664C206.396 558.12 205.788 557.848 204.998 557.848C204.209 557.848 203.59 558.115 203.142 558.648C202.705 559.181 202.486 559.933 202.486 560.904C202.486 561.896 202.705 562.669 203.142 563.224C203.59 563.768 204.209 564.04 204.998 564.04Z" fill="white"/>
<line x1="48" y1="575" x2="48" y2="591" stroke="#272D69" stroke-width="2" stroke-linecap="square"/>
<rect x="33" y="592" width="30" height="30" rx="15" fill="#272D69" stroke="#272D69" stroke-width="2"/>
<path d="M40.889 607.667L45.3335 612.111L55.1113 602.333" stroke="white" stroke-width="2" stroke-linecap="round" stroke-linejoin="round"/>
<path d="M91.136 601.608L86.16 613H85.008L80.032 601.608H81.424L85.6 611.336L89.776 601.608H91.136ZM92.4043 604.952H93.7003V613H92.4043V604.952ZM93.8603 601.544V603.016H92.2763V601.544H93.8603ZM103.305 601.224V613H102.025V611.544C101.79 612.045 101.433 612.435 100.953 612.712C100.483 612.979 99.9341 613.112 99.3048 613.112C98.6008 613.112 97.9768 612.936 97.4328 612.584C96.8994 612.232 96.4834 611.741 96.1848 611.112C95.8861 610.472 95.7368 609.736 95.7368 608.904C95.7368 608.072 95.8808 607.347 96.1688 606.728C96.4674 606.099 96.8888 605.613 97.4328 605.272C97.9768 604.931 98.6008 604.76 99.3048 604.76C99.9341 604.76 100.483 604.899 100.953 605.176C101.422 605.443 101.774 605.821 102.009 606.312V601.224H103.305ZM99.5608 612.04C100.35 612.04 100.958 611.773 101.385 611.24C101.811 610.696 102.025 609.928 102.025 608.936C102.025 607.955 101.811 607.197 101.385 606.664C100.958 606.12 100.35 605.848 99.5608 605.848C98.7714 605.848 98.1528 606.115 97.7048 606.648C97.2674 607.181 97.0488 607.933 97.0488 608.904C97.0488 609.896 97.2674 610.669 97.7048 611.224C98.1528 611.768 98.7714 612.04 99.5608 612.04ZM112.547 608.936H106.643C106.653 609.96 106.888 610.733 107.347 611.256C107.816 611.779 108.493 612.04 109.379 612.04C110.317 612.04 111.181 611.725 111.971 611.096L112.403 612.04C112.051 612.371 111.597 612.632 111.043 612.824C110.499 613.016 109.939 613.112 109.363 613.112C108.104 613.112 107.117 612.744 106.403 612.008C105.688 611.261 105.331 610.243 105.331 608.952C105.331 608.131 105.491 607.405 105.811 606.776C106.131 606.136 106.579 605.64 107.155 605.288C107.731 604.936 108.387 604.76 109.123 604.76C110.189 604.76 111.027 605.112 111.635 605.816C112.243 606.509 112.547 607.469 112.547 608.696V608.936ZM109.139 605.768C108.467 605.768 107.917 605.971 107.491 606.376C107.075 606.781 106.808 607.352 106.691 608.088H111.379C111.315 607.331 111.091 606.755 110.707 606.36C110.333 605.965 109.811 605.768 109.139 605.768ZM117.842 613.112C117.084 613.112 116.418 612.941 115.842 612.6C115.266 612.259 114.818 611.773 114.498 611.144C114.188 610.515 114.034 609.779 114.034 608.936C114.034 608.093 114.188 607.357 114.498 606.728C114.818 606.099 115.266 605.613 115.842 605.272C116.418 604.931 117.084 604.76 117.842 604.76C118.599 604.76 119.266 604.931 119.842 605.272C120.418 605.613 120.86 606.099 121.17 606.728C121.49 607.357 121.65 608.093 121.65 608.936C121.65 609.779 121.49 610.515 121.17 611.144C120.86 611.773 120.418 612.259 119.842 612.6C119.266 612.941 118.599 613.112 117.842 613.112ZM117.842 612.04C118.642 612.04 119.255 611.779 119.682 611.256C120.108 610.723 120.322 609.949 120.322 608.936C120.322 607.955 120.103 607.197 119.666 606.664C119.228 606.12 118.62 605.848 117.842 605.848C117.052 605.848 116.439 606.12 116.002 606.664C115.564 607.197 115.346 607.955 115.346 608.936C115.346 609.949 115.559 610.723 115.986 611.256C116.423 611.779 117.042 612.04 117.842 612.04ZM132.45 613.128C130.956 613.128 129.826 612.744 129.058 611.976C128.3 611.197 127.922 610.051 127.922 608.536V601.608H129.218V608.648C129.218 609.757 129.49 610.595 130.034 611.16C130.578 611.725 131.383 612.008 132.45 612.008C133.506 612.008 134.3 611.725 134.834 611.16C135.378 610.595 135.65 609.757 135.65 608.648V601.608H136.962V608.536C136.962 610.04 136.578 611.181 135.81 611.96C135.042 612.739 133.922 613.128 132.45 613.128ZM143.561 604.76C144.265 604.76 144.889 604.936 145.433 605.288C145.977 605.64 146.398 606.136 146.697 606.776C146.996 607.405 147.145 608.136 147.145 608.968C147.145 609.8 146.996 610.531 146.697 611.16C146.398 611.779 145.977 612.259 145.433 612.6C144.9 612.941 144.276 613.112 143.561 613.112C142.932 613.112 142.382 612.973 141.913 612.696C141.444 612.419 141.086 612.024 140.841 611.512V616.456H139.545V607.208C139.545 606.376 139.502 605.624 139.417 604.952H140.649L140.777 606.504C141.001 605.949 141.353 605.523 141.833 605.224C142.324 604.915 142.9 604.76 143.561 604.76ZM143.321 612.04C144.11 612.04 144.718 611.773 145.145 611.24C145.582 610.707 145.801 609.949 145.801 608.968C145.801 607.987 145.582 607.224 145.145 606.68C144.708 606.125 144.1 605.848 143.321 605.848C142.521 605.848 141.908 606.115 141.481 606.648C141.054 607.181 140.841 607.944 140.841 608.936C140.841 609.928 141.054 610.696 141.481 611.24C141.908 611.773 142.521 612.04 143.321 612.04ZM149.139 601.224H150.435V613H149.139V601.224ZM156.279 613.112C155.522 613.112 154.855 612.941 154.279 612.6C153.703 612.259 153.255 611.773 152.935 611.144C152.626 610.515 152.471 609.779 152.471 608.936C152.471 608.093 152.626 607.357 152.935 606.728C153.255 606.099 153.703 605.613 154.279 605.272C154.855 604.931 155.522 604.76 156.279 604.76C157.036 604.76 157.703 604.931 158.279 605.272C158.855 605.613 159.298 606.099 159.607 606.728C159.927 607.357 160.087 608.093 160.087 608.936C160.087 609.779 159.927 610.515 159.607 611.144C159.298 611.773 158.855 612.259 158.279 612.6C157.703 612.941 157.036 613.112 156.279 613.112ZM156.279 612.04C157.079 612.04 157.692 611.779 158.119 611.256C158.546 610.723 158.759 609.949 158.759 608.936C158.759 607.955 158.54 607.197 158.103 606.664C157.666 606.12 157.058 605.848 156.279 605.848C155.49 605.848 154.876 606.12 154.439 606.664C154.002 607.197 153.783 607.955 153.783 608.936C153.783 609.949 153.996 610.723 154.423 611.256C154.86 611.779 155.479 612.04 156.279 612.04ZM169.195 604.952V613H167.915V611.544C167.681 612.045 167.323 612.435 166.843 612.712C166.374 612.979 165.825 613.112 165.195 613.112C164.481 613.112 163.851 612.941 163.307 612.6C162.774 612.259 162.358 611.779 162.059 611.16C161.771 610.531 161.627 609.8 161.627 608.968C161.627 608.136 161.777 607.405 162.075 606.776C162.374 606.136 162.79 605.64 163.323 605.288C163.867 604.936 164.491 604.76 165.195 604.76C165.825 604.76 166.374 604.899 166.843 605.176C167.313 605.453 167.67 605.843 167.915 606.344V604.952H169.195ZM165.451 612.04C166.241 612.04 166.849 611.773 167.275 611.24C167.702 610.696 167.915 609.928 167.915 608.936C167.915 607.944 167.702 607.181 167.275 606.648C166.849 606.115 166.241 605.848 165.451 605.848C164.662 605.848 164.043 606.125 163.595 606.68C163.158 607.224 162.939 607.987 162.939 608.968C162.939 609.949 163.158 610.707 163.595 611.24C164.033 611.773 164.651 612.04 165.451 612.04ZM178.789 601.224V613H177.509V611.544C177.274 612.045 176.917 612.435 176.437 612.712C175.968 612.979 175.418 613.112 174.789 613.112C174.085 613.112 173.461 612.936 172.917 612.584C172.384 612.232 171.968 611.741 171.669 611.112C171.37 610.472 171.221 609.736 171.221 608.904C171.221 608.072 171.365 607.347 171.653 606.728C171.952 606.099 172.373 605.613 172.917 605.272C173.461 604.931 174.085 604.76 174.789 604.76C175.418 604.76 175.968 604.899 176.437 605.176C176.906 605.443 177.258 605.821 177.493 606.312V601.224H178.789ZM175.045 612.04C175.834 612.04 176.442 611.773 176.869 611.24C177.296 610.696 177.509 609.928 177.509 608.936C177.509 607.955 177.296 607.197 176.869 606.664C176.442 606.12 175.834 605.848 175.045 605.848C174.256 605.848 173.637 606.115 173.189 606.648C172.752 607.181 172.533 607.933 172.533 608.904C172.533 609.896 172.752 610.669 173.189 611.224C173.637 611.768 174.256 612.04 175.045 612.04ZM188.031 608.936H182.127C182.138 609.96 182.372 610.733 182.831 611.256C183.3 611.779 183.978 612.04 184.863 612.04C185.802 612.04 186.666 611.725 187.455 611.096L187.887 612.04C187.535 612.371 187.082 612.632 186.527 612.824C185.983 613.016 185.423 613.112 184.847 613.112C183.588 613.112 182.602 612.744 181.887 612.008C181.172 611.261 180.815 610.243 180.815 608.952C180.815 608.131 180.975 607.405 181.295 606.776C181.615 606.136 182.063 605.64 182.639 605.288C183.215 604.936 183.871 604.76 184.607 604.76C185.674 604.76 186.511 605.112 187.119 605.816C187.727 606.509 188.031 607.469 188.031 608.696V608.936ZM184.623 605.768C183.951 605.768 183.402 605.971 182.975 606.376C182.559 606.781 182.292 607.352 182.175 608.088H186.863C186.799 607.331 186.575 606.755 186.191 606.36C185.818 605.965 185.295 605.768 184.623 605.768ZM197.086 601.224V613H195.806V611.544C195.571 612.045 195.214 612.435 194.734 612.712C194.265 612.979 193.715 613.112 193.086 613.112C192.382 613.112 191.758 612.936 191.214 612.584C190.681 612.232 190.265 611.741 189.966 611.112C189.667 610.472 189.518 609.736 189.518 608.904C189.518 608.072 189.662 607.347 189.95 606.728C190.249 606.099 190.67 605.613 191.214 605.272C191.758 604.931 192.382 604.76 193.086 604.76C193.715 604.76 194.265 604.899 194.734 605.176C195.203 605.443 195.555 605.821 195.79 606.312V601.224H197.086ZM193.342 612.04C194.131 612.04 194.739 611.773 195.166 611.24C195.593 610.696 195.806 609.928 195.806 608.936C195.806 607.955 195.593 607.197 195.166 606.664C194.739 606.12 194.131 605.848 193.342 605.848C192.553 605.848 191.934 606.115 191.486 606.648C191.049 607.181 190.83 607.933 190.83 608.904C190.83 609.896 191.049 610.669 191.486 611.224C191.934 611.768 192.553 612.04 193.342 612.04Z" fill="white"/>
<rect opacity="0.1" x="-13" y="40" width="386" height="603" rx="32" fill="white"/>
<path d="M310.226 278.534C310.506 277.835 311.494 277.835 311.774 278.534L317.343 292.457C319.095 296.836 315.87 301.6 311.153 301.6H310.847C306.13 301.6 302.905 296.836 304.657 292.457L310.226 278.534Z" fill="white"/>
<path d="M317.396 265.301C317.41 264.85 317.967 264.647 318.268 264.984L324.266 271.691C326.152 273.8 325.311 277.148 322.652 278.116L322.479 278.179C319.82 279.147 317.024 277.123 317.113 274.294L317.396 265.301Z" fill="white"/>
<path d="M186.835 303.581C186.835 304.679 183.925 306.279 180.335 306.279C176.745 306.279 173.835 304.679 173.835 303.581C173.835 302.484 176.745 302.279 180.335 302.279C183.925 302.279 186.835 302.484 186.835 303.581Z" fill="#272D69"/>
<path d="M303.869 232.229C301.773 224.404 284.23 216.882 266.359 221.671C248.487 226.459 237.056 241.745 239.152 249.57C241.249 257.395 253.052 243.495 270.923 238.707C288.794 233.918 305.966 240.054 303.869 232.229Z" fill="#272D69"/>
<path d="M121.518 249.569C123.614 241.744 112.182 226.459 94.3114 221.67C76.4402 216.882 58.8973 224.403 56.8006 232.228C54.7039 240.053 71.8756 233.918 89.7467 238.706C107.618 243.495 119.421 257.394 121.518 249.569Z" fill="#272D69"/>
<path d="M138.351 293.633C134.885 294.562 131.554 302.331 133.675 310.245C135.796 318.16 142.565 323.223 146.03 322.294C149.496 321.365 143.34 316.138 141.219 308.224C139.099 300.309 141.816 292.705 138.351 293.633Z" fill="#272D69"/>
<path d="M223.838 293.633C227.303 294.562 230.634 302.331 228.514 310.245C226.393 318.16 219.624 323.223 216.158 322.294C212.693 321.365 218.848 316.138 220.969 308.224C223.09 300.309 220.372 292.705 223.838 293.633Z" fill="#272D69"/>
<path d="M246 261C246 259.343 247.343 258 249 258H291C292.657 258 294 259.343 294 261C294 262.657 292.657 264 291 264H249C247.343 264 246 262.657 246 261Z" fill="#272D69"/>
<path d="M68 261C68 259.343 69.3431 258 71 258H113C114.657 258 116 259.343 116 261C116 262.657 114.657 264 113 264H71C69.3431 264 68 262.657 68 261Z" fill="#272D69"/>
</g>
<defs>
<clipPath id="clip0_1_2003">
<rect width="360" height="780" rx="30" fill="white"/>
</clipPath>
</defs>
</svg>
