<svg width="317" height="318" viewBox="0 0 317 318" fill="none" xmlns="http://www.w3.org/2000/svg">
<path d="M273.394 232.503C275.072 223.597 275.029 214.452 273.267 205.562L297.46 147.175C297.463 147.137 297.463 147.098 297.46 147.06C301.38 136.327 307.125 126.351 314.441 117.574C315.337 116.627 315.983 115.473 316.324 114.214C316.664 112.956 316.686 111.633 316.39 110.363L306.47 67.5237C306.352 67.0761 306.175 66.6464 305.943 66.2461C305.9 66.1673 305.884 66.0722 305.842 65.9974C305.799 65.9227 305.615 65.7448 305.508 65.6073C305.292 65.291 305.043 64.9988 304.764 64.736C304.58 64.6071 304.388 64.4909 304.188 64.3883C303.93 64.1985 303.656 64.0321 303.369 63.891C302.971 63.7407 302.557 63.6395 302.134 63.5898C302.013 63.5898 301.908 63.511 301.786 63.5009C300.774 63.4331 299.763 63.6584 298.875 64.1498C298.797 64.1922 298.702 64.2084 298.623 64.2549H298.57L261.271 87.5325C260.16 88.2212 259.237 89.1756 258.586 90.3098C257.934 91.444 257.576 92.7223 257.542 94.0297C256.505 105.435 253.501 116.574 248.661 126.954V127.013L236.571 156.239C230.636 153.085 224.283 150.79 217.702 149.425C220.193 132.23 221.109 114.844 220.439 97.4824C225.308 91.6412 228.973 84.8946 231.223 77.6311C233.473 70.3676 234.264 62.7307 233.55 55.1602C230.247 24.3767 202.425 2.14215 201.237 1.20822C200.366 0.522095 199.301 0.127427 198.193 0.080128C197.086 0.0328287 195.991 0.335296 195.065 0.944678C194.139 1.55406 193.427 2.43946 193.032 3.47543C192.637 4.5114 192.578 5.64542 192.864 6.71682C195.585 16.9335 193.228 27.7142 173.134 49.884C168.721 54.1459 165.676 59.6243 164.387 65.622C163.097 71.6197 163.621 77.8655 165.893 83.5643C167.67 88.0231 170.216 92.1353 173.415 95.7136C172.137 103.874 171.132 111.603 170.441 119.131C169.249 131.581 168.942 144.1 169.521 156.593C164.809 159.148 160.396 162.223 156.367 165.759L130.747 56.1931C130.747 56.082 130.642 56.0031 130.609 55.9021C130.523 55.5528 130.399 55.2139 130.239 54.8913L104.073 6.56925C102.799 4.21627 100.786 2.34757 98.3454 1.25107C95.9046 0.154576 93.1709 -0.108869 90.5655 0.501326C87.9602 1.11152 85.6278 2.5615 83.9277 4.62785C82.2276 6.69419 81.2541 9.26225 81.1573 11.9363L79.1722 66.8465C79.1732 67.2429 79.2173 67.6381 79.3036 68.025V68.2636L105.442 179.812C101.319 179.993 97.2262 180.603 93.2297 181.632L64.4759 112.197C63.367 109.645 61.3054 107.626 58.7302 106.571C56.155 105.517 53.2698 105.509 50.6892 106.551L6.74572 124.744C4.16176 125.823 2.10965 127.88 1.03771 130.467C-0.034221 133.053 -0.0388433 135.959 1.02486 138.549L40.0197 232.618C29.0307 233.197 18.7018 238.043 11.2318 246.124C3.76181 254.204 -0.259309 264.881 0.0244333 275.882C0.308176 286.882 4.87437 297.338 12.751 305.022C20.6276 312.707 31.1926 317.014 42.1968 317.026H274.619C285.827 316.863 296.512 312.255 304.322 304.215C312.132 296.175 316.429 285.362 316.266 274.154C316.104 262.946 311.496 252.262 303.456 244.451C295.416 236.641 284.602 232.344 273.394 232.507V232.503ZM268.011 95.7742L290.155 81.9471L282.315 100.879C281.814 102.166 281.837 103.599 282.38 104.87C282.923 106.14 283.941 107.148 285.218 107.677C286.494 108.205 287.927 108.213 289.209 107.698C290.492 107.183 291.521 106.186 292.077 104.922L299.916 85.9901L305.779 111.415C299.501 119.078 294.345 127.596 290.466 136.712C287.742 137.974 284.786 138.659 281.784 138.721C278.782 138.784 275.8 138.224 273.026 137.077C270.251 135.929 267.745 134.219 265.664 132.055C263.584 129.89 261.974 127.318 260.938 124.5C264.648 115.308 267.03 105.637 268.011 95.7742ZM255.862 137.245C259.358 141.521 263.896 144.824 269.038 146.837C273.123 148.594 277.517 149.521 281.964 149.562C283.034 149.556 284.103 149.489 285.166 149.36L268.302 190.037C263.254 178.911 255.446 169.259 245.619 161.999L255.862 137.245ZM183.492 99.518L210.03 101.135C210.194 106.07 210.135 111.172 209.972 116.353C201.13 116.985 192.245 116.556 183.506 115.076C182.841 114.981 182.19 114.906 181.531 114.817C182.059 109.84 182.704 104.802 183.48 99.514L183.492 99.518ZM180.973 56.9795C194.998 41.5069 202.266 29.6063 203.958 18.4173C214.038 28.7874 220.692 42.0012 223.022 56.274C224.132 68.701 220.289 81.0634 212.331 90.6719C201.896 90.0385 191.576 89.4045 181.371 88.7697C179.202 86.7406 177.464 84.2937 176.264 81.5761C175.064 78.8585 174.426 75.9263 174.389 72.9558C174.351 69.9852 174.914 67.0378 176.045 64.2905C177.175 61.5433 178.85 59.053 180.967 56.9694L180.973 56.9795ZM180.569 125.349L182.101 125.551C188.908 126.604 195.779 127.188 202.666 127.3C204.853 127.3 207.156 127.126 209.464 126.946C208.983 133.744 208.197 140.844 207.198 148.172C205.894 148.103 204.615 147.969 203.305 147.969C195.327 147.988 187.411 149.356 179.89 152.015C179.646 143.12 179.868 134.22 180.555 125.349H180.569ZM139.714 187.122L114.625 80.4067C114.295 79.0543 113.444 77.887 112.257 77.1587C111.071 76.4304 109.645 76.1999 108.289 76.5175C106.934 76.8351 105.758 77.6749 105.019 78.8545C104.279 80.0341 104.035 81.4579 104.34 82.8164L127.897 183.095C124.16 181.759 120.3 180.798 116.374 180.227L93.1974 81.2881C96.445 82.7666 99.9711 83.5337 103.539 83.538C103.873 83.538 104.227 83.4895 104.564 83.4754C108.702 101.289 119.052 98.8651 114.844 81.0496C118.428 79.4631 121.588 77.0569 124.072 74.0248L147.643 174.807C144.582 178.627 141.925 182.754 139.714 187.122ZM107.439 72.4946C104.131 73.1361 100.709 72.8111 97.5807 71.5585C94.4528 70.3059 91.7519 68.1787 89.8013 65.4314L90.4724 46.8336C92.3105 47.1767 94.1758 47.3533 96.0457 47.3612C97.8521 47.3657 99.653 47.1622 101.413 46.7547C104.976 45.8191 108.31 44.1616 111.207 41.8849L120.102 58.3016C119.583 61.6364 118.111 64.7505 115.865 67.2693C113.619 69.7882 110.693 71.6047 107.439 72.5006V72.4946ZM92.9649 10.7901C93.3149 10.708 93.6821 10.7426 94.0106 10.8885C94.339 11.0345 94.6108 11.2839 94.7843 11.5988L106.105 32.5436C104.062 34.392 101.622 35.7475 98.9728 36.5057C96.2656 37.0025 93.4803 36.8704 90.8322 36.1196L91.6934 12.3164C91.7088 11.9578 91.8415 11.6142 92.0713 11.3384C92.301 11.0627 92.615 10.87 92.9649 10.7901ZM54.7403 116.29L58.7833 126.042L39.2394 134.128C38.1158 134.6 37.1901 135.446 36.619 136.523C36.048 137.6 35.8668 138.841 36.1062 140.036C36.3455 141.231 36.9907 142.306 37.9324 143.08C38.8741 143.853 40.0543 144.277 41.273 144.28C41.9667 144.278 42.6532 144.14 43.2945 143.876L62.8384 135.778L66.8814 145.54L57.1034 149.583C55.9732 150.05 55.0401 150.894 54.4631 151.972C53.8861 153.051 53.7012 154.296 53.9397 155.495C54.1782 156.694 54.8255 157.774 55.7711 158.549C56.7167 159.325 57.9021 159.748 59.1249 159.747C59.8186 159.744 60.5051 159.607 61.1464 159.342L70.9245 155.299L74.9675 165.061L55.4074 173.17C54.2772 173.636 53.344 174.481 52.7671 175.559C52.1901 176.637 52.0051 177.882 52.2437 179.082C52.4822 180.281 53.1295 181.361 54.0751 182.136C55.0207 182.911 56.206 183.335 57.4289 183.334C58.1226 183.331 58.8092 183.194 59.4504 182.929L78.9943 174.843L83.2678 185.153C74.7732 189.03 67.2763 194.796 61.3487 202.011C55.4211 209.225 51.2193 217.699 49.0639 226.784L10.7766 134.482L54.7403 116.29ZM274.619 306.455H42.1948C33.8329 306.389 25.8361 303.02 19.9468 297.084C14.0574 291.147 10.7528 283.124 10.7528 274.761C10.7528 266.399 14.0574 258.376 19.9468 252.439C25.8361 246.503 33.8329 243.134 42.1948 243.067C45.2556 243.057 48.3011 243.498 51.233 244.377C52.0143 244.613 52.8397 244.665 53.6443 244.528C54.449 244.391 55.211 244.07 55.8707 243.59C56.5303 243.109 57.0696 242.482 57.4463 241.758C57.8229 241.034 58.0266 240.232 58.0414 239.416C58.2256 230.183 60.9544 221.179 65.9273 213.396C70.9002 205.614 77.9244 199.355 86.2262 195.308C94.5281 191.262 103.786 189.585 112.979 190.462C122.173 191.339 130.947 194.737 138.334 200.28C138.99 200.769 139.751 201.098 140.557 201.242C141.362 201.387 142.19 201.342 142.976 201.111C143.761 200.881 144.482 200.471 145.082 199.914C145.681 199.357 146.144 198.669 146.432 197.903C151.996 183.133 163.089 171.108 177.363 164.373C191.637 157.638 207.971 156.722 222.909 161.818C237.847 166.914 250.215 177.623 257.397 191.677C264.578 205.732 266.009 222.029 261.387 237.12C261.114 238.002 261.077 238.941 261.28 239.842C261.484 240.744 261.92 241.576 262.545 242.256C263.171 242.936 263.963 243.44 264.844 243.718C265.725 243.996 266.664 244.038 267.566 243.839C269.882 243.329 272.246 243.07 274.617 243.067C282.979 243.134 290.976 246.503 296.865 252.439C302.755 258.376 306.059 266.399 306.059 274.761C306.059 283.124 302.755 291.147 296.865 297.084C290.976 303.02 282.981 306.389 274.619 306.455Z" fill="#ED037C"/>
</svg>
