<svg width="532" height="532" viewBox="0 0 532 532" fill="none" xmlns="http://www.w3.org/2000/svg">
<path d="M511.33 522C512.953 521.997 514.553 521.625 516.01 520.91C517.467 520.196 518.742 519.158 519.738 517.877C520.734 516.595 521.424 515.104 521.756 513.516C522.089 511.927 522.054 510.284 521.656 508.711L508.856 457.511C505.864 445.302 499.825 434.051 491.304 424.81C482.783 415.568 472.058 408.638 460.131 404.668L365.431 373.223C343.181 363.923 332.77 327.079 330.531 313.106C348.063 298.606 359.351 277.924 362.062 255.335C362.062 247.783 364.302 244.689 365.497 244.092C366.998 243.704 368.375 242.937 369.495 241.865C370.616 240.793 371.443 239.452 371.897 237.969C378.041 223.09 381.896 207.367 383.332 191.334C383.336 190.464 383.228 189.596 383.012 188.753C381.484 182.526 377.823 177.031 372.665 173.222V116.667C371.544 88.8213 360.011 62.4109 340.349 42.6618C320.686 22.9128 294.327 11.2642 266.486 10.021V522H511.33Z" fill="#FF8F00"/>
<path d="M10.3185 508.752L23.1185 457.552C26.1062 445.333 32.1455 434.072 40.6711 424.822C49.1966 415.573 59.9297 408.638 71.8655 404.667L165.732 373.392C188.623 363.856 199.097 326.992 201.359 312.997C183.917 298.493 172.694 277.857 169.999 255.333C170.384 251.486 169.476 247.62 167.418 244.346C165.779 243.935 164.261 243.141 162.988 242.028C161.716 240.915 160.727 239.516 160.101 237.946C153.96 223.074 150.104 207.359 148.666 191.333C148.663 190.463 148.771 189.595 148.986 188.752C150.515 182.525 154.176 177.03 159.333 173.221V116.666C159.333 82.298 169.833 68.197 180.88 60.026C182.994 43.472 200.718 10 265.994 10C293.925 11.1236 320.409 22.7222 340.175 42.4877C359.941 62.2532 371.541 88.7364 372.665 116.667V173.222C377.823 177.031 381.484 182.526 383.012 188.753C383.228 189.596 383.336 190.464 383.332 191.334C381.896 207.367 378.039 223.09 371.894 237.969C371.44 239.452 370.614 240.793 369.493 241.865C368.373 242.937 366.996 243.704 365.494 244.092C364.294 244.692 362.059 247.783 362.059 255.335C359.349 277.924 348.06 298.606 330.528 313.106C332.768 327.079 343.179 363.922 365.428 373.223L460.128 404.668C472.055 408.639 482.78 415.568 491.301 424.81C499.823 434.051 505.861 445.302 508.853 457.511L521.653 508.711C522.052 510.284 522.087 511.927 521.755 513.515C521.423 515.103 520.733 516.595 519.738 517.876C518.742 519.157 517.468 520.195 516.011 520.91C514.554 521.624 512.954 521.997 511.331 522H20.6645C19.044 522 17.4448 521.63 15.9884 520.92C14.5321 520.209 13.2568 519.176 12.2595 517.899C11.2621 516.621 10.569 515.134 10.2327 513.548C9.89634 511.963 9.9257 510.322 10.3185 508.75V508.752Z" stroke="#FF8F00" stroke-width="20"/>
</svg>
