<svg width="532" height="532" viewBox="0 0 532 532" fill="none" xmlns="http://www.w3.org/2000/svg">
<path d="M521.664 508.752L508.864 457.552C505.877 445.333 499.837 434.072 491.312 424.822C482.786 415.573 472.053 408.638 460.117 404.667L366.25 373.392C343.359 363.856 332.885 326.992 330.623 312.997C348.066 298.493 359.288 277.857 361.983 255.333C361.598 251.486 362.507 247.62 364.564 244.346C366.204 243.935 367.722 243.141 368.995 242.028C370.267 240.915 371.256 239.516 371.881 237.946C378.023 223.074 381.878 207.359 383.316 191.333C383.32 190.463 383.212 189.595 382.996 188.752C381.468 182.525 377.807 177.03 372.649 173.221V116.666C372.649 82.298 362.149 68.197 351.102 60.026C348.988 43.472 331.264 10 265.988 10C238.058 11.1236 211.574 22.7222 191.808 42.4877C172.042 62.2532 160.442 88.7364 159.317 116.667V173.222C154.159 177.031 150.499 182.526 148.97 188.753C148.755 189.596 148.647 190.464 148.65 191.334C150.087 207.367 153.944 223.09 160.088 237.969C160.543 239.452 161.369 240.793 162.49 241.865C163.61 242.937 164.987 243.704 166.488 244.092C167.688 244.692 169.923 247.783 169.923 255.335C172.634 277.924 183.923 298.606 201.454 313.106C199.214 327.079 188.803 363.922 166.554 373.223L71.8544 404.668C59.9278 408.639 49.2026 415.568 40.6815 424.81C32.1604 434.051 26.1215 445.302 23.1294 457.511L10.3294 508.711C9.9308 510.284 9.89616 511.927 10.2282 513.515C10.5602 515.103 11.2501 516.595 12.2454 517.876C13.2407 519.157 14.5151 520.195 15.9718 520.91C17.4284 521.624 19.0289 521.997 20.6514 522H511.318C512.939 522 514.538 521.63 515.994 520.92C517.451 520.209 518.726 519.176 519.723 517.899C520.721 516.621 521.414 515.134 521.75 513.548C522.087 511.963 522.057 510.322 521.664 508.75V508.752Z" stroke="#00A3D2" stroke-width="20"/>
</svg>
