<svg width="21" height="21" viewBox="0 0 21 21" fill="none" xmlns="http://www.w3.org/2000/svg">
<path d="M4.42966 16.4453L1.0081 13.0237C0.602236 12.6077 0.35083 12.0195 0.35083 11.4446C0.35083 11.1784 0.50083 10.7623 0.614033 10.5241L3.77239 3.94568L4.42966 16.4453Z" fill="#01579B"/>
<path d="M16.1413 4.603L12.7197 1.18144C12.4213 0.881436 11.7992 0.52417 11.2728 0.52417C10.82 0.52417 10.3759 0.615342 10.0892 0.787373L3.77399 3.94573L16.1413 4.603ZM8.5086 20.5242H16.7985V16.9717L10.6141 14.9971L4.95617 16.9717L8.5086 20.5242Z" fill="#40C4FF"/>
<path d="M3.77234 14.6029C3.77234 15.6586 3.90468 15.9174 4.4296 16.4452L4.95601 16.9717H16.7984L11.0095 10.3932L3.77234 3.94556V14.603V14.6029Z" fill="#29B6F6"/>
<path d="M14.2987 3.94385H3.77234L16.7984 16.9699H20.3508V8.81229L16.1396 4.60111C15.5485 4.00854 15.0236 3.94385 14.2987 3.94385Z" fill="#01579B"/>
<path opacity="0.2" d="M4.56206 16.5761C4.03565 16.0483 3.90479 15.5277 3.90479 14.6029V4.07642L3.77393 3.94556V14.6028C3.77237 15.5277 3.77237 15.7835 4.56206 16.576V16.5761Z" fill="#CCCCCC"/>
<path opacity="0.2" d="M20.22 8.68164V16.8392H16.6675L16.7984 16.9716H20.3508V8.8125L20.22 8.68164Z" fill="#263238"/>
<path opacity="0.2" d="M16.1413 4.60294C15.4884 3.95005 14.9547 3.94568 14.1681 3.94568H3.77399L3.90485 4.07654H14.1681C14.5606 4.07654 15.5516 4.01037 16.1413 4.60294Z" fill="#CCCCCC"/>
<path opacity="0.2" d="M20.2208 8.68183L16.142 4.60292L12.7204 1.18151C12.422 0.881436 11.8 0.52417 11.2736 0.52417C10.8207 0.52417 10.3767 0.615342 10.09 0.787373L3.77473 3.94573L0.61637 10.5242C0.503088 10.7639 0.353088 11.18 0.353088 11.4446C0.353088 12.0196 0.606057 12.6062 1.01043 13.0238L4.16286 16.1543C4.23785 16.2468 4.32614 16.341 4.43051 16.4453L4.56137 16.5762L4.95543 16.9703L8.377 20.3918L8.50786 20.5227H16.7962V16.9703H20.3486V8.81261L20.2208 8.68175L20.2208 8.68183Z" fill="url(#paint0_radial_329_282)"/>
<defs>
<radialGradient id="paint0_radial_329_282" cx="0" cy="0" r="1" gradientUnits="userSpaceOnUse" gradientTransform="translate(1000.13 1000.34) scale(999.858 999.856)">
<stop stop-color="white" stop-opacity="0.1"/>
<stop offset="1" stop-color="white" stop-opacity="0"/>
</radialGradient>
</defs>
</svg>
