<svg width="40" height="40" viewBox="0 0 40 40" fill="none" xmlns="http://www.w3.org/2000/svg">
<path d="M33.906 33.4742C33.8902 33.4988 33.8621 33.5023 33.8375 33.5093C33.7393 33.6322 33.5884 33.6655 33.455 33.7234C32.023 34.3517 30.5945 34.9904 29.1661 35.6257C29.0467 35.6783 28.9397 35.6626 28.8239 35.6239C28.0851 35.3748 27.3533 35.1098 26.618 34.85C25.7212 34.5324 24.8263 34.2165 23.9295 33.9007C22.1308 33.2671 20.332 32.6336 18.535 31.9966C17.4558 31.6141 16.373 31.2368 15.2938 30.8559C13.6916 30.2891 12.0841 29.7311 10.4836 29.1572C10.2292 29.066 9.95893 29.0133 9.72904 28.8624C9.71675 28.8519 9.70447 28.8396 9.69219 28.8291C9.63954 28.7554 9.62024 28.6676 9.60269 28.5816C9.51143 28.1464 9.46054 27.7095 9.45528 27.2637C9.37806 21.3322 9.4465 15.4025 9.42193 9.47101C9.42193 9.37449 9.43773 9.28324 9.45352 9.19023C9.45352 9.17092 9.46405 9.1604 9.47985 9.15338C9.49388 9.14109 9.50968 9.13934 9.52547 9.14636C9.61673 9.19374 9.67815 9.27622 9.74834 9.34641C17.7102 17.3083 25.6721 25.2702 33.634 33.2303C33.7094 33.3058 33.7779 33.3882 33.8744 33.4391C33.8884 33.4497 33.899 33.4619 33.9077 33.476L33.906 33.4742ZM33.913 33.3145C33.8744 33.3198 33.8446 33.3058 33.8182 33.2794C33.7814 33.2408 33.7428 33.204 33.7059 33.1671C25.7125 25.1737 17.7208 17.1819 9.72728 9.18847C9.66937 9.13056 9.60269 9.07792 9.55882 9.00597C9.61673 8.95858 9.68517 8.9463 9.75712 8.94454C9.82205 8.94279 9.88698 8.94279 9.95191 8.94279C15.7553 8.94279 21.5569 8.94104 27.3603 8.94454C27.8797 8.94454 28.3974 8.97964 28.9081 9.09196C29.0116 9.11477 29.1169 9.13583 29.1994 9.20953C29.2117 9.21831 29.224 9.22884 29.238 9.23761C29.3889 9.48154 29.4504 9.76232 29.5451 10.0273C30.305 12.1893 31.0736 14.3478 31.83 16.5098C32.3178 17.9032 32.8127 19.2948 33.3041 20.6864C34.1008 22.9415 34.8992 25.1965 35.6907 27.4532C35.7925 27.7428 35.8855 28.0359 36.0013 28.3202C36.0575 28.4605 36.0399 28.5886 35.9785 28.729C35.4433 29.9188 34.9185 31.1139 34.3903 32.3072C34.2657 32.588 34.1429 32.8705 34.0148 33.1496C33.9885 33.2075 33.9639 33.2707 33.913 33.3145ZM9.10957 29.0818C9.23065 29.0853 9.33244 29.1485 9.44124 29.1871C9.95717 29.3678 10.4749 29.5468 10.9908 29.7276C12.0455 30.0996 13.1002 30.4734 14.1566 30.8454C15.0902 31.1736 16.0255 31.4982 16.9591 31.8264C17.5804 32.044 18.1998 32.2669 18.8193 32.4845C19.9143 32.8705 21.0111 33.2549 22.1079 33.6409C22.7046 33.8515 23.3013 34.0639 23.8979 34.2744C25.0105 34.6675 26.1249 35.0571 27.2392 35.4502C27.8534 35.6661 28.4676 35.8837 29.0818 36.1065C29.1941 36.1469 29.2871 36.1399 29.3977 36.089C29.8891 35.8644 30.3875 35.652 30.8823 35.4327C31.2544 35.2695 31.6229 35.101 31.9949 34.936C32.5968 34.6693 33.1988 34.4061 33.8007 34.1411C33.9586 34.0709 34.1166 34.0024 34.2728 33.934C33.9762 34.8536 33.6796 35.7731 33.383 36.6927C33.204 37.249 33.0268 37.807 32.8495 38.3633C32.7302 38.7389 32.6091 39.1144 32.4916 39.4899C32.4389 39.6584 32.4389 39.6619 32.2617 39.6619C31.4667 39.6619 30.6717 39.6602 29.8768 39.6602C27.6323 39.6584 25.3896 39.676 23.1468 39.6514C21.4218 39.6321 19.6967 39.6461 17.9717 39.6356C17.8647 39.6356 17.7857 39.6058 17.712 39.5286C17.5944 39.4022 17.468 39.2846 17.3452 39.1618C15.5272 37.3543 13.7091 35.5467 11.891 33.7392C11.6857 33.5356 11.4822 33.3286 11.2751 33.1268C10.7749 32.6407 10.3959 32.0651 10.0625 31.4596C9.65884 30.7226 9.3377 29.9504 9.11834 29.1379C9.11308 29.1204 9.11308 29.1011 9.11132 29.0835L9.10957 29.0818ZM34.3043 33.8884C34.3289 33.7006 34.4412 33.5479 34.5114 33.3795C34.6852 32.96 34.8747 32.5459 35.0589 32.13C35.2186 31.7702 35.3801 31.4122 35.5398 31.0525C35.7609 30.5524 35.9803 30.0522 36.2014 29.5521C36.2768 29.3836 36.3505 29.2151 36.433 29.0502C36.4839 28.9501 36.4979 28.8607 36.4576 28.7501C36.1996 28.0341 35.9434 27.3164 35.6907 26.5969C35.5591 26.2266 35.4345 25.8528 35.3046 25.4825C34.994 24.5945 34.6834 23.7083 34.371 22.8221C34.1604 22.2255 33.9481 21.6288 33.7375 21.0321C33.4304 20.1635 33.1251 19.2931 32.8197 18.4244C32.6109 17.833 32.4003 17.2434 32.1915 16.652C31.8686 15.7359 31.5492 14.8199 31.2263 13.9038C31.0157 13.3072 30.8034 12.7105 30.5928 12.1139C30.2857 11.2452 29.9838 10.3748 29.6732 9.50786C29.5837 9.25867 29.4854 9.01474 29.4258 8.75677C29.8013 8.83223 30.1593 8.96385 30.5156 9.10248C31.4088 9.45346 32.2494 9.90095 33.0022 10.5011C33.3444 10.7749 33.6428 11.0978 33.9516 11.4066C34.4009 11.8541 34.8448 12.3086 35.2941 12.7579C36.7348 14.2022 38.1739 15.6482 39.6164 17.0907C39.7059 17.1802 39.7445 17.2697 39.7427 17.396C39.7392 20.6004 39.7392 23.8066 39.7374 27.011C39.7374 28.6624 39.7339 30.3154 39.7322 31.9668C39.7322 31.9861 39.7322 32.0036 39.7322 32.0229C39.7304 32.1721 39.7603 32.1721 39.5848 32.2283C39.304 32.3178 39.0215 32.4073 38.7407 32.4968C37.3157 32.9513 35.8908 33.4075 34.4675 33.8621C34.4272 33.8743 34.3851 33.8831 34.3429 33.8936C34.3289 33.8901 34.3166 33.8884 34.3026 33.8849L34.3043 33.8884ZM29.496 8.8375C29.2784 8.79714 29.0625 8.75502 28.8449 8.71641C28.6571 8.68307 28.4694 8.66201 28.2781 8.65148C27.0339 8.58304 25.7897 8.61989 24.5455 8.61814C19.4353 8.61463 14.3268 8.61638 9.21661 8.61814C9.14291 8.61814 9.0692 8.62165 8.9955 8.62516C8.98321 8.6234 8.97093 8.62165 8.95865 8.61814C9.27979 8.37947 9.62024 8.16889 9.95366 7.94777C10.8153 7.37393 11.6805 6.80535 12.5439 6.23326C14.3426 5.04345 16.1396 3.85014 17.9384 2.66033C18.8579 2.05139 19.781 1.44771 20.6988 0.835257C20.862 0.726454 21.0094 0.594838 21.2024 0.531662C21.599 0.398292 21.9921 0.43339 22.3835 0.547457C22.9275 0.703641 23.3978 0.989686 23.8154 1.36698C23.9699 1.50737 24.1155 1.66005 24.2647 1.80746C25.63 3.16222 26.9953 4.51874 28.3623 5.87176C28.4659 5.97354 28.5378 6.0841 28.5852 6.22273C28.8783 7.07209 29.1819 7.9197 29.4802 8.7673C29.489 8.79012 29.4925 8.81468 29.4977 8.83925L29.496 8.8375ZM8.93057 8.6585C8.98146 8.73221 8.95689 8.81468 8.95689 8.8919C8.95865 14.8813 8.95865 20.8707 8.95865 26.8601C8.95865 27.2356 8.99199 27.6094 9.00427 27.9832C9.0148 28.3184 9.085 28.6518 9.16397 28.9782C9.17801 29.0344 9.21135 29.0923 9.17976 29.1537C8.73753 29.001 8.2953 28.8501 7.85308 28.6957C7.40558 28.5395 6.95984 28.3798 6.51059 28.2254C6.40881 28.1903 6.32633 28.1359 6.25087 28.0587C4.77151 26.5635 3.28864 25.0736 1.81103 23.5785C1.32493 23.0871 0.980974 22.5098 0.835319 21.8253C0.772144 21.5253 0.765125 21.2269 0.851114 20.9286C0.887966 20.797 0.942367 20.6724 1.02134 20.5618C1.55306 19.8195 2.03917 19.0474 2.54282 18.2893C4.49599 15.3463 6.44215 12.3999 8.39182 9.45521C8.56906 9.18847 8.74806 8.92349 8.92706 8.65675L8.93057 8.6585Z" fill="#595959"/>
</svg>
