<svg width="32" height="32" viewBox="0 0 32 32" fill="none" xmlns="http://www.w3.org/2000/svg">
<circle cx="16" cy="16" r="16" fill="#CCCCCC"/>
<path d="M8.7515 22.5467L4.76566 18.5609C4.29287 18.0763 4 17.3911 4 16.7213C4 16.4113 4.17474 15.9265 4.30661 15.649L7.98584 7.98572L8.7515 22.5467Z" fill="#01579B"/>
<path d="M22.3945 8.7515L18.4087 4.76566C18.061 4.41618 17.3364 4 16.7232 4C16.1957 4 15.6784 4.10621 15.3444 4.30661L7.98767 7.98584L22.3945 8.7515ZM13.5031 27.2983H23.1602V23.1601L15.9559 20.8597L9.36482 23.1601L13.5031 27.2983Z" fill="#40C4FF"/>
<path d="M7.98578 20.4005C7.98578 21.6303 8.13995 21.9318 8.75144 22.5467L9.36466 23.1599H23.16L16.4165 15.4966L7.98578 7.9856V20.4006V20.4005Z" fill="#29B6F6"/>
<path d="M20.2482 7.98364H7.98578L23.16 23.1579H27.2983V13.655L22.3926 8.7493C21.704 8.059 21.0925 7.98364 20.2482 7.98364Z" fill="#01579B"/>
<path opacity="0.2" d="M8.90574 22.6991C8.29252 22.0843 8.14008 21.4779 8.14008 20.4005V8.13804L7.98764 7.9856V20.4004C7.98582 21.4778 7.98582 21.7758 8.90574 22.699V22.6991Z" fill="#CCCCCC"/>
<path opacity="0.2" d="M27.1459 13.5028V23.0057H23.0076L23.1601 23.1599H27.2983V13.6552L27.1459 13.5028Z" fill="#263238"/>
<path opacity="0.2" d="M22.3945 8.75138C21.634 7.99081 21.0123 7.98572 20.0959 7.98572H7.98767L8.14011 8.13816H20.0959C20.5532 8.13816 21.7077 8.06107 22.3945 8.75138Z" fill="#CCCCCC"/>
<path opacity="0.2" d="M27.1469 13.503L22.3954 8.75141L18.4096 4.76575C18.0619 4.41618 17.3373 4 16.7241 4C16.1966 4 15.6793 4.10621 15.3453 4.30661L7.98855 7.98584L4.30933 15.6492C4.17736 15.9284 4.00262 16.4131 4.00262 16.7214C4.00262 17.3912 4.29731 18.0746 4.76838 18.561L8.44069 22.2077C8.52806 22.3156 8.6309 22.4253 8.75248 22.5468L8.90492 22.6993L9.36397 23.1583L13.3498 27.1442L13.5023 27.2966H23.1575V23.1584H27.2958V13.6553L27.1468 13.5029L27.1469 13.503Z" fill="url(#paint0_radial_855_700)"/>
<defs>
<radialGradient id="paint0_radial_855_700" cx="0" cy="0" r="1" gradientUnits="userSpaceOnUse" gradientTransform="translate(1168.66 1168.7) scale(1164.75 1164.75)">
<stop stop-color="white" stop-opacity="0.1"/>
<stop offset="1" stop-color="white" stop-opacity="0"/>
</radialGradient>
</defs>
</svg>
