<svg width="44" height="44" viewBox="0 0 44 44" fill="none" xmlns="http://www.w3.org/2000/svg">
<circle cx="22" cy="22" r="22" fill="#066DA5"/>
<path d="M39.6932 19.1284C39.5996 19.0504 38.7574 18.4107 36.9482 18.4107C36.4803 18.4107 35.9968 18.4575 35.529 18.5355C35.1858 16.1481 33.2051 14.9934 33.1271 14.931L32.6436 14.6501L32.3317 15.1027C31.9418 15.7112 31.6455 16.3978 31.4739 17.0999C31.1464 18.4575 31.3492 19.737 32.0354 20.8293C31.2088 21.2974 29.8675 21.4066 29.5868 21.4222H7.44005C6.86299 21.4222 6.3951 21.8903 6.3951 22.4677C6.36391 24.4025 6.69143 26.3374 7.36207 28.163C8.12629 30.1603 9.26482 31.6427 10.7309 32.5477C12.3841 33.562 15.0822 34.1393 18.1235 34.1393C19.496 34.1393 20.8685 34.0145 22.2253 33.7648C24.1125 33.4215 25.9216 32.7662 27.5904 31.8143C28.9629 31.0185 30.195 30.0043 31.24 28.8184C33.0024 26.8367 34.0473 24.621 34.8115 22.6549C34.9207 22.6549 35.0143 22.6549 35.1235 22.6549C37.0418 22.6549 38.2271 21.8903 38.8822 21.235C39.3189 20.8293 39.6464 20.3299 39.8803 19.7682L40.0207 19.3625L39.6932 19.1284Z" fill="white"/>
<path d="M13.5851 20.7822H16.5484C16.6887 20.7822 16.8135 20.6729 16.8135 20.5169V17.8643C16.8135 17.7238 16.7043 17.599 16.5484 17.599H13.5851C13.4447 17.599 13.3199 17.7082 13.3199 17.8643V20.5169C13.3355 20.6729 13.4447 20.7822 13.5851 20.7822Z" fill="white"/>
<path d="M21.8511 20.7822H24.8144C24.9547 20.7822 25.0795 20.6729 25.0795 20.5169V17.8643C25.0795 17.7238 24.9703 17.599 24.8144 17.599H21.8511C21.7107 17.599 21.5859 17.7082 21.5859 17.8643V20.5169C21.5859 20.6729 21.7107 20.7822 21.8511 20.7822Z" fill="white"/>
<path d="M17.7492 16.9906H20.7125C20.8529 16.9906 20.9776 16.8657 20.9776 16.7253V14.0726C20.9776 13.9322 20.8685 13.8074 20.7125 13.8074H17.7492C17.6088 13.8074 17.4841 13.9166 17.4841 14.0726V16.7253C17.4841 16.8657 17.5932 16.9906 17.7492 16.9906Z" fill="white"/>
<path d="M21.8511 13.1832H24.8144C24.9547 13.1832 25.0795 13.074 25.0795 12.9179V10.2653C25.0795 10.1248 24.9547 10 24.8144 10H21.8511C21.7107 10 21.5859 10.1092 21.5859 10.2653V12.9179C21.5859 13.0583 21.7107 13.1832 21.8511 13.1832Z" fill="white"/>
<path d="M9.49878 20.7822H12.4621C12.6024 20.7822 12.7272 20.6729 12.7272 20.5169V17.8643C12.7272 17.7238 12.618 17.599 12.4621 17.599H9.49878C9.35841 17.599 9.23364 17.7082 9.23364 17.8643V20.5169C9.24924 20.6729 9.35841 20.7822 9.49878 20.7822Z" fill="#CCCCCC"/>
<path d="M17.7493 20.7822H20.7126C20.8529 20.7822 20.9777 20.6729 20.9777 20.5169V17.8643C20.9777 17.7238 20.8685 17.599 20.7126 17.599H17.7493C17.6089 17.599 17.4841 17.7082 17.4841 17.8643V20.5169C17.4841 20.6729 17.5933 20.7822 17.7493 20.7822Z" fill="#CCCCCC"/>
<path d="M13.585 16.9906H16.5483C16.6886 16.9906 16.8134 16.8657 16.8134 16.7253V14.0726C16.8134 13.9322 16.7042 13.8074 16.5483 13.8074H13.585C13.4446 13.8074 13.3198 13.9166 13.3198 14.0726V16.7253C13.3354 16.8657 13.4446 16.9906 13.585 16.9906Z" fill="#CCCCCC"/>
<path d="M21.8511 16.9906H24.8144C24.9547 16.9906 25.0795 16.8657 25.0795 16.7253V14.0726C25.0795 13.9322 24.9547 13.8074 24.8144 13.8074H21.8511C21.7107 13.8074 21.5859 13.9166 21.5859 14.0726V16.7253C21.5859 16.8657 21.7107 16.9906 21.8511 16.9906Z" fill="#CCCCCC"/>
<path d="M25.9839 20.7822H28.9472C29.0876 20.7822 29.2124 20.6729 29.2124 20.5169V17.8643C29.2124 17.7238 29.1032 17.599 28.9472 17.599H25.9839C25.8436 17.599 25.7188 17.7082 25.7188 17.8643V20.5169C25.7344 20.6729 25.8436 20.7822 25.9839 20.7822Z" fill="#CCCCCC"/>
</svg>
