<svg width="93" height="93" viewBox="0 0 93 93" fill="none" xmlns="http://www.w3.org/2000/svg">
<path d="M74.9549 69.3876C74.7978 69.3876 74.6406 69.3761 74.4796 69.3493C72.9156 69.0886 71.8538 67.609 72.1144 66.0411L75.0661 48.2545C75.4034 46.2841 74.4949 44.3023 72.8006 43.3018L56.1332 33.5345C54.7647 32.7294 54.3009 30.9699 55.1021 29.6014C55.9032 28.2291 57.6627 27.7729 59.0351 28.5703L75.7139 38.3453C79.4591 40.5571 81.4678 44.9233 80.7356 49.2128L77.7878 66.9841C77.5539 68.391 76.3349 69.3876 74.9549 69.3876Z" fill="white"/>
<path d="M17.4472 69.3874C16.0672 69.3874 14.8482 68.3908 14.6144 66.9839L11.6627 49.1973C10.9344 44.9231 12.9431 40.557 16.6767 38.3528L33.5127 28.459C34.8812 27.6501 36.6446 28.1101 37.4496 29.4825C38.2546 30.8548 37.7984 32.6105 36.4261 33.4155L19.5939 43.3055C17.9111 44.3021 16.9987 46.284 17.3322 48.239L20.2877 66.0409C20.5446 67.6088 19.4866 69.0884 17.9226 69.3491C17.7616 69.3759 17.6044 69.3874 17.4472 69.3874Z" fill="white"/>
<path d="M20.3262 6.13739H3.07617C1.48917 6.13739 0.201172 4.84939 0.201172 3.26239C0.201172 1.67539 1.48917 0.38739 3.07617 0.38739H20.3262C21.9132 0.38739 23.2012 1.67539 23.2012 3.26239C23.2012 4.84939 21.9132 6.13739 20.3262 6.13739Z" fill="white"/>
<path d="M11.7012 16.6791C10.1142 16.6791 8.82617 15.3911 8.82617 13.8041V3.26239C8.82617 1.67539 10.1142 0.38739 11.7012 0.38739C13.2882 0.38739 14.5762 1.67539 14.5762 3.26239V13.8041C14.5762 15.3911 13.2882 16.6791 11.7012 16.6791Z" fill="white"/>
<path d="M89.3262 6.13739H72.0762C70.4892 6.13739 69.2012 4.84939 69.2012 3.26239C69.2012 1.67539 70.4892 0.38739 72.0762 0.38739H89.3262C90.9132 0.38739 92.2012 1.67539 92.2012 3.26239C92.2012 4.84939 90.9132 6.13739 89.3262 6.13739Z" fill="white"/>
<path d="M80.7012 16.6791C79.1142 16.6791 77.8262 15.3911 77.8262 13.8041V3.26239C77.8262 1.67539 79.1142 0.38739 80.7012 0.38739C82.2882 0.38739 83.5762 1.67539 83.5762 3.26239V13.8041C83.5762 15.3911 82.2882 16.6791 80.7012 16.6791Z" fill="white"/>
<path d="M74.9508 15.7208H66.3603C64.3248 15.7208 62.4311 14.6245 61.4153 12.8535C58.3448 7.52899 52.6216 4.22083 46.2008 4.22083C40.0483 4.22083 34.3213 7.52899 31.2585 12.8535C30.2426 14.6207 28.3451 15.7208 26.3135 15.7208H17.7192C16.6612 15.7208 15.8025 16.5795 15.8025 17.6375V25.3042C15.8025 26.3622 16.6612 27.2208 17.7192 27.2208H26.3096C28.3413 27.2208 30.2388 28.321 31.2546 30.0882C34.3213 35.4127 40.0483 38.7208 46.4691 38.7208C52.6178 38.7208 58.3448 35.4127 61.4115 30.0843C62.4273 28.3172 64.3248 27.2208 66.3603 27.2208H74.9508C76.0088 27.2208 76.8675 26.3622 76.8675 25.3042V17.6375C76.8675 16.5795 76.0088 15.7208 74.9508 15.7208Z" fill="white"/>
<path d="M12.9231 10.929H11.0064C7.30726 10.929 4.2981 13.9381 4.2981 17.6373V25.304C4.2981 29.0031 7.30726 32.0123 11.0064 32.0123H12.9231C16.6223 32.0123 19.6314 29.0031 19.6314 25.304V17.6373C19.6314 13.9381 16.6223 10.929 12.9231 10.929Z" fill="white"/>
<path d="M81.9238 10.929H80.0072C76.308 10.929 73.2988 13.9381 73.2988 17.6373V25.304C73.2988 29.0031 76.308 32.0123 80.0072 32.0123H81.9238C85.623 32.0123 88.6322 29.0031 88.6322 25.304V17.6373C88.6322 13.9381 85.623 10.929 81.9238 10.929Z" fill="white"/>
<path d="M38.3203 50.0868L59.1852 60.7741L67.4805 56.6916L46.9837 46.5639C46.5237 46.3301 45.9717 46.3301 45.4887 46.5639L38.3203 50.0868Z" fill="white"/>
<path d="M24.9719 56.6877L46.2009 67.2102L54.1513 63.2925L55.3013 62.7098L34.4134 52.0225L33.2634 52.6052L24.9719 56.6877Z" fill="white"/>
<path d="M47.9031 70.246L47.9261 92.3873L68.2619 81.7728C68.8331 81.4661 69.2011 80.8605 69.2011 80.2088V59.7234L60.5838 63.9708V71.4381C60.5838 72.3965 59.8018 73.19 58.8588 73.19C57.9157 73.19 57.1337 72.3965 57.1337 71.4381V65.6996L55.9837 66.2593L47.9031 70.246Z" fill="white"/>
<path d="M31.8185 63.967V63.9785L44.457 70.223L44.503 70.246L44.4762 92.3873L24.1403 81.7728C23.5692 81.4661 23.2012 80.8605 23.2012 80.2088V59.7234L31.8185 63.967Z" fill="white"/>
</svg>
