<svg width="44" height="44" viewBox="0 0 44 44" fill="none" xmlns="http://www.w3.org/2000/svg">
<circle cx="22" cy="22" r="22" fill="#CCCCCC"/>
<path d="M17.838 36.9954C20.4426 36.9954 22.557 34.881 22.557 32.2764V27.5574H17.838C15.2334 27.5574 13.119 29.6718 13.119 32.2764C13.119 34.881 15.2334 36.9954 17.838 36.9954Z" fill="#0ACF83"/>
<path d="M13.1141 22.8334C13.1141 20.2288 15.2285 18.1144 17.8331 18.1144H22.5521V27.5573H17.8331C15.2285 27.5573 13.1141 25.4429 13.1141 22.8383V22.8334Z" fill="#A259FF"/>
<path d="M13.1141 13.3904C13.1141 10.7858 15.2285 8.67139 17.8331 8.67139H22.5521V18.1143H17.8331C15.2285 18.1143 13.1141 16 13.1141 13.3953V13.3904Z" fill="#F24E1E"/>
<path d="M22.5125 8.67139H27.2315C29.8361 8.67139 31.9505 10.7858 31.9505 13.3904C31.9505 15.995 29.8361 18.1094 27.2315 18.1094H22.5125V8.67139Z" fill="#FF7262"/>
<path d="M32 22.8334C32 25.438 29.8856 27.5524 27.281 27.5524C24.6764 27.5524 22.5125 25.438 22.5125 22.8334C22.5125 20.2288 24.6268 18.1144 27.2315 18.1144C29.8361 18.1144 31.9505 20.2288 31.9505 22.8334H32Z" fill="#1ABCFE"/>
</svg>
