<svg width="44" height="44" viewBox="0 0 44 44" fill="none" xmlns="http://www.w3.org/2000/svg">
<circle cx="22" cy="22" r="22" fill="#CCCCCC"/>
<path d="M25.1739 19.5584L21.9707 22.5386L18.9985 16.5433L20.5366 13.095C20.9367 12.395 21.5607 12.403 21.9507 13.095L25.1739 19.5584Z" fill="#FFA000"/>
<path d="M18.9986 16.5432L21.9707 22.5386L10 33.6743L18.9986 16.5432Z" fill="#F57F17"/>
<path d="M28.6772 15.0031C29.2492 14.4531 29.8412 14.6411 29.9923 15.4202L33.1084 33.5263L22.7798 39.7267C22.4198 39.9267 21.4597 40.0127 21.4597 40.0127C21.4597 40.0127 20.5857 39.9087 20.2526 39.7127L10 33.6743L28.6772 15.0031Z" fill="#FFCA28"/>
<path d="M18.9985 16.5433L10.001 33.6743L14.0082 8.63778C14.1562 7.85773 14.6003 7.78272 14.9963 8.47077L18.9985 16.5433Z" fill="#FFA000"/>
</svg>
