<svg width="110" height="32" viewBox="0 0 110 32" fill="none" xmlns="http://www.w3.org/2000/svg">
<path d="M15.997 0.835596L25.4353 0.825195L9.60038 16.6521L5.47349 20.7558L0.778015 16.0546L15.997 0.835596ZM15.9092 14.9671C16.0317 14.8053 16.257 14.885 16.4281 14.8642L25.4272 14.8665L17.2255 23.0602L12.5057 18.3694L15.9092 14.9671Z" fill="#595959"/>
<path d="M38.7011 7.43677L48.99 7.44023L48.9889 9.46612C46.2973 9.46612 43.6046 9.45803 40.9119 9.46959C40.7062 9.53777 40.8033 9.79548 40.7802 9.95381L40.7882 15.4028C40.8564 15.6073 41.1153 15.5091 41.2748 15.5345L48.181 15.5311V17.5546C46.0338 17.5535 43.8877 17.5535 41.7405 17.5546C41.4216 17.5535 41.0991 17.5338 40.7836 17.5881L40.7594 25.2803C40.0671 25.2525 39.376 25.278 38.6838 25.2629L38.6826 7.76382L38.7011 7.43677ZM51.4851 7.44023H53.5977L53.5988 19.547L53.5757 25.2479C52.8881 25.2352 52.2005 25.2317 51.514 25.2502C51.4608 24.9682 51.4828 24.6816 51.4828 24.3973L51.4851 7.44023ZM72.1623 8.94145L74.2818 8.9426L74.2853 12.5252C75.3219 12.5506 76.3643 12.4789 77.3986 12.561C77.3697 13.2035 77.394 13.8461 77.3824 14.4886C76.3516 14.491 75.3219 14.499 74.2922 14.484L74.2841 21.6191C74.3061 22.2802 74.447 23.0787 75.0896 23.4196C75.8234 23.8368 76.7249 23.6404 77.4194 23.2382V25.3138C76.6544 25.6605 75.7818 25.7021 74.9602 25.59C73.8022 25.4132 72.6927 24.6238 72.3426 23.4763C72.1103 22.8476 72.1634 22.1692 72.1588 21.5128L72.1542 14.5638L72.1022 14.5048C71.3707 14.4655 70.6368 14.5106 69.9041 14.4852C69.9087 13.8311 69.8787 13.177 69.9203 12.524C70.6645 12.5113 71.4123 12.5575 72.1554 12.5009L72.1623 8.94145ZM81.1164 8.93451C81.8214 8.95878 82.5263 8.92642 83.2301 8.95069L83.2786 9.00385C83.3052 10.1803 83.2428 11.3603 83.3064 12.5344C84.3107 12.5159 85.3149 12.5309 86.3181 12.5252L86.325 14.4736C85.3149 14.5118 84.3014 14.4886 83.2914 14.4829L83.2798 21.7416C83.2786 22.3738 83.4613 23.1215 84.0726 23.4324C84.8226 23.8415 85.7321 23.6311 86.429 23.2128L86.4267 25.2999C85.6836 25.6351 84.8457 25.6998 84.0437 25.6073C83.0024 25.4686 81.9832 24.8804 81.4943 23.927C81.2585 23.4277 81.1268 22.8753 81.1048 22.3241V14.491C80.3733 14.4898 79.6429 14.4933 78.9125 14.491L78.9172 12.5182C79.6371 12.5379 80.3571 12.5125 81.0771 12.5367C81.1534 11.3395 81.0713 10.1341 81.1164 8.93451ZM91.4041 12.5922C92.8672 11.9855 94.5556 11.9739 96.0499 12.4824C97.7615 13.073 99.0859 14.5661 99.5712 16.2984C99.889 17.2588 99.8763 18.2792 99.8313 19.2777L89.7712 19.2881C89.8544 20.3594 90.1745 21.4515 90.9188 22.2559C91.9762 23.489 93.7964 23.9466 95.3334 23.4624C96.4117 23.1446 97.253 22.3148 97.8065 21.3614C98.419 21.6353 99.0142 21.9473 99.6244 22.2281C98.79 23.8183 97.2726 25.0815 95.4894 25.4236C94.0252 25.6975 92.4234 25.7044 91.0806 24.9809C89.3378 24.1154 88.1382 22.353 87.7962 20.4577C87.5477 19.0015 87.6251 17.461 88.1729 16.0788C88.7473 14.5615 89.9087 13.2475 91.4041 12.5922ZM92.2004 14.4193C90.9696 14.9879 90.1768 16.251 89.9295 17.5546L97.6447 17.5304C97.5222 16.6786 97.2195 15.813 96.5954 15.1971C95.5021 14.0252 93.6334 13.7964 92.2004 14.4193ZM104.411 14.5869C105.217 12.6303 107.691 11.6029 109.648 12.4223V14.7059C108.826 14.3823 107.905 14.1824 107.037 14.4378C105.851 14.7903 104.974 15.8477 104.638 17.0115C104.407 17.7973 104.493 18.6178 104.502 19.4233C104.412 20.4658 104.548 21.5093 104.479 22.5517C104.535 23.452 104.431 24.3523 104.507 25.2537C103.788 25.2884 103.069 25.2514 102.352 25.2756C102.31 22.5587 102.346 19.8405 102.334 17.1224L102.351 12.5471C103.024 12.5656 103.699 12.5448 104.374 12.561C104.435 13.2359 104.299 13.9143 104.411 14.5869ZM56.6278 12.5217C57.3443 12.5517 58.0666 12.4789 58.7797 12.5598L58.7693 20.1341C58.7623 21.0598 58.8941 22.071 59.5343 22.7898C60.3606 23.7051 61.7601 23.8727 62.8904 23.5109C64.4008 22.9701 65.4548 21.3706 65.3936 19.7712L65.4167 12.5217L67.5743 12.5263L67.5616 25.2444C66.8774 25.2329 66.1944 25.2444 65.5114 25.2363L65.5033 23.4266C65.0607 23.9825 64.5961 24.5453 63.9617 24.8954C62.6627 25.7148 61.0147 25.8234 59.5597 25.4039C58.6213 25.1208 57.8043 24.4632 57.3339 23.6034C56.7757 22.6581 56.6348 21.5405 56.6024 20.4634L56.6278 12.5217Z" fill="#595959"/>
<path d="M7.8009 23.0683L12.5056 18.3694L17.2254 23.0602L17.245 23.081L12.5068 27.7754L7.8009 23.0683Z" fill="#595959"/>
<path d="M12.5068 27.7754L17.245 23.0811L25.4306 31.2747C22.3473 31.2817 19.2651 31.2724 16.183 31.2794C16.0073 31.3186 15.8987 31.158 15.7866 31.0586L12.5068 27.7754Z" fill="#595959"/>
</svg>
