<svg width="32" height="32" viewBox="0 0 32 32" fill="none" xmlns="http://www.w3.org/2000/svg">
<circle cx="16" cy="16" r="16" fill="#242938"/>
<g clip-path="url(#clip0_855_701)">
<path d="M17.8553 6.00134L8.00128 16.446L11.0513 19.6788L23.9555 6.00134H17.8553ZM17.7867 15.6333L12.5105 21.2256L15.572 24.5191L18.6164 21.2923L23.9555 15.6333H17.7867Z" fill="#47C5FB"/>
<path d="M15.5708 24.5179L17.8884 26.9744H23.9542L18.6151 21.291L15.5708 24.5179Z" fill="#00569E"/>
<path d="M12.475 21.2607L15.525 18.0278L18.6151 21.291L15.5708 24.5178L12.475 21.2607Z" fill="#00B5F8"/>
<path d="M15.5708 24.5179L18.1058 23.6263L18.3576 21.564L15.5708 24.5179Z" fill="url(#paint0_linear_855_701)" fill-opacity="0.8"/>
</g>
<defs>
<linearGradient id="paint0_linear_855_701" x1="26.5843" y1="101.299" x2="229.647" y2="170.335" gradientUnits="userSpaceOnUse">
<stop/>
<stop offset="1" stop-opacity="0"/>
</linearGradient>
<clipPath id="clip0_855_701">
<rect width="16" height="21" fill="white" transform="translate(8 6)"/>
</clipPath>
</defs>
</svg>
