<svg width="32" height="33" viewBox="0 0 32 33" fill="none" xmlns="http://www.w3.org/2000/svg">
<circle cx="16" cy="16.5242" r="16" fill="#242938"/>
<g clip-path="url(#clip0_329_348)">
<path d="M17.6233 8.68921L9.00098 17.3115L11.6697 19.9803L22.9609 8.68921H17.6233ZM17.5632 16.6406L12.9466 21.2572L15.6254 23.976L18.2892 21.3122L22.9609 16.6406H17.5632Z" fill="#47C5FB"/>
<path d="M15.6245 23.9751L17.6524 26.003H22.9599L18.2882 21.3113L15.6245 23.9751Z" fill="#00569E"/>
<path d="M12.9156 21.2862L15.5845 18.6174L18.2883 21.3112L15.6245 23.9751L12.9156 21.2862Z" fill="#00B5F8"/>
<path d="M15.6245 23.9751L17.8426 23.2391L18.0629 21.5366L15.6245 23.9751Z" fill="url(#paint0_linear_329_348)" fill-opacity="0.8"/>
</g>
<defs>
<linearGradient id="paint0_linear_329_348" x1="25.2612" y1="87.3595" x2="200.697" y2="150.578" gradientUnits="userSpaceOnUse">
<stop/>
<stop offset="1" stop-opacity="0"/>
</linearGradient>
<clipPath id="clip0_329_348">
<rect width="14" height="17.3359" fill="white" transform="translate(9 8.68823)"/>
</clipPath>
</defs>
</svg>
