<svg width="33" height="33" viewBox="0 0 33 33" fill="none" xmlns="http://www.w3.org/2000/svg">
<path d="M1.81195 22.2574C4.07239 28.3507 9.93639 32.693 16.8164 32.693C23.6964 32.693 29.5604 28.3507 31.8208 22.2574L16.8164 20.8672L1.81195 22.2574Z" fill="#FFDA44"/>
<path d="M16.8164 0.692871C9.93639 0.692871 4.07239 5.03509 1.81195 11.1284L16.8164 12.5186L31.8208 11.1275C29.5604 5.03509 23.6964 0.692871 16.8164 0.692871Z" fill="#3D3D3D"/>
<path d="M1.81197 11.1285C1.15176 12.9093 0.814627 14.7936 0.816414 16.6929C0.814521 18.5925 1.15166 20.4772 1.81197 22.2582H31.8208C32.4812 20.4772 32.8183 18.5925 32.8164 16.6929C32.8183 14.7933 32.4812 12.9087 31.8208 11.1276L1.81197 11.1285Z" fill="#D80027"/>
</svg>
