<svg width="64" height="64" viewBox="0 0 64 64" fill="none" xmlns="http://www.w3.org/2000/svg">
<circle cx="31.6634" cy="31.8357" r="31.6406" fill="#2B2B2B"/>
<path d="M31.6634 16.2144C29.5611 16.2144 27.4793 16.6284 25.537 17.433C23.5946 18.2375 21.8298 19.4168 20.3432 20.9034C17.3409 23.9057 15.6542 27.9777 15.6542 32.2236C15.6542 39.2997 20.2489 45.3031 26.6045 47.4324C27.405 47.5604 27.6611 47.0641 27.6611 46.6319V43.9263C23.2266 44.8869 22.282 41.7811 22.282 41.7811C21.5456 39.924 20.505 39.4277 20.505 39.4277C19.0482 38.4352 20.6171 38.4672 20.6171 38.4672C22.218 38.5793 23.0665 40.1161 23.0665 40.1161C24.4593 42.5495 26.8126 41.8291 27.7252 41.4449C27.8693 40.4043 28.2855 39.6999 28.7337 39.2997C25.1797 38.8994 21.4495 37.5226 21.4495 31.4231C21.4495 29.6461 22.0579 28.2213 23.0985 27.0846C22.9384 26.6844 22.3781 25.0194 23.2586 22.8582C23.2586 22.8582 24.6034 22.4259 27.6611 24.4911C28.9259 24.1389 30.3027 23.9628 31.6634 23.9628C33.0242 23.9628 34.401 24.1389 35.6657 24.4911C38.7235 22.4259 40.0683 22.8582 40.0683 22.8582C40.9488 25.0194 40.3885 26.6844 40.2284 27.0846C41.269 28.2213 41.8773 29.6461 41.8773 31.4231C41.8773 37.5387 38.1312 38.8834 34.5611 39.2837C35.1374 39.7799 35.6657 40.7565 35.6657 42.2454V46.6319C35.6657 47.0641 35.9219 47.5764 36.7384 47.4324C43.094 45.2871 47.6727 39.2997 47.6727 32.2236C47.6727 30.1212 47.2586 28.0394 46.454 26.0971C45.6495 24.1548 44.4703 22.3899 42.9837 20.9034C41.4971 19.4168 39.7322 18.2375 37.7899 17.433C35.8476 16.6284 33.7658 16.2144 31.6634 16.2144Z" fill="#FDD403"/>
</svg>
