<svg width="34" height="33" viewBox="0 0 34 33" fill="none" xmlns="http://www.w3.org/2000/svg">
<ellipse cx="17.0753" cy="16.0129" rx="16.2755" ry="16" fill="#5DC9E1"/>
<path d="M8.55477 14.4096C8.51569 14.4096 8.50591 14.3883 8.52546 14.3563L8.73067 14.0682C8.75021 14.0362 8.79907 14.0149 8.83816 14.0149H12.3267C12.3658 14.0149 12.3756 14.0469 12.356 14.0789L12.1899 14.3563C12.1704 14.3883 12.1215 14.4203 12.0922 14.4203L8.55477 14.4096Z" fill="white"/>
<path d="M7.07925 15.3912C7.04016 15.3912 7.03039 15.3699 7.04993 15.3379L7.25514 15.0498C7.27469 15.0178 7.32355 14.9965 7.36263 14.9965H11.8186C11.8577 14.9965 11.8772 15.0285 11.8675 15.0605L11.7893 15.3165C11.7795 15.3592 11.7404 15.3805 11.7014 15.3805L7.07925 15.3912Z" fill="white"/>
<path d="M9.44406 16.3728C9.40497 16.3728 9.3952 16.3408 9.41474 16.3088L9.55155 16.042C9.57109 16.01 9.61018 15.978 9.64927 15.978H11.6036C11.6427 15.978 11.6623 16.01 11.6623 16.0527L11.6427 16.3088C11.6427 16.3514 11.6036 16.3834 11.5743 16.3834L9.44406 16.3728Z" fill="white"/>
<path d="M19.5873 14.2177C18.9716 14.3884 18.5515 14.5164 17.9456 14.6871C17.799 14.7298 17.7892 14.7404 17.6622 14.5804C17.5156 14.399 17.4081 14.2817 17.2029 14.175C16.5873 13.8443 15.9912 13.9403 15.4342 14.335C14.7697 14.8044 14.4277 15.4979 14.4375 16.3621C14.4473 17.2155 14.9847 17.9197 15.7567 18.037C16.4212 18.133 16.9782 17.877 17.4179 17.3329C17.5059 17.2155 17.584 17.0875 17.6818 16.9382C17.33 16.9382 16.8902 16.9382 15.7958 16.9382C15.5906 16.9382 15.5417 16.7995 15.6101 16.6181C15.7372 16.2874 15.9717 15.7326 16.1085 15.4552C16.1378 15.3912 16.2062 15.2845 16.3528 15.2845C16.8511 15.2845 18.6883 15.2845 19.9097 15.2845C19.8902 15.5726 19.8902 15.8606 19.8511 16.1487C19.7436 16.9168 19.4798 17.621 19.0498 18.2397C18.3462 19.2533 17.4277 19.8827 16.2648 20.0534C15.3072 20.1921 14.4179 19.9894 13.6362 19.3493C12.9131 18.7518 12.5027 17.9623 12.3952 16.9808C12.2681 15.818 12.5808 14.7724 13.2258 13.8549C13.9196 12.8627 14.8381 12.2333 15.9619 12.0093C16.8805 11.8279 17.7599 11.9452 18.5515 12.532C19.0694 12.9054 19.4407 13.4175 19.685 14.0363C19.7436 14.1323 19.7045 14.1857 19.5873 14.2177Z" fill="white"/>
<path d="M22.8218 20.1175C21.9326 20.0962 21.1215 19.8188 20.4375 19.1787C19.8609 18.6346 19.4994 17.9411 19.3821 17.1196C19.2062 15.9141 19.5091 14.8472 20.1736 13.8977C20.887 12.8735 21.7469 12.3401 22.9098 12.116C23.9065 11.924 24.8446 12.0307 25.6947 12.6601C26.4667 13.2362 26.9455 14.015 27.0726 15.0392C27.2387 16.4795 26.8576 17.653 25.9488 18.6559C25.3039 19.3707 24.5123 19.8188 23.6036 20.0215C23.3397 20.0748 23.0759 20.0855 22.8218 20.1175ZM25.1475 15.8074C25.1377 15.6687 25.1377 15.562 25.1182 15.4553C24.9423 14.3991 24.0531 13.8017 23.1247 14.0364C22.2159 14.2604 21.6296 14.8899 21.4147 15.8927C21.2388 16.7249 21.6101 17.5677 22.3137 17.9091C22.8511 18.1651 23.3886 18.1331 23.9065 17.8451C24.6785 17.4077 25.0987 16.7249 25.1475 15.8074Z" fill="white"/>
</svg>
