<svg width="33" height="33" viewBox="0 0 33 33" fill="none" xmlns="http://www.w3.org/2000/svg">
<ellipse cx="16.2755" cy="16.0129" rx="16.2755" ry="16" fill="#5DC9E1"/>
<path d="M3.2291 13.648C3.17157 13.648 3.15719 13.6166 3.18595 13.5695L3.48796 13.1455C3.51673 13.0984 3.58864 13.067 3.64616 13.067H8.78038C8.83791 13.067 8.85229 13.1141 8.82353 13.1612L8.57904 13.5695C8.55028 13.6166 8.47837 13.6637 8.43523 13.6637L3.2291 13.648Z" fill="white"/>
<path d="M1.05753 15.0927C1 15.0927 0.985618 15.0613 1.01438 15.0142L1.31639 14.5902C1.34516 14.5431 1.41707 14.5117 1.47459 14.5117H8.03259C8.09012 14.5117 8.11888 14.5588 8.1045 14.6059L7.98945 14.9828C7.97507 15.0456 7.91754 15.077 7.86001 15.077L1.05753 15.0927Z" fill="white"/>
<path d="M4.53787 16.5372C4.48035 16.5372 4.46597 16.4901 4.49473 16.443L4.69607 16.0505C4.72483 16.0034 4.78236 15.9563 4.83989 15.9563H7.7162C7.77373 15.9563 7.80249 16.0034 7.80249 16.0662L7.77373 16.443C7.77373 16.5058 7.7162 16.5529 7.67306 16.5529L4.53787 16.5372Z" fill="white"/>
<path d="M19.466 13.3655C18.5599 13.6167 17.9415 13.8051 17.0499 14.0563C16.8342 14.1191 16.8198 14.1348 16.6328 13.8993C16.4171 13.6324 16.2589 13.4597 15.9569 13.3027C15.0508 12.8159 14.1736 12.9572 13.3538 13.5382C12.3759 14.2291 11.8725 15.2496 11.8869 16.5214C11.9013 17.7776 12.6923 18.8138 13.8284 18.9866C14.8064 19.1279 15.6261 18.751 16.2733 17.9503C16.4027 17.7776 16.5178 17.5891 16.6616 17.3693C16.1438 17.3693 15.4967 17.3693 13.8859 17.3693C13.5839 17.3693 13.512 17.1652 13.6127 16.8983C13.7996 16.4115 14.1448 15.5951 14.3461 15.1868C14.3893 15.0926 14.49 14.9356 14.7057 14.9356C15.4391 14.9356 18.1429 14.9356 19.9406 14.9356C19.9118 15.3595 19.9118 15.7835 19.8543 16.2074C19.6961 17.3379 19.3078 18.3742 18.675 19.2849C17.6395 20.7765 16.2877 21.7029 14.5763 21.9541C13.1669 22.1582 11.8581 21.8599 10.7076 20.9178C9.64337 20.0385 9.03934 18.8766 8.88115 17.4321C8.69419 15.7207 9.1544 14.1819 10.1036 12.8316C11.1247 11.3714 12.4765 10.445 14.1304 10.1153C15.4823 9.84838 16.7766 10.0211 17.9415 10.8847C18.7038 11.4342 19.2503 12.1879 19.6098 13.0986C19.6961 13.2399 19.6386 13.3184 19.466 13.3655Z" fill="white"/>
<path d="M24.2264 22.0484C22.9176 22.017 21.724 21.6088 20.7173 20.6667C19.8687 19.8659 19.3366 18.8454 19.164 17.6364C18.9052 15.8621 19.351 14.292 20.329 12.8946C21.3788 11.3872 22.6444 10.6022 24.3558 10.2724C25.8227 9.9898 27.2033 10.1468 28.4545 11.0732C29.5907 11.9211 30.2954 13.0673 30.4823 14.5746C30.7268 16.6943 30.1659 18.4214 28.8285 19.8974C27.8793 20.9493 26.7144 21.6088 25.3769 21.9071C24.9886 21.9856 24.6003 22.0013 24.2264 22.0484ZM27.6492 15.7051C27.6348 15.501 27.6348 15.344 27.606 15.1869C27.3472 13.6325 26.0384 12.7532 24.6722 13.0987C23.3347 13.4284 22.4718 14.3548 22.1554 15.8307C21.8965 17.0554 22.443 18.2958 23.4785 18.7983C24.2695 19.1751 25.0605 19.128 25.8227 18.704C26.9589 18.0603 27.5773 17.0554 27.6492 15.7051Z" fill="white"/>
</svg>
