<svg width="73" height="28" viewBox="0 0 73 28" fill="none" xmlns="http://www.w3.org/2000/svg">
<path d="M5.66064 8.74195C5.5202 8.74195 5.48509 8.67173 5.55531 8.5664L6.29263 7.61842C6.36285 7.51309 6.5384 7.44287 6.67884 7.44287H19.2133C19.3537 7.44287 19.3888 7.5482 19.3186 7.65353L18.7217 8.5664C18.6515 8.67173 18.4759 8.77706 18.3706 8.77706L5.66064 8.74195Z" fill="#595959"/>
<path d="M0.358978 11.9719C0.218537 11.9719 0.183426 11.9017 0.253647 11.7964L0.990965 10.8484C1.06119 10.7431 1.23674 10.6729 1.37718 10.6729H17.3875C17.528 10.6729 17.5982 10.7782 17.5631 10.8835L17.2822 11.7262C17.2471 11.8666 17.1066 11.9368 16.9662 11.9368L0.358978 11.9719Z" fill="#595959"/>
<path d="M8.85571 15.2022C8.71527 15.2022 8.68016 15.0968 8.75038 14.9915L9.24193 14.1137C9.31215 14.0084 9.45259 13.9031 9.59303 13.9031H16.6151C16.7556 13.9031 16.8258 14.0084 16.8258 14.1488L16.7556 14.9915C16.7556 15.1319 16.6151 15.2373 16.5098 15.2373L8.85571 15.2022Z" fill="#595959"/>
<path d="M45.3003 8.10991C43.0884 8.67168 41.5786 9.093 39.4018 9.65477C38.8751 9.79521 38.84 9.83032 38.3836 9.30366C37.8569 8.70678 37.4707 8.32057 36.7334 7.96947C34.5214 6.88104 32.3797 7.19704 30.3784 8.49612C27.9909 10.041 26.762 12.3232 26.7971 15.1671C26.8323 17.9759 28.7633 20.2932 31.537 20.6794C33.9246 20.9954 35.9258 20.1528 37.5058 18.3621C37.8218 17.9759 38.1027 17.5546 38.4538 17.0631C37.1898 17.0631 35.6099 17.0631 31.6775 17.0631C30.9402 17.0631 30.7646 16.6066 31.0104 16.0097C31.4668 14.9213 32.3095 13.0956 32.801 12.1827C32.9064 11.9721 33.1521 11.6209 33.6788 11.6209C35.4694 11.6209 42.0702 11.6209 46.459 11.6209C46.3887 12.5689 46.3887 13.5169 46.2483 14.4649C45.8621 16.9928 44.9141 19.3101 43.3693 21.3465C40.8413 24.682 37.5409 26.7535 33.3628 27.3153C29.922 27.7717 26.7269 27.1046 23.9181 24.998C21.3199 23.0318 19.8453 20.4337 19.4591 17.2035C19.0026 13.3765 20.1262 9.93565 22.4435 6.91615C24.9363 3.65089 28.2367 1.57937 32.2744 0.842054C35.5747 0.245177 38.7347 0.631392 41.5786 2.56246C43.4395 3.79133 44.7737 5.47663 45.6514 7.51303C45.8621 7.82902 45.7217 8.00458 45.3003 8.10991Z" fill="#595959"/>
<path d="M56.9219 27.526C53.7268 27.4558 50.8126 26.5429 48.3549 24.4363C46.2834 22.6457 44.9843 20.3635 44.563 17.66C43.931 13.6925 45.0194 10.1815 47.4069 7.05668C49.97 3.68608 53.0597 1.93055 57.2378 1.19324C60.8191 0.561249 64.1897 0.912353 67.2443 2.98387C70.018 4.87983 71.7384 7.44289 72.1949 10.8135C72.7918 15.5534 71.4224 19.4155 68.1572 22.7159C65.8399 25.0683 62.996 26.5429 59.7307 27.21C58.7827 27.3856 57.8347 27.4207 56.9219 27.526ZM65.2781 13.3414C65.243 12.885 65.243 12.5339 65.1728 12.1828C64.5408 8.70686 61.3458 6.74068 58.0103 7.51311C54.745 8.25043 52.6384 10.3219 51.866 13.6223C51.234 16.3609 52.5682 19.1346 55.0961 20.2582C57.0272 21.1008 58.9583 20.9955 60.8191 20.0475C63.5928 18.608 65.1026 16.3609 65.2781 13.3414Z" fill="#595959"/>
</svg>
