<svg width="33" height="33" viewBox="0 0 33 33" fill="none" xmlns="http://www.w3.org/2000/svg">
<ellipse cx="16.6867" cy="16.0129" rx="16.2755" ry="16" fill="#CCCCCC"/>
<path d="M12.037 21.647L11.003 8.97632H22.3705L21.3365 21.6401L16.6773 23.0495" fill="#FF4C1E"/>
<path d="M16.6867 21.9721V10.0164H21.3334L20.4467 20.8261L16.6867 21.9721Z" fill="#FF651E"/>
<path d="M13.1148 11.5659H16.6868L17.2179 12.3424L16.6868 13.119H14.6752L14.8068 14.7096H16.6868L17.2179 15.5152L16.6868 16.2593H13.5034L13.1148 11.5659ZM13.566 17.0392H14.9948L15.0951 18.281L16.6868 18.7462L17.2861 19.5213L16.6868 20.3677L13.7666 19.4782L13.566 17.0392Z" fill="#EBEBEB"/>
<path d="M20.2461 11.5659H16.6805V13.119H20.1145L20.2461 11.5659ZM19.9861 14.7096H16.6805V16.2627H18.4351L18.2691 18.281L16.6805 18.7462V20.3608L19.5944 19.4782L19.9861 14.7096Z" fill="white"/>
</svg>
