<svg width="33" height="33" viewBox="0 0 33 33" fill="none" xmlns="http://www.w3.org/2000/svg">
<ellipse cx="16.2755" cy="16.0129" rx="16.2755" ry="16" fill="#CCCCCC"/>
<path d="M9.56341 24.8793L8 5.72095H25.188L23.6246 24.869L16.5798 27" fill="#FF4C1E"/>
<path d="M16.594 25.3709V7.29358H23.6198L22.2791 23.6382L16.594 25.3709Z" fill="#FF651E"/>
<path d="M11.1932 9.63647H16.594L17.3971 10.8106L16.594 11.9847H13.5525L13.7515 14.3899H16.594L17.3971 15.6079L16.594 16.7329H11.7806L11.1932 9.63647ZM11.8754 17.9122H14.0357L14.1873 19.7898L16.594 20.4932L17.5002 21.6653L16.594 22.9449L12.1786 21.6001L11.8754 17.9122Z" fill="#EBEBEB"/>
<path d="M21.9759 9.63647H16.5845V11.9847H21.7769L21.9759 9.63647ZM21.5827 14.3899H16.5845V16.7381H19.2376L18.9865 19.7898L16.5845 20.4932V22.9346L20.9905 21.6001L21.5827 14.3899Z" fill="white"/>
</svg>
