<svg width="32" height="32" viewBox="0 0 32 32" fill="none" xmlns="http://www.w3.org/2000/svg">
<circle cx="16" cy="16" r="16" fill="#5382A1"/>
<g clip-path="url(#clip0_855_623)">
<path d="M13.1596 22.007C13.1596 22.007 12.3347 22.495 13.7467 22.6602C15.4572 22.8587 16.3314 22.8302 18.2165 22.4672C18.2165 22.4672 18.7121 22.7834 19.4042 23.0572C15.1785 24.8997 9.84049 22.9505 13.1596 22.007ZM12.6432 19.6027C12.6432 19.6027 11.7181 20.2994 13.1311 20.4481C14.9583 20.6398 16.4013 20.6555 18.8983 20.1664C18.8983 20.1664 19.2437 20.5226 19.7867 20.7174C14.6776 22.2373 8.98687 20.8373 12.6432 19.6027Z" fill="white"/>
<path d="M16.9964 15.5241C18.0376 16.7437 16.7228 17.8411 16.7228 17.8411C16.7228 17.8411 19.3666 16.4526 18.1524 14.7139C17.0184 13.0925 16.1488 12.2868 20.8567 9.50903C20.8567 9.50903 13.4668 11.3867 16.9964 15.5241Z" fill="#E76F00"/>
<path d="M22.5852 23.7853C22.5852 23.7853 23.1957 24.297 21.9129 24.6929C19.4738 25.4446 11.7609 25.6716 9.6183 24.7228C8.84811 24.382 10.2925 23.9089 10.7468 23.8096C11.2206 23.7051 11.4914 23.7246 11.4914 23.7246C10.6349 23.1107 5.95499 24.93 9.1143 25.4509C17.7301 26.8724 24.8201 24.8109 22.5852 23.7853ZM13.5562 17.1115C13.5562 17.1115 9.63305 18.0595 12.167 18.4037C13.2369 18.5494 15.3697 18.5165 17.3564 18.3471C18.98 18.2078 20.6103 17.9115 20.6103 17.9115C20.6103 17.9115 20.0378 18.161 19.6236 18.4487C15.6396 19.5147 7.94324 19.0188 10.1589 17.9284C12.0327 17.0069 13.5562 17.1115 13.5562 17.1115ZM20.5941 21.1135C24.6441 18.9726 22.7716 16.9151 21.4646 17.1923C21.1442 17.2601 21.0014 17.3189 21.0014 17.3189C21.0014 17.3189 21.1203 17.1294 21.3474 17.0474C23.9331 16.1225 25.9216 19.7749 20.5127 21.2214C20.5127 21.2215 20.5754 21.1645 20.5941 21.1135Z" fill="white"/>
<path d="M18.1524 5.02362C18.1524 5.02362 20.3954 7.30628 16.0251 10.8162C12.5207 13.6318 15.226 15.2372 16.0237 17.0714C13.9781 15.1937 12.4768 13.5408 13.484 12.0025C14.9622 9.74415 19.0574 8.64936 18.1524 5.02362Z" fill="#E76F00"/>
<path d="M13.9542 26.9151C17.8417 27.1683 23.8113 26.7747 23.9526 24.9033C23.9526 24.9033 23.6809 25.6128 20.7399 26.1761C17.4219 26.8113 13.3296 26.7372 10.9024 26.3301C10.9025 26.3301 11.3992 26.7485 13.9542 26.9151Z" fill="#5382A1"/>
</g>
<defs>
<clipPath id="clip0_855_623">
<rect width="16" height="22" fill="white" transform="translate(8 5)"/>
</clipPath>
</defs>
</svg>
