<svg width="37" height="52" viewBox="0 0 37 52" fill="none" xmlns="http://www.w3.org/2000/svg">
<path d="M5.34755 30.8099C5.34755 29.4219 10.6138 28.6431 13.0661 28.4539L13.3006 28.5894C12.3586 28.7609 8.57862 29.4275 8.57862 30.2972C8.57862 31.2438 14.3761 31.8641 17.7408 31.8641C23.4557 31.8641 27.3406 30.9991 28.3854 30.7145L29.8475 31.5647C28.8462 32.0552 24.5488 33.3393 17.7408 33.3393C10.1752 33.3392 5.34755 31.8594 5.34755 30.8099ZM16.8785 50.2987C13.8838 50.3246 10.228 50.077 7.15263 49.5606L6.86706 49.7238C9.93126 50.6222 14.1971 51.1646 18.8839 51.1238C28.0887 51.0441 35.5514 48.7614 35.6988 46.0143L35.5931 45.9522C34.9756 46.705 30.9944 50.1754 16.8785 50.2987ZM17.6619 48.5297C25.1959 48.4639 33.6248 46.9897 33.6034 44.5115C33.5988 44.0618 33.3067 43.754 33.0527 43.5686L32.9284 43.64C32.2321 45.5591 26.3466 46.9777 17.6498 47.0528C12.0387 47.102 4.2654 45.7575 4.25149 44.2045C4.23847 42.6469 7.93413 41.7912 7.93413 41.7912L7.67265 41.642C5.19624 41.9831 0.632801 43.169 0.647588 44.8814C0.669133 47.3568 11.1571 48.5862 17.6619 48.5297ZM34.6344 31.4729C34.4825 34.3795 31.7974 36.1893 29.1132 37.7182L29.3562 37.8591C32.2202 37.0526 37.3306 34.7068 36.9078 31.1001C36.6974 29.3024 35.0535 28.0173 32.9108 28.0173C32.2433 28.0173 31.65 28.135 31.1687 28.2816L31.1669 28.2862L31.0648 28.5421C32.9822 28.1666 34.7337 29.5666 34.6344 31.4729ZM12.5042 40.1092C11.6299 40.2835 9.72463 40.7212 9.72463 41.6473C9.72463 42.9305 13.8004 43.9143 17.7362 43.9143C23.1517 43.9143 25.3704 42.5208 25.4704 42.4484L23.2184 41.1457C22.2606 41.3738 20.6474 41.7317 17.7417 41.7317C14.4995 41.7317 12.3865 41.1773 12.3865 40.569C12.3865 40.4401 12.4672 40.2863 12.6173 40.175L12.5042 40.1092ZM25.8079 35.7832C24.5627 36.1355 21.7572 36.7103 17.7454 36.7103C13.8087 36.7103 10.5924 36.0372 10.5821 35.2436C10.5747 34.715 11.2135 34.4852 11.2135 34.4852L11.1004 34.4194C9.21459 34.7522 7.46406 35.2677 7.47336 36.0391C7.49099 37.4381 12.8425 38.4886 17.7379 38.4886C21.8999 38.4886 25.8968 37.7905 27.7002 36.8754L25.8079 35.7832Z" fill="#595959"/>
<path d="M24.7343 4.57089C24.7343 12.2858 14.1619 15.2378 14.1619 20.7228C14.1619 24.5733 16.7153 26.9877 18.1283 28.5146L18.0133 28.5814C16.2295 27.4651 11.5372 24.6614 11.5372 20.0303C11.5372 13.5282 23.681 10.4213 23.681 3.03649C23.681 2.12788 23.5466 1.4307 23.4521 1.05513L23.5745 0.984619C23.9592 1.46772 24.7343 2.67669 24.7343 4.57089ZM28.2112 11.403L28.0842 11.3308C25.7839 12.1012 18.7004 14.8974 18.7004 20.11C18.7004 23.0574 21.5792 24.6911 21.5792 27.4549C21.5792 28.4414 21.022 29.3657 20.5696 29.9183L20.7967 30.0499C21.9954 29.2711 24.1167 27.5847 24.1167 25.4077C24.1167 23.5637 21.5652 21.3477 21.5652 18.9779C21.5653 15.2433 26.4885 12.3135 28.2112 11.403Z" fill="#595959"/>
</svg>
