<svg width="33" height="33" viewBox="0 0 33 33" fill="none" xmlns="http://www.w3.org/2000/svg">
<circle cx="16.5864" cy="16.5242" r="16" fill="#CCCCCC"/>
<g clip-path="url(#clip0_329_349)">
<path d="M13.9236 21.0597C13.9236 21.0597 13.1502 21.5094 14.4739 21.6615C16.0776 21.8445 16.8971 21.8183 18.6644 21.4838C18.6644 21.4838 19.129 21.7751 19.7778 22.0275C15.8163 23.7253 10.8119 21.9291 13.9236 21.0597ZM13.4395 18.844C13.4395 18.844 12.5721 19.4861 13.8968 19.6231C15.6098 19.7998 16.9626 19.8142 19.3036 19.3635C19.3036 19.3635 19.6274 19.6917 20.1365 19.8713C15.3466 21.2719 10.0116 19.9817 13.4395 18.844Z" fill="#5382A1"/>
<path d="M17.5205 15.0856C18.4967 16.2095 17.2641 17.2208 17.2641 17.2208C17.2641 17.2208 19.7426 15.9413 18.6043 14.339C17.5412 12.8448 16.7259 12.1023 21.1396 9.5426C21.1396 9.5426 14.2116 11.2729 17.5205 15.0856Z" fill="#E76F00"/>
<path d="M22.7601 22.6985C22.7601 22.6985 23.3324 23.17 22.1298 23.5348C19.8431 24.2276 12.6123 24.4368 10.6036 23.5624C9.88154 23.2484 11.2356 22.8124 11.6616 22.7209C12.1058 22.6246 12.3596 22.6426 12.3596 22.6426C11.5566 22.0769 7.16923 23.7533 10.1311 24.2334C18.2084 25.5433 24.8552 23.6436 22.7601 22.6985ZM14.2954 16.5484C14.2954 16.5484 10.6174 17.422 12.993 17.7392C13.996 17.8735 15.9955 17.8432 17.858 17.6871C19.3802 17.5587 20.9086 17.2857 20.9086 17.2857C20.9086 17.2857 20.3719 17.5156 19.9836 17.7807C16.2486 18.763 9.03321 18.3061 11.1104 17.3012C12.8671 16.4521 14.2954 16.5484 14.2954 16.5484ZM20.8934 20.2364C24.6903 18.2635 22.9348 16.3675 21.7095 16.6229C21.4091 16.6854 21.2752 16.7395 21.2752 16.7395C21.2752 16.7395 21.3867 16.5649 21.5996 16.4894C24.0237 15.6371 25.888 19.0028 20.8171 20.3359C20.8171 20.3359 20.8759 20.2834 20.8934 20.2364Z" fill="#5382A1"/>
<path d="M18.6043 5.40924C18.6043 5.40924 20.7071 7.51275 16.61 10.7472C13.3246 13.3418 15.8608 14.8212 16.6086 16.5115C14.6909 14.7812 13.2834 13.258 14.2277 11.8404C15.6135 9.7593 19.4527 8.75043 18.6043 5.40924Z" fill="#E76F00"/>
<path d="M14.6685 25.5827C18.313 25.816 23.9095 25.4532 24.042 23.7288C24.042 23.7288 23.7873 24.3825 21.0301 24.9017C17.9194 25.487 14.083 25.4187 11.8075 25.0435C11.8075 25.0435 12.2732 25.4291 14.6685 25.5827Z" fill="#5382A1"/>
</g>
<defs>
<clipPath id="clip0_329_349">
<rect width="15" height="20.2734" fill="white" transform="translate(9.08643 5.38745)"/>
</clipPath>
</defs>
</svg>
