<svg width="33" height="32" viewBox="0 0 33 32" fill="none" xmlns="http://www.w3.org/2000/svg">
<ellipse cx="16.2755" cy="16" rx="16.2755" ry="16" fill="#FDD403"/>
<path d="M12.2453 10.1597H15.2901V18.1673C15.2864 18.9278 15.0994 19.597 14.7289 20.1749C14.3622 20.749 13.8547 21.1977 13.2065 21.5209C12.562 21.8403 11.8193 22 10.9784 22C10.2487 22 9.58191 21.8707 8.97812 21.6122C8.37433 21.3498 7.89278 20.9392 7.53347 20.3802C7.17416 19.8175 6.99635 19.0875 7.00006 18.1901H10.0894C10.1005 18.4829 10.1487 18.73 10.2339 18.9316C10.3228 19.1331 10.445 19.2852 10.6006 19.3878C10.7599 19.4867 10.9525 19.5361 11.1784 19.5361C11.4081 19.5361 11.6007 19.4848 11.7563 19.3821C11.9156 19.2795 12.036 19.1274 12.1175 18.9259C12.1989 18.7205 12.2415 18.4677 12.2453 18.1673V10.1597Z" fill="black"/>
<path d="M22.8884 13.8099C22.8588 13.4297 22.7199 13.1331 22.4717 12.9202C22.2272 12.7072 21.855 12.6008 21.3549 12.6008C21.0363 12.6008 20.7752 12.6407 20.5714 12.7205C20.3714 12.7966 20.2232 12.9011 20.1269 13.0342C20.0306 13.1673 19.9806 13.3194 19.9769 13.4905C19.9695 13.6312 19.9936 13.7586 20.0491 13.8726C20.1084 13.9829 20.201 14.0836 20.327 14.1749C20.4529 14.2624 20.614 14.3422 20.8104 14.4144C21.0067 14.4867 21.2401 14.5513 21.5105 14.6084L22.4439 14.8137C23.0737 14.9506 23.6126 15.1312 24.0608 15.3555C24.509 15.5798 24.8758 15.8441 25.161 16.1483C25.4462 16.4487 25.6555 16.7871 25.7889 17.1635C25.9259 17.5399 25.9963 17.9506 26 18.3954C25.9963 19.1635 25.8092 19.8137 25.4388 20.346C25.0684 20.8783 24.5387 21.2833 23.8497 21.5608C23.1644 21.8384 22.3402 21.9772 21.3771 21.9772C20.3881 21.9772 19.525 21.827 18.7879 21.5266C18.0544 21.2262 17.484 20.7643 17.0765 20.1407C16.6727 19.5133 16.469 18.711 16.4653 17.7338H19.3991C19.4176 18.0913 19.5046 18.3916 19.6602 18.635C19.8158 18.8783 20.0343 19.0627 20.3159 19.1882C20.6011 19.3137 20.94 19.3764 21.3327 19.3764C21.6623 19.3764 21.9383 19.3346 22.1606 19.2509C22.3828 19.1673 22.5514 19.0513 22.6662 18.903C22.781 18.7548 22.8403 18.5856 22.844 18.3954C22.8403 18.2167 22.7829 18.0608 22.6717 17.9278C22.5643 17.7909 22.3865 17.6692 22.1383 17.5627C21.8902 17.4525 21.5549 17.3498 21.1326 17.2548L19.9991 17.0038C18.9916 16.7795 18.197 16.4049 17.6155 15.8802C17.0376 15.3517 16.7505 14.6312 16.7542 13.7186C16.7505 12.9772 16.9431 12.3289 17.3321 11.7738C17.7247 11.2148 18.2674 10.7795 18.9601 10.4677C19.6565 10.1559 20.4548 10 21.3549 10C22.2735 10 23.0681 10.1578 23.7386 10.4734C24.409 10.789 24.9258 11.2338 25.2888 11.808C25.6555 12.3783 25.8407 13.0456 25.8444 13.8099H22.8884Z" fill="black"/>
</svg>
