<svg height="180" viewBox="0 0 180 180" width="180" xmlns="http://www.w3.org/2000/svg" xmlns:sketch="http://www.bohemiancoding.com/sketch/ns"><g id="Page-1" fill="none" fill-rule="evenodd"><g id="Material"><g id="Slice"/><g id="circle_kenya"><path id="Rectangle-3-copy-2" d="m174.873467 120h-169.75245717c12.35471617 34.955772 45.69086397 60 84.87622837 60 39.1853648 0 72.5215118-25.044228 84.8762248-60z" fill="#4eab53"/><path id="Rectangle-3-copy-3" d="m5.12100983 120h169.75245717c3.316438-9.383367 5.121009-19.480937 5.121009-30s-1.804571-20.6166327-5.121013-30.0000004l-169.75245317.0000004c-3.31643875 9.3833673-5.12100983 19.480937-5.12100983 30s1.80457108 20.616633 5.12101363 30z" fill="#fff"/><path id="Rectangle-3-copy-3" d="m3.51755821 115h172.95936179c2.290318-7.937247 3.517556-16.3253006 3.517556-24.9999996 0-8.6746992-1.227238-17.0627527-3.517558-25.0000004h-172.95936166c-2.2903185 7.9372475-3.51755634 16.3253011-3.51755634 25.0000004 0 8.674699 1.22723775 17.0627526 3.51755821 24.9999996z" fill="#f1453d"/><path id="Rectangle-3" d="m5.12100983 60h169.75245717c-12.354717-34.9557725-45.690864-60-84.8762288-60-39.1853644 0-72.5215122 25.0442275-84.87622457 59.9999996z" fill="#000"/><g id="Group" transform="translate(55 32)"><path id="spearshape" d="m36.3094011 114.044428h2v-93.4256257c2-2 2-5 2-8 0-2 0-10.0000001-3-18.66323025-3 8.66323015-3 16.66323025-3 18.66323025 0 3 0 6 2 8 0 0-2-2 0 0z" fill="#000" stroke="#000" transform="matrix(.866 .5 -.5 .866 31.999 -11.42)"/><path id="spearshape" d="m36.3094011 114.044428h2v-93.4256257c2-2 2-5 2-8 0-2 0-10.0000001-3-18.66323025-3 8.66323015-3 16.66323025-3 18.66323025 0 3 0 6 2 8 0 0-2-2 0 0z" fill="#fff" transform="matrix(.866 .5 -.5 .866 31.999 -11.42)"/><path id="spearshape" d="m31.6905989 114.044428h2v-93.4256257c2-2 2-5 2-8 0-2 0-10.0000001-3-18.66323025-3 8.66323015-3 16.66323025-3 18.66323025 0 3 0 6 2 8 0 0-2-2 0 0z" fill="#000" stroke="#000" transform="matrix(.866 -.5 .5 .866 -22.62 23.58)"/><path id="spearshape" d="m31.6905989 114.044428h2v-93.4256257c2-2 2-5 2-8 0-2 0-10.0000001-3-18.66323025-3 8.66323015-3 16.66323025-3 18.66323025 0 3 0 6 2 8 0 0-2-2 0 0z" fill="#fff" transform="matrix(.866 -.5 .5 .866 -22.62 23.58)"/><path id="Shape" d="m16 82c3 8 13 24 19 24s16-16 19-24v-48c-3-8-13-24-19-24s-16 16-19 24z" fill="#f1453d"/><path id="Oval" d="m35 64c2.2091391 0 4-2.6862913 4-6s-1.7908609-6-4-6-4 2.6862913-4 6 1.7908609 6 4 6zm1-.15s4 8 4 21-4 21-4 21zm-2 0s-4 8-4 21 4 21 4 21zm0-53.7s-4 8-4 21 4 21 4 21zm2 0s4 8 4 21-4 21-4 21z" fill="#fff"/><path id="deco_r" d="m54 82c3-8 5-16 5-24s-2-16-5-24c-3 8-5 16-5 24s2 16 5 24c0 0-3-8 0 0zm-38 0c3-8 5-16 5-24s-2-16-5-24c-3 8-5 16-5 24s2 16 5 24c0 0-3-8 0 0z" fill="#000"/></g></g></g></g></svg>