<svg width="65" height="64" viewBox="0 0 65 64" fill="none" xmlns="http://www.w3.org/2000/svg">
<circle cx="32.4025" cy="31.8357" r="31.6406" fill="#2B2B2B"/>
<path d="M42.2764 19.1407C43.0246 19.1407 43.7422 19.4379 44.2712 19.967C44.8003 20.496 45.0975 21.2136 45.0975 21.9618V41.7096C45.0975 42.4578 44.8003 43.1753 44.2712 43.7044C43.7422 44.2334 43.0246 44.5307 42.2764 44.5307H22.5287C21.7805 44.5307 21.0629 44.2334 20.5338 43.7044C20.0048 43.1753 19.7076 42.4578 19.7076 41.7096V21.9618C19.7076 21.2136 20.0048 20.496 20.5338 19.967C21.0629 19.4379 21.7805 19.1407 22.5287 19.1407H42.2764ZM41.5711 41.0043V33.5283C41.5711 32.3088 41.0867 31.1391 40.2243 30.2768C39.3619 29.4144 38.1923 28.9299 36.9727 28.9299C35.7738 28.9299 34.3773 29.6634 33.7003 30.7637V29.1979H29.7648V41.0043H33.7003V34.0502C33.7003 32.9641 34.5748 32.0755 35.6609 32.0755C36.1847 32.0755 36.687 32.2835 37.0573 32.6539C37.4276 33.0242 37.6357 33.5265 37.6357 34.0502V41.0043H41.5711ZM25.1805 26.9834C25.809 26.9834 26.4117 26.7337 26.8562 26.2893C27.3006 25.8449 27.5502 25.2421 27.5502 24.6136C27.5502 23.3018 26.4923 22.2298 25.1805 22.2298C24.5483 22.2298 23.9419 22.481 23.4949 22.928C23.0478 23.3751 22.7967 23.9814 22.7967 24.6136C22.7967 25.9255 23.8687 26.9834 25.1805 26.9834ZM27.1412 41.0043V29.1979H23.2339V41.0043H27.1412Z" fill="#FDD403"/>
</svg>
