<svg width="50" height="27" viewBox="0 0 50 27" fill="none" xmlns="http://www.w3.org/2000/svg">
<path d="M17.2574 13.356L24.0395 22.6885H28.4115L21.7975 13.356L28.0471 4.47205H23.6752L17.2574 13.356ZM16.6969 4.47205H12.7733V22.6885H16.6969V4.47205Z" fill="#00E1DD"/>
<path d="M34.1525 12.208C35.8474 12.208 37.2213 10.8341 37.2213 9.13925C37.2213 7.44439 35.8474 6.07043 34.1525 6.07043C32.4577 6.07043 31.0837 7.44439 31.0837 9.13925C31.0837 10.8341 32.4577 12.208 34.1525 12.208Z" fill="white"/>
<path fill-rule="evenodd" clip-rule="evenodd" d="M34.3046 22.6854H30.2405L32.367 14.7538H36.4286L34.3046 22.6854Z" fill="white"/>
<path d="M0 15.4028C0.980887 15.4028 1.79363 16.2155 1.79363 17.2244V20.8677C1.79363 23.8945 4.25986 26.3327 7.25857 26.3327V22.6894C6.27768 22.6894 5.43692 21.8766 5.43692 20.8677V17.2244C5.43692 15.8232 4.73628 14.506 3.50317 13.5811C4.73628 12.6843 5.43692 11.3391 5.43692 9.93783V6.29453C5.43692 5.28562 6.27768 4.47288 7.25857 4.47288V0.82959C4.25986 0.82959 1.79363 3.29582 1.79363 6.29453V9.93783C1.79363 11.3391 0.980887 11.7595 0 11.7595V15.4028Z" fill="#FDD403"/>
<path d="M50 11.7643C49.0191 11.7643 48.2064 10.9516 48.2064 9.9427V6.2994C48.2064 3.27266 45.7401 0.834459 42.7414 0.834459V4.47775C43.7223 4.47775 44.5631 5.29049 44.5631 6.2994V9.9427C44.5631 11.344 45.2637 12.6612 46.4968 13.586C45.2637 14.4828 44.5631 15.828 44.5631 17.2293V20.8726C44.5631 21.8815 43.7223 22.6942 42.7414 22.6942V26.3375C45.7401 26.3375 48.2064 23.8713 48.2064 20.8726V17.2293C48.2064 15.828 49.0191 15.4076 50 15.4076V11.7643Z" fill="#FDD403"/>
</svg>
