<svg xmlns="http://www.w3.org/2000/svg" width="24.276" height="21.241" viewBox="0 0 24.276 21.241">
  <path id="Icon_awesome-bars" data-name="Icon awesome-bars" d="M.867,8.12H23.409a.867.867,0,0,0,.867-.867V5.086a.867.867,0,0,0-.867-.867H.867A.867.867,0,0,0,0,5.086V7.253A.867.867,0,0,0,.867,8.12Zm0,8.67H23.409a.867.867,0,0,0,.867-.867V13.756a.867.867,0,0,0-.867-.867H.867A.867.867,0,0,0,0,13.756v2.167A.867.867,0,0,0,.867,16.79Zm0,8.67H23.409a.867.867,0,0,0,.867-.867V22.426a.867.867,0,0,0-.867-.867H.867A.867.867,0,0,0,0,22.426v2.167A.867.867,0,0,0,.867,25.46Z" transform="translate(0 -4.219)" fill="#e7e7e7"/>
</svg>
