<svg width="44" height="44" viewBox="0 0 44 44" fill="none" xmlns="http://www.w3.org/2000/svg">
<circle cx="22" cy="22" r="22" fill="#CCCCCC"/>
<path d="M22.1774 19.0462H22.1774C22.2286 19.0462 22.2591 19.0437 22.3046 19.0707L24.7595 20.5031C24.8508 20.5564 24.913 20.6531 24.913 20.759V23.5721C24.913 23.678 24.8505 23.7758 24.7595 23.828L22.3046 25.2344C22.2624 25.2605 22.2138 25.2744 22.1642 25.2744C22.1146 25.2744 22.066 25.2605 22.0238 25.2344L19.5689 23.828C19.4769 23.7747 19.4154 23.678 19.4154 23.5721V20.759C19.4164 20.7067 19.431 20.6555 19.458 20.6107C19.4849 20.5658 19.5232 20.5288 19.5689 20.5034L22.0238 19.0711C22.07 19.0462 22.1265 19.0462 22.1774 19.0462Z" fill="#83CD29"/>
<path d="M21.5284 6.20473C21.7616 6.0699 22.0263 5.99927 22.2957 6.00001C22.5651 5.9991 22.8303 6.07046 23.0634 6.20544L35.7473 13.5705C35.9806 13.7053 36.1744 13.8991 36.309 14.1325C36.4437 14.3659 36.5146 14.6307 36.5146 14.9001V18.4544C36.5146 19.0028 36.2214 19.5078 35.7469 19.7836L28.1011 24.2325C27.8623 24.3711 27.5726 24.3704 27.3334 24.2325C27.2166 24.1653 27.1195 24.0685 27.0522 23.9518C26.9848 23.835 26.9496 23.7026 26.9499 23.5678V19.9365C26.9503 19.8017 26.915 19.6692 26.8476 19.5525C26.7803 19.4358 26.6833 19.339 26.5664 19.2718L22.5754 16.9701C22.3366 16.8329 22.0451 16.8329 21.8077 16.9701L17.8185 19.2718C17.5803 19.409 17.4097 19.6614 17.4097 19.9365V24.5424C17.4097 24.8182 17.5782 25.0958 17.8185 25.233L30.6562 32.598C30.8969 32.7359 31.0408 32.9854 31.0401 33.2627C31.0394 33.5399 30.8748 33.7922 30.6314 33.9273L22.9596 38.1981C22.4887 38.46 21.9182 38.4398 21.4509 38.1732L8.79259 30.9581C8.31206 30.6844 8 30.1826 8 29.6288V14.8991C8 14.3489 8.29145 13.8452 8.76771 13.5698L21.5284 6.20473Z" fill="#404137"/>
</svg>
