<svg width="44" height="44" viewBox="0 0 44 44" fill="none" xmlns="http://www.w3.org/2000/svg">
<circle cx="22" cy="22" r="22" fill="#CCCCCC"/>
<path d="M15.8191 29.8206C15.7976 29.7825 15.7784 29.7432 15.7616 29.7027C15.6457 29.4345 15.61 29.1384 15.6588 28.8503H8.80031L18.993 10.9134L22.3392 16.7956L23.3094 15.0788L20.3925 9.94005C20.2527 9.67683 20.0491 9.45287 19.8004 9.28865C19.5517 9.12443 19.2658 9.02518 18.9688 9C18.6725 9.01357 18.386 9.10999 18.1418 9.27832C17.8976 9.44664 17.7055 9.68011 17.5874 9.95218L7.26174 28.1067C7.10737 28.3631 7.01837 28.6534 7.00255 28.9522C6.98674 29.2511 7.0446 29.5492 7.17106 29.8204C7.32989 30.0708 7.55562 30.2717 7.82271 30.4005C8.0898 30.5293 8.3876 30.5808 8.68242 30.5491H17.3305C17.0356 30.5813 16.7377 30.53 16.4705 30.4013C16.2033 30.2725 15.9776 30.0713 15.8191 29.8206Z" fill="#00C492"/>
<path d="M35.7027 28.1067L27.2179 13.1593C27.0787 12.8933 26.8748 12.6666 26.6249 12.5002C26.375 12.3338 26.0872 12.233 25.7881 12.2072C25.492 12.2199 25.2055 12.3157 24.9612 12.4835C24.717 12.6513 24.5248 12.8845 24.4067 13.1563L23.3094 15.0788L24.2858 16.7956L25.7969 14.1205L34.1913 28.8503H30.9993C31.0401 29.0938 31.0172 29.3438 30.9328 29.5758C30.915 29.627 30.8928 29.6766 30.8663 29.7239L30.8391 29.7783C30.6656 30.0232 30.4345 30.2216 30.1662 30.356C29.8978 30.4904 29.6005 30.5567 29.3005 30.5489H34.2941C34.5941 30.557 34.8915 30.4908 35.1599 30.3564C35.4283 30.222 35.6594 30.0234 35.8326 29.7783C35.9694 29.5154 36.0297 29.2194 36.0067 28.9239C35.9838 28.6285 35.8784 28.3453 35.7027 28.1067Z" fill="#008776"/>
<path d="M30.839 29.7783L30.8662 29.7239C30.8927 29.6766 30.915 29.627 30.9328 29.5757C31.0172 29.3437 31.0401 29.0938 30.9993 28.8503C30.9522 28.5877 30.858 28.3357 30.7212 28.1067L24.292 16.7956L23.3097 15.0787L22.3333 16.7956L15.907 28.107C15.7822 28.3388 15.6984 28.5903 15.6591 28.8506C15.6074 29.1378 15.64 29.4339 15.7528 29.703C15.7696 29.7434 15.7888 29.7828 15.8103 29.8209C15.9692 30.0712 16.195 30.2721 16.4621 30.4009C16.7292 30.5296 17.027 30.581 17.3218 30.5494H29.2915C29.593 30.5582 29.892 30.4925 30.162 30.3579C30.432 30.2234 30.6645 30.0243 30.839 29.7783ZM23.3094 18.5125L29.1856 28.8503H17.4363L23.3094 18.5125Z" fill="#2D4A5D"/>
</svg>
