<svg width="21" height="21" viewBox="0 0 21 21" fill="none" xmlns="http://www.w3.org/2000/svg">
<path d="M7.74255 11.314H8.74255V9.31396H9.74255C10.0259 9.31396 10.2636 9.21797 10.4556 9.02596C10.6476 8.83396 10.7432 8.59663 10.7426 8.31396V7.31396C10.7426 7.03063 10.6466 6.79296 10.4546 6.60097C10.2626 6.40897 10.0252 6.3133 9.74255 6.31396H7.74255V11.314ZM8.74255 8.31396V7.31396H9.74255V8.31396H8.74255ZM11.7426 11.314H13.7426C14.0259 11.314 14.2636 11.218 14.4556 11.026C14.6476 10.834 14.7432 10.5966 14.7426 10.314V7.31396C14.7426 7.03063 14.6466 6.79296 14.4546 6.60097C14.2626 6.40897 14.0252 6.3133 13.7426 6.31396H11.7426V11.314ZM12.7426 10.314V7.31396H13.7426V10.314H12.7426ZM15.7426 11.314H16.7426V9.31396H17.7426V8.31396H16.7426V7.31396H17.7426V6.31396H15.7426V11.314ZM4.74255 16.814V0.813965H20.7426V16.814H4.74255ZM6.74255 14.814H18.7426V2.81396H6.74255V14.814ZM0.742554 20.814V4.81396H2.74255V18.814H16.7426V20.814H0.742554Z" fill="#CCCCCC"/>
</svg>
