<svg width="33" height="33" viewBox="0 0 33 33" fill="none" xmlns="http://www.w3.org/2000/svg">
<path d="M0.799683 16.6925C0.799683 18.6496 1.15175 20.5243 1.79487 22.2577L16.7997 23.649L31.8045 22.2577C32.4476 20.5243 32.7997 18.6496 32.7997 16.6925C32.7997 14.7353 32.4476 12.8606 31.8045 11.1273L16.7997 9.73596L1.79487 11.1273C1.15175 12.8606 0.799683 14.7353 0.799683 16.6925Z" fill="#FFDA44"/>
<path d="M31.8039 11.1276C29.5432 5.03481 23.6785 0.692749 16.7991 0.692749C9.91963 0.692749 4.05494 5.03481 1.79425 11.1276H31.8039Z" fill="#D80027"/>
<path d="M1.79425 22.2583C4.05494 28.3511 9.91963 32.6931 16.7991 32.6931C23.6785 32.6931 29.5432 28.3511 31.8039 22.2583H1.79425Z" fill="#D80027"/>
</svg>
