<svg width="34" height="33" viewBox="0 0 34 33" fill="none" xmlns="http://www.w3.org/2000/svg">
<ellipse cx="16.8227" cy="16.0129" rx="16.2755" ry="16" fill="#FF5722"/>
<path d="M20.0634 20.8481C18.56 21.6998 16.5023 21.7875 14.4191 20.9107C12.7837 20.2204 11.3998 19.0587 10.4502 17.579C10.877 17.9234 11.3803 18.2052 11.9154 18.4557C14.0623 19.439 16.2028 19.3701 17.7127 18.4557C15.5658 16.8337 13.7374 14.7231 12.3805 13.0009C12.0938 12.7191 11.8836 12.3684 11.667 12.0552C16.9418 15.8442 16.7125 16.8086 13.2023 11.4227C16.3175 14.5165 19.2098 16.27 19.2098 16.27C19.3117 16.3264 19.369 16.3702 19.4391 16.4078C19.5028 16.2513 19.5601 16.0884 19.6047 15.9193C20.108 14.1344 19.5347 12.0865 18.2797 10.4019C21.1783 12.1241 22.8983 15.3557 22.1785 18.0674C22.1593 18.1363 22.1402 18.2052 22.1466 18.3117C23.5736 20.084 23.1914 21.9316 23.0066 21.5808C22.2358 20.084 20.7897 20.5475 20.0634 20.8481Z" fill="white"/>
</svg>
