<svg width="33" height="32" viewBox="0 0 33 32" fill="none" xmlns="http://www.w3.org/2000/svg">
<ellipse cx="16.2755" cy="16" rx="16.2755" ry="16" fill="#FF5722"/>
<path d="M20.5939 23.6171C17.9987 25.1351 14.4468 25.2913 10.8509 23.7287C8.028 22.4985 5.63919 20.4281 4 17.7909C4.73678 18.4048 5.60551 18.907 6.52923 19.3535C10.2351 21.1058 13.93 20.9831 16.5362 19.3535C12.8303 16.4627 9.67427 12.7013 7.33198 9.63196C6.83714 9.1297 6.47425 8.50466 6.10036 7.9466C15.2056 14.6992 14.8097 16.4181 8.75055 6.8193C14.1279 12.333 19.1204 15.4582 19.1204 15.4582C19.2963 15.5586 19.3953 15.6368 19.5163 15.7037C19.6262 15.4247 19.7252 15.1345 19.8022 14.8332C20.6709 11.6522 19.6812 8.0024 17.5149 5C22.5184 8.06937 25.4875 13.8286 24.2448 18.6615C24.2118 18.7843 24.1788 18.907 24.1898 19.0968C26.6531 22.2555 25.9933 25.548 25.6744 24.923C24.3438 22.2554 21.8476 23.0814 20.5939 23.6171Z" fill="white"/>
</svg>
