<svg width="44" height="44" viewBox="0 0 44 44" fill="none" xmlns="http://www.w3.org/2000/svg">
<circle cx="22" cy="22" r="22" fill="#CCCCCC"/>
<path fill-rule="evenodd" clip-rule="evenodd" d="M13.736 18.99C14.9 14.33 17.813 12 22.472 12C29.462 12 30.334 17.24 33.828 18.115C36.158 18.698 38.196 17.825 39.943 15.495C38.779 20.154 35.866 22.484 31.208 22.484C24.218 22.484 23.346 17.244 19.852 16.369C17.522 15.786 15.484 16.659 13.737 18.989L13.736 18.99ZM5 29.474C6.166 24.814 9.076 22.484 13.736 22.484C20.726 22.484 21.598 27.724 25.092 28.599C27.422 29.182 29.46 28.309 31.207 25.979C30.043 30.639 27.13 32.969 22.471 32.969C15.481 32.969 14.609 27.729 11.115 26.854C8.785 26.271 6.747 27.144 5 29.474Z" fill="#38BDF8"/>
</svg>
