<svg width="37" height="37" viewBox="0 0 37 37" fill="none" xmlns="http://www.w3.org/2000/svg">
<path d="M33.2589 0.0375977H4.26186C2.31834 0.0375977 0.742798 1.61314 0.742798 3.55666V32.5537C0.742798 34.4973 2.31834 36.0728 4.26186 36.0728H33.2589C35.2025 36.0728 36.778 34.4973 36.778 32.5537V3.55666C36.778 1.61314 35.2025 0.0375977 33.2589 0.0375977Z" fill="#595959"/>
<path fill-rule="evenodd" clip-rule="evenodd" d="M23.0494 28.7126V32.236C23.6221 32.5296 24.2995 32.7498 25.0816 32.8966C25.8637 33.0434 26.6879 33.1168 27.5545 33.1168C28.399 33.1168 29.2012 33.0361 29.9612 32.8745C30.7213 32.7131 31.3877 32.447 31.9605 32.0763C32.5332 31.7056 32.9867 31.2211 33.3208 30.6229C33.6549 30.0247 33.822 29.2852 33.822 28.4043C33.822 27.7657 33.7266 27.206 33.5356 26.7253C33.3447 26.2445 33.0693 25.8169 32.7095 25.4426C32.3497 25.0682 31.9182 24.7323 31.4152 24.435C30.9122 24.1378 30.3449 23.857 29.7134 23.5928C29.2508 23.4019 28.8359 23.2166 28.4687 23.0368C28.1015 22.8569 27.7895 22.6734 27.5324 22.4863C27.2754 22.299 27.0771 22.1009 26.9376 21.8917C26.7981 21.6824 26.7283 21.4457 26.7283 21.1815C26.7283 20.9393 26.7908 20.7209 26.9156 20.5264C27.0405 20.3318 27.2167 20.1649 27.4443 20.0254C27.672 19.886 27.951 19.7776 28.2814 19.7006C28.6119 19.6235 28.979 19.585 29.383 19.585C29.6767 19.585 29.9869 19.607 30.3137 19.651C30.6405 19.6951 30.9691 19.763 31.2996 19.8547C31.63 19.9465 31.9513 20.0621 32.2634 20.2015C32.5755 20.341 32.8637 20.5025 33.128 20.686V17.3939C32.592 17.1884 32.0064 17.0361 31.3712 16.937C30.736 16.8379 30.0071 16.7883 29.1847 16.7883C28.3475 16.7883 27.5545 16.8783 26.8055 17.0581C26.0565 17.2379 25.3974 17.5187 24.8282 17.9004C24.2591 18.2821 23.8094 18.7684 23.479 19.3593C23.1485 19.9501 22.9833 20.6566 22.9833 21.4788C22.9833 22.5284 23.2862 23.4239 23.892 24.1653C24.4978 24.9067 25.4175 25.5343 26.6513 26.0481C27.1359 26.2463 27.5875 26.4408 28.0061 26.6316C28.4247 26.8225 28.7863 27.0207 29.091 27.2262C29.3958 27.4317 29.6363 27.6556 29.8126 27.8979C29.9888 28.1401 30.0769 28.4153 30.0769 28.7237C30.0769 28.9512 30.0218 29.1622 29.9117 29.3567C29.8015 29.5513 29.6344 29.72 29.4105 29.8632C29.1865 30.0064 28.9075 30.1183 28.5734 30.199C28.2392 30.2798 27.8482 30.3201 27.4003 30.3201C26.6366 30.3201 25.8802 30.1862 25.1312 29.9182C24.3822 29.6504 23.6882 29.2485 23.0494 28.7126ZM17.1261 20.0316H21.646V17.1402H9.04778V20.0316H13.5456V32.9056H17.1261V20.0316Z" fill="white"/>
</svg>
