<svg width="33" height="32" viewBox="0 0 33 32" fill="none" xmlns="http://www.w3.org/2000/svg">
<ellipse cx="16.2755" cy="16" rx="16.2755" ry="16" fill="#3178C6"/>
<path d="M7 13.4933V11.1467H16.2575V13.4933H13.0538V21.8743H10.2037V13.4933H7Z" fill="white"/>
<path d="M23.0875 14.499C23.0598 14.1498 22.9298 13.8775 22.6975 13.6819C22.4686 13.4863 22.1202 13.3886 21.6521 13.3886C21.3539 13.3886 21.1095 13.4252 20.9188 13.4986C20.7315 13.5684 20.5928 13.6644 20.5027 13.7867C20.4126 13.9089 20.3657 14.0486 20.3623 14.2057C20.3553 14.3349 20.3779 14.4519 20.4299 14.5567C20.4854 14.6579 20.572 14.7505 20.6899 14.8343C20.8078 14.9146 20.9586 14.9879 21.1424 15.0543C21.3262 15.1206 21.5446 15.18 21.7977 15.2324L22.6715 15.421C23.2609 15.5467 23.7654 15.7125 24.1849 15.9186C24.6044 16.1246 24.9477 16.3673 25.2147 16.6467C25.4816 16.9225 25.6775 17.2333 25.8024 17.579C25.9307 17.9248 25.9965 18.3019 26 18.7105C25.9965 19.4159 25.8214 20.013 25.4747 20.5019C25.128 20.9908 24.6322 21.3627 23.9873 21.6176C23.3458 21.8725 22.5744 22 21.6729 22C20.7471 22 19.9393 21.8621 19.2493 21.5862C18.5628 21.3103 18.0288 20.886 17.6474 20.3133C17.2695 19.7371 17.0788 19.0003 17.0753 18.1029H19.8214C19.8387 18.4311 19.9202 18.707 20.0658 18.9305C20.2115 19.154 20.416 19.3233 20.6795 19.4386C20.9465 19.5538 21.2638 19.6114 21.6313 19.6114C21.9399 19.6114 22.1982 19.573 22.4062 19.4962C22.6142 19.4194 22.772 19.3129 22.8795 19.1767C22.987 19.0405 23.0425 18.8851 23.0459 18.7105C23.0425 18.5463 22.9887 18.4032 22.8847 18.281C22.7841 18.1552 22.6177 18.0435 22.3854 17.9457C22.1531 17.8444 21.8393 17.7502 21.4441 17.6629L20.3831 17.4324C19.44 17.2263 18.6963 16.8824 18.1519 16.4005C17.611 15.9151 17.3423 15.2533 17.3458 14.4152C17.3423 13.7343 17.5226 13.1389 17.8867 12.629C18.2542 12.1157 18.7622 11.7159 19.4105 11.4295C20.0624 11.1432 20.8096 11 21.6521 11C22.512 11 23.2557 11.1449 23.8833 11.4348C24.5108 11.7246 24.9945 12.1332 25.3343 12.6605C25.6775 13.1843 25.8509 13.7971 25.8544 14.499H23.0875Z" fill="white"/>
</svg>
