<svg width="44" height="44" viewBox="0 0 44 44" fill="none" xmlns="http://www.w3.org/2000/svg">
<circle cx="22" cy="22" r="22" fill="#00E1DD"/>
<path d="M20.6464 25.773V32.5577C20.6464 33.9042 19.5528 35 18.2089 35H11.4375C10.0936 35 9 33.9042 9 32.5577V25.773C9 24.4264 10.0936 23.3307 11.4375 23.3307H18.2089C19.5528 23.3307 20.6464 24.4264 20.6464 25.773ZM35 25.773V32.5577C35 33.9042 33.9064 35 32.5625 35H25.7911C24.4473 35 23.3536 33.9042 23.3536 32.5577V25.773C23.3536 24.4264 24.4473 23.3307 25.7911 23.3307H32.5625C33.9064 23.3307 35 24.4264 35 25.773ZM35 11.4423V18.227C35 19.5736 33.9064 20.6693 32.5625 20.6693H25.7911C24.4473 20.6693 23.3536 19.5736 23.3536 18.227V11.4423C23.3536 10.0958 24.4473 9 25.7911 9H32.5625C33.9064 9 35 10.095 35 11.4423Z" fill="white"/>
<path d="M19.6803 9.03486H9.8125C9.36319 9.03486 9 9.39877 9 9.84896C9 10.2992 9.36319 10.6631 9.8125 10.6631H19.6803C20.1296 10.6631 20.4928 10.2992 20.4928 9.84896C20.4928 9.39877 20.1288 9.03486 19.6803 9.03486ZM20.4928 14.7759C20.4928 15.2261 20.1296 15.59 19.6803 15.59H9.8125C9.36319 15.59 9 15.2261 9 14.7759C9 14.3257 9.36319 13.9618 9.8125 13.9618H19.6803C20.1288 13.9618 20.4928 14.3265 20.4928 14.7759ZM20.6464 19.7029C20.6464 20.1531 20.2832 20.517 19.8339 20.517H9.8125C9.36319 20.517 9 20.1531 9 19.7029C9 19.2527 9.36319 18.8888 9.8125 18.8888H19.8339C20.2832 18.8888 20.6464 19.2527 20.6464 19.7029Z" fill="#F9A077"/>
</svg>
