<svg width="33" height="33" viewBox="0 0 33 33" fill="none" xmlns="http://www.w3.org/2000/svg">
<path d="M2.34586 9.92139C2.12708 10.389 1.93036 10.8688 1.75681 11.3597H4.40068L2.34586 9.92139Z" fill="#0053B5"/>
<path d="M11.5117 1.60474C9.18023 2.4289 7.09711 3.77779 5.40381 5.50992L11.5117 9.58183V1.60474Z" fill="#0053B5"/>
<path d="M28.2862 5.50992C26.5929 3.77771 24.5098 2.42882 22.1783 1.60474V9.58192L28.2862 5.50992Z" fill="#0053B5"/>
<path d="M31.3442 23.4647C31.5629 22.9971 31.7597 22.5172 31.9332 22.0264H29.2893L31.3442 23.4647Z" fill="#0053B5"/>
<path d="M31.9332 11.3597C31.7597 10.8688 31.5629 10.3889 31.3442 9.92139L29.2893 11.3597H31.9332Z" fill="#0053B5"/>
<path d="M5.40381 27.876C7.09711 29.6081 9.18023 30.9571 11.5117 31.7811V23.804L5.40381 27.876Z" fill="#0053B5"/>
<path d="M1.75681 22.0264C1.93036 22.5173 2.12708 22.9971 2.34586 23.4647L4.40068 22.0264H1.75681Z" fill="#0053B5"/>
<path d="M22.1783 31.7813C24.5097 30.9571 26.5929 29.6082 28.2862 27.8761L22.1783 23.8042V31.7813Z" fill="#0053B5"/>
<path d="M11.5117 9.58265L5.40379 5.51073C5.05575 5.86678 4.72412 6.2389 4.41027 6.6261L11.5117 11.3604H7.06728L3.05271 8.58113C2.79671 9.01541 2.56076 9.46273 2.34585 9.9221L4.40067 11.3604H1.7568C1.55242 11.9386 1.37987 12.5317 1.24219 13.1382H11.5117V20.2493H1.24219C1.37979 20.8557 1.55242 21.4488 1.7568 22.027H4.40067L2.34585 23.4653C2.56076 23.9246 2.79671 24.372 3.05271 24.8063L7.06728 22.027H11.5117L4.41027 26.7613C4.72412 27.1485 5.05575 27.5207 5.40379 27.8767L11.5117 23.8048V31.782C12.0899 31.9864 12.6829 32.1589 13.2894 32.2966C13.2894 31.215 13.2894 2.18821 13.2894 1.09094C12.6829 1.22854 12.0899 1.40117 11.5117 1.60555V9.58265Z" fill="white"/>
<path d="M22.1783 13.1377H32.4478C32.3102 12.5312 32.1375 11.9381 31.9331 11.3599H29.2893L31.3441 9.92158C31.1292 9.46229 30.8932 9.01488 30.6372 8.58061L26.6227 11.3599H22.1782L29.2797 6.62558C28.9658 6.23838 28.6342 5.86625 28.2862 5.51021L22.1783 9.58212V1.60494C21.6001 1.40056 21.007 1.22802 20.4005 1.09033V32.296C21.007 32.1584 21.6001 31.9857 22.1783 31.7814V23.8042L28.2862 27.8761C28.6342 27.5201 28.9658 27.1479 29.2797 26.7607L22.1782 22.0264H26.6227L30.6372 24.8057C30.8932 24.3714 31.1293 23.9241 31.3441 23.4647L29.2893 22.0264H31.9331C32.1375 21.4482 32.3101 20.8551 32.4478 20.2487H22.1783V13.1377Z" fill="white"/>
<path d="M1.24216 20.2485H11.5116V13.1375H1.24216C0.72848 15.4012 0.696901 17.8457 1.24216 20.2485Z" fill="#D80027"/>
<path d="M32.4478 13.1375H22.1783V20.2485H32.4478C32.9615 17.9848 32.993 15.5402 32.4478 13.1375Z" fill="#D80027"/>
<path d="M13.2894 1.09031V32.296C15.5531 32.8096 17.9977 32.8412 20.4005 32.296C20.4005 30.2719 20.4005 2.47582 20.4005 1.09031C18.1368 0.576625 15.6922 0.545046 13.2894 1.09031Z" fill="#D80027"/>
<path d="M30.6373 8.58052C30.2329 7.89437 29.7788 7.24107 29.2798 6.62549L22.1783 11.3598H26.6227L30.6373 8.58052Z" fill="#D80027"/>
<path d="M3.0527 8.58052L7.06727 11.3598H11.5117L4.41026 6.62549C3.91123 7.24107 3.45717 7.89437 3.0527 8.58052Z" fill="#D80027"/>
<path d="M3.0527 24.8057C3.45717 25.4918 3.91123 26.1451 4.41026 26.7607L11.5117 22.0264H7.06727L3.0527 24.8057Z" fill="#D80027"/>
<path d="M22.1783 22.0264L29.2798 26.7607C29.7787 26.1451 30.2329 25.4919 30.6373 24.8057L26.6227 22.0264H22.1783Z" fill="#D80027"/>
</svg>
