<svg width="44" height="44" viewBox="0 0 44 44" fill="none" xmlns="http://www.w3.org/2000/svg">
<circle cx="22" cy="22" r="22" fill="#F9A077"/>
<path fill-rule="evenodd" clip-rule="evenodd" d="M29.9441 10.8212C29.4414 10.8212 29.0334 10.4133 29.0334 9.91061C29.0334 9.40795 29.4414 9 29.9441 9H31.7653C33.6096 9 35.1042 10.4946 35.1042 12.3389V14.1601C35.1042 14.6628 34.6962 15.0707 34.1936 15.0707C33.6909 15.0707 33.283 14.6628 33.283 14.1601V12.3389C33.283 11.5011 32.603 10.8212 31.7653 10.8212H29.9441Z" fill="#00E1DD"/>
<path fill-rule="evenodd" clip-rule="evenodd" d="M29.9441 35.1042C29.4414 35.1042 29.0334 34.6962 29.0334 34.1936C29.0334 33.6909 29.4414 33.283 29.9441 33.283H31.7653C32.603 33.283 33.283 32.603 33.283 31.7653V29.9441C33.283 29.4414 33.6909 29.0334 34.1936 29.0334C34.6962 29.0334 35.1042 29.4414 35.1042 29.9441V31.7653C35.1042 33.6096 33.6096 35.1042 31.7653 35.1042H29.9441Z" fill="#00E1DD"/>
<path fill-rule="evenodd" clip-rule="evenodd" d="M14.1601 9C14.6628 9 15.0707 9.40795 15.0707 9.91061C15.0707 10.4133 14.6628 10.8212 14.1601 10.8212H12.3389C11.5011 10.8212 10.8212 11.5011 10.8212 12.3389V14.1601C10.8212 14.6628 10.4133 15.0707 9.91061 15.0707C9.40795 15.0707 9 14.6628 9 14.1601V12.3389C9 10.4946 10.4946 9 12.3389 9H14.1601Z" fill="#00E1DD"/>
<path fill-rule="evenodd" clip-rule="evenodd" d="M14.1601 33.283C14.6628 33.283 15.0707 33.6909 15.0707 34.1936C15.0707 34.6962 14.6628 35.1042 14.1601 35.1042H12.3389C10.4946 35.1042 9 33.6096 9 31.7653V29.9441C9 29.4414 9.40795 29.0334 9.91061 29.0334C10.4133 29.0334 10.8212 29.4414 10.8212 29.9441V31.7653C10.8212 32.603 11.5011 33.283 12.3389 33.283H14.1601Z" fill="#00E1DD"/>
<path fill-rule="evenodd" clip-rule="evenodd" d="M31.4618 14.1603V17.8027C31.4618 18.2046 31.3016 18.5907 31.0175 18.876C30.7321 19.1601 30.3473 19.3204 29.9442 19.3204H14.1603C13.7572 19.3204 13.3723 19.1601 13.087 18.876C12.8028 18.5907 12.6426 18.2046 12.6426 17.8027V14.1603C12.6426 13.7584 12.8028 13.3723 13.087 13.087C13.3723 12.8028 13.7572 12.6426 14.1603 12.6426H29.9442C30.3473 12.6426 30.7321 12.8028 31.0175 13.087C31.3016 13.3723 31.4618 13.7572 31.4618 14.1603Z" fill="#00E1DD"/>
<path fill-rule="evenodd" clip-rule="evenodd" d="M21.1416 22.659V29.9439C21.1416 30.7817 20.4617 31.4616 19.6239 31.4616H14.1603C13.3225 31.4616 12.6426 30.7817 12.6426 29.9439V22.659C12.6426 21.8213 13.3225 21.1414 14.1603 21.1414H19.6239C20.4617 21.1414 21.1416 21.8213 21.1416 22.659Z" fill="white"/>
<path fill-rule="evenodd" clip-rule="evenodd" d="M31.4618 22.659V29.9439C31.4618 30.7817 30.7819 31.4616 29.9441 31.4616H24.4805C23.6427 31.4616 22.9628 30.7817 22.9628 29.9439V22.659C22.9628 21.8213 23.6427 21.1414 24.4805 21.1414H29.9441C30.7819 21.1414 31.4618 21.8213 31.4618 22.659Z" fill="white"/>
<path fill-rule="evenodd" clip-rule="evenodd" d="M33.2829 17.1956C33.2829 16.693 33.6909 16.285 34.1935 16.285C34.6962 16.285 35.1041 16.693 35.1041 17.1956V18.4098C35.1041 18.9124 34.6962 19.3204 34.1935 19.3204C33.6909 19.3204 33.2829 18.9124 33.2829 18.4098V17.1956Z" fill="white"/>
<path fill-rule="evenodd" clip-rule="evenodd" d="M17.1956 10.8212C16.693 10.8212 16.285 10.4133 16.285 9.91061C16.285 9.40795 16.693 9 17.1956 9H18.4098C18.9124 9 19.3204 9.40795 19.3204 9.91061C19.3204 10.4133 18.9124 10.8212 18.4098 10.8212H17.1956Z" fill="white"/>
<path fill-rule="evenodd" clip-rule="evenodd" d="M9 17.1956C9 16.693 9.40795 16.285 9.91061 16.285C10.4133 16.285 10.8212 16.693 10.8212 17.1956V18.4098C10.8212 18.9124 10.4133 19.3204 9.91061 19.3204C9.40795 19.3204 9 18.9124 9 18.4098V17.1956Z" fill="white"/>
<path fill-rule="evenodd" clip-rule="evenodd" d="M17.1956 35.1042C16.693 35.1042 16.285 34.6962 16.285 34.1936C16.285 33.6909 16.693 33.283 17.1956 33.283H18.4098C18.9124 33.283 19.3204 33.6909 19.3204 34.1936C19.3204 34.6962 18.9124 35.1042 18.4098 35.1042H17.1956Z" fill="white"/>
<path fill-rule="evenodd" clip-rule="evenodd" d="M33.2829 21.4449C33.2829 20.9423 33.6909 20.5343 34.1935 20.5343C34.6962 20.5343 35.1041 20.9423 35.1041 21.4449V22.6591C35.1041 23.1617 34.6962 23.5697 34.1935 23.5697C33.6909 23.5697 33.2829 23.1617 33.2829 22.6591V21.4449Z" fill="white"/>
<path fill-rule="evenodd" clip-rule="evenodd" d="M21.445 10.8212C20.9423 10.8212 20.5344 10.4133 20.5344 9.91061C20.5344 9.40795 20.9423 9 21.445 9H22.6591C23.1618 9 23.5697 9.40795 23.5697 9.91061C23.5697 10.4133 23.1618 10.8212 22.6591 10.8212H21.445Z" fill="white"/>
<path fill-rule="evenodd" clip-rule="evenodd" d="M9 21.4449C9 20.9423 9.40795 20.5343 9.91061 20.5343C10.4133 20.5343 10.8212 20.9423 10.8212 21.4449V22.6591C10.8212 23.1617 10.4133 23.5697 9.91061 23.5697C9.40795 23.5697 9 23.1617 9 22.6591V21.4449Z" fill="white"/>
<path fill-rule="evenodd" clip-rule="evenodd" d="M21.445 35.1042C20.9423 35.1042 20.5344 34.6962 20.5344 34.1936C20.5344 33.6909 20.9423 33.283 21.445 33.283H22.6591C23.1618 33.283 23.5697 33.6909 23.5697 34.1936C23.5697 34.6962 23.1618 35.1042 22.6591 35.1042H21.445Z" fill="white"/>
<path fill-rule="evenodd" clip-rule="evenodd" d="M33.2829 25.6945C33.2829 25.1919 33.6909 24.7839 34.1935 24.7839C34.6962 24.7839 35.1041 25.1919 35.1041 25.6945V26.9087C35.1041 27.4113 34.6962 27.8193 34.1935 27.8193C33.6909 27.8193 33.2829 27.4113 33.2829 26.9087V25.6945Z" fill="white"/>
<path fill-rule="evenodd" clip-rule="evenodd" d="M25.6945 10.8212C25.1919 10.8212 24.7839 10.4133 24.7839 9.91061C24.7839 9.40795 25.1919 9 25.6945 9H26.9087C27.4113 9 27.8193 9.40795 27.8193 9.91061C27.8193 10.4133 27.4113 10.8212 26.9087 10.8212H25.6945Z" fill="white"/>
<path fill-rule="evenodd" clip-rule="evenodd" d="M9 25.6945C9 25.1919 9.40795 24.7839 9.91061 24.7839C10.4133 24.7839 10.8212 25.1919 10.8212 25.6945V26.9087C10.8212 27.4113 10.4133 27.8193 9.91061 27.8193C9.40795 27.8193 9 27.4113 9 26.9087V25.6945Z" fill="white"/>
<path fill-rule="evenodd" clip-rule="evenodd" d="M25.6945 35.1042C25.1919 35.1042 24.7839 34.6962 24.7839 34.1936C24.7839 33.6909 25.1919 33.283 25.6945 33.283H26.9087C27.4113 33.283 27.8193 33.6909 27.8193 34.1936C27.8193 34.6962 27.4113 35.1042 26.9087 35.1042H25.6945Z" fill="white"/>
</svg>
