<svg width="265" height="192" viewBox="0 0 265 192" fill="none" xmlns="http://www.w3.org/2000/svg">
<g clip-path="url(#clip0_2155_240)">
<path d="M30 3H17C9.26801 3 3 9.26801 3 17V30C3 37.732 9.26801 44 17 44H30C37.732 44 44 37.732 44 30V17C44 9.26801 37.732 3 30 3Z" stroke="white" stroke-width="6"/>
<path d="M102 3H90C82.268 3 76 9.26801 76 17V30C76 37.732 82.268 44 90 44H102C109.732 44 116 37.732 116 30V17C116 9.26801 109.732 3 102 3Z" stroke="#3C2415" stroke-width="6"/>
<path d="M175 3H162C154.268 3 148 9.26801 148 17V30C148 37.732 154.268 44 162 44H175C182.732 44 189 37.732 189 30V17C189 9.26801 182.732 3 175 3Z" stroke="#A97C50" stroke-width="6"/>
<path d="M248 3H235C227.268 3 221 9.26801 221 17V30C221 37.732 227.268 44 235 44H248C255.732 44 262 37.732 262 30V17C262 9.26801 255.732 3 248 3Z" stroke="#F7941D" stroke-width="6"/>
<path d="M30 76H17C9.26801 76 3 82.268 3 90V102C3 109.732 9.26801 116 17 116H30C37.732 116 44 109.732 44 102V90C44 82.268 37.732 76 30 76Z" stroke="#00A3D2" stroke-width="6"/>
<path d="M102 76H90C82.268 76 76 82.268 76 90V102C76 109.732 82.268 116 90 116H102C109.732 116 116 109.732 116 102V90C116 82.268 109.732 76 102 76Z" stroke="white" stroke-width="6"/>
<path d="M175 76H162C154.268 76 148 82.268 148 90V102C148 109.732 154.268 116 162 116H175C182.732 116 189 109.732 189 102V90C189 82.268 182.732 76 175 76Z" stroke="#A97C50" stroke-width="6"/>
<path d="M248 76H235C227.268 76 221 82.268 221 90V102C221 109.732 227.268 116 235 116H248C255.732 116 262 109.732 262 102V90C262 82.268 255.732 76 248 76Z" stroke="white" stroke-width="6"/>
<path d="M30 148H17C9.26801 148 3 154.268 3 162V175C3 182.732 9.26801 189 17 189H30C37.732 189 44 182.732 44 175V162C44 154.268 37.732 148 30 148Z" stroke="#F7941D" stroke-width="6"/>
<path d="M102 148H90C82.268 148 76 154.268 76 162V175C76 182.732 82.268 189 90 189H102C109.732 189 116 182.732 116 175V162C116 154.268 109.732 148 102 148Z" stroke="#CF1F26" stroke-width="6"/>
<path d="M175 148H162C154.268 148 148 154.268 148 162V175C148 182.732 154.268 189 162 189H175C182.732 189 189 182.732 189 175V162C189 154.268 182.732 148 175 148Z" stroke="#00A3D2" stroke-width="6"/>
<path d="M248 148H235C227.268 148 221 154.268 221 162V175C221 182.732 227.268 189 235 189H248C255.732 189 262 182.732 262 175V162C262 154.268 255.732 148 248 148Z" stroke="#63B190" stroke-width="6"/>
</g>
<defs>
<clipPath id="clip0_2155_240">
<rect width="265" height="192" fill="white"/>
</clipPath>
</defs>
</svg>
