<svg width="251" height="187" viewBox="0 0 251 187" fill="none" xmlns="http://www.w3.org/2000/svg">
<path d="M217.6 182.202V177.702H33.3003C30.107 177.71 26.9437 177.086 23.9919 175.868C21.0402 174.65 18.3583 172.86 16.1003 170.602C13.8423 168.344 12.0527 165.662 10.8342 162.71C9.61579 159.759 8.99256 156.595 9.00035 153.402V33.2019C8.99256 30.0085 9.61579 26.8452 10.8342 23.8934C12.0527 20.9417 13.8423 18.2598 16.1003 16.0018C18.3583 13.7438 21.0402 11.9542 23.9919 10.7357C26.9437 9.5173 30.107 8.89407 33.3003 8.90185H217.6C220.794 8.89407 223.957 9.5173 226.909 10.7357C229.86 11.9542 232.542 13.7438 234.8 16.0018C237.058 18.2598 238.848 20.9417 240.066 23.8934C241.285 26.8452 241.908 30.0085 241.9 33.2019V153.402C241.908 156.595 241.285 159.759 240.066 162.71C238.848 165.662 237.058 168.344 234.8 170.602C232.542 172.86 229.86 174.65 226.909 175.868C223.957 177.086 220.794 177.71 217.6 177.702V186.702C221.963 186.713 226.285 185.861 230.318 184.197C234.351 182.532 238.015 180.087 241.1 177.002C244.185 173.917 246.631 170.253 248.295 166.22C249.96 162.187 250.811 157.865 250.8 153.502V33.2019C250.811 28.8389 249.96 24.5169 248.295 20.484C246.631 16.4511 244.185 12.7868 241.1 9.70179C238.015 6.61673 234.351 4.17165 230.318 2.50702C226.285 0.842397 221.963 -0.00896393 217.6 0.00185208H33.3003C28.9313 -0.0444709 24.5967 0.778582 20.5487 2.42312C16.5007 4.06765 12.8202 6.50082 9.72141 9.58105C6.62257 12.6613 4.16727 16.327 2.49838 20.365C0.829492 24.403 -0.0196575 28.7326 0.000345338 33.1019V153.302C-0.0104707 157.665 0.84089 161.987 2.50552 166.02C4.17014 170.053 6.61522 173.717 9.70028 176.802C12.7853 179.887 16.4496 182.332 20.4825 183.997C24.5154 185.661 28.8374 186.513 33.2003 186.502H217.5V182.202H217.6Z" fill="white"/>
<path d="M106.3 51.4019C105.376 51.4128 104.492 51.785 103.838 52.439C103.184 53.0931 102.811 53.977 102.8 54.9019V131.602C102.797 132.062 102.886 132.519 103.06 132.945C103.235 133.371 103.493 133.758 103.818 134.084C104.144 134.409 104.531 134.667 104.957 134.842C105.383 135.017 105.84 135.105 106.3 135.102C106.978 135.088 107.638 134.88 108.2 134.502L166.1 96.1019C166.585 95.7774 166.982 95.3385 167.257 94.824C167.532 94.3094 167.676 93.7351 167.676 93.1519C167.676 92.5686 167.532 91.9943 167.257 91.4798C166.982 90.9652 166.585 90.5263 166.1 90.2019L108.2 51.8019C107.591 51.5735 106.95 51.4387 106.3 51.4019Z" fill="#F7941D"/>
</svg>
