<svg width="32" height="45" viewBox="0 0 32 45" fill="none" xmlns="http://www.w3.org/2000/svg">
<path d="M31.2906 8.67969L28.44 40.6143L15.6262 44.1667L2.84764 40.6193L0 8.67969H31.2906Z" fill="#595959"/>
<path d="M6.52808 23.1375L6.87917 27.0547H15.6452L17.3302 25.0961L15.6452 23.1375H6.52808Z" fill="#EBEBEB"/>
<path d="M15.6454 15.2087H15.6319H5.82275L6.17885 19.126H15.6454L17.3304 17.1673L15.6454 15.2087Z" fill="#EBEBEB"/>
<path d="M15.6452 37.3864L17.3302 35.3091L15.6452 33.3108L15.628 33.3154L11.2654 32.1374L10.9865 29.0132H8.86659H7.0542L7.60301 35.1638L15.6272 37.3914L15.6452 37.3864Z" fill="#EBEBEB"/>
<path d="M7.36401 0H12.1085V1.98406H9.34807V3.96811H12.1085V5.95217H7.36401V0Z" fill="#EBEBEB"/>
<path d="M13.0574 0H17.8019V1.72527H15.0415V2.07032H17.8019V6.03843H13.0574V4.2269H15.8179V3.88185H13.0574V0Z" fill="#EBEBEB"/>
<path d="M18.7507 0H23.4952V1.72527H20.7347V2.07032H23.4952V6.03843H18.7507V4.2269H21.5111V3.88185H18.7507V0Z" fill="#EBEBEB"/>
<path d="M20.4554 27.0546L20.0008 32.135L15.6318 33.3142V37.3896L23.6624 35.1639L23.7213 34.5021L24.6418 24.1892L24.7374 23.1374L25.4446 15.2087H15.6318V19.126H21.1516L20.7952 23.1374H15.6318V27.0546H20.4554Z" fill="white"/>
</svg>
