<svg width="101" height="27" viewBox="0 0 101 27" fill="none" xmlns="http://www.w3.org/2000/svg">
<g clip-path="url(#clip0_838_313)">
<path d="M51.0105 6.73953C53.1932 8.73636 54.2838 11.4743 54.2838 15.0321C54.2838 18.5898 53.2194 21.4119 51.0919 23.485C48.9644 25.5581 45.7174 26.6014 41.3512 26.6014H33.6687V3.82744H41.6141C45.6954 3.82705 48.8282 4.74622 51.0113 6.74383L51.0105 6.73953ZM47.2618 20.2708C48.516 19.0918 49.1401 17.3752 49.1401 15.126C49.1401 12.8767 48.5124 11.1143 47.2618 9.90283C46.0112 8.69136 44.0805 8.05275 41.4784 8.05275H38.5455V22.0458H41.8716C44.2065 22.0458 46.0018 21.4494 47.2575 20.2712L47.2618 20.2708ZM72.3992 26.6014H67.8437V24.4226C66.5422 26.016 65.0263 26.8123 63.1597 26.8123C61.2932 26.8123 59.7339 26.2723 58.4641 25.1923C57.1943 24.1123 56.5686 22.6707 56.5686 20.8699C56.5686 19.0691 57.2252 17.7489 58.5345 16.8532C59.8438 15.9575 61.636 15.5376 63.906 15.5376H67.5138V15.3858C67.5138 13.5091 66.5504 12.5704 64.5649 12.5704C63.7127 12.5704 62.8275 12.7394 61.8767 13.0771C60.9281 13.416 60.133 13.8351 59.478 14.3371L57.2878 11.1609C59.6012 9.47983 62.2457 8.6397 65.2137 8.6397C67.3522 8.6397 69.0547 9.17462 70.4102 10.2441C71.7622 11.3131 72.3949 13.0047 72.3949 15.3185V26.5998L72.3992 26.6014ZM67.5185 19.8396V19.1177H64.4663C62.5027 19.1177 61.5206 19.6639 61.5206 20.8864C61.5206 21.5191 61.7542 21.9722 62.2234 22.3107C62.6925 22.6492 63.3644 22.8022 64.2378 22.8022C65.0746 22.8105 65.8875 22.5236 66.5336 21.9918C67.198 21.4569 67.5185 20.7337 67.5185 19.8396ZM85.3483 13.2594C83.886 13.2594 82.7273 13.7767 82.0073 14.8137C81.2873 15.8507 80.8596 17.2202 80.8596 18.9224V26.6017H75.9789V9.02944H80.8596V11.2599C81.5104 10.5399 82.3986 9.92866 83.3471 9.42662C84.2897 8.93886 85.3306 8.67127 86.3915 8.64401V13.263H85.3487L85.3483 13.2594ZM94.2011 12.6091V20.3632C94.2011 21.0401 94.3968 21.5696 94.7498 21.9507C95.1027 22.3318 95.5261 22.5244 96.0019 22.5244C96.9195 22.5244 97.7002 22.1096 98.3325 21.28L100.174 24.7168C98.6452 26.1146 97.0373 26.8123 95.3469 26.8123C93.6564 26.8123 92.2305 26.2566 91.0644 25.1426C89.8952 24.0297 89.3192 22.513 89.3192 20.5917V3.82666H94.2007V8.7074H99.4051L96.7215 12.6126H94.2047L94.2011 12.6091Z" fill="#CCCCCC"/>
<path d="M7.14647 7.37909L5.43921 5.67065L5.44586 18.0124L5.4666 18.5884C5.47443 18.8611 5.52647 19.1667 5.60904 19.4837L19.1364 24.2576L22.5173 22.7597L22.52 22.755L7.14804 7.38222L7.14647 7.37909Z" fill="#A2A2A2"/>
<path d="M5.6087 19.484H5.60987C5.6087 19.4789 5.60674 19.4731 5.604 19.4668C5.60674 19.4731 5.60674 19.4785 5.6087 19.484ZM22.5162 22.7569L19.1353 24.2548L5.60987 19.4809C5.86813 20.4728 6.44061 21.5884 7.05535 22.1973L11.4654 26.5889L21.2871 26.6014L22.5166 22.7561L22.5162 22.7569Z" fill="#CCCCCC"/>
<path d="M5.48452 5.67066L0.225392 13.6094C-0.210913 14.0759 0.00626111 15.0377 0.709435 15.7467L3.74596 18.8075L5.65435 19.4798C5.57609 19.1667 5.51974 18.8537 5.51191 18.5845L5.49078 18.0085L5.48452 5.66675V5.67066Z" fill="#595959"/>
<path d="M19.2466 5.82943C18.9335 5.74882 18.6205 5.69795 18.3497 5.69052L17.7393 5.66821L5.43823 5.67095L22.5214 22.7522L24.0221 19.3674L19.2466 5.82943Z" fill="#595959"/>
<path d="M19.2307 5.82251C19.2362 5.82447 19.2425 5.82564 19.2464 5.82721V5.82564C19.2409 5.82447 19.2362 5.82447 19.2307 5.82251ZM21.9608 7.27034C21.3398 6.64503 20.2403 6.07686 19.2464 5.82251L24.0261 19.3675L22.5235 22.7523L26.1893 21.5811L26.1971 11.5305L21.9608 7.27816V7.27034Z" fill="#CCCCCC"/>
<path d="M18.5769 3.9324L15.518 0.894704C14.8109 0.195443 13.8476 -0.0236875 13.3811 0.412226L5.43921 5.67057L17.7403 5.66783L18.3507 5.69014C18.6246 5.69796 18.9298 5.74883 19.2476 5.82905L18.5769 3.9324Z" fill="#A2A2A2"/>
</g>
<defs>
<clipPath id="clip0_838_313">
<rect width="100.174" height="27" fill="white"/>
</clipPath>
</defs>
</svg>
