<svg width="106" height="28" viewBox="0 0 106 28" fill="none" xmlns="http://www.w3.org/2000/svg">
<path d="M49.4674 7.91189C48.9063 7.89434 48.4504 8.33292 48.4329 8.87675C48.4329 8.8943 48.4329 8.92938 48.4329 8.94692V13.9291C46.0306 11.9994 42.5062 12.3854 40.5774 14.7888C39.7883 15.7887 39.35 17.0167 39.35 18.2974C39.2973 21.3849 41.7522 23.9287 44.8383 23.9813C47.9244 24.0339 50.4669 21.5779 50.5195 18.4903C50.5195 18.4202 50.5195 18.3675 50.5195 18.2974V8.94692C50.5195 8.66623 50.4143 8.40309 50.2214 8.21012C50.011 8.01715 49.7479 7.91189 49.4674 7.91189ZM48.1523 19.6482C47.8016 20.4902 47.1353 21.1569 46.2936 21.5253C45.4169 21.8937 44.435 21.8937 43.5582 21.5253C42.7166 21.1744 42.0678 20.4902 41.7171 19.6657C41.3489 18.8061 41.3489 17.8237 41.7171 16.9465C42.0678 16.1045 42.7341 15.4378 43.5582 15.087C44.435 14.7186 45.4169 14.7186 46.2936 15.087C47.1353 15.4554 47.8016 16.122 48.1523 16.9641C48.5205 17.8062 48.5205 18.7886 48.1523 19.6482Z" fill="#CCCCCC"/>
<path d="M61.1278 14.3503C58.9535 12.1749 55.4115 12.1749 53.2373 14.3503C52.1852 15.4028 51.6065 16.8238 51.6065 18.2974C51.5539 21.385 54.0088 23.9287 57.0949 23.9814C60.1809 24.034 62.7235 21.578 62.7761 18.4904C62.7761 18.4202 62.7761 18.3676 62.7761 18.2974C62.7761 17.5606 62.6358 16.8414 62.3552 16.1572C62.0747 15.473 61.6538 14.859 61.1278 14.3503ZM60.4089 19.6307C60.2335 20.0517 59.9705 20.4201 59.6549 20.7359C59.3393 21.0517 58.9535 21.3148 58.5502 21.4903C57.6735 21.8587 56.6916 21.8587 55.8148 21.4903C54.9732 21.1394 54.3069 20.4552 53.9562 19.6307C53.5879 18.7711 53.5879 17.7887 53.9562 16.9115C54.3069 16.0695 54.9732 15.4204 55.8148 15.052C56.6916 14.6836 57.6735 14.6836 58.5502 15.052C58.9711 15.2274 59.3393 15.4905 59.6549 15.8063C59.9705 16.1221 60.2335 16.508 60.4089 16.9115C60.7771 17.8062 60.7771 18.7886 60.4089 19.6307Z" fill="#CCCCCC"/>
<path d="M84.2209 13.7364C84.2209 13.5961 84.1858 13.4557 84.1332 13.3329C84.0806 13.2101 83.9929 13.1048 83.9052 12.9996C83.8176 12.9119 83.6948 12.8242 83.5721 12.7715C83.4493 12.7189 83.3091 12.6838 83.1688 12.6838C82.9759 12.6838 82.783 12.7364 82.6077 12.8417L76.6459 16.7187V8.96469C76.6459 8.684 76.5407 8.42086 76.3478 8.22788C76.155 8.03491 75.892 7.91211 75.6114 7.91211C75.0328 7.91211 74.5769 8.36823 74.5593 8.94715C74.5593 8.94715 74.5593 8.94715 74.5593 8.96469V22.8237C74.5593 23.1044 74.6645 23.3675 74.8574 23.5605C75.0503 23.771 75.3133 23.8763 75.5939 23.8763C75.8744 23.8763 76.1374 23.771 76.3303 23.5605C76.5232 23.3675 76.6459 23.1044 76.6284 22.8237V19.2274L77.8383 18.4379L82.4499 23.6131C82.6428 23.7886 82.8882 23.8938 83.1513 23.8763C83.2915 23.8763 83.4318 23.8587 83.5546 23.7886C83.6773 23.7359 83.7825 23.6658 83.8877 23.5605C83.9754 23.4552 84.0631 23.35 84.1157 23.2272C84.1683 23.1044 84.2033 22.964 84.2033 22.8237C84.2033 22.5605 84.0981 22.2974 83.9228 22.1044L79.6443 17.2801L83.8176 14.5609C84.0981 14.3855 84.2384 14.0697 84.2209 13.7364Z" fill="#CCCCCC"/>
<path d="M66.9142 15.8063C67.2298 15.4905 67.6155 15.2273 68.0364 15.0519C68.4747 14.8765 68.9306 14.7712 69.4041 14.7712C69.8249 14.7712 70.2282 14.8414 70.614 14.9817C70.9997 15.1396 71.3679 15.3501 71.6836 15.6308C71.8765 15.7887 72.1219 15.8589 72.3674 15.8589C72.648 15.8764 72.9285 15.7712 73.1214 15.5607C73.3143 15.3677 73.4195 15.087 73.4195 14.8063C73.4195 14.5081 73.2967 14.2098 73.0513 14.0169C72.0518 13.1222 70.7542 12.631 69.4041 12.6661C66.318 12.6661 63.8105 15.1747 63.8105 18.2623C63.8105 21.3499 66.3005 23.841 69.369 23.8585C70.7192 23.8585 72.0167 23.3849 73.0337 22.5077C73.2441 22.3147 73.3669 22.034 73.3669 21.7358C73.3844 21.1744 72.9461 20.7183 72.4025 20.7008C72.385 20.7008 72.3499 20.7008 72.3323 20.7008C72.0869 20.7008 71.8589 20.7709 71.666 20.9113C71.3504 21.192 70.9997 21.4025 70.614 21.5604C70.2282 21.7007 69.8074 21.7709 69.4041 21.7709C68.9306 21.7709 68.4747 21.6832 68.0364 21.4902C67.6155 21.3148 67.2473 21.0516 66.9142 20.7359C65.5465 19.3675 65.5465 17.1571 66.8966 15.7887C66.9142 15.8238 66.9142 15.8238 66.9142 15.8063Z" fill="#CCCCCC"/>
<path d="M104.929 13.4029C104.719 13.21 104.491 13.0696 104.228 12.9819C103.93 12.8766 103.614 12.8065 103.298 12.7714C102.983 12.7363 102.667 12.7188 102.352 12.7188C101.72 12.7188 101.072 12.824 100.475 13.0521C99.8792 13.2626 99.3356 13.5784 98.8447 13.9643V13.7538C98.8271 13.1749 98.3362 12.7363 97.7575 12.7538C97.214 12.7714 96.7756 13.21 96.7581 13.7538V22.8586C96.7756 23.4375 97.2666 23.8761 97.8452 23.8586C98.3888 23.841 98.8271 23.4025 98.8447 22.8586V18.315C98.8447 17.8413 98.9323 17.3852 99.1252 16.9466C99.3006 16.5256 99.5461 16.1572 99.8792 15.8414C100.195 15.5256 100.581 15.2625 100.984 15.0871C101.422 14.9116 101.878 14.8064 102.352 14.8064C102.825 14.8064 103.281 14.8941 103.719 15.052C103.86 15.1221 104 15.1572 104.158 15.1572C104.298 15.1572 104.438 15.1397 104.561 15.0695C104.684 15.0169 104.789 14.9467 104.894 14.8415C104.982 14.7537 105.069 14.6309 105.122 14.5081C105.175 14.3853 105.21 14.245 105.21 14.1046C105.227 13.8415 105.122 13.5959 104.929 13.4029Z" fill="#CCCCCC"/>
<path d="M95.2501 16.1572C94.3558 14.0871 92.3218 12.7363 90.0774 12.7188C86.9913 12.7188 84.5014 15.2099 84.4839 18.2974C84.4839 21.385 86.9913 23.8937 90.0774 23.8937C91.41 23.8937 92.7076 23.42 93.7246 22.5428C93.7421 22.5253 93.7597 22.5078 93.7597 22.5078C93.8473 22.4376 93.935 22.3499 93.9876 22.2446C94.3208 21.7534 94.198 21.1043 93.7246 20.771C93.3213 20.5079 92.7953 20.5605 92.4446 20.8938C92.4095 20.9289 92.3043 21.0166 92.3043 21.0341L92.2868 21.0517C91.9887 21.2973 91.6555 21.5078 91.2873 21.6306C90.9015 21.771 90.4982 21.8411 90.0774 21.8236C89.6916 21.8236 89.3234 21.771 88.9552 21.6482C88.6045 21.5254 88.2713 21.3675 87.9733 21.1394C87.6752 20.9289 87.4122 20.6657 87.2017 20.3675C86.9738 20.0693 86.816 19.7184 86.7108 19.3676H94.6013C94.8819 19.3676 95.1449 19.2623 95.3378 19.0693C95.5482 18.8764 95.6534 18.6132 95.6359 18.3325C95.6534 17.5782 95.5131 16.8414 95.2501 16.1572ZM86.7108 17.2799C86.816 16.9115 86.9738 16.5782 87.2017 16.28C87.4122 15.9818 87.6752 15.7186 87.9733 15.5081C88.2713 15.2976 88.6045 15.1221 88.9552 14.9993C89.3059 14.8765 89.6917 14.8239 90.0599 14.8239C90.4281 14.8239 90.8139 14.8765 91.1646 14.9993C91.8659 15.2274 92.4796 15.6835 92.918 16.28C93.146 16.5782 93.3038 16.9291 93.4265 17.2799H86.7108Z" fill="#CCCCCC"/>
<path d="M101.37 22.3674C100.966 22.3674 100.651 22.7006 100.651 23.1039C100.651 23.5072 100.984 23.8228 101.387 23.8228C101.79 23.8228 102.106 23.4896 102.106 23.1039C102.106 22.6831 101.773 22.3674 101.37 22.3674ZM101.37 23.665C101.054 23.6825 100.791 23.437 100.773 23.1214C100.756 22.8058 101.001 22.5428 101.317 22.5252C101.633 22.5077 101.896 22.7532 101.913 23.0688C101.913 23.0863 101.913 23.0864 101.913 23.1039C101.931 23.402 101.685 23.665 101.387 23.665C101.387 23.665 101.387 23.665 101.37 23.665Z" fill="#CCCCCC"/>
<path d="M101.545 23.104C101.633 23.0865 101.685 23.0164 101.685 22.9287C101.685 22.8585 101.668 22.8059 101.615 22.7709C101.545 22.7358 101.457 22.7183 101.37 22.7183C101.282 22.7183 101.177 22.7183 101.089 22.7358V23.4547H101.247V23.1742H101.317C101.405 23.1742 101.457 23.2092 101.475 23.2794C101.492 23.332 101.51 23.4021 101.527 23.4547H101.703C101.668 23.4021 101.65 23.332 101.65 23.2794C101.668 23.2092 101.615 23.1391 101.545 23.104ZM101.335 23.0514H101.247V22.841C101.282 22.841 101.317 22.841 101.335 22.841C101.44 22.841 101.492 22.8936 101.492 22.9462C101.51 23.0164 101.422 23.069 101.335 23.0514Z" fill="#CCCCCC"/>
<path d="M37.4386 10.2629C37.3334 10.1752 36.3865 9.45589 34.3525 9.45589C33.8265 9.45589 33.2829 9.50853 32.7569 9.59624C32.3711 6.91216 30.1442 5.61397 30.0565 5.5438L29.513 5.22803L29.1623 5.73677C28.7239 6.42095 28.3908 7.19284 28.1979 7.98228C27.8296 9.50852 28.0576 10.9471 28.8291 12.1751C27.8998 12.7014 26.3918 12.8242 26.0762 12.8417H1.1771C0.528326 12.8417 0.00228856 13.368 0.00228856 14.0171C-0.0327806 16.1924 0.335445 18.3678 1.08943 20.4203C1.94863 22.6658 3.22865 24.3324 4.8769 25.3499C6.73556 26.4902 9.76904 27.1393 13.1883 27.1393C14.7313 27.1393 16.2744 26.9989 17.7999 26.7182C19.9216 26.3323 21.9556 25.5955 23.8318 24.5254C25.3748 23.6307 26.76 22.4904 27.9349 21.1571C29.9163 18.9291 31.0911 16.438 31.9503 14.2276C32.073 14.2276 32.1782 14.2276 32.301 14.2276C34.4577 14.2276 35.7903 13.368 36.5268 12.6312C37.0178 12.1751 37.386 11.6137 37.649 10.9821L37.8068 10.526L37.4386 10.2629Z" fill="#CCCCCC"/>
<path d="M8.08568 12.1222H11.4173C11.5751 12.1222 11.7153 11.9994 11.7153 11.824V8.84169C11.7153 8.6838 11.5926 8.54346 11.4173 8.54346H8.08568C7.92787 8.54346 7.7876 8.66626 7.7876 8.84169V11.824C7.80513 11.9994 7.92787 12.1222 8.08568 12.1222Z" fill="#CCCCCC"/>
<path d="M17.3791 12.1222H20.7107C20.8685 12.1222 21.0088 11.9994 21.0088 11.824V8.84169C21.0088 8.6838 20.8861 8.54346 20.7107 8.54346H17.3791C17.2213 8.54346 17.0811 8.66626 17.0811 8.84169V11.824C17.0811 11.9994 17.2213 12.1222 17.3791 12.1222Z" fill="#CCCCCC"/>
<path d="M12.7676 7.8593H16.0991C16.2569 7.8593 16.3972 7.71895 16.3972 7.56107V4.57875C16.3972 4.42086 16.2745 4.28052 16.0991 4.28052H12.7676C12.6098 4.28052 12.4695 4.40332 12.4695 4.57875V7.56107C12.4695 7.71895 12.5922 7.8593 12.7676 7.8593Z" fill="#CCCCCC"/>
<path d="M17.3791 3.57878H20.7107C20.8685 3.57878 21.0088 3.45598 21.0088 3.28055V0.298234C21.0088 0.140346 20.8685 0 20.7107 0H17.3791C17.2213 0 17.0811 0.122803 17.0811 0.298234V3.28055C17.0811 3.43844 17.2213 3.57878 17.3791 3.57878Z" fill="#CCCCCC"/>
<path d="M3.49169 12.1222H6.82326C6.98107 12.1222 7.12135 11.9994 7.12135 11.824V8.84169C7.12135 8.6838 6.9986 8.54346 6.82326 8.54346H3.49169C3.33388 8.54346 3.1936 8.66626 3.1936 8.84169V11.824C3.21114 11.9994 3.33388 12.1222 3.49169 12.1222Z" fill="#7E7E7E"/>
<path d="M12.7676 12.1222H16.0991C16.2569 12.1222 16.3972 11.9994 16.3972 11.824V8.84169C16.3972 8.6838 16.2745 8.54346 16.0991 8.54346H12.7676C12.6098 8.54346 12.4695 8.66626 12.4695 8.84169V11.824C12.4695 11.9994 12.5922 12.1222 12.7676 12.1222Z" fill="#7E7E7E"/>
<path d="M8.08568 7.8593H11.4173C11.5751 7.8593 11.7153 7.71895 11.7153 7.56107V4.57875C11.7153 4.42086 11.5926 4.28052 11.4173 4.28052H8.08568C7.92787 4.28052 7.7876 4.40332 7.7876 4.57875V7.56107C7.80513 7.71895 7.92787 7.8593 8.08568 7.8593Z" fill="#7E7E7E"/>
<path d="M17.3791 7.8593H20.7107C20.8685 7.8593 21.0088 7.71895 21.0088 7.56107V4.57875C21.0088 4.42086 20.8685 4.28052 20.7107 4.28052H17.3791C17.2213 4.28052 17.0811 4.40332 17.0811 4.57875V7.56107C17.0811 7.71895 17.2213 7.8593 17.3791 7.8593Z" fill="#7E7E7E"/>
<path d="M22.0256 12.1222H25.3572C25.515 12.1222 25.6553 11.9994 25.6553 11.824V8.84169C25.6553 8.6838 25.5325 8.54346 25.3572 8.54346H22.0256C21.8678 8.54346 21.7275 8.66626 21.7275 8.84169V11.824C21.7451 11.9994 21.8678 12.1222 22.0256 12.1222Z" fill="#7E7E7E"/>
</svg>
