<svg width="100" height="48" viewBox="0 0 100 48" fill="none" xmlns="http://www.w3.org/2000/svg">
<path d="M7.94997 47.6665C12.3333 47.6665 15.8916 44.1082 15.8916 39.7249V31.7832H7.94997C3.56663 31.7832 0.00830078 35.3415 0.00830078 39.7249C0.00830078 44.1082 3.56663 47.6665 7.94997 47.6665Z" fill="#595959"/>
<path d="M0 23.8333C0 19.4499 3.55833 15.8916 7.94167 15.8916H15.8833V31.7833H7.94167C3.55833 31.7833 0 28.2249 0 23.8416V23.8333Z" fill="#A2A2A2"/>
<path d="M0 7.94167C0 3.55833 3.55833 0 7.94167 0H15.8833V15.8917H7.94167C3.55833 15.8917 0 12.3333 0 7.95V7.94167Z" fill="#595959"/>
<path d="M15.8164 0H23.7581C28.1414 0 31.6997 3.55833 31.6997 7.94167C31.6997 12.325 28.1414 15.8833 23.7581 15.8833H15.8164V0Z" fill="#CCCCCC"/>
<path d="M31.7831 23.8333C31.7831 28.2166 28.2247 31.7749 23.8414 31.7749C19.4581 31.7749 15.8164 28.2166 15.8164 23.8333C15.8164 19.4499 19.3747 15.8916 23.7581 15.8916C28.1414 15.8916 31.6997 19.4499 31.6997 23.8333H31.7831Z" fill="#CCCCCC"/>
<path d="M40.4666 13.1665V29.8165H42.6082V21.8665H47.7582V19.7998H42.6082V15.2498H49.2999V13.1665H40.4666ZM53.1749 16.5498C53.9499 16.5498 54.5749 15.9248 54.5749 15.1498C54.5749 14.3748 53.9416 13.8332 53.1749 13.8332C52.4082 13.8332 51.7749 14.4582 51.7749 15.2332C51.7749 15.6082 51.9249 15.9582 52.1916 16.2332C52.4582 16.5082 52.8082 16.6498 53.1916 16.6498L53.1749 16.5498ZM52.0916 18.6498V29.8165H54.1499V18.6498H52.0249H52.0916ZM62.1916 18.3165C59.3416 18.3165 57.3582 20.8165 57.3582 23.5832C57.3582 26.3498 59.3582 28.8332 62.1916 28.8332C62.7811 28.8435 63.3664 28.731 63.9101 28.5029C64.4538 28.2748 64.9442 27.936 65.3499 27.5082V28.9915C65.3439 29.8827 64.9982 30.7381 64.3832 31.3832C64.0725 31.7001 63.7017 31.9519 63.2924 32.1236C62.8832 32.2953 62.4437 32.3836 61.9999 32.3832C61.3184 32.3616 60.658 32.1415 60.0999 31.7498L59.0166 33.6082C59.8485 34.1432 60.8093 34.444 61.7979 34.4788C62.7864 34.5137 63.766 34.2813 64.6336 33.8061C65.5011 33.331 66.2245 32.6307 66.7274 31.779C67.2304 30.9272 67.4944 29.9556 67.4915 28.9665V18.6332H65.3499V19.6332C64.9442 19.2053 64.4538 18.8665 63.9101 18.6384C63.3664 18.4103 62.7811 18.3062 62.1916 18.3165ZM59.5082 23.5832C59.4594 23.0414 59.5631 22.4968 59.8075 22.0108C60.052 21.5249 60.4275 21.117 60.8915 20.8332C61.8415 20.2498 63.0332 20.2498 63.9749 20.8332C64.9165 21.4165 65.4499 22.4832 65.3582 23.5832C65.407 24.1249 65.3033 24.6696 65.0589 25.1555C64.8144 25.6415 64.439 26.0494 63.9749 26.3332C63.0249 26.9165 61.8332 26.9165 60.8915 26.3332C59.9499 25.7498 59.4166 24.6832 59.5082 23.5832Z" fill="#CCCCCC"/>
<path d="M75.2167 20.4999C74.6007 20.502 74.0106 20.7477 73.5751 21.1833C73.1395 21.6188 72.8939 22.2089 72.8917 22.8249V29.8915H70.75V18.7249H72.8917V19.6665C73.5417 18.7999 74.575 18.2999 75.6583 18.3165C77.025 18.2832 78.3 19.0165 78.975 20.2082C79.8083 19.0415 81.0083 18.3332 82.3083 18.3165C84.75 18.3165 86.2667 20.2832 86.275 22.7165V29.8249H84.1333V22.7415C84.1961 22.3003 84.1312 21.8503 83.9463 21.4448C83.7614 21.0393 83.4642 20.6952 83.0899 20.4533C82.7156 20.2113 82.2798 20.0817 81.8342 20.0796C81.3885 20.0775 80.9515 20.2031 80.575 20.4415C80.2005 20.6856 79.9041 21.0322 79.7209 21.4399C79.5377 21.8477 79.4755 22.2994 79.5417 22.7415V29.8082H77.4833V22.7499C77.4811 22.1339 77.2355 21.5438 76.7999 21.1083C76.3644 20.6727 75.7743 20.427 75.1583 20.4249L75.2167 20.4999ZM97.7167 19.9165C97.2292 19.4079 96.6428 19.0043 95.9937 18.7305C95.3445 18.4568 94.6462 18.3188 93.9417 18.3249C90.75 18.3249 88.525 21.0249 88.525 24.1582C88.525 27.2915 90.775 29.9915 93.9417 29.9915C94.6462 29.9976 95.3445 29.8596 95.9937 29.5858C96.6428 29.3121 97.2292 28.9085 97.7167 28.3999V29.6665H99.8583V18.4999H97.7167V19.9165ZM90.6333 24.2499C90.525 22.9165 91.175 21.6332 92.3167 20.9332C93.4583 20.2332 94.8167 20.2332 96.0333 20.9332C96.5906 21.279 97.0422 21.7712 97.339 22.356C97.6358 22.9408 97.7665 23.5959 97.7167 24.2499C97.825 25.5832 97.175 26.8665 96.0333 27.5665C94.8917 28.2665 93.5333 28.2665 92.3167 27.5665C91.7594 27.2207 91.3078 26.7285 91.011 26.1437C90.7142 25.5589 90.5835 24.9038 90.6333 24.2499Z" fill="#CCCCCC"/>
</svg>
