<svg width="99" height="32" viewBox="0 0 99 32" fill="none" xmlns="http://www.w3.org/2000/svg">
<path d="M0 25.5273L0.191501 25.2591L9.24824 8.07427L9.26737 7.89233L5.27507 0.393127C4.94042 -0.235047 3.9987 -0.0762897 3.88901 0.626933L0 25.5273Z" fill="#A2A2A2"/>
<path d="M12.1248 13.4379L15.0147 10.4781L12.1248 4.97511C11.8504 4.45193 11.1837 4.39799 10.9122 4.92099L9.31514 7.99691L9.26733 8.15422L12.1248 13.4379Z" fill="#A2A2A2"/>
<path d="M9.24698 7.85718L0 25.5273L0.0867753 25.44L0.402125 25.3119L11.9912 13.7659L12.1379 13.3663L9.24698 7.85718Z" fill="#595959"/>
<path d="M12.549 31.35L23.0374 25.5005L20.0431 7.05381C19.9493 6.47669 19.2414 6.24848 18.8283 6.66233L0 25.5272L10.4282 31.3496C10.7523 31.5306 11.1174 31.6256 11.4886 31.6257C11.8598 31.6257 12.2248 31.5308 12.549 31.35Z" fill="#CCCCCC"/>
<path d="M31.785 23.8182H30V9.9262H38.1V11.6332H31.785V16.1932H37.49V17.8632H31.785V23.8182ZM41.238 11.9242C40.992 12.1702 40.695 12.2942 40.346 12.2942C40.1799 12.2971 40.015 12.2657 39.8615 12.202C39.708 12.1384 39.5693 12.0438 39.454 11.9242C39.3349 11.8085 39.2406 11.6697 39.177 11.5164C39.1134 11.363 39.0817 11.1982 39.084 11.0322C39.0811 10.8661 39.1125 10.7012 39.1762 10.5477C39.2398 10.3942 39.3344 10.2555 39.454 10.1402C39.5697 10.0211 39.7085 9.92681 39.8618 9.86319C40.0152 9.79957 40.18 9.76792 40.346 9.7702C40.5121 9.76733 40.677 9.7987 40.8305 9.86236C40.984 9.92601 41.1227 10.0206 41.238 10.1402C41.3571 10.2559 41.4514 10.3947 41.515 10.548C41.5786 10.7014 41.6103 10.8662 41.608 11.0322C41.6109 11.1983 41.5795 11.3632 41.5158 11.5167C41.4522 11.6702 41.3576 11.8089 41.238 11.9242ZM41.238 23.8182H39.453V14.3112H41.238V23.8182ZM45.091 23.8182H43.305V14.3112H45.012V15.8632H45.089C45.269 15.3462 45.642 14.9192 46.205 14.5832C46.768 14.2472 47.305 14.0782 47.845 14.0782C48.385 14.0782 48.822 14.1562 49.185 14.3112L48.505 15.9812C48.272 15.8812 47.955 15.8452 47.555 15.8452C46.908 15.8452 46.335 16.1002 45.838 16.6112C45.341 17.1222 45.091 17.7912 45.091 18.6192V23.8182ZM53.879 24.1182C52.443 24.1182 51.276 23.6402 50.377 22.6822C49.478 21.7242 49.027 20.5162 49.027 19.0542C49.027 17.6702 49.463 16.4802 50.327 15.4842C51.191 14.4882 52.327 13.9902 53.674 13.9902C55.074 13.9902 56.212 14.4502 57.06 15.3682C57.908 16.2862 58.33 17.5152 58.33 19.0552L58.31 19.3852H50.81C50.862 20.3422 51.182 21.0992 51.77 21.6552C52.0428 21.9232 52.3658 22.1348 52.7205 22.2779C53.0752 22.4211 53.4546 22.4928 53.837 22.4892C55.117 22.4892 55.984 21.9462 56.437 20.8592L58.037 21.5192C57.737 22.2562 57.215 22.8742 56.504 23.3722C55.793 23.8702 54.919 24.1192 53.884 24.1192L53.879 24.1182ZM56.439 17.9182C56.399 17.3752 56.151 16.8582 55.692 16.3662C55.233 15.8742 54.55 15.6292 53.645 15.6292C52.985 15.6292 52.413 15.8362 51.928 16.2492C51.443 16.6622 51.11 17.2192 50.928 17.9192H56.428L56.439 17.9182ZM64.802 24.1182C64.077 24.1182 63.427 23.9632 62.852 23.6522C62.277 23.3412 61.846 22.9542 61.552 22.4882H61.485V23.8082H59.778V9.9262H61.563V14.3112L61.485 15.6312H61.563C61.848 15.1652 62.278 14.7772 62.863 14.4672C63.448 14.1572 64.089 14.0012 64.813 14.0012C66.043 14.0012 67.113 14.4862 67.995 15.4562C68.877 16.4262 69.335 17.6292 69.335 19.0562C69.335 20.4832 68.889 21.6962 67.995 22.6562C67.101 23.6162 66.042 24.1112 64.813 24.1112L64.802 24.1182ZM64.502 22.4882C65.33 22.4882 66.042 22.1742 66.636 21.5482C67.23 20.9222 67.528 20.0902 67.528 19.0552C67.528 18.0202 67.23 17.1892 66.636 16.5622C66.042 15.9352 65.329 15.6222 64.502 15.6222C64.0988 15.6143 63.6987 15.6933 63.3287 15.8537C62.9588 16.0142 62.6277 16.2524 62.358 16.5522C61.77 17.1822 61.475 18.0072 61.475 19.0552C61.475 20.1032 61.769 20.9372 62.358 21.5582C62.947 22.1792 63.661 22.4902 64.502 22.4902V22.4882ZM74.015 24.1182C73.015 24.1182 72.162 23.8182 71.483 23.2452C70.804 22.6722 70.463 21.8932 70.463 20.9452C70.463 19.9102 70.863 19.0992 71.666 18.5102C72.469 17.9212 73.458 17.6272 74.636 17.6272C75.684 17.6272 76.544 17.8212 77.216 18.2092V17.9372C77.216 17.2372 76.976 16.6792 76.498 16.2592C76.02 15.8392 75.431 15.6292 74.732 15.6292C74.214 15.6292 73.745 15.7522 73.325 15.9992C72.9254 16.2208 72.619 16.579 72.462 17.0082L70.832 16.3102C71.052 15.7402 71.485 15.2142 72.132 14.7302C72.779 14.2462 73.632 14.0022 74.692 14.0022C75.908 14.0022 76.917 14.3582 77.719 15.0692C78.521 15.7802 78.922 16.7832 78.922 18.0762V23.8192H77.225V22.4992H77.147C76.435 23.5852 75.394 24.1292 74.023 24.1292L74.015 24.1182ZM74.315 22.4882C75.052 22.4882 75.722 22.2132 76.323 21.6632C76.924 21.1132 77.225 20.4632 77.225 19.7132C76.721 19.2992 75.965 19.0932 74.955 19.0932C74.088 19.0932 73.435 19.2812 72.995 19.6562C72.555 20.0312 72.335 20.4712 72.335 20.9762C72.335 21.4422 72.535 21.8102 72.937 22.0822C73.339 22.3542 73.797 22.4902 74.315 22.4902V22.4882ZM84.115 24.1182C83.055 24.1182 82.178 23.8582 81.485 23.3422C80.8098 22.8466 80.2832 22.1757 79.962 21.4022L81.562 20.7422C82.066 21.9422 82.927 22.5272 84.142 22.5272C84.698 22.5272 85.154 22.4042 85.51 22.1572C85.866 21.9102 86.044 21.5872 86.044 21.1872C86.044 20.5672 85.611 20.1472 84.744 19.9272L82.824 19.4612C82.216 19.3062 81.64 19.0112 81.097 18.5782C80.554 18.1452 80.285 17.5812 80.285 16.8332C80.285 15.9932 80.657 15.3102 81.401 14.7862C82.145 14.2622 83.028 14.0002 84.051 14.0002C84.891 14.0002 85.651 14.2002 86.301 14.5722C86.951 14.9442 87.433 15.5002 87.718 16.2122L86.166 16.8522C85.816 16.0122 85.092 15.5922 83.993 15.5922C83.463 15.5922 83.016 15.6922 82.653 15.9222C82.29 16.1522 82.11 16.4392 82.11 16.8142C82.11 17.3572 82.53 17.7262 83.37 17.9202L85.252 18.3662C86.144 18.5732 86.804 18.9292 87.232 19.4332C87.66 19.9372 87.872 20.5072 87.872 21.1402C87.872 21.9942 87.522 22.7052 86.824 23.2742C86.126 23.8432 85.226 24.1282 84.127 24.1282L84.115 24.1182ZM93.622 24.1182C92.186 24.1182 91.018 23.6402 90.12 22.6822C89.222 21.7242 88.77 20.5162 88.77 19.0542C88.77 17.6702 89.206 16.4802 90.07 15.4842C90.934 14.4882 92.07 13.9902 93.417 13.9902C94.817 13.9902 95.955 14.4502 96.803 15.3682C97.651 16.2862 98.073 17.5152 98.073 19.0552V19.3852H90.573C90.623 20.3422 90.945 21.0992 91.533 21.6552C91.8057 21.9231 92.1285 22.1347 92.483 22.2778C92.8375 22.4209 93.2167 22.4927 93.599 22.4892C94.879 22.4892 95.746 21.9462 96.199 20.8592L97.799 21.5192C97.499 22.2562 96.977 22.8742 96.266 23.3722C95.555 23.8702 94.681 24.1192 93.646 24.1192L93.622 24.1182ZM96.182 17.9182C96.142 17.3752 95.894 16.8582 95.435 16.3662C94.976 15.8742 94.293 15.6292 93.388 15.6292C92.7588 15.6181 92.1476 15.8392 91.671 16.2502C91.186 16.6642 90.853 17.2202 90.671 17.9202H96.171L96.182 17.9182Z" fill="#CCCCCC"/>
</svg>
