<svg width="93" height="32" viewBox="0 0 93 32" fill="none" xmlns="http://www.w3.org/2000/svg">
<path d="M0 25.5273L0.191501 25.2591L9.24824 8.07427L9.26737 7.89233L5.27507 0.393127C4.94042 -0.235047 3.9987 -0.0762897 3.88901 0.626933L0 25.5273Z" fill="#A2A2A2"/>
<path d="M12.1248 13.4379L15.0147 10.4781L12.1248 4.97511C11.8504 4.45193 11.1837 4.39799 10.9122 4.92099L9.31514 7.99691L9.26733 8.15422L12.1248 13.4379Z" fill="#A2A2A2"/>
<path d="M9.24698 7.85718L0 25.5273L0.0867753 25.44L0.402125 25.3119L11.9912 13.7659L12.1379 13.3663L9.24698 7.85718Z" fill="#595959"/>
<path d="M12.549 31.35L23.0374 25.5005L20.0431 7.05381C19.9493 6.47669 19.2414 6.24848 18.8283 6.66233L0 25.5272L10.4282 31.3496C10.7523 31.5306 11.1174 31.6256 11.4886 31.6257C11.8598 31.6257 12.2248 31.5308 12.549 31.35Z" fill="#CCCCCC"/>
<path d="M25.9788 23.8182H24.1938V9.9262H32.2938V11.6332H25.9788V16.1932H31.6838V17.8632H25.9788V23.8182ZM35.4318 11.9242C35.1858 12.1702 34.8888 12.2942 34.5398 12.2942C34.3737 12.2971 34.2088 12.2657 34.0553 12.202C33.9019 12.1384 33.7632 12.0438 33.6478 11.9242C33.5287 11.8085 33.4345 11.6697 33.3708 11.5164C33.3072 11.363 33.2756 11.1982 33.2778 11.0322C33.275 10.8661 33.3063 10.7012 33.37 10.5477C33.4337 10.3942 33.5282 10.2555 33.6478 10.1402C33.7635 10.0211 33.9023 9.92681 34.0557 9.86319C34.2091 9.79957 34.3738 9.76792 34.5398 9.7702C34.706 9.76733 34.8709 9.7987 35.0244 9.86236C35.1778 9.92601 35.3165 10.0206 35.4318 10.1402C35.551 10.2559 35.6452 10.3947 35.7089 10.548C35.7725 10.7014 35.8041 10.8662 35.8018 11.0322C35.8047 11.1983 35.7733 11.3632 35.7097 11.5167C35.646 11.6702 35.5515 11.8089 35.4318 11.9242ZM35.4318 23.8182H33.6468V14.3112H35.4318V23.8182ZM39.2848 23.8182H37.4988V14.3112H39.2058V15.8632H39.2828C39.4628 15.3462 39.8358 14.9192 40.3988 14.5832C40.9618 14.2472 41.4988 14.0782 42.0388 14.0782C42.5788 14.0782 43.0158 14.1562 43.3788 14.3112L42.6988 15.9812C42.4658 15.8812 42.1488 15.8452 41.7488 15.8452C41.1018 15.8452 40.5288 16.1002 40.0318 16.6112C39.5348 17.1222 39.2848 17.7912 39.2848 18.6192V23.8182ZM48.0728 24.1182C46.6368 24.1182 45.4698 23.6402 44.5708 22.6822C43.6718 21.7242 43.2208 20.5162 43.2208 19.0542C43.2208 17.6702 43.6568 16.4802 44.5208 15.4842C45.3848 14.4882 46.5208 13.9902 47.8678 13.9902C49.2678 13.9902 50.4058 14.4502 51.2538 15.3682C52.1018 16.2862 52.5238 17.5152 52.5238 19.0552L52.5038 19.3852H45.0038C45.0558 20.3422 45.3758 21.0992 45.9638 21.6552C46.2367 21.9232 46.5597 22.1348 46.9143 22.2779C47.269 22.4211 47.6484 22.4928 48.0308 22.4892C49.3108 22.4892 50.1778 21.9462 50.6308 20.8592L52.2308 21.5192C51.9308 22.2562 51.4088 22.8742 50.6978 23.3722C49.9868 23.8702 49.1128 24.1192 48.0778 24.1192L48.0728 24.1182ZM50.6328 17.9182C50.5928 17.3752 50.3448 16.8582 49.8858 16.3662C49.4268 15.8742 48.7438 15.6292 47.8388 15.6292C47.1788 15.6292 46.6068 15.8362 46.1218 16.2492C45.6368 16.6622 45.3038 17.2192 45.1218 17.9192H50.6218L50.6328 17.9182ZM58.9958 24.1182C58.2708 24.1182 57.6208 23.9632 57.0458 23.6522C56.4708 23.3412 56.0398 22.9542 55.7458 22.4882H55.6788V23.8082H53.9718V9.9262H55.7568V14.3112L55.6788 15.6312H55.7568C56.0418 15.1652 56.4718 14.7772 57.0568 14.4672C57.6418 14.1572 58.2828 14.0012 59.0068 14.0012C60.2368 14.0012 61.3068 14.4862 62.1888 15.4562C63.0708 16.4262 63.5288 17.6292 63.5288 19.0562C63.5288 20.4832 63.0828 21.6962 62.1888 22.6562C61.2948 23.6162 60.2358 24.1112 59.0068 24.1112L58.9958 24.1182ZM58.6958 22.4882C59.5238 22.4882 60.2358 22.1742 60.8298 21.5482C61.4238 20.9222 61.7218 20.0902 61.7218 19.0552C61.7218 18.0202 61.4238 17.1892 60.8298 16.5622C60.2358 15.9352 59.5228 15.6222 58.6958 15.6222C58.2927 15.6143 57.8925 15.6933 57.5226 15.8537C57.1526 16.0142 56.8216 16.2524 56.5518 16.5522C55.9638 17.1822 55.6688 18.0072 55.6688 19.0552C55.6688 20.1032 55.9628 20.9372 56.5518 21.5582C57.1408 22.1792 57.8548 22.4902 58.6958 22.4902V22.4882ZM68.2088 24.1182C67.2088 24.1182 66.3558 23.8182 65.6768 23.2452C64.9978 22.6722 64.6568 21.8932 64.6568 20.9452C64.6568 19.9102 65.0568 19.0992 65.8598 18.5102C66.6628 17.9212 67.6518 17.6272 68.8298 17.6272C69.8778 17.6272 70.7378 17.8212 71.4098 18.2092V17.9372C71.4098 17.2372 71.1698 16.6792 70.6918 16.2592C70.2138 15.8392 69.6248 15.6292 68.9258 15.6292C68.4078 15.6292 67.9388 15.7522 67.5188 15.9992C67.1192 16.2208 66.8128 16.579 66.6558 17.0082L65.0258 16.3102C65.2458 15.7402 65.6788 15.2142 66.3258 14.7302C66.9728 14.2462 67.8258 14.0022 68.8858 14.0022C70.1018 14.0022 71.1108 14.3582 71.9128 15.0692C72.7148 15.7802 73.1158 16.7832 73.1158 18.0762V23.8192H71.4188V22.4992H71.3408C70.6288 23.5852 69.5878 24.1292 68.2168 24.1292L68.2088 24.1182ZM68.5088 22.4882C69.2458 22.4882 69.9158 22.2132 70.5168 21.6632C71.1178 21.1132 71.4188 20.4632 71.4188 19.7132C70.9148 19.2992 70.1588 19.0932 69.1488 19.0932C68.2818 19.0932 67.6288 19.2812 67.1888 19.6562C66.7488 20.0312 66.5288 20.4712 66.5288 20.9762C66.5288 21.4422 66.7288 21.8102 67.1308 22.0822C67.5328 22.3542 67.9908 22.4902 68.5088 22.4902V22.4882ZM78.3088 24.1182C77.2488 24.1182 76.3718 23.8582 75.6788 23.3422C75.0037 22.8466 74.477 22.1757 74.1558 21.4022L75.7558 20.7422C76.2598 21.9422 77.1208 22.5272 78.3358 22.5272C78.8918 22.5272 79.3478 22.4042 79.7038 22.1572C80.0598 21.9102 80.2378 21.5872 80.2378 21.1872C80.2378 20.5672 79.8048 20.1472 78.9378 19.9272L77.0178 19.4612C76.4098 19.3062 75.8338 19.0112 75.2908 18.5782C74.7478 18.1452 74.4788 17.5812 74.4788 16.8332C74.4788 15.9932 74.8508 15.3102 75.5948 14.7862C76.3388 14.2622 77.2218 14.0002 78.2448 14.0002C79.0848 14.0002 79.8448 14.2002 80.4948 14.5722C81.1448 14.9442 81.6268 15.5002 81.9118 16.2122L80.3598 16.8522C80.0098 16.0122 79.2858 15.5922 78.1868 15.5922C77.6568 15.5922 77.2098 15.6922 76.8468 15.9222C76.4838 16.1522 76.3038 16.4392 76.3038 16.8142C76.3038 17.3572 76.7238 17.7262 77.5638 17.9202L79.4458 18.3662C80.3378 18.5732 80.9978 18.9292 81.4258 19.4332C81.8538 19.9372 82.0658 20.5072 82.0658 21.1402C82.0658 21.9942 81.7158 22.7052 81.0178 23.2742C80.3198 23.8432 79.4198 24.1282 78.3208 24.1282L78.3088 24.1182ZM87.8158 24.1182C86.3798 24.1182 85.2118 23.6402 84.3138 22.6822C83.4158 21.7242 82.9638 20.5162 82.9638 19.0542C82.9638 17.6702 83.3998 16.4802 84.2638 15.4842C85.1278 14.4882 86.2638 13.9902 87.6108 13.9902C89.0108 13.9902 90.1488 14.4502 90.9968 15.3682C91.8448 16.2862 92.2668 17.5152 92.2668 19.0552V19.3852H84.7668C84.8168 20.3422 85.1388 21.0992 85.7268 21.6552C85.9996 21.9231 86.3224 22.1347 86.6769 22.2778C87.0314 22.4209 87.4106 22.4927 87.7928 22.4892C89.0728 22.4892 89.9399 21.9462 90.3929 20.8592L91.9928 21.5192C91.6928 22.2562 91.1708 22.8742 90.4598 23.3722C89.7488 23.8702 88.8748 24.1192 87.8398 24.1192L87.8158 24.1182ZM90.3758 17.9182C90.3358 17.3752 90.0878 16.8582 89.6288 16.3662C89.1698 15.8742 88.4868 15.6292 87.5818 15.6292C86.9526 15.6181 86.3414 15.8392 85.8648 16.2502C85.3798 16.6642 85.0468 17.2202 84.8648 17.9202H90.3649L90.3758 17.9182Z" fill="#CCCCCC"/>
</svg>
