<svg width="109" height="31" viewBox="0 0 109 31" fill="none" xmlns="http://www.w3.org/2000/svg">
<path d="M15.219 0.010406L24.6573 0L8.82236 15.8345L4.69547 19.9403L0 15.2367L15.219 0.010406ZM15.1311 14.1487C15.2536 13.9869 15.479 14.0666 15.65 14.0458L24.6492 14.0481L16.4475 22.2458L11.7277 17.5527L15.1311 14.1487Z" fill="#CCCCCC"/>
<path d="M37.923 6.61475L48.2119 6.61822L48.2108 8.64508C45.5192 8.64508 42.8265 8.63698 40.1338 8.64855C39.9281 8.71676 40.0252 8.9746 40.0021 9.133L40.0102 14.5846C40.0784 14.7893 40.3372 14.691 40.4967 14.7164L47.403 14.7129V16.7375C45.2557 16.7363 43.1097 16.7363 40.9624 16.7375C40.6435 16.7363 40.321 16.7167 40.0055 16.771L39.9813 24.4669C39.289 24.4391 38.5979 24.4645 37.9057 24.4495L37.9045 6.94196L37.923 6.61475ZM50.707 6.61822H52.8196L52.8207 18.7308L52.7976 24.4345C52.11 24.4218 51.4224 24.4183 50.7359 24.4368C50.6828 24.1547 50.7047 23.8679 50.7047 23.5835L50.707 6.61822ZM71.3842 8.12015L73.5037 8.12131L73.5072 11.7056C74.5438 11.731 75.5862 11.6594 76.6205 11.7414C76.5917 12.3843 76.6159 13.0272 76.6044 13.67C75.5735 13.6723 74.5438 13.6804 73.5141 13.6654L73.506 20.8039C73.528 21.4653 73.669 22.2642 74.3115 22.6053C75.0454 23.0227 75.9468 22.8262 76.6413 22.4238V24.5004C75.8763 24.8473 75.0038 24.8889 74.1821 24.7767C73.0241 24.5998 71.9147 23.8101 71.5645 22.662C71.3322 22.033 71.3854 21.3543 71.3807 20.6976L71.3761 13.7452L71.3241 13.6862C70.5926 13.6469 69.8587 13.692 69.126 13.6666C69.1307 13.0121 69.1006 12.3577 69.1422 11.7044C69.8865 11.6917 70.6342 11.738 71.3773 11.6813L71.3842 8.12015ZM80.3383 8.11321C81.0433 8.13749 81.7482 8.10512 82.452 8.1294L82.5006 8.18259C82.5272 9.35962 82.4648 10.5401 82.5283 11.7149C83.5326 11.6964 84.5369 11.7114 85.54 11.7056L85.5469 13.655C84.5369 13.6932 83.5233 13.67 82.5133 13.6642L82.5017 20.9265C82.5006 21.559 82.6832 22.307 83.2945 22.6181C84.0445 23.0274 84.9541 22.8169 85.6509 22.3984L85.6486 24.4865C84.9055 24.8218 84.0677 24.8866 83.2656 24.7941C82.2244 24.6553 81.2051 24.0668 80.7162 23.1129C80.4805 22.6134 80.3487 22.0608 80.3268 21.5092V13.6723C79.5952 13.6712 78.8648 13.6747 78.1345 13.6723L78.1391 11.6987C78.8591 11.7183 79.579 11.6929 80.299 11.7172C80.3753 10.5193 80.2933 9.31338 80.3383 8.11321ZM90.6261 11.7727C92.0891 11.1656 93.7776 11.1541 95.2718 11.6628C96.9834 12.2537 98.3078 13.7475 98.7932 15.4807C99.111 16.4415 99.0983 17.4624 99.0532 18.4614L88.9931 18.4718C89.0763 19.5437 89.3964 20.6363 90.1407 21.441C91.1981 22.6747 93.0183 23.1326 94.5553 22.6481C95.6336 22.3302 96.4749 21.5 97.0285 20.5461C97.641 20.8201 98.2361 21.1323 98.8463 21.4133C98.0119 23.0042 96.4945 24.268 94.7114 24.6102C93.2471 24.8843 91.6454 24.8912 90.3025 24.1674C88.5597 23.3014 87.3602 21.5381 87.0181 19.6419C86.7696 18.1851 86.847 16.6438 87.3948 15.261C87.9692 13.7429 89.1306 12.4282 90.6261 11.7727ZM91.4223 13.6007C90.1915 14.1695 89.3988 15.4333 89.1514 16.7375L96.8667 16.7132C96.7442 15.8611 96.4414 14.9951 95.8173 14.3788C94.7241 13.2064 92.8553 12.9775 91.4223 13.6007ZM103.633 13.7683C104.439 11.8108 106.913 10.7829 108.869 11.6027V13.8874C108.048 13.5637 107.127 13.3636 106.259 13.6192C105.073 13.9718 104.196 15.0298 103.86 16.1941C103.628 16.9803 103.715 17.8012 103.724 18.6071C103.634 19.65 103.769 20.6941 103.701 21.737C103.757 22.6377 103.653 23.5384 103.729 24.4403C103.01 24.475 102.291 24.438 101.574 24.4622C101.532 21.744 101.568 19.0245 101.556 16.3051L101.573 11.7276C102.246 11.7461 102.921 11.7253 103.596 11.7414C103.657 12.4167 103.521 13.0954 103.633 13.7683ZM55.8497 11.7021C56.5663 11.7322 57.2885 11.6594 58.0016 11.7403L57.9912 19.3182C57.9843 20.2443 58.116 21.256 58.7562 21.9752C59.5825 22.8909 60.9821 23.0586 62.1123 22.6967C63.6228 22.1556 64.6767 20.5554 64.6155 18.9551L64.6386 11.7021L66.7962 11.7068L66.7835 24.431C66.0993 24.4195 65.4163 24.431 64.7333 24.4229L64.7253 22.6123C64.2826 23.1684 63.8181 23.7315 63.1836 24.0818C61.8846 24.9016 60.2366 25.0103 58.7817 24.5906C57.8433 24.3073 57.0262 23.6494 56.5559 22.7892C55.9977 21.8434 55.8567 20.7253 55.8243 19.6477L55.8497 11.7021Z" fill="#CCCCCC"/>
<path d="M7.02295 22.2539L11.7277 17.5527L16.4474 22.2459L16.4671 22.2667L11.7288 26.9632L7.02295 22.2539Z" fill="#A2A2A2"/>
<path d="M11.7288 26.9632L16.467 22.2666L24.6526 30.4642C21.5693 30.4712 18.4871 30.4619 15.4049 30.4689C15.2293 30.5082 15.1206 30.3475 15.0085 30.248L11.7288 26.9632Z" fill="#595959"/>
</svg>
