<svg width="73" height="27" viewBox="0 0 73 27" fill="none" xmlns="http://www.w3.org/2000/svg">
<path d="M5.4422 8.15772C5.30176 8.15772 5.26665 8.0875 5.33687 7.98217L6.07419 7.03419C6.14441 6.92886 6.31996 6.85864 6.4604 6.85864H18.9949C19.1353 6.85864 19.1704 6.96397 19.1002 7.0693L18.5033 7.98217C18.4331 8.0875 18.2575 8.19283 18.1522 8.19283L5.4422 8.15772Z" fill="#CCCCCC"/>
<path d="M0.140441 11.3876C4.02331e-07 11.3876 -0.0351106 11.3174 0.0351104 11.2121L0.772428 10.2641C0.842653 10.1588 1.0182 10.0886 1.15864 10.0886H17.169C17.3095 10.0886 17.3797 10.1939 17.3446 10.2992L17.0637 11.1419C17.0286 11.2823 16.8881 11.3525 16.7477 11.3525L0.140441 11.3876Z" fill="#CCCCCC"/>
<path d="M8.63727 14.6179C8.49683 14.6179 8.46172 14.5125 8.53194 14.4072L9.02349 13.5294C9.09371 13.4241 9.23415 13.3188 9.37459 13.3188H16.3967C16.5372 13.3188 16.6074 13.4241 16.6074 13.5645L16.5372 14.4072C16.5372 14.5476 16.3967 14.653 16.2914 14.653L8.63727 14.6179Z" fill="#CCCCCC"/>
<path d="M45.0817 7.52568C42.8698 8.08745 41.36 8.50877 39.1832 9.07054C38.6565 9.21098 38.6214 9.24609 38.165 8.71943C37.6383 8.12255 37.2521 7.73634 36.5148 7.38524C34.3028 6.29681 32.1611 6.61281 30.1598 7.91189C27.7723 9.45677 26.5434 11.739 26.5785 14.5829C26.6137 17.3917 28.5447 19.709 31.3184 20.0952C33.706 20.4112 35.7072 19.5686 37.2872 17.7779C37.6032 17.3917 37.8841 16.9704 38.2352 16.4789C36.9712 16.4789 35.3913 16.4789 31.4589 16.4789C30.7216 16.4789 30.546 16.0224 30.7918 15.4255C31.2482 14.3371 32.0909 12.5114 32.5824 11.5985C32.6878 11.3879 32.9335 11.0367 33.4602 11.0367C35.2508 11.0367 41.8516 11.0367 46.2404 11.0367C46.1701 11.9847 46.1701 12.9327 46.0297 13.8807C45.6435 16.4086 44.6955 18.7259 43.1507 20.7623C40.6227 24.0978 37.3223 26.1693 33.1442 26.7311C29.7034 27.1875 26.5083 26.5204 23.6995 24.4138C21.1013 22.4476 19.6267 19.8495 19.2405 16.6193C18.784 12.7923 19.9076 9.35142 22.2249 6.33192C24.7177 3.06666 28.0181 0.995141 32.0558 0.257825C35.3561 -0.339052 38.5161 0.0471631 41.36 1.97823C43.2209 3.2071 44.5551 4.8924 45.4328 6.9288C45.6435 7.24479 45.5031 7.42035 45.0817 7.52568Z" fill="#7E7E7E"/>
<path d="M56.7035 26.9418C53.5084 26.8716 50.5942 25.9587 48.1365 23.8521C46.065 22.0615 44.7659 19.7793 44.3446 17.0758C43.7126 13.1083 44.801 9.59727 47.1885 6.47245C49.7516 3.10185 52.8413 1.34632 57.0194 0.60901C60.6007 -0.0229808 63.9713 0.328123 67.0259 2.39964C69.7996 4.2956 71.52 6.85866 71.9765 10.2293C72.5734 14.9692 71.204 18.8313 67.9388 22.1317C65.6215 24.4841 62.7776 25.9587 59.5123 26.6258C58.5643 26.8014 57.6163 26.8365 56.7035 26.9418ZM65.0597 12.7572C65.0246 12.3008 65.0246 11.9497 64.9544 11.5986C64.3224 8.12263 61.1274 6.15645 57.7919 6.92888C54.5266 7.6662 52.42 9.73767 51.6476 13.0381C51.0156 15.7767 52.3498 18.5504 54.8777 19.674C56.8088 20.5166 58.7399 20.4113 60.6007 19.4633C63.3744 18.0238 64.8842 15.7767 65.0597 12.7572Z" fill="#7E7E7E"/>
</svg>
