<svg width="31" height="44" viewBox="0 0 31 44" fill="none" xmlns="http://www.w3.org/2000/svg">
<path d="M2.88135 0H4.84205V1.94365H6.6493V0H8.61V5.8821H6.6493V3.9214H4.8591V5.8821H2.88135V0ZM11.2016 1.9607H9.47101V0H14.9013V1.9607H13.1623V5.8821H11.2016V1.9607ZM15.7623 0H17.8168L19.0785 2.07152L20.3401 0H22.3946V5.8821H20.4339V2.96663L19.0614 5.08077L17.6889 2.96663V5.8821H15.7623V0ZM23.3664 0H25.3271V3.93845H28.1062V5.8821H23.3664V0Z" fill="#EBEBEB"/>
<path d="M2.81318 40.1517L0 8.57593H30.9279L28.1148 40.1347L15.4384 43.6469" fill="#595959"/>
<path d="M5.74561 15.0293H15.4639L16.9089 16.9644L15.4639 18.8995H9.99099L10.349 22.8636H15.4639L16.9089 24.8711L15.4639 26.7253H6.80269L5.74561 15.0293ZM6.97318 28.6689H10.8605L11.1333 31.7634L15.4639 32.9228L17.0944 34.8545L15.4639 36.9636L7.51877 34.7471L6.97318 28.6689Z" fill="#EBEBEB"/>
<path d="M25.1482 15.0293H15.447V18.8995H24.7902L25.1482 15.0293ZM24.4407 22.8636H15.447V26.7338H20.2209L19.7691 31.7634L15.447 32.9228V36.9465L23.3751 34.7471L24.4407 22.8636Z" fill="white"/>
</svg>
