<svg width="37" height="51" viewBox="0 0 37 51" fill="none" xmlns="http://www.w3.org/2000/svg">
<path d="M4.7 29.8253C4.7 28.4373 9.96625 27.6585 12.4185 27.4693L12.653 27.6048C11.711 27.7763 7.93107 28.4429 7.93107 29.3126C7.93107 30.2592 13.7285 30.8795 17.0932 30.8795C22.8081 30.8795 26.693 30.0145 27.7378 29.7299L29.1999 30.5801C28.1986 31.0706 23.9012 32.3547 17.0932 32.3547C9.52765 32.3546 4.7 30.8748 4.7 29.8253ZM16.2309 49.3141C13.2362 49.34 9.58045 49.0924 6.50508 48.576L6.21951 48.7392C9.28371 49.6376 13.5495 50.18 18.2363 50.1392C27.4411 50.0595 34.9038 47.7768 35.0512 45.0297L34.9455 44.9676C34.328 45.7204 30.3468 49.1908 16.2309 49.3141ZM17.0143 47.5451C24.5483 47.4793 32.9772 46.0051 32.9558 43.5269C32.9512 43.0772 32.6591 42.7694 32.4051 42.584L32.2808 42.6554C31.5845 44.5745 25.699 45.9931 17.0022 46.0682C11.3911 46.1174 3.61785 44.7729 3.60394 43.2199C3.59092 41.6623 7.28658 40.8066 7.28658 40.8066L7.0251 40.6574C4.54869 40.9985 -0.0147512 42.1844 3.5848e-05 43.8968C0.0215808 46.3722 10.5095 47.6016 17.0143 47.5451ZM33.9868 30.4883C33.8349 33.3949 31.1498 35.2047 28.4656 36.7336L28.7086 36.8745C31.5726 36.068 36.683 33.7222 36.2602 30.1155C36.0498 28.3178 34.4059 27.0327 32.2632 27.0327C31.5957 27.0327 31.0024 27.1504 30.5211 27.297L30.5193 27.3016L30.4172 27.5575C32.3346 27.182 34.0861 28.582 33.9868 30.4883ZM11.8566 39.1246C10.9823 39.2989 9.07708 39.7366 9.07708 40.6627C9.07708 41.9459 13.1528 42.9297 17.0886 42.9297C22.5041 42.9297 24.7228 41.5362 24.8228 41.4638L22.5708 40.1611C21.613 40.3892 19.9998 40.7471 17.0941 40.7471C13.8519 40.7471 11.7389 40.1927 11.7389 39.5844C11.7389 39.4555 11.8196 39.3017 11.9697 39.1904L11.8566 39.1246ZM25.1603 34.7986C23.9151 35.1509 21.1096 35.7257 17.0978 35.7257C13.1611 35.7257 9.94485 35.0526 9.93455 34.259C9.92715 33.7304 10.5659 33.5006 10.5659 33.5006L10.4528 33.4348C8.56704 33.7676 6.81651 34.2831 6.82581 35.0545C6.84344 36.4535 12.1949 37.504 17.0903 37.504C21.2523 37.504 25.2492 36.8059 27.0526 35.8908L25.1603 34.7986Z" fill="#CCCCCC"/>
<path d="M24.0867 3.58627C24.0867 11.3012 13.5143 14.2532 13.5143 19.7382C13.5143 23.5887 16.0677 26.0031 17.4807 27.53L17.3657 27.5968C15.5819 26.4805 10.8896 23.6768 10.8896 19.0457C10.8896 12.5436 23.0334 9.43668 23.0334 2.05187C23.0334 1.14326 22.899 0.446081 22.8045 0.070511L22.9269 0C23.3116 0.483101 24.0867 1.69207 24.0867 3.58627ZM27.5636 10.4184L27.4366 10.3462C25.1363 11.1166 18.0528 13.9128 18.0528 19.1254C18.0528 22.0728 20.9316 23.7065 20.9316 26.4703C20.9316 27.4568 20.3744 28.3811 19.922 28.9337L20.1491 29.0653C21.3478 28.2865 23.4691 26.6001 23.4691 24.4231C23.4691 22.5791 20.9176 20.3631 20.9176 17.9933C20.9177 14.2587 25.8409 11.3289 27.5636 10.4184Z" fill="#7E7E7E"/>
</svg>
