<svg width="37" height="37" viewBox="0 0 37 37" fill="none" xmlns="http://www.w3.org/2000/svg">
<path d="M32.5162 0H3.51906C1.57554 0 0 1.5763 0 3.52076V32.5319C0 34.4763 1.57554 36.0526 3.51906 36.0526H32.5162C34.4597 36.0526 36.0352 34.4763 36.0352 32.5319V3.52076C36.0352 1.5763 34.4597 0 32.5162 0Z" fill="#CCCCCC"/>
<path d="M19.2453 21.1597H22.2901V29.1673C22.2864 29.9278 22.0994 30.597 21.7289 31.1749C21.3622 31.749 20.8547 32.1977 20.2065 32.5209C19.562 32.8403 18.8193 33 17.9784 33C17.2487 33 16.5819 32.8707 15.9781 32.6122C15.3743 32.3498 14.8928 31.9392 14.5335 31.3802C14.1742 30.8175 13.9964 30.0875 14.0001 29.1901H17.0894C17.1005 29.4829 17.1487 29.73 17.2339 29.9316C17.3228 30.1331 17.445 30.2852 17.6006 30.3878C17.7599 30.4867 17.9525 30.5361 18.1784 30.5361C18.4081 30.5361 18.6007 30.4848 18.7563 30.3821C18.9156 30.2795 19.036 30.1274 19.1175 29.9259C19.1989 29.7205 19.2415 29.4677 19.2453 29.1673V21.1597Z" fill="#595959"/>
<path d="M29.8884 24.8099C29.8588 24.4297 29.7199 24.1331 29.4717 23.9202C29.2272 23.7072 28.855 23.6008 28.3549 23.6008C28.0363 23.6008 27.7752 23.6407 27.5714 23.7205C27.3714 23.7966 27.2232 23.9011 27.1269 24.0342C27.0306 24.1673 26.9806 24.3194 26.9769 24.4905C26.9695 24.6312 26.9936 24.7586 27.0491 24.8726C27.1084 24.9829 27.201 25.0836 27.327 25.1749C27.4529 25.2624 27.614 25.3422 27.8104 25.4144C28.0067 25.4867 28.2401 25.5513 28.5105 25.6084L29.4439 25.8137C30.0737 25.9506 30.6126 26.1312 31.0608 26.3555C31.509 26.5798 31.8758 26.8441 32.161 27.1483C32.4462 27.4487 32.6555 27.7871 32.7889 28.1635C32.9259 28.5399 32.9963 28.9506 33 29.3954C32.9963 30.1635 32.8092 30.8137 32.4388 31.346C32.0684 31.8783 31.5387 32.2833 30.8497 32.5608C30.1644 32.8384 29.3402 32.9772 28.3771 32.9772C27.3881 32.9772 26.525 32.827 25.7879 32.5266C25.0544 32.2262 24.484 31.7643 24.0765 31.1407C23.6727 30.5133 23.469 29.711 23.4653 28.7338H26.3991C26.4176 29.0913 26.5046 29.3916 26.6602 29.635C26.8158 29.8783 27.0343 30.0627 27.3159 30.1882C27.6011 30.3137 27.94 30.3764 28.3327 30.3764C28.6623 30.3764 28.9383 30.3346 29.1606 30.2509C29.3828 30.1673 29.5514 30.0513 29.6662 29.903C29.781 29.7548 29.8403 29.5856 29.844 29.3954C29.8403 29.2167 29.7829 29.0608 29.6717 28.9278C29.5643 28.7909 29.3865 28.6692 29.1383 28.5627C28.8902 28.4525 28.5549 28.3498 28.1326 28.2548L26.9991 28.0038C25.9916 27.7795 25.197 27.4049 24.6155 26.8802C24.0376 26.3517 23.7505 25.6312 23.7542 24.7186C23.7505 23.9772 23.9431 23.3289 24.3321 22.7738C24.7247 22.2148 25.2674 21.7795 25.9601 21.4677C26.6565 21.1559 27.4548 21 28.3549 21C29.2735 21 30.0681 21.1578 30.7386 21.4734C31.409 21.789 31.9258 22.2338 32.2888 22.808C32.6555 23.3783 32.8407 24.0456 32.8444 24.8099H29.8884Z" fill="#595959"/>
</svg>
