<svg width="112" height="32" viewBox="0 0 112 32" fill="none" xmlns="http://www.w3.org/2000/svg">
<path d="M102.477 11.1628C102.205 11.1628 101.942 11.2189 101.708 11.3509L94.3224 15.6161C93.8445 15.8914 93.554 16.4116 93.554 16.9648V25.4799C93.554 26.0329 93.8445 26.5522 94.3224 26.8284L96.2513 27.9399C97.1884 28.4019 97.5341 28.3945 97.9606 28.3945C99.3481 28.3945 100.14 27.5526 100.14 26.0893V17.6886C100.14 17.5698 100.037 17.4848 99.9206 17.4848H98.9954C98.8769 17.4848 98.7759 17.572 98.7759 17.6886V26.0937C98.7759 26.7423 98.1003 27.3948 97.004 26.8465L94.9989 25.6704C94.9281 25.6318 94.8734 25.5614 94.8734 25.4823V16.9672C94.8734 16.8865 94.9275 16.8042 94.9989 16.7634L102.369 12.5135C102.438 12.4738 102.52 12.4738 102.589 12.5135L109.959 16.7634C110.029 16.8055 110.085 16.8839 110.085 16.9672V25.4823C110.085 25.5636 110.044 25.6469 109.975 25.6861L102.589 29.9361C102.524 29.9738 102.436 29.9738 102.369 29.9361L100.472 28.8071C100.415 28.774 100.338 28.7766 100.284 28.8071C99.7602 29.1039 99.6617 29.1384 99.1706 29.3088C99.0497 29.3509 98.8655 29.4165 99.2334 29.6226L101.711 31.0829C101.947 31.2193 102.21 31.2867 102.479 31.2867C102.753 31.2867 103.012 31.2213 103.248 31.0829L110.634 26.8329C111.112 26.5548 111.402 26.0374 111.402 25.4845V16.9694C111.402 16.4162 111.112 15.8971 110.634 15.6207L103.248 11.3555C103.017 11.2234 102.751 11.1674 102.479 11.1674L102.477 11.1628ZM104.453 17.2475C102.349 17.2475 101.097 18.1426 101.097 19.6309C101.097 21.2437 102.34 21.6892 104.359 21.8888C106.773 22.1253 106.962 22.4799 106.962 22.9552C106.962 23.7797 106.304 24.1313 104.751 24.1313C102.799 24.1313 102.37 23.644 102.226 22.671C102.209 22.5669 102.129 22.483 102.022 22.483H101.063C101.005 22.4842 100.95 22.5078 100.91 22.5487C100.869 22.5895 100.845 22.6446 100.844 22.7024C100.844 23.9454 101.52 25.4152 104.749 25.4152C107.086 25.4152 108.434 24.4998 108.434 22.8905C108.434 21.2995 107.345 20.8695 105.078 20.5694C102.789 20.2643 102.569 20.1182 102.569 19.5814C102.569 19.1386 102.754 18.5462 104.451 18.5462C105.966 18.5462 106.526 18.8731 106.756 19.8948C106.776 19.9907 106.86 20.0692 106.96 20.0692H107.919C107.977 20.0692 108.035 20.033 108.075 19.9907C108.116 19.9456 108.144 19.8948 108.138 19.8338C107.99 18.0741 106.817 17.2464 104.453 17.2464L104.453 17.2475Z" fill="#CCCCCC"/>
<path d="M59.0553 0.000285044C58.9728 0.000433997 58.8917 0.0220667 58.8201 0.0630535C58.7489 0.10474 58.6897 0.164268 58.6485 0.235772C58.6073 0.307276 58.5854 0.388289 58.585 0.47083V12.467C58.585 12.5847 58.53 12.6902 58.428 12.7493C58.3781 12.7784 58.3212 12.7937 58.2634 12.7937C58.2055 12.7937 58.1487 12.7784 58.0987 12.7493L56.1385 11.6203C55.9956 11.5376 55.8333 11.494 55.6681 11.494C55.5029 11.494 55.3406 11.5376 55.1977 11.6203L47.373 16.1364C47.0805 16.305 46.9022 16.6298 46.9022 16.9674V25.9997C46.902 26.165 46.9453 26.3274 47.028 26.4706C47.1106 26.6137 47.2295 26.7326 47.3727 26.8151L55.1977 31.3313C55.3406 31.4143 55.5029 31.458 55.6681 31.458C55.8333 31.458 55.9956 31.4143 56.1385 31.3313L63.9634 26.8151C64.1067 26.7326 64.2256 26.6137 64.3082 26.4706C64.3908 26.3274 64.4342 26.165 64.434 25.9997V3.48154C64.434 3.13893 64.247 2.81746 63.948 2.65051L59.2907 0.0471434C59.2175 0.00638753 59.1364 -0.00058674 59.0553 0.000285044ZM8.7185 11.2751C8.5692 11.2812 8.42906 11.3071 8.29503 11.3849L0.470331 15.901C0.326991 15.9833 0.207983 16.1021 0.125381 16.2453C0.0427798 16.3885 -0.000475572 16.551 3.94383e-06 16.7163L0.015914 28.8382C0.015914 29.0069 0.103092 29.1634 0.251296 29.2458C0.396666 29.333 0.576907 29.333 0.721623 29.2458L5.36322 26.5799C5.65745 26.4055 5.84924 26.1013 5.84924 25.7648V20.1036C5.84924 19.7658 6.02686 19.4563 6.32 19.2885L8.2959 18.1439C8.43868 18.0608 8.60106 18.0175 8.76623 18.0183C8.93148 18.0173 9.09397 18.0607 9.23677 18.1439L11.2118 19.2879C11.5045 19.4557 11.6821 19.7656 11.6821 20.103V25.7639C11.6821 26.1008 11.8783 26.4068 12.1681 26.579L16.8097 29.2449C16.9558 29.3321 17.1356 29.3321 17.2801 29.2449C17.4239 29.1621 17.5155 29.0058 17.5155 28.8374L17.5311 16.7159C17.5321 16.5505 17.489 16.3878 17.4064 16.2445C17.3237 16.1013 17.2045 15.9825 17.0608 15.9005L9.23612 11.3847C9.10383 11.3071 8.96303 11.281 8.81265 11.2748H8.71893L8.7185 11.2751ZM79.0331 11.3849C78.8679 11.3845 78.7056 11.4278 78.5626 11.5104L70.7376 16.0267C70.4456 16.1956 70.2669 16.5045 70.2669 16.8418V25.8742C70.2669 26.2137 70.4582 26.5215 70.7529 26.6893L78.515 31.1136C78.8016 31.2771 79.1514 31.2895 79.4402 31.1289L84.1446 28.51C84.2939 28.4272 84.3948 28.2725 84.3952 28.1025C84.3957 27.9325 84.3074 27.7795 84.1598 27.6949L76.2876 23.1786C76.1403 23.0945 76.037 22.9243 76.037 22.7552V19.9308C76.037 19.7621 76.1416 19.6074 76.2876 19.5232L78.7339 18.1118C78.8794 18.0277 79.0582 18.0277 79.2046 18.1118L81.6519 19.5232C81.7236 19.5644 81.7831 19.6238 81.8244 19.6954C81.8657 19.7669 81.8873 19.8482 81.8871 19.9308V22.1575C81.8869 22.2402 81.9085 22.3214 81.9498 22.393C81.9911 22.4646 82.0506 22.5239 82.1223 22.5651C82.2689 22.6497 82.4466 22.6501 82.593 22.5651L87.2815 19.8371C87.5724 19.6679 87.7522 19.3582 87.7522 19.022V16.8425C87.7523 16.6773 87.7088 16.5149 87.6262 16.3718C87.5436 16.2287 87.4248 16.1098 87.2817 16.0272L79.5039 11.5109C79.3609 11.4281 79.1985 11.3848 79.0333 11.3853L79.0331 11.3849ZM55.6366 18.1282C55.6804 18.128 55.7235 18.1387 55.7621 18.1593L58.4435 19.7118C58.5163 19.7538 58.5691 19.8316 58.5691 19.9155V23.0204C58.5691 23.1047 58.5168 23.1823 58.4435 23.2242L55.7621 24.7766C55.6891 24.818 55.6 24.818 55.5268 24.7766L52.8454 23.2242C52.7724 23.1821 52.7198 23.1043 52.7198 23.0204V19.9151C52.7198 19.831 52.7726 19.7538 52.8454 19.7113L55.5268 18.1591C55.5634 18.138 55.5956 18.1282 55.6366 18.1282Z" fill="#7E7E7E"/>
<path d="M32.2248 11.3376C32.0595 11.3373 31.8971 11.3806 31.754 11.4632L23.9291 15.9637C23.6366 16.1324 23.4587 16.4574 23.4587 16.7948V25.8271C23.4583 25.9924 23.5016 26.1548 23.5842 26.298C23.6668 26.4411 23.7858 26.5599 23.9291 26.6422L31.754 31.1585C31.8969 31.2415 32.0592 31.2851 32.2244 31.2851C32.3897 31.2851 32.552 31.2415 32.6949 31.1585L40.5198 26.6422C40.663 26.5597 40.7819 26.4409 40.8646 26.2978C40.9472 26.1546 40.9906 25.9922 40.9903 25.8269V16.7946C40.9903 16.4567 40.8125 16.132 40.5196 15.9635L32.6946 11.4629C32.5517 11.38 32.3892 11.3367 32.2239 11.3374L32.2248 11.3376ZM79.0178 19.3979C78.9866 19.3979 78.9519 19.3979 78.9236 19.4132L77.4183 20.2915C77.3902 20.3071 77.3667 20.3298 77.3502 20.3573C77.3337 20.3848 77.3247 20.4161 77.3241 20.4482V22.1733C77.3241 22.2382 77.3618 22.2975 77.4183 22.3302L78.9236 23.1926C78.9495 23.2086 78.9793 23.2171 79.0097 23.2171C79.0401 23.2171 79.0699 23.2086 79.0958 23.1926L80.6011 22.3302C80.6569 22.2981 80.6953 22.2382 80.6953 22.1733V20.4482C80.6953 20.3833 80.6571 20.324 80.6011 20.2913L79.0958 19.413C79.0679 19.3964 79.0487 19.3977 79.0173 19.3977L79.0178 19.3979Z" fill="#CCCCCC"/>
</svg>
