<svg width="110" height="19" viewBox="0 0 110 19" fill="none" xmlns="http://www.w3.org/2000/svg">
<path d="M43.715 5.54427C43.7893 5.62169 43.8473 5.71319 43.8857 5.81338C43.924 5.91357 43.942 6.02042 43.9384 6.12764V17.3424C43.9415 17.4613 43.921 17.5796 43.8782 17.6905C43.8353 17.8015 43.771 17.9028 43.6887 17.9888C43.6067 18.0749 43.5074 18.1428 43.3974 18.1881C43.2874 18.2333 43.1691 18.255 43.0502 18.2516C42.9155 18.2518 42.7815 18.2305 42.6535 18.1885C42.5361 18.1524 42.4308 18.0852 42.3485 17.994L35.0832 8.53452V17.4396C35.0896 17.6486 35.0127 17.8515 34.8694 18.0038C34.7262 18.1561 34.5283 18.2452 34.3193 18.2516C34.3033 18.2521 34.2873 18.2521 34.2713 18.2516C34.1649 18.2557 34.0588 18.2372 33.9601 18.1973C33.8614 18.1574 33.7722 18.0971 33.6984 18.0203C33.625 17.943 33.5676 17.8518 33.5297 17.7521C33.4919 17.6524 33.4742 17.5462 33.4777 17.4396V6.20117C33.475 6.08276 33.497 5.96508 33.5422 5.85561C33.5875 5.74614 33.655 5.64728 33.7405 5.56531C33.8205 5.48321 33.9167 5.41862 34.023 5.37565C34.1293 5.33268 34.2434 5.31225 34.358 5.31566C34.5038 5.31497 34.6484 5.34265 34.7837 5.39715C34.9068 5.44477 35.0148 5.52462 35.0964 5.62835L42.3303 15.1089V6.12764C42.3271 6.02416 42.3444 5.92107 42.3811 5.82426C42.4178 5.72744 42.4732 5.63881 42.5441 5.56341C42.615 5.48801 42.7001 5.42732 42.7945 5.38481C42.8889 5.3423 42.9908 5.31881 43.0943 5.31566C43.1103 5.31521 43.1263 5.31521 43.1423 5.31566C43.2485 5.31175 43.3542 5.33007 43.4529 5.36944C43.5515 5.4088 43.6408 5.46835 43.715 5.54427ZM58.64 5.54427C58.7972 5.71895 58.8801 5.94797 58.8713 6.18278V13.2775C58.8863 14.1945 58.6636 15.0997 58.2249 15.9051C57.8094 16.6649 57.1919 17.2951 56.4407 17.726C55.6623 18.1727 54.7786 18.4031 53.8813 18.3935C52.9759 18.4077 52.0829 18.182 51.2931 17.7392C50.5385 17.31 49.918 16.6796 49.501 15.9182C49.0622 15.1129 48.8395 14.2076 48.8546 13.2906V6.19593C48.8512 6.07702 48.8728 5.95873 48.9181 5.84873C48.9634 5.73874 49.0313 5.63948 49.1174 5.55741C49.2051 5.47158 49.3092 5.40412 49.4233 5.359C49.5375 5.31389 49.6595 5.29201 49.7822 5.29467C49.8979 5.29477 50.0123 5.31808 50.1188 5.36321C50.2253 5.40834 50.3216 5.47438 50.4021 5.55741C50.4873 5.63799 50.5546 5.73549 50.5999 5.84364C50.6452 5.95179 50.6673 6.06821 50.6649 6.18543V13.2801C50.6554 13.8857 50.8088 14.4829 51.109 15.009C51.3871 15.4993 51.7901 15.9071 52.277 16.191C52.764 16.4748 53.3175 16.6246 53.8811 16.625C54.4572 16.6291 55.0243 16.4824 55.5261 16.1994C56.0322 15.9196 56.4535 15.5084 56.7452 15.009C57.0503 14.4845 57.2065 13.8868 57.1972 13.2801V6.18543C57.1887 5.95252 57.2674 5.72483 57.4179 5.54691C57.4946 5.46108 57.5892 5.39307 57.6949 5.34768C57.8007 5.30229 57.9151 5.28061 58.0302 5.28417C58.1444 5.28151 58.258 5.30333 58.3631 5.34816C58.4683 5.393 58.5628 5.45996 58.64 5.54427ZM72.8635 16.9218C72.9743 17.0743 73.0324 17.2588 73.029 17.4474C73.0338 17.5649 73.0128 17.682 72.9674 17.7905C72.922 17.8991 72.8533 17.9963 72.7663 18.0754C72.6036 18.2291 72.3883 18.3147 72.1645 18.3145C72.0231 18.3198 71.8827 18.2888 71.7566 18.2244C71.6306 18.16 71.5232 18.0643 71.4447 17.9466L67.8527 13.1512L64.3422 17.9387C64.2644 18.0585 64.1576 18.1566 64.0318 18.2242C63.906 18.2917 63.7651 18.3264 63.6223 18.325C63.5173 18.3273 63.413 18.3079 63.3158 18.2682C63.2186 18.2284 63.1307 18.169 63.0574 18.0938C62.9848 18.0268 62.9268 17.9456 62.887 17.8551C62.8472 17.7647 62.8265 17.667 62.8262 17.5682C62.8303 17.3457 62.9089 17.1311 63.0496 16.9586L66.8388 11.8006L63.0313 6.68192C62.9125 6.53236 62.8468 6.34743 62.8448 6.15638C62.8424 6.03917 62.8645 5.92275 62.9097 5.81459C62.955 5.70644 63.0224 5.60894 63.1075 5.52837C63.188 5.44535 63.2844 5.37933 63.3908 5.3342C63.4973 5.28907 63.6118 5.26575 63.7274 5.26562C63.8652 5.26631 64.0009 5.29867 64.1242 5.3602C64.2544 5.42196 64.3659 5.51716 64.4474 5.6361L67.9973 10.4051L71.5131 5.68319C71.5896 5.56476 71.6931 5.46612 71.815 5.39534C71.937 5.32455 72.0739 5.28363 72.2147 5.27592C72.3249 5.27651 72.4338 5.3002 72.5342 5.34546C72.6347 5.39071 72.7246 5.45653 72.798 5.53867C72.8779 5.61004 72.9424 5.69693 72.9876 5.79405C73.0328 5.89117 73.0577 5.99648 73.0608 6.10354C73.0546 6.29338 72.9904 6.47677 72.8769 6.62903L69.0192 11.7639L72.8635 16.9218ZM86.1988 5.54427C86.2847 5.6226 86.3526 5.71857 86.398 5.82561C86.4433 5.93266 86.465 6.04823 86.4615 6.16443C86.4647 6.27903 86.4428 6.39295 86.3975 6.49823C86.3521 6.60351 86.2843 6.69762 86.1988 6.774C86.0209 6.92457 85.7932 7.00329 85.5603 6.99475H82.2705V17.3662C82.2727 17.4834 82.2505 17.5998 82.2052 17.7079C82.16 17.816 82.0927 17.9135 82.0077 17.9942C81.8218 18.16 81.5814 18.2517 81.3324 18.2517C81.0833 18.2517 80.8429 18.16 80.6571 17.9942C80.5724 17.9132 80.5054 17.8157 80.4602 17.7076C80.415 17.5996 80.3926 17.4833 80.3943 17.3662V6.99475H77.1124C76.8788 7.00361 76.6509 6.92168 76.4765 6.76615C76.393 6.68667 76.3275 6.59022 76.2845 6.48329C76.2414 6.37636 76.2218 6.26145 76.2269 6.14629C76.2232 6.03398 76.2435 5.92219 76.2866 5.8184C76.3297 5.71461 76.3944 5.62123 76.4765 5.54452C76.6509 5.38899 76.8788 5.30706 77.1124 5.31591H85.5602C85.7944 5.3074 86.023 5.38914 86.1988 5.54427Z" fill="#7E7E7E"/>
<path d="M90.2453 17.9206C89.647 17.5818 89.1492 17.0904 88.8027 16.4965C88.7 16.3497 88.6416 16.1764 88.6345 15.9973C88.6344 15.8828 88.6593 15.7696 88.7074 15.6657C88.7555 15.5617 88.8257 15.4696 88.9131 15.3955C89.0635 15.2381 89.2684 15.1441 89.4859 15.1328C89.6492 15.148 89.8075 15.197 89.9509 15.2766C90.0943 15.3562 90.2196 15.4647 90.3189 15.5952C90.5207 15.9274 90.8058 16.201 91.1459 16.389C91.4861 16.5771 91.8694 16.673 92.258 16.6673C92.5757 16.6747 92.8916 16.6181 93.1868 16.5007C93.4821 16.3833 93.7507 16.2076 93.9765 15.9841C94.2044 15.7682 94.3847 15.5071 94.506 15.2175C94.6272 14.928 94.6867 14.6163 94.6807 14.3024V6.20128C94.6793 6.083 94.7032 5.96578 94.7508 5.85747C94.7984 5.74917 94.8685 5.65229 94.9566 5.57331C95.1289 5.40371 95.3613 5.30922 95.603 5.31052C95.7238 5.30464 95.8445 5.32378 95.9576 5.36673C96.0706 5.40969 96.1735 5.47555 96.2599 5.56017C96.3425 5.64365 96.4073 5.74308 96.4502 5.85241C96.4931 5.96173 96.5133 6.07865 96.5096 6.19603V14.3155C96.5165 15.0432 96.3248 15.7591 95.9551 16.386C95.5888 17.0108 95.0628 17.5269 94.4311 17.8812C93.7689 18.2561 93.019 18.4484 92.258 18.4383C91.5533 18.4457 90.859 18.2671 90.2453 17.9206ZM102.953 18.0572C102.22 17.7792 101.548 17.3626 100.974 16.8301C100.857 16.7404 100.762 16.6256 100.695 16.4942C100.628 16.3628 100.591 16.2181 100.588 16.0707C100.589 15.9583 100.613 15.8474 100.658 15.7445C100.703 15.6416 100.769 15.5488 100.85 15.4716C100.928 15.3879 101.023 15.3212 101.128 15.276C101.233 15.2308 101.346 15.2079 101.46 15.2088C101.655 15.2062 101.843 15.2787 101.986 15.4112C102.429 15.8349 102.946 16.1758 103.51 16.4176C104.077 16.6432 104.683 16.7539 105.294 16.7434C105.989 16.7654 106.675 16.5777 107.262 16.2047C107.502 16.0698 107.703 15.8744 107.844 15.6379C107.985 15.4014 108.061 15.1321 108.066 14.8568C108.07 14.5608 107.999 14.2686 107.858 14.0081C107.717 13.7477 107.512 13.5278 107.262 13.3695C106.524 12.9361 105.714 12.6389 104.871 12.4919C103.801 12.3205 102.793 11.8812 101.938 11.2149C101.594 10.9085 101.323 10.5286 101.146 10.1033C100.969 9.67795 100.889 9.21816 100.914 8.75798C100.899 8.07118 101.102 7.39728 101.492 6.83194C101.889 6.27078 102.435 5.83202 103.068 5.56542C103.793 5.25974 104.573 5.1085 105.36 5.12136C106.097 5.11667 106.829 5.24208 107.522 5.49183C108.134 5.69815 108.694 6.03226 109.167 6.47197C109.292 6.56388 109.394 6.6822 109.468 6.81847C109.542 6.95475 109.584 7.10561 109.593 7.26025C109.593 7.37048 109.57 7.47958 109.528 7.58112C109.485 7.68266 109.422 7.77459 109.343 7.85147C109.267 7.93594 109.175 8.00314 109.071 8.04848C108.967 8.09382 108.854 8.11624 108.741 8.11422C108.586 8.12011 108.435 8.06645 108.318 7.96425C107.935 7.60467 107.481 7.32825 106.986 7.15233C106.473 6.94548 105.926 6.83674 105.373 6.83174C104.68 6.79617 103.993 6.97415 103.404 7.34163C103.18 7.49069 102.995 7.69311 102.867 7.93085C102.74 8.16858 102.673 8.43423 102.673 8.70407C102.673 8.97391 102.74 9.23955 102.867 9.47729C102.995 9.71502 103.18 9.91745 103.404 10.0665C104.077 10.4591 104.812 10.7346 105.578 10.8813C106.39 11.0413 107.183 11.2889 107.942 11.6197C108.515 11.8731 109.005 12.2829 109.356 12.8022C109.711 13.399 109.884 14.0869 109.853 14.7807C109.863 15.4628 109.653 16.13 109.254 16.6832C108.834 17.2536 108.268 17.7009 107.617 17.9786C106.9 18.2921 106.125 18.4497 105.344 18.4411C104.53 18.4561 103.72 18.3261 102.953 18.0572Z" fill="#CCCCCC" fill-opacity="0.8"/>
<path d="M7.66638 18.0992C7.64766 18.0661 7.63096 18.0319 7.61639 17.9967C7.51561 17.7636 7.48458 17.5062 7.52706 17.2557H1.56499L10.4254 1.66329L13.3342 6.77669L14.1777 5.28421L11.642 0.817174C11.5205 0.588363 11.3435 0.393676 11.1273 0.250919C10.9111 0.108163 10.6626 0.0218927 10.4044 0C10.1468 0.0117922 9.89776 0.0956159 9.68547 0.24194C9.47319 0.388264 9.30622 0.591217 9.20355 0.827722L0.227531 16.6093C0.093338 16.8322 0.0159647 17.0846 0.00221826 17.3443C-0.0115282 17.6041 0.0387736 17.8633 0.148698 18.099C0.286772 18.3167 0.482996 18.4914 0.715176 18.6033C0.947357 18.7152 1.20623 18.76 1.46252 18.7325H8.9802C8.72389 18.7604 8.46488 18.7159 8.23262 18.604C8.00036 18.492 7.80418 18.3171 7.66638 18.0992Z" fill="#CCCCCC"/>
<path d="M24.9511 16.6092L17.5753 3.61551C17.4543 3.38426 17.277 3.18722 17.0598 3.04256C16.8426 2.8979 16.5924 2.8103 16.3324 2.78784C16.075 2.79894 15.826 2.88218 15.6136 3.02808C15.4013 3.17397 15.2342 3.37663 15.1316 3.61291L14.1777 5.28411L15.0265 6.77658L16.3401 4.45113L23.6373 17.2556H20.8624C20.898 17.4673 20.8781 17.6846 20.8047 17.8862C20.7892 17.9308 20.7699 17.9739 20.7468 18.015L20.7232 18.0623C20.5724 18.2752 20.3715 18.4477 20.1382 18.5645C19.905 18.6814 19.6465 18.7389 19.3857 18.7322H23.7266C23.9874 18.7392 24.246 18.6817 24.4793 18.5649C24.7126 18.448 24.9134 18.2754 25.064 18.0623C25.1829 17.8338 25.2354 17.5765 25.2154 17.3196C25.1954 17.0628 25.1038 16.8167 24.9511 16.6092Z" fill="#A2A2A2"/>
<path d="M20.7232 18.0624L20.7468 18.0151C20.7699 17.974 20.7892 17.9309 20.8047 17.8863C20.8781 17.6846 20.898 17.4674 20.8625 17.2557C20.8216 17.0274 20.7397 16.8084 20.6207 16.6093L15.0319 6.77666L14.1779 5.28418L13.3292 6.77666L7.74283 16.6095C7.6344 16.811 7.56151 17.0297 7.52738 17.256C7.48243 17.5056 7.51073 17.763 7.60886 17.9969C7.6234 18.0321 7.6401 18.0663 7.65885 18.0994C7.79696 18.317 7.9932 18.4917 8.22539 18.6036C8.45758 18.7155 8.71644 18.7602 8.97272 18.7327H19.3779C19.64 18.7404 19.8999 18.6832 20.1346 18.5663C20.3693 18.4494 20.5715 18.2763 20.7232 18.0624ZM14.1777 8.26914L19.2859 17.2557H9.07224L14.1777 8.26914Z" fill="#595959"/>
</svg>
