<svg width="96" height="30" viewBox="0 0 96 30" fill="none" xmlns="http://www.w3.org/2000/svg">
<path d="M29.5132 8.17908C29.5114 7.8821 29.5082 7.58527 29.5 7.28794C29.4827 6.64118 29.4444 5.98854 29.3295 5.34869C29.213 4.69889 29.0224 4.09469 28.722 3.50441C28.4272 2.92471 28.0417 2.39424 27.5819 1.93423C27.1222 1.47422 26.592 1.08863 26.0124 0.793491C25.4228 0.493328 24.8188 0.302699 24.1699 0.186054C23.5301 0.0707524 22.8777 0.0327659 22.2308 0.0152642C21.9338 0.00720948 21.637 0.00382848 21.3401 0.00198882C20.9876 0 20.6349 0 20.2826 0H12.4695H9.2327C8.88 0 8.5277 0 8.17535 0.00203854C7.87832 0.0038782 7.58123 0.0072592 7.28464 0.0153139C7.12293 0.0196893 6.96087 0.0253575 6.79871 0.0331636C6.31228 0.0566317 5.8251 0.09964 5.34543 0.186104C4.85875 0.273612 4.39727 0.402687 3.94831 0.588393C3.79868 0.650246 3.65038 0.718462 3.50298 0.793491C3.06824 1.01485 2.66122 1.28707 2.29103 1.60339C2.16763 1.70885 2.04831 1.81918 1.93341 1.93418C1.47352 2.39419 1.08808 2.92466 0.793226 3.50436C0.49286 4.09464 0.302522 4.69884 0.185834 5.34864C0.0710353 5.9885 0.0328684 6.64113 0.0154746 7.28789C0.00732434 7.58522 0.00389527 7.88205 0.00195711 8.17904C-0.000279239 8.53175 1.89399e-05 8.88452 1.89399e-05 9.23714V14.051V20.2922C1.89399e-05 20.6452 -0.000328936 20.9976 0.00195711 21.3506C0.00389527 21.6475 0.00732434 21.9444 0.0154746 22.2412C0.0328684 22.8883 0.0709857 23.5411 0.185834 24.1807C0.302522 24.8303 0.49286 25.435 0.793226 26.0251C1.08808 26.605 1.47352 27.1353 1.93341 27.5951C2.39296 28.0553 2.92332 28.4409 3.50303 28.7362C4.09258 29.0364 4.69654 29.2268 5.34558 29.3434C5.98508 29.4586 6.63789 29.4969 7.28469 29.5142C7.58128 29.5221 7.87837 29.5256 8.1754 29.5273C8.52775 29.5298 8.88005 29.5295 9.23275 29.5295H20.2826C20.6349 29.5295 20.9876 29.5298 21.34 29.5273C21.637 29.5256 21.9337 29.5221 22.2307 29.5142C22.8777 29.4969 23.53 29.4585 24.1699 29.3434C24.8188 29.2268 25.4228 29.0364 26.0123 28.7362C26.592 28.4409 27.1222 28.0553 27.5819 27.5951C28.0417 27.1353 28.4272 26.605 28.722 26.0251C29.0223 25.435 29.2129 24.8303 29.3295 24.1807C29.4444 23.5411 29.4826 22.8883 29.4999 22.2412C29.5081 21.9444 29.5113 21.6476 29.5131 21.3506C29.5154 20.9976 29.5152 20.6452 29.5152 20.2922V9.23714C29.5153 8.88452 29.5154 8.53175 29.5132 8.17908Z" fill="#CCCCCC"/>
<path d="M23.3875 18.2278C23.3868 18.2269 23.3862 18.2263 23.3854 18.2254C23.4181 18.1143 23.4517 18.0038 23.4803 17.8898C24.7053 13.0068 21.7156 7.23376 16.6562 4.19409C18.8733 7.20114 19.8536 10.8434 18.9826 14.0286C18.905 14.3127 18.8116 14.5853 18.7084 14.8504C18.5963 14.7767 18.4552 14.6931 18.2657 14.5886C18.2657 14.5886 13.2329 11.4797 7.77829 5.98085C7.63517 5.83651 10.6869 10.3448 14.1503 14.0057C12.5186 13.0895 7.97117 9.77925 5.09234 7.14312C5.44603 7.73325 5.86672 8.30151 6.32914 8.84858C8.73321 11.8989 11.8684 15.6625 15.6245 18.5525C12.9855 20.1683 9.25637 20.294 5.54349 18.5542C4.62515 18.1236 3.76182 17.6041 2.96265 17.0138C4.5343 19.5289 6.95487 21.6989 9.90093 22.9657C13.4142 24.4763 16.908 24.3739 19.5101 22.9905L19.508 22.9935C19.5199 22.986 19.535 22.9778 19.5473 22.9702C19.6542 22.9127 19.7602 22.8542 19.864 22.7924C21.1142 22.1431 23.5836 21.4844 24.9091 24.0646C25.2337 24.6961 25.9235 21.3497 23.3875 18.2278Z" fill="#595959"/>
<path d="M40.7167 19.1634C40.9473 21.2121 42.9002 22.5552 45.6125 22.5552C48.1894 22.5552 50.0473 21.2121 50.0473 19.3536C50.0473 17.7524 48.9218 16.7751 46.3312 16.1241L43.8224 15.4864C40.2149 14.5908 38.5873 12.9624 38.5873 10.2761C38.5873 6.96543 41.476 4.67212 45.5855 4.67212C49.5725 4.67212 52.407 6.97876 52.5021 10.3033H49.8576C49.6539 8.26801 47.9994 7.01933 45.5177 7.01933C43.0627 7.01933 41.354 8.28134 41.354 10.1265C41.354 11.5647 42.4121 12.4198 45.016 13.0847L47.1045 13.6273C51.1459 14.6181 52.8004 16.1919 52.8004 19.0278C52.8004 22.6371 49.9387 24.9031 45.3818 24.9031C41.1506 24.9031 38.2619 22.6504 38.0449 19.1635L40.7167 19.1634Z" fill="#CCCCCC"/>
<path d="M69.5994 24.5772H66.941L63.8353 13.7495H63.7811L60.6891 24.5772H58.031L54.0979 10.3977H56.6746L59.414 21.7819H59.4685L62.5606 10.3977H65.0558L68.1752 21.7819H68.2296L70.9691 10.3977H73.5186L69.5994 24.5772Z" fill="#CCCCCC"/>
<path d="M75.2351 6.58494C75.2351 5.73049 75.9406 5.03833 76.7949 5.03833C77.6629 5.03833 78.3681 5.73049 78.3681 6.58494C78.3681 7.43998 77.6629 8.14552 76.7949 8.14552C75.9406 8.14552 75.2351 7.44003 75.2351 6.58494ZM75.5066 10.3977H78.0968V24.5771H75.5066V10.3977Z" fill="#CCCCCC"/>
<path d="M95.0127 12.4877V10.3978H92.2731V7.00603H89.6962V10.3978H87.594H84.7447V9.14973C84.758 7.88773 85.2464 7.35845 86.4129 7.35845C86.7923 7.35845 87.1722 7.39962 87.4842 7.45352V5.41821C87.023 5.35039 86.6026 5.30981 86.1145 5.30981C83.3477 5.30981 82.1814 6.46343 82.1814 9.10916V10.3978H80.2015V12.4877H82.1814V24.5773H84.7581V12.4877H87.5941H89.6962V20.8597C89.6962 23.6005 90.7406 24.6584 93.4529 24.6584C94.0361 24.6584 94.7007 24.6179 94.9991 24.55V22.4336C94.8227 22.4608 94.3072 22.5014 94.0225 22.5014C92.8156 22.5014 92.2732 21.9315 92.2732 20.6562V12.4877H95.0127Z" fill="#CCCCCC"/>
</svg>
