<svg width="103" height="21" viewBox="0 0 103 21" fill="none" xmlns="http://www.w3.org/2000/svg">
<path fill-rule="evenodd" clip-rule="evenodd" d="M8.736 6.99C9.9 2.33 12.813 0 17.472 0C24.462 0 25.334 5.24 28.828 6.115C31.158 6.698 33.196 5.825 34.943 3.495C33.779 8.154 30.866 10.484 26.208 10.484C19.218 10.484 18.346 5.244 14.852 4.369C12.522 3.786 10.484 4.659 8.737 6.989L8.736 6.99ZM0 17.474C1.166 12.814 4.076 10.484 8.736 10.484C15.726 10.484 16.598 15.724 20.092 16.599C22.422 17.182 24.46 16.309 26.207 13.979C25.043 18.639 22.13 20.969 17.471 20.969C10.481 20.969 9.609 15.729 6.115 14.854C3.785 14.271 1.747 15.144 0 17.474Z" fill="url(#paint0_linear_838_361)"/>
<path fill-rule="evenodd" clip-rule="evenodd" d="M41.3031 8.06212H39.0161V6.69212H45.1861V8.06212H42.9001V14.2761H41.3031V8.06212ZM48.1731 13.5751C47.9615 13.8162 47.7114 14.0206 47.4331 14.1801C47.1611 14.3361 46.8081 14.4141 46.3751 14.4141C46.1361 14.4153 45.8981 14.383 45.6681 14.3181C45.4441 14.2541 45.2481 14.1551 45.0821 14.0211C44.9161 13.8871 44.7821 13.7161 44.6841 13.5061C44.5861 13.2961 44.5341 13.0481 44.5341 12.7561C44.5341 12.3741 44.6191 12.0621 44.7901 11.8211C44.9615 11.5791 45.1922 11.3853 45.4601 11.2581C45.7361 11.1231 46.0461 11.0281 46.3901 10.9711C46.7372 10.914 47.0876 10.8786 47.4391 10.8651L48.1511 10.8331V10.5571C48.1511 10.2171 48.0581 9.98312 47.8691 9.85712C47.6801 9.73112 47.4591 9.66712 47.2051 9.66712C46.6151 9.66712 46.2791 9.89012 46.1951 10.3371L44.8351 10.2101C44.9331 9.63012 45.1891 9.21012 45.6001 8.95012C46.0111 8.69012 46.5651 8.56212 47.2601 8.56212C47.6851 8.56212 48.0471 8.61212 48.3451 8.71612C48.6431 8.82012 48.8831 8.96612 49.0631 9.15612C49.2476 9.35371 49.3826 9.59223 49.4571 9.85212C49.5391 10.1241 49.5791 10.4321 49.5791 10.7721V14.2771H48.1731V13.5771V13.5751ZM48.1411 11.8011L47.4811 11.8331C47.1691 11.8461 46.9171 11.8791 46.7261 11.9291C46.5351 11.9791 46.3861 12.0411 46.2861 12.1151C46.1861 12.1891 46.1131 12.2751 46.0791 12.3751C46.0451 12.4751 46.0261 12.5851 46.0261 12.7051C46.0261 12.8891 46.0901 13.0351 46.2161 13.1401C46.3421 13.2451 46.5211 13.3001 46.7461 13.3001C47.1301 13.3001 47.4421 13.2121 47.6821 13.0341C47.8171 12.9341 47.9281 12.8081 48.0121 12.6571C48.0961 12.5061 48.1391 12.3151 48.1391 12.0891V11.8021L48.1411 11.8011ZM50.7871 8.73112H52.2771V14.2751H50.7871V8.73112ZM50.7671 6.69112H52.2971V8.02912H50.7671V6.69112ZM53.5511 6.69112H55.0411V14.2751H53.5511V6.69112ZM55.7081 8.73112H57.3241L58.1011 12.4061L59.1631 8.78412H60.4611L61.4611 12.4171L62.2381 8.74212H63.7911L62.1741 14.2861H60.7271L59.7371 10.6321L58.7371 14.2861H57.3231L55.7071 8.74212L55.7081 8.73112ZM64.4681 8.73112H65.9581V14.2751H64.4681V8.73112ZM64.4481 6.69112H65.9781V8.02912H64.4481V6.69112ZM67.2221 8.73112H68.6691V9.49612C68.8891 9.17112 69.1491 8.93312 69.4491 8.78412C69.7491 8.63512 70.0641 8.56112 70.3891 8.56112C71.0211 8.56112 71.4891 8.72612 71.7941 9.05512C72.0991 9.38412 72.2521 9.90312 72.2521 10.6111V14.2751H70.7631V10.8141C70.7631 10.4141 70.6891 10.1591 70.5391 10.0171C70.3891 9.87512 70.1921 9.80512 69.9441 9.80512C69.7541 9.80512 69.5881 9.83512 69.4491 9.89012C69.3101 9.94512 69.1811 10.0281 69.0611 10.1341C68.9611 10.2341 68.8781 10.3521 68.8111 10.4901C68.7441 10.6309 68.7099 10.7852 68.7111 10.9411V14.2761H67.2111V8.73212L67.2221 8.73112ZM77.3021 13.5431C77.1155 13.8278 76.8593 14.0602 76.5578 14.2182C76.2563 14.3762 75.9194 14.4547 75.5791 14.4461C74.7991 14.4461 74.2191 14.1841 73.8341 13.6601C73.4491 13.1361 73.2601 12.4101 73.2601 11.4831C73.2557 11.0824 73.3116 10.6832 73.4261 10.2991C73.5361 9.94112 73.6931 9.63312 73.8991 9.37512C74.1013 9.11977 74.3597 8.91446 74.6541 8.77512C74.9541 8.63512 75.2891 8.56312 75.6641 8.56312C75.9401 8.56312 76.2141 8.61312 76.4871 8.71312C76.7601 8.81312 77.0171 9.01312 77.2591 9.28712V6.69512H78.7491V14.2791H77.3031V13.5461L77.3021 13.5431ZM77.2701 11.4401C77.2701 11.0861 77.2401 10.8031 77.1701 10.5901C77.1001 10.3771 77.0121 10.2051 76.8781 10.0701C76.7501 9.94312 76.6101 9.87012 76.4581 9.82012C76.3109 9.78158 76.1593 9.76209 76.0071 9.76212C75.8478 9.76141 75.69 9.79411 75.5441 9.85812C75.3981 9.92212 75.2721 10.0211 75.1611 10.1551C75.0501 10.2891 74.9641 10.4671 74.9011 10.6851C74.8381 10.9031 74.8051 11.1651 74.8051 11.4711C74.8051 11.8031 74.8351 12.0811 74.9051 12.3051C74.9751 12.5291 75.0481 12.7091 75.1551 12.8471C75.2621 12.9851 75.3851 13.0841 75.5271 13.1441C75.6691 13.2041 75.8221 13.2441 75.9851 13.2441C76.3391 13.2441 76.6301 13.1411 76.8571 12.9361C77.0003 12.7913 77.1076 12.6149 77.1701 12.4211C77.2361 12.2191 77.2701 11.9591 77.2701 11.6411V11.4511V11.4401ZM88.9121 11.6521C88.8761 12.0561 88.7821 12.4291 88.6301 12.7721C88.4825 13.1082 88.2693 13.4114 88.0031 13.6641C87.7209 13.9259 87.3876 14.1264 87.0241 14.2531C86.6381 14.3931 86.1901 14.4651 85.6791 14.4651C85.1051 14.4651 84.5991 14.3691 84.1631 14.1781C83.7408 13.9971 83.366 13.7209 83.0681 13.3711C82.7731 13.0241 82.5521 12.6041 82.4031 12.1111C82.2541 11.6181 82.1801 11.0751 82.1801 10.4811C82.1801 9.86512 82.2601 9.31312 82.4241 8.82412C82.5881 8.33512 82.8221 7.91812 83.1261 7.57112C83.4301 7.22412 83.8001 6.95812 84.2321 6.77412C84.6641 6.59012 85.1551 6.49812 85.7021 6.49812C86.1841 6.49812 86.6051 6.55812 86.9621 6.67812C87.3191 6.79812 87.6221 6.97212 87.8671 7.19812C88.1121 7.42412 88.3071 7.69812 88.4571 8.01612C88.613 8.35796 88.7236 8.71867 88.7861 9.08912L87.2111 9.29112C87.1331 8.84512 86.9811 8.49412 86.7611 8.23912C86.5411 7.98412 86.1831 7.85712 85.7011 7.85712C85.0911 7.85712 84.6281 8.08512 84.3141 8.54212C84.0001 8.99912 83.8391 9.64412 83.8391 10.4801C83.8391 11.3231 84.0091 11.9801 84.3451 12.4241C84.4972 12.6408 84.7007 12.8164 84.9374 12.935C85.1741 13.0537 85.4365 13.1118 85.7011 13.1041C86.1911 13.1041 86.5511 12.9781 86.7811 12.7271C87.0111 12.4761 87.1541 12.1171 87.2111 11.6491L88.9121 11.6521ZM91.2291 11.8021C91.2641 12.2691 91.4151 12.6091 91.6791 12.8221C91.9431 13.0351 92.3361 13.1421 92.8541 13.1421C93.1021 13.1421 93.3121 13.1151 93.4821 13.0621C93.6521 13.0091 93.7901 12.9381 93.8971 12.8501C93.9992 12.7675 94.0778 12.6596 94.1251 12.5371C94.1723 12.4115 94.1957 12.2783 94.1941 12.1441C94.1941 11.9441 94.1211 11.7591 93.9721 11.5861C93.8231 11.4131 93.5501 11.2861 93.1521 11.2091L92.1621 11.0291C91.7621 10.9591 91.4281 10.8661 91.1301 10.7531C90.8321 10.6401 90.5821 10.4931 90.3801 10.3131C90.1781 10.1331 90.0241 9.91112 89.9181 9.64912C89.8121 9.38712 89.7581 9.07512 89.7581 8.71412C89.7516 8.38242 89.8264 8.05418 89.9761 7.75812C90.1206 7.48337 90.3283 7.24688 90.5821 7.06812C90.8421 6.88412 91.1521 6.74412 91.5121 6.64812C91.8721 6.55212 92.2721 6.50512 92.7041 6.50512C93.2571 6.50512 93.7181 6.56912 94.0871 6.69512C94.4561 6.82112 94.7541 6.99012 94.9811 7.20012C95.2081 7.41012 95.3761 7.65012 95.4861 7.92812C95.5961 8.20612 95.6691 8.49112 95.7061 8.78812L94.2061 8.97812C94.1281 8.56012 93.9781 8.25812 93.7561 8.07512C93.5341 7.89212 93.1941 7.79912 92.7401 7.79912C92.4701 7.79912 92.2501 7.82212 92.0751 7.86912C91.9001 7.91612 91.7611 7.97512 91.6551 8.04912C91.5575 8.11298 91.4798 8.2031 91.4311 8.30912C91.3891 8.40912 91.3671 8.51112 91.3671 8.61712C91.3671 8.90012 91.4471 9.11312 91.6071 9.25412C91.7671 9.39512 92.0371 9.50612 92.4201 9.58412L93.4621 9.78612C94.2851 9.94912 94.8881 10.2131 95.2721 10.5761C95.6561 10.9391 95.8461 11.4761 95.8461 12.1531C95.8461 12.4851 95.7841 12.7931 95.6601 13.0731C95.533 13.356 95.3436 13.6066 95.1061 13.8061C94.8359 14.0294 94.5233 14.1957 94.1871 14.2951C93.8191 14.4121 93.3871 14.4701 92.8891 14.4701C91.8531 14.4701 91.0611 14.2501 90.5121 13.8061C89.9631 13.3621 89.6661 12.7061 89.6121 11.8041H91.2181L91.2291 11.8021ZM98.1291 11.8021C98.1641 12.2691 98.3151 12.6091 98.5791 12.8221C98.8431 13.0351 99.2391 13.1421 99.7541 13.1421C100.004 13.1421 100.212 13.1151 100.384 13.0621C100.556 13.0091 100.692 12.9381 100.799 12.8501C100.901 12.7675 100.98 12.6596 101.027 12.5371C101.074 12.4115 101.098 12.2783 101.096 12.1441C101.093 11.937 101.014 11.7383 100.873 11.5861C100.723 11.4131 100.451 11.2861 100.053 11.2091L99.0631 11.0291C98.6631 10.9591 98.3291 10.8661 98.0311 10.7531C97.7331 10.6401 97.4831 10.4931 97.2811 10.3131C97.0791 10.1331 96.9251 9.91112 96.8181 9.64912C96.7111 9.38712 96.6581 9.07512 96.6581 8.71412C96.6516 8.38242 96.7264 8.05418 96.8761 7.75812C97.0221 7.48212 97.2241 7.25112 97.4821 7.05812C97.7401 6.86512 98.0521 6.73412 98.4121 6.63812C98.7721 6.54212 99.1721 6.49512 99.6041 6.49512C100.157 6.49512 100.618 6.55912 100.987 6.68512C101.356 6.81112 101.653 6.98012 101.881 7.19012C102.109 7.40012 102.277 7.64012 102.386 7.91812C102.495 8.19612 102.569 8.48112 102.606 8.77812L101.106 8.96812C101.028 8.55012 100.878 8.24812 100.656 8.06512C100.434 7.88212 100.094 7.78912 99.6401 7.78912C99.3701 7.78912 99.1501 7.81212 98.9751 7.85912C98.8001 7.90612 98.6611 7.96512 98.5551 8.03912C98.4575 8.10298 98.3798 8.1931 98.3311 8.29912C98.2881 8.39912 98.2671 8.50112 98.2671 8.60712C98.2671 8.89012 98.3471 9.10312 98.5071 9.24412C98.6671 9.38512 98.9371 9.49612 99.3211 9.57412L100.373 9.78412C101.196 9.94712 101.799 10.2111 102.183 10.5741C102.567 10.9371 102.757 11.4741 102.757 12.1511C102.761 12.4671 102.697 12.7803 102.571 13.0701C102.444 13.3532 102.255 13.6038 102.017 13.8031C101.773 14.0131 101.467 14.1751 101.097 14.2931C100.727 14.4111 100.297 14.4681 99.8001 14.4681C98.7641 14.4681 97.9721 14.2481 97.4221 13.8041C96.8721 13.3601 96.5761 12.7041 96.5341 11.8021H98.1291Z" fill="#CCCCCC"/>
<defs>
<linearGradient id="paint0_linear_838_361" x1="-1.82469e-07" y1="-18.635" x2="34.943" y2="39.603" gradientUnits="userSpaceOnUse">
<stop stop-color="#595959"/>
<stop offset="1" stop-color="#A2A2A2"/>
</linearGradient>
</defs>
</svg>
