<svg width="37" height="37" viewBox="0 0 37 37" fill="none" xmlns="http://www.w3.org/2000/svg">
<path d="M32.5162 0H3.51906C1.57554 0 0 1.5763 0 3.52076V32.5319C0 34.4763 1.57554 36.0526 3.51906 36.0526H32.5162C34.4597 36.0526 36.0352 34.4763 36.0352 32.5319V3.52076C36.0352 1.5763 34.4597 0 32.5162 0Z" fill="#CCCCCC"/>
<path d="M13 24.4933V22.1467H22.2575V24.4933H19.0538V32.8743H16.2037V24.4933H13Z" fill="#595959"/>
<path d="M29.0875 25.499C29.0598 25.1498 28.9298 24.8775 28.6975 24.6819C28.4686 24.4863 28.1202 24.3886 27.6521 24.3886C27.3539 24.3886 27.1095 24.4252 26.9188 24.4986C26.7315 24.5684 26.5928 24.6644 26.5027 24.7867C26.4126 24.9089 26.3657 25.0486 26.3623 25.2057C26.3553 25.3349 26.3779 25.4519 26.4299 25.5567C26.4854 25.6579 26.572 25.7505 26.6899 25.8343C26.8078 25.9146 26.9586 25.9879 27.1424 26.0543C27.3262 26.1206 27.5446 26.18 27.7977 26.2324L28.6715 26.421C29.2609 26.5467 29.7654 26.7125 30.1849 26.9186C30.6044 27.1246 30.9477 27.3673 31.2147 27.6467C31.4816 27.9225 31.6775 28.2333 31.8024 28.579C31.9307 28.9248 31.9965 29.3019 32 29.7105C31.9965 30.4159 31.8214 31.013 31.4747 31.5019C31.128 31.9908 30.6322 32.3627 29.9873 32.6176C29.3458 32.8725 28.5744 33 27.6729 33C26.7471 33 25.9393 32.8621 25.2493 32.5862C24.5628 32.3103 24.0288 31.886 23.6474 31.3133C23.2695 30.7371 23.0788 30.0003 23.0753 29.1029H25.8214C25.8387 29.4311 25.9202 29.707 26.0658 29.9305C26.2115 30.154 26.416 30.3233 26.6795 30.4386C26.9465 30.5538 27.2638 30.6114 27.6313 30.6114C27.9399 30.6114 28.1982 30.573 28.4062 30.4962C28.6142 30.4194 28.772 30.3129 28.8795 30.1767C28.987 30.0405 29.0425 29.8851 29.0459 29.7105C29.0425 29.5463 28.9887 29.4032 28.8847 29.281C28.7841 29.1552 28.6177 29.0435 28.3854 28.9457C28.1531 28.8444 27.8393 28.7502 27.4441 28.6629L26.3831 28.4324C25.44 28.2263 24.6963 27.8824 24.1519 27.4005C23.611 26.9151 23.3423 26.2533 23.3458 25.4152C23.3423 24.7343 23.5226 24.1389 23.8867 23.629C24.2542 23.1157 24.7622 22.7159 25.4105 22.4295C26.0624 22.1432 26.8096 22 27.6521 22C28.512 22 29.2557 22.1449 29.8833 22.4348C30.5108 22.7246 30.9945 23.1332 31.3343 23.6605C31.6775 24.1843 31.8509 24.7971 31.8544 25.499H29.0875Z" fill="#595959"/>
</svg>
