<svg width="84" height="45" viewBox="0 0 84 45" fill="none" xmlns="http://www.w3.org/2000/svg">
<path d="M19.782 28.4897V40.014C19.782 42.3011 17.9244 44.1624 15.6418 44.1624H4.14023C1.85758 44.1624 0 42.3011 0 40.014V28.4897C0 26.2026 1.85758 24.3413 4.14023 24.3413H15.6418C17.9244 24.3413 19.782 26.2026 19.782 28.4897ZM44.1624 28.4897V40.014C44.1624 42.3011 42.3049 44.1624 40.0222 44.1624H28.5207C26.238 44.1624 24.3804 42.3011 24.3804 40.014V28.4897C24.3804 26.2026 26.238 24.3413 28.5207 24.3413H40.0222C42.3049 24.3413 44.1624 26.2026 44.1624 28.4897ZM44.1624 4.14831V15.6726C44.1624 17.9597 42.3049 19.821 40.0222 19.821H28.5207C26.238 19.821 24.3804 17.9597 24.3804 15.6726V4.14831C24.3804 1.86116 26.238 -8.49962e-05 28.5207 -8.49962e-05H40.0222C42.3049 -8.49962e-05 44.1624 1.85978 44.1624 4.14831Z" fill="#A2A2A2"/>
<path d="M18.1411 0.059267H1.38008C0.616894 0.059267 0 0.677375 0 1.44206C0 2.20675 0.616894 2.82486 1.38008 2.82486H18.1411C18.9043 2.82486 19.5212 2.20675 19.5212 1.44206C19.5212 0.677375 18.9029 0.059267 18.1411 0.059267ZM19.5212 9.81076C19.5212 10.5754 18.9043 11.1936 18.1411 11.1936H1.38008C0.616894 11.1936 0 10.5754 0 9.81076C0 9.04607 0.616894 8.42796 1.38008 8.42796H18.1411C18.9029 8.42796 19.5212 9.04746 19.5212 9.81076ZM19.782 18.1795C19.782 18.9441 19.1651 19.5623 18.4019 19.5623H1.38008C0.616894 19.5623 0 18.9441 0 18.1795C0 17.4148 0.616894 16.7967 1.38008 16.7967H18.4019C19.1651 16.7967 19.782 17.4148 19.782 18.1795Z" fill="#CCCCCC"/>
<path d="M75.9962 29.5889C75.9962 30.4722 75.7754 31.2818 75.3337 32.0178C74.8921 32.7539 74.3033 33.3427 73.5672 33.7843C72.8312 34.226 72.0215 34.4468 71.1383 34.4468H64.5139C63.6307 34.4468 62.8088 34.226 62.0482 33.7843C61.3122 33.3427 60.7233 32.7539 60.2817 32.0178C59.8401 31.2818 59.6193 30.4722 59.6193 29.5889V11.2615C59.6193 10.7708 59.7787 10.366 60.0977 10.047C60.4412 9.72808 60.846 9.5686 61.3122 9.5686H62.3426C62.8088 9.5686 63.2013 9.72808 63.5203 10.047C63.8638 10.366 64.0355 10.7708 64.0355 11.2615V29.5889C64.0355 29.7116 64.0846 29.8343 64.1827 29.9569C64.2809 30.0551 64.3913 30.1041 64.5139 30.1041H71.1383C71.261 30.1041 71.3714 30.0551 71.4695 29.9569C71.5677 29.8343 71.6167 29.7116 71.6167 29.5889V11.2615C71.6167 10.7708 71.7762 10.366 72.0952 10.047C72.4386 9.72808 72.8435 9.5686 73.3096 9.5686H74.3033C74.794 9.5686 75.1988 9.72808 75.5177 10.047C75.8367 10.366 75.9962 10.7708 75.9962 11.2615V29.5889Z" fill="#CCCCCC"/>
<path d="M83.4069 32.7539C83.4069 33.22 83.2351 33.6249 82.8917 33.9684C82.5727 34.2873 82.1802 34.4468 81.714 34.4468H80.7203C80.2542 34.4468 79.8494 34.2873 79.5059 33.9684C79.1869 33.6249 79.0274 33.22 79.0274 32.7539V11.2615C79.0274 10.7708 79.1869 10.366 79.5059 10.047C79.8494 9.72808 80.2542 9.5686 80.7203 9.5686H81.714C82.1802 9.5686 82.5727 9.72808 82.8917 10.047C83.2351 10.366 83.4069 10.7708 83.4069 11.2615V32.7539Z" fill="#CCCCCC"/>
</svg>
