<svg width="95" height="45" viewBox="0 0 95 45" fill="none" xmlns="http://www.w3.org/2000/svg">
<path fill-rule="evenodd" clip-rule="evenodd" d="M35.3859 3.07703C34.5367 3.07703 33.8474 2.38778 33.8474 1.53852C33.8474 0.689255 34.5367 0 35.3859 0H38.463C41.579 0 44.1042 2.52522 44.1042 5.64123V8.71826C44.1042 9.56752 43.4149 10.2568 42.5657 10.2568C41.7164 10.2568 41.0272 9.56752 41.0272 8.71826V5.64123C41.0272 4.22579 39.8784 3.07703 38.463 3.07703H35.3859Z" fill="#595959"/>
<path fill-rule="evenodd" clip-rule="evenodd" d="M35.3859 44.1042C34.5367 44.1042 33.8474 43.4149 33.8474 42.5657C33.8474 41.7164 34.5367 41.0272 35.3859 41.0272H38.463C39.8784 41.0272 41.0272 39.8784 41.0272 38.463V35.3859C41.0272 34.5367 41.7164 33.8474 42.5657 33.8474C43.4149 33.8474 44.1042 34.5367 44.1042 35.3859V38.463C44.1042 41.579 41.579 44.1042 38.463 44.1042H35.3859Z" fill="#595959"/>
<path fill-rule="evenodd" clip-rule="evenodd" d="M8.71826 0C9.56752 0 10.2568 0.689255 10.2568 1.53852C10.2568 2.38778 9.56752 3.07703 8.71826 3.07703H5.64123C4.22579 3.07703 3.07703 4.22579 3.07703 5.64123V8.71826C3.07703 9.56752 2.38778 10.2568 1.53852 10.2568C0.689255 10.2568 0 9.56752 0 8.71826V5.64123C0 2.52522 2.52522 0 5.64123 0H8.71826Z" fill="#595959"/>
<path fill-rule="evenodd" clip-rule="evenodd" d="M8.71826 41.0272C9.56752 41.0272 10.2568 41.7164 10.2568 42.5657C10.2568 43.4149 9.56752 44.1042 8.71826 44.1042H5.64123C2.52522 44.1042 0 41.579 0 38.463V35.3859C0 34.5367 0.689255 33.8474 1.53852 33.8474C2.38778 33.8474 3.07703 34.5367 3.07703 35.3859V38.463C3.07703 39.8784 4.22579 41.0272 5.64123 41.0272H8.71826Z" fill="#595959"/>
<path fill-rule="evenodd" clip-rule="evenodd" d="M37.9503 8.71849V14.8726C37.9503 15.5516 37.6795 16.2039 37.1995 16.686C36.7174 17.166 36.0672 17.4368 35.3861 17.4368H8.71849C8.03744 17.4368 7.38716 17.166 6.90509 16.686C6.42508 16.2039 6.1543 15.5516 6.1543 14.8726V8.71849C6.1543 8.03949 6.42508 7.38716 6.90509 6.90509C7.38716 6.42508 8.03744 6.1543 8.71849 6.1543H35.3861C36.0672 6.1543 36.7174 6.42508 37.1995 6.90509C37.6795 7.38716 37.9503 8.03744 37.9503 8.71849Z" fill="#CCCCCC"/>
<path fill-rule="evenodd" clip-rule="evenodd" d="M20.5138 23.0776V35.3858C20.5138 36.8012 19.365 37.9499 17.9496 37.9499H8.71849C7.30306 37.9499 6.1543 36.8012 6.1543 35.3858V23.0776C6.1543 21.6622 7.30306 20.5134 8.71849 20.5134H17.9496C19.365 20.5134 20.5138 21.6622 20.5138 23.0776Z" fill="#A2A2A2"/>
<path fill-rule="evenodd" clip-rule="evenodd" d="M37.9502 23.0776V35.3858C37.9502 36.8012 36.8014 37.9499 35.386 37.9499H26.1549C24.7395 37.9499 23.5907 36.8012 23.5907 35.3858V23.0776C23.5907 21.6622 24.7395 20.5134 26.1549 20.5134H35.386C36.8014 20.5134 37.9502 21.6622 37.9502 23.0776Z" fill="#A2A2A2"/>
<path fill-rule="evenodd" clip-rule="evenodd" d="M41.0271 13.8469C41.0271 12.9976 41.7164 12.3083 42.5656 12.3083C43.4149 12.3083 44.1041 12.9976 44.1041 13.8469V15.8982C44.1041 16.7475 43.4149 17.4367 42.5656 17.4367C41.7164 17.4367 41.0271 16.7475 41.0271 15.8982V13.8469Z" fill="#A2A2A2"/>
<path fill-rule="evenodd" clip-rule="evenodd" d="M13.8469 3.07703C12.9976 3.07703 12.3083 2.38778 12.3083 1.53852C12.3083 0.689255 12.9976 0 13.8469 0H15.8982C16.7475 0 17.4367 0.689255 17.4367 1.53852C17.4367 2.38778 16.7475 3.07703 15.8982 3.07703H13.8469Z" fill="#A2A2A2"/>
<path fill-rule="evenodd" clip-rule="evenodd" d="M0 13.8469C0 12.9976 0.689255 12.3083 1.53852 12.3083C2.38778 12.3083 3.07703 12.9976 3.07703 13.8469V15.8982C3.07703 16.7475 2.38778 17.4367 1.53852 17.4367C0.689255 17.4367 0 16.7475 0 15.8982V13.8469Z" fill="#A2A2A2"/>
<path fill-rule="evenodd" clip-rule="evenodd" d="M13.8469 44.1041C12.9976 44.1041 12.3083 43.4149 12.3083 42.5656C12.3083 41.7164 12.9976 41.0271 13.8469 41.0271H15.8982C16.7475 41.0271 17.4367 41.7164 17.4367 42.5656C17.4367 43.4149 16.7475 44.1041 15.8982 44.1041H13.8469Z" fill="#A2A2A2"/>
<path fill-rule="evenodd" clip-rule="evenodd" d="M41.0271 21.0263C41.0271 20.177 41.7164 19.4878 42.5656 19.4878C43.4149 19.4878 44.1041 20.177 44.1041 21.0263V23.0777C44.1041 23.9269 43.4149 24.6162 42.5656 24.6162C41.7164 24.6162 41.0271 23.9269 41.0271 23.0777V21.0263Z" fill="#A2A2A2"/>
<path fill-rule="evenodd" clip-rule="evenodd" d="M21.0263 3.07703C20.177 3.07703 19.4878 2.38778 19.4878 1.53852C19.4878 0.689255 20.177 0 21.0263 0H23.0777C23.9269 0 24.6162 0.689255 24.6162 1.53852C24.6162 2.38778 23.9269 3.07703 23.0777 3.07703H21.0263Z" fill="#A2A2A2"/>
<path fill-rule="evenodd" clip-rule="evenodd" d="M0 21.0263C0 20.177 0.689255 19.4878 1.53852 19.4878C2.38778 19.4878 3.07703 20.177 3.07703 21.0263V23.0777C3.07703 23.9269 2.38778 24.6162 1.53852 24.6162C0.689255 24.6162 0 23.9269 0 23.0777V21.0263Z" fill="#A2A2A2"/>
<path fill-rule="evenodd" clip-rule="evenodd" d="M21.0263 44.1041C20.177 44.1041 19.4878 43.4149 19.4878 42.5656C19.4878 41.7164 20.177 41.0271 21.0263 41.0271H23.0777C23.9269 41.0271 24.6162 41.7164 24.6162 42.5656C24.6162 43.4149 23.9269 44.1041 23.0777 44.1041H21.0263Z" fill="#A2A2A2"/>
<path fill-rule="evenodd" clip-rule="evenodd" d="M41.0271 28.2062C41.0271 27.357 41.7164 26.6677 42.5656 26.6677C43.4149 26.6677 44.1041 27.357 44.1041 28.2062V30.2576C44.1041 31.1069 43.4149 31.7961 42.5656 31.7961C41.7164 31.7961 41.0271 31.1069 41.0271 30.2576V28.2062Z" fill="#A2A2A2"/>
<path fill-rule="evenodd" clip-rule="evenodd" d="M28.2061 3.07703C27.3569 3.07703 26.6676 2.38778 26.6676 1.53852C26.6676 0.689255 27.3569 0 28.2061 0H30.2575C31.1067 0 31.796 0.689255 31.796 1.53852C31.796 2.38778 31.1067 3.07703 30.2575 3.07703H28.2061Z" fill="#A2A2A2"/>
<path fill-rule="evenodd" clip-rule="evenodd" d="M0 28.2062C0 27.357 0.689255 26.6677 1.53852 26.6677C2.38778 26.6677 3.07703 27.357 3.07703 28.2062V30.2576C3.07703 31.1069 2.38778 31.7961 1.53852 31.7961C0.689255 31.7961 0 31.1069 0 30.2576V28.2062Z" fill="#A2A2A2"/>
<path fill-rule="evenodd" clip-rule="evenodd" d="M28.2061 44.1041C27.3569 44.1041 26.6676 43.4149 26.6676 42.5656C26.6676 41.7164 27.3569 41.0271 28.2061 41.0271H30.2575C31.1067 41.0271 31.796 41.7164 31.796 42.5656C31.796 43.4149 31.1067 44.1041 30.2575 44.1041H28.2061Z" fill="#A2A2A2"/>
<path d="M75.9962 29.5889C75.9962 30.4722 75.7754 31.2818 75.3337 32.0178C74.8921 32.7539 74.3033 33.3427 73.5672 33.7843C72.8312 34.226 72.0215 34.4468 71.1383 34.4468H64.5139C63.6307 34.4468 62.8088 34.226 62.0482 33.7843C61.3122 33.3427 60.7233 32.7539 60.2817 32.0178C59.8401 31.2818 59.6193 30.4722 59.6193 29.5889V11.2615C59.6193 10.7708 59.7787 10.366 60.0977 10.047C60.4412 9.72808 60.846 9.5686 61.3122 9.5686H62.3426C62.8088 9.5686 63.2013 9.72808 63.5203 10.047C63.8638 10.366 64.0355 10.7708 64.0355 11.2615V29.5889C64.0355 29.7116 64.0846 29.8343 64.1827 29.9569C64.2809 30.0551 64.3913 30.1041 64.5139 30.1041H71.1383C71.261 30.1041 71.3714 30.0551 71.4695 29.9569C71.5677 29.8343 71.6167 29.7116 71.6167 29.5889V11.2615C71.6167 10.7708 71.7762 10.366 72.0952 10.047C72.4386 9.72808 72.8435 9.5686 73.3096 9.5686H74.3033C74.794 9.5686 75.1988 9.72808 75.5177 10.047C75.8367 10.366 75.9962 10.7708 75.9962 11.2615V29.5889Z" fill="#CCCCCC"/>
<path d="M94.7787 12.0711L89.6632 21.5661C89.5406 21.8605 89.5406 22.1426 89.6632 22.4125L94.7787 31.981C95.0731 32.5453 95.0609 33.0974 94.7419 33.6371C94.3984 34.1769 93.9077 34.4468 93.2698 34.4468H92.1658C91.4543 34.4468 90.9636 34.1524 90.6937 33.5635L87.1975 27.0864C87.173 26.9882 87.0994 26.9392 86.9767 26.9392C86.8785 26.9392 86.8049 26.9882 86.7559 27.0864L83.2597 33.5635C83.1615 33.8334 82.9653 34.0542 82.6708 34.226C82.401 34.3732 82.1065 34.4468 81.7876 34.4468H80.6467C80.0334 34.4468 79.5549 34.1769 79.2115 33.6371C78.8925 33.0974 78.8802 32.5453 79.1747 31.981L84.2901 22.4125C84.4128 22.1426 84.4128 21.8605 84.2901 21.5661L79.1747 12.0711C78.8802 11.4578 78.8925 10.8935 79.2115 10.3782C79.5549 9.83849 80.0334 9.5686 80.6467 9.5686H81.7876C82.45 9.5686 82.9407 9.86302 83.2597 10.4519L86.7559 16.9658C86.8049 17.064 86.8785 17.113 86.9767 17.113C87.0748 17.113 87.1484 17.064 87.1975 16.9658L90.6937 10.4519C91.0126 9.86302 91.5033 9.5686 92.1658 9.5686H93.3066C93.92 9.5686 94.3984 9.83849 94.7419 10.3782C95.0609 10.8935 95.0731 11.4578 94.7787 12.0711Z" fill="#CCCCCC"/>
</svg>
