<svg width="105" height="37" viewBox="0 0 105 37" fill="none" xmlns="http://www.w3.org/2000/svg">
<path fill-rule="evenodd" clip-rule="evenodd" d="M34.4942 0.00756836H42.9762L21.5586 36.9154L0 0.00756836H8.675L21.5586 22.2268L34.4942 0.00756836Z" fill="#7E7E7E"/>
<path fill-rule="evenodd" clip-rule="evenodd" d="M26.4783 0H34.5455L21.5475 22.2655L8.65381 0H16.5949L21.5475 8.57188L26.4783 0Z" fill="#CCCCCC"/>
<path fill-rule="evenodd" clip-rule="evenodd" d="M48.0376 7.28647C48.0376 7.0142 48.1887 6.78731 48.491 6.60577C48.7933 6.42426 49.1094 6.3335 49.4391 6.3335C49.8971 6.3335 50.1811 6.50593 50.291 6.85084L55.1276 23.0239L59.9367 6.85084C60.0649 6.50595 60.3398 6.3335 60.7611 6.3335C61.1092 6.3335 61.4344 6.43333 61.7367 6.633C62.039 6.83266 62.1901 7.05956 62.1901 7.3137C62.1901 7.33185 62.1856 7.35908 62.1764 7.39538C62.1672 7.43168 62.1626 7.46799 62.1626 7.50429L56.5841 25.6106C56.3826 26.137 55.8971 26.4002 55.1276 26.4002C54.3582 26.4002 53.891 26.137 53.7261 25.6106L48.0928 7.50429C48.0562 7.39538 48.0376 7.32278 48.0376 7.28647ZM62.4066 21.2268V14.1478C62.4066 13.93 62.5211 13.7394 62.7502 13.576C62.9792 13.4126 63.2494 13.331 63.5608 13.331C63.854 13.331 64.115 13.4172 64.344 13.5896C64.573 13.7621 64.6875 13.9481 64.6875 14.1478V21.2267C64.6875 22.0436 64.999 22.7787 65.6219 23.4322C66.2448 24.0856 66.9868 24.4124 67.8478 24.4124C68.6906 24.4124 69.4234 24.0902 70.0463 23.4458C70.6692 22.8014 70.9806 22.0617 70.9806 21.2267V14.1201C70.9806 13.9205 71.0951 13.7389 71.3241 13.5756C71.5531 13.4122 71.8233 13.3306 72.1348 13.3306C72.4646 13.3306 72.7348 13.4077 72.9455 13.562C73.1562 13.7163 73.2615 13.9023 73.2615 14.1201V21.2268C73.2615 22.6245 72.7256 23.8451 71.6539 24.8888C70.5822 25.9326 69.3135 26.4544 67.8479 26.4544C66.3639 26.4544 65.0861 25.9326 64.0143 24.8888C62.9426 23.8451 62.4066 22.6245 62.4066 21.2268ZM75.1265 21.1723V18.3134C75.1265 16.9157 75.6624 15.7087 76.7341 14.6921C77.8058 13.6757 79.0928 13.1674 80.5951 13.1674C82.0241 13.1674 83.2607 13.6439 84.305 14.5969C85.3493 15.5498 85.8714 16.7433 85.8714 18.1773C85.8714 18.7037 85.8073 19.1257 85.679 19.4434C85.5508 19.7611 85.3538 19.9879 85.0882 20.1241C84.8225 20.2602 84.5752 20.3465 84.3462 20.3828C84.1172 20.4191 83.8103 20.4372 83.4256 20.4372H77.4072V21.254C77.4072 22.2524 77.7691 23.0511 78.4927 23.6501C79.2164 24.2491 80.1553 24.5486 81.3095 24.5486C81.9141 24.5486 82.4408 24.4578 82.8896 24.2763C83.3385 24.0948 83.7003 23.9178 83.9751 23.7454C84.2499 23.5729 84.4698 23.4867 84.6346 23.4867C84.8911 23.4867 85.111 23.6002 85.2942 23.8271C85.4774 24.054 85.569 24.2854 85.569 24.5213C85.569 24.9388 85.1522 25.3654 84.3186 25.801C83.4851 26.2367 82.4545 26.4545 81.2271 26.4545C79.4317 26.4545 77.966 25.9689 76.8302 24.9978C75.6943 24.0267 75.1265 22.7515 75.1265 21.1723ZM77.4073 18.9124H82.4912C82.9676 18.9124 83.2882 18.8534 83.4531 18.7355C83.618 18.6175 83.7004 18.386 83.7004 18.0412C83.7004 17.2244 83.3981 16.5074 82.7936 15.8902C82.189 15.273 81.447 14.9644 80.5676 14.9644C79.7066 14.9644 78.9646 15.2503 78.3417 15.8221C77.7188 16.3939 77.4074 17.0972 77.4074 17.9322L77.4073 18.9124ZM87.0222 24.9841C87.0222 24.5847 87.1596 24.2444 87.4344 23.9631C87.7092 23.6817 88.0482 23.541 88.4512 23.541C88.8359 23.541 89.1657 23.6817 89.4405 23.9631C89.7153 24.2444 89.8527 24.5848 89.8527 24.9841C89.8527 25.3653 89.7153 25.6965 89.4405 25.9779C89.1657 26.2592 88.8359 26.3999 88.4512 26.3999C88.0482 26.3999 87.7092 26.2592 87.4344 25.9779C87.1596 25.6965 87.0222 25.3653 87.0222 24.9841ZM89.0524 31.4915C89.0524 31.2011 89.144 30.9606 89.3272 30.77C89.5104 30.5794 89.7302 30.4841 89.9867 30.4841C90.7012 30.4841 91.1684 30.2209 91.3882 29.6945C91.6081 29.1681 91.718 28.3786 91.718 27.3257V14.1204C91.718 13.8844 91.8234 13.6938 92.034 13.5486C92.2447 13.4034 92.5149 13.3308 92.8447 13.3308C93.1745 13.3308 93.4493 13.4034 93.6691 13.5486C93.889 13.6938 93.9989 13.8844 93.9989 14.1204V27.3257C93.9989 28.9049 93.6875 30.1574 93.0646 31.0831C92.4416 32.0089 91.4982 32.4717 90.2341 32.4717C89.4463 32.4717 89.0524 32.145 89.0524 31.4915ZM91.4157 8.48424C91.4157 8.13936 91.5531 7.83988 91.8279 7.58574C92.1027 7.33161 92.4416 7.20456 92.8447 7.20456C93.2294 7.20456 93.5592 7.33162 93.8339 7.58574C94.1088 7.83986 94.2462 8.13937 94.2462 8.48424C94.2462 8.82912 94.1088 9.13318 93.8339 9.39637C93.5592 9.65957 93.2294 9.79117 92.8447 9.79117C92.4599 9.79117 92.1256 9.65957 91.8416 9.39637C91.5576 9.13317 91.4157 8.82912 91.4157 8.48424ZM95.6992 24.3849C95.6992 24.1489 95.777 23.9175 95.9328 23.6906C96.0885 23.4637 96.2763 23.3503 96.4961 23.3503C96.6427 23.3503 96.8534 23.4592 97.1282 23.677C97.403 23.8948 97.7969 24.1081 98.3098 24.3168C98.8228 24.5256 99.4273 24.63 100.124 24.63C101.04 24.63 101.704 24.4666 102.116 24.1399C102.528 23.8131 102.734 23.4047 102.734 22.9146C102.734 22.3156 102.505 21.8391 102.047 21.4852C101.589 21.1312 101.03 20.8635 100.371 20.682C99.7113 20.5005 99.0517 20.3008 98.3922 20.083C97.7327 19.8651 97.1739 19.5021 96.7159 18.9938C96.2579 18.4856 96.0288 17.814 96.0288 16.979C96.0288 15.9444 96.3998 15.0504 97.1418 14.2971C97.8838 13.5438 99.0151 13.1672 100.536 13.1672C101.507 13.1672 102.395 13.3169 103.201 13.6164C104.007 13.916 104.41 14.2563 104.41 14.6375C104.41 14.8553 104.323 15.1003 104.149 15.3726C103.975 15.6449 103.76 15.781 103.504 15.781C103.43 15.781 103.078 15.6494 102.446 15.3862C101.813 15.123 101.186 14.9914 100.563 14.9914C99.7203 14.9914 99.0929 15.1865 98.6807 15.5768C98.2685 15.9671 98.0624 16.4073 98.0624 16.8973C98.0624 17.4056 98.2914 17.8049 98.7494 18.0953C99.2074 18.3858 99.7708 18.6127 100.439 18.776C101.108 18.9394 101.772 19.1391 102.432 19.3751C103.091 19.611 103.65 20.0149 104.108 20.5867C104.566 21.1584 104.795 21.8981 104.795 22.8057C104.795 23.9311 104.392 24.8205 103.586 25.474C102.78 26.1274 101.653 26.4542 100.206 26.4542C98.9601 26.4542 97.8975 26.2318 97.0182 25.7871C96.1388 25.3424 95.6992 24.875 95.6992 24.3849Z" fill="#CCCCCC"/>
</svg>
