<svg width="360" height="780" viewBox="0 0 360 780" fill="none" xmlns="http://www.w3.org/2000/svg">
<g clip-path="url(#clip0_1_2584)">
<rect width="360" height="780" rx="30" fill="#008080"/>
<path d="M138.194 467.216H153.906V471.088H143.058V476.464H153.234V480.368H143.058V486.128H153.906V490H138.194V467.216ZM168.046 473.36C171.886 473.36 173.806 475.632 173.806 480.176V490H168.974V480.4C168.974 479.269 168.761 478.448 168.334 477.936C167.929 477.403 167.278 477.136 166.382 477.136C165.315 477.136 164.462 477.477 163.822 478.16C163.182 478.843 162.862 479.76 162.862 480.912V490H158.03V478.416C158.03 476.688 157.945 475.141 157.774 473.776H162.318L162.638 476.336C163.214 475.376 163.961 474.64 164.878 474.128C165.817 473.616 166.873 473.36 168.046 473.36ZM174.623 492.976C175.242 493.125 175.764 493.2 176.191 493.2C176.916 493.2 177.503 492.987 177.951 492.56C178.42 492.133 178.655 491.472 178.655 490.576V473.776H183.487V490.704C183.487 492.752 182.964 494.341 181.919 495.472C180.874 496.603 179.359 497.168 177.375 497.168C176.266 497.168 175.348 497.029 174.623 496.752V492.976ZM183.615 466.16V470.704H178.463V466.16H183.615ZM196.18 490.256C194.452 490.256 192.938 489.915 191.636 489.232C190.356 488.549 189.364 487.568 188.66 486.288C187.978 485.008 187.636 483.515 187.636 481.808C187.636 480.101 187.978 478.608 188.66 477.328C189.364 476.048 190.356 475.067 191.636 474.384C192.938 473.701 194.452 473.36 196.18 473.36C197.887 473.36 199.38 473.701 200.66 474.384C201.94 475.067 202.922 476.048 203.604 477.328C204.308 478.608 204.66 480.101 204.66 481.808C204.66 483.515 204.308 485.008 203.604 486.288C202.922 487.568 201.94 488.549 200.66 489.232C199.38 489.915 197.887 490.256 196.18 490.256ZM196.18 486.576C197.375 486.576 198.282 486.181 198.9 485.392C199.54 484.603 199.86 483.408 199.86 481.808C199.86 480.229 199.54 479.045 198.9 478.256C198.282 477.445 197.375 477.04 196.18 477.04C194.964 477.04 194.036 477.445 193.396 478.256C192.756 479.045 192.436 480.229 192.436 481.808C192.436 484.987 193.684 486.576 196.18 486.576ZM224.436 473.776L216.948 490.864C216.031 492.933 214.868 494.448 213.46 495.408C212.074 496.389 210.367 497.019 208.34 497.296L207.22 493.584C208.714 493.264 209.834 492.859 210.58 492.368C211.348 491.877 211.946 491.163 212.372 490.224L212.852 489.168L206.164 473.776H211.22L215.38 484.304L219.668 473.776H224.436Z" fill="white"/>
<path d="M51.4103 534.392V539H50.0983V534.376L45.6182 527.608H47.1543L50.7703 533.208L54.3863 527.608H55.8903L51.4103 534.392ZM58.9666 539.112C58.2093 539.112 57.5426 538.941 56.9666 538.6C56.3906 538.259 55.9426 537.773 55.6226 537.144C55.3133 536.515 55.1586 535.779 55.1586 534.936C55.1586 534.093 55.3133 533.357 55.6226 532.728C55.9426 532.099 56.3906 531.613 56.9666 531.272C57.5426 530.931 58.2093 530.76 58.9666 530.76C59.724 530.76 60.3906 530.931 60.9666 531.272C61.5426 531.613 61.9853 532.099 62.2946 532.728C62.6146 533.357 62.7746 534.093 62.7746 534.936C62.7746 535.779 62.6146 536.515 62.2946 537.144C61.9853 537.773 61.5426 538.259 60.9666 538.6C60.3906 538.941 59.724 539.112 58.9666 539.112ZM58.9666 538.04C59.7666 538.04 60.38 537.779 60.8066 537.256C61.2333 536.723 61.4466 535.949 61.4466 534.936C61.4466 533.955 61.228 533.197 60.7906 532.664C60.3533 532.12 59.7453 531.848 58.9666 531.848C58.1773 531.848 57.564 532.12 57.1266 532.664C56.6893 533.197 56.4706 533.955 56.4706 534.936C56.4706 535.949 56.684 536.723 57.1106 537.256C57.548 537.779 58.1666 538.04 58.9666 538.04ZM71.5309 530.952V539H70.2669V537.608C70.0109 538.099 69.6535 538.472 69.1949 538.728C68.7362 538.984 68.2189 539.112 67.6429 539.112C66.6935 539.112 65.9735 538.845 65.4829 538.312C64.9922 537.779 64.7469 536.989 64.7469 535.944V530.952H66.0429V535.912C66.0429 536.637 66.1922 537.171 66.4909 537.512C66.7895 537.853 67.2429 538.024 67.8509 538.024C68.5655 538.024 69.1415 537.795 69.5789 537.336C70.0162 536.867 70.2349 536.253 70.2349 535.496V530.952H71.5309ZM90.4251 530.952L87.4491 539H86.2011L83.8971 532.712L81.6091 539H80.3611L77.3851 530.952H78.7451L81.0171 537.448L83.3691 530.952H84.5051L86.8251 537.464L89.1451 530.952H90.4251ZM92.1074 530.952H93.4034V539H92.1074V530.952ZM93.5634 527.544V529.016H91.9794V527.544H93.5634ZM95.9199 527.224H97.2159V539H95.9199V527.224ZM99.7324 527.224H101.028V539H99.7324V527.224ZM111.733 530.76C112.437 530.76 113.061 530.931 113.605 531.272C114.149 531.613 114.57 532.099 114.869 532.728C115.167 533.347 115.317 534.072 115.317 534.904C115.317 535.736 115.167 536.472 114.869 537.112C114.57 537.741 114.149 538.232 113.605 538.584C113.061 538.936 112.437 539.112 111.733 539.112C111.103 539.112 110.554 538.973 110.085 538.696C109.615 538.419 109.258 538.024 109.013 537.512V539H107.717V527.224H109.013V532.376C109.247 531.853 109.599 531.453 110.069 531.176C110.549 530.899 111.103 530.76 111.733 530.76ZM111.493 538.04C112.271 538.04 112.879 537.768 113.317 537.224C113.754 536.669 113.973 535.896 113.973 534.904C113.973 533.933 113.754 533.181 113.317 532.648C112.89 532.115 112.282 531.848 111.493 531.848C110.693 531.848 110.079 532.115 109.653 532.648C109.226 533.181 109.013 533.944 109.013 534.936C109.013 535.928 109.226 536.696 109.653 537.24C110.079 537.773 110.693 538.04 111.493 538.04ZM124.047 534.936H118.143C118.153 535.96 118.388 536.733 118.847 537.256C119.316 537.779 119.993 538.04 120.879 538.04C121.817 538.04 122.681 537.725 123.471 537.096L123.903 538.04C123.551 538.371 123.097 538.632 122.543 538.824C121.999 539.016 121.439 539.112 120.863 539.112C119.604 539.112 118.617 538.744 117.903 538.008C117.188 537.261 116.831 536.243 116.831 534.952C116.831 534.131 116.991 533.405 117.311 532.776C117.631 532.136 118.079 531.64 118.655 531.288C119.231 530.936 119.887 530.76 120.623 530.76C121.689 530.76 122.527 531.112 123.135 531.816C123.743 532.509 124.047 533.469 124.047 534.696V534.936ZM120.639 531.768C119.967 531.768 119.417 531.971 118.991 532.376C118.575 532.781 118.308 533.352 118.191 534.088H122.879C122.815 533.331 122.591 532.755 122.207 532.36C121.833 531.965 121.311 531.768 120.639 531.768ZM137.354 530.952V538.936C137.354 540.131 137.044 541.032 136.426 541.64C135.818 542.259 134.916 542.568 133.722 542.568C132.495 542.568 131.439 542.291 130.554 541.736L130.778 540.68C131.29 540.968 131.77 541.176 132.218 541.304C132.676 541.432 133.178 541.496 133.722 541.496C134.5 541.496 135.087 541.288 135.482 540.872C135.876 540.467 136.074 539.859 136.074 539.048V537.144C135.828 537.656 135.466 538.056 134.986 538.344C134.516 538.621 133.956 538.76 133.306 538.76C132.602 538.76 131.972 538.595 131.418 538.264C130.874 537.933 130.452 537.464 130.154 536.856C129.855 536.248 129.706 535.549 129.706 534.76C129.706 533.971 129.855 533.272 130.154 532.664C130.452 532.056 130.874 531.587 131.418 531.256C131.972 530.925 132.602 530.76 133.306 530.76C133.946 530.76 134.5 530.899 134.97 531.176C135.45 531.453 135.812 531.843 136.058 532.344V530.952H137.354ZM133.562 537.672C134.34 537.672 134.948 537.416 135.386 536.904C135.834 536.381 136.058 535.667 136.058 534.76C136.058 533.853 135.834 533.144 135.386 532.632C134.948 532.109 134.34 531.848 133.562 531.848C132.772 531.848 132.148 532.109 131.69 532.632C131.242 533.144 131.018 533.853 131.018 534.76C131.018 535.667 131.242 536.381 131.69 536.904C132.148 537.416 132.772 537.672 133.562 537.672ZM139.842 530.952H141.138V539H139.842V530.952ZM141.298 527.544V529.016H139.714V527.544H141.298ZM150.726 530.968L147.254 539H146.022L142.598 530.968H143.958L146.678 537.592L149.43 530.968H150.726ZM158.797 534.936H152.893C152.903 535.96 153.138 536.733 153.597 537.256C154.066 537.779 154.743 538.04 155.629 538.04C156.567 538.04 157.431 537.725 158.221 537.096L158.653 538.04C158.301 538.371 157.847 538.632 157.293 538.824C156.749 539.016 156.189 539.112 155.613 539.112C154.354 539.112 153.367 538.744 152.653 538.008C151.938 537.261 151.581 536.243 151.581 534.952C151.581 534.131 151.741 533.405 152.061 532.776C152.381 532.136 152.829 531.64 153.405 531.288C153.981 530.936 154.637 530.76 155.373 530.76C156.439 530.76 157.277 531.112 157.885 531.816C158.493 532.509 158.797 533.469 158.797 534.696V534.936ZM155.389 531.768C154.717 531.768 154.167 531.971 153.741 532.376C153.325 532.781 153.058 533.352 152.941 534.088H157.629C157.565 533.331 157.341 532.755 156.957 532.36C156.583 531.965 156.061 531.768 155.389 531.768ZM164.78 530.76C166.71 530.76 167.676 531.821 167.676 533.944V539H166.38V534.008C166.38 533.261 166.23 532.717 165.932 532.376C165.633 532.024 165.164 531.848 164.524 531.848C163.777 531.848 163.18 532.077 162.732 532.536C162.284 532.995 162.06 533.613 162.06 534.392V539H160.764V533.208C160.764 532.376 160.721 531.624 160.636 530.952H161.868L161.996 532.392C162.241 531.869 162.609 531.469 163.1 531.192C163.59 530.904 164.15 530.76 164.78 530.76ZM181.367 530.968L177.895 539H176.663L173.239 530.968H174.599L177.319 537.592L180.071 530.968H181.367ZM189.789 530.952V539H188.509V537.544C188.274 538.045 187.917 538.435 187.437 538.712C186.968 538.979 186.418 539.112 185.789 539.112C185.074 539.112 184.445 538.941 183.901 538.6C183.368 538.259 182.952 537.779 182.653 537.16C182.365 536.531 182.221 535.8 182.221 534.968C182.221 534.136 182.37 533.405 182.669 532.776C182.968 532.136 183.384 531.64 183.917 531.288C184.461 530.936 185.085 530.76 185.789 530.76C186.418 530.76 186.968 530.899 187.437 531.176C187.906 531.453 188.264 531.843 188.509 532.344V530.952H189.789ZM186.045 538.04C186.834 538.04 187.442 537.773 187.869 537.24C188.296 536.696 188.509 535.928 188.509 534.936C188.509 533.944 188.296 533.181 187.869 532.648C187.442 532.115 186.834 531.848 186.045 531.848C185.256 531.848 184.637 532.125 184.189 532.68C183.752 533.224 183.533 533.987 183.533 534.968C183.533 535.949 183.752 536.707 184.189 537.24C184.626 537.773 185.245 538.04 186.045 538.04ZM196.039 530.76C196.306 530.76 196.551 530.792 196.775 530.856L196.743 532.04C196.498 531.955 196.215 531.912 195.895 531.912C195.116 531.912 194.535 532.157 194.151 532.648C193.778 533.128 193.591 533.715 193.591 534.408V539H192.295V533.208C192.295 532.376 192.252 531.624 192.167 530.952H193.399L193.527 532.44C193.73 531.896 194.055 531.48 194.503 531.192C194.951 530.904 195.463 530.76 196.039 530.76ZM198.092 530.952H199.388V539H198.092V530.952ZM199.548 527.544V529.016H197.964V527.544H199.548ZM205.232 539.112C204.475 539.112 203.808 538.941 203.232 538.6C202.656 538.259 202.208 537.773 201.888 537.144C201.579 536.515 201.424 535.779 201.424 534.936C201.424 534.093 201.579 533.357 201.888 532.728C202.208 532.099 202.656 531.613 203.232 531.272C203.808 530.931 204.475 530.76 205.232 530.76C205.99 530.76 206.656 530.931 207.232 531.272C207.808 531.613 208.251 532.099 208.56 532.728C208.88 533.357 209.04 534.093 209.04 534.936C209.04 535.779 208.88 536.515 208.56 537.144C208.251 537.773 207.808 538.259 207.232 538.6C206.656 538.941 205.99 539.112 205.232 539.112ZM205.232 538.04C206.032 538.04 206.646 537.779 207.072 537.256C207.499 536.723 207.712 535.949 207.712 534.936C207.712 533.955 207.494 533.197 207.056 532.664C206.619 532.12 206.011 531.848 205.232 531.848C204.443 531.848 203.83 532.12 203.392 532.664C202.955 533.197 202.736 533.955 202.736 534.936C202.736 535.949 202.95 536.723 203.376 537.256C203.814 537.779 204.432 538.04 205.232 538.04ZM217.797 530.952V539H216.533V537.608C216.277 538.099 215.919 538.472 215.461 538.728C215.002 538.984 214.485 539.112 213.909 539.112C212.959 539.112 212.239 538.845 211.749 538.312C211.258 537.779 211.013 536.989 211.013 535.944V530.952H212.309V535.912C212.309 536.637 212.458 537.171 212.757 537.512C213.055 537.853 213.509 538.024 214.117 538.024C214.831 538.024 215.407 537.795 215.845 537.336C216.282 536.867 216.501 536.253 216.501 535.496V530.952H217.797ZM223.015 539.112C221.66 539.112 220.588 538.765 219.799 538.072L220.231 537.112C220.668 537.453 221.111 537.699 221.559 537.848C222.007 537.997 222.508 538.072 223.063 538.072C223.671 538.072 224.13 537.971 224.439 537.768C224.759 537.555 224.919 537.251 224.919 536.856C224.919 536.536 224.812 536.28 224.599 536.088C224.386 535.896 224.034 535.747 223.543 535.64L222.183 535.32C221.511 535.171 220.988 534.904 220.615 534.52C220.252 534.136 220.071 533.677 220.071 533.144C220.071 532.44 220.354 531.869 220.919 531.432C221.484 530.984 222.231 530.76 223.159 530.76C223.724 530.76 224.258 530.851 224.759 531.032C225.26 531.213 225.682 531.475 226.023 531.816L225.591 532.76C224.834 532.131 224.023 531.816 223.159 531.816C222.583 531.816 222.135 531.928 221.815 532.152C221.506 532.365 221.351 532.669 221.351 533.064C221.351 533.395 221.447 533.656 221.639 533.848C221.842 534.04 222.162 534.189 222.599 534.296L223.959 534.632C224.706 534.803 225.26 535.069 225.623 535.432C225.986 535.784 226.167 536.248 226.167 536.824C226.167 537.517 225.884 538.072 225.319 538.488C224.754 538.904 223.986 539.112 223.015 539.112ZM241.332 530.76C243.114 530.76 244.004 531.821 244.004 533.944V539H242.708V534.008C242.708 533.251 242.575 532.701 242.308 532.36C242.052 532.019 241.631 531.848 241.044 531.848C240.362 531.848 239.828 532.077 239.444 532.536C239.06 532.995 238.868 533.619 238.868 534.408V539H237.572V534.008C237.572 533.261 237.439 532.717 237.172 532.376C236.906 532.024 236.479 531.848 235.892 531.848C235.21 531.848 234.671 532.077 234.276 532.536C233.892 532.995 233.7 533.619 233.7 534.408V539H232.404V533.208C232.404 532.376 232.362 531.624 232.276 530.952H233.508L233.636 532.36C233.86 531.848 234.191 531.453 234.628 531.176C235.076 530.899 235.594 530.76 236.18 530.76C236.82 530.76 237.343 530.888 237.748 531.144C238.154 531.4 238.452 531.795 238.644 532.328C238.89 531.848 239.247 531.469 239.716 531.192C240.196 530.904 240.735 530.76 241.332 530.76ZM246.467 530.952H247.763V539H246.467V530.952ZM247.923 527.544V529.016H246.339V527.544H247.923ZM252.999 539.112C251.645 539.112 250.573 538.765 249.783 538.072L250.215 537.112C250.653 537.453 251.095 537.699 251.543 537.848C251.991 537.997 252.493 538.072 253.047 538.072C253.655 538.072 254.114 537.971 254.423 537.768C254.743 537.555 254.903 537.251 254.903 536.856C254.903 536.536 254.797 536.28 254.583 536.088C254.37 535.896 254.018 535.747 253.527 535.64L252.167 535.32C251.495 535.171 250.973 534.904 250.599 534.52C250.237 534.136 250.055 533.677 250.055 533.144C250.055 532.44 250.338 531.869 250.903 531.432C251.469 530.984 252.215 530.76 253.143 530.76C253.709 530.76 254.242 530.851 254.743 531.032C255.245 531.213 255.666 531.475 256.007 531.816L255.575 532.76C254.818 532.131 254.007 531.816 253.143 531.816C252.567 531.816 252.119 531.928 251.799 532.152C251.49 532.365 251.335 532.669 251.335 533.064C251.335 533.395 251.431 533.656 251.623 533.848C251.826 534.04 252.146 534.189 252.583 534.296L253.943 534.632C254.69 534.803 255.245 535.069 255.607 535.432C255.97 535.784 256.151 536.248 256.151 536.824C256.151 537.517 255.869 538.072 255.303 538.488C254.738 538.904 253.97 539.112 252.999 539.112ZM260.937 539.112C259.582 539.112 258.51 538.765 257.721 538.072L258.153 537.112C258.59 537.453 259.033 537.699 259.481 537.848C259.929 537.997 260.43 538.072 260.985 538.072C261.593 538.072 262.051 537.971 262.361 537.768C262.681 537.555 262.841 537.251 262.841 536.856C262.841 536.536 262.734 536.28 262.521 536.088C262.307 535.896 261.955 535.747 261.465 535.64L260.105 535.32C259.433 535.171 258.91 534.904 258.537 534.52C258.174 534.136 257.993 533.677 257.993 533.144C257.993 532.44 258.275 531.869 258.841 531.432C259.406 530.984 260.153 530.76 261.081 530.76C261.646 530.76 262.179 530.851 262.681 531.032C263.182 531.213 263.603 531.475 263.945 531.816L263.513 532.76C262.755 532.131 261.945 531.816 261.081 531.816C260.505 531.816 260.057 531.928 259.737 532.152C259.427 532.365 259.273 532.669 259.273 533.064C259.273 533.395 259.369 533.656 259.561 533.848C259.763 534.04 260.083 534.189 260.521 534.296L261.881 534.632C262.627 534.803 263.182 535.069 263.545 535.432C263.907 535.784 264.089 536.248 264.089 536.824C264.089 537.517 263.806 538.072 263.241 538.488C262.675 538.904 261.907 539.112 260.937 539.112ZM266.154 530.952H267.45V539H266.154V530.952ZM267.61 527.544V529.016H266.026V527.544H267.61ZM273.295 539.112C272.537 539.112 271.871 538.941 271.295 538.6C270.719 538.259 270.271 537.773 269.951 537.144C269.641 536.515 269.487 535.779 269.487 534.936C269.487 534.093 269.641 533.357 269.951 532.728C270.271 532.099 270.719 531.613 271.295 531.272C271.871 530.931 272.537 530.76 273.295 530.76C274.052 530.76 274.719 530.931 275.295 531.272C275.871 531.613 276.313 532.099 276.623 532.728C276.943 533.357 277.103 534.093 277.103 534.936C277.103 535.779 276.943 536.515 276.623 537.144C276.313 537.773 275.871 538.259 275.295 538.6C274.719 538.941 274.052 539.112 273.295 539.112ZM273.295 538.04C274.095 538.04 274.708 537.779 275.135 537.256C275.561 536.723 275.775 535.949 275.775 534.936C275.775 533.955 275.556 533.197 275.119 532.664C274.681 532.12 274.073 531.848 273.295 531.848C272.505 531.848 271.892 532.12 271.455 532.664C271.017 533.197 270.799 533.955 270.799 534.936C270.799 535.949 271.012 536.723 271.439 537.256C271.876 537.779 272.495 538.04 273.295 538.04ZM283.139 530.76C285.07 530.76 286.035 531.821 286.035 533.944V539H284.739V534.008C284.739 533.261 284.59 532.717 284.291 532.376C283.992 532.024 283.523 531.848 282.883 531.848C282.136 531.848 281.539 532.077 281.091 532.536C280.643 532.995 280.419 533.613 280.419 534.392V539H279.123V533.208C279.123 532.376 279.08 531.624 278.995 530.952H280.227L280.355 532.392C280.6 531.869 280.968 531.469 281.459 531.192C281.95 530.904 282.51 530.76 283.139 530.76ZM291.202 539.112C289.848 539.112 288.776 538.765 287.986 538.072L288.418 537.112C288.856 537.453 289.298 537.699 289.746 537.848C290.194 537.997 290.696 538.072 291.25 538.072C291.858 538.072 292.317 537.971 292.626 537.768C292.946 537.555 293.106 537.251 293.106 536.856C293.106 536.536 293 536.28 292.786 536.088C292.573 535.896 292.221 535.747 291.73 535.64L290.37 535.32C289.698 535.171 289.176 534.904 288.802 534.52C288.44 534.136 288.258 533.677 288.258 533.144C288.258 532.44 288.541 531.869 289.106 531.432C289.672 530.984 290.418 530.76 291.346 530.76C291.912 530.76 292.445 530.851 292.946 531.032C293.448 531.213 293.869 531.475 294.21 531.816L293.778 532.76C293.021 532.131 292.21 531.816 291.346 531.816C290.77 531.816 290.322 531.928 290.002 532.152C289.693 532.365 289.538 532.669 289.538 533.064C289.538 533.395 289.634 533.656 289.826 533.848C290.029 534.04 290.349 534.189 290.786 534.296L292.146 534.632C292.893 534.803 293.448 535.069 293.81 535.432C294.173 535.784 294.354 536.248 294.354 536.824C294.354 537.517 294.072 538.072 293.506 538.488C292.941 538.904 292.173 539.112 291.202 539.112ZM302.32 531.976V536.376C302.32 536.973 302.442 537.395 302.688 537.64C302.933 537.875 303.28 537.992 303.728 537.992C304.026 537.992 304.314 537.944 304.592 537.848V538.952C304.261 539.059 303.888 539.112 303.472 539.112C302.704 539.112 302.101 538.899 301.664 538.472C301.237 538.035 301.024 537.395 301.024 536.552V531.976H299.456V530.952H301.024V528.888L302.32 528.424V530.952H304.624V531.976H302.32ZM309.514 539.112C308.756 539.112 308.09 538.941 307.514 538.6C306.938 538.259 306.49 537.773 306.17 537.144C305.86 536.515 305.706 535.779 305.706 534.936C305.706 534.093 305.86 533.357 306.17 532.728C306.49 532.099 306.938 531.613 307.514 531.272C308.09 530.931 308.756 530.76 309.514 530.76C310.271 530.76 310.938 530.931 311.514 531.272C312.09 531.613 312.532 532.099 312.842 532.728C313.162 533.357 313.322 534.093 313.322 534.936C313.322 535.779 313.162 536.515 312.842 537.144C312.532 537.773 312.09 538.259 311.514 538.6C310.938 538.941 310.271 539.112 309.514 539.112ZM309.514 538.04C310.314 538.04 310.927 537.779 311.354 537.256C311.78 536.723 311.994 535.949 311.994 534.936C311.994 533.955 311.775 533.197 311.338 532.664C310.9 532.12 310.292 531.848 309.514 531.848C308.724 531.848 308.111 532.12 307.674 532.664C307.236 533.197 307.018 533.955 307.018 534.936C307.018 535.949 307.231 536.723 307.658 537.256C308.095 537.779 308.714 538.04 309.514 538.04ZM61.0157 552.952V561H59.7357V559.544C59.501 560.045 59.1437 560.435 58.6637 560.712C58.1944 560.979 57.645 561.112 57.0157 561.112C56.301 561.112 55.6717 560.941 55.1277 560.6C54.5944 560.259 54.1784 559.779 53.8797 559.16C53.5917 558.531 53.4477 557.8 53.4477 556.968C53.4477 556.136 53.597 555.405 53.8957 554.776C54.1944 554.136 54.6104 553.64 55.1437 553.288C55.6877 552.936 56.3117 552.76 57.0157 552.76C57.645 552.76 58.1944 552.899 58.6637 553.176C59.133 553.453 59.4904 553.843 59.7357 554.344V552.952H61.0157ZM57.2717 560.04C58.061 560.04 58.669 559.773 59.0957 559.24C59.5224 558.696 59.7357 557.928 59.7357 556.936C59.7357 555.944 59.5224 555.181 59.0957 554.648C58.669 554.115 58.061 553.848 57.2717 553.848C56.4824 553.848 55.8637 554.125 55.4157 554.68C54.9784 555.224 54.7597 555.987 54.7597 556.968C54.7597 557.949 54.9784 558.707 55.4157 559.24C55.853 559.773 56.4717 560.04 57.2717 560.04ZM66.8974 561.112C66.1188 561.112 65.4361 560.941 64.8494 560.6C64.2734 560.259 63.8254 559.779 63.5054 559.16C63.1961 558.531 63.0414 557.8 63.0414 556.968C63.0414 556.136 63.2014 555.405 63.5214 554.776C63.8414 554.136 64.2948 553.64 64.8814 553.288C65.4788 552.936 66.1721 552.76 66.9614 552.76C67.5054 552.76 68.0281 552.856 68.5294 553.048C69.0414 553.229 69.4628 553.485 69.7934 553.816L69.3614 554.776C68.9561 554.456 68.5614 554.221 68.1774 554.072C67.8041 553.923 67.4201 553.848 67.0254 553.848C66.2041 553.848 65.5588 554.125 65.0894 554.68C64.6201 555.224 64.3854 555.987 64.3854 556.968C64.3854 557.939 64.6148 558.696 65.0734 559.24C65.5428 559.773 66.1934 560.04 67.0254 560.04C67.4201 560.04 67.8041 559.965 68.1774 559.816C68.5614 559.667 68.9561 559.432 69.3614 559.112L69.7934 560.072C69.4521 560.392 69.0201 560.648 68.4974 560.84C67.9854 561.021 67.4521 561.112 66.8974 561.112ZM74.8193 561.112C74.0406 561.112 73.358 560.941 72.7713 560.6C72.1953 560.259 71.7473 559.779 71.4273 559.16C71.118 558.531 70.9633 557.8 70.9633 556.968C70.9633 556.136 71.1233 555.405 71.4433 554.776C71.7633 554.136 72.2166 553.64 72.8033 553.288C73.4006 552.936 74.094 552.76 74.8833 552.76C75.4273 552.76 75.95 552.856 76.4513 553.048C76.9633 553.229 77.3846 553.485 77.7153 553.816L77.2833 554.776C76.878 554.456 76.4833 554.221 76.0993 554.072C75.726 553.923 75.342 553.848 74.9473 553.848C74.126 553.848 73.4806 554.125 73.0113 554.68C72.542 555.224 72.3073 555.987 72.3073 556.968C72.3073 557.939 72.5366 558.696 72.9953 559.24C73.4646 559.773 74.1153 560.04 74.9473 560.04C75.342 560.04 75.726 559.965 76.0993 559.816C76.4833 559.667 76.878 559.432 77.2833 559.112L77.7153 560.072C77.374 560.392 76.942 560.648 76.4193 560.84C75.9073 561.021 75.374 561.112 74.8193 561.112ZM82.6932 561.112C81.9359 561.112 81.2692 560.941 80.6932 560.6C80.1172 560.259 79.6692 559.773 79.3492 559.144C79.0399 558.515 78.8852 557.779 78.8852 556.936C78.8852 556.093 79.0399 555.357 79.3492 554.728C79.6692 554.099 80.1172 553.613 80.6932 553.272C81.2692 552.931 81.9359 552.76 82.6932 552.76C83.4505 552.76 84.1172 552.931 84.6932 553.272C85.2692 553.613 85.7119 554.099 86.0212 554.728C86.3412 555.357 86.5012 556.093 86.5012 556.936C86.5012 557.779 86.3412 558.515 86.0212 559.144C85.7119 559.773 85.2692 560.259 84.6932 560.6C84.1172 560.941 83.4505 561.112 82.6932 561.112ZM82.6932 560.04C83.4932 560.04 84.1065 559.779 84.5332 559.256C84.9599 558.723 85.1732 557.949 85.1732 556.936C85.1732 555.955 84.9545 555.197 84.5172 554.664C84.0799 554.12 83.4719 553.848 82.6932 553.848C81.9039 553.848 81.2905 554.12 80.8532 554.664C80.4159 555.197 80.1972 555.955 80.1972 556.936C80.1972 557.949 80.4105 558.723 80.8372 559.256C81.2745 559.779 81.8932 560.04 82.6932 560.04ZM97.4494 552.76C99.2308 552.76 100.121 553.821 100.121 555.944V561H98.8254V556.008C98.8254 555.251 98.6921 554.701 98.4254 554.36C98.1694 554.019 97.7481 553.848 97.1614 553.848C96.4788 553.848 95.9454 554.077 95.5614 554.536C95.1774 554.995 94.9854 555.619 94.9854 556.408V561H93.6894V556.008C93.6894 555.261 93.5561 554.717 93.2894 554.376C93.0228 554.024 92.5961 553.848 92.0094 553.848C91.3268 553.848 90.7881 554.077 90.3934 554.536C90.0094 554.995 89.8174 555.619 89.8174 556.408V561H88.5214V555.208C88.5214 554.376 88.4788 553.624 88.3934 552.952H89.6254L89.7534 554.36C89.9774 553.848 90.3081 553.453 90.7454 553.176C91.1934 552.899 91.7108 552.76 92.2974 552.76C92.9374 552.76 93.4601 552.888 93.8654 553.144C94.2708 553.4 94.5694 553.795 94.7614 554.328C95.0068 553.848 95.3641 553.469 95.8334 553.192C96.3134 552.904 96.8521 552.76 97.4494 552.76ZM106.6 552.76C107.304 552.76 107.928 552.936 108.472 553.288C109.016 553.64 109.437 554.136 109.736 554.776C110.035 555.405 110.184 556.136 110.184 556.968C110.184 557.8 110.035 558.531 109.736 559.16C109.437 559.779 109.016 560.259 108.472 560.6C107.939 560.941 107.315 561.112 106.6 561.112C105.971 561.112 105.421 560.973 104.952 560.696C104.483 560.419 104.125 560.024 103.88 559.512V564.456H102.584V555.208C102.584 554.376 102.541 553.624 102.456 552.952H103.688L103.816 554.504C104.04 553.949 104.392 553.523 104.872 553.224C105.363 552.915 105.939 552.76 106.6 552.76ZM106.36 560.04C107.149 560.04 107.757 559.773 108.184 559.24C108.621 558.707 108.84 557.949 108.84 556.968C108.84 555.987 108.621 555.224 108.184 554.68C107.747 554.125 107.139 553.848 106.36 553.848C105.56 553.848 104.947 554.115 104.52 554.648C104.093 555.181 103.88 555.944 103.88 556.936C103.88 557.928 104.093 558.696 104.52 559.24C104.947 559.773 105.56 560.04 106.36 560.04ZM112.178 549.224H113.474V561H112.178V549.224ZM115.99 552.952H117.286V561H115.99V552.952ZM117.446 549.544V551.016H115.862V549.544H117.446ZM122.523 561.112C121.168 561.112 120.096 560.765 119.307 560.072L119.739 559.112C120.176 559.453 120.619 559.699 121.067 559.848C121.515 559.997 122.016 560.072 122.571 560.072C123.179 560.072 123.637 559.971 123.947 559.768C124.267 559.555 124.427 559.251 124.427 558.856C124.427 558.536 124.32 558.28 124.107 558.088C123.893 557.896 123.541 557.747 123.051 557.64L121.691 557.32C121.019 557.171 120.496 556.904 120.123 556.52C119.76 556.136 119.579 555.677 119.579 555.144C119.579 554.44 119.861 553.869 120.427 553.432C120.992 552.984 121.739 552.76 122.667 552.76C123.232 552.76 123.765 552.851 124.267 553.032C124.768 553.213 125.189 553.475 125.531 553.816L125.099 554.76C124.341 554.131 123.531 553.816 122.667 553.816C122.091 553.816 121.643 553.928 121.323 554.152C121.013 554.365 120.859 554.669 120.859 555.064C120.859 555.395 120.955 555.656 121.147 555.848C121.349 556.04 121.669 556.189 122.107 556.296L123.467 556.632C124.213 556.803 124.768 557.069 125.131 557.432C125.493 557.784 125.675 558.248 125.675 558.824C125.675 559.517 125.392 560.072 124.827 560.488C124.261 560.904 123.493 561.112 122.523 561.112ZM131.756 552.76C133.687 552.76 134.652 553.821 134.652 555.944V561H133.356V556.008C133.356 555.261 133.207 554.717 132.908 554.376C132.61 554.024 132.14 553.848 131.5 553.848C130.754 553.848 130.156 554.077 129.708 554.536C129.26 554.995 129.036 555.613 129.036 556.392V561H127.74V549.224H129.036V554.264C129.292 553.773 129.655 553.4 130.124 553.144C130.604 552.888 131.148 552.76 131.756 552.76ZM138.524 559.352V561H136.876V559.352H138.524ZM147.887 550.728H143.919V549.608H153.183V550.728H149.215V561H147.887V550.728ZM158.631 552.76C160.562 552.76 161.527 553.821 161.527 555.944V561H160.231V556.008C160.231 555.261 160.082 554.717 159.783 554.376C159.485 554.024 159.015 553.848 158.375 553.848C157.629 553.848 157.031 554.077 156.583 554.536C156.135 554.995 155.911 555.613 155.911 556.392V561H154.615V549.224H155.911V554.264C156.167 553.773 156.53 553.4 156.999 553.144C157.479 552.888 158.023 552.76 158.631 552.76ZM170.711 556.936H164.807C164.817 557.96 165.052 558.733 165.511 559.256C165.98 559.779 166.657 560.04 167.543 560.04C168.481 560.04 169.345 559.725 170.135 559.096L170.567 560.04C170.215 560.371 169.761 560.632 169.207 560.824C168.663 561.016 168.103 561.112 167.527 561.112C166.268 561.112 165.281 560.744 164.567 560.008C163.852 559.261 163.495 558.243 163.495 556.952C163.495 556.131 163.655 555.405 163.975 554.776C164.295 554.136 164.743 553.64 165.319 553.288C165.895 552.936 166.551 552.76 167.287 552.76C168.353 552.76 169.191 553.112 169.799 553.816C170.407 554.509 170.711 555.469 170.711 556.696V556.936ZM167.303 553.768C166.631 553.768 166.081 553.971 165.655 554.376C165.239 554.781 164.972 555.352 164.855 556.088H169.543C169.479 555.331 169.255 554.755 168.871 554.36C168.497 553.965 167.975 553.768 167.303 553.768ZM182.274 561L178.146 557.128V561H176.85V549.224H178.146V556.648L181.938 552.968H183.586L179.554 556.824L183.97 561H182.274ZM191.679 556.936H185.775C185.786 557.96 186.021 558.733 186.479 559.256C186.949 559.779 187.626 560.04 188.511 560.04C189.45 560.04 190.314 559.725 191.103 559.096L191.535 560.04C191.183 560.371 190.73 560.632 190.175 560.824C189.631 561.016 189.071 561.112 188.495 561.112C187.237 561.112 186.25 560.744 185.535 560.008C184.821 559.261 184.463 558.243 184.463 556.952C184.463 556.131 184.623 555.405 184.943 554.776C185.263 554.136 185.711 553.64 186.287 553.288C186.863 552.936 187.519 552.76 188.255 552.76C189.322 552.76 190.159 553.112 190.767 553.816C191.375 554.509 191.679 555.469 191.679 556.696V556.936ZM188.271 553.768C187.599 553.768 187.05 553.971 186.623 554.376C186.207 554.781 185.941 555.352 185.823 556.088H190.511C190.447 555.331 190.223 554.755 189.839 554.36C189.466 553.965 188.943 553.768 188.271 553.768ZM200.625 552.952L196.865 561.736C196.47 562.653 195.974 563.325 195.377 563.752C194.779 564.179 194.043 564.472 193.169 564.632L192.897 563.624C193.654 563.453 194.225 563.224 194.609 562.936C195.003 562.659 195.329 562.227 195.585 561.64L195.905 560.92L192.497 552.952H193.857L196.577 559.592L199.329 552.952H200.625ZM206.225 552.952H207.521V561H206.225V552.952ZM207.681 549.544V551.016H206.097V549.544H207.681ZM212.757 561.112C211.402 561.112 210.33 560.765 209.541 560.072L209.973 559.112C210.41 559.453 210.853 559.699 211.301 559.848C211.749 559.997 212.25 560.072 212.805 560.072C213.413 560.072 213.872 559.971 214.181 559.768C214.501 559.555 214.661 559.251 214.661 558.856C214.661 558.536 214.554 558.28 214.341 558.088C214.128 557.896 213.776 557.747 213.285 557.64L211.925 557.32C211.253 557.171 210.73 556.904 210.357 556.52C209.994 556.136 209.813 555.677 209.813 555.144C209.813 554.44 210.096 553.869 210.661 553.432C211.226 552.984 211.973 552.76 212.901 552.76C213.466 552.76 214 552.851 214.501 553.032C215.002 553.213 215.424 553.475 215.765 553.816L215.333 554.76C214.576 554.131 213.765 553.816 212.901 553.816C212.325 553.816 211.877 553.928 211.557 554.152C211.248 554.365 211.093 554.669 211.093 555.064C211.093 555.395 211.189 555.656 211.381 555.848C211.584 556.04 211.904 556.189 212.341 556.296L213.701 556.632C214.448 556.803 215.002 557.069 215.365 557.432C215.728 557.784 215.909 558.248 215.909 558.824C215.909 559.517 215.626 560.072 215.061 560.488C214.496 560.904 213.728 561.112 212.757 561.112ZM223.874 553.976V558.376C223.874 558.973 223.997 559.395 224.242 559.64C224.488 559.875 224.834 559.992 225.282 559.992C225.581 559.992 225.869 559.944 226.146 559.848V560.952C225.816 561.059 225.442 561.112 225.026 561.112C224.258 561.112 223.656 560.899 223.218 560.472C222.792 560.035 222.578 559.395 222.578 558.552V553.976H221.01V552.952H222.578V550.888L223.874 550.424V552.952H226.178V553.976H223.874ZM231.068 561.112C230.311 561.112 229.644 560.941 229.068 560.6C228.492 560.259 228.044 559.773 227.724 559.144C227.415 558.515 227.26 557.779 227.26 556.936C227.26 556.093 227.415 555.357 227.724 554.728C228.044 554.099 228.492 553.613 229.068 553.272C229.644 552.931 230.311 552.76 231.068 552.76C231.826 552.76 232.492 552.931 233.068 553.272C233.644 553.613 234.087 554.099 234.396 554.728C234.716 555.357 234.876 556.093 234.876 556.936C234.876 557.779 234.716 558.515 234.396 559.144C234.087 559.773 233.644 560.259 233.068 560.6C232.492 560.941 231.826 561.112 231.068 561.112ZM231.068 560.04C231.868 560.04 232.482 559.779 232.908 559.256C233.335 558.723 233.548 557.949 233.548 556.936C233.548 555.955 233.33 555.197 232.892 554.664C232.455 554.12 231.847 553.848 231.068 553.848C230.279 553.848 229.666 554.12 229.228 554.664C228.791 555.197 228.572 555.955 228.572 556.936C228.572 557.949 228.786 558.723 229.212 559.256C229.65 559.779 230.268 560.04 231.068 560.04ZM244.444 561.112C243.666 561.112 242.983 560.941 242.396 560.6C241.82 560.259 241.372 559.779 241.052 559.16C240.743 558.531 240.588 557.8 240.588 556.968C240.588 556.136 240.748 555.405 241.068 554.776C241.388 554.136 241.842 553.64 242.428 553.288C243.026 552.936 243.719 552.76 244.508 552.76C245.052 552.76 245.575 552.856 246.076 553.048C246.588 553.229 247.01 553.485 247.34 553.816L246.908 554.776C246.503 554.456 246.108 554.221 245.724 554.072C245.351 553.923 244.967 553.848 244.572 553.848C243.751 553.848 243.106 554.125 242.636 554.68C242.167 555.224 241.932 555.987 241.932 556.968C241.932 557.939 242.162 558.696 242.62 559.24C243.09 559.773 243.74 560.04 244.572 560.04C244.967 560.04 245.351 559.965 245.724 559.816C246.108 559.667 246.503 559.432 246.908 559.112L247.34 560.072C246.999 560.392 246.567 560.648 246.044 560.84C245.532 561.021 244.999 561.112 244.444 561.112ZM252.318 561.112C251.561 561.112 250.894 560.941 250.318 560.6C249.742 560.259 249.294 559.773 248.974 559.144C248.665 558.515 248.51 557.779 248.51 556.936C248.51 556.093 248.665 555.357 248.974 554.728C249.294 554.099 249.742 553.613 250.318 553.272C250.894 552.931 251.561 552.76 252.318 552.76C253.076 552.76 253.742 552.931 254.318 553.272C254.894 553.613 255.337 554.099 255.646 554.728C255.966 555.357 256.126 556.093 256.126 556.936C256.126 557.779 255.966 558.515 255.646 559.144C255.337 559.773 254.894 560.259 254.318 560.6C253.742 560.941 253.076 561.112 252.318 561.112ZM252.318 560.04C253.118 560.04 253.732 559.779 254.158 559.256C254.585 558.723 254.798 557.949 254.798 556.936C254.798 555.955 254.58 555.197 254.142 554.664C253.705 554.12 253.097 553.848 252.318 553.848C251.529 553.848 250.916 554.12 250.478 554.664C250.041 555.197 249.822 555.955 249.822 556.936C249.822 557.949 250.036 558.723 250.462 559.256C250.9 559.779 251.518 560.04 252.318 560.04ZM267.074 552.76C268.856 552.76 269.746 553.821 269.746 555.944V561H268.45V556.008C268.45 555.251 268.317 554.701 268.05 554.36C267.794 554.019 267.373 553.848 266.786 553.848C266.104 553.848 265.57 554.077 265.186 554.536C264.802 554.995 264.61 555.619 264.61 556.408V561H263.314V556.008C263.314 555.261 263.181 554.717 262.914 554.376C262.648 554.024 262.221 553.848 261.634 553.848C260.952 553.848 260.413 554.077 260.018 554.536C259.634 554.995 259.442 555.619 259.442 556.408V561H258.146V555.208C258.146 554.376 258.104 553.624 258.018 552.952H259.25L259.378 554.36C259.602 553.848 259.933 553.453 260.37 553.176C260.818 552.899 261.336 552.76 261.922 552.76C262.562 552.76 263.085 552.888 263.49 553.144C263.896 553.4 264.194 553.795 264.386 554.328C264.632 553.848 264.989 553.469 265.458 553.192C265.938 552.904 266.477 552.76 267.074 552.76ZM276.225 552.76C276.929 552.76 277.553 552.936 278.097 553.288C278.641 553.64 279.062 554.136 279.361 554.776C279.66 555.405 279.809 556.136 279.809 556.968C279.809 557.8 279.66 558.531 279.361 559.16C279.062 559.779 278.641 560.259 278.097 560.6C277.564 560.941 276.94 561.112 276.225 561.112C275.596 561.112 275.046 560.973 274.577 560.696C274.108 560.419 273.75 560.024 273.505 559.512V564.456H272.209V555.208C272.209 554.376 272.166 553.624 272.081 552.952H273.313L273.441 554.504C273.665 553.949 274.017 553.523 274.497 553.224C274.988 552.915 275.564 552.76 276.225 552.76ZM275.985 560.04C276.774 560.04 277.382 559.773 277.809 559.24C278.246 558.707 278.465 557.949 278.465 556.968C278.465 555.987 278.246 555.224 277.809 554.68C277.372 554.125 276.764 553.848 275.985 553.848C275.185 553.848 274.572 554.115 274.145 554.648C273.718 555.181 273.505 555.944 273.505 556.936C273.505 557.928 273.718 558.696 274.145 559.24C274.572 559.773 275.185 560.04 275.985 560.04ZM281.803 549.224H283.099V561H281.803V549.224ZM292.351 556.936H286.447C286.458 557.96 286.693 558.733 287.151 559.256C287.621 559.779 288.298 560.04 289.183 560.04C290.122 560.04 290.986 559.725 291.775 559.096L292.207 560.04C291.855 560.371 291.402 560.632 290.847 560.824C290.303 561.016 289.743 561.112 289.167 561.112C287.909 561.112 286.922 560.744 286.207 560.008C285.493 559.261 285.135 558.243 285.135 556.952C285.135 556.131 285.295 555.405 285.615 554.776C285.935 554.136 286.383 553.64 286.959 553.288C287.535 552.936 288.191 552.76 288.927 552.76C289.994 552.76 290.831 553.112 291.439 553.816C292.047 554.509 292.351 555.469 292.351 556.696V556.936ZM288.943 553.768C288.271 553.768 287.722 553.971 287.295 554.376C286.879 554.781 286.613 555.352 286.495 556.088H291.183C291.119 555.331 290.895 554.755 290.511 554.36C290.138 553.965 289.615 553.768 288.943 553.768ZM295.999 553.976V558.376C295.999 558.973 296.122 559.395 296.367 559.64C296.613 559.875 296.959 559.992 297.407 559.992C297.706 559.992 297.994 559.944 298.271 559.848V560.952C297.941 561.059 297.567 561.112 297.151 561.112C296.383 561.112 295.781 560.899 295.343 560.472C294.917 560.035 294.703 559.395 294.703 558.552V553.976H293.135V552.952H294.703V550.888L295.999 550.424V552.952H298.303V553.976H295.999ZM306.601 556.936H300.697C300.708 557.96 300.943 558.733 301.401 559.256C301.871 559.779 302.548 560.04 303.433 560.04C304.372 560.04 305.236 559.725 306.025 559.096L306.457 560.04C306.105 560.371 305.652 560.632 305.097 560.824C304.553 561.016 303.993 561.112 303.417 561.112C302.159 561.112 301.172 560.744 300.457 560.008C299.743 559.261 299.385 558.243 299.385 556.952C299.385 556.131 299.545 555.405 299.865 554.776C300.185 554.136 300.633 553.64 301.209 553.288C301.785 552.936 302.441 552.76 303.177 552.76C304.244 552.76 305.081 553.112 305.689 553.816C306.297 554.509 306.601 555.469 306.601 556.696V556.936ZM303.193 553.768C302.521 553.768 301.972 553.971 301.545 554.376C301.129 554.781 300.863 555.352 300.745 556.088H305.433C305.369 555.331 305.145 554.755 304.761 554.36C304.388 553.965 303.865 553.768 303.193 553.768ZM35.0151 575.976V580.376C35.0151 580.973 35.1377 581.395 35.3831 581.64C35.6284 581.875 35.9751 581.992 36.4231 581.992C36.7217 581.992 37.0097 581.944 37.2871 581.848V582.952C36.9564 583.059 36.5831 583.112 36.1671 583.112C35.3991 583.112 34.7964 582.899 34.3591 582.472C33.9324 582.035 33.7191 581.395 33.7191 580.552V575.976H32.1511V574.952H33.7191V572.888L35.0151 572.424V574.952H37.3191V575.976H35.0151ZM42.8968 574.76C44.8275 574.76 45.7928 575.821 45.7928 577.944V583H44.4968V578.008C44.4968 577.261 44.3475 576.717 44.0488 576.376C43.7501 576.024 43.2808 575.848 42.6408 575.848C41.8941 575.848 41.2968 576.077 40.8488 576.536C40.4008 576.995 40.1768 577.613 40.1768 578.392V583H38.8808V571.224H40.1768V576.264C40.4328 575.773 40.7955 575.4 41.2648 575.144C41.7448 574.888 42.2888 574.76 42.8968 574.76ZM54.9762 578.936H49.0722C49.0829 579.96 49.3175 580.733 49.7762 581.256C50.2455 581.779 50.9229 582.04 51.8082 582.04C52.7469 582.04 53.6109 581.725 54.4002 581.096L54.8322 582.04C54.4802 582.371 54.0269 582.632 53.4722 582.824C52.9282 583.016 52.3682 583.112 51.7922 583.112C50.5335 583.112 49.5469 582.744 48.8322 582.008C48.1175 581.261 47.7602 580.243 47.7602 578.952C47.7602 578.131 47.9202 577.405 48.2402 576.776C48.5602 576.136 49.0082 575.64 49.5842 575.288C50.1602 574.936 50.8162 574.76 51.5522 574.76C52.6189 574.76 53.4562 575.112 54.0642 575.816C54.6722 576.509 54.9762 577.469 54.9762 578.696V578.936ZM51.5682 575.768C50.8962 575.768 50.3469 575.971 49.9202 576.376C49.5042 576.781 49.2375 577.352 49.1202 578.088H53.8082C53.7442 577.331 53.5202 576.755 53.1362 576.36C52.7629 575.965 52.2402 575.768 51.5682 575.768ZM65.8713 574.76C67.6526 574.76 68.5433 575.821 68.5433 577.944V583H67.2473V578.008C67.2473 577.251 67.114 576.701 66.8473 576.36C66.5913 576.019 66.17 575.848 65.5833 575.848C64.9006 575.848 64.3673 576.077 63.9833 576.536C63.5993 576.995 63.4073 577.619 63.4073 578.408V583H62.1113V578.008C62.1113 577.261 61.978 576.717 61.7113 576.376C61.4446 576.024 61.018 575.848 60.4313 575.848C59.7486 575.848 59.21 576.077 58.8153 576.536C58.4313 576.995 58.2393 577.619 58.2393 578.408V583H56.9433V577.208C56.9433 576.376 56.9006 575.624 56.8153 574.952H58.0473L58.1753 576.36C58.3993 575.848 58.73 575.453 59.1673 575.176C59.6153 574.899 60.1326 574.76 60.7193 574.76C61.3593 574.76 61.882 574.888 62.2873 575.144C62.6926 575.4 62.9913 575.795 63.1833 576.328C63.4286 575.848 63.786 575.469 64.2553 575.192C64.7353 574.904 65.274 574.76 65.8713 574.76ZM75.1777 574.952H76.4737V583H75.1777V574.952ZM76.6337 571.544V573.016H75.0497V571.544H76.6337ZM83.0062 574.76C84.9369 574.76 85.9022 575.821 85.9022 577.944V583H84.6062V578.008C84.6062 577.261 84.4569 576.717 84.1582 576.376C83.8595 576.024 83.3902 575.848 82.7502 575.848C82.0035 575.848 81.4062 576.077 80.9582 576.536C80.5102 576.995 80.2862 577.613 80.2862 578.392V583H78.9902V577.208C78.9902 576.376 78.9475 575.624 78.8622 574.952H80.0942L80.2222 576.392C80.4675 575.869 80.8355 575.469 81.3262 575.192C81.8169 574.904 82.3769 574.76 83.0062 574.76ZM90.0776 575.976V580.376C90.0776 580.973 90.2002 581.395 90.4456 581.64C90.6909 581.875 91.0376 581.992 91.4856 581.992C91.7842 581.992 92.0722 581.944 92.3496 581.848V582.952C92.0189 583.059 91.6456 583.112 91.2296 583.112C90.4616 583.112 89.8589 582.899 89.4216 582.472C88.9949 582.035 88.7816 581.395 88.7816 580.552V575.976H87.2136V574.952H88.7816V572.888L90.0776 572.424V574.952H92.3816V575.976H90.0776ZM100.679 574.952V583H99.4153V581.608C99.1593 582.099 98.802 582.472 98.3433 582.728C97.8846 582.984 97.3673 583.112 96.7913 583.112C95.842 583.112 95.122 582.845 94.6313 582.312C94.1406 581.779 93.8953 580.989 93.8953 579.944V574.952H95.1913V579.912C95.1913 580.637 95.3406 581.171 95.6393 581.512C95.938 581.853 96.3913 582.024 96.9993 582.024C97.714 582.024 98.29 581.795 98.7273 581.336C99.1646 580.867 99.3833 580.253 99.3833 579.496V574.952H100.679ZM103.178 574.952H104.474V583H103.178V574.952ZM104.634 571.544V573.016H103.05V571.544H104.634ZM108.718 575.976V580.376C108.718 580.973 108.841 581.395 109.086 581.64C109.332 581.875 109.678 581.992 110.126 581.992C110.425 581.992 110.713 581.944 110.99 581.848V582.952C110.66 583.059 110.286 583.112 109.87 583.112C109.102 583.112 108.5 582.899 108.062 582.472C107.636 582.035 107.422 581.395 107.422 580.552V575.976H105.854V574.952H107.422V572.888L108.718 572.424V574.952H111.022V575.976H108.718ZM112.584 574.952H113.88V583H112.584V574.952ZM114.04 571.544V573.016H112.456V571.544H114.04ZM123.468 574.968L119.996 583H118.764L115.34 574.968H116.7L119.42 581.592L122.172 574.968H123.468ZM131.539 578.936H125.635C125.645 579.96 125.88 580.733 126.339 581.256C126.808 581.779 127.485 582.04 128.371 582.04C129.309 582.04 130.173 581.725 130.963 581.096L131.395 582.04C131.043 582.371 130.589 582.632 130.035 582.824C129.491 583.016 128.931 583.112 128.355 583.112C127.096 583.112 126.109 582.744 125.395 582.008C124.68 581.261 124.323 580.243 124.323 578.952C124.323 578.131 124.483 577.405 124.803 576.776C125.123 576.136 125.571 575.64 126.147 575.288C126.723 574.936 127.379 574.76 128.115 574.76C129.181 574.76 130.019 575.112 130.627 575.816C131.235 576.509 131.539 577.469 131.539 578.696V578.936ZM128.131 575.768C127.459 575.768 126.909 575.971 126.483 576.376C126.067 576.781 125.8 577.352 125.683 578.088H130.371C130.307 577.331 130.083 576.755 129.699 576.36C129.325 575.965 128.803 575.768 128.131 575.768ZM133.506 571.224H134.802V583H133.506V571.224ZM144.39 574.952L140.63 583.736C140.236 584.653 139.74 585.325 139.142 585.752C138.545 586.179 137.809 586.472 136.934 586.632L136.662 585.624C137.42 585.453 137.99 585.224 138.374 584.936C138.769 584.659 139.094 584.227 139.35 583.64L139.67 582.92L136.262 574.952H137.622L140.342 581.592L143.094 574.952H144.39ZM146.649 581.352V583H145.001V581.352H146.649ZM162.7 571.608V583H161.388V577.768H154.556V583H153.26V571.608H154.556V576.664H161.388V571.608H162.7ZM172.438 574.952V583H171.158V581.544C170.923 582.045 170.566 582.435 170.086 582.712C169.616 582.979 169.067 583.112 168.438 583.112C167.723 583.112 167.094 582.941 166.55 582.6C166.016 582.259 165.6 581.779 165.302 581.16C165.014 580.531 164.87 579.8 164.87 578.968C164.87 578.136 165.019 577.405 165.318 576.776C165.616 576.136 166.032 575.64 166.566 575.288C167.11 574.936 167.734 574.76 168.438 574.76C169.067 574.76 169.616 574.899 170.086 575.176C170.555 575.453 170.912 575.843 171.158 576.344V574.952H172.438ZM168.694 582.04C169.483 582.04 170.091 581.773 170.518 581.24C170.944 580.696 171.158 579.928 171.158 578.936C171.158 577.944 170.944 577.181 170.518 576.648C170.091 576.115 169.483 575.848 168.694 575.848C167.904 575.848 167.286 576.125 166.838 576.68C166.4 577.224 166.182 577.987 166.182 578.968C166.182 579.949 166.4 580.707 166.838 581.24C167.275 581.773 167.894 582.04 168.694 582.04ZM182.015 574.968L178.543 583H177.311L173.887 574.968H175.247L177.967 581.592L180.719 574.968H182.015ZM190.086 578.936H184.182C184.192 579.96 184.427 580.733 184.886 581.256C185.355 581.779 186.032 582.04 186.918 582.04C187.856 582.04 188.72 581.725 189.51 581.096L189.942 582.04C189.59 582.371 189.136 582.632 188.582 582.824C188.038 583.016 187.478 583.112 186.902 583.112C185.643 583.112 184.656 582.744 183.942 582.008C183.227 581.261 182.87 580.243 182.87 578.952C182.87 578.131 183.03 577.405 183.35 576.776C183.67 576.136 184.118 575.64 184.694 575.288C185.27 574.936 185.926 574.76 186.662 574.76C187.728 574.76 188.566 575.112 189.174 575.816C189.782 576.509 190.086 577.469 190.086 578.696V578.936ZM186.678 575.768C186.006 575.768 185.456 575.971 185.03 576.376C184.614 576.781 184.347 577.352 184.23 578.088H188.918C188.854 577.331 188.63 576.755 188.246 576.36C187.872 575.965 187.35 575.768 186.678 575.768ZM199.313 572.28C198.886 572.28 198.55 572.403 198.305 572.648C198.07 572.883 197.953 573.293 197.953 573.88V574.952H199.921V575.976H197.953V583H196.657V575.976H195.089V574.952H196.657V573.72C196.657 572.877 196.865 572.243 197.281 571.816C197.707 571.379 198.299 571.16 199.057 571.16C199.43 571.16 199.793 571.208 200.145 571.304V572.408C199.846 572.323 199.569 572.28 199.313 572.28ZM208.351 574.952V583H207.087V581.608C206.831 582.099 206.474 582.472 206.015 582.728C205.557 582.984 205.039 583.112 204.463 583.112C203.514 583.112 202.794 582.845 202.303 582.312C201.813 581.779 201.567 580.989 201.567 579.944V574.952H202.863V579.912C202.863 580.637 203.013 581.171 203.311 581.512C203.61 581.853 204.063 582.024 204.671 582.024C205.386 582.024 205.962 581.795 206.399 581.336C206.837 580.867 207.055 580.253 207.055 579.496V574.952H208.351ZM214.866 574.76C216.796 574.76 217.762 575.821 217.762 577.944V583H216.466V578.008C216.466 577.261 216.316 576.717 216.018 576.376C215.719 576.024 215.25 575.848 214.61 575.848C213.863 575.848 213.266 576.077 212.818 576.536C212.37 576.995 212.146 577.613 212.146 578.392V583H210.85V577.208C210.85 576.376 210.807 575.624 210.722 574.952H211.954L212.082 576.392C212.327 575.869 212.695 575.469 213.186 575.192C213.676 574.904 214.236 574.76 214.866 574.76ZM231.469 574.952V583H230.189V581.544C229.954 582.045 229.597 582.435 229.117 582.712C228.647 582.979 228.098 583.112 227.469 583.112C226.754 583.112 226.125 582.941 225.581 582.6C225.047 582.259 224.631 581.779 224.333 581.16C224.045 580.531 223.901 579.8 223.901 578.968C223.901 578.136 224.05 577.405 224.349 576.776C224.647 576.136 225.063 575.64 225.597 575.288C226.141 574.936 226.765 574.76 227.469 574.76C228.098 574.76 228.647 574.899 229.117 575.176C229.586 575.453 229.943 575.843 230.189 576.344V574.952H231.469ZM227.725 582.04C228.514 582.04 229.122 581.773 229.549 581.24C229.975 580.696 230.189 579.928 230.189 578.936C230.189 577.944 229.975 577.181 229.549 576.648C229.122 576.115 228.514 575.848 227.725 575.848C226.935 575.848 226.317 576.125 225.869 576.68C225.431 577.224 225.213 577.987 225.213 578.968C225.213 579.949 225.431 580.707 225.869 581.24C226.306 581.773 226.925 582.04 227.725 582.04ZM237.991 574.76C239.921 574.76 240.887 575.821 240.887 577.944V583H239.591V578.008C239.591 577.261 239.441 576.717 239.143 576.376C238.844 576.024 238.375 575.848 237.735 575.848C236.988 575.848 236.391 576.077 235.943 576.536C235.495 576.995 235.271 577.613 235.271 578.392V583H233.975V577.208C233.975 576.376 233.932 575.624 233.847 574.952H235.079L235.207 576.392C235.452 575.869 235.82 575.469 236.311 575.192C236.801 574.904 237.361 574.76 237.991 574.76ZM250.422 571.224V583H249.142V581.544C248.907 582.045 248.55 582.435 248.07 582.712C247.601 582.979 247.051 583.112 246.422 583.112C245.718 583.112 245.094 582.936 244.55 582.584C244.017 582.232 243.601 581.741 243.302 581.112C243.003 580.472 242.854 579.736 242.854 578.904C242.854 578.072 242.998 577.347 243.286 576.728C243.585 576.099 244.006 575.613 244.55 575.272C245.094 574.931 245.718 574.76 246.422 574.76C247.051 574.76 247.601 574.899 248.07 575.176C248.539 575.443 248.891 575.821 249.126 576.312V571.224H250.422ZM246.678 582.04C247.467 582.04 248.075 581.773 248.502 581.24C248.929 580.696 249.142 579.928 249.142 578.936C249.142 577.955 248.929 577.197 248.502 576.664C248.075 576.12 247.467 575.848 246.678 575.848C245.889 575.848 245.27 576.115 244.822 576.648C244.385 577.181 244.166 577.933 244.166 578.904C244.166 579.896 244.385 580.669 244.822 581.224C245.27 581.768 245.889 582.04 246.678 582.04ZM257.1 571.224H258.396V583H257.1V571.224ZM267.648 578.936H261.744C261.755 579.96 261.989 580.733 262.448 581.256C262.917 581.779 263.595 582.04 264.48 582.04C265.419 582.04 266.283 581.725 267.072 581.096L267.504 582.04C267.152 582.371 266.699 582.632 266.144 582.824C265.6 583.016 265.04 583.112 264.464 583.112C263.205 583.112 262.219 582.744 261.504 582.008C260.789 581.261 260.432 580.243 260.432 578.952C260.432 578.131 260.592 577.405 260.912 576.776C261.232 576.136 261.68 575.64 262.256 575.288C262.832 574.936 263.488 574.76 264.224 574.76C265.291 574.76 266.128 575.112 266.736 575.816C267.344 576.509 267.648 577.469 267.648 578.696V578.936ZM264.24 575.768C263.568 575.768 263.019 575.971 262.592 576.376C262.176 576.781 261.909 577.352 261.792 578.088H266.48C266.416 577.331 266.192 576.755 265.808 576.36C265.435 575.965 264.912 575.768 264.24 575.768ZM271.296 575.976V580.376C271.296 580.973 271.419 581.395 271.664 581.64C271.91 581.875 272.256 581.992 272.704 581.992C273.003 581.992 273.291 581.944 273.568 581.848V582.952C273.238 583.059 272.864 583.112 272.448 583.112C271.68 583.112 271.078 582.899 270.64 582.472C270.214 582.035 270 581.395 270 580.552V575.976H268.432V574.952H270V572.888L271.296 572.424V574.952H273.6V575.976H271.296ZM276.508 571.608V572.776C276.508 573.224 276.433 573.635 276.284 574.008C276.135 574.381 275.884 574.749 275.532 575.112L274.924 574.632C275.34 574.152 275.575 573.693 275.628 573.256H274.86V571.608H276.508ZM281.038 583.112C279.684 583.112 278.612 582.765 277.822 582.072L278.254 581.112C278.692 581.453 279.134 581.699 279.582 581.848C280.03 581.997 280.532 582.072 281.086 582.072C281.694 582.072 282.153 581.971 282.462 581.768C282.782 581.555 282.942 581.251 282.942 580.856C282.942 580.536 282.836 580.28 282.622 580.088C282.409 579.896 282.057 579.747 281.566 579.64L280.206 579.32C279.534 579.171 279.012 578.904 278.638 578.52C278.276 578.136 278.094 577.677 278.094 577.144C278.094 576.44 278.377 575.869 278.942 575.432C279.508 574.984 280.254 574.76 281.182 574.76C281.748 574.76 282.281 574.851 282.782 575.032C283.284 575.213 283.705 575.475 284.046 575.816L283.614 576.76C282.857 576.131 282.046 575.816 281.182 575.816C280.606 575.816 280.158 575.928 279.838 576.152C279.529 576.365 279.374 576.669 279.374 577.064C279.374 577.395 279.47 577.656 279.662 577.848C279.865 578.04 280.185 578.189 280.622 578.296L281.982 578.632C282.729 578.803 283.284 579.069 283.646 579.432C284.009 579.784 284.19 580.248 284.19 580.824C284.19 581.517 283.908 582.072 283.342 582.488C282.777 582.904 282.009 583.112 281.038 583.112ZM293.148 583.112C291.793 583.112 290.721 582.765 289.932 582.072L290.364 581.112C290.801 581.453 291.244 581.699 291.692 581.848C292.14 581.997 292.641 582.072 293.196 582.072C293.804 582.072 294.262 581.971 294.572 581.768C294.892 581.555 295.052 581.251 295.052 580.856C295.052 580.536 294.945 580.28 294.732 580.088C294.518 579.896 294.166 579.747 293.676 579.64L292.316 579.32C291.644 579.171 291.121 578.904 290.748 578.52C290.385 578.136 290.204 577.677 290.204 577.144C290.204 576.44 290.486 575.869 291.052 575.432C291.617 574.984 292.364 574.76 293.292 574.76C293.857 574.76 294.39 574.851 294.892 575.032C295.393 575.213 295.814 575.475 296.156 575.816L295.724 576.76C294.966 576.131 294.156 575.816 293.292 575.816C292.716 575.816 292.268 575.928 291.948 576.152C291.638 576.365 291.484 576.669 291.484 577.064C291.484 577.395 291.58 577.656 291.772 577.848C291.974 578.04 292.294 578.189 292.732 578.296L294.092 578.632C294.838 578.803 295.393 579.069 295.756 579.432C296.118 579.784 296.3 580.248 296.3 580.824C296.3 581.517 296.017 582.072 295.452 582.488C294.886 582.904 294.118 583.112 293.148 583.112ZM300.015 575.976V580.376C300.015 580.973 300.138 581.395 300.383 581.64C300.628 581.875 300.975 581.992 301.423 581.992C301.722 581.992 302.01 581.944 302.287 581.848V582.952C301.956 583.059 301.583 583.112 301.167 583.112C300.399 583.112 299.796 582.899 299.359 582.472C298.932 582.035 298.719 581.395 298.719 580.552V575.976H297.151V574.952H298.719V572.888L300.015 572.424V574.952H302.319V575.976H300.015ZM310.969 574.952V583H309.689V581.544C309.454 582.045 309.097 582.435 308.617 582.712C308.147 582.979 307.598 583.112 306.969 583.112C306.254 583.112 305.625 582.941 305.081 582.6C304.547 582.259 304.131 581.779 303.833 581.16C303.545 580.531 303.401 579.8 303.401 578.968C303.401 578.136 303.55 577.405 303.849 576.776C304.147 576.136 304.563 575.64 305.097 575.288C305.641 574.936 306.265 574.76 306.969 574.76C307.598 574.76 308.147 574.899 308.617 575.176C309.086 575.453 309.443 575.843 309.689 576.344V574.952H310.969ZM307.225 582.04C308.014 582.04 308.622 581.773 309.049 581.24C309.475 580.696 309.689 579.928 309.689 578.936C309.689 577.944 309.475 577.181 309.049 576.648C308.622 576.115 308.014 575.848 307.225 575.848C306.435 575.848 305.817 576.125 305.369 576.68C304.931 577.224 304.713 577.987 304.713 578.968C304.713 579.949 304.931 580.707 305.369 581.24C305.806 581.773 306.425 582.04 307.225 582.04ZM317.219 574.76C317.485 574.76 317.731 574.792 317.955 574.856L317.923 576.04C317.677 575.955 317.395 575.912 317.075 575.912C316.296 575.912 315.715 576.157 315.331 576.648C314.957 577.128 314.771 577.715 314.771 578.408V583H313.475V577.208C313.475 576.376 313.432 575.624 313.347 574.952H314.579L314.707 576.44C314.909 575.896 315.235 575.48 315.683 575.192C316.131 574.904 316.643 574.76 317.219 574.76ZM321.624 575.976V580.376C321.624 580.973 321.747 581.395 321.992 581.64C322.238 581.875 322.584 581.992 323.032 581.992C323.331 581.992 323.619 581.944 323.896 581.848V582.952C323.566 583.059 323.192 583.112 322.776 583.112C322.008 583.112 321.406 582.899 320.968 582.472C320.542 582.035 320.328 581.395 320.328 580.552V575.976H318.76V574.952H320.328V572.888L321.624 572.424V574.952H323.928V575.976H321.624ZM325.298 571.608H326.914L326.498 580.008H325.698L325.298 571.608ZM326.93 581.352V583H325.282V581.352H326.93Z" fill="white"/>
<rect opacity="0.1" x="32" y="100" width="296" height="296" rx="32" fill="white"/>
<mask id="mask0_1_2584" style="mask-type:alpha" maskUnits="userSpaceOnUse" x="245" y="212" width="48" height="48">
<circle cx="269" cy="236" r="24" fill="#2C3032"/>
</mask>
<g mask="url(#mask0_1_2584)">
<path fill-rule="evenodd" clip-rule="evenodd" d="M293 236C293 249.255 282.255 260 269 260C255.745 260 245 249.255 245 236C245 222.745 255.745 212 269 212C282.255 212 293 222.745 293 236ZM285.543 227.066C285.543 230.018 283.15 232.412 280.197 232.412C277.245 232.412 274.852 230.018 274.852 227.066C274.852 224.113 277.245 221.72 280.197 221.72C283.15 221.72 285.543 224.113 285.543 227.066ZM269.991 226.58C271.602 226.58 272.907 225.274 272.907 223.664C272.907 222.053 271.602 220.748 269.991 220.748C268.381 220.748 267.075 222.053 267.075 223.664C267.075 225.274 268.381 226.58 269.991 226.58Z" fill="#272D69"/>
</g>
<mask id="mask1_1_2584" style="mask-type:alpha" maskUnits="userSpaceOnUse" x="67" y="212" width="48" height="48">
<circle cx="91" cy="236" r="24" fill="#2C3032"/>
</mask>
<g mask="url(#mask1_1_2584)">
<path fill-rule="evenodd" clip-rule="evenodd" d="M115 236C115 249.255 104.255 260 91 260C77.7452 260 67 249.255 67 236C67 222.745 77.7452 212 91 212C104.255 212 115 222.745 115 236ZM107.543 227.066C107.543 230.018 105.15 232.412 102.197 232.412C99.245 232.412 96.8516 230.018 96.8516 227.066C96.8516 224.113 99.245 221.72 102.197 221.72C105.15 221.72 107.543 224.113 107.543 227.066ZM91.9911 226.58C93.6016 226.58 94.9071 225.274 94.9071 223.664C94.9071 222.053 93.6016 220.748 91.9911 220.748C90.3807 220.748 89.0752 222.053 89.0752 223.664C89.0752 225.274 90.3807 226.58 91.9911 226.58Z" fill="#272D69"/>
</g>
<path d="M239.466 294.591C239.466 314.469 212.618 343.438 179.5 343.438C146.382 343.438 119.534 314.469 119.534 294.591C119.534 274.712 146.382 300.161 179.5 300.161C212.618 300.161 239.466 274.712 239.466 294.591Z" fill="#272D69"/>
<path d="M302 167.907C302 159.806 287.002 148 268.5 148C249.998 148 235 159.806 235 167.907C235 176.008 249.998 165.637 268.5 165.637C287.002 165.637 302 176.008 302 167.907Z" fill="#272D69"/>
<path d="M124 167.907C124 159.806 109.002 148 90.5 148C71.9985 148 57 159.806 57 167.907C57 176.008 71.9985 165.637 90.5 165.637C109.002 165.637 124 176.008 124 167.907Z" fill="#272D69"/>
<rect x="32" y="652" width="296" height="52" rx="26" fill="#272D69"/>
<path d="M161.688 684.16C160.419 684.16 159.352 683.925 158.488 683.456C157.624 682.987 156.973 682.32 156.536 681.456C156.099 680.592 155.88 679.568 155.88 678.384C155.88 677.189 156.115 676.16 156.584 675.296C157.053 674.421 157.725 673.749 158.6 673.28C159.485 672.8 160.547 672.56 161.784 672.56C162.605 672.56 163.325 672.672 163.944 672.896C164.563 673.109 165.107 673.424 165.576 673.84L164.888 675.44C164.547 675.173 164.221 674.96 163.912 674.8C163.603 674.64 163.283 674.528 162.952 674.464C162.621 674.389 162.237 674.352 161.8 674.352C160.563 674.352 159.624 674.704 158.984 675.408C158.355 676.101 158.04 677.099 158.04 678.4C158.04 679.701 158.339 680.693 158.936 681.376C159.544 682.059 160.493 682.4 161.784 682.4C162.221 682.4 162.659 682.357 163.096 682.272C163.544 682.187 163.981 682.064 164.408 681.904L164.024 682.768V679.392H161.384V677.888H165.736V683.312C165.213 683.579 164.589 683.787 163.864 683.936C163.139 684.085 162.413 684.16 161.688 684.16ZM172.22 684.16C171.388 684.16 170.668 683.989 170.06 683.648C169.452 683.307 168.977 682.821 168.636 682.192C168.305 681.563 168.14 680.816 168.14 679.952C168.14 679.088 168.305 678.347 168.636 677.728C168.977 677.099 169.452 676.613 170.06 676.272C170.668 675.931 171.388 675.76 172.22 675.76C173.052 675.76 173.772 675.931 174.38 676.272C174.998 676.613 175.473 677.099 175.804 677.728C176.145 678.347 176.316 679.088 176.316 679.952C176.316 680.816 176.145 681.563 175.804 682.192C175.473 682.821 174.998 683.307 174.38 683.648C173.772 683.989 173.052 684.16 172.22 684.16ZM172.22 682.624C172.849 682.624 173.35 682.405 173.724 681.968C174.097 681.52 174.284 680.848 174.284 679.952C174.284 679.056 174.097 678.389 173.724 677.952C173.35 677.515 172.849 677.296 172.22 677.296C171.59 677.296 171.089 677.515 170.716 677.952C170.342 678.389 170.156 679.056 170.156 679.952C170.156 680.848 170.342 681.52 170.716 681.968C171.089 682.405 171.59 682.624 172.22 682.624ZM182.058 684.16C181.098 684.16 180.373 683.909 179.882 683.408C179.392 682.907 179.146 682.155 179.146 681.152V677.424H177.594V675.92H179.146V673.856L181.146 673.344V675.92H183.306V677.424H181.146V681.024C181.146 681.579 181.253 681.968 181.466 682.192C181.68 682.416 181.973 682.528 182.346 682.528C182.549 682.528 182.72 682.512 182.858 682.48C183.008 682.448 183.152 682.405 183.29 682.352V683.936C183.109 684.011 182.906 684.064 182.682 684.096C182.469 684.139 182.261 684.16 182.058 684.16ZM190.336 684V675.92H192.336V684H190.336ZM190.224 674.4V672.448H192.448V674.4H190.224ZM198.603 684.16C197.643 684.16 196.918 683.909 196.427 683.408C195.937 682.907 195.691 682.155 195.691 681.152V677.424H194.139V675.92H195.691V673.856L197.691 673.344V675.92H199.851V677.424H197.691V681.024C197.691 681.579 197.798 681.968 198.011 682.192C198.225 682.416 198.518 682.528 198.891 682.528C199.094 682.528 199.265 682.512 199.403 682.48C199.553 682.448 199.697 682.405 199.835 682.352V683.936C199.654 684.011 199.451 684.064 199.227 684.096C199.014 684.139 198.806 684.16 198.603 684.16ZM202.169 680.656L201.545 672.72H204.009L203.385 680.656H202.169ZM201.657 684V681.776H203.897V684H201.657Z" fill="white"/>
<rect x="140" y="733" width="8" height="6" rx="3" stroke="white" stroke-width="2"/>
<rect x="164" y="733" width="8" height="6" rx="3" stroke="white" stroke-width="2"/>
<rect x="188" y="733" width="32" height="6" rx="3" fill="white"/>
<g filter="url(#filter0_b_1_2584)">
<path fill-rule="evenodd" clip-rule="evenodd" d="M28.4142 57L30.7071 59.2929C31.0976 59.6834 31.0976 60.3166 30.7071 60.7071C30.3166 61.0976 29.6834 61.0976 29.2929 60.7071L25.2929 56.7071C24.9024 56.3166 24.9024 55.6834 25.2929 55.2929L29.2929 51.2929C29.6834 50.9024 30.3166 50.9024 30.7071 51.2929C31.0976 51.6834 31.0976 52.3166 30.7071 52.7071L28.4142 55L33 55C36.3137 55 39 57.6863 39 61L39 64C39 64.5523 38.5523 65 38 65C37.4477 65 37 64.5523 37 64L37 61C37 58.7909 35.2091 57 33 57L28.4142 57Z" fill="white"/>
</g>
</g>
<defs>
<filter id="filter0_b_1_2584" x="-6" y="-6" width="373" height="96" filterUnits="userSpaceOnUse" color-interpolation-filters="sRGB">
<feFlood flood-opacity="0" result="BackgroundImageFix"/>
<feGaussianBlur in="BackgroundImageFix" stdDeviation="3"/>
<feComposite in2="SourceAlpha" operator="in" result="effect1_backgroundBlur_1_2584"/>
<feBlend mode="normal" in="SourceGraphic" in2="effect1_backgroundBlur_1_2584" result="shape"/>
</filter>
<clipPath id="clip0_1_2584">
<rect width="360" height="780" rx="30" fill="white"/>
</clipPath>
</defs>
</svg>
