<svg width="178" height="125" viewBox="0 0 178 125" fill="none" xmlns="http://www.w3.org/2000/svg">
<path d="M54.7285 46.78L35.0714 8.08034C34.9389 7.81959 34.6205 7.71494 34.3608 7.8494C32.514 8.80548 30.5112 9.97507 28.7717 11.1136C28.5261 11.2743 28.4614 11.6047 28.6252 11.8482L39.6041 28.1627L52.8534 47.8516" stroke="#008080" stroke-width="1.6973" stroke-miterlimit="10"/>
<path d="M45.7511 56.9728L33.8947 53.1C33.6166 53.0092 33.3169 53.1605 33.2293 53.4397C33.0019 54.164 32.8328 54.7868 32.6629 55.5265C32.5973 55.8123 32.7802 56.0949 33.0669 56.1564L45.234 58.7656" stroke="#008080" stroke-width="1.6973" stroke-miterlimit="10"/>
<path d="M44.7742 62.786L1.53036 63.4334C1.23745 63.4378 1.00335 63.6793 1.00953 63.9721C1.05035 65.9073 1.1527 67.4188 1.37274 69.3422C1.40602 69.6332 1.67028 69.8409 1.96101 69.806L44.8701 64.6585" stroke="#008080" stroke-width="1.6973" stroke-miterlimit="10"/>
<path d="M46.4508 70.3814L23.0644 81.6848C22.8003 81.8124 22.6898 82.1306 22.8203 82.3934C23.3904 83.5409 23.8923 84.4489 24.5608 85.5427C24.7133 85.7922 25.04 85.8685 25.2886 85.7145L47.3438 72.0474" stroke="#008080" stroke-width="1.6973" stroke-miterlimit="10"/>
<path d="M49.852 75.2888L19.3443 105.559C19.1359 105.766 19.1352 106.103 19.3438 106.31C20.7218 107.674 21.8488 108.691 23.3478 109.922C23.5737 110.108 23.9074 110.074 24.0923 109.847L51.2481 76.5766" stroke="#008080" stroke-width="1.6973" stroke-miterlimit="10"/>
<path d="M52.7754 77.7087L29.2674 113.61C29.1067 113.855 29.1755 114.185 29.423 114.343C31.1771 115.459 33.1945 116.604 35.0533 117.537C35.3147 117.668 35.6318 117.559 35.7609 117.297L54.6959 78.8244" stroke="#008080" stroke-width="1.6973" stroke-miterlimit="10"/>
<path d="M60.4547 80.5702L55.1162 123.064C55.0797 123.355 55.2863 123.62 55.5773 123.655C57.5062 123.884 59.0222 123.993 60.964 124.044C61.2568 124.051 61.4994 123.818 61.5053 123.525L62.3592 80.7095" stroke="#008080" stroke-width="1.6973" stroke-miterlimit="10"/>
<path d="M72.0636 78.1045L94.1144 114.9C94.2647 115.151 94.5901 115.232 94.8404 115.081C96.5017 114.078 97.7639 113.233 99.3246 112.082C99.5608 111.907 99.6087 111.574 99.4323 111.339L73.6342 77.0296" stroke="#008080" stroke-width="1.6973" stroke-miterlimit="10"/>
<path d="M75.0818 75.7984L93.6617 95.7623C93.8608 95.9763 94.1957 95.9891 94.4077 95.7877C95.4721 94.7762 96.5901 93.6073 97.5529 92.4991C97.7454 92.2775 97.7165 91.942 97.4919 91.7531L76.594 74.182" stroke="#008080" stroke-width="1.6973" stroke-miterlimit="10"/>
<path d="M77.3209 52.3789L102.992 34.5489C103.233 34.3815 103.293 34.05 103.122 33.8115C102.185 32.5055 101.08 31.1139 100.021 29.9052C99.8284 29.6854 99.4937 29.6672 99.2757 29.862L75.9498 50.701" stroke="#008080" stroke-width="1.6973" stroke-miterlimit="10"/>
<path d="M69.6742 46.2979L82.3676 16.6812C82.4832 16.4115 82.3579 16.099 82.0871 15.986C80.6923 15.4042 79.5592 14.9898 78.1174 14.5346C77.8384 14.4466 77.5418 14.6035 77.4554 14.883L67.9321 45.6727" stroke="#008080" stroke-width="1.6973" stroke-miterlimit="10"/>
<path d="M62.149 44.9156L60.7355 1.52993C60.726 1.23723 60.4806 1.00744 60.1879 1.01864C58.2467 1.09296 56.7324 1.22132 54.8068 1.47448C54.5162 1.51268 54.3129 1.78086 54.3531 2.07119L60.3067 45.0684" stroke="#008080" stroke-width="1.6973" stroke-miterlimit="10"/>
<path d="M52.8535 47.8513L39.8996 28.6013C39.7363 28.3588 39.4071 28.2939 39.1656 28.4588C38.2034 29.1157 37.4416 29.685 36.5397 30.4214C36.3123 30.6071 36.2822 30.9429 36.4707 31.1679L51.361 48.9492" stroke="#008080" stroke-width="1.6973" stroke-miterlimit="10"/>
<path d="M45.2339 58.768L32.5475 56.0474L13.9059 52.0492C13.6198 51.9878 13.3377 52.1698 13.2781 52.4563C12.9718 53.9295 12.7806 55.1154 12.6075 56.6101C12.5738 56.9013 12.785 57.163 13.0764 57.1943L44.9071 60.6084" stroke="#008080" stroke-width="1.6973" stroke-miterlimit="10"/>
<path d="M70.0953 79.1377L80.8351 103.348C80.9537 103.616 81.2664 103.737 81.5325 103.615C82.8444 103.015 84.2554 102.287 85.5042 101.566C85.7583 101.419 85.8404 101.092 85.6895 100.841L72.0635 78.1032" stroke="#008080" stroke-width="1.6973" stroke-miterlimit="10"/>
<path d="M74.6228 49.4033L108.732 11.8159C108.93 11.5986 108.913 11.262 108.694 11.0666C107.035 9.58627 105.697 8.5007 103.906 7.18188C103.671 7.0085 103.34 7.06009 103.167 7.29597L73.1718 48.2496" stroke="#008080" stroke-width="1.6973" stroke-miterlimit="10"/>
<path d="M48.5552 51.8195L26.5316 35.1878C26.2983 35.0116 25.9661 35.0574 25.7912 35.2917C24.9935 36.36 24.3888 37.249 23.6888 38.3828C23.5346 38.6325 23.6154 38.9596 23.8668 39.111L47.4868 53.3398" stroke="#008080" stroke-width="1.6973" stroke-miterlimit="10"/>
<path d="M96.668 57.5247C96.444 57.7207 96.1038 57.6924 95.8994 57.476C94.5191 56.0146 92.9393 55.386 91.0226 55.386C86.3619 55.386 84.0094 58.8021 84.0094 63.006C84.0094 67.21 86.8055 70.6261 91.0226 70.6261C93.0743 70.6261 94.6882 69.9782 95.9312 68.5522C96.14 68.3127 96.5081 68.2768 96.7402 68.4939L98.5036 70.1439C98.7126 70.3396 98.7297 70.6672 98.5293 70.8716C96.557 72.8833 93.8688 73.7793 91.0226 73.7793C84.5859 73.7793 80.2808 69.312 80.2808 63.006C80.2808 56.787 84.6302 52.2328 91.0226 52.2328C93.9007 52.2328 96.5828 53.1223 98.6268 55.0835C98.8431 55.2909 98.8248 55.6369 98.5994 55.8343L96.668 57.5247Z" fill="#008080"/>
<path d="M123.315 68.3924C123.315 70.0365 123.451 71.4799 123.485 72.7234C123.493 73.0162 123.256 73.2537 122.963 73.2537H120.739C120.446 73.2537 120.208 73.0162 120.202 72.7233C120.182 71.8108 120.122 70.8733 120.12 69.9354C120.119 69.9056 120.095 69.8814 120.065 69.8814V69.8814C120.044 69.8814 120.025 69.8934 120.016 69.9125C119.072 71.9152 116.507 73.7793 113.107 73.7793C107.647 73.7793 105.205 70.3633 105.205 65.4146V53.2888C105.205 52.9959 105.443 52.7584 105.736 52.7584H108.137C108.43 52.7584 108.668 52.9959 108.668 53.2888V65.0643C108.668 68.4804 110.177 70.6261 113.418 70.6261C117.9 70.6261 119.853 67.4291 119.853 62.7432V53.2888C119.853 52.9959 120.091 52.7584 120.384 52.7584H122.785C123.078 52.7584 123.315 52.9959 123.315 53.2888V68.3924" fill="#008080"/>
<path d="M132.396 40.7767C132.396 40.4838 132.634 40.2463 132.927 40.2463H135.328C135.621 40.2463 135.858 40.4838 135.858 40.7767V72.8241C135.858 73.117 135.621 73.3545 135.328 73.3545H132.927C132.634 73.3545 132.396 73.117 132.396 72.8241V40.7767Z" fill="#008080"/>
<path d="M144.902 53.3896C144.902 53.0967 145.14 52.8592 145.433 52.8592H147.834C148.127 52.8592 148.365 53.0967 148.365 53.3896V72.8241C148.365 73.117 148.127 73.3545 147.834 73.3545H145.433C145.14 73.3545 144.902 73.117 144.902 72.8241V53.3896ZM146.634 42.3488C148.054 42.3488 149.164 43.4875 149.164 44.8447C149.164 46.2899 148.098 47.3412 146.634 47.3412C145.169 47.3412 144.103 46.2899 144.103 44.8447C144.103 43.4875 145.213 42.3488 146.634 42.3488Z" fill="#008080"/>
<path d="M165.891 55.386C161.254 55.386 158.269 58.7141 158.269 63.006C158.269 67.298 161.254 70.6261 165.891 70.6261C170.529 70.6261 173.513 67.298 173.513 63.006C173.513 58.7141 170.529 55.386 165.891 55.386ZM173.513 69.6766C173.513 69.6445 173.487 69.6185 173.455 69.6185V69.6185C173.434 69.6185 173.415 69.6295 173.405 69.6475C172.064 71.9549 168.997 73.7793 165.157 73.7793C159.142 73.7793 154.413 69.1371 154.413 63.006C154.413 56.787 158.958 52.2328 165.708 52.2328C168.82 52.2328 171.43 53.538 173.402 55.7153C173.415 55.7286 173.432 55.7363 173.45 55.7363V55.7363C173.485 55.7363 173.513 55.7079 173.513 55.6728V40.6759C173.513 40.3829 173.751 40.1455 174.043 40.1455H176.564C176.857 40.1455 177.095 40.3829 177.095 40.6759V72.7233C177.095 73.0162 176.857 73.2537 176.564 73.2537H174.043C173.751 73.2537 173.513 73.0162 173.513 72.7233V69.6766Z" fill="#008080"/>
<path d="M55.1664 62.9306C55.1664 65.1727 55.9111 67.0746 57.4005 68.6363C58.8899 70.1826 60.6941 70.9557 62.813 70.9557C64.9166 70.9557 66.7055 70.1826 68.1795 68.6363C69.6536 67.0746 70.3906 65.1727 70.3906 62.9306C70.3906 60.6886 69.6536 58.7944 68.1795 57.2482C66.7055 55.6864 64.9166 54.9056 62.813 54.9056C60.6787 54.9056 58.8669 55.6864 57.3774 57.2482C55.9034 58.7944 55.1664 60.6886 55.1664 62.9306ZM51.343 62.9306C51.343 61.3689 51.6271 59.9 52.1952 58.5238C52.7633 57.1322 53.5925 55.8952 54.6827 54.8128C55.7729 53.7304 57.0089 52.9109 58.3909 52.3543C59.7728 51.7822 61.2469 51.4961 62.813 51.4961C64.3485 51.4961 65.7995 51.7822 67.1661 52.3543C68.5481 52.9264 69.7995 53.7614 70.9204 54.8592C72.0106 55.9261 72.8397 57.1554 73.4078 58.547C73.976 59.9232 74.26 61.3844 74.26 62.9306C74.26 64.4769 73.976 65.9381 73.4078 67.3143C72.8397 68.675 72.0106 69.8888 70.9204 70.9557C69.7995 72.069 68.5404 72.9194 67.1431 73.507C65.7612 74.0946 64.3178 74.3884 62.813 74.3884C61.2622 74.3884 59.7881 74.0946 58.3909 73.507C57.0089 72.9349 55.7729 72.1077 54.6827 71.0253C53.5925 69.912 52.7633 68.675 52.1952 67.3143C51.6271 65.9536 51.343 64.4924 51.343 62.9306Z" fill="#008080"/>
</svg>
