<svg width="360" height="780" viewBox="0 0 360 780" fill="none" xmlns="http://www.w3.org/2000/svg">
<g clip-path="url(#clip0_1_2113)">
<rect width="360" height="780" rx="30" fill="#008080"/>
<path d="M171.788 99.4557C175.614 92.6693 185.386 92.6693 189.212 99.4557L235.862 182.221C237.289 184.753 239.746 186.539 242.595 187.113L335.725 205.904C343.362 207.445 346.382 216.74 341.109 222.475L276.811 292.417C274.844 294.557 273.905 297.446 274.238 300.333L285.146 394.712C286.04 402.451 278.134 408.195 271.051 404.953L184.662 365.415C182.019 364.205 178.981 364.205 176.338 365.415L89.9494 404.953C82.8658 408.195 74.9595 402.451 75.8539 394.712L86.7615 300.333C87.0952 297.446 86.1564 294.557 84.1895 292.417L19.8905 222.475C14.6183 216.74 17.6382 207.445 25.2745 205.904L118.405 187.113C121.254 186.539 123.711 184.753 125.138 182.221L171.788 99.4557Z" fill="#007E7E"/>
<path d="M36.4487 539V528.84H32.4647V527.72H41.7447V528.84H37.7767V539H36.4487ZM45.0778 539.144C44.3631 539.144 43.7391 538.979 43.2058 538.648C42.6725 538.307 42.2565 537.827 41.9578 537.208C41.6698 536.589 41.5258 535.848 41.5258 534.984C41.5258 534.109 41.6698 533.363 41.9578 532.744C42.2565 532.125 42.6725 531.651 43.2058 531.32C43.7391 530.989 44.3631 530.824 45.0778 530.824C45.8031 530.824 46.4271 531.011 46.9498 531.384C47.4831 531.747 47.8351 532.243 48.0058 532.872H47.8138L47.9898 530.968H49.2378C49.2058 531.277 49.1738 531.592 49.1418 531.912C49.1205 532.221 49.1098 532.525 49.1098 532.824V539H47.8138V537.112H47.9898C47.8191 537.741 47.4671 538.237 46.9338 538.6C46.4005 538.963 45.7818 539.144 45.0778 539.144ZM45.3338 538.088C46.1018 538.088 46.7098 537.827 47.1578 537.304C47.6058 536.771 47.8298 535.997 47.8298 534.984C47.8298 533.96 47.6058 533.187 47.1578 532.664C46.7098 532.131 46.1018 531.864 45.3338 531.864C44.5765 531.864 43.9685 532.131 43.5098 532.664C43.0618 533.187 42.8378 533.96 42.8378 534.984C42.8378 535.997 43.0618 536.771 43.5098 537.304C43.9685 537.827 44.5765 538.088 45.3338 538.088ZM51.6156 539V527.224H52.9116V534.536H52.9436L56.6716 530.968H58.3036L53.9036 535.16L53.9356 534.504L58.7196 539H57.0396L52.9436 535.224H52.9116V539H51.6156ZM63.2148 539.144C61.9561 539.144 60.9641 538.781 60.2388 538.056C59.5135 537.32 59.1508 536.301 59.1508 535C59.1508 534.157 59.3108 533.427 59.6308 532.808C59.9508 532.179 60.3988 531.693 60.9748 531.352C61.5508 531 62.2121 530.824 62.9588 530.824C63.6948 530.824 64.3135 530.979 64.8148 531.288C65.3161 531.597 65.7001 532.04 65.9668 532.616C66.2335 533.181 66.3668 533.853 66.3668 534.632V535.112H60.1428V534.296H65.5188L65.2468 534.504C65.2468 533.651 65.0548 532.984 64.6708 532.504C64.2868 532.024 63.7161 531.784 62.9588 531.784C62.1588 531.784 61.5348 532.067 61.0868 532.632C60.6388 533.187 60.4148 533.939 60.4148 534.888V535.032C60.4148 536.035 60.6601 536.797 61.1508 537.32C61.6521 537.832 62.3508 538.088 63.2468 538.088C63.7268 538.088 64.1748 538.019 64.5908 537.88C65.0175 537.731 65.4228 537.491 65.8068 537.16L66.2548 538.072C65.9028 538.413 65.4548 538.68 64.9108 538.872C64.3775 539.053 63.8121 539.144 63.2148 539.144ZM75.5778 539.144C74.8631 539.144 74.2391 538.979 73.7058 538.648C73.1725 538.307 72.7565 537.827 72.4578 537.208C72.1698 536.589 72.0258 535.848 72.0258 534.984C72.0258 534.109 72.1698 533.363 72.4578 532.744C72.7565 532.125 73.1725 531.651 73.7058 531.32C74.2391 530.989 74.8631 530.824 75.5778 530.824C76.3031 530.824 76.9271 531.011 77.4498 531.384C77.9831 531.747 78.3351 532.243 78.5058 532.872H78.3138L78.4898 530.968H79.7378C79.7058 531.277 79.6738 531.592 79.6418 531.912C79.6205 532.221 79.6098 532.525 79.6098 532.824V539H78.3138V537.112H78.4898C78.3191 537.741 77.9671 538.237 77.4338 538.6C76.9005 538.963 76.2818 539.144 75.5778 539.144ZM75.8338 538.088C76.6018 538.088 77.2098 537.827 77.6578 537.304C78.1058 536.771 78.3298 535.997 78.3298 534.984C78.3298 533.96 78.1058 533.187 77.6578 532.664C77.2098 532.131 76.6018 531.864 75.8338 531.864C75.0765 531.864 74.4685 532.131 74.0098 532.664C73.5618 533.187 73.3378 533.96 73.3378 534.984C73.3378 535.997 73.5618 536.771 74.0098 537.304C74.4685 537.827 75.0765 538.088 75.8338 538.088ZM89.6634 539.144C88.8741 539.144 88.1861 538.973 87.5994 538.632C87.0234 538.291 86.5754 537.805 86.2554 537.176C85.9461 536.547 85.7914 535.8 85.7914 534.936C85.7914 534.061 85.9514 533.32 86.2714 532.712C86.5914 532.093 87.0394 531.624 87.6154 531.304C88.2021 530.984 88.8848 530.824 89.6634 530.824C90.1754 530.824 90.6714 530.915 91.1514 531.096C91.6421 531.277 92.0474 531.533 92.3674 531.864L91.9034 532.792C91.5834 532.483 91.2314 532.253 90.8474 532.104C90.4741 531.955 90.1061 531.88 89.7434 531.88C88.9114 531.88 88.2661 532.141 87.8074 532.664C87.3488 533.187 87.1194 533.949 87.1194 534.952C87.1194 535.944 87.3488 536.712 87.8074 537.256C88.2661 537.8 88.9114 538.072 89.7434 538.072C90.0954 538.072 90.4581 538.003 90.8314 537.864C91.2154 537.725 91.5728 537.496 91.9034 537.176L92.3674 538.088C92.0368 538.429 91.6261 538.691 91.1354 538.872C90.6448 539.053 90.1541 539.144 89.6634 539.144ZM97.3491 539.144C96.5811 539.144 95.9091 538.979 95.3331 538.648C94.7677 538.307 94.3304 537.827 94.0211 537.208C93.7117 536.579 93.5571 535.837 93.5571 534.984C93.5571 534.12 93.7117 533.379 94.0211 532.76C94.3304 532.141 94.7677 531.667 95.3331 531.336C95.9091 530.995 96.5811 530.824 97.3491 530.824C98.1277 530.824 98.7997 530.995 99.3651 531.336C99.9411 531.667 100.384 532.141 100.693 532.76C101.013 533.379 101.173 534.12 101.173 534.984C101.173 535.837 101.013 536.579 100.693 537.208C100.384 537.827 99.9411 538.307 99.3651 538.648C98.7997 538.979 98.1277 539.144 97.3491 539.144ZM97.3491 538.088C98.1171 538.088 98.7251 537.827 99.1731 537.304C99.6211 536.771 99.8451 535.997 99.8451 534.984C99.8451 533.96 99.6157 533.187 99.1571 532.664C98.7091 532.131 98.1064 531.864 97.3491 531.864C96.5917 531.864 95.9891 532.131 95.5411 532.664C95.0931 533.187 94.8691 533.96 94.8691 534.984C94.8691 535.997 95.0931 536.771 95.5411 537.304C95.9891 537.827 96.5917 538.088 97.3491 538.088ZM103.194 539V532.824C103.194 532.525 103.178 532.221 103.146 531.912C103.124 531.592 103.098 531.277 103.066 530.968H104.314L104.474 532.728H104.282C104.495 532.12 104.831 531.651 105.29 531.32C105.759 530.989 106.324 530.824 106.986 530.824C107.658 530.824 108.202 530.984 108.618 531.304C109.044 531.624 109.332 532.12 109.482 532.792H109.242C109.444 532.184 109.802 531.704 110.314 531.352C110.826 531 111.423 530.824 112.106 530.824C112.991 530.824 113.658 531.08 114.106 531.592C114.554 532.093 114.778 532.888 114.778 533.976V539H113.482V534.056C113.482 533.299 113.348 532.749 113.082 532.408C112.815 532.056 112.388 531.88 111.802 531.88C111.13 531.88 110.596 532.115 110.202 532.584C109.818 533.043 109.626 533.661 109.626 534.44V539H108.33V534.056C108.33 533.299 108.196 532.749 107.93 532.408C107.663 532.056 107.236 531.88 106.65 531.88C105.978 531.88 105.45 532.115 105.066 532.584C104.682 533.043 104.49 533.661 104.49 534.44V539H103.194ZM117.657 539V531.976H116.089V530.968H118.009L117.657 531.304V529.96C117.657 529.053 117.886 528.36 118.345 527.88C118.803 527.4 119.459 527.16 120.313 527.16C120.526 527.16 120.745 527.181 120.969 527.224C121.203 527.256 121.395 527.304 121.545 527.368V528.44C121.417 528.387 121.257 528.344 121.065 528.312C120.883 528.269 120.697 528.248 120.505 528.248C120.174 528.248 119.891 528.317 119.657 528.456C119.422 528.584 119.246 528.781 119.129 529.048C119.011 529.315 118.953 529.656 118.953 530.072V531.24L118.745 530.968H121.193V531.976H118.953V539H117.657ZM125.724 539.144C124.956 539.144 124.284 538.979 123.708 538.648C123.143 538.307 122.705 537.827 122.396 537.208C122.087 536.579 121.932 535.837 121.932 534.984C121.932 534.12 122.087 533.379 122.396 532.76C122.705 532.141 123.143 531.667 123.708 531.336C124.284 530.995 124.956 530.824 125.724 530.824C126.503 530.824 127.175 530.995 127.74 531.336C128.316 531.667 128.759 532.141 129.068 532.76C129.388 533.379 129.548 534.12 129.548 534.984C129.548 535.837 129.388 536.579 129.068 537.208C128.759 537.827 128.316 538.307 127.74 538.648C127.175 538.979 126.503 539.144 125.724 539.144ZM125.724 538.088C126.492 538.088 127.1 537.827 127.548 537.304C127.996 536.771 128.22 535.997 128.22 534.984C128.22 533.96 127.991 533.187 127.532 532.664C127.084 532.131 126.481 531.864 125.724 531.864C124.967 531.864 124.364 532.131 123.916 532.664C123.468 533.187 123.244 533.96 123.244 534.984C123.244 535.997 123.468 536.771 123.916 537.304C124.364 537.827 124.967 538.088 125.724 538.088ZM131.537 539V532.904C131.537 532.584 131.526 532.259 131.505 531.928C131.494 531.597 131.473 531.277 131.441 530.968H132.689L132.849 532.92L132.625 532.936C132.731 532.456 132.918 532.061 133.185 531.752C133.451 531.443 133.766 531.213 134.129 531.064C134.491 530.904 134.87 530.824 135.265 530.824C135.425 530.824 135.563 530.829 135.681 530.84C135.809 530.851 135.926 530.877 136.033 530.92L136.017 532.072C135.857 532.019 135.707 531.987 135.569 531.976C135.441 531.955 135.291 531.944 135.121 531.944C134.651 531.944 134.241 532.056 133.889 532.28C133.547 532.504 133.286 532.792 133.105 533.144C132.934 533.496 132.849 533.869 132.849 534.264V539H131.537ZM140.651 539.144C139.862 539.144 139.259 538.92 138.843 538.472C138.427 538.013 138.219 537.325 138.219 536.408V531.976H136.651V530.968H138.219V528.776L139.515 528.408V530.968H141.819V531.976H139.515V536.264C139.515 536.904 139.622 537.363 139.835 537.64C140.059 537.907 140.39 538.04 140.827 538.04C141.03 538.04 141.211 538.024 141.371 537.992C141.531 537.949 141.675 537.901 141.803 537.848V538.936C141.654 539 141.472 539.048 141.259 539.08C141.056 539.123 140.854 539.144 140.651 539.144ZM146.453 539.144C145.738 539.144 145.114 538.979 144.581 538.648C144.047 538.307 143.631 537.827 143.333 537.208C143.045 536.589 142.901 535.848 142.901 534.984C142.901 534.109 143.045 533.363 143.333 532.744C143.631 532.125 144.047 531.651 144.581 531.32C145.114 530.989 145.738 530.824 146.453 530.824C147.178 530.824 147.802 531.011 148.325 531.384C148.858 531.747 149.21 532.243 149.381 532.872H149.189L149.365 530.968H150.613C150.581 531.277 150.549 531.592 150.517 531.912C150.495 532.221 150.485 532.525 150.485 532.824V539H149.189V537.112H149.365C149.194 537.741 148.842 538.237 148.309 538.6C147.775 538.963 147.157 539.144 146.453 539.144ZM146.709 538.088C147.477 538.088 148.085 537.827 148.533 537.304C148.981 536.771 149.205 535.997 149.205 534.984C149.205 533.96 148.981 533.187 148.533 532.664C148.085 532.131 147.477 531.864 146.709 531.864C145.951 531.864 145.343 532.131 144.885 532.664C144.437 533.187 144.213 533.96 144.213 534.984C144.213 535.997 144.437 536.771 144.885 537.304C145.343 537.827 145.951 538.088 146.709 538.088ZM157.023 539.144C156.297 539.144 155.673 538.963 155.151 538.6C154.628 538.227 154.276 537.72 154.095 537.08H154.271V539H152.991V527.224H154.287V532.84H154.095C154.276 532.221 154.628 531.731 155.151 531.368C155.673 531.005 156.297 530.824 157.023 530.824C157.748 530.824 158.372 530.995 158.895 531.336C159.428 531.667 159.839 532.141 160.127 532.76C160.425 533.379 160.575 534.12 160.575 534.984C160.575 535.848 160.425 536.589 160.127 537.208C159.828 537.827 159.412 538.307 158.879 538.648C158.356 538.979 157.737 539.144 157.023 539.144ZM156.751 538.088C157.508 538.088 158.116 537.827 158.575 537.304C159.033 536.781 159.263 536.008 159.263 534.984C159.263 533.96 159.033 533.187 158.575 532.664C158.116 532.131 157.508 531.864 156.751 531.864C155.993 531.864 155.385 532.131 154.927 532.664C154.479 533.187 154.255 533.96 154.255 534.984C154.255 535.997 154.479 536.771 154.927 537.304C155.385 537.827 155.993 538.088 156.751 538.088ZM162.584 539V527.224H163.88V539H162.584ZM169.965 539.144C168.706 539.144 167.714 538.781 166.989 538.056C166.263 537.32 165.901 536.301 165.901 535C165.901 534.157 166.061 533.427 166.381 532.808C166.701 532.179 167.149 531.693 167.725 531.352C168.301 531 168.962 530.824 169.709 530.824C170.445 530.824 171.063 530.979 171.565 531.288C172.066 531.597 172.45 532.04 172.717 532.616C172.983 533.181 173.117 533.853 173.117 534.632V535.112H166.893V534.296H172.269L171.997 534.504C171.997 533.651 171.805 532.984 171.421 532.504C171.037 532.024 170.466 531.784 169.709 531.784C168.909 531.784 168.285 532.067 167.837 532.632C167.389 533.187 167.165 533.939 167.165 534.888V535.032C167.165 536.035 167.41 536.797 167.901 537.32C168.402 537.832 169.101 538.088 169.997 538.088C170.477 538.088 170.925 538.019 171.341 537.88C171.767 537.731 172.173 537.491 172.557 537.16L173.005 538.072C172.653 538.413 172.205 538.68 171.661 538.872C171.127 539.053 170.562 539.144 169.965 539.144ZM179.272 542.456V532.824C179.272 532.525 179.256 532.221 179.224 531.912C179.202 531.592 179.176 531.277 179.144 530.968H180.392L180.568 532.872H180.376C180.546 532.243 180.893 531.747 181.416 531.384C181.938 531.011 182.562 530.824 183.288 530.824C184.013 530.824 184.637 530.989 185.16 531.32C185.693 531.651 186.109 532.125 186.408 532.744C186.706 533.363 186.856 534.109 186.856 534.984C186.856 535.848 186.706 536.589 186.408 537.208C186.12 537.827 185.709 538.307 185.176 538.648C184.642 538.979 184.013 539.144 183.288 539.144C182.573 539.144 181.954 538.963 181.432 538.6C180.909 538.237 180.562 537.741 180.392 537.112H180.568V542.456H179.272ZM183.032 538.088C183.8 538.088 184.408 537.827 184.856 537.304C185.314 536.771 185.544 535.997 185.544 534.984C185.544 533.96 185.314 533.187 184.856 532.664C184.408 532.131 183.8 531.864 183.032 531.864C182.274 531.864 181.666 532.131 181.208 532.664C180.76 533.187 180.536 533.96 180.536 534.984C180.536 535.997 180.76 536.771 181.208 537.304C181.666 537.827 182.274 538.088 183.032 538.088ZM192.162 539.144C191.394 539.144 190.722 538.979 190.146 538.648C189.58 538.307 189.143 537.827 188.834 537.208C188.524 536.579 188.37 535.837 188.37 534.984C188.37 534.12 188.524 533.379 188.834 532.76C189.143 532.141 189.58 531.667 190.146 531.336C190.722 530.995 191.394 530.824 192.162 530.824C192.94 530.824 193.612 530.995 194.178 531.336C194.754 531.667 195.196 532.141 195.506 532.76C195.826 533.379 195.986 534.12 195.986 534.984C195.986 535.837 195.826 536.579 195.506 537.208C195.196 537.827 194.754 538.307 194.178 538.648C193.612 538.979 192.94 539.144 192.162 539.144ZM192.162 538.088C192.93 538.088 193.538 537.827 193.986 537.304C194.434 536.771 194.658 535.997 194.658 534.984C194.658 533.96 194.428 533.187 193.97 532.664C193.522 532.131 192.919 531.864 192.162 531.864C191.404 531.864 190.802 532.131 190.354 532.664C189.906 533.187 189.682 533.96 189.682 534.984C189.682 535.997 189.906 536.771 190.354 537.304C190.802 537.827 191.404 538.088 192.162 538.088ZM200.678 539.144C200.038 539.144 199.441 539.059 198.886 538.888C198.332 538.707 197.873 538.456 197.51 538.136L197.958 537.224C198.353 537.533 198.78 537.763 199.238 537.912C199.708 538.061 200.193 538.136 200.694 538.136C201.334 538.136 201.814 538.024 202.134 537.8C202.465 537.565 202.63 537.245 202.63 536.84C202.63 536.531 202.524 536.285 202.31 536.104C202.108 535.912 201.772 535.763 201.302 535.656L199.814 535.352C199.132 535.203 198.62 534.952 198.278 534.6C197.937 534.237 197.766 533.779 197.766 533.224C197.766 532.755 197.889 532.344 198.134 531.992C198.38 531.629 198.737 531.347 199.206 531.144C199.676 530.931 200.225 530.824 200.854 530.824C201.441 530.824 201.98 530.915 202.47 531.096C202.972 531.267 203.388 531.517 203.718 531.848L203.254 532.744C202.934 532.435 202.566 532.205 202.15 532.056C201.745 531.896 201.324 531.816 200.886 531.816C200.257 531.816 199.782 531.944 199.462 532.2C199.153 532.445 198.998 532.771 198.998 533.176C198.998 533.485 199.094 533.741 199.286 533.944C199.489 534.136 199.798 534.28 200.214 534.376L201.702 534.68C202.428 534.84 202.966 535.091 203.318 535.432C203.681 535.763 203.862 536.211 203.862 536.776C203.862 537.256 203.729 537.677 203.462 538.04C203.196 538.392 202.822 538.664 202.342 538.856C201.873 539.048 201.318 539.144 200.678 539.144ZM205.944 539V530.968H207.24V539H205.944ZM205.784 529.144V527.688H207.384V529.144H205.784ZM212.604 539.144C211.815 539.144 211.212 538.92 210.796 538.472C210.38 538.013 210.172 537.325 210.172 536.408V531.976H208.604V530.968H210.172V528.776L211.468 528.408V530.968H213.772V531.976H211.468V536.264C211.468 536.904 211.575 537.363 211.788 537.64C212.012 537.907 212.343 538.04 212.78 538.04C212.983 538.04 213.164 538.024 213.324 537.992C213.484 537.949 213.628 537.901 213.756 537.848V538.936C213.607 539 213.426 539.048 213.212 539.08C213.01 539.123 212.807 539.144 212.604 539.144ZM215.35 539V530.968H216.646V539H215.35ZM215.19 529.144V527.688H216.79V529.144H215.19ZM222.458 539.144C221.69 539.144 221.018 538.979 220.442 538.648C219.877 538.307 219.44 537.827 219.13 537.208C218.821 536.579 218.666 535.837 218.666 534.984C218.666 534.12 218.821 533.379 219.13 532.76C219.44 532.141 219.877 531.667 220.442 531.336C221.018 530.995 221.69 530.824 222.458 530.824C223.237 530.824 223.909 530.995 224.474 531.336C225.05 531.667 225.493 532.141 225.802 532.76C226.122 533.379 226.282 534.12 226.282 534.984C226.282 535.837 226.122 536.579 225.802 537.208C225.493 537.827 225.05 538.307 224.474 538.648C223.909 538.979 223.237 539.144 222.458 539.144ZM222.458 538.088C223.226 538.088 223.834 537.827 224.282 537.304C224.73 536.771 224.954 535.997 224.954 534.984C224.954 533.96 224.725 533.187 224.266 532.664C223.818 532.131 223.216 531.864 222.458 531.864C221.701 531.864 221.098 532.131 220.65 532.664C220.202 533.187 219.978 533.96 219.978 534.984C219.978 535.997 220.202 536.771 220.65 537.304C221.098 537.827 221.701 538.088 222.458 538.088ZM228.303 539V532.824C228.303 532.525 228.287 532.221 228.255 531.912C228.234 531.592 228.207 531.277 228.175 530.968H229.423L229.583 532.728H229.391C229.626 532.109 229.999 531.64 230.511 531.32C231.034 530.989 231.636 530.824 232.319 530.824C233.268 530.824 233.983 531.08 234.463 531.592C234.954 532.093 235.199 532.888 235.199 533.976V539H233.903V534.056C233.903 533.299 233.748 532.749 233.439 532.408C233.14 532.056 232.671 531.88 232.031 531.88C231.284 531.88 230.692 532.109 230.255 532.568C229.818 533.027 229.599 533.64 229.599 534.408V539H228.303ZM242.266 539V531.976H240.698V530.968H242.618L242.266 531.304V529.96C242.266 529.053 242.495 528.36 242.954 527.88C243.413 527.4 244.069 527.16 244.922 527.16C245.135 527.16 245.354 527.181 245.578 527.224C245.813 527.256 246.005 527.304 246.154 527.368V528.44C246.026 528.387 245.866 528.344 245.674 528.312C245.493 528.269 245.306 528.248 245.114 528.248C244.783 528.248 244.501 528.317 244.266 528.456C244.031 528.584 243.855 528.781 243.738 529.048C243.621 529.315 243.562 529.656 243.562 530.072V531.24L243.354 530.968H245.802V531.976H243.562V539H242.266ZM250.333 539.144C249.565 539.144 248.893 538.979 248.317 538.648C247.752 538.307 247.315 537.827 247.005 537.208C246.696 536.579 246.541 535.837 246.541 534.984C246.541 534.12 246.696 533.379 247.005 532.76C247.315 532.141 247.752 531.667 248.317 531.336C248.893 530.995 249.565 530.824 250.333 530.824C251.112 530.824 251.784 530.995 252.349 531.336C252.925 531.667 253.368 532.141 253.677 532.76C253.997 533.379 254.157 534.12 254.157 534.984C254.157 535.837 253.997 536.579 253.677 537.208C253.368 537.827 252.925 538.307 252.349 538.648C251.784 538.979 251.112 539.144 250.333 539.144ZM250.333 538.088C251.101 538.088 251.709 537.827 252.157 537.304C252.605 536.771 252.829 535.997 252.829 534.984C252.829 533.96 252.6 533.187 252.141 532.664C251.693 532.131 251.091 531.864 250.333 531.864C249.576 531.864 248.973 532.131 248.525 532.664C248.077 533.187 247.853 533.96 247.853 534.984C247.853 535.997 248.077 536.771 248.525 537.304C248.973 537.827 249.576 538.088 250.333 538.088ZM256.146 539V532.904C256.146 532.584 256.135 532.259 256.114 531.928C256.103 531.597 256.082 531.277 256.05 530.968H257.298L257.458 532.92L257.234 532.936C257.341 532.456 257.527 532.061 257.794 531.752C258.061 531.443 258.375 531.213 258.738 531.064C259.101 530.904 259.479 530.824 259.874 530.824C260.034 530.824 260.173 530.829 260.29 530.84C260.418 530.851 260.535 530.877 260.642 530.92L260.626 532.072C260.466 532.019 260.317 531.987 260.178 531.976C260.05 531.955 259.901 531.944 259.73 531.944C259.261 531.944 258.85 532.056 258.498 532.28C258.157 532.504 257.895 532.792 257.714 533.144C257.543 533.496 257.458 533.869 257.458 534.264V539H256.146ZM269.01 539.144C268.221 539.144 267.618 538.92 267.202 538.472C266.786 538.013 266.578 537.325 266.578 536.408V531.976H265.01V530.968H266.578V528.776L267.874 528.408V530.968H270.178V531.976H267.874V536.264C267.874 536.904 267.981 537.363 268.194 537.64C268.418 537.907 268.749 538.04 269.186 538.04C269.389 538.04 269.57 538.024 269.73 537.992C269.89 537.949 270.034 537.901 270.162 537.848V538.936C270.013 539 269.832 539.048 269.618 539.08C269.416 539.123 269.213 539.144 269.01 539.144ZM271.756 539V527.224H273.052V532.744H272.844C273.068 532.115 273.442 531.64 273.964 531.32C274.498 530.989 275.111 530.824 275.804 530.824C276.764 530.824 277.479 531.085 277.948 531.608C278.418 532.12 278.652 532.899 278.652 533.944V539H277.356V534.024C277.356 533.277 277.207 532.733 276.908 532.392C276.62 532.051 276.151 531.88 275.5 531.88C274.754 531.88 274.156 532.109 273.708 532.568C273.271 533.027 273.052 533.629 273.052 534.376V539H271.756ZM284.699 539.144C283.441 539.144 282.449 538.781 281.723 538.056C280.998 537.32 280.635 536.301 280.635 535C280.635 534.157 280.795 533.427 281.115 532.808C281.435 532.179 281.883 531.693 282.459 531.352C283.035 531 283.697 530.824 284.443 530.824C285.179 530.824 285.798 530.979 286.299 531.288C286.801 531.597 287.185 532.04 287.451 532.616C287.718 533.181 287.851 533.853 287.851 534.632V535.112H281.627V534.296H287.003L286.731 534.504C286.731 533.651 286.539 532.984 286.155 532.504C285.771 532.024 285.201 531.784 284.443 531.784C283.643 531.784 283.019 532.067 282.571 532.632C282.123 533.187 281.899 533.939 281.899 534.888V535.032C281.899 536.035 282.145 536.797 282.635 537.32C283.137 537.832 283.835 538.088 284.731 538.088C285.211 538.088 285.659 538.019 286.075 537.88C286.502 537.731 286.907 537.491 287.291 537.16L287.739 538.072C287.387 538.413 286.939 538.68 286.395 538.872C285.862 539.053 285.297 539.144 284.699 539.144ZM294.006 539V532.824C294.006 532.525 293.99 532.221 293.958 531.912C293.937 531.592 293.91 531.277 293.878 530.968H295.126L295.286 532.728H295.094C295.329 532.109 295.702 531.64 296.214 531.32C296.737 530.989 297.34 530.824 298.022 530.824C298.972 530.824 299.686 531.08 300.166 531.592C300.657 532.093 300.902 532.888 300.902 533.976V539H299.606V534.056C299.606 533.299 299.452 532.749 299.142 532.408C298.844 532.056 298.374 531.88 297.734 531.88C296.988 531.88 296.396 532.109 295.958 532.568C295.521 533.027 295.302 533.64 295.302 534.408V539H294.006ZM306.949 539.144C305.691 539.144 304.699 538.781 303.973 538.056C303.248 537.32 302.885 536.301 302.885 535C302.885 534.157 303.045 533.427 303.365 532.808C303.685 532.179 304.133 531.693 304.709 531.352C305.285 531 305.947 530.824 306.693 530.824C307.429 530.824 308.048 530.979 308.549 531.288C309.051 531.597 309.435 532.04 309.701 532.616C309.968 533.181 310.101 533.853 310.101 534.632V535.112H303.877V534.296H309.253L308.981 534.504C308.981 533.651 308.789 532.984 308.405 532.504C308.021 532.024 307.451 531.784 306.693 531.784C305.893 531.784 305.269 532.067 304.821 532.632C304.373 533.187 304.149 533.939 304.149 534.888V535.032C304.149 536.035 304.395 536.797 304.885 537.32C305.387 537.832 306.085 538.088 306.981 538.088C307.461 538.088 307.909 538.019 308.325 537.88C308.752 537.731 309.157 537.491 309.541 537.16L309.989 538.072C309.637 538.413 309.189 538.68 308.645 538.872C308.112 539.053 307.547 539.144 306.949 539.144ZM310.934 539L314.534 534.536V535.176L311.126 530.968H312.694L315.27 534.248H314.806L317.366 530.968H318.918L315.558 535.16V534.568L319.126 539H317.542L314.79 535.496H315.27L312.486 539H310.934ZM323.432 539.144C322.643 539.144 322.04 538.92 321.624 538.472C321.208 538.013 321 537.325 321 536.408V531.976H319.432V530.968H321V528.776L322.296 528.408V530.968H324.6V531.976H322.296V536.264C322.296 536.904 322.403 537.363 322.616 537.64C322.84 537.907 323.171 538.04 323.608 538.04C323.811 538.04 323.992 538.024 324.152 537.992C324.312 537.949 324.456 537.901 324.584 537.848V538.936C324.435 539 324.254 539.048 324.04 539.08C323.838 539.123 323.635 539.144 323.432 539.144ZM330.766 539V531.976H329.198V530.968H331.118L330.766 531.304V529.96C330.766 529.053 330.995 528.36 331.454 527.88C331.913 527.4 332.569 527.16 333.422 527.16C333.635 527.16 333.854 527.181 334.078 527.224C334.313 527.256 334.505 527.304 334.654 527.368V528.44C334.526 528.387 334.366 528.344 334.174 528.312C333.993 528.269 333.806 528.248 333.614 528.248C333.283 528.248 333.001 528.317 332.766 528.456C332.531 528.584 332.355 528.781 332.238 529.048C332.121 529.315 332.062 529.656 332.062 530.072V531.24L331.854 530.968H334.302V531.976H332.062V539H330.766ZM339.105 539.144C337.847 539.144 336.855 538.781 336.129 538.056C335.404 537.32 335.041 536.301 335.041 535C335.041 534.157 335.201 533.427 335.521 532.808C335.841 532.179 336.289 531.693 336.865 531.352C337.441 531 338.103 530.824 338.849 530.824C339.585 530.824 340.204 530.979 340.705 531.288C341.207 531.597 341.591 532.04 341.857 532.616C342.124 533.181 342.257 533.853 342.257 534.632V535.112H336.033V534.296H341.409L341.137 534.504C341.137 533.651 340.945 532.984 340.561 532.504C340.177 532.024 339.607 531.784 338.849 531.784C338.049 531.784 337.425 532.067 336.977 532.632C336.529 533.187 336.305 533.939 336.305 534.888V535.032C336.305 536.035 336.551 536.797 337.041 537.32C337.543 537.832 338.241 538.088 339.137 538.088C339.617 538.088 340.065 538.019 340.481 537.88C340.908 537.731 341.313 537.491 341.697 537.16L342.145 538.072C341.793 538.413 341.345 538.68 340.801 538.872C340.268 539.053 339.703 539.144 339.105 539.144ZM346.291 539L343.315 530.968H344.691L347.171 538.04H346.755L349.315 530.968H350.435L352.947 538.04H352.547L355.043 530.968H356.355L353.363 539H352.115L349.523 531.816H350.163L347.555 539H346.291ZM362.225 539V532.824C362.225 532.525 362.209 532.221 362.177 531.912C362.156 531.592 362.129 531.277 362.097 530.968H363.345L363.505 532.728H363.313C363.526 532.12 363.862 531.651 364.321 531.32C364.79 530.989 365.356 530.824 366.017 530.824C366.689 530.824 367.233 530.984 367.649 531.304C368.076 531.624 368.364 532.12 368.513 532.792H368.273C368.476 532.184 368.833 531.704 369.345 531.352C369.857 531 370.454 530.824 371.137 530.824C372.022 530.824 372.689 531.08 373.137 531.592C373.585 532.093 373.809 532.888 373.809 533.976V539H372.513V534.056C372.513 533.299 372.38 532.749 372.113 532.408C371.846 532.056 371.42 531.88 370.833 531.88C370.161 531.88 369.628 532.115 369.233 532.584C368.849 533.043 368.657 533.661 368.657 534.44V539H367.361V534.056C367.361 533.299 367.228 532.749 366.961 532.408C366.694 532.056 366.268 531.88 365.681 531.88C365.009 531.88 364.481 532.115 364.097 532.584C363.713 533.043 363.521 533.661 363.521 534.44V539H362.225ZM376.272 539V530.968H377.568V539H376.272ZM376.112 529.144V527.688H377.712V529.144H376.112ZM380.084 539V532.824C380.084 532.525 380.068 532.221 380.036 531.912C380.015 531.592 379.988 531.277 379.956 530.968H381.204L381.364 532.728H381.172C381.407 532.109 381.78 531.64 382.292 531.32C382.815 530.989 383.418 530.824 384.1 530.824C385.05 530.824 385.764 531.08 386.244 531.592C386.735 532.093 386.98 532.888 386.98 533.976V539H385.684V534.056C385.684 533.299 385.53 532.749 385.22 532.408C384.922 532.056 384.452 531.88 383.812 531.88C383.066 531.88 382.474 532.109 382.036 532.568C381.599 533.027 381.38 533.64 381.38 534.408V539H380.084ZM392.291 539.144C391.342 539.144 390.622 538.883 390.131 538.36C389.651 537.837 389.411 537.037 389.411 535.96V530.968H390.707V535.928C390.707 536.664 390.857 537.208 391.155 537.56C391.454 537.901 391.918 538.072 392.547 538.072C393.251 538.072 393.817 537.843 394.243 537.384C394.67 536.925 394.883 536.312 394.883 535.544V530.968H396.179V539H394.915V537.192H395.123C394.899 537.811 394.537 538.291 394.035 538.632C393.545 538.973 392.963 539.144 392.291 539.144ZM401.542 539.144C400.752 539.144 400.15 538.92 399.734 538.472C399.318 538.013 399.11 537.325 399.11 536.408V531.976H397.542V530.968H399.11V528.776L400.406 528.408V530.968H402.71V531.976H400.406V536.264C400.406 536.904 400.512 537.363 400.726 537.64C400.95 537.907 401.28 538.04 401.718 538.04C401.92 538.04 402.102 538.024 402.262 537.992C402.422 537.949 402.566 537.901 402.694 537.848V538.936C402.544 539 402.363 539.048 402.15 539.08C401.947 539.123 401.744 539.144 401.542 539.144ZM407.777 539.144C406.519 539.144 405.527 538.781 404.801 538.056C404.076 537.32 403.713 536.301 403.713 535C403.713 534.157 403.873 533.427 404.193 532.808C404.513 532.179 404.961 531.693 405.537 531.352C406.113 531 406.775 530.824 407.521 530.824C408.257 530.824 408.876 530.979 409.377 531.288C409.879 531.597 410.263 532.04 410.529 532.616C410.796 533.181 410.929 533.853 410.929 534.632V535.112H404.705V534.296H410.081L409.809 534.504C409.809 533.651 409.617 532.984 409.233 532.504C408.849 532.024 408.279 531.784 407.521 531.784C406.721 531.784 406.097 532.067 405.649 532.632C405.201 533.187 404.977 533.939 404.977 534.888V535.032C404.977 536.035 405.223 536.797 405.713 537.32C406.215 537.832 406.913 538.088 407.809 538.088C408.289 538.088 408.737 538.019 409.153 537.88C409.58 537.731 409.985 537.491 410.369 537.16L410.817 538.072C410.465 538.413 410.017 538.68 409.473 538.872C408.94 539.053 408.375 539.144 407.777 539.144ZM415.584 539.144C414.944 539.144 414.347 539.059 413.792 538.888C413.238 538.707 412.779 538.456 412.416 538.136L412.864 537.224C413.259 537.533 413.686 537.763 414.144 537.912C414.614 538.061 415.099 538.136 415.6 538.136C416.24 538.136 416.72 538.024 417.04 537.8C417.371 537.565 417.536 537.245 417.536 536.84C417.536 536.531 417.43 536.285 417.216 536.104C417.014 535.912 416.678 535.763 416.208 535.656L414.72 535.352C414.038 535.203 413.526 534.952 413.184 534.6C412.843 534.237 412.672 533.779 412.672 533.224C412.672 532.755 412.795 532.344 413.04 531.992C413.286 531.629 413.643 531.347 414.112 531.144C414.582 530.931 415.131 530.824 415.76 530.824C416.347 530.824 416.886 530.915 417.376 531.096C417.878 531.267 418.294 531.517 418.624 531.848L418.16 532.744C417.84 532.435 417.472 532.205 417.056 532.056C416.651 531.896 416.23 531.816 415.792 531.816C415.163 531.816 414.688 531.944 414.368 532.2C414.059 532.445 413.904 532.771 413.904 533.176C413.904 533.485 414 533.741 414.192 533.944C414.395 534.136 414.704 534.28 415.12 534.376L416.608 534.68C417.334 534.84 417.872 535.091 418.224 535.432C418.587 535.763 418.768 536.211 418.768 536.776C418.768 537.256 418.635 537.677 418.368 538.04C418.102 538.392 417.728 538.664 417.248 538.856C416.779 539.048 416.224 539.144 415.584 539.144ZM420.516 539V537.368H422.148V539H420.516ZM428.728 539V527.72H430.056V532.712H436.856V527.72H438.168V539H436.856V533.848H430.056V539H428.728ZM444.13 539.144C443.362 539.144 442.69 538.979 442.114 538.648C441.549 538.307 441.112 537.827 440.802 537.208C440.493 536.579 440.338 535.837 440.338 534.984C440.338 534.12 440.493 533.379 440.802 532.76C441.112 532.141 441.549 531.667 442.114 531.336C442.69 530.995 443.362 530.824 444.13 530.824C444.909 530.824 445.581 530.995 446.146 531.336C446.722 531.667 447.165 532.141 447.474 532.76C447.794 533.379 447.954 534.12 447.954 534.984C447.954 535.837 447.794 536.579 447.474 537.208C447.165 537.827 446.722 538.307 446.146 538.648C445.581 538.979 444.909 539.144 444.13 539.144ZM444.13 538.088C444.898 538.088 445.506 537.827 445.954 537.304C446.402 536.771 446.626 535.997 446.626 534.984C446.626 533.96 446.397 533.187 445.938 532.664C445.49 532.131 444.888 531.864 444.13 531.864C443.373 531.864 442.77 532.131 442.322 532.664C441.874 533.187 441.65 533.96 441.65 534.984C441.65 535.997 441.874 536.771 442.322 537.304C442.77 537.827 443.373 538.088 444.13 538.088ZM449.975 539V527.224H451.271V539H449.975ZM456.827 539.144C456.123 539.144 455.505 538.979 454.971 538.648C454.438 538.307 454.022 537.827 453.723 537.208C453.435 536.589 453.291 535.848 453.291 534.984C453.291 534.109 453.435 533.363 453.723 532.744C454.022 532.125 454.438 531.651 454.971 531.32C455.505 530.989 456.123 530.824 456.827 530.824C457.553 530.824 458.177 531.005 458.699 531.368C459.233 531.731 459.59 532.221 459.771 532.84H459.579V527.224H460.875V539H459.595V537.08H459.771C459.601 537.72 459.249 538.227 458.715 538.6C458.182 538.963 457.553 539.144 456.827 539.144ZM457.099 538.088C457.857 538.088 458.465 537.827 458.923 537.304C459.382 536.771 459.611 535.997 459.611 534.984C459.611 533.96 459.382 533.187 458.923 532.664C458.465 532.131 457.857 531.864 457.099 531.864C456.342 531.864 455.734 532.131 455.275 532.664C454.827 533.187 454.603 533.96 454.603 534.984C454.603 535.997 454.827 536.771 455.275 537.304C455.734 537.827 456.342 538.088 457.099 538.088ZM467.233 542.632L466.929 541.56C467.43 541.443 467.846 541.304 468.177 541.144C468.518 540.995 468.801 540.792 469.025 540.536C469.249 540.28 469.441 539.96 469.601 539.576L470.017 538.632L469.985 539.176L466.481 530.968H467.889L470.785 538.024H470.369L473.233 530.968H474.593L470.881 539.672C470.668 540.184 470.433 540.611 470.177 540.952C469.921 541.304 469.644 541.587 469.345 541.8C469.057 542.024 468.737 542.2 468.385 542.328C468.033 542.456 467.649 542.557 467.233 542.632ZM479.24 539.144C478.472 539.144 477.8 538.979 477.224 538.648C476.658 538.307 476.221 537.827 475.912 537.208C475.602 536.579 475.448 535.837 475.448 534.984C475.448 534.12 475.602 533.379 475.912 532.76C476.221 532.141 476.658 531.667 477.224 531.336C477.8 530.995 478.472 530.824 479.24 530.824C480.018 530.824 480.69 530.995 481.256 531.336C481.832 531.667 482.274 532.141 482.584 532.76C482.904 533.379 483.064 534.12 483.064 534.984C483.064 535.837 482.904 536.579 482.584 537.208C482.274 537.827 481.832 538.307 481.256 538.648C480.69 538.979 480.018 539.144 479.24 539.144ZM479.24 538.088C480.008 538.088 480.616 537.827 481.064 537.304C481.512 536.771 481.736 535.997 481.736 534.984C481.736 533.96 481.506 533.187 481.048 532.664C480.6 532.131 479.997 531.864 479.24 531.864C478.482 531.864 477.88 532.131 477.432 532.664C476.984 533.187 476.76 533.96 476.76 534.984C476.76 535.997 476.984 536.771 477.432 537.304C477.88 537.827 478.482 538.088 479.24 538.088ZM487.916 539.144C486.967 539.144 486.247 538.883 485.756 538.36C485.276 537.837 485.036 537.037 485.036 535.96V530.968H486.332V535.928C486.332 536.664 486.482 537.208 486.78 537.56C487.079 537.901 487.543 538.072 488.172 538.072C488.876 538.072 489.442 537.843 489.868 537.384C490.295 536.925 490.508 536.312 490.508 535.544V530.968H491.804V539H490.54V537.192H490.748C490.524 537.811 490.162 538.291 489.66 538.632C489.17 538.973 488.588 539.144 487.916 539.144ZM494.287 539V532.904C494.287 532.584 494.276 532.259 494.255 531.928C494.244 531.597 494.223 531.277 494.191 530.968H495.439L495.599 532.92L495.375 532.936C495.481 532.456 495.668 532.061 495.935 531.752C496.201 531.443 496.516 531.213 496.879 531.064C497.241 530.904 497.62 530.824 498.015 530.824C498.175 530.824 498.313 530.829 498.431 530.84C498.559 530.851 498.676 530.877 498.783 530.92L498.767 532.072C498.607 532.019 498.457 531.987 498.319 531.976C498.191 531.955 498.041 531.944 497.871 531.944C497.401 531.944 496.991 532.056 496.639 532.28C496.297 532.504 496.036 532.792 495.855 533.144C495.684 533.496 495.599 533.869 495.599 534.264V539H494.287ZM504.303 542.456V532.824C504.303 532.525 504.287 532.221 504.255 531.912C504.234 531.592 504.207 531.277 504.175 530.968H505.423L505.599 532.872H505.407C505.578 532.243 505.924 531.747 506.447 531.384C506.97 531.011 507.594 530.824 508.319 530.824C509.044 530.824 509.668 530.989 510.191 531.32C510.724 531.651 511.14 532.125 511.439 532.744C511.738 533.363 511.887 534.109 511.887 534.984C511.887 535.848 511.738 536.589 511.439 537.208C511.151 537.827 510.74 538.307 510.207 538.648C509.674 538.979 509.044 539.144 508.319 539.144C507.604 539.144 506.986 538.963 506.463 538.6C505.94 538.237 505.594 537.741 505.423 537.112H505.599V542.456H504.303ZM508.063 538.088C508.831 538.088 509.439 537.827 509.887 537.304C510.346 536.771 510.575 535.997 510.575 534.984C510.575 533.96 510.346 533.187 509.887 532.664C509.439 532.131 508.831 531.864 508.063 531.864C507.306 531.864 506.698 532.131 506.239 532.664C505.791 533.187 505.567 533.96 505.567 534.984C505.567 535.997 505.791 536.771 506.239 537.304C506.698 537.827 507.306 538.088 508.063 538.088ZM513.897 539V527.224H515.193V532.744H514.985C515.209 532.115 515.582 531.64 516.105 531.32C516.638 530.989 517.251 530.824 517.945 530.824C518.905 530.824 519.619 531.085 520.089 531.608C520.558 532.12 520.793 532.899 520.793 533.944V539H519.497V534.024C519.497 533.277 519.347 532.733 519.049 532.392C518.761 532.051 518.291 531.88 517.641 531.88C516.894 531.88 516.297 532.109 515.849 532.568C515.411 533.027 515.193 533.629 515.193 534.376V539H513.897ZM526.568 539.144C525.8 539.144 525.128 538.979 524.552 538.648C523.986 538.307 523.549 537.827 523.24 537.208C522.93 536.579 522.776 535.837 522.776 534.984C522.776 534.12 522.93 533.379 523.24 532.76C523.549 532.141 523.986 531.667 524.552 531.336C525.128 530.995 525.8 530.824 526.568 530.824C527.346 530.824 528.018 530.995 528.584 531.336C529.16 531.667 529.602 532.141 529.912 532.76C530.232 533.379 530.392 534.12 530.392 534.984C530.392 535.837 530.232 536.579 529.912 537.208C529.602 537.827 529.16 538.307 528.584 538.648C528.018 538.979 527.346 539.144 526.568 539.144ZM526.568 538.088C527.336 538.088 527.944 537.827 528.392 537.304C528.84 536.771 529.064 535.997 529.064 534.984C529.064 533.96 528.834 533.187 528.376 532.664C527.928 532.131 527.325 531.864 526.568 531.864C525.81 531.864 525.208 532.131 524.76 532.664C524.312 533.187 524.088 533.96 524.088 534.984C524.088 535.997 524.312 536.771 524.76 537.304C525.208 537.827 525.81 538.088 526.568 538.088ZM532.412 539V532.824C532.412 532.525 532.396 532.221 532.364 531.912C532.343 531.592 532.316 531.277 532.284 530.968H533.532L533.692 532.728H533.5C533.735 532.109 534.108 531.64 534.62 531.32C535.143 530.989 535.746 530.824 536.428 530.824C537.378 530.824 538.092 531.08 538.572 531.592C539.063 532.093 539.308 532.888 539.308 533.976V539H538.012V534.056C538.012 533.299 537.858 532.749 537.548 532.408C537.25 532.056 536.78 531.88 536.14 531.88C535.394 531.88 534.802 532.109 534.364 532.568C533.927 533.027 533.708 533.64 533.708 534.408V539H532.412ZM545.355 539.144C544.097 539.144 543.105 538.781 542.379 538.056C541.654 537.32 541.291 536.301 541.291 535C541.291 534.157 541.451 533.427 541.771 532.808C542.091 532.179 542.539 531.693 543.115 531.352C543.691 531 544.353 530.824 545.099 530.824C545.835 530.824 546.454 530.979 546.955 531.288C547.457 531.597 547.841 532.04 548.107 532.616C548.374 533.181 548.507 533.853 548.507 534.632V535.112H542.283V534.296H547.659L547.387 534.504C547.387 533.651 547.195 532.984 546.811 532.504C546.427 532.024 545.857 531.784 545.099 531.784C544.299 531.784 543.675 532.067 543.227 532.632C542.779 533.187 542.555 533.939 542.555 534.888V535.032C542.555 536.035 542.801 536.797 543.291 537.32C543.793 537.832 544.491 538.088 545.387 538.088C545.867 538.088 546.315 538.019 546.731 537.88C547.158 537.731 547.563 537.491 547.947 537.16L548.395 538.072C548.043 538.413 547.595 538.68 547.051 538.872C546.518 539.053 545.953 539.144 545.355 539.144ZM557.718 539.144C557.004 539.144 556.38 538.979 555.846 538.648C555.313 538.307 554.897 537.827 554.598 537.208C554.31 536.589 554.166 535.848 554.166 534.984C554.166 534.109 554.31 533.363 554.598 532.744C554.897 532.125 555.313 531.651 555.846 531.32C556.38 530.989 557.004 530.824 557.718 530.824C558.444 530.824 559.068 531.011 559.59 531.384C560.124 531.747 560.476 532.243 560.646 532.872H560.454L560.63 530.968H561.878C561.846 531.277 561.814 531.592 561.782 531.912C561.761 532.221 561.75 532.525 561.75 532.824V539H560.454V537.112H560.63C560.46 537.741 560.108 538.237 559.574 538.6C559.041 538.963 558.422 539.144 557.718 539.144ZM557.974 538.088C558.742 538.088 559.35 537.827 559.798 537.304C560.246 536.771 560.47 535.997 560.47 534.984C560.47 533.96 560.246 533.187 559.798 532.664C559.35 532.131 558.742 531.864 557.974 531.864C557.217 531.864 556.609 532.131 556.15 532.664C555.702 533.187 555.478 533.96 555.478 534.984C555.478 535.997 555.702 536.771 556.15 537.304C556.609 537.827 557.217 538.088 557.974 538.088ZM566.928 539.144C566.288 539.144 565.691 539.059 565.136 538.888C564.582 538.707 564.123 538.456 563.76 538.136L564.208 537.224C564.603 537.533 565.03 537.763 565.488 537.912C565.958 538.061 566.443 538.136 566.944 538.136C567.584 538.136 568.064 538.024 568.384 537.8C568.715 537.565 568.88 537.245 568.88 536.84C568.88 536.531 568.774 536.285 568.56 536.104C568.358 535.912 568.022 535.763 567.552 535.656L566.064 535.352C565.382 535.203 564.87 534.952 564.528 534.6C564.187 534.237 564.016 533.779 564.016 533.224C564.016 532.755 564.139 532.344 564.384 531.992C564.63 531.629 564.987 531.347 565.456 531.144C565.926 530.931 566.475 530.824 567.104 530.824C567.691 530.824 568.23 530.915 568.72 531.096C569.222 531.267 569.638 531.517 569.968 531.848L569.504 532.744C569.184 532.435 568.816 532.205 568.4 532.056C567.995 531.896 567.574 531.816 567.136 531.816C566.507 531.816 566.032 531.944 565.712 532.2C565.403 532.445 565.248 532.771 565.248 533.176C565.248 533.485 565.344 533.741 565.536 533.944C565.739 534.136 566.048 534.28 566.464 534.376L567.952 534.68C568.678 534.84 569.216 535.091 569.568 535.432C569.931 535.763 570.112 536.211 570.112 536.776C570.112 537.256 569.979 537.677 569.712 538.04C569.446 538.392 569.072 538.664 568.592 538.856C568.123 539.048 567.568 539.144 566.928 539.144ZM576.046 542.632L575.742 541.56C576.243 541.443 576.659 541.304 576.99 541.144C577.331 540.995 577.614 540.792 577.838 540.536C578.062 540.28 578.254 539.96 578.414 539.576L578.83 538.632L578.798 539.176L575.294 530.968H576.702L579.598 538.024H579.182L582.046 530.968H583.406L579.694 539.672C579.48 540.184 579.246 540.611 578.99 540.952C578.734 541.304 578.456 541.587 578.158 541.8C577.87 542.024 577.55 542.2 577.198 542.328C576.846 542.456 576.462 542.557 576.046 542.632ZM588.052 539.144C587.284 539.144 586.612 538.979 586.036 538.648C585.471 538.307 585.034 537.827 584.724 537.208C584.415 536.579 584.26 535.837 584.26 534.984C584.26 534.12 584.415 533.379 584.724 532.76C585.034 532.141 585.471 531.667 586.036 531.336C586.612 530.995 587.284 530.824 588.052 530.824C588.831 530.824 589.503 530.995 590.068 531.336C590.644 531.667 591.087 532.141 591.396 532.76C591.716 533.379 591.876 534.12 591.876 534.984C591.876 535.837 591.716 536.579 591.396 537.208C591.087 537.827 590.644 538.307 590.068 538.648C589.503 538.979 588.831 539.144 588.052 539.144ZM588.052 538.088C588.82 538.088 589.428 537.827 589.876 537.304C590.324 536.771 590.548 535.997 590.548 534.984C590.548 533.96 590.319 533.187 589.86 532.664C589.412 532.131 588.81 531.864 588.052 531.864C587.295 531.864 586.692 532.131 586.244 532.664C585.796 533.187 585.572 533.96 585.572 534.984C585.572 535.997 585.796 536.771 586.244 537.304C586.692 537.827 587.295 538.088 588.052 538.088ZM596.729 539.144C595.779 539.144 595.059 538.883 594.569 538.36C594.089 537.837 593.849 537.037 593.849 535.96V530.968H595.145V535.928C595.145 536.664 595.294 537.208 595.593 537.56C595.891 537.901 596.355 538.072 596.985 538.072C597.689 538.072 598.254 537.843 598.681 537.384C599.107 536.925 599.321 536.312 599.321 535.544V530.968H600.617V539H599.353V537.192H599.561C599.337 537.811 598.974 538.291 598.473 538.632C597.982 538.973 597.401 539.144 596.729 539.144ZM609.447 539L606.471 530.968H607.847L610.327 538.04H609.911L612.471 530.968H613.591L616.103 538.04H615.703L618.199 530.968H619.511L616.519 539H615.271L612.679 531.816H613.319L610.711 539H609.447ZM624.396 539.144C623.628 539.144 622.956 538.979 622.38 538.648C621.815 538.307 621.377 537.827 621.068 537.208C620.759 536.579 620.604 535.837 620.604 534.984C620.604 534.12 620.759 533.379 621.068 532.76C621.377 532.141 621.815 531.667 622.38 531.336C622.956 530.995 623.628 530.824 624.396 530.824C625.175 530.824 625.847 530.995 626.412 531.336C626.988 531.667 627.431 532.141 627.74 532.76C628.06 533.379 628.22 534.12 628.22 534.984C628.22 535.837 628.06 536.579 627.74 537.208C627.431 537.827 626.988 538.307 626.412 538.648C625.847 538.979 625.175 539.144 624.396 539.144ZM624.396 538.088C625.164 538.088 625.772 537.827 626.22 537.304C626.668 536.771 626.892 535.997 626.892 534.984C626.892 533.96 626.663 533.187 626.204 532.664C625.756 532.131 625.153 531.864 624.396 531.864C623.639 531.864 623.036 532.131 622.588 532.664C622.14 533.187 621.916 533.96 621.916 534.984C621.916 535.997 622.14 536.771 622.588 537.304C623.036 537.827 623.639 538.088 624.396 538.088ZM633.073 539.144C632.123 539.144 631.403 538.883 630.913 538.36C630.433 537.837 630.193 537.037 630.193 535.96V530.968H631.489V535.928C631.489 536.664 631.638 537.208 631.937 537.56C632.235 537.901 632.699 538.072 633.329 538.072C634.033 538.072 634.598 537.843 635.025 537.384C635.451 536.925 635.665 536.312 635.665 535.544V530.968H636.961V539H635.697V537.192H635.905C635.681 537.811 635.318 538.291 634.817 538.632C634.326 538.973 633.745 539.144 633.073 539.144ZM639.475 539V527.224H640.771V539H639.475ZM646.327 539.144C645.623 539.144 645.005 538.979 644.471 538.648C643.938 538.307 643.522 537.827 643.223 537.208C642.935 536.589 642.791 535.848 642.791 534.984C642.791 534.109 642.935 533.363 643.223 532.744C643.522 532.125 643.938 531.651 644.471 531.32C645.005 530.989 645.623 530.824 646.327 530.824C647.053 530.824 647.677 531.005 648.199 531.368C648.733 531.731 649.09 532.221 649.271 532.84H649.079V527.224H650.375V539H649.095V537.08H649.271C649.101 537.72 648.749 538.227 648.215 538.6C647.682 538.963 647.053 539.144 646.327 539.144ZM646.599 538.088C647.357 538.088 647.965 537.827 648.423 537.304C648.882 536.771 649.111 535.997 649.111 534.984C649.111 533.96 648.882 533.187 648.423 532.664C647.965 532.131 647.357 531.864 646.599 531.864C645.842 531.864 645.234 532.131 644.775 532.664C644.327 533.187 644.103 533.96 644.103 534.984C644.103 535.997 644.327 536.771 644.775 537.304C645.234 537.827 645.842 538.088 646.599 538.088ZM657.053 539V532.824C657.053 532.525 657.037 532.221 657.005 531.912C656.984 531.592 656.957 531.277 656.925 530.968H658.173L658.333 532.728H658.141C658.376 532.109 658.749 531.64 659.261 531.32C659.784 530.989 660.386 530.824 661.069 530.824C662.018 530.824 662.733 531.08 663.213 531.592C663.704 532.093 663.949 532.888 663.949 533.976V539H662.653V534.056C662.653 533.299 662.498 532.749 662.189 532.408C661.89 532.056 661.421 531.88 660.781 531.88C660.034 531.88 659.442 532.109 659.005 532.568C658.568 533.027 658.349 533.64 658.349 534.408V539H657.053ZM669.724 539.144C668.956 539.144 668.284 538.979 667.708 538.648C667.143 538.307 666.705 537.827 666.396 537.208C666.087 536.579 665.932 535.837 665.932 534.984C665.932 534.12 666.087 533.379 666.396 532.76C666.705 532.141 667.143 531.667 667.708 531.336C668.284 530.995 668.956 530.824 669.724 530.824C670.503 530.824 671.175 530.995 671.74 531.336C672.316 531.667 672.759 532.141 673.068 532.76C673.388 533.379 673.548 534.12 673.548 534.984C673.548 535.837 673.388 536.579 673.068 537.208C672.759 537.827 672.316 538.307 671.74 538.648C671.175 538.979 670.503 539.144 669.724 539.144ZM669.724 538.088C670.492 538.088 671.1 537.827 671.548 537.304C671.996 536.771 672.22 535.997 672.22 534.984C672.22 533.96 671.991 533.187 671.532 532.664C671.084 532.131 670.481 531.864 669.724 531.864C668.967 531.864 668.364 532.131 667.916 532.664C667.468 533.187 667.244 533.96 667.244 534.984C667.244 535.997 667.468 536.771 667.916 537.304C668.364 537.827 668.967 538.088 669.724 538.088ZM675.537 539V532.904C675.537 532.584 675.526 532.259 675.505 531.928C675.494 531.597 675.473 531.277 675.441 530.968H676.689L676.849 532.92L676.625 532.936C676.731 532.456 676.918 532.061 677.185 531.752C677.451 531.443 677.766 531.213 678.129 531.064C678.491 530.904 678.87 530.824 679.265 530.824C679.425 530.824 679.563 530.829 679.681 530.84C679.809 530.851 679.926 530.877 680.033 530.92L680.017 532.072C679.857 532.019 679.707 531.987 679.569 531.976C679.441 531.955 679.291 531.944 679.121 531.944C678.651 531.944 678.241 532.056 677.889 532.28C677.547 532.504 677.286 532.792 677.105 533.144C676.934 533.496 676.849 533.869 676.849 534.264V539H675.537ZM681.381 539V532.824C681.381 532.525 681.365 532.221 681.333 531.912C681.312 531.592 681.285 531.277 681.253 530.968H682.501L682.661 532.728H682.469C682.683 532.12 683.019 531.651 683.477 531.32C683.947 530.989 684.512 530.824 685.173 530.824C685.845 530.824 686.389 530.984 686.805 531.304C687.232 531.624 687.52 532.12 687.669 532.792H687.429C687.632 532.184 687.989 531.704 688.501 531.352C689.013 531 689.611 530.824 690.293 530.824C691.179 530.824 691.845 531.08 692.293 531.592C692.741 532.093 692.965 532.888 692.965 533.976V539H691.669V534.056C691.669 533.299 691.536 532.749 691.269 532.408C691.003 532.056 690.576 531.88 689.989 531.88C689.317 531.88 688.784 532.115 688.389 532.584C688.005 533.043 687.813 533.661 687.813 534.44V539H686.517V534.056C686.517 533.299 686.384 532.749 686.117 532.408C685.851 532.056 685.424 531.88 684.837 531.88C684.165 531.88 683.637 532.115 683.253 532.584C682.869 533.043 682.677 533.661 682.677 534.44V539H681.381ZM698.484 539.144C697.769 539.144 697.145 538.979 696.612 538.648C696.079 538.307 695.663 537.827 695.364 537.208C695.076 536.589 694.932 535.848 694.932 534.984C694.932 534.109 695.076 533.363 695.364 532.744C695.663 532.125 696.079 531.651 696.612 531.32C697.145 530.989 697.769 530.824 698.484 530.824C699.209 530.824 699.833 531.011 700.356 531.384C700.889 531.747 701.241 532.243 701.412 532.872H701.22L701.396 530.968H702.644C702.612 531.277 702.58 531.592 702.548 531.912C702.527 532.221 702.516 532.525 702.516 532.824V539H701.22V537.112H701.396C701.225 537.741 700.873 538.237 700.34 538.6C699.807 538.963 699.188 539.144 698.484 539.144ZM698.74 538.088C699.508 538.088 700.116 537.827 700.564 537.304C701.012 536.771 701.236 535.997 701.236 534.984C701.236 533.96 701.012 533.187 700.564 532.664C700.116 532.131 699.508 531.864 698.74 531.864C697.983 531.864 697.375 532.131 696.916 532.664C696.468 533.187 696.244 533.96 696.244 534.984C696.244 535.997 696.468 536.771 696.916 537.304C697.375 537.827 697.983 538.088 698.74 538.088ZM705.022 539V527.224H706.318V539H705.022ZM708.834 539V527.224H710.13V539H708.834ZM712.327 542.632L712.023 541.56C712.524 541.443 712.94 541.304 713.271 541.144C713.612 540.995 713.895 540.792 714.119 540.536C714.343 540.28 714.535 539.96 714.695 539.576L715.111 538.632L715.079 539.176L711.575 530.968H712.983L715.879 538.024H715.463L718.327 530.968H719.687L715.975 539.672C715.761 540.184 715.527 540.611 715.271 540.952C715.015 541.304 714.737 541.587 714.439 541.8C714.151 542.024 713.831 542.2 713.479 542.328C713.127 542.456 712.743 542.557 712.327 542.632ZM728.359 539.144C727.655 539.144 727.036 538.979 726.503 538.648C725.969 538.307 725.553 537.827 725.255 537.208C724.967 536.589 724.823 535.848 724.823 534.984C724.823 534.109 724.967 533.363 725.255 532.744C725.553 532.125 725.969 531.651 726.503 531.32C727.036 530.989 727.655 530.824 728.359 530.824C729.084 530.824 729.708 531.005 730.231 531.368C730.764 531.731 731.121 532.221 731.303 532.84H731.111V527.224H732.407V539H731.127V537.08H731.303C731.132 537.72 730.78 538.227 730.247 538.6C729.713 538.963 729.084 539.144 728.359 539.144ZM728.631 538.088C729.388 538.088 729.996 537.827 730.455 537.304C730.913 536.771 731.143 535.997 731.143 534.984C731.143 533.96 730.913 533.187 730.455 532.664C729.996 532.131 729.388 531.864 728.631 531.864C727.873 531.864 727.265 532.131 726.807 532.664C726.359 533.187 726.135 533.96 726.135 534.984C726.135 535.997 726.359 536.771 726.807 537.304C727.265 537.827 727.873 538.088 728.631 538.088ZM738.208 539.144C737.44 539.144 736.768 538.979 736.192 538.648C735.627 538.307 735.19 537.827 734.88 537.208C734.571 536.579 734.416 535.837 734.416 534.984C734.416 534.12 734.571 533.379 734.88 532.76C735.19 532.141 735.627 531.667 736.192 531.336C736.768 530.995 737.44 530.824 738.208 530.824C738.987 530.824 739.659 530.995 740.224 531.336C740.8 531.667 741.243 532.141 741.552 532.76C741.872 533.379 742.032 534.12 742.032 534.984C742.032 535.837 741.872 536.579 741.552 537.208C741.243 537.827 740.8 538.307 740.224 538.648C739.659 538.979 738.987 539.144 738.208 539.144ZM738.208 538.088C738.976 538.088 739.584 537.827 740.032 537.304C740.48 536.771 740.704 535.997 740.704 534.984C740.704 533.96 740.475 533.187 740.016 532.664C739.568 532.131 738.966 531.864 738.208 531.864C737.451 531.864 736.848 532.131 736.4 532.664C735.952 533.187 735.728 533.96 735.728 534.984C735.728 535.997 735.952 536.771 736.4 537.304C736.848 537.827 737.451 538.088 738.208 538.088ZM743.438 539V537.368H745.07V539H743.438ZM751.666 539V527.72H752.818L757.346 537.944H756.882L761.41 527.72H762.562V539H761.346V529.432H761.826L757.554 539H756.674L752.386 529.432H752.866V539H751.666ZM768.297 539.144C767.582 539.144 766.958 538.979 766.425 538.648C765.891 538.307 765.475 537.827 765.177 537.208C764.889 536.589 764.745 535.848 764.745 534.984C764.745 534.109 764.889 533.363 765.177 532.744C765.475 532.125 765.891 531.651 766.425 531.32C766.958 530.989 767.582 530.824 768.297 530.824C769.022 530.824 769.646 531.011 770.169 531.384C770.702 531.747 771.054 532.243 771.225 532.872H771.033L771.209 530.968H772.457C772.425 531.277 772.393 531.592 772.361 531.912C772.339 532.221 772.329 532.525 772.329 532.824V539H771.033V537.112H771.209C771.038 537.741 770.686 538.237 770.153 538.6C769.619 538.963 769.001 539.144 768.297 539.144ZM768.553 538.088C769.321 538.088 769.929 537.827 770.377 537.304C770.825 536.771 771.049 535.997 771.049 534.984C771.049 533.96 770.825 533.187 770.377 532.664C769.929 532.131 769.321 531.864 768.553 531.864C767.795 531.864 767.187 532.131 766.729 532.664C766.281 533.187 766.057 533.96 766.057 534.984C766.057 535.997 766.281 536.771 766.729 537.304C767.187 537.827 767.795 538.088 768.553 538.088ZM774.834 539V527.224H776.13V534.536H776.162L779.89 530.968H781.522L777.122 535.16L777.154 534.504L781.938 539H780.258L776.162 535.224H776.13V539H774.834ZM786.434 539.144C785.175 539.144 784.183 538.781 783.458 538.056C782.732 537.32 782.37 536.301 782.37 535C782.37 534.157 782.53 533.427 782.85 532.808C783.17 532.179 783.618 531.693 784.194 531.352C784.77 531 785.431 530.824 786.178 530.824C786.914 530.824 787.532 530.979 788.034 531.288C788.535 531.597 788.919 532.04 789.186 532.616C789.452 533.181 789.586 533.853 789.586 534.632V535.112H783.362V534.296H788.738L788.466 534.504C788.466 533.651 788.274 532.984 787.89 532.504C787.506 532.024 786.935 531.784 786.178 531.784C785.378 531.784 784.754 532.067 784.306 532.632C783.858 533.187 783.634 533.939 783.634 534.888V535.032C783.634 536.035 783.879 536.797 784.37 537.32C784.871 537.832 785.57 538.088 786.466 538.088C786.946 538.088 787.394 538.019 787.81 537.88C788.236 537.731 788.642 537.491 789.026 537.16L789.474 538.072C789.122 538.413 788.674 538.68 788.13 538.872C787.596 539.053 787.031 539.144 786.434 539.144ZM798.413 539.144C797.773 539.144 797.175 539.059 796.621 538.888C796.066 538.707 795.607 538.456 795.245 538.136L795.693 537.224C796.087 537.533 796.514 537.763 796.973 537.912C797.442 538.061 797.927 538.136 798.429 538.136C799.069 538.136 799.549 538.024 799.869 537.8C800.199 537.565 800.365 537.245 800.365 536.84C800.365 536.531 800.258 536.285 800.045 536.104C799.842 535.912 799.506 535.763 799.037 535.656L797.549 535.352C796.866 535.203 796.354 534.952 796.013 534.6C795.671 534.237 795.501 533.779 795.501 533.224C795.501 532.755 795.623 532.344 795.869 531.992C796.114 531.629 796.471 531.347 796.941 531.144C797.41 530.931 797.959 530.824 798.589 530.824C799.175 530.824 799.714 530.915 800.205 531.096C800.706 531.267 801.122 531.517 801.453 531.848L800.989 532.744C800.669 532.435 800.301 532.205 799.885 532.056C799.479 531.896 799.058 531.816 798.621 531.816C797.991 531.816 797.517 531.944 797.197 532.2C796.887 532.445 796.733 532.771 796.733 533.176C796.733 533.485 796.829 533.741 797.021 533.944C797.223 534.136 797.533 534.28 797.949 534.376L799.437 534.68C800.162 534.84 800.701 535.091 801.053 535.432C801.415 535.763 801.597 536.211 801.597 536.776C801.597 537.256 801.463 537.677 801.197 538.04C800.93 538.392 800.557 538.664 800.077 538.856C799.607 539.048 799.053 539.144 798.413 539.144ZM806.51 539.144C805.561 539.144 804.841 538.883 804.35 538.36C803.87 537.837 803.63 537.037 803.63 535.96V530.968H804.926V535.928C804.926 536.664 805.075 537.208 805.374 537.56C805.673 537.901 806.137 538.072 806.766 538.072C807.47 538.072 808.035 537.843 808.462 537.384C808.889 536.925 809.102 536.312 809.102 535.544V530.968H810.398V539H809.134V537.192H809.342C809.118 537.811 808.755 538.291 808.254 538.632C807.763 538.973 807.182 539.144 806.51 539.144ZM812.88 539V532.904C812.88 532.584 812.87 532.259 812.848 531.928C812.838 531.597 812.816 531.277 812.784 530.968H814.032L814.192 532.92L813.968 532.936C814.075 532.456 814.262 532.061 814.528 531.752C814.795 531.443 815.11 531.213 815.472 531.064C815.835 530.904 816.214 530.824 816.608 530.824C816.768 530.824 816.907 530.829 817.024 530.84C817.152 530.851 817.27 530.877 817.376 530.92L817.36 532.072C817.2 532.019 817.051 531.987 816.912 531.976C816.784 531.955 816.635 531.944 816.464 531.944C815.995 531.944 815.584 532.056 815.232 532.28C814.891 532.504 814.63 532.792 814.448 533.144C814.278 533.496 814.192 533.869 814.192 534.264V539H812.88ZM822.199 539.144C820.941 539.144 819.949 538.781 819.223 538.056C818.498 537.32 818.135 536.301 818.135 535C818.135 534.157 818.295 533.427 818.615 532.808C818.935 532.179 819.383 531.693 819.959 531.352C820.535 531 821.197 530.824 821.943 530.824C822.679 530.824 823.298 530.979 823.799 531.288C824.301 531.597 824.685 532.04 824.951 532.616C825.218 533.181 825.351 533.853 825.351 534.632V535.112H819.127V534.296H824.503L824.231 534.504C824.231 533.651 824.039 532.984 823.655 532.504C823.271 532.024 822.701 531.784 821.943 531.784C821.143 531.784 820.519 532.067 820.071 532.632C819.623 533.187 819.399 533.939 819.399 534.888V535.032C819.399 536.035 819.645 536.797 820.135 537.32C820.637 537.832 821.335 538.088 822.231 538.088C822.711 538.088 823.159 538.019 823.575 537.88C824.002 537.731 824.407 537.491 824.791 537.16L825.239 538.072C824.887 538.413 824.439 538.68 823.895 538.872C823.362 539.053 822.797 539.144 822.199 539.144ZM834.354 539.144C833.565 539.144 832.962 538.92 832.546 538.472C832.13 538.013 831.922 537.325 831.922 536.408V531.976H830.354V530.968H831.922V528.776L833.218 528.408V530.968H835.522V531.976H833.218V536.264C833.218 536.904 833.325 537.363 833.538 537.64C833.762 537.907 834.093 538.04 834.53 538.04C834.733 538.04 834.914 538.024 835.074 537.992C835.234 537.949 835.378 537.901 835.506 537.848V538.936C835.357 539 835.176 539.048 834.962 539.08C834.76 539.123 834.557 539.144 834.354 539.144ZM837.1 539V527.224H838.396V532.744H838.188C838.412 532.115 838.785 531.64 839.308 531.32C839.841 530.989 840.455 530.824 841.148 530.824C842.108 530.824 842.823 531.085 843.292 531.608C843.761 532.12 843.996 532.899 843.996 533.944V539H842.7V534.024C842.7 533.277 842.551 532.733 842.252 532.392C841.964 532.051 841.495 531.88 840.844 531.88C840.097 531.88 839.5 532.109 839.052 532.568C838.615 533.027 838.396 533.629 838.396 534.376V539H837.1ZM849.531 539.144C848.816 539.144 848.192 538.979 847.659 538.648C847.126 538.307 846.71 537.827 846.411 537.208C846.123 536.589 845.979 535.848 845.979 534.984C845.979 534.109 846.123 533.363 846.411 532.744C846.71 532.125 847.126 531.651 847.659 531.32C848.192 530.989 848.816 530.824 849.531 530.824C850.256 530.824 850.88 531.011 851.403 531.384C851.936 531.747 852.288 532.243 852.459 532.872H852.267L852.443 530.968H853.691C853.659 531.277 853.627 531.592 853.595 531.912C853.574 532.221 853.563 532.525 853.563 532.824V539H852.267V537.112H852.443C852.272 537.741 851.92 538.237 851.387 538.6C850.854 538.963 850.235 539.144 849.531 539.144ZM849.787 538.088C850.555 538.088 851.163 537.827 851.611 537.304C852.059 536.771 852.283 535.997 852.283 534.984C852.283 533.96 852.059 533.187 851.611 532.664C851.163 532.131 850.555 531.864 849.787 531.864C849.03 531.864 848.422 532.131 847.963 532.664C847.515 533.187 847.291 533.96 847.291 534.984C847.291 535.997 847.515 536.771 847.963 537.304C848.422 537.827 849.03 538.088 849.787 538.088ZM858.917 539.144C858.127 539.144 857.525 538.92 857.109 538.472C856.693 538.013 856.485 537.325 856.485 536.408V531.976H854.917V530.968H856.485V528.776L857.781 528.408V530.968H860.085V531.976H857.781V536.264C857.781 536.904 857.887 537.363 858.101 537.64C858.325 537.907 858.655 538.04 859.093 538.04C859.295 538.04 859.477 538.024 859.637 537.992C859.797 537.949 859.941 537.901 860.069 537.848V538.936C859.919 539 859.738 539.048 859.525 539.08C859.322 539.123 859.119 539.144 858.917 539.144ZM868.682 539.144C867.893 539.144 867.29 538.92 866.874 538.472C866.458 538.013 866.25 537.325 866.25 536.408V531.976H864.682V530.968H866.25V528.776L867.546 528.408V530.968H869.85V531.976H867.546V536.264C867.546 536.904 867.653 537.363 867.866 537.64C868.09 537.907 868.421 538.04 868.858 538.04C869.061 538.04 869.242 538.024 869.402 537.992C869.562 537.949 869.706 537.901 869.834 537.848V538.936C869.685 539 869.504 539.048 869.29 539.08C869.088 539.123 868.885 539.144 868.682 539.144ZM871.428 539V527.224H872.724V532.744H872.516C872.74 532.115 873.113 531.64 873.636 531.32C874.169 530.989 874.783 530.824 875.476 530.824C876.436 530.824 877.151 531.085 877.62 531.608C878.089 532.12 878.324 532.899 878.324 533.944V539H877.028V534.024C877.028 533.277 876.879 532.733 876.58 532.392C876.292 532.051 875.823 531.88 875.172 531.88C874.425 531.88 873.828 532.109 873.38 532.568C872.943 533.027 872.724 533.629 872.724 534.376V539H871.428ZM884.371 539.144C883.112 539.144 882.12 538.781 881.395 538.056C880.67 537.32 880.307 536.301 880.307 535C880.307 534.157 880.467 533.427 880.787 532.808C881.107 532.179 881.555 531.693 882.131 531.352C882.707 531 883.368 530.824 884.115 530.824C884.851 530.824 885.47 530.979 885.971 531.288C886.472 531.597 886.856 532.04 887.123 532.616C887.39 533.181 887.523 533.853 887.523 534.632V535.112H881.299V534.296H886.675L886.403 534.504C886.403 533.651 886.211 532.984 885.827 532.504C885.443 532.024 884.872 531.784 884.115 531.784C883.315 531.784 882.691 532.067 882.243 532.632C881.795 533.187 881.571 533.939 881.571 534.888V535.032C881.571 536.035 881.816 536.797 882.307 537.32C882.808 537.832 883.507 538.088 884.403 538.088C884.883 538.088 885.331 538.019 885.747 537.88C886.174 537.731 886.579 537.491 886.963 537.16L887.411 538.072C887.059 538.413 886.611 538.68 886.067 538.872C885.534 539.053 884.968 539.144 884.371 539.144ZM897.054 539.144C896.265 539.144 895.577 538.973 894.99 538.632C894.414 538.291 893.966 537.805 893.646 537.176C893.337 536.547 893.182 535.8 893.182 534.936C893.182 534.061 893.342 533.32 893.662 532.712C893.982 532.093 894.43 531.624 895.006 531.304C895.593 530.984 896.275 530.824 897.054 530.824C897.566 530.824 898.062 530.915 898.542 531.096C899.033 531.277 899.438 531.533 899.758 531.864L899.294 532.792C898.974 532.483 898.622 532.253 898.238 532.104C897.865 531.955 897.497 531.88 897.134 531.88C896.302 531.88 895.657 532.141 895.198 532.664C894.739 533.187 894.51 533.949 894.51 534.952C894.51 535.944 894.739 536.712 895.198 537.256C895.657 537.8 896.302 538.072 897.134 538.072C897.486 538.072 897.849 538.003 898.222 537.864C898.606 537.725 898.963 537.496 899.294 537.176L899.758 538.088C899.427 538.429 899.017 538.691 898.526 538.872C898.035 539.053 897.545 539.144 897.054 539.144ZM904.593 539.144C903.879 539.144 903.255 538.979 902.721 538.648C902.188 538.307 901.772 537.827 901.473 537.208C901.185 536.589 901.041 535.848 901.041 534.984C901.041 534.109 901.185 533.363 901.473 532.744C901.772 532.125 902.188 531.651 902.721 531.32C903.255 530.989 903.879 530.824 904.593 530.824C905.319 530.824 905.943 531.011 906.465 531.384C906.999 531.747 907.351 532.243 907.521 532.872H907.329L907.505 530.968H908.753C908.721 531.277 908.689 531.592 908.657 531.912C908.636 532.221 908.625 532.525 908.625 532.824V539H907.329V537.112H907.505C907.335 537.741 906.983 538.237 906.449 538.6C905.916 538.963 905.297 539.144 904.593 539.144ZM904.849 538.088C905.617 538.088 906.225 537.827 906.673 537.304C907.121 536.771 907.345 535.997 907.345 534.984C907.345 533.96 907.121 533.187 906.673 532.664C906.225 532.131 905.617 531.864 904.849 531.864C904.092 531.864 903.484 532.131 903.025 532.664C902.577 533.187 902.353 533.96 902.353 534.984C902.353 535.997 902.577 536.771 903.025 537.304C903.484 537.827 904.092 538.088 904.849 538.088ZM911.131 539V532.824C911.131 532.525 911.115 532.221 911.083 531.912C911.062 531.592 911.035 531.277 911.003 530.968H912.251L912.411 532.728H912.219C912.433 532.12 912.769 531.651 913.227 531.32C913.697 530.989 914.262 530.824 914.923 530.824C915.595 530.824 916.139 530.984 916.555 531.304C916.982 531.624 917.27 532.12 917.419 532.792H917.179C917.382 532.184 917.739 531.704 918.251 531.352C918.763 531 919.361 530.824 920.043 530.824C920.929 530.824 921.595 531.08 922.043 531.592C922.491 532.093 922.715 532.888 922.715 533.976V539H921.419V534.056C921.419 533.299 921.286 532.749 921.019 532.408C920.753 532.056 920.326 531.88 919.739 531.88C919.067 531.88 918.534 532.115 918.139 532.584C917.755 533.043 917.563 533.661 917.563 534.44V539H916.267V534.056C916.267 533.299 916.134 532.749 915.867 532.408C915.601 532.056 915.174 531.88 914.587 531.88C913.915 531.88 913.387 532.115 913.003 532.584C912.619 533.043 912.427 533.661 912.427 534.44V539H911.131ZM928.746 539.144C927.487 539.144 926.495 538.781 925.77 538.056C925.045 537.32 924.682 536.301 924.682 535C924.682 534.157 924.842 533.427 925.162 532.808C925.482 532.179 925.93 531.693 926.506 531.352C927.082 531 927.743 530.824 928.49 530.824C929.226 530.824 929.845 530.979 930.346 531.288C930.847 531.597 931.231 532.04 931.498 532.616C931.765 533.181 931.898 533.853 931.898 534.632V535.112H925.674V534.296H931.05L930.778 534.504C930.778 533.651 930.586 532.984 930.202 532.504C929.818 532.024 929.247 531.784 928.49 531.784C927.69 531.784 927.066 532.067 926.618 532.632C926.17 533.187 925.946 533.939 925.946 534.888V535.032C925.946 536.035 926.191 536.797 926.682 537.32C927.183 537.832 927.882 538.088 928.778 538.088C929.258 538.088 929.706 538.019 930.122 537.88C930.549 537.731 930.954 537.491 931.338 537.16L931.786 538.072C931.434 538.413 930.986 538.68 930.442 538.872C929.909 539.053 929.343 539.144 928.746 539.144ZM933.849 539V532.904C933.849 532.584 933.839 532.259 933.817 531.928C933.807 531.597 933.785 531.277 933.753 530.968H935.001L935.161 532.92L934.937 532.936C935.044 532.456 935.231 532.061 935.497 531.752C935.764 531.443 936.079 531.213 936.441 531.064C936.804 530.904 937.183 530.824 937.577 530.824C937.737 530.824 937.876 530.829 937.993 530.84C938.121 530.851 938.239 530.877 938.345 530.92L938.329 532.072C938.169 532.019 938.02 531.987 937.881 531.976C937.753 531.955 937.604 531.944 937.433 531.944C936.964 531.944 936.553 532.056 936.201 532.28C935.86 532.504 935.599 532.792 935.417 533.144C935.247 533.496 935.161 533.869 935.161 534.264V539H933.849ZM942.672 539.144C941.957 539.144 941.333 538.979 940.8 538.648C940.266 538.307 939.85 537.827 939.552 537.208C939.264 536.589 939.12 535.848 939.12 534.984C939.12 534.109 939.264 533.363 939.552 532.744C939.85 532.125 940.266 531.651 940.8 531.32C941.333 530.989 941.957 530.824 942.672 530.824C943.397 530.824 944.021 531.011 944.544 531.384C945.077 531.747 945.429 532.243 945.6 532.872H945.408L945.584 530.968H946.832C946.8 531.277 946.768 531.592 946.736 531.912C946.714 532.221 946.704 532.525 946.704 532.824V539H945.408V537.112H945.584C945.413 537.741 945.061 538.237 944.528 538.6C943.994 538.963 943.376 539.144 942.672 539.144ZM942.928 538.088C943.696 538.088 944.304 537.827 944.752 537.304C945.2 536.771 945.424 535.997 945.424 534.984C945.424 533.96 945.2 533.187 944.752 532.664C944.304 532.131 943.696 531.864 942.928 531.864C942.17 531.864 941.562 532.131 941.104 532.664C940.656 533.187 940.432 533.96 940.432 534.984C940.432 535.997 940.656 536.771 941.104 537.304C941.562 537.827 942.17 538.088 942.928 538.088ZM956.757 539.144C955.968 539.144 955.28 538.973 954.693 538.632C954.117 538.291 953.669 537.805 953.349 537.176C953.04 536.547 952.885 535.8 952.885 534.936C952.885 534.061 953.045 533.32 953.365 532.712C953.685 532.093 954.133 531.624 954.709 531.304C955.296 530.984 955.979 530.824 956.757 530.824C957.269 530.824 957.765 530.915 958.245 531.096C958.736 531.277 959.141 531.533 959.461 531.864L958.997 532.792C958.677 532.483 958.325 532.253 957.941 532.104C957.568 531.955 957.2 531.88 956.837 531.88C956.005 531.88 955.36 532.141 954.901 532.664C954.443 533.187 954.213 533.949 954.213 534.952C954.213 535.944 954.443 536.712 954.901 537.256C955.36 537.8 956.005 538.072 956.837 538.072C957.189 538.072 957.552 538.003 957.925 537.864C958.309 537.725 958.667 537.496 958.997 537.176L959.461 538.088C959.131 538.429 958.72 538.691 958.229 538.872C957.739 539.053 957.248 539.144 956.757 539.144ZM964.297 539.144C963.582 539.144 962.958 538.979 962.425 538.648C961.891 538.307 961.475 537.827 961.177 537.208C960.889 536.589 960.745 535.848 960.745 534.984C960.745 534.109 960.889 533.363 961.177 532.744C961.475 532.125 961.891 531.651 962.425 531.32C962.958 530.989 963.582 530.824 964.297 530.824C965.022 530.824 965.646 531.011 966.169 531.384C966.702 531.747 967.054 532.243 967.225 532.872H967.033L967.209 530.968H968.457C968.425 531.277 968.393 531.592 968.361 531.912C968.339 532.221 968.329 532.525 968.329 532.824V539H967.033V537.112H967.209C967.038 537.741 966.686 538.237 966.153 538.6C965.619 538.963 965.001 539.144 964.297 539.144ZM964.553 538.088C965.321 538.088 965.929 537.827 966.377 537.304C966.825 536.771 967.049 535.997 967.049 534.984C967.049 533.96 966.825 533.187 966.377 532.664C965.929 532.131 965.321 531.864 964.553 531.864C963.795 531.864 963.187 532.131 962.729 532.664C962.281 533.187 962.057 533.96 962.057 534.984C962.057 535.997 962.281 536.771 962.729 537.304C963.187 537.827 963.795 538.088 964.553 538.088ZM970.834 539V532.824C970.834 532.525 970.818 532.221 970.786 531.912C970.765 531.592 970.738 531.277 970.706 530.968H971.954L972.114 532.728H971.922C972.157 532.109 972.53 531.64 973.042 531.32C973.565 530.989 974.168 530.824 974.85 530.824C975.8 530.824 976.514 531.08 976.994 531.592C977.485 532.093 977.73 532.888 977.73 533.976V539H976.434V534.056C976.434 533.299 976.28 532.749 975.97 532.408C975.672 532.056 975.202 531.88 974.562 531.88C973.816 531.88 973.224 532.109 972.786 532.568C972.349 533.027 972.13 533.64 972.13 534.408V539H970.834ZM987.053 539.144C986.413 539.144 985.816 539.059 985.261 538.888C984.707 538.707 984.248 538.456 983.885 538.136L984.333 537.224C984.728 537.533 985.155 537.763 985.613 537.912C986.083 538.061 986.568 538.136 987.069 538.136C987.709 538.136 988.189 538.024 988.509 537.8C988.84 537.565 989.005 537.245 989.005 536.84C989.005 536.531 988.899 536.285 988.685 536.104C988.483 535.912 988.147 535.763 987.677 535.656L986.189 535.352C985.507 535.203 984.995 534.952 984.653 534.6C984.312 534.237 984.141 533.779 984.141 533.224C984.141 532.755 984.264 532.344 984.509 531.992C984.755 531.629 985.112 531.347 985.581 531.144C986.051 530.931 986.6 530.824 987.229 530.824C987.816 530.824 988.355 530.915 988.845 531.096C989.347 531.267 989.763 531.517 990.093 531.848L989.629 532.744C989.309 532.435 988.941 532.205 988.525 532.056C988.12 531.896 987.699 531.816 987.261 531.816C986.632 531.816 986.157 531.944 985.837 532.2C985.528 532.445 985.373 532.771 985.373 533.176C985.373 533.485 985.469 533.741 985.661 533.944C985.864 534.136 986.173 534.28 986.589 534.376L988.077 534.68C988.803 534.84 989.341 535.091 989.693 535.432C990.056 535.763 990.237 536.211 990.237 536.776C990.237 537.256 990.104 537.677 989.837 538.04C989.571 538.392 989.197 538.664 988.717 538.856C988.248 539.048 987.693 539.144 987.053 539.144ZM995.887 539.144C994.628 539.144 993.636 538.781 992.911 538.056C992.185 537.32 991.823 536.301 991.823 535C991.823 534.157 991.983 533.427 992.303 532.808C992.623 532.179 993.071 531.693 993.647 531.352C994.223 531 994.884 530.824 995.631 530.824C996.367 530.824 996.985 530.979 997.487 531.288C997.988 531.597 998.372 532.04 998.639 532.616C998.905 533.181 999.039 533.853 999.039 534.632V535.112H992.815V534.296H998.191L997.919 534.504C997.919 533.651 997.727 532.984 997.343 532.504C996.959 532.024 996.388 531.784 995.631 531.784C994.831 531.784 994.207 532.067 993.759 532.632C993.311 533.187 993.087 533.939 993.087 534.888V535.032C993.087 536.035 993.332 536.797 993.823 537.32C994.324 537.832 995.023 538.088 995.919 538.088C996.399 538.088 996.847 538.019 997.263 537.88C997.689 537.731 998.095 537.491 998.479 537.16L998.927 538.072C998.575 538.413 998.127 538.68 997.583 538.872C997.049 539.053 996.484 539.144 995.887 539.144ZM1004.59 539.144C1003.33 539.144 1002.34 538.781 1001.61 538.056C1000.89 537.32 1000.53 536.301 1000.53 535C1000.53 534.157 1000.69 533.427 1001.01 532.808C1001.33 532.179 1001.77 531.693 1002.35 531.352C1002.93 531 1003.59 530.824 1004.33 530.824C1005.07 530.824 1005.69 530.979 1006.19 531.288C1006.69 531.597 1007.08 532.04 1007.34 532.616C1007.61 533.181 1007.74 533.853 1007.74 534.632V535.112H1001.52V534.296H1006.89L1006.62 534.504C1006.62 533.651 1006.43 532.984 1006.05 532.504C1005.66 532.024 1005.09 531.784 1004.33 531.784C1003.53 531.784 1002.91 532.067 1002.46 532.632C1002.01 533.187 1001.79 533.939 1001.79 534.888V535.032C1001.79 536.035 1002.04 536.797 1002.53 537.32C1003.03 537.832 1003.73 538.088 1004.62 538.088C1005.1 538.088 1005.55 538.019 1005.97 537.88C1006.39 537.731 1006.8 537.491 1007.18 537.16L1007.63 538.072C1007.28 538.413 1006.83 538.68 1006.29 538.872C1005.75 539.053 1005.19 539.144 1004.59 539.144ZM1013.58 542.632L1013.27 541.56C1013.77 541.443 1014.19 541.304 1014.52 541.144C1014.86 540.995 1015.14 540.792 1015.37 540.536C1015.59 540.28 1015.78 539.96 1015.94 539.576L1016.36 538.632L1016.33 539.176L1012.82 530.968H1014.23L1017.13 538.024H1016.71L1019.58 530.968H1020.94L1017.22 539.672C1017.01 540.184 1016.78 540.611 1016.52 540.952C1016.26 541.304 1015.99 541.587 1015.69 541.8C1015.4 542.024 1015.08 542.2 1014.73 542.328C1014.38 542.456 1013.99 542.557 1013.58 542.632ZM1025.58 539.144C1024.82 539.144 1024.14 538.979 1023.57 538.648C1023 538.307 1022.56 537.827 1022.26 537.208C1021.95 536.579 1021.79 535.837 1021.79 534.984C1021.79 534.12 1021.95 533.379 1022.26 532.76C1022.56 532.141 1023 531.667 1023.57 531.336C1024.14 530.995 1024.82 530.824 1025.58 530.824C1026.36 530.824 1027.03 530.995 1027.6 531.336C1028.18 531.667 1028.62 532.141 1028.93 532.76C1029.25 533.379 1029.41 534.12 1029.41 534.984C1029.41 535.837 1029.25 536.579 1028.93 537.208C1028.62 537.827 1028.18 538.307 1027.6 538.648C1027.03 538.979 1026.36 539.144 1025.58 539.144ZM1025.58 538.088C1026.35 538.088 1026.96 537.827 1027.41 537.304C1027.86 536.771 1028.08 535.997 1028.08 534.984C1028.08 533.96 1027.85 533.187 1027.39 532.664C1026.94 532.131 1026.34 531.864 1025.58 531.864C1024.83 531.864 1024.22 532.131 1023.78 532.664C1023.33 533.187 1023.1 533.96 1023.1 534.984C1023.1 535.997 1023.33 536.771 1023.78 537.304C1024.22 537.827 1024.83 538.088 1025.58 538.088ZM1034.26 539.144C1033.31 539.144 1032.59 538.883 1032.1 538.36C1031.62 537.837 1031.38 537.037 1031.38 535.96V530.968H1032.68V535.928C1032.68 536.664 1032.83 537.208 1033.12 537.56C1033.42 537.901 1033.89 538.072 1034.52 538.072C1035.22 538.072 1035.79 537.843 1036.21 537.384C1036.64 536.925 1036.85 536.312 1036.85 535.544V530.968H1038.15V539H1036.88V537.192H1037.09C1036.87 537.811 1036.51 538.291 1036 538.632C1035.51 538.973 1034.93 539.144 1034.26 539.144ZM1040.63 539V532.904C1040.63 532.584 1040.62 532.259 1040.6 531.928C1040.59 531.597 1040.57 531.277 1040.53 530.968H1041.78L1041.94 532.92L1041.72 532.936C1041.83 532.456 1042.01 532.061 1042.28 531.752C1042.55 531.443 1042.86 531.213 1043.22 531.064C1043.59 530.904 1043.96 530.824 1044.36 530.824C1044.52 530.824 1044.66 530.829 1044.77 530.84C1044.9 530.851 1045.02 530.877 1045.13 530.92L1045.11 532.072C1044.95 532.019 1044.8 531.987 1044.66 531.976C1044.53 531.955 1044.39 531.944 1044.21 531.944C1043.75 531.944 1043.33 532.056 1042.98 532.28C1042.64 532.504 1042.38 532.792 1042.2 533.144C1042.03 533.496 1041.94 533.869 1041.94 534.264V539H1040.63ZM1051.06 539V531.976H1049.49V530.968H1051.41L1051.06 531.304V529.96C1051.06 529.053 1051.29 528.36 1051.75 527.88C1052.21 527.4 1052.87 527.16 1053.72 527.16C1053.93 527.16 1054.15 527.181 1054.37 527.224C1054.61 527.256 1054.8 527.304 1054.95 527.368V528.44C1054.82 528.387 1054.66 528.344 1054.47 528.312C1054.29 528.269 1054.1 528.248 1053.91 528.248C1053.58 528.248 1053.3 528.317 1053.06 528.456C1052.83 528.584 1052.65 528.781 1052.53 529.048C1052.42 529.315 1052.36 529.656 1052.36 530.072V531.24L1052.15 530.968H1054.6V531.976H1052.36V539H1051.06ZM1059.03 539.144C1058.32 539.144 1057.69 538.979 1057.16 538.648C1056.63 538.307 1056.21 537.827 1055.91 537.208C1055.62 536.589 1055.48 535.848 1055.48 534.984C1055.48 534.109 1055.62 533.363 1055.91 532.744C1056.21 532.125 1056.63 531.651 1057.16 531.32C1057.69 530.989 1058.32 530.824 1059.03 530.824C1059.76 530.824 1060.38 531.011 1060.9 531.384C1061.44 531.747 1061.79 532.243 1061.96 532.872H1061.77L1061.94 530.968H1063.19C1063.16 531.277 1063.13 531.592 1063.09 531.912C1063.07 532.221 1063.06 532.525 1063.06 532.824V539H1061.77V537.112H1061.94C1061.77 537.741 1061.42 538.237 1060.89 538.6C1060.35 538.963 1059.73 539.144 1059.03 539.144ZM1059.29 538.088C1060.05 538.088 1060.66 537.827 1061.11 537.304C1061.56 536.771 1061.78 535.997 1061.78 534.984C1061.78 533.96 1061.56 533.187 1061.11 532.664C1060.66 532.131 1060.05 531.864 1059.29 531.864C1058.53 531.864 1057.92 532.131 1057.46 532.664C1057.01 533.187 1056.79 533.96 1056.79 534.984C1056.79 535.997 1057.01 536.771 1057.46 537.304C1057.92 537.827 1058.53 538.088 1059.29 538.088ZM1068.94 539.144C1068.16 539.144 1067.47 538.973 1066.88 538.632C1066.3 538.291 1065.86 537.805 1065.54 537.176C1065.23 536.547 1065.07 535.8 1065.07 534.936C1065.07 534.061 1065.23 533.32 1065.55 532.712C1065.87 532.093 1066.32 531.624 1066.9 531.304C1067.48 530.984 1068.17 530.824 1068.94 530.824C1069.46 530.824 1069.95 530.915 1070.43 531.096C1070.92 531.277 1071.33 531.533 1071.65 531.864L1071.18 532.792C1070.86 532.483 1070.51 532.253 1070.13 532.104C1069.76 531.955 1069.39 531.88 1069.02 531.88C1068.19 531.88 1067.55 532.141 1067.09 532.664C1066.63 533.187 1066.4 533.949 1066.4 534.952C1066.4 535.944 1066.63 536.712 1067.09 537.256C1067.55 537.8 1068.19 538.072 1069.02 538.072C1069.38 538.072 1069.74 538.003 1070.11 537.864C1070.5 537.725 1070.85 537.496 1071.18 537.176L1071.65 538.088C1071.32 538.429 1070.91 538.691 1070.42 538.872C1069.93 539.053 1069.44 539.144 1068.94 539.144ZM1076.9 539.144C1075.64 539.144 1074.65 538.781 1073.93 538.056C1073.2 537.32 1072.84 536.301 1072.84 535C1072.84 534.157 1073 533.427 1073.32 532.808C1073.64 532.179 1074.09 531.693 1074.66 531.352C1075.24 531 1075.9 530.824 1076.65 530.824C1077.38 530.824 1078 530.979 1078.5 531.288C1079 531.597 1079.39 532.04 1079.65 532.616C1079.92 533.181 1080.05 533.853 1080.05 534.632V535.112H1073.83V534.296H1079.21L1078.93 534.504C1078.93 533.651 1078.74 532.984 1078.36 532.504C1077.97 532.024 1077.4 531.784 1076.65 531.784C1075.85 531.784 1075.22 532.067 1074.77 532.632C1074.33 533.187 1074.1 533.939 1074.1 534.888V535.032C1074.1 536.035 1074.35 536.797 1074.84 537.32C1075.34 537.832 1076.04 538.088 1076.93 538.088C1077.41 538.088 1077.86 538.019 1078.28 537.88C1078.7 537.731 1079.11 537.491 1079.49 537.16L1079.94 538.072C1079.59 538.413 1079.14 538.68 1078.6 538.872C1078.06 539.053 1077.5 539.144 1076.9 539.144ZM1089.06 539.144C1088.27 539.144 1087.67 538.92 1087.25 538.472C1086.83 538.013 1086.63 537.325 1086.63 536.408V531.976H1085.06V530.968H1086.63V528.776L1087.92 528.408V530.968H1090.23V531.976H1087.92V536.264C1087.92 536.904 1088.03 537.363 1088.24 537.64C1088.47 537.907 1088.8 538.04 1089.23 538.04C1089.44 538.04 1089.62 538.024 1089.78 537.992C1089.94 537.949 1090.08 537.901 1090.21 537.848V538.936C1090.06 539 1089.88 539.048 1089.67 539.08C1089.46 539.123 1089.26 539.144 1089.06 539.144ZM1091.8 539V527.224H1093.1V532.744H1092.89C1093.12 532.115 1093.49 531.64 1094.01 531.32C1094.54 530.989 1095.16 530.824 1095.85 530.824C1096.81 530.824 1097.53 531.085 1098 531.608C1098.46 532.12 1098.7 532.899 1098.7 533.944V539H1097.4V534.024C1097.4 533.277 1097.25 532.733 1096.96 532.392C1096.67 532.051 1096.2 531.88 1095.55 531.88C1094.8 531.88 1094.2 532.109 1093.76 532.568C1093.32 533.027 1093.1 533.629 1093.1 534.376V539H1091.8ZM1104.75 539.144C1103.49 539.144 1102.5 538.781 1101.77 538.056C1101.04 537.32 1100.68 536.301 1100.68 535C1100.68 534.157 1100.84 533.427 1101.16 532.808C1101.48 532.179 1101.93 531.693 1102.51 531.352C1103.08 531 1103.74 530.824 1104.49 530.824C1105.23 530.824 1105.84 530.979 1106.35 531.288C1106.85 531.597 1107.23 532.04 1107.5 532.616C1107.76 533.181 1107.9 533.853 1107.9 534.632V535.112H1101.67V534.296H1107.05L1106.78 534.504C1106.78 533.651 1106.59 532.984 1106.2 532.504C1105.82 532.024 1105.25 531.784 1104.49 531.784C1103.69 531.784 1103.07 532.067 1102.62 532.632C1102.17 533.187 1101.95 533.939 1101.95 534.888V535.032C1101.95 536.035 1102.19 536.797 1102.68 537.32C1103.18 537.832 1103.88 538.088 1104.78 538.088C1105.26 538.088 1105.71 538.019 1106.12 537.88C1106.55 537.731 1106.95 537.491 1107.34 537.16L1107.79 538.072C1107.43 538.413 1106.99 538.68 1106.44 538.872C1105.91 539.053 1105.34 539.144 1104.75 539.144ZM1116.2 539L1113.22 530.968H1114.6L1117.08 538.04H1116.66L1119.22 530.968H1120.34L1122.85 538.04H1122.45L1124.95 530.968H1126.26L1123.27 539H1122.02L1119.43 531.816H1120.07L1117.46 539H1116.2ZM1127.96 539V527.224H1129.26V532.744H1129.05C1129.27 532.115 1129.64 531.64 1130.17 531.32C1130.7 530.989 1131.31 530.824 1132.01 530.824C1132.97 530.824 1133.68 531.085 1134.15 531.608C1134.62 532.12 1134.86 532.899 1134.86 533.944V539H1133.56V534.024C1133.56 533.277 1133.41 532.733 1133.11 532.392C1132.82 532.051 1132.35 531.88 1131.7 531.88C1130.96 531.88 1130.36 532.109 1129.91 532.568C1129.47 533.027 1129.26 533.629 1129.26 534.376V539H1127.96ZM1140.63 539.144C1139.86 539.144 1139.19 538.979 1138.61 538.648C1138.05 538.307 1137.61 537.827 1137.3 537.208C1136.99 536.579 1136.84 535.837 1136.84 534.984C1136.84 534.12 1136.99 533.379 1137.3 532.76C1137.61 532.141 1138.05 531.667 1138.61 531.336C1139.19 530.995 1139.86 530.824 1140.63 530.824C1141.41 530.824 1142.08 530.995 1142.65 531.336C1143.22 531.667 1143.66 532.141 1143.97 532.76C1144.29 533.379 1144.45 534.12 1144.45 534.984C1144.45 535.837 1144.29 536.579 1143.97 537.208C1143.66 537.827 1143.22 538.307 1142.65 538.648C1142.08 538.979 1141.41 539.144 1140.63 539.144ZM1140.63 538.088C1141.4 538.088 1142.01 537.827 1142.45 537.304C1142.9 536.771 1143.13 535.997 1143.13 534.984C1143.13 533.96 1142.9 533.187 1142.44 532.664C1141.99 532.131 1141.39 531.864 1140.63 531.864C1139.87 531.864 1139.27 532.131 1138.82 532.664C1138.37 533.187 1138.15 533.96 1138.15 534.984C1138.15 535.997 1138.37 536.771 1138.82 537.304C1139.27 537.827 1139.87 538.088 1140.63 538.088ZM1146.47 539V527.224H1147.77V539H1146.47ZM1153.86 539.144C1152.6 539.144 1151.6 538.781 1150.88 538.056C1150.15 537.32 1149.79 536.301 1149.79 535C1149.79 534.157 1149.95 533.427 1150.27 532.808C1150.59 532.179 1151.04 531.693 1151.62 531.352C1152.19 531 1152.85 530.824 1153.6 530.824C1154.34 530.824 1154.95 530.979 1155.46 531.288C1155.96 531.597 1156.34 532.04 1156.61 532.616C1156.87 533.181 1157.01 533.853 1157.01 534.632V535.112H1150.78V534.296H1156.16L1155.89 534.504C1155.89 533.651 1155.7 532.984 1155.31 532.504C1154.93 532.024 1154.36 531.784 1153.6 531.784C1152.8 531.784 1152.18 532.067 1151.73 532.632C1151.28 533.187 1151.06 533.939 1151.06 534.888V535.032C1151.06 536.035 1151.3 536.797 1151.79 537.32C1152.29 537.832 1152.99 538.088 1153.89 538.088C1154.37 538.088 1154.82 538.019 1155.23 537.88C1155.66 537.731 1156.06 537.491 1156.45 537.16L1156.9 538.072C1156.54 538.413 1156.1 538.68 1155.55 538.872C1155.02 539.053 1154.45 539.144 1153.86 539.144ZM1166.01 539.144C1165.22 539.144 1164.62 538.92 1164.2 538.472C1163.79 538.013 1163.58 537.325 1163.58 536.408V531.976H1162.01V530.968H1163.58V528.776L1164.87 528.408V530.968H1167.18V531.976H1164.87V536.264C1164.87 536.904 1164.98 537.363 1165.19 537.64C1165.42 537.907 1165.75 538.04 1166.19 538.04C1166.39 538.04 1166.57 538.024 1166.73 537.992C1166.89 537.949 1167.03 537.901 1167.16 537.848V538.936C1167.01 539 1166.83 539.048 1166.62 539.08C1166.42 539.123 1166.21 539.144 1166.01 539.144ZM1168.76 539V530.968H1170.05V539H1168.76ZM1168.6 529.144V527.688H1170.2V529.144H1168.6ZM1172.57 539V532.824C1172.57 532.525 1172.55 532.221 1172.52 531.912C1172.5 531.592 1172.47 531.277 1172.44 530.968H1173.69L1173.85 532.728H1173.66C1173.87 532.12 1174.21 531.651 1174.66 531.32C1175.13 530.989 1175.7 530.824 1176.36 530.824C1177.03 530.824 1177.58 530.984 1177.99 531.304C1178.42 531.624 1178.71 532.12 1178.86 532.792H1178.62C1178.82 532.184 1179.18 531.704 1179.69 531.352C1180.2 531 1180.8 530.824 1181.48 530.824C1182.37 530.824 1183.03 531.08 1183.48 531.592C1183.93 532.093 1184.15 532.888 1184.15 533.976V539H1182.86V534.056C1182.86 533.299 1182.72 532.749 1182.46 532.408C1182.19 532.056 1181.76 531.88 1181.18 531.88C1180.5 531.88 1179.97 532.115 1179.58 532.584C1179.19 533.043 1179 533.661 1179 534.44V539H1177.7V534.056C1177.7 533.299 1177.57 532.749 1177.3 532.408C1177.04 532.056 1176.61 531.88 1176.02 531.88C1175.35 531.88 1174.82 532.115 1174.44 532.584C1174.06 533.043 1173.86 533.661 1173.86 534.44V539H1172.57ZM1190.18 539.144C1188.92 539.144 1187.93 538.781 1187.21 538.056C1186.48 537.32 1186.12 536.301 1186.12 535C1186.12 534.157 1186.28 533.427 1186.6 532.808C1186.92 532.179 1187.37 531.693 1187.94 531.352C1188.52 531 1189.18 530.824 1189.93 530.824C1190.66 530.824 1191.28 530.979 1191.78 531.288C1192.28 531.597 1192.67 532.04 1192.94 532.616C1193.2 533.181 1193.34 533.853 1193.34 534.632V535.112H1187.11V534.296H1192.49L1192.22 534.504C1192.22 533.651 1192.02 532.984 1191.64 532.504C1191.26 532.024 1190.68 531.784 1189.93 531.784C1189.13 531.784 1188.5 532.067 1188.06 532.632C1187.61 533.187 1187.38 533.939 1187.38 534.888V535.032C1187.38 536.035 1187.63 536.797 1188.12 537.32C1188.62 537.832 1189.32 538.088 1190.22 538.088C1190.7 538.088 1191.14 538.019 1191.56 537.88C1191.99 537.731 1192.39 537.491 1192.78 537.16L1193.22 538.072C1192.87 538.413 1192.42 538.68 1191.88 538.872C1191.35 539.053 1190.78 539.144 1190.18 539.144ZM1195.06 539V537.368H1196.69V539H1195.06Z" fill="white"/>
<rect opacity="0.1" x="40" y="105" width="280" height="285" rx="140" fill="white"/>
<path fill-rule="evenodd" clip-rule="evenodd" d="M197.081 162.643C206.466 155.125 209.893 141.921 204.613 130.521C198.402 117.11 182.495 111.273 169.085 117.484C161.273 121.102 156.032 128.009 154.244 135.797C146.289 130.478 135.834 129.309 126.516 133.624C112.292 140.212 106.102 157.082 112.689 171.306C113.39 172.818 114.207 174.24 115.124 175.565C110.303 174.951 105.256 175.642 100.521 177.835C87.1099 184.046 81.2733 199.952 87.4841 213.363C90.5631 220.011 96.0249 224.798 102.384 227.178C90.7726 234.112 86.041 248.84 91.8507 261.384C98.0615 274.795 113.968 280.631 127.379 274.421C128.047 274.111 128.697 273.777 129.327 273.421C129.593 273.911 129.866 274.4 130.144 274.887C161.587 329.823 232.803 378.81 318.068 408.774C331.848 413.617 367.501 426.529 382.5 430.5V266.887C330.334 247.538 279.09 221.945 266.447 208.242C276.306 198.187 279.456 182.701 273.188 169.165C265.095 151.691 244.368 144.086 226.894 152.178C220.781 155.009 215.877 159.386 212.429 164.628C207.409 163.445 202.265 162.776 197.081 162.643ZM170.715 166.739C169.2 166.156 167.736 165.435 166.345 164.584C166.069 166.057 165.677 167.505 165.175 168.913C167.005 168.11 168.853 167.386 170.715 166.739ZM134.143 187.435C135.806 187.692 137.496 187.801 139.196 187.757C138.171 188.908 137.185 190.088 136.239 191.293C136.177 191.152 136.113 191.011 136.048 190.871C135.489 189.663 134.851 188.517 134.143 187.435Z" fill="#272D69"/>
<rect x="125" y="109" width="110" height="236" rx="10" fill="white" stroke="#272D69" stroke-width="4"/>
<path d="M152.657 111C152.657 109.067 154.224 107.5 156.157 107.5H203.843C205.776 107.5 207.343 109.067 207.343 111V115.881C207.343 117.814 205.776 119.381 203.843 119.381H156.157C154.224 119.381 152.657 117.814 152.657 115.881V111Z" fill="#272D69" stroke="#272D69"/>
<path fill-rule="evenodd" clip-rule="evenodd" d="M186 319.5C186 324.056 182.558 327.75 180.001 327.75C177.444 327.75 174.041 323.812 174.002 319.5C173.964 315.188 174.41 311.25 180.001 311.25C185.592 311.25 186 314.944 186 319.5ZM184.5 319.5C184.5 321.404 183.777 323.145 182.783 324.403C181.738 325.725 180.625 326.25 180.001 326.25C179.412 326.25 178.309 325.706 177.245 324.326C176.236 323.019 175.518 321.266 175.502 319.487C175.482 317.296 175.611 315.603 176.216 314.459C176.492 313.938 176.864 313.542 177.399 313.259C177.954 312.967 178.773 312.75 180.001 312.75C181.243 312.75 182.066 312.956 182.62 313.237C183.149 313.505 183.509 313.879 183.775 314.375C184.371 315.485 184.5 317.164 184.5 319.5Z" fill="#272D69"/>
<path d="M176.03 327.97C175.737 327.677 175.263 327.677 174.97 327.97C174.677 328.263 174.677 328.737 174.97 329.03C176.535 330.596 177.958 331.5 180 331.5C182.042 331.5 183.465 330.596 185.03 329.03C185.323 328.737 185.323 328.263 185.03 327.97C184.737 327.677 184.263 327.677 183.97 327.97C182.535 329.404 181.473 330 180 330C178.527 330 177.465 329.404 176.03 327.97Z" fill="#272D69"/>
<path fill-rule="evenodd" clip-rule="evenodd" d="M192 318.75C192 323.306 188.558 327 186.001 327C183.444 327 180.041 323.062 180.002 318.75C179.964 314.438 180.41 310.5 186.001 310.5C191.592 310.5 192 314.194 192 318.75ZM190.5 318.75C190.5 320.654 189.777 322.395 188.783 323.653C187.738 324.975 186.625 325.5 186.001 325.5C185.412 325.5 184.309 324.956 183.245 323.576C182.236 322.269 181.518 320.516 181.502 318.737C181.482 316.546 181.611 314.853 182.216 313.709C182.492 313.188 182.864 312.792 183.399 312.509C183.954 312.217 184.773 312 186.001 312C187.243 312 188.066 312.206 188.62 312.487C189.149 312.755 189.509 313.129 189.775 313.625C190.371 314.735 190.5 316.414 190.5 318.75Z" fill="#272D69"/>
<mask id="mask0_1_2113" style="mask-type:alpha" maskUnits="userSpaceOnUse" x="197" y="182" width="14" height="13">
<circle cx="203.722" cy="188.49" r="6.30887" fill="#2C3032"/>
</mask>
<g mask="url(#mask0_1_2113)">
<path fill-rule="evenodd" clip-rule="evenodd" d="M210.031 188.49C210.031 191.974 207.206 194.798 203.722 194.798C200.238 194.798 197.413 191.974 197.413 188.49C197.413 185.005 200.238 182.181 203.722 182.181C207.206 182.181 210.031 185.005 210.031 188.49ZM207.071 186.141C207.071 186.917 206.442 187.546 205.665 187.546C204.889 187.546 204.26 186.917 204.26 186.141C204.26 185.365 204.889 184.735 205.665 184.735C206.442 184.735 207.071 185.365 207.071 186.141ZM202.983 186.013C203.406 186.013 203.749 185.669 203.749 185.246C203.749 184.823 203.406 184.479 202.983 184.479C202.559 184.479 202.216 184.823 202.216 185.246C202.216 185.669 202.559 186.013 202.983 186.013Z" fill="#272D69"/>
</g>
<mask id="mask1_1_2113" style="mask-type:alpha" maskUnits="userSpaceOnUse" x="150" y="182" width="14" height="13">
<circle cx="157.104" cy="188.49" r="6.30887" fill="#2C3032"/>
</mask>
<g mask="url(#mask1_1_2113)">
<path fill-rule="evenodd" clip-rule="evenodd" d="M163.413 188.49C163.413 191.974 160.588 194.798 157.104 194.798C153.619 194.798 150.795 191.974 150.795 188.49C150.795 185.005 153.619 182.181 157.104 182.181C160.588 182.181 163.413 185.005 163.413 188.49ZM160.453 186.141C160.453 186.917 159.823 187.546 159.047 187.546C158.271 187.546 157.642 186.917 157.642 186.141C157.642 185.365 158.271 184.735 159.047 184.735C159.823 184.735 160.453 185.365 160.453 186.141ZM156.364 186.013C156.788 186.013 157.131 185.669 157.131 185.246C157.131 184.823 156.788 184.479 156.364 184.479C155.941 184.479 155.598 184.823 155.598 185.246C155.598 185.669 155.941 186.013 156.364 186.013Z" fill="#272D69"/>
</g>
<path d="M196.394 203.892C196.394 209.117 189.336 216.732 180.63 216.732C171.925 216.732 164.867 209.117 164.867 203.892C164.867 198.666 171.925 205.356 180.63 205.356C189.336 205.356 196.394 198.666 196.394 203.892Z" fill="#272D69"/>
<path d="M212.654 176.111C212.654 173.981 208.712 170.878 203.848 170.878C198.985 170.878 195.042 173.981 195.042 176.111C195.042 178.24 198.985 175.514 203.848 175.514C208.712 175.514 212.654 178.24 212.654 176.111Z" fill="#272D69"/>
<path d="M166.042 176.111C166.042 173.981 162.099 170.878 157.236 170.878C152.372 170.878 148.43 173.981 148.43 176.111C148.43 178.24 152.372 175.514 157.236 175.514C162.099 175.514 166.042 178.24 166.042 176.111Z" fill="#272D69"/>
<rect x="32" y="652" width="296" height="52" rx="26" fill="#272D69"/>
<path d="M162.248 684V672.72H163.8L170.344 681.184H169.928V672.72H171.848V684H170.296L163.768 675.536H164.168V684H162.248ZM178.71 684.16C177.355 684.16 176.294 683.787 175.526 683.04C174.758 682.293 174.374 681.269 174.374 679.968C174.374 679.125 174.539 678.389 174.87 677.76C175.201 677.131 175.659 676.64 176.246 676.288C176.843 675.936 177.537 675.76 178.326 675.76C179.105 675.76 179.755 675.925 180.278 676.256C180.801 676.587 181.195 677.051 181.462 677.648C181.739 678.245 181.878 678.944 181.878 679.744V680.272H175.99V679.216H180.454L180.182 679.44C180.182 678.693 180.022 678.123 179.702 677.728C179.393 677.333 178.939 677.136 178.342 677.136C177.681 677.136 177.169 677.371 176.806 677.84C176.454 678.309 176.278 678.965 176.278 679.808V680.016C176.278 680.891 176.491 681.547 176.918 681.984C177.355 682.411 177.969 682.624 178.758 682.624C179.217 682.624 179.643 682.565 180.038 682.448C180.443 682.32 180.827 682.117 181.19 681.84L181.782 683.184C181.398 683.493 180.939 683.733 180.406 683.904C179.873 684.075 179.307 684.16 178.71 684.16ZM182.917 684L186.677 679.376V680.288L183.125 675.92H185.493L187.813 678.912H187.093L189.413 675.92H191.765L188.245 680.288V679.376L191.989 684H189.605L187.093 680.784H187.813L185.285 684H182.917ZM197.042 684.16C196.082 684.16 195.357 683.909 194.866 683.408C194.375 682.907 194.13 682.155 194.13 681.152V677.424H192.578V675.92H194.13V673.856L196.13 673.344V675.92H198.29V677.424H196.13V681.024C196.13 681.579 196.237 681.968 196.45 682.192C196.663 682.416 196.957 682.528 197.33 682.528C197.533 682.528 197.703 682.512 197.842 682.48C197.991 682.448 198.135 682.405 198.274 682.352V683.936C198.093 684.011 197.89 684.064 197.666 684.096C197.453 684.139 197.245 684.16 197.042 684.16Z" fill="white"/>
<g filter="url(#filter0_b_1_2113)">
<path fill-rule="evenodd" clip-rule="evenodd" d="M28.4142 57L30.7071 59.2929C31.0976 59.6834 31.0976 60.3166 30.7071 60.7071C30.3166 61.0976 29.6834 61.0976 29.2929 60.7071L25.2929 56.7071C24.9024 56.3166 24.9024 55.6834 25.2929 55.2929L29.2929 51.2929C29.6834 50.9024 30.3166 50.9024 30.7071 51.2929C31.0976 51.6834 31.0976 52.3166 30.7071 52.7071L28.4142 55L33 55C36.3137 55 39 57.6863 39 61L39 64C39 64.5523 38.5523 65 38 65C37.4477 65 37 64.5523 37 64L37 61C37 58.7909 35.2091 57 33 57L28.4142 57Z" fill="white"/>
<path d="M307.03 64.16C306.123 64.16 305.286 64.048 304.518 63.824C303.76 63.5893 303.11 63.2693 302.566 62.864L303.206 61.248C303.568 61.504 303.947 61.7227 304.342 61.904C304.736 62.0747 305.158 62.208 305.606 62.304C306.054 62.3893 306.528 62.432 307.03 62.432C307.872 62.432 308.48 62.2933 308.854 62.016C309.227 61.7387 309.414 61.376 309.414 60.928C309.414 60.5333 309.286 60.2347 309.03 60.032C308.774 59.8187 308.315 59.6427 307.654 59.504L305.846 59.136C304.811 58.9227 304.038 58.5653 303.526 58.064C303.014 57.5627 302.758 56.8907 302.758 56.048C302.758 55.344 302.944 54.7307 303.318 54.208C303.691 53.6853 304.214 53.28 304.886 52.992C305.558 52.704 306.342 52.56 307.238 52.56C308.038 52.56 308.779 52.6773 309.462 52.912C310.144 53.136 310.715 53.4613 311.174 53.888L310.534 55.424C310.075 55.04 309.574 54.7573 309.03 54.576C308.486 54.384 307.878 54.288 307.206 54.288C306.448 54.288 305.856 54.4373 305.43 54.736C305.014 55.024 304.806 55.424 304.806 55.936C304.806 56.3307 304.934 56.6453 305.19 56.88C305.456 57.1147 305.904 57.296 306.534 57.424L308.326 57.776C309.392 57.9893 310.182 58.3413 310.694 58.832C311.206 59.312 311.462 59.9627 311.462 60.784C311.462 61.456 311.28 62.048 310.918 62.56C310.555 63.0613 310.043 63.456 309.382 63.744C308.72 64.0213 307.936 64.16 307.03 64.16ZM313.886 64V52.224H315.886V59.36H315.918L319.198 55.92H321.614L317.534 60.192L317.55 59.392L321.902 64H319.422L315.918 60.384H315.886V64H313.886ZM323.354 64V55.92H325.354V64H323.354ZM323.242 54.4V52.448H325.466V54.4H323.242ZM328.166 67.456V57.936C328.166 57.6053 328.155 57.2693 328.134 56.928C328.113 56.5867 328.081 56.2507 328.038 55.92H329.974L330.15 57.616H329.974C330.134 57.0507 330.47 56.6027 330.982 56.272C331.505 55.9307 332.107 55.76 332.79 55.76C333.505 55.76 334.129 55.9307 334.662 56.272C335.195 56.6027 335.611 57.0827 335.91 57.712C336.209 58.3307 336.358 59.0773 336.358 59.952C336.358 60.8267 336.209 61.5787 335.91 62.208C335.611 62.8373 335.195 63.3227 334.662 63.664C334.129 63.9947 333.505 64.16 332.79 64.16C332.118 64.16 331.526 63.9947 331.014 63.664C330.502 63.3333 330.161 62.8907 329.99 62.336H330.166V67.456H328.166ZM332.23 62.624C332.87 62.624 333.382 62.4053 333.766 61.968C334.15 61.52 334.342 60.848 334.342 59.952C334.342 59.056 334.15 58.3893 333.766 57.952C333.382 57.5147 332.87 57.296 332.23 57.296C331.601 57.296 331.094 57.5147 330.71 57.952C330.326 58.3893 330.134 59.056 330.134 59.952C330.134 60.848 330.326 61.52 330.71 61.968C331.094 62.4053 331.601 62.624 332.23 62.624Z" fill="white"/>
</g>
<rect x="140" y="733" width="8" height="6" rx="3" stroke="white" stroke-width="2"/>
<rect x="164" y="733" width="32" height="6" rx="3" fill="white"/>
<rect x="212" y="733" width="8" height="6" rx="3" stroke="white" stroke-width="2"/>
</g>
<defs>
<filter id="filter0_b_1_2113" x="-6" y="-6" width="373" height="96" filterUnits="userSpaceOnUse" color-interpolation-filters="sRGB">
<feFlood flood-opacity="0" result="BackgroundImageFix"/>
<feGaussianBlur in="BackgroundImageFix" stdDeviation="3"/>
<feComposite in2="SourceAlpha" operator="in" result="effect1_backgroundBlur_1_2113"/>
<feBlend mode="normal" in="SourceGraphic" in2="effect1_backgroundBlur_1_2113" result="shape"/>
</filter>
<clipPath id="clip0_1_2113">
<rect width="360" height="780" rx="30" fill="white"/>
</clipPath>
</defs>
</svg>
