<svg width="360" height="780" viewBox="0 0 360 780" fill="none" xmlns="http://www.w3.org/2000/svg">
<g clip-path="url(#clip0_1_3377)">
<rect width="360" height="780" rx="18" fill="#272D69"/>
<g filter="url(#filter0_b_1_3377)">
<rect width="361" height="84" fill="#272D69"/>
<g opacity="0.5">
<path d="M133.279 63V58.366L133.601 59.29L129.443 53.13H131.123L134.217 57.848H133.867L136.961 53.13H138.585L134.441 59.29L134.735 58.366V63H133.279ZM141.261 63.126C140.561 63.126 139.955 62.9813 139.441 62.692C138.928 62.3933 138.531 61.9733 138.251 61.432C137.971 60.8813 137.831 60.228 137.831 59.472C137.831 58.716 137.971 58.0673 138.251 57.526C138.531 56.9753 138.928 56.5553 139.441 56.266C139.955 55.9673 140.561 55.818 141.261 55.818C141.961 55.818 142.568 55.9673 143.081 56.266C143.604 56.5553 144.005 56.9753 144.285 57.526C144.575 58.0673 144.719 58.716 144.719 59.472C144.719 60.228 144.575 60.8813 144.285 61.432C144.005 61.9733 143.604 62.3933 143.081 62.692C142.568 62.9813 141.961 63.126 141.261 63.126ZM141.261 62.02C141.877 62.02 142.367 61.8053 142.731 61.376C143.095 60.9467 143.277 60.312 143.277 59.472C143.277 58.632 143.095 58.002 142.731 57.582C142.367 57.1527 141.877 56.938 141.261 56.938C140.655 56.938 140.169 57.1527 139.805 57.582C139.441 58.002 139.259 58.632 139.259 59.472C139.259 60.312 139.437 60.9467 139.791 61.376C140.155 61.8053 140.645 62.02 141.261 62.02ZM148.878 63.126C148.029 63.126 147.389 62.8973 146.96 62.44C146.54 61.9733 146.33 61.2593 146.33 60.298V55.944H147.744V60.27C147.744 60.858 147.865 61.292 148.108 61.572C148.351 61.852 148.719 61.992 149.214 61.992C149.774 61.992 150.227 61.8053 150.572 61.432C150.917 61.0587 151.09 60.564 151.09 59.948V55.944H152.504V63H151.132V61.488H151.314C151.118 62.0107 150.805 62.4167 150.376 62.706C149.947 62.986 149.447 63.126 148.878 63.126ZM154.547 63V57.694C154.547 57.4047 154.538 57.1153 154.519 56.826C154.51 56.5273 154.491 56.2333 154.463 55.944H155.835L155.989 57.764H155.765C155.858 57.3253 156.017 56.9613 156.241 56.672C156.465 56.3827 156.736 56.168 157.053 56.028C157.38 55.888 157.72 55.818 158.075 55.818C158.224 55.818 158.35 55.8273 158.453 55.846C158.556 55.8553 158.658 55.874 158.761 55.902L158.747 57.162C158.588 57.0967 158.448 57.0593 158.327 57.05C158.215 57.0313 158.075 57.022 157.907 57.022C157.496 57.022 157.146 57.1153 156.857 57.302C156.568 57.4793 156.348 57.722 156.199 58.03C156.05 58.338 155.975 58.6693 155.975 59.024V63H154.547ZM163.725 63V53.13H164.999L168.807 61.712H168.387L172.195 53.13H173.455V63H172.139V55.104H172.601L169.045 63H168.135L164.579 55.104H165.055V63H163.725ZM175.684 63V55.944H177.098V63H175.684ZM175.572 54.474V53.004H177.21V54.474H175.572ZM181.593 63.126C181.005 63.126 180.463 63.0513 179.969 62.902C179.474 62.7527 179.063 62.5427 178.737 62.272L179.171 61.306C179.516 61.5673 179.899 61.7633 180.319 61.894C180.739 62.0247 181.168 62.09 181.607 62.09C182.12 62.09 182.507 62.0013 182.769 61.824C183.03 61.6373 183.161 61.3853 183.161 61.068C183.161 60.8253 183.077 60.6293 182.909 60.48C182.75 60.3307 182.484 60.2187 182.111 60.144L180.767 59.878C180.169 59.7473 179.717 59.5233 179.409 59.206C179.101 58.8887 178.947 58.4827 178.947 57.988C178.947 57.568 179.059 57.1947 179.283 56.868C179.516 56.5413 179.843 56.2847 180.263 56.098C180.692 55.9113 181.191 55.818 181.761 55.818C182.283 55.818 182.769 55.8927 183.217 56.042C183.665 56.1913 184.038 56.406 184.337 56.686L183.889 57.624C183.599 57.3813 183.273 57.1947 182.909 57.064C182.545 56.924 182.176 56.854 181.803 56.854C181.28 56.854 180.893 56.952 180.641 57.148C180.389 57.344 180.263 57.6007 180.263 57.918C180.263 58.1607 180.337 58.3613 180.487 58.52C180.645 58.6693 180.893 58.786 181.229 58.87L182.573 59.136C183.207 59.2667 183.683 59.4813 184.001 59.78C184.318 60.0787 184.477 60.48 184.477 60.984C184.477 61.4227 184.355 61.8053 184.113 62.132C183.87 62.4587 183.534 62.706 183.105 62.874C182.675 63.042 182.171 63.126 181.593 63.126ZM188.565 63.126C187.977 63.126 187.436 63.0513 186.941 62.902C186.447 62.7527 186.036 62.5427 185.709 62.272L186.143 61.306C186.489 61.5673 186.871 61.7633 187.291 61.894C187.711 62.0247 188.141 62.09 188.579 62.09C189.093 62.09 189.48 62.0013 189.741 61.824C190.003 61.6373 190.133 61.3853 190.133 61.068C190.133 60.8253 190.049 60.6293 189.881 60.48C189.723 60.3307 189.457 60.2187 189.083 60.144L187.739 59.878C187.142 59.7473 186.689 59.5233 186.381 59.206C186.073 58.8887 185.919 58.4827 185.919 57.988C185.919 57.568 186.031 57.1947 186.255 56.868C186.489 56.5413 186.815 56.2847 187.235 56.098C187.665 55.9113 188.164 55.818 188.733 55.818C189.256 55.818 189.741 55.8927 190.189 56.042C190.637 56.1913 191.011 56.406 191.309 56.686L190.861 57.624C190.572 57.3813 190.245 57.1947 189.881 57.064C189.517 56.924 189.149 56.854 188.775 56.854C188.253 56.854 187.865 56.952 187.613 57.148C187.361 57.344 187.235 57.6007 187.235 57.918C187.235 58.1607 187.31 58.3613 187.459 58.52C187.618 58.6693 187.865 58.786 188.201 58.87L189.545 59.136C190.18 59.2667 190.656 59.4813 190.973 59.78C191.291 60.0787 191.449 60.48 191.449 60.984C191.449 61.4227 191.328 61.8053 191.085 62.132C190.843 62.4587 190.507 62.706 190.077 62.874C189.648 63.042 189.144 63.126 188.565 63.126ZM193.116 63V55.944H194.53V63H193.116ZM193.004 54.474V53.004H194.642V54.474H193.004ZM199.626 63.126C198.926 63.126 198.32 62.9813 197.806 62.692C197.293 62.3933 196.896 61.9733 196.616 61.432C196.336 60.8813 196.196 60.228 196.196 59.472C196.196 58.716 196.336 58.0673 196.616 57.526C196.896 56.9753 197.293 56.5553 197.806 56.266C198.32 55.9673 198.926 55.818 199.626 55.818C200.326 55.818 200.933 55.9673 201.446 56.266C201.969 56.5553 202.37 56.9753 202.65 57.526C202.94 58.0673 203.084 58.716 203.084 59.472C203.084 60.228 202.94 60.8813 202.65 61.432C202.37 61.9733 201.969 62.3933 201.446 62.692C200.933 62.9813 200.326 63.126 199.626 63.126ZM199.626 62.02C200.242 62.02 200.732 61.8053 201.096 61.376C201.46 60.9467 201.642 60.312 201.642 59.472C201.642 58.632 201.46 58.002 201.096 57.582C200.732 57.1527 200.242 56.938 199.626 56.938C199.02 56.938 198.534 57.1527 198.17 57.582C197.806 58.002 197.624 58.632 197.624 59.472C197.624 60.312 197.802 60.9467 198.156 61.376C198.52 61.8053 199.01 62.02 199.626 62.02ZM204.737 63V57.638C204.737 57.3673 204.723 57.092 204.695 56.812C204.677 56.5227 204.653 56.2333 204.625 55.944H205.997L206.123 57.428H205.955C206.17 56.9053 206.501 56.5087 206.949 56.238C207.397 55.958 207.915 55.818 208.503 55.818C209.334 55.818 209.959 56.0467 210.379 56.504C210.809 56.9613 211.023 57.6707 211.023 58.632V63H209.609V58.716C209.609 58.0907 209.483 57.6427 209.231 57.372C208.989 57.092 208.615 56.952 208.111 56.952C207.514 56.952 207.038 57.1387 206.683 57.512C206.329 57.876 206.151 58.3707 206.151 58.996V63H204.737Z" fill="white"/>
<path d="M231.167 57L227.834 60.3333L224.5 57" stroke="white" stroke-width="2" stroke-linecap="round" stroke-linejoin="round"/>
</g>
</g>
<g clip-path="url(#clip1_1_3377)">
<g clip-path="url(#clip2_1_3377)" filter="url(#filter1_b_1_3377)">
<rect width="360" height="780" fill="#272D69"/>
<g opacity="0.95">
<rect width="361" height="72" transform="translate(-0.5)" fill="#272D69"/>
</g>
<path d="M33.584 134V118.49H37.016V124.716H44.122V118.49H47.576V134H44.122V127.554H37.016V134H33.584ZM55.7885 134.242C54.6005 134.242 53.5665 134.007 52.6865 133.538C51.8212 133.054 51.1465 132.379 50.6625 131.514C50.1932 130.649 49.9585 129.615 49.9585 128.412C49.9585 127.224 50.1932 126.197 50.6625 125.332C51.1465 124.467 51.8212 123.799 52.6865 123.33C53.5665 122.861 54.6005 122.626 55.7885 122.626C56.9765 122.626 58.0105 122.861 58.8905 123.33C59.7705 123.799 60.4452 124.467 60.9145 125.332C61.3985 126.197 61.6405 127.224 61.6405 128.412C61.6405 129.615 61.3985 130.649 60.9145 131.514C60.4452 132.379 59.7705 133.054 58.8905 133.538C58.0105 134.007 56.9765 134.242 55.7885 134.242ZM55.7885 131.734C56.5512 131.734 57.1525 131.463 57.5925 130.92C58.0472 130.377 58.2745 129.541 58.2745 128.412C58.2745 127.283 58.0472 126.454 57.5925 125.926C57.1525 125.398 56.5512 125.134 55.7885 125.134C55.0259 125.134 54.4172 125.398 53.9625 125.926C53.5225 126.454 53.3025 127.283 53.3025 128.412C53.3025 129.541 53.5225 130.377 53.9625 130.92C54.4172 131.463 55.0259 131.734 55.7885 131.734ZM66.6741 134L62.1861 122.846H65.5961L68.5441 130.876H67.9721L70.9421 122.846H73.1421L76.0901 130.876H75.6281L78.5321 122.846H81.7441L77.2781 134H74.4181L71.2501 125.772H72.5921L69.5341 134H66.6741ZM89.3308 134V117.808H92.6528V134H89.3308ZM95.3679 134V122.846H98.6899V134H95.3679ZM95.2359 121.02V117.918H98.7999V121.02H95.2359ZM101.405 134V117.808H104.727V127.488H104.771L108.907 122.846H112.867L107.521 128.786V127.576L113.153 134H109.083L104.771 129.16H104.727V134H101.405ZM119.476 134.242C117.54 134.242 116.029 133.721 114.944 132.68C113.859 131.639 113.316 130.223 113.316 128.434C113.316 127.275 113.543 126.263 113.998 125.398C114.467 124.533 115.113 123.858 115.934 123.374C116.77 122.875 117.745 122.626 118.86 122.626C119.96 122.626 120.877 122.861 121.61 123.33C122.358 123.799 122.915 124.459 123.282 125.31C123.663 126.146 123.854 127.121 123.854 128.236V129.006H116.044V127.356H121.434L121.06 127.664C121.06 126.74 120.869 126.043 120.488 125.574C120.121 125.09 119.586 124.848 118.882 124.848C118.105 124.848 117.503 125.134 117.078 125.706C116.667 126.278 116.462 127.099 116.462 128.17V128.522C116.462 129.607 116.726 130.414 117.254 130.942C117.797 131.47 118.574 131.734 119.586 131.734C120.187 131.734 120.752 131.661 121.28 131.514C121.823 131.353 122.336 131.103 122.82 130.766L123.744 132.966C123.187 133.377 122.541 133.692 121.808 133.912C121.089 134.132 120.312 134.242 119.476 134.242ZM125.962 134V117.808H129.284V134H125.962ZM131.889 138.994L131.119 136.398C131.808 136.266 132.387 136.112 132.857 135.936C133.341 135.76 133.737 135.525 134.045 135.232C134.353 134.953 134.602 134.587 134.793 134.132L135.343 132.834L135.255 134.11L130.415 122.846H133.913L137.103 130.92H136.421L139.655 122.846H142.955L137.917 134.44C137.55 135.276 137.154 135.965 136.729 136.508C136.318 137.065 135.871 137.505 135.387 137.828C134.903 138.151 134.367 138.4 133.781 138.576C133.209 138.752 132.578 138.891 131.889 138.994ZM154.637 134.242C153.669 134.242 152.819 134.007 152.085 133.538C151.352 133.069 150.78 132.401 150.369 131.536C149.959 130.671 149.753 129.629 149.753 128.412C149.753 127.209 149.959 126.175 150.369 125.31C150.78 124.445 151.352 123.785 152.085 123.33C152.819 122.861 153.669 122.626 154.637 122.626C155.532 122.626 156.331 122.846 157.035 123.286C157.754 123.711 158.223 124.291 158.443 125.024H158.201L158.465 122.846H161.655C161.611 123.33 161.567 123.821 161.523 124.32C161.494 124.804 161.479 125.281 161.479 125.75V134H158.179L158.157 131.91H158.421C158.187 132.614 157.717 133.179 157.013 133.604C156.309 134.029 155.517 134.242 154.637 134.242ZM155.649 131.734C156.412 131.734 157.028 131.463 157.497 130.92C157.967 130.377 158.201 129.541 158.201 128.412C158.201 127.283 157.967 126.454 157.497 125.926C157.028 125.398 156.412 125.134 155.649 125.134C154.887 125.134 154.271 125.398 153.801 125.926C153.332 126.454 153.097 127.283 153.097 128.412C153.097 129.541 153.325 130.377 153.779 130.92C154.249 131.463 154.872 131.734 155.649 131.734ZM164.182 134V125.794C164.182 125.31 164.167 124.819 164.138 124.32C164.123 123.821 164.087 123.33 164.028 122.846H167.218L167.592 126.102H167.086C167.233 125.31 167.467 124.657 167.79 124.144C168.127 123.631 168.538 123.249 169.022 123C169.521 122.751 170.085 122.626 170.716 122.626C170.995 122.626 171.215 122.641 171.376 122.67C171.537 122.685 171.699 122.721 171.86 122.78L171.838 125.706C171.53 125.574 171.266 125.493 171.046 125.464C170.841 125.42 170.577 125.398 170.254 125.398C169.638 125.398 169.125 125.515 168.714 125.75C168.318 125.985 168.017 126.329 167.812 126.784C167.621 127.239 167.526 127.789 167.526 128.434V134H164.182ZM178.665 134.242C176.729 134.242 175.219 133.721 174.133 132.68C173.048 131.639 172.505 130.223 172.505 128.434C172.505 127.275 172.733 126.263 173.187 125.398C173.657 124.533 174.302 123.858 175.123 123.374C175.959 122.875 176.935 122.626 178.049 122.626C179.149 122.626 180.066 122.861 180.799 123.33C181.547 123.799 182.105 124.459 182.471 125.31C182.853 126.146 183.043 127.121 183.043 128.236V129.006H175.233V127.356H180.623L180.249 127.664C180.249 126.74 180.059 126.043 179.677 125.574C179.311 125.09 178.775 124.848 178.071 124.848C177.294 124.848 176.693 125.134 176.267 125.706C175.857 126.278 175.651 127.099 175.651 128.17V128.522C175.651 129.607 175.915 130.414 176.443 130.942C176.986 131.47 177.763 131.734 178.775 131.734C179.377 131.734 179.941 131.661 180.469 131.514C181.012 131.353 181.525 131.103 182.009 130.766L182.933 132.966C182.376 133.377 181.731 133.692 180.997 133.912C180.279 134.132 179.501 134.242 178.665 134.242ZM191.25 138.994L190.48 136.398C191.169 136.266 191.749 136.112 192.218 135.936C192.702 135.76 193.098 135.525 193.406 135.232C193.714 134.953 193.963 134.587 194.154 134.132L194.704 132.834L194.616 134.11L189.776 122.846H193.274L196.464 130.92H195.782L199.016 122.846H202.316L197.278 134.44C196.911 135.276 196.515 135.965 196.09 136.508C195.679 137.065 195.232 137.505 194.748 137.828C194.264 138.151 193.729 138.4 193.142 138.576C192.57 138.752 191.939 138.891 191.25 138.994ZM208.478 134.242C207.29 134.242 206.256 134.007 205.376 133.538C204.511 133.054 203.836 132.379 203.352 131.514C202.883 130.649 202.648 129.615 202.648 128.412C202.648 127.224 202.883 126.197 203.352 125.332C203.836 124.467 204.511 123.799 205.376 123.33C206.256 122.861 207.29 122.626 208.478 122.626C209.666 122.626 210.7 122.861 211.58 123.33C212.46 123.799 213.135 124.467 213.604 125.332C214.088 126.197 214.33 127.224 214.33 128.412C214.33 129.615 214.088 130.649 213.604 131.514C213.135 132.379 212.46 133.054 211.58 133.538C210.7 134.007 209.666 134.242 208.478 134.242ZM208.478 131.734C209.241 131.734 209.842 131.463 210.282 130.92C210.737 130.377 210.964 129.541 210.964 128.412C210.964 127.283 210.737 126.454 210.282 125.926C209.842 125.398 209.241 125.134 208.478 125.134C207.715 125.134 207.107 125.398 206.652 125.926C206.212 126.454 205.992 127.283 205.992 128.412C205.992 129.541 206.212 130.377 206.652 130.92C207.107 131.463 207.715 131.734 208.478 131.734ZM220.523 134.242C219.13 134.242 218.096 133.861 217.421 133.098C216.747 132.321 216.409 131.147 216.409 129.578V122.846H219.731V129.578C219.731 130.282 219.871 130.803 220.149 131.14C220.443 131.477 220.89 131.646 221.491 131.646C222.151 131.646 222.694 131.419 223.119 130.964C223.559 130.495 223.779 129.871 223.779 129.094V122.846H227.101V134H223.867V131.866H224.175C223.838 132.614 223.354 133.201 222.723 133.626C222.107 134.037 221.374 134.242 220.523 134.242ZM241.262 134.242C239.81 134.242 238.717 133.883 237.984 133.164C237.25 132.431 236.884 131.338 236.884 129.886V125.332H234.772V122.846H236.884V120.118L240.206 119.304V122.846H243.066V125.332H240.206V129.71C240.206 130.414 240.352 130.898 240.646 131.162C240.939 131.426 241.313 131.558 241.768 131.558C242.046 131.558 242.274 131.543 242.45 131.514C242.64 131.47 242.838 131.411 243.044 131.338V133.912C242.765 134.029 242.472 134.11 242.164 134.154C241.856 134.213 241.555 134.242 241.262 134.242ZM249.943 134.242C248.755 134.242 247.721 134.007 246.841 133.538C245.975 133.054 245.301 132.379 244.817 131.514C244.347 130.649 244.113 129.615 244.113 128.412C244.113 127.224 244.347 126.197 244.817 125.332C245.301 124.467 245.975 123.799 246.841 123.33C247.721 122.861 248.755 122.626 249.943 122.626C251.131 122.626 252.165 122.861 253.045 123.33C253.925 123.799 254.599 124.467 255.069 125.332C255.553 126.197 255.795 127.224 255.795 128.412C255.795 129.615 255.553 130.649 255.069 131.514C254.599 132.379 253.925 133.054 253.045 133.538C252.165 134.007 251.131 134.242 249.943 134.242ZM249.943 131.734C250.705 131.734 251.307 131.463 251.747 130.92C252.201 130.377 252.429 129.541 252.429 128.412C252.429 127.283 252.201 126.454 251.747 125.926C251.307 125.398 250.705 125.134 249.943 125.134C249.18 125.134 248.571 125.398 248.117 125.926C247.677 126.454 247.457 127.283 247.457 128.412C247.457 129.541 247.677 130.377 248.117 130.92C248.571 131.463 249.18 131.734 249.943 131.734ZM270.969 134.242C270.074 134.242 269.275 134.022 268.571 133.582C267.882 133.142 267.42 132.555 267.185 131.822H267.427V134H264.149V117.808H267.471V124.936H267.185C267.434 124.232 267.904 123.675 268.593 123.264C269.297 122.839 270.089 122.626 270.969 122.626C271.952 122.626 272.81 122.861 273.543 123.33C274.276 123.799 274.848 124.467 275.259 125.332C275.684 126.197 275.897 127.239 275.897 128.456C275.897 129.659 275.684 130.693 275.259 131.558C274.848 132.423 274.269 133.091 273.521 133.56C272.788 134.015 271.937 134.242 270.969 134.242ZM269.979 131.734C270.727 131.734 271.343 131.47 271.827 130.942C272.311 130.414 272.553 129.585 272.553 128.456C272.553 127.327 272.311 126.491 271.827 125.948C271.343 125.405 270.727 125.134 269.979 125.134C269.216 125.134 268.593 125.398 268.109 125.926C267.64 126.454 267.405 127.283 267.405 128.412C267.405 129.541 267.64 130.377 268.109 130.92C268.593 131.463 269.216 131.734 269.979 131.734ZM282.098 134.242C280.704 134.242 279.67 133.861 278.996 133.098C278.321 132.321 277.984 131.147 277.984 129.578V122.846H281.306V129.578C281.306 130.282 281.445 130.803 281.724 131.14C282.017 131.477 282.464 131.646 283.066 131.646C283.726 131.646 284.268 131.419 284.694 130.964C285.134 130.495 285.354 129.871 285.354 129.094V122.846H288.676V134H285.442V131.866H285.75C285.412 132.614 284.928 133.201 284.298 133.626C283.682 134.037 282.948 134.242 282.098 134.242ZM291.303 138.994L290.533 136.398C291.222 136.266 291.801 136.112 292.271 135.936C292.755 135.76 293.151 135.525 293.459 135.232C293.767 134.953 294.016 134.587 294.207 134.132L294.757 132.834L294.669 134.11L289.829 122.846H293.327L296.517 130.92H295.835L299.069 122.846H302.369L297.331 134.44C296.964 135.276 296.568 135.965 296.143 136.508C295.732 137.065 295.285 137.505 294.801 137.828C294.317 138.151 293.781 138.4 293.195 138.576C292.623 138.752 291.992 138.891 291.303 138.994ZM38.578 162.242C37.126 162.242 36.0333 161.883 35.3 161.164C34.5667 160.431 34.2 159.338 34.2 157.886V153.332H32.088V150.846H34.2V148.118L37.522 147.304V150.846H40.382V153.332H37.522V157.71C37.522 158.414 37.6687 158.898 37.962 159.162C38.2553 159.426 38.6293 159.558 39.084 159.558C39.3627 159.558 39.59 159.543 39.766 159.514C39.9567 159.47 40.1547 159.411 40.36 159.338V161.912C40.0813 162.029 39.788 162.11 39.48 162.154C39.172 162.213 38.8713 162.242 38.578 162.242ZM42.0867 162V145.808H45.4087V152.936H45.0787C45.4307 152.188 45.9513 151.616 46.6407 151.22C47.33 150.824 48.122 150.626 49.0167 150.626C50.322 150.626 51.2973 151.007 51.9427 151.77C52.588 152.518 52.9107 153.669 52.9107 155.224V162H49.5887V155.378C49.5887 154.601 49.442 154.043 49.1487 153.706C48.87 153.369 48.43 153.2 47.8287 153.2C47.0953 153.2 46.5087 153.427 46.0687 153.882C45.6287 154.337 45.4087 154.945 45.4087 155.708V162H42.0867ZM55.5788 162V150.846H58.9008V162H55.5788ZM55.4468 149.02V145.918H59.0108V149.02H55.4468ZM65.73 162.242C64.7326 162.242 63.8233 162.132 63.002 161.912C62.1806 161.692 61.484 161.384 60.912 160.988L61.77 158.788C62.342 159.14 62.9726 159.419 63.662 159.624C64.366 159.829 65.0626 159.932 65.752 159.932C66.3973 159.932 66.874 159.829 67.182 159.624C67.49 159.419 67.644 159.14 67.644 158.788C67.644 158.495 67.5413 158.267 67.336 158.106C67.1453 157.945 66.8446 157.827 66.434 157.754L64.168 157.336C63.2146 157.145 62.4886 156.793 61.99 156.28C61.4913 155.767 61.242 155.099 61.242 154.278C61.242 153.559 61.4326 152.929 61.814 152.386C62.21 151.829 62.7746 151.396 63.508 151.088C64.2413 150.78 65.0993 150.626 66.082 150.626C66.918 150.626 67.71 150.729 68.458 150.934C69.206 151.139 69.844 151.455 70.372 151.88L69.47 154.014C69.0153 153.677 68.4873 153.405 67.886 153.2C67.2993 152.995 66.7346 152.892 66.192 152.892C65.488 152.892 64.982 153.009 64.674 153.244C64.366 153.464 64.212 153.75 64.212 154.102C64.212 154.366 64.3 154.586 64.476 154.762C64.6666 154.938 64.9526 155.07 65.334 155.158L67.622 155.576C68.6046 155.752 69.3526 156.082 69.866 156.566C70.3793 157.05 70.636 157.717 70.636 158.568C70.636 159.345 70.4306 160.005 70.02 160.548C69.6093 161.091 69.03 161.509 68.282 161.802C67.5486 162.095 66.698 162.242 65.73 162.242ZM82.0569 162L77.5689 150.846H80.9789L83.9269 158.876H83.3549L86.3249 150.846H88.5249L91.4729 158.876H91.0109L93.9149 150.846H97.1269L92.6609 162H89.8009L86.6329 153.772H87.9749L84.9169 162H82.0569ZM102.624 162.242C101.656 162.242 100.805 162.007 100.072 161.538C99.3384 161.069 98.7664 160.401 98.3558 159.536C97.9451 158.671 97.7398 157.629 97.7398 156.412C97.7398 155.209 97.9451 154.175 98.3558 153.31C98.7664 152.445 99.3384 151.785 100.072 151.33C100.805 150.861 101.656 150.626 102.624 150.626C103.518 150.626 104.318 150.846 105.022 151.286C105.74 151.711 106.21 152.291 106.43 153.024H106.188L106.452 150.846H109.642C109.598 151.33 109.554 151.821 109.51 152.32C109.48 152.804 109.466 153.281 109.466 153.75V162H106.166L106.144 159.91H106.408C106.173 160.614 105.704 161.179 105 161.604C104.296 162.029 103.504 162.242 102.624 162.242ZM103.636 159.734C104.398 159.734 105.014 159.463 105.484 158.92C105.953 158.377 106.188 157.541 106.188 156.412C106.188 155.283 105.953 154.454 105.484 153.926C105.014 153.398 104.398 153.134 103.636 153.134C102.873 153.134 102.257 153.398 101.788 153.926C101.318 154.454 101.084 155.283 101.084 156.412C101.084 157.541 101.311 158.377 101.766 158.92C102.235 159.463 102.858 159.734 103.636 159.734ZM117.404 162.242C115.952 162.242 114.86 161.883 114.126 161.164C113.393 160.431 113.026 159.338 113.026 157.886V153.332H110.914V150.846H113.026V148.118L116.348 147.304V150.846H119.208V153.332H116.348V157.71C116.348 158.414 116.495 158.898 116.788 159.162C117.082 159.426 117.456 159.558 117.91 159.558C118.189 159.558 118.416 159.543 118.592 159.514C118.783 159.47 118.981 159.411 119.186 159.338V161.912C118.908 162.029 118.614 162.11 118.306 162.154C117.998 162.213 117.698 162.242 117.404 162.242ZM126.173 162.242C124.985 162.242 123.944 162.007 123.049 161.538C122.155 161.069 121.465 160.394 120.981 159.514C120.497 158.634 120.255 157.593 120.255 156.39C120.255 155.173 120.497 154.139 120.981 153.288C121.48 152.423 122.169 151.763 123.049 151.308C123.944 150.853 124.985 150.626 126.173 150.626C126.921 150.626 127.647 150.736 128.351 150.956C129.07 151.176 129.657 151.484 130.111 151.88L129.143 154.168C128.777 153.831 128.351 153.581 127.867 153.42C127.398 153.244 126.943 153.156 126.503 153.156C125.609 153.156 124.912 153.435 124.413 153.992C123.915 154.549 123.665 155.356 123.665 156.412C123.665 157.468 123.915 158.275 124.413 158.832C124.912 159.389 125.609 159.668 126.503 159.668C126.929 159.668 127.376 159.587 127.845 159.426C128.329 159.265 128.762 159.023 129.143 158.7L130.111 160.966C129.642 161.362 129.048 161.677 128.329 161.912C127.625 162.132 126.907 162.242 126.173 162.242ZM131.999 162V145.808H135.321V152.936H134.991C135.343 152.188 135.863 151.616 136.553 151.22C137.242 150.824 138.034 150.626 138.929 150.626C140.234 150.626 141.209 151.007 141.855 151.77C142.5 152.518 142.823 153.669 142.823 155.224V162H139.501V155.378C139.501 154.601 139.354 154.043 139.061 153.706C138.782 153.369 138.342 153.2 137.741 153.2C137.007 153.2 136.421 153.427 135.981 153.882C135.541 154.337 135.321 154.945 135.321 155.708V162H131.999ZM147.566 157.094V156.06C147.566 155.415 147.691 154.821 147.94 154.278C148.19 153.721 148.615 153.134 149.216 152.518C149.642 152.078 149.942 151.689 150.118 151.352C150.294 151 150.382 150.663 150.382 150.34C150.382 149.915 150.221 149.585 149.898 149.35C149.576 149.115 149.128 148.998 148.556 148.998C147.984 148.998 147.405 149.093 146.818 149.284C146.246 149.475 145.711 149.724 145.212 150.032V147.238C145.74 146.93 146.349 146.688 147.038 146.512C147.742 146.336 148.424 146.248 149.084 146.248C149.964 146.248 150.756 146.38 151.46 146.644C152.179 146.893 152.736 147.282 153.132 147.81C153.543 148.338 153.748 149.027 153.748 149.878C153.748 150.362 153.66 150.831 153.484 151.286C153.308 151.741 153.059 152.166 152.736 152.562C152.428 152.958 152.062 153.332 151.636 153.684C150.918 154.271 150.419 154.777 150.14 155.202C149.876 155.613 149.715 156.023 149.656 156.434L149.568 157.094H147.566ZM146.774 162V158.48H150.36V162H146.774Z" fill="white"/>
<rect x="32" y="664" width="296" height="52" rx="26" fill="#008080"/>
<path d="M150.896 696L145.872 684.72H148.096L152.144 694.192H151.472L155.52 684.72H157.664L152.64 696H150.896ZM161.426 696.16C160.722 696.16 160.103 695.995 159.57 695.664C159.037 695.323 158.621 694.837 158.322 694.208C158.023 693.579 157.874 692.827 157.874 691.952C157.874 691.077 158.023 690.331 158.322 689.712C158.621 689.083 159.037 688.603 159.57 688.272C160.103 687.931 160.722 687.76 161.426 687.76C162.109 687.76 162.706 687.931 163.218 688.272C163.741 688.603 164.087 689.051 164.258 689.616H164.082L164.258 687.92H166.178C166.146 688.251 166.114 688.587 166.082 688.928C166.061 689.269 166.05 689.605 166.05 689.936V696H164.066L164.05 694.336H164.242C164.071 694.891 163.725 695.333 163.202 695.664C162.679 695.995 162.087 696.16 161.426 696.16ZM161.986 694.624C162.615 694.624 163.122 694.405 163.506 693.968C163.89 693.52 164.082 692.848 164.082 691.952C164.082 691.056 163.89 690.389 163.506 689.952C163.122 689.515 162.615 689.296 161.986 689.296C161.357 689.296 160.85 689.515 160.466 689.952C160.082 690.389 159.89 691.056 159.89 691.952C159.89 692.848 160.077 693.52 160.45 693.968C160.834 694.405 161.346 694.624 161.986 694.624ZM168.868 696V684.224H170.868V696H168.868ZM173.68 696V687.92H175.68V696H173.68ZM173.568 686.4V684.448H175.792V686.4H173.568ZM181.628 696.16C180.924 696.16 180.3 695.995 179.756 695.664C179.222 695.323 178.806 694.837 178.508 694.208C178.209 693.579 178.06 692.827 178.06 691.952C178.06 691.077 178.209 690.331 178.508 689.712C178.806 689.083 179.222 688.603 179.756 688.272C180.3 687.931 180.924 687.76 181.628 687.76C182.3 687.76 182.892 687.925 183.404 688.256C183.926 688.576 184.273 689.013 184.444 689.568H184.236V684.224H186.236V696H184.268V694.288H184.46C184.289 694.864 183.942 695.323 183.42 695.664C182.908 695.995 182.31 696.16 181.628 696.16ZM182.188 694.624C182.817 694.624 183.324 694.405 183.708 693.968C184.092 693.52 184.284 692.848 184.284 691.952C184.284 691.056 184.092 690.389 183.708 689.952C183.324 689.515 182.817 689.296 182.188 689.296C181.558 689.296 181.046 689.515 180.652 689.952C180.268 690.389 180.076 691.056 180.076 691.952C180.076 692.848 180.268 693.52 180.652 693.968C181.046 694.405 181.558 694.624 182.188 694.624ZM192.174 696.16C191.47 696.16 190.851 695.995 190.318 695.664C189.784 695.323 189.368 694.837 189.07 694.208C188.771 693.579 188.622 692.827 188.622 691.952C188.622 691.077 188.771 690.331 189.07 689.712C189.368 689.083 189.784 688.603 190.318 688.272C190.851 687.931 191.47 687.76 192.174 687.76C192.856 687.76 193.454 687.931 193.966 688.272C194.488 688.603 194.835 689.051 195.006 689.616H194.83L195.006 687.92H196.926C196.894 688.251 196.862 688.587 196.83 688.928C196.808 689.269 196.798 689.605 196.798 689.936V696H194.814L194.798 694.336H194.99C194.819 694.891 194.472 695.333 193.95 695.664C193.427 695.995 192.835 696.16 192.174 696.16ZM192.734 694.624C193.363 694.624 193.87 694.405 194.254 693.968C194.638 693.52 194.83 692.848 194.83 691.952C194.83 691.056 194.638 690.389 194.254 689.952C193.87 689.515 193.363 689.296 192.734 689.296C192.104 689.296 191.598 689.515 191.214 689.952C190.83 690.389 190.638 691.056 190.638 691.952C190.638 692.848 190.824 693.52 191.198 693.968C191.582 694.405 192.094 694.624 192.734 694.624ZM203.072 696.16C202.112 696.16 201.386 695.909 200.896 695.408C200.405 694.907 200.16 694.155 200.16 693.152V689.424H198.608V687.92H200.16V685.856L202.16 685.344V687.92H204.32V689.424H202.16V693.024C202.16 693.579 202.266 693.968 202.48 694.192C202.693 694.416 202.986 694.528 203.36 694.528C203.562 694.528 203.733 694.512 203.872 694.48C204.021 694.448 204.165 694.405 204.304 694.352V695.936C204.122 696.011 203.92 696.064 203.696 696.096C203.482 696.139 203.274 696.16 203.072 696.16ZM210.144 696.16C208.789 696.16 207.728 695.787 206.96 695.04C206.192 694.293 205.808 693.269 205.808 691.968C205.808 691.125 205.973 690.389 206.304 689.76C206.635 689.131 207.093 688.64 207.68 688.288C208.277 687.936 208.971 687.76 209.76 687.76C210.539 687.76 211.189 687.925 211.712 688.256C212.235 688.587 212.629 689.051 212.896 689.648C213.173 690.245 213.312 690.944 213.312 691.744V692.272H207.424V691.216H211.888L211.616 691.44C211.616 690.693 211.456 690.123 211.136 689.728C210.827 689.333 210.373 689.136 209.776 689.136C209.115 689.136 208.603 689.371 208.24 689.84C207.888 690.309 207.712 690.965 207.712 691.808V692.016C207.712 692.891 207.925 693.547 208.352 693.984C208.789 694.411 209.403 694.624 210.192 694.624C210.651 694.624 211.077 694.565 211.472 694.448C211.877 694.32 212.261 694.117 212.624 693.84L213.216 695.184C212.832 695.493 212.373 695.733 211.84 695.904C211.307 696.075 210.741 696.16 210.144 696.16Z" fill="white"/>
</g>
<g filter="url(#filter2_b_1_3377)">
<path fill-rule="evenodd" clip-rule="evenodd" d="M28.4142 57L30.7071 59.2929C31.0976 59.6834 31.0976 60.3166 30.7071 60.7071C30.3166 61.0976 29.6834 61.0976 29.2929 60.7071L25.2929 56.7071C24.9024 56.3166 24.9024 55.6834 25.2929 55.2929L29.2929 51.2929C29.6834 50.9024 30.3166 50.9024 30.7071 51.2929C31.0976 51.6834 31.0976 52.3166 30.7071 52.7071L28.4142 55L33 55C36.3137 55 39 57.6863 39 61L39 64C39 64.5523 38.5523 65 38 65C37.4477 65 37 64.5523 37 64L37 61C37 58.7909 35.2091 57 33 57L28.4142 57Z" fill="white"/>
</g>
</g>
<rect x="42" y="210" width="36" height="40" rx="18" fill="white"/>
<mask id="mask0_1_3377" style="mask-type:alpha" maskUnits="userSpaceOnUse" x="66" y="225" width="6" height="6">
<circle cx="69.4514" cy="228.015" r="2.54857" fill="#2C3032"/>
</mask>
<g mask="url(#mask0_1_3377)">
<circle cx="69.4514" cy="228.015" r="2.54857" fill="black"/>
<circle cx="70.6387" cy="227.066" r="0.567684" fill="white"/>
<circle cx="69.555" cy="226.705" r="0.309646" fill="white"/>
</g>
<mask id="mask1_1_3377" style="mask-type:alpha" maskUnits="userSpaceOnUse" x="48" y="225" width="6" height="6">
<circle cx="50.5486" cy="228.015" r="2.54857" fill="#2C3032"/>
</mask>
<g mask="url(#mask1_1_3377)">
<circle cx="50.5486" cy="228.015" r="2.54857" fill="black"/>
<circle cx="51.7371" cy="227.066" r="0.567684" fill="white"/>
<circle cx="50.6541" cy="226.705" r="0.309646" fill="white"/>
</g>
<path d="M65.9995 237.956C65.9995 237.956 64.6663 234.711 59.9998 234.711C55.3333 234.711 54 237.956 54 237.956" stroke="black" stroke-width="2" stroke-linecap="round" stroke-linejoin="round"/>
<path d="M54.6671 224.045C54.6671 224.045 53.2126 223.378 50.6672 222.045" stroke="black" stroke-width="2" stroke-linecap="round" stroke-linejoin="round"/>
<path d="M69.3324 222.045C69.3324 222.045 67.8779 222.711 65.3325 224.045" stroke="black" stroke-width="2" stroke-linecap="round" stroke-linejoin="round"/>
<rect x="102" y="210" width="36" height="40" rx="18" fill="white"/>
<mask id="mask2_1_3377" style="mask-type:alpha" maskUnits="userSpaceOnUse" x="126" y="223" width="6" height="6">
<circle cx="129.451" cy="226.304" r="2.54863" fill="#2C3032"/>
</mask>
<g mask="url(#mask2_1_3377)">
<circle cx="129.451" cy="226.304" r="2.54863" fill="black"/>
<circle cx="130.64" cy="225.355" r="0.567698" fill="white"/>
<circle cx="129.555" cy="224.994" r="0.309653" fill="white"/>
</g>
<mask id="mask3_1_3377" style="mask-type:alpha" maskUnits="userSpaceOnUse" x="107" y="223" width="7" height="6">
<circle cx="110.548" cy="226.304" r="2.54863" fill="#2C3032"/>
</mask>
<g mask="url(#mask3_1_3377)">
<circle cx="110.548" cy="226.304" r="2.54863" fill="black"/>
<circle cx="111.737" cy="225.355" r="0.567698" fill="white"/>
<circle cx="110.654" cy="224.994" r="0.309653" fill="white"/>
</g>
<path d="M126 236.245C126 236.245 124.666 233 120 233C115.333 233 114 236.245 114 236.245" stroke="black" stroke-width="2" stroke-linecap="round" stroke-linejoin="round"/>
<rect x="152" y="200" width="56" height="60" rx="28" fill="#008080"/>
<rect x="162" y="210" width="36" height="40" rx="18" fill="white"/>
<mask id="mask4_1_3377" style="mask-type:alpha" maskUnits="userSpaceOnUse" x="186" y="224" width="6" height="6">
<circle cx="189.451" cy="227.115" r="2.54863" fill="#2C3032"/>
</mask>
<g mask="url(#mask4_1_3377)">
<circle cx="189.451" cy="227.115" r="2.54863" fill="black"/>
<circle cx="190.64" cy="226.166" r="0.567698" fill="white"/>
<circle cx="189.555" cy="225.805" r="0.309653" fill="white"/>
</g>
<mask id="mask5_1_3377" style="mask-type:alpha" maskUnits="userSpaceOnUse" x="167" y="224" width="7" height="6">
<circle cx="170.548" cy="227.115" r="2.54863" fill="#2C3032"/>
</mask>
<g mask="url(#mask5_1_3377)">
<circle cx="170.548" cy="227.115" r="2.54863" fill="black"/>
<circle cx="171.737" cy="226.166" r="0.567698" fill="white"/>
<circle cx="170.654" cy="225.805" r="0.309653" fill="white"/>
</g>
<path d="M186 235.433C186 235.433 184.666 235.433 180 235.433C175.333 235.433 174 235.433 174 235.433" stroke="black" stroke-width="2" stroke-linecap="round" stroke-linejoin="round"/>
<rect x="222" y="210" width="36" height="40" rx="18" fill="white"/>
<mask id="mask6_1_3377" style="mask-type:alpha" maskUnits="userSpaceOnUse" x="246" y="223" width="6" height="6">
<circle cx="249.451" cy="226.26" r="2.54863" fill="#2C3032"/>
</mask>
<g mask="url(#mask6_1_3377)">
<circle cx="249.451" cy="226.26" r="2.54863" fill="black"/>
<circle cx="250.64" cy="225.311" r="0.567698" fill="white"/>
<circle cx="249.555" cy="224.95" r="0.309653" fill="white"/>
</g>
<mask id="mask7_1_3377" style="mask-type:alpha" maskUnits="userSpaceOnUse" x="227" y="223" width="7" height="6">
<circle cx="230.548" cy="226.26" r="2.54863" fill="#2C3032"/>
</mask>
<g mask="url(#mask7_1_3377)">
<circle cx="230.548" cy="226.26" r="2.54863" fill="black"/>
<circle cx="231.737" cy="225.311" r="0.567698" fill="white"/>
<circle cx="230.654" cy="224.95" r="0.309653" fill="white"/>
</g>
<path d="M246 233.044C246 233.044 244.666 236.289 240 236.289C235.333 236.289 234 233.044 234 233.044" stroke="black" stroke-width="2" stroke-linecap="round" stroke-linejoin="round"/>
<rect x="282" y="210" width="36" height="40" rx="18" fill="white"/>
<mask id="mask8_1_3377" style="mask-type:alpha" maskUnits="userSpaceOnUse" x="306" y="221" width="7" height="6">
<circle cx="309.452" cy="224.218" r="2.54863" fill="#2C3032"/>
</mask>
<g mask="url(#mask8_1_3377)">
<circle cx="309.452" cy="224.218" r="2.54863" fill="black"/>
<circle cx="310.64" cy="223.269" r="0.567698" fill="white"/>
<circle cx="309.556" cy="222.908" r="0.309653" fill="white"/>
</g>
<mask id="mask9_1_3377" style="mask-type:alpha" maskUnits="userSpaceOnUse" x="288" y="221" width="6" height="6">
<circle cx="290.549" cy="224.218" r="2.54863" fill="#2C3032"/>
</mask>
<g mask="url(#mask9_1_3377)">
<circle cx="290.549" cy="224.218" r="2.54863" fill="black"/>
<circle cx="291.737" cy="223.269" r="0.567698" fill="white"/>
<circle cx="290.654" cy="222.908" r="0.309653" fill="white"/>
</g>
<path d="M306.667 231.984C306.667 234.567 303.682 238.331 300 238.331C296.318 238.331 293.333 234.567 293.333 231.984C293.333 229.401 296.318 232.708 300 232.708C303.682 232.708 306.667 229.401 306.667 231.984Z" fill="black"/>
<g filter="url(#filter3_b_1_3377)">
<path fill-rule="evenodd" clip-rule="evenodd" d="M28.4142 57L30.7071 59.2929C31.0976 59.6834 31.0976 60.3166 30.7071 60.7071C30.3166 61.0976 29.6834 61.0976 29.2929 60.7071L25.2929 56.7071C24.9024 56.3166 24.9024 55.6834 25.2929 55.2929L29.2929 51.2929C29.6834 50.9024 30.3166 50.9024 30.7071 51.2929C31.0976 51.6834 31.0976 52.3166 30.7071 52.7071L28.4142 55L33 55C36.3137 55 39 57.6863 39 61L39 64C39 64.5523 38.5523 65 38 65C37.4477 65 37 64.5523 37 64L37 61C37 58.7909 35.2091 57 33 57L28.4142 57Z" fill="white"/>
<path d="M307.03 64.16C306.123 64.16 305.286 64.048 304.518 63.824C303.76 63.5893 303.11 63.2693 302.566 62.864L303.206 61.248C303.568 61.504 303.947 61.7227 304.342 61.904C304.736 62.0747 305.158 62.208 305.606 62.304C306.054 62.3893 306.528 62.432 307.03 62.432C307.872 62.432 308.48 62.2933 308.854 62.016C309.227 61.7387 309.414 61.376 309.414 60.928C309.414 60.5333 309.286 60.2347 309.03 60.032C308.774 59.8187 308.315 59.6427 307.654 59.504L305.846 59.136C304.811 58.9227 304.038 58.5653 303.526 58.064C303.014 57.5627 302.758 56.8907 302.758 56.048C302.758 55.344 302.944 54.7307 303.318 54.208C303.691 53.6853 304.214 53.28 304.886 52.992C305.558 52.704 306.342 52.56 307.238 52.56C308.038 52.56 308.779 52.6773 309.462 52.912C310.144 53.136 310.715 53.4613 311.174 53.888L310.534 55.424C310.075 55.04 309.574 54.7573 309.03 54.576C308.486 54.384 307.878 54.288 307.206 54.288C306.448 54.288 305.856 54.4373 305.43 54.736C305.014 55.024 304.806 55.424 304.806 55.936C304.806 56.3307 304.934 56.6453 305.19 56.88C305.456 57.1147 305.904 57.296 306.534 57.424L308.326 57.776C309.392 57.9893 310.182 58.3413 310.694 58.832C311.206 59.312 311.462 59.9627 311.462 60.784C311.462 61.456 311.28 62.048 310.918 62.56C310.555 63.0613 310.043 63.456 309.382 63.744C308.72 64.0213 307.936 64.16 307.03 64.16ZM313.886 64V52.224H315.886V59.36H315.918L319.198 55.92H321.614L317.534 60.192L317.55 59.392L321.902 64H319.422L315.918 60.384H315.886V64H313.886ZM323.354 64V55.92H325.354V64H323.354ZM323.242 54.4V52.448H325.466V54.4H323.242ZM328.166 67.456V57.936C328.166 57.6053 328.155 57.2693 328.134 56.928C328.113 56.5867 328.081 56.2507 328.038 55.92H329.974L330.15 57.616H329.974C330.134 57.0507 330.47 56.6027 330.982 56.272C331.505 55.9307 332.107 55.76 332.79 55.76C333.505 55.76 334.129 55.9307 334.662 56.272C335.195 56.6027 335.611 57.0827 335.91 57.712C336.209 58.3307 336.358 59.0773 336.358 59.952C336.358 60.8267 336.209 61.5787 335.91 62.208C335.611 62.8373 335.195 63.3227 334.662 63.664C334.129 63.9947 333.505 64.16 332.79 64.16C332.118 64.16 331.526 63.9947 331.014 63.664C330.502 63.3333 330.161 62.8907 329.99 62.336H330.166V67.456H328.166ZM332.23 62.624C332.87 62.624 333.382 62.4053 333.766 61.968C334.15 61.52 334.342 60.848 334.342 59.952C334.342 59.056 334.15 58.3893 333.766 57.952C333.382 57.5147 332.87 57.296 332.23 57.296C331.601 57.296 331.094 57.5147 330.71 57.952C330.326 58.3893 330.134 59.056 330.134 59.952C330.134 60.848 330.326 61.52 330.71 61.968C331.094 62.4053 331.601 62.624 332.23 62.624Z" fill="white"/>
</g>
<path d="M26.0781 23.7012H26.2148C26.8438 23.7012 27.3678 23.6191 27.7871 23.4551C28.2109 23.2865 28.5482 23.054 28.7988 22.7578C29.0495 22.4616 29.2295 22.113 29.3389 21.7119C29.4482 21.3109 29.5029 20.8757 29.5029 20.4062V18.6904C29.5029 18.2848 29.4596 17.9294 29.373 17.624C29.291 17.3141 29.1725 17.0566 29.0176 16.8516C28.8672 16.6419 28.6917 16.4847 28.4912 16.3799C28.2952 16.2751 28.0833 16.2227 27.8555 16.2227C27.6048 16.2227 27.3792 16.2796 27.1787 16.3936C26.9827 16.5029 26.8164 16.6556 26.6797 16.8516C26.5475 17.043 26.445 17.2686 26.3721 17.5283C26.3037 17.7835 26.2695 18.057 26.2695 18.3486C26.2695 18.6221 26.3014 18.8864 26.3652 19.1416C26.4336 19.3923 26.5339 19.6156 26.666 19.8115C26.7982 20.0075 26.9645 20.1624 27.165 20.2764C27.3656 20.3903 27.6003 20.4473 27.8691 20.4473C28.1243 20.4473 28.359 20.3994 28.5732 20.3037C28.7874 20.2035 28.9743 20.069 29.1338 19.9004C29.2933 19.7318 29.4186 19.5426 29.5098 19.333C29.6009 19.1234 29.651 18.9092 29.6602 18.6904L30.2891 18.8818C30.2891 19.2282 30.2161 19.57 30.0703 19.9072C29.929 20.2399 29.7308 20.5452 29.4756 20.8232C29.2249 21.0967 28.931 21.3154 28.5938 21.4795C28.2611 21.6436 27.8988 21.7256 27.5068 21.7256C27.0329 21.7256 26.6136 21.6367 26.249 21.459C25.889 21.2767 25.5882 21.0306 25.3467 20.7207C25.1097 20.4108 24.932 20.0553 24.8135 19.6543C24.695 19.2533 24.6357 18.8317 24.6357 18.3896C24.6357 17.9111 24.7087 17.4622 24.8545 17.043C25.0003 16.6237 25.2122 16.2546 25.4902 15.9355C25.7682 15.612 26.1055 15.3613 26.502 15.1836C26.903 15.0013 27.3564 14.9102 27.8623 14.9102C28.4001 14.9102 28.8717 15.015 29.2773 15.2246C29.6829 15.4342 30.0247 15.7236 30.3027 16.0928C30.5807 16.4619 30.7904 16.8903 30.9316 17.3779C31.0729 17.8656 31.1436 18.3896 31.1436 18.9502V19.5312C31.1436 20.1191 31.0911 20.6865 30.9863 21.2334C30.8815 21.7757 30.7106 22.2793 30.4736 22.7441C30.2412 23.2044 29.9336 23.61 29.5508 23.9609C29.1725 24.3073 28.7077 24.5785 28.1562 24.7744C27.6094 24.9658 26.9668 25.0615 26.2285 25.0615H26.0781V23.7012ZM33.1019 24.1797C33.1019 23.9245 33.1885 23.7103 33.3617 23.5371C33.5349 23.3594 33.7696 23.2705 34.0658 23.2705C34.3666 23.2705 34.6013 23.3594 34.7699 23.5371C34.9431 23.7103 35.0296 23.9245 35.0296 24.1797C35.0296 24.4349 34.9431 24.6491 34.7699 24.8223C34.6013 24.9954 34.3666 25.082 34.0658 25.082C33.7696 25.082 33.5349 24.9954 33.3617 24.8223C33.1885 24.6491 33.1019 24.4349 33.1019 24.1797ZM33.1088 18.3555C33.1088 18.1003 33.1953 17.8861 33.3685 17.7129C33.5417 17.5352 33.7764 17.4463 34.0726 17.4463C34.3734 17.4463 34.6081 17.5352 34.7767 17.7129C34.9499 17.8861 35.0365 18.1003 35.0365 18.3555C35.0365 18.6107 34.9499 18.8249 34.7767 18.998C34.6081 19.1712 34.3734 19.2578 34.0726 19.2578C33.7764 19.2578 33.5417 19.1712 33.3685 18.998C33.1953 18.8249 33.1088 18.6107 33.1088 18.3555ZM38.7517 19.2783H39.7361C40.1189 19.2783 40.4356 19.2122 40.6862 19.0801C40.9415 18.9479 41.1306 18.7656 41.2536 18.5332C41.3767 18.3008 41.4382 18.0342 41.4382 17.7334C41.4382 17.4189 41.3812 17.1501 41.2673 16.9268C41.1579 16.6989 40.9893 16.5234 40.7614 16.4004C40.5381 16.2773 40.2533 16.2158 39.907 16.2158C39.6153 16.2158 39.351 16.2751 39.114 16.3936C38.8816 16.5075 38.697 16.6715 38.5603 16.8857C38.4236 17.0954 38.3552 17.346 38.3552 17.6377H36.7009C36.7009 17.109 36.8399 16.6396 37.1179 16.2295C37.3959 15.8193 37.7741 15.498 38.2527 15.2656C38.7357 15.0286 39.278 14.9102 39.8796 14.9102C40.5222 14.9102 41.0827 15.0173 41.5612 15.2314C42.0443 15.4411 42.4203 15.7555 42.6892 16.1748C42.9581 16.5941 43.0925 17.1136 43.0925 17.7334C43.0925 18.016 43.0264 18.3031 42.8943 18.5947C42.7621 18.8864 42.5661 19.153 42.3064 19.3945C42.0466 19.6315 41.723 19.8252 41.3357 19.9756C40.9483 20.1214 40.4994 20.1943 39.989 20.1943H38.7517V19.2783ZM38.7517 20.5635V19.6611H39.989C40.5723 19.6611 41.0691 19.7295 41.4792 19.8662C41.8939 20.0029 42.2312 20.1921 42.4909 20.4336C42.7507 20.6706 42.9398 20.9417 43.0583 21.2471C43.1814 21.5524 43.2429 21.876 43.2429 22.2178C43.2429 22.6826 43.1586 23.0973 42.99 23.4619C42.8259 23.8219 42.5912 24.1273 42.2859 24.3779C41.9805 24.6286 41.6228 24.8177 41.2126 24.9453C40.807 25.0729 40.365 25.1367 39.8864 25.1367C39.4581 25.1367 39.0479 25.0775 38.656 24.959C38.264 24.8405 37.9131 24.665 37.6032 24.4326C37.2933 24.1956 37.0473 23.9017 36.865 23.5508C36.6872 23.1953 36.5984 22.7852 36.5984 22.3203H38.2458C38.2458 22.6165 38.3142 22.8786 38.4509 23.1064C38.5922 23.3298 38.7881 23.5052 39.0388 23.6328C39.294 23.7604 39.5857 23.8242 39.9138 23.8242C40.2601 23.8242 40.5586 23.7627 40.8093 23.6396C41.0599 23.5166 41.2514 23.3343 41.3835 23.0928C41.5202 22.8512 41.5886 22.5596 41.5886 22.2178C41.5886 21.8304 41.5134 21.516 41.363 21.2744C41.2126 21.0329 40.9984 20.8551 40.7204 20.7412C40.4424 20.6227 40.1143 20.5635 39.7361 20.5635H38.7517ZM51.5382 19.1895V20.8164C51.5382 21.5957 51.4607 22.2611 51.3057 22.8125C51.1554 23.3594 50.9366 23.8037 50.6495 24.1455C50.3624 24.4873 50.0183 24.738 49.6173 24.8975C49.2208 25.057 48.7764 25.1367 48.2843 25.1367C47.8923 25.1367 47.5277 25.0866 47.1905 24.9863C46.8578 24.8861 46.557 24.7288 46.2882 24.5146C46.0193 24.3005 45.7891 24.0247 45.5977 23.6875C45.4109 23.3457 45.2651 22.9378 45.1602 22.4639C45.06 21.9899 45.0098 21.4408 45.0098 20.8164V19.1895C45.0098 18.4056 45.0873 17.7448 45.2423 17.207C45.3972 16.6647 45.6182 16.2249 45.9054 15.8877C46.1925 15.5459 46.5343 15.2975 46.9307 15.1426C47.3318 14.9876 47.7784 14.9102 48.2706 14.9102C48.6671 14.9102 49.0317 14.9603 49.3643 15.0605C49.7016 15.1562 50.0024 15.3089 50.2667 15.5186C50.5356 15.7282 50.7634 16.0016 50.9503 16.3389C51.1417 16.6715 51.2875 17.0749 51.3878 17.5488C51.488 18.0182 51.5382 18.5651 51.5382 19.1895ZM49.8907 21.0488V18.9434C49.8907 18.5469 49.8679 18.1982 49.8223 17.8975C49.7768 17.5921 49.7084 17.3346 49.6173 17.125C49.5307 16.9108 49.4213 16.7376 49.2891 16.6055C49.157 16.4688 49.0066 16.3708 48.838 16.3115C48.6693 16.2477 48.4802 16.2158 48.2706 16.2158C48.0154 16.2158 47.7875 16.266 47.587 16.3662C47.3865 16.4619 47.2179 16.6169 47.0811 16.8311C46.9444 17.0452 46.8396 17.3278 46.7667 17.6787C46.6983 18.0251 46.6641 18.4466 46.6641 18.9434V21.0488C46.6641 21.4499 46.6869 21.8031 46.7325 22.1084C46.7781 22.4137 46.8464 22.6758 46.9376 22.8945C47.0287 23.1087 47.1381 23.2865 47.2657 23.4277C47.3979 23.5645 47.5483 23.6647 47.7169 23.7285C47.8901 23.7923 48.0792 23.8242 48.2843 23.8242C48.544 23.8242 48.7742 23.7741 48.9747 23.6738C49.1752 23.5736 49.3438 23.4141 49.4805 23.1953C49.6173 22.972 49.7198 22.6826 49.7882 22.3271C49.8565 21.9717 49.8907 21.5456 49.8907 21.0488Z" fill="white"/>
<path opacity="0.1" d="M298.5 14.4167C295.1 14.4167 292.125 15.9042 290 18.2417L298.5 28.5834L307 18.2417C304.875 15.9042 301.9 14.4167 298.5 14.4167Z" fill="white"/>
<path d="M321.583 14.4167L307.417 28.5834H321.583V14.4167Z" fill="white"/>
<path d="M333.5 14H330.5V15.5H329C328.448 15.5 328 16.0037 328 16.625V27.875C328 28.4963 328.448 29 329 29H335C335.552 29 336 28.4963 336 27.875V16.625C336 16.0037 335.552 15.5 335 15.5H333.5V14Z" fill="white" fill-opacity="0.3"/>
<path d="M328 22C328 22.5833 328 27.3667 328 27.95C328 28.5299 328.448 29 329 29H335C335.552 29 336 28.5299 336 27.95C336 27.3667 336 22.5833 336 22H328Z" fill="white"/>
<rect x="281" y="19" width="6" height="6" rx="3" fill="#FF0000"/>
</g>
<defs>
<filter id="filter0_b_1_3377" x="-6" y="-6" width="373" height="96" filterUnits="userSpaceOnUse" color-interpolation-filters="sRGB">
<feFlood flood-opacity="0" result="BackgroundImageFix"/>
<feGaussianBlur in="BackgroundImageFix" stdDeviation="3"/>
<feComposite in2="SourceAlpha" operator="in" result="effect1_backgroundBlur_1_3377"/>
<feBlend mode="normal" in="SourceGraphic" in2="effect1_backgroundBlur_1_3377" result="shape"/>
</filter>
<filter id="filter1_b_1_3377" x="-6" y="-6" width="372" height="792" filterUnits="userSpaceOnUse" color-interpolation-filters="sRGB">
<feFlood flood-opacity="0" result="BackgroundImageFix"/>
<feGaussianBlur in="BackgroundImageFix" stdDeviation="3"/>
<feComposite in2="SourceAlpha" operator="in" result="effect1_backgroundBlur_1_3377"/>
<feBlend mode="normal" in="SourceGraphic" in2="effect1_backgroundBlur_1_3377" result="shape"/>
</filter>
<filter id="filter2_b_1_3377" x="-6" y="-6" width="373" height="96" filterUnits="userSpaceOnUse" color-interpolation-filters="sRGB">
<feFlood flood-opacity="0" result="BackgroundImageFix"/>
<feGaussianBlur in="BackgroundImageFix" stdDeviation="3"/>
<feComposite in2="SourceAlpha" operator="in" result="effect1_backgroundBlur_1_3377"/>
<feBlend mode="normal" in="SourceGraphic" in2="effect1_backgroundBlur_1_3377" result="shape"/>
</filter>
<filter id="filter3_b_1_3377" x="-6" y="-6" width="373" height="96" filterUnits="userSpaceOnUse" color-interpolation-filters="sRGB">
<feFlood flood-opacity="0" result="BackgroundImageFix"/>
<feGaussianBlur in="BackgroundImageFix" stdDeviation="3"/>
<feComposite in2="SourceAlpha" operator="in" result="effect1_backgroundBlur_1_3377"/>
<feBlend mode="normal" in="SourceGraphic" in2="effect1_backgroundBlur_1_3377" result="shape"/>
</filter>
<clipPath id="clip0_1_3377">
<rect width="360" height="780" rx="18" fill="white"/>
</clipPath>
<clipPath id="clip1_1_3377">
<rect width="360" height="780" fill="white"/>
</clipPath>
<clipPath id="clip2_1_3377">
<rect width="360" height="780" fill="white"/>
</clipPath>
</defs>
</svg>
