<svg xmlns="http://www.w3.org/2000/svg" xmlns:xlink="http://www.w3.org/1999/xlink" width="375" height="812" viewBox="0 0 375 812">
  <defs>
    <clipPath id="clip-_7.1_Sign_up">
      <rect width="375" height="812"/>
    </clipPath>
  </defs>
  <g id="_7.1_Sign_up" data-name="7.1 Sign up" clip-path="url(#clip-_7.1_Sign_up)">
    <rect width="375" height="812" fill="#fff"/>
    <path id="Path_4436" data-name="Path 4436" d="M416.252,5.705v41.62h-375V4.907l.035-116.325H416.252Z" transform="translate(-41.254 764.675)" fill="#3f7993"/>
    <path id="Path_4437" data-name="Path 4437" d="M416.252,338.466v91.915h-375V326.359l75.8,2.44,53.743,1.745Z" transform="translate(-41.254 381.619)" fill="#8bc6a6"/>
    <path id="Path_4438" data-name="Path 4438" d="M416.252,354.571v28.7c-3.859.614-7.74,1.1-11.6,1.513a690.291,690.291,0,0,1-203.089-8c-19.471-3.706-39.491-8.245-58.919-4.232-8.639,1.776-16.84,5.2-25.458,7.126-15.371,3.42-31.377,1.908-47.033.066-6.819-.789-18.221-.965-28.9-2.676v-42.1c14.187-2.039,28.484-3.311,42.8-4.012,10.986-.526,21.993-.7,33-.614,17.936.176,35.85,1.118,53.743,2.477,2,.131,3.991.307,5.987.461,61.769,5.022,123.077,14.889,185.022,17.674C379.94,351.764,398.337,351.983,416.252,354.571Z" transform="translate(-41.254 399.833)" fill="#fff2d6"/>
    <path id="Path_4454" data-name="Path 4454" d="M416.252,377.284V337.943c-3.859-.841-7.74-1.5-11.6-2.073a507.046,507.046,0,0,0-203.089,10.97c-19.471,5.079-39.491,11.3-58.919,5.8-8.639-2.434-16.84-7.124-25.458-9.768-15.371-4.688-31.377-2.615-47.033-.091-6.819,1.082-18.221,1.323-28.9,3.667v57.705a338.548,338.548,0,0,0,42.8,5.5c10.986.721,21.993.961,33,.841,17.936-.241,35.85-1.532,53.743-3.4,2-.18,3.991-.421,5.987-.631,61.769-6.883,123.077-20.407,185.022-24.225C379.94,381.131,398.337,380.831,416.252,377.284Z" transform="translate(-41.254 413.627)" fill="#f5b262"/>
    <path id="Path_4450" data-name="Path 4450" d="M330.026,487.18h-207.5c.9-1.119,1.82-2.237,2.719-3.355,6.556-8.091,14.077-16.774,24.383-18.375,6.907-1.074,13.99,1.272,20.919.263,5.307-.768,10.13-3.465,14.691-6.293,10.876-6.754,21.094-14.56,32.189-20.94,11.117-6.38,23.374-11.358,36.158-11.753,19.537-.614,38.153,9.67,51.66,23.769C315.51,461.2,323.228,473.936,330.026,487.18Z" transform="translate(-51.881 324.82)" fill="#341114"/>
    <path id="Path_4451" data-name="Path 4451" d="M449.129,471.52v17.651H292.7a36.906,36.906,0,0,1,23.331-18.638c12.3-3.026,25.654.526,37.714-3.355,12.761-4.122,21.664-15.744,33.789-21.467,13.419-6.315,30-4.451,42.451,3.553A53.715,53.715,0,0,1,449.129,471.52Z" transform="translate(-74.129 322.829)" fill="#00384c"/>
    <path id="Path_4878" data-name="Path 4878" d="M-74.727.216a6.438,6.438,0,0,0,4.572-1.692,1.064,1.064,0,0,0,.36-.792,1.053,1.053,0,0,0-1.044-1.026,1.007,1.007,0,0,0-.666.252,4.516,4.516,0,0,1-3.15,1.206A4.245,4.245,0,0,1-78.813-6.3v-.036a4.241,4.241,0,0,1,4.158-4.446,4.57,4.57,0,0,1,3.006,1.134,1.082,1.082,0,0,0,.666.216,1.076,1.076,0,0,0,1.1-1.08,1.106,1.106,0,0,0-.432-.882,6.608,6.608,0,0,0-4.32-1.422,6.376,6.376,0,0,0-6.5,6.516v.036A6.337,6.337,0,0,0-74.727.216ZM-67.545-.99A1.072,1.072,0,0,0-66.465.09a1.087,1.087,0,0,0,1.1-1.08V-3.8c0-2.25,1.062-3.438,2.61-3.708a1.022,1.022,0,0,0,.864-1.044,1.011,1.011,0,0,0-1.08-1.08,3.021,3.021,0,0,0-2.394,2.088v-.972a1.091,1.091,0,0,0-1.1-1.1,1.076,1.076,0,0,0-1.08,1.1ZM-58.8-5.418a2.572,2.572,0,0,1,2.466-2.5,2.467,2.467,0,0,1,2.412,2.5Zm6.138,4.374a.951.951,0,0,0,.288-.666.857.857,0,0,0-.864-.882.811.811,0,0,0-.558.2,3.416,3.416,0,0,1-2.25.828,2.653,2.653,0,0,1-2.736-2.412h5.958A1.018,1.018,0,0,0-51.8-5.022,4.5,4.5,0,0,0-56.313-9.7a4.717,4.717,0,0,0-4.644,4.95v.036A4.742,4.742,0,0,0-56.079.216,4.88,4.88,0,0,0-52.659-1.044ZM-46.827.2a3.863,3.863,0,0,0,3.1-1.386v.36A.984.984,0,0,0-42.669.09,1.038,1.038,0,0,0-41.607-.954v-4.68a3.944,3.944,0,0,0-1.026-2.934,4.259,4.259,0,0,0-3.15-1.062,8.147,8.147,0,0,0-3.06.558.951.951,0,0,0-.594.864.907.907,0,0,0,.918.9,1.223,1.223,0,0,0,.342-.054,5.644,5.644,0,0,1,2.106-.378c1.53,0,2.358.72,2.358,2.07v.234a7.94,7.94,0,0,0-2.556-.4c-2.322,0-3.924,1.008-3.924,3.06v.036C-50.193-.828-48.609.2-46.827.2Zm.612-1.584c-1.044,0-1.854-.522-1.854-1.44v-.036c0-.99.828-1.584,2.232-1.584a6.038,6.038,0,0,1,2.16.378v.648C-43.677-2.214-44.775-1.386-46.215-1.386ZM-35.9.162A4.333,4.333,0,0,0-34.407-.09a.937.937,0,0,0,.576-.846.918.918,0,0,0-.918-.9,5.149,5.149,0,0,1-.54.054,1.037,1.037,0,0,1-1.17-1.188V-7.632h1.71a.945.945,0,0,0,.954-.936.945.945,0,0,0-.954-.936h-1.71v-1.62a1.083,1.083,0,0,0-1.08-1.08,1.087,1.087,0,0,0-1.1,1.08V-9.5H-39a.93.93,0,0,0-.936.936A.93.93,0,0,0-39-7.632h.36v5C-38.637-.54-37.5.162-35.9.162Zm5.58-5.58a2.572,2.572,0,0,1,2.466-2.5,2.467,2.467,0,0,1,2.412,2.5Zm6.138,4.374A.951.951,0,0,0-23.9-1.71a.857.857,0,0,0-.864-.882.811.811,0,0,0-.558.2,3.416,3.416,0,0,1-2.25.828A2.653,2.653,0,0,1-30.3-3.978h5.958a1.018,1.018,0,0,0,1.026-1.044A4.5,4.5,0,0,0-27.837-9.7a4.717,4.717,0,0,0-4.644,4.95v.036A4.742,4.742,0,0,0-27.6.216,4.88,4.88,0,0,0-24.183-1.044ZM-12.951.2a3.863,3.863,0,0,0,3.1-1.386v.36A.984.984,0,0,0-8.793.09,1.038,1.038,0,0,0-7.731-.954v-4.68A3.944,3.944,0,0,0-8.757-8.568a4.259,4.259,0,0,0-3.15-1.062,8.147,8.147,0,0,0-3.06.558.951.951,0,0,0-.594.864.907.907,0,0,0,.918.9,1.223,1.223,0,0,0,.342-.054,5.644,5.644,0,0,1,2.106-.378c1.53,0,2.358.72,2.358,2.07v.234a7.94,7.94,0,0,0-2.556-.4c-2.322,0-3.924,1.008-3.924,3.06v.036C-16.317-.828-14.733.2-12.951.2Zm.612-1.584c-1.044,0-1.854-.522-1.854-1.44v-.036c0-.99.828-1.584,2.232-1.584a6.038,6.038,0,0,1,2.16.378v.648C-9.8-2.214-10.9-1.386-12.339-1.386Zm7.218.4A1.072,1.072,0,0,0-4.041.09a1.076,1.076,0,0,0,1.1-1.08V-5.364A2.114,2.114,0,0,1-.8-7.722c1.3,0,2.034.846,2.034,2.322V-.99A1.076,1.076,0,0,0,2.331.09,1.061,1.061,0,0,0,3.411-.99V-6.066C3.411-8.262,2.169-9.7.027-9.7a3.445,3.445,0,0,0-2.97,1.656v-.468a1.091,1.091,0,0,0-1.1-1.1,1.076,1.076,0,0,0-1.08,1.1ZM14.175.2a3.863,3.863,0,0,0,3.1-1.386v.36A.984.984,0,0,0,18.333.09,1.038,1.038,0,0,0,19.4-.954v-4.68a3.944,3.944,0,0,0-1.026-2.934,4.259,4.259,0,0,0-3.15-1.062,8.147,8.147,0,0,0-3.06.558.951.951,0,0,0-.594.864.907.907,0,0,0,.918.9,1.223,1.223,0,0,0,.342-.054,5.644,5.644,0,0,1,2.106-.378c1.53,0,2.358.72,2.358,2.07v.234a7.94,7.94,0,0,0-2.556-.4c-2.322,0-3.924,1.008-3.924,3.06v.036C10.809-.828,12.393.2,14.175.2Zm.612-1.584c-1.044,0-1.854-.522-1.854-1.44v-.036c0-.99.828-1.584,2.232-1.584a6.038,6.038,0,0,1,2.16.378v.648C17.325-2.214,16.227-1.386,14.787-1.386ZM26.4.216a4.652,4.652,0,0,0,3.456-1.35.849.849,0,0,0,.306-.684.945.945,0,0,0-.936-.954.947.947,0,0,0-.594.234,3.172,3.172,0,0,1-2.124.846,2.876,2.876,0,0,1-2.844-3.042V-4.77a2.866,2.866,0,0,1,2.754-3.024,3.014,3.014,0,0,1,2.034.81,1.11,1.11,0,0,0,.648.216.991.991,0,0,0,1.008-.99,1.033,1.033,0,0,0-.342-.756A4.811,4.811,0,0,0,26.433-9.7a4.905,4.905,0,0,0-4.95,4.968V-4.7A4.852,4.852,0,0,0,26.4.216Zm10.008,0a4.652,4.652,0,0,0,3.456-1.35.849.849,0,0,0,.306-.684.945.945,0,0,0-.936-.954.947.947,0,0,0-.594.234,3.172,3.172,0,0,1-2.124.846,2.876,2.876,0,0,1-2.844-3.042V-4.77a2.866,2.866,0,0,1,2.754-3.024,3.014,3.014,0,0,1,2.034.81,1.11,1.11,0,0,0,.648.216.991.991,0,0,0,1.008-.99,1.033,1.033,0,0,0-.342-.756A4.811,4.811,0,0,0,36.441-9.7a4.905,4.905,0,0,0-4.95,4.968V-4.7A4.852,4.852,0,0,0,36.405.216Zm10.134,0a4.969,4.969,0,0,0,5.094-4.95V-4.77A4.923,4.923,0,0,0,46.575-9.7,4.968,4.968,0,0,0,41.5-4.734V-4.7A4.915,4.915,0,0,0,46.539.216Zm.036-1.908a2.929,2.929,0,0,1-2.9-3.042V-4.77a2.853,2.853,0,0,1,2.862-3.024,2.938,2.938,0,0,1,2.916,3.06V-4.7A2.851,2.851,0,0,1,46.575-1.692ZM62.289-8.514a1.1,1.1,0,0,0-1.1-1.1,1.091,1.091,0,0,0-1.1,1.1V-4.14A2.1,2.1,0,0,1,57.951-1.8c-1.3,0-2.034-.828-2.034-2.3v-4.41a1.091,1.091,0,0,0-1.1-1.1,1.087,1.087,0,0,0-1.08,1.1v5.058C53.739-1.242,54.981.2,57.123.2a3.42,3.42,0,0,0,2.97-1.674V-.99a1.087,1.087,0,0,0,1.1,1.08,1.087,1.087,0,0,0,1.1-1.08ZM65.007-.99A1.072,1.072,0,0,0,66.087.09a1.076,1.076,0,0,0,1.1-1.08V-5.364a2.114,2.114,0,0,1,2.142-2.358c1.3,0,2.034.846,2.034,2.322V-.99a1.076,1.076,0,0,0,1.1,1.08,1.061,1.061,0,0,0,1.08-1.08V-6.066c0-2.2-1.242-3.636-3.384-3.636a3.445,3.445,0,0,0-2.97,1.656v-.468a1.091,1.091,0,0,0-1.1-1.1,1.076,1.076,0,0,0-1.08,1.1ZM79.353.162A4.333,4.333,0,0,0,80.847-.09a.937.937,0,0,0,.576-.846.918.918,0,0,0-.918-.9,5.149,5.149,0,0,1-.54.054A1.037,1.037,0,0,1,78.8-2.97V-7.632h1.71a.945.945,0,0,0,.954-.936.945.945,0,0,0-.954-.936H78.8v-1.62a1.083,1.083,0,0,0-1.08-1.08,1.087,1.087,0,0,0-1.1,1.08V-9.5h-.36a.93.93,0,0,0-.936.936.93.93,0,0,0,.936.936h.36v5C76.617-.54,77.751.162,79.353.162Z" transform="matrix(1, 0, 0, 1, 190.75, 134)" fill="#3f7993"/>
    <path id="Path_4887" data-name="Path 4887" d="M-49.133.156A4.663,4.663,0,0,0-44.362-4.55v-.026a4.619,4.619,0,0,0-4.745-4.68A4.663,4.663,0,0,0-53.879-4.55v.026A4.619,4.619,0,0,0-49.133.156Zm.026-1.482A3.107,3.107,0,0,1-52.2-4.55v-.026a3.075,3.075,0,0,1,3.068-3.211A3.118,3.118,0,0,1-46.04-4.55v.026A3.064,3.064,0,0,1-49.107-1.326Zm6.5.611a.774.774,0,0,0,.78.78.785.785,0,0,0,.793-.78V-2.743c0-1.625.767-2.483,1.885-2.678a.738.738,0,0,0,.624-.754.73.73,0,0,0-.78-.78,2.182,2.182,0,0,0-1.729,1.508v-.7a.788.788,0,0,0-.793-.793.777.777,0,0,0-.78.793Zm12.441.871a3.359,3.359,0,0,0,2.5-.975.613.613,0,0,0,.221-.494A.682.682,0,0,0-28.125-2a.684.684,0,0,0-.429.169,2.291,2.291,0,0,1-1.534.611,2.077,2.077,0,0,1-2.054-2.2v-.026a2.07,2.07,0,0,1,1.989-2.184,2.177,2.177,0,0,1,1.469.585.8.8,0,0,0,.468.156.716.716,0,0,0,.728-.715.746.746,0,0,0-.247-.546,3.474,3.474,0,0,0-2.4-.858,3.543,3.543,0,0,0-3.575,3.588v.026A3.5,3.5,0,0,0-30.167.156Zm7.319,0a3.589,3.589,0,0,0,3.679-3.575v-.026a3.556,3.556,0,0,0-3.653-3.562,3.588,3.588,0,0,0-3.666,3.588v.026A3.55,3.55,0,0,0-22.847.156Zm.026-1.378a2.116,2.116,0,0,1-2.093-2.2v-.026a2.06,2.06,0,0,1,2.067-2.184,2.122,2.122,0,0,1,2.106,2.21v.026A2.059,2.059,0,0,1-22.821-1.222Zm5.252.507a.774.774,0,0,0,.78.78A.777.777,0,0,0-16-.715V-3.874a1.527,1.527,0,0,1,1.547-1.7c.936,0,1.469.611,1.469,1.677V-.715a.777.777,0,0,0,.793.78.766.766,0,0,0,.78-.78V-4.381a2.353,2.353,0,0,0-2.444-2.626A2.488,2.488,0,0,0-16-5.811v-.338a.788.788,0,0,0-.793-.793.777.777,0,0,0-.78.793ZM-7.209.117A3.129,3.129,0,0,0-6.13-.065a.677.677,0,0,0,.416-.611.663.663,0,0,0-.663-.65,3.719,3.719,0,0,1-.39.039.749.749,0,0,1-.845-.858V-5.512h1.235a.682.682,0,0,0,.689-.676.682.682,0,0,0-.689-.676H-7.612v-1.17a.782.782,0,0,0-.78-.78.785.785,0,0,0-.793.78v1.17h-.26a.671.671,0,0,0-.676.676.671.671,0,0,0,.676.676h.26V-1.9A1.759,1.759,0,0,0-7.209.117Zm3.016-8.749a.814.814,0,0,0,.9.78.814.814,0,0,0,.9-.78V-8.71a.8.8,0,0,0-.9-.767.8.8,0,0,0-.9.767Zm.117,7.917a.774.774,0,0,0,.78.78A.777.777,0,0,0-2.5-.715V-6.149A.788.788,0,0,0-3.3-6.942a.777.777,0,0,0-.78.793Zm3.627,0a.774.774,0,0,0,.78.78.777.777,0,0,0,.793-.78V-3.874a1.527,1.527,0,0,1,1.547-1.7c.936,0,1.469.611,1.469,1.677V-.715a.777.777,0,0,0,.793.78.766.766,0,0,0,.78-.78V-4.381A2.353,2.353,0,0,0,3.269-7.007a2.488,2.488,0,0,0-2.145,1.2v-.338a.788.788,0,0,0-.793-.793.777.777,0,0,0-.78.793ZM13.709-6.149a.8.8,0,0,0-.793-.793.788.788,0,0,0-.793.793V-2.99A1.516,1.516,0,0,1,10.576-1.3c-.936,0-1.469-.6-1.469-1.664V-6.149a.788.788,0,0,0-.793-.793.785.785,0,0,0-.78.793V-2.5A2.357,2.357,0,0,0,9.978.143a2.47,2.47,0,0,0,2.145-1.209v.351a.785.785,0,0,0,.793.78.785.785,0,0,0,.793-.78Zm3.146,2.236A1.858,1.858,0,0,1,18.636-5.72a1.782,1.782,0,0,1,1.742,1.807ZM21.288-.754a.687.687,0,0,0,.208-.481.619.619,0,0,0-.624-.637.586.586,0,0,0-.4.143,2.467,2.467,0,0,1-1.625.6,1.916,1.916,0,0,1-1.976-1.742h4.3a.736.736,0,0,0,.741-.754,3.247,3.247,0,0,0-3.263-3.38,3.407,3.407,0,0,0-3.354,3.575v.026A3.425,3.425,0,0,0,18.818.156,3.524,3.524,0,0,0,21.288-.754Zm8.437.871h.052a.869.869,0,0,0,.845-.676l1.352-4.082L33.313-.559a.873.873,0,0,0,.858.676h.052a.915.915,0,0,0,.871-.7l1.872-5.278a1.3,1.3,0,0,0,.065-.351.73.73,0,0,0-.741-.728.784.784,0,0,0-.767.611L34.184-2.158l-1.352-4.16a.835.835,0,0,0-.806-.624h-.091a.835.835,0,0,0-.806.624L29.79-2.158l-1.326-4.16a.8.8,0,0,0-.767-.624.736.736,0,0,0-.767.728,1.306,1.306,0,0,0,.078.4L28.854-.585A.894.894,0,0,0,29.725.117Zm8.762-8.749a.814.814,0,0,0,.9.78.814.814,0,0,0,.9-.78V-8.71a.8.8,0,0,0-.9-.767.8.8,0,0,0-.9.767ZM38.6-.715a.774.774,0,0,0,.78.78.777.777,0,0,0,.793-.78V-6.149a.788.788,0,0,0-.793-.793.777.777,0,0,0-.78.793Zm5.928.832a3.129,3.129,0,0,0,1.079-.182.677.677,0,0,0,.416-.611.663.663,0,0,0-.663-.65,3.719,3.719,0,0,1-.39.039.749.749,0,0,1-.845-.858V-5.512h1.235a.682.682,0,0,0,.689-.676.682.682,0,0,0-.689-.676H44.129v-1.17a.782.782,0,0,0-.78-.78.785.785,0,0,0-.793.78v1.17H42.3a.671.671,0,0,0-.676.676.671.671,0,0,0,.676.676h.26V-1.9A1.759,1.759,0,0,0,44.532.117Zm3.042-.832a.774.774,0,0,0,.78.78.777.777,0,0,0,.793-.78V-3.874a1.527,1.527,0,0,1,1.547-1.7c.936,0,1.469.611,1.469,1.677V-.715a.777.777,0,0,0,.793.78.766.766,0,0,0,.78-.78V-4.381a2.353,2.353,0,0,0-2.444-2.626,2.488,2.488,0,0,0-2.145,1.2V-8.775a.785.785,0,0,0-.793-.78.774.774,0,0,0-.78.78Z" transform="matrix(1, 0, 0, 1, 190.75, 586)" fill="#3f7993"/>
    <path id="Path_4879" data-name="Path 4879" d="M-79.209-1.352A1.465,1.465,0,0,0-77.727.13,1.538,1.538,0,0,0-76.245-.884l1.534-3.51h8.84l1.482,3.406A1.648,1.648,0,0,0-62.829.13,1.5,1.5,0,0,0-61.321-1.4,1.392,1.392,0,0,0-61.5-2.08l-6.76-15.08a2,2,0,0,0-1.9-1.3h-.156a2.029,2.029,0,0,0-1.924,1.3L-79-2.08A1.638,1.638,0,0,0-79.209-1.352Zm5.72-5.876,3.2-7.358,3.2,7.358ZM-52.273.312a6.719,6.719,0,0,0,4.992-1.95,1.226,1.226,0,0,0,.442-.988A1.365,1.365,0,0,0-48.191-4a1.367,1.367,0,0,0-.858.338,4.582,4.582,0,0,1-3.068,1.222,4.154,4.154,0,0,1-4.108-4.394V-6.89a4.14,4.14,0,0,1,3.978-4.368,4.354,4.354,0,0,1,2.938,1.17,1.6,1.6,0,0,0,.936.312,1.432,1.432,0,0,0,1.456-1.43,1.492,1.492,0,0,0-.494-1.092,6.949,6.949,0,0,0-4.81-1.716,7.086,7.086,0,0,0-7.15,7.176v.052A7.009,7.009,0,0,0-52.273.312Zm13.1-.078A6.258,6.258,0,0,0-37.011-.13a1.354,1.354,0,0,0,.832-1.222,1.326,1.326,0,0,0-1.326-1.3,7.438,7.438,0,0,1-.78.078,1.5,1.5,0,0,1-1.69-1.716v-6.734h2.47a1.365,1.365,0,0,0,1.378-1.352,1.365,1.365,0,0,0-1.378-1.352h-2.47v-2.34a1.565,1.565,0,0,0-1.56-1.56,1.57,1.57,0,0,0-1.586,1.56v2.34h-.52a1.343,1.343,0,0,0-1.352,1.352,1.343,1.343,0,0,0,1.352,1.352h.52V-3.8C-43.121-.78-41.483.234-39.169.234Zm6.032-17.5a1.629,1.629,0,0,0,1.794,1.56,1.629,1.629,0,0,0,1.794-1.56v-.156a1.61,1.61,0,0,0-1.794-1.534,1.61,1.61,0,0,0-1.794,1.534ZM-32.9-1.43A1.548,1.548,0,0,0-31.343.13a1.554,1.554,0,0,0,1.586-1.56V-12.3a1.576,1.576,0,0,0-1.586-1.586A1.554,1.554,0,0,0-32.9-12.3ZM-19.123.312a7.178,7.178,0,0,0,7.358-7.15V-6.89a7.112,7.112,0,0,0-7.306-7.124A7.176,7.176,0,0,0-26.4-6.838v.052A7.1,7.1,0,0,0-19.123.312Zm.052-2.756a4.231,4.231,0,0,1-4.186-4.394V-6.89a4.12,4.12,0,0,1,4.134-4.368,4.243,4.243,0,0,1,4.212,4.42v.052A4.119,4.119,0,0,1-19.071-2.444Zm10.5,1.014A1.548,1.548,0,0,0-7.007.13,1.554,1.554,0,0,0-5.421-1.43V-7.748c0-2.132,1.274-3.406,3.094-3.406C-.455-11.154.611-9.932.611-7.8v6.37A1.554,1.554,0,0,0,2.2.13a1.532,1.532,0,0,0,1.56-1.56V-8.762c0-3.172-1.794-5.252-4.888-5.252a4.976,4.976,0,0,0-4.29,2.392V-12.3a1.576,1.576,0,0,0-1.586-1.586A1.554,1.554,0,0,0-8.567-12.3ZM16.367.312a9.3,9.3,0,0,0,6.6-2.444,1.536,1.536,0,0,0,.52-1.144,1.521,1.521,0,0,0-1.508-1.482,1.455,1.455,0,0,0-.962.364,6.522,6.522,0,0,1-4.55,1.742A6.132,6.132,0,0,1,10.465-9.1v-.052a6.125,6.125,0,0,1,6.006-6.422,6.6,6.6,0,0,1,4.342,1.638,1.562,1.562,0,0,0,.962.312,1.554,1.554,0,0,0,1.586-1.56,1.6,1.6,0,0,0-.624-1.274,9.544,9.544,0,0,0-6.24-2.054A9.21,9.21,0,0,0,7.111-9.1v.052A9.153,9.153,0,0,0,16.367.312Zm16.64,0a7.178,7.178,0,0,0,7.358-7.15V-6.89a7.112,7.112,0,0,0-7.306-7.124,7.176,7.176,0,0,0-7.332,7.176v.052A7.1,7.1,0,0,0,33.007.312Zm.052-2.756a4.231,4.231,0,0,1-4.186-4.394V-6.89a4.12,4.12,0,0,1,4.134-4.368,4.243,4.243,0,0,1,4.212,4.42v.052A4.119,4.119,0,0,1,33.059-2.444ZM47.515.286a5.579,5.579,0,0,0,4.472-2v.52A1.422,1.422,0,0,0,53.521.13a1.5,1.5,0,0,0,1.534-1.508v-6.76a5.7,5.7,0,0,0-1.482-4.238,6.152,6.152,0,0,0-4.55-1.534,11.767,11.767,0,0,0-4.42.806,1.373,1.373,0,0,0-.858,1.248,1.31,1.31,0,0,0,1.326,1.3,1.767,1.767,0,0,0,.494-.078,8.153,8.153,0,0,1,3.042-.546c2.21,0,3.406,1.04,3.406,2.99v.338a11.468,11.468,0,0,0-3.692-.572c-3.354,0-5.668,1.456-5.668,4.42v.052C42.653-1.2,44.941.286,47.515.286ZM48.4-2c-1.508,0-2.678-.754-2.678-2.08v-.052c0-1.43,1.2-2.288,3.224-2.288a8.722,8.722,0,0,1,3.12.546v.936C52.065-3.2,50.479-2,48.4-2ZM63.531.26c2.86,0,5.1-1.43,5.1-4.316v-.052c0-2.47-2.262-3.38-4.264-4-1.612-.52-3.094-.936-3.094-1.95v-.052c0-.78.7-1.352,1.924-1.352a7.487,7.487,0,0,1,3.224.936,1.235,1.235,0,0,0,.624.156,1.266,1.266,0,0,0,1.3-1.274,1.334,1.334,0,0,0-.754-1.2,9.437,9.437,0,0,0-4.316-1.118c-2.73,0-4.888,1.586-4.888,4.186v.052c0,2.626,2.262,3.458,4.29,4.03,1.612.494,3.068.858,3.068,1.924v.052c0,.91-.78,1.482-2.132,1.482a7.247,7.247,0,0,1-3.952-1.326,1.373,1.373,0,0,0-.676-.182A1.26,1.26,0,0,0,57.707-2.47a1.206,1.206,0,0,0,.6,1.092A9.383,9.383,0,0,0,63.531.26ZM76.193.234A6.258,6.258,0,0,0,78.351-.13a1.354,1.354,0,0,0,.832-1.222,1.326,1.326,0,0,0-1.326-1.3,7.438,7.438,0,0,1-.78.078,1.5,1.5,0,0,1-1.69-1.716v-6.734h2.47a1.365,1.365,0,0,0,1.378-1.352,1.365,1.365,0,0,0-1.378-1.352h-2.47v-2.34a1.565,1.565,0,0,0-1.56-1.56,1.57,1.57,0,0,0-1.586,1.56v2.34h-.52a1.343,1.343,0,0,0-1.352,1.352,1.343,1.343,0,0,0,1.352,1.352h.52V-3.8C72.241-.78,73.879.234,76.193.234Z" transform="matrix(1, 0, 0, 1, 188, 78)" fill="#3f62ac"/>
    <path id="Base" d="M10,0H246a10,10,0,0,1,10,10V27a10,10,0,0,1-10,10H10A10,10,0,0,1,0,27V10A10,10,0,0,1,10,0Z" transform="translate(62.75 516.055)" fill="#3f62ac"/>
    <path id="Sign_In" data-name="Sign In" d="M-21.966.14c2.058,0,3.5-1.092,3.5-2.926v-.028c0-1.624-1.064-2.366-3.136-2.87-1.89-.448-2.338-.784-2.338-1.54v-.028c0-.644.588-1.162,1.6-1.162a4.076,4.076,0,0,1,2.254.742.833.833,0,0,0,.448.126.8.8,0,0,0,.812-.8.777.777,0,0,0-.378-.686,5.392,5.392,0,0,0-3.108-.91c-1.946,0-3.346,1.162-3.346,2.842v.028c0,1.806,1.176,2.422,3.262,2.926,1.82.42,2.212.8,2.212,1.5v.028c0,.728-.672,1.232-1.736,1.232a4.25,4.25,0,0,1-2.744-1.008.8.8,0,0,0-.5-.154.8.8,0,0,0-.812.8.808.808,0,0,0,.336.658A6.1,6.1,0,0,0-21.966.14ZM-16.66-9.3a.877.877,0,0,0,.966.84.877.877,0,0,0,.966-.84V-9.38a.867.867,0,0,0-.966-.826.867.867,0,0,0-.966.826Zm.126,8.526a.834.834,0,0,0,.84.84.837.837,0,0,0,.854-.84V-6.622a.848.848,0,0,0-.854-.854.837.837,0,0,0-.84.854Zm7.2,3.038A4.161,4.161,0,0,0-6.3,1.274a3.782,3.782,0,0,0,.938-2.786v-5.11a.848.848,0,0,0-.854-.854.842.842,0,0,0-.84.84v.35a3.19,3.19,0,0,0-2.59-1.26,3.334,3.334,0,0,0-3.36,3.472v.028A3.322,3.322,0,0,0-9.646-.588a3.1,3.1,0,0,0,2.6-1.358v.574A2.067,2.067,0,0,1-9.38.9,4.52,4.52,0,0,1-11.648.308a.667.667,0,0,0-.308-.07.714.714,0,0,0-.714.7.693.693,0,0,0,.476.672A6.386,6.386,0,0,0-9.338,2.268Zm.14-4.3a2.013,2.013,0,0,1-2.1-2.03v-.028a2,2,0,0,1,2.1-2.03,2.065,2.065,0,0,1,2.17,2.03v.028A2.065,2.065,0,0,1-9.2-2.03ZM-3.234-.77a.834.834,0,0,0,.84.84A.837.837,0,0,0-1.54-.77v-3.4A1.644,1.644,0,0,1,.126-6.006c1.008,0,1.582.658,1.582,1.806V-.77a.837.837,0,0,0,.854.84A.825.825,0,0,0,3.4-.77V-4.718A2.534,2.534,0,0,0,.77-7.546,2.679,2.679,0,0,0-1.54-6.258v-.364a.848.848,0,0,0-.854-.854.837.837,0,0,0-.84.854ZM16.212-6.622a.857.857,0,0,0-.854-.854.848.848,0,0,0-.854.854v3.4A1.633,1.633,0,0,1,12.838-1.4c-1.008,0-1.582-.644-1.582-1.792v-3.43a.848.848,0,0,0-.854-.854.846.846,0,0,0-.84.854v3.934A2.538,2.538,0,0,0,12.194.154a2.66,2.66,0,0,0,2.31-1.3V-.77a.845.845,0,0,0,.854.84.846.846,0,0,0,.854-.84ZM18.326,1.47a.847.847,0,0,0,1.694,0V-1.148a3.019,3.019,0,0,0,2.52,1.3,3.536,3.536,0,0,0,3.43-3.836V-3.71a3.536,3.536,0,0,0-3.43-3.836A2.959,2.959,0,0,0,20.02-6.16v-.462a.848.848,0,0,0-.854-.854.837.837,0,0,0-.84.854Zm3.808-2.786a2.229,2.229,0,0,1-2.156-2.366V-3.71a2.229,2.229,0,0,1,2.156-2.366A2.189,2.189,0,0,1,24.248-3.71v.028A2.165,2.165,0,0,1,22.134-1.316Z" transform="translate(190.75 539.055)" fill="#fff"/>
    <path id="Search" d="M1.08-.672A.73.73,0,0,0,1.824.06a.727.727,0,0,0,.732-.732V-3.42H6.18a.671.671,0,0,0,.672-.672.671.671,0,0,0-.672-.672H2.556V-7.056H6.72a.671.671,0,0,0,.672-.672A.671.671,0,0,0,6.72-8.4h-4.9a.733.733,0,0,0-.744.744Zm13.392-5a.735.735,0,0,0-.732-.732.727.727,0,0,0-.732.732V-2.76A1.4,1.4,0,0,1,11.58-1.2c-.864,0-1.356-.552-1.356-1.536v-2.94a.727.727,0,0,0-.732-.732.725.725,0,0,0-.72.732V-2.3A2.176,2.176,0,0,0,11.028.132a2.28,2.28,0,0,0,1.98-1.116V-.66a.725.725,0,0,0,.732.72.725.725,0,0,0,.732-.72ZM16.428-.66a.714.714,0,0,0,.72.72.717.717,0,0,0,.732-.72V-8.1a.725.725,0,0,0-.732-.72.714.714,0,0,0-.72.72Zm3.492,0a.714.714,0,0,0,.72.72.717.717,0,0,0,.732-.72V-8.1a.725.725,0,0,0-.732-.72.714.714,0,0,0-.72.72Zm7.236,0a.725.725,0,0,0,.732.72.722.722,0,0,0,.72-.72V-5.988L32.928-.4A.929.929,0,0,0,33.7.048h.06a.717.717,0,0,0,.72-.732V-7.74a.725.725,0,0,0-.732-.72.722.722,0,0,0-.72.72v5.16l-4.2-5.436a.929.929,0,0,0-.768-.432H27.9a.74.74,0,0,0-.744.744Zm11.2.792a2.575,2.575,0,0,0,2.064-.924v.24a.656.656,0,0,0,.708.612.692.692,0,0,0,.708-.7v-3.12a2.629,2.629,0,0,0-.684-1.956,2.839,2.839,0,0,0-2.1-.708,5.431,5.431,0,0,0-2.04.372.634.634,0,0,0-.4.576.6.6,0,0,0,.612.6.815.815,0,0,0,.228-.036,3.763,3.763,0,0,1,1.4-.252c1.02,0,1.572.48,1.572,1.38v.156a5.293,5.293,0,0,0-1.7-.264c-1.548,0-2.616.672-2.616,2.04v.024A2.024,2.024,0,0,0,38.352.132ZM38.76-.924c-.7,0-1.236-.348-1.236-.96v-.024c0-.66.552-1.056,1.488-1.056a4.025,4.025,0,0,1,1.44.252v.432C40.452-1.476,39.72-.924,38.76-.924Zm4.872.264a.714.714,0,0,0,.72.72.717.717,0,0,0,.732-.72V-3.576A1.384,1.384,0,0,1,46.44-5.148c.8,0,1.284.552,1.284,1.536V-.66a.717.717,0,0,0,.732.72.714.714,0,0,0,.72-.72V-3.576c0-1.02.564-1.572,1.356-1.572.816,0,1.284.54,1.284,1.548V-.66a.717.717,0,0,0,.732.72.707.707,0,0,0,.72-.72V-4.044a2.13,2.13,0,0,0-2.22-2.424,2.549,2.549,0,0,0-2.136,1.116,2.011,2.011,0,0,0-1.9-1.116,2.271,2.271,0,0,0-1.932,1.092v-.3a.727.727,0,0,0-.732-.732.717.717,0,0,0-.72.732ZM56.184-3.612A1.715,1.715,0,0,1,57.828-5.28a1.645,1.645,0,0,1,1.608,1.668ZM60.276-.7a.634.634,0,0,0,.192-.444.571.571,0,0,0-.576-.588.541.541,0,0,0-.372.132,2.277,2.277,0,0,1-1.5.552A1.769,1.769,0,0,1,56.2-2.652h3.972a.679.679,0,0,0,.684-.7,3,3,0,0,0-3.012-3.12,3.145,3.145,0,0,0-3.1,3.3v.024A3.161,3.161,0,0,0,58,.144,3.253,3.253,0,0,0,60.276-.7Z" transform="translate(82.75 195)" fill="#97a7c3"/>
    <path id="Search-2" data-name="Search" d="M1.824,0H6.768a.658.658,0,0,0,.66-.66.666.666,0,0,0-.66-.66H2.556V-3.576H6.168a.656.656,0,0,0,.66-.648.668.668,0,0,0-.66-.672H2.556V-7.08H6.708a.658.658,0,0,0,.66-.66.666.666,0,0,0-.66-.66H1.824a.733.733,0,0,0-.744.744V-.744A.733.733,0,0,0,1.824,0Zm7.6-2.964h2.256a.717.717,0,0,0,.708-.708.72.72,0,0,0-.708-.72H9.42a.72.72,0,0,0-.708.72A.717.717,0,0,0,9.42-2.964Zm4.716,2.3a.707.707,0,0,0,.72.72.717.717,0,0,0,.732-.72V-5.688l2.04,3.06a.716.716,0,0,0,.612.384.719.719,0,0,0,.624-.384l2.052-3.084v5.04a.743.743,0,0,0,.732.732.73.73,0,0,0,.744-.732V-7.7a.74.74,0,0,0-.744-.744h-.156a.742.742,0,0,0-.672.384l-2.556,4L15.72-8.052a.777.777,0,0,0-.684-.4H14.88a.74.74,0,0,0-.744.744ZM26.268.132a2.575,2.575,0,0,0,2.064-.924v.24A.656.656,0,0,0,29.04.06a.692.692,0,0,0,.708-.7v-3.12a2.629,2.629,0,0,0-.684-1.956,2.839,2.839,0,0,0-2.1-.708,5.431,5.431,0,0,0-2.04.372.634.634,0,0,0-.4.576.6.6,0,0,0,.612.6.815.815,0,0,0,.228-.036,3.763,3.763,0,0,1,1.4-.252c1.02,0,1.572.48,1.572,1.38v.156a5.293,5.293,0,0,0-1.7-.264c-1.548,0-2.616.672-2.616,2.04v.024A2.024,2.024,0,0,0,26.268.132Zm.408-1.056c-.7,0-1.236-.348-1.236-.96v-.024c0-.66.552-1.056,1.488-1.056a4.025,4.025,0,0,1,1.44.252v.432C28.368-1.476,27.636-.924,26.676-.924Zm4.848-7.044a.752.752,0,0,0,.828.72.752.752,0,0,0,.828-.72V-8.04a.743.743,0,0,0-.828-.708.743.743,0,0,0-.828.708ZM31.632-.66a.714.714,0,0,0,.72.72.717.717,0,0,0,.732-.72V-5.676a.727.727,0,0,0-.732-.732.717.717,0,0,0-.72.732Zm3.492,0a.714.714,0,0,0,.72.72.717.717,0,0,0,.732-.72V-8.1a.725.725,0,0,0-.732-.72.714.714,0,0,0-.72.72Z" transform="translate(82.75 254)" fill="#97a7c3"/>
    <path id="Search-3" data-name="Search" d="M1.08-.672A.73.73,0,0,0,1.824.06a.727.727,0,0,0,.732-.732V-2.7H4.224c1.848,0,3.36-.984,3.36-2.868v-.024C7.584-7.284,6.36-8.4,4.392-8.4H1.824a.733.733,0,0,0-.744.744Zm1.476-3.36V-7.056H4.272c1.1,0,1.812.516,1.812,1.5v.024c0,.876-.7,1.5-1.812,1.5ZM10.692.132a2.575,2.575,0,0,0,2.064-.924v.24a.656.656,0,0,0,.708.612.692.692,0,0,0,.708-.7v-3.12a2.629,2.629,0,0,0-.684-1.956,2.839,2.839,0,0,0-2.1-.708,5.431,5.431,0,0,0-2.04.372.634.634,0,0,0-.4.576.6.6,0,0,0,.612.6.815.815,0,0,0,.228-.036,3.763,3.763,0,0,1,1.4-.252c1.02,0,1.572.48,1.572,1.38v.156a5.293,5.293,0,0,0-1.7-.264c-1.548,0-2.616.672-2.616,2.04v.024A2.024,2.024,0,0,0,10.692.132ZM11.1-.924c-.7,0-1.236-.348-1.236-.96v-.024c0-.66.552-1.056,1.488-1.056a4.025,4.025,0,0,1,1.44.252v.432C12.792-1.476,12.06-.924,11.1-.924ZM18.144.12c1.32,0,2.352-.66,2.352-1.992V-1.9c0-1.14-1.044-1.56-1.968-1.848-.744-.24-1.428-.432-1.428-.9v-.024c0-.36.324-.624.888-.624a3.456,3.456,0,0,1,1.488.432.57.57,0,0,0,.288.072.584.584,0,0,0,.6-.588.616.616,0,0,0-.348-.552,4.355,4.355,0,0,0-1.992-.516,2.021,2.021,0,0,0-2.256,1.932v.024c0,1.212,1.044,1.6,1.98,1.86.744.228,1.416.4,1.416.888v.024c0,.42-.36.684-.984.684a3.345,3.345,0,0,1-1.824-.612.634.634,0,0,0-.312-.084.581.581,0,0,0-.588.588.557.557,0,0,0,.276.5A4.33,4.33,0,0,0,18.144.12ZM24.1.12c1.32,0,2.352-.66,2.352-1.992V-1.9c0-1.14-1.044-1.56-1.968-1.848-.744-.24-1.428-.432-1.428-.9v-.024c0-.36.324-.624.888-.624a3.456,3.456,0,0,1,1.488.432.57.57,0,0,0,.288.072.584.584,0,0,0,.6-.588.616.616,0,0,0-.348-.552,4.355,4.355,0,0,0-1.992-.516A2.021,2.021,0,0,0,21.72-4.512v.024c0,1.212,1.044,1.6,1.98,1.86.744.228,1.416.4,1.416.888v.024c0,.42-.36.684-.984.684a3.345,3.345,0,0,1-1.824-.612A.634.634,0,0,0,22-1.728a.581.581,0,0,0-.588.588.557.557,0,0,0,.276.5A4.33,4.33,0,0,0,24.1.12ZM30.024.108h.048a.8.8,0,0,0,.78-.624L32.1-4.284,33.336-.516a.806.806,0,0,0,.792.624h.048a.845.845,0,0,0,.8-.648l1.728-4.872a1.2,1.2,0,0,0,.06-.324.674.674,0,0,0-.684-.672.724.724,0,0,0-.708.564L34.14-1.992l-1.248-3.84a.771.771,0,0,0-.744-.576h-.084a.771.771,0,0,0-.744.576l-1.236,3.84L28.86-5.832a.74.74,0,0,0-.708-.576.679.679,0,0,0-.708.672,1.205,1.205,0,0,0,.072.372L29.22-.54A.825.825,0,0,0,30.024.108Zm11,.036a3.313,3.313,0,0,0,3.4-3.3V-3.18a3.282,3.282,0,0,0-3.372-3.288,3.312,3.312,0,0,0-3.384,3.312v.024A3.277,3.277,0,0,0,41.028.144Zm.024-1.272A1.953,1.953,0,0,1,39.12-3.156V-3.18A1.9,1.9,0,0,1,41.028-5.2a1.958,1.958,0,0,1,1.944,2.04v.024A1.9,1.9,0,0,1,41.052-1.128ZM45.96-.66a.714.714,0,0,0,.72.72.725.725,0,0,0,.732-.72V-2.532c0-1.5.708-2.292,1.74-2.472a.681.681,0,0,0,.576-.7.674.674,0,0,0-.72-.72,2.014,2.014,0,0,0-1.6,1.392v-.648a.727.727,0,0,0-.732-.732.717.717,0,0,0-.72.732ZM57.024-8.1a.717.717,0,0,0-.732-.72.714.714,0,0,0-.72.72v2.748a2.592,2.592,0,0,0-2.16-1.116,3.024,3.024,0,0,0-2.94,3.288v.024A3.038,3.038,0,0,0,53.412.132a2.536,2.536,0,0,0,2.16-1.188v.4A.717.717,0,0,0,56.3.06a.714.714,0,0,0,.72-.72ZM53.76-5.208A1.9,1.9,0,0,1,55.6-3.18v.024A1.909,1.909,0,0,1,53.76-1.128a1.885,1.885,0,0,1-1.824-2.028V-3.18A1.857,1.857,0,0,1,53.76-5.208Z" transform="translate(82.75 372)" fill="#97a7c3"/>
    <path id="Search-4" data-name="Search" d="M1.08-.672A.73.73,0,0,0,1.824.06a.727.727,0,0,0,.732-.732V-2.928h1.86l2.04,2.6a.844.844,0,0,0,.72.384.7.7,0,0,0,.708-.684.856.856,0,0,0-.24-.564L6.036-3.216A2.486,2.486,0,0,0,7.944-5.724v-.024a2.539,2.539,0,0,0-.7-1.812A3.384,3.384,0,0,0,4.824-8.4h-3a.733.733,0,0,0-.744.744ZM2.556-4.236v-2.82H4.7c1.092,0,1.74.492,1.74,1.392v.024c0,.852-.672,1.4-1.728,1.4Zm8.064.624A1.715,1.715,0,0,1,12.264-5.28a1.645,1.645,0,0,1,1.608,1.668ZM14.712-.7A.634.634,0,0,0,14.9-1.14a.571.571,0,0,0-.576-.588.541.541,0,0,0-.372.132,2.277,2.277,0,0,1-1.5.552,1.769,1.769,0,0,1-1.824-1.608H14.6a.679.679,0,0,0,.684-.7,3,3,0,0,0-3.012-3.12,3.145,3.145,0,0,0-3.1,3.3v.024A3.161,3.161,0,0,0,12.432.144,3.253,3.253,0,0,0,14.712-.7ZM16.836,1.26a.726.726,0,0,0,1.452,0V-.984A2.588,2.588,0,0,0,20.448.132a3.031,3.031,0,0,0,2.94-3.288V-3.18a3.031,3.031,0,0,0-2.94-3.288,2.536,2.536,0,0,0-2.16,1.188v-.4a.727.727,0,0,0-.732-.732.717.717,0,0,0-.72.732ZM20.1-1.128a1.91,1.91,0,0,1-1.848-2.028V-3.18A1.91,1.91,0,0,1,20.1-5.208,1.876,1.876,0,0,1,21.912-3.18v.024A1.855,1.855,0,0,1,20.1-1.128Zm5.94-2.484A1.715,1.715,0,0,1,27.684-5.28a1.645,1.645,0,0,1,1.608,1.668ZM30.132-.7a.634.634,0,0,0,.192-.444.571.571,0,0,0-.576-.588.541.541,0,0,0-.372.132,2.277,2.277,0,0,1-1.5.552,1.769,1.769,0,0,1-1.824-1.608h3.972a.679.679,0,0,0,.684-.7A3,3,0,0,0,27.7-6.468a3.145,3.145,0,0,0-3.1,3.3v.024A3.161,3.161,0,0,0,27.852.144,3.253,3.253,0,0,0,30.132-.7ZM34.08.132a2.575,2.575,0,0,0,2.064-.924v.24a.656.656,0,0,0,.708.612.692.692,0,0,0,.708-.7v-3.12a2.629,2.629,0,0,0-.684-1.956,2.839,2.839,0,0,0-2.1-.708,5.431,5.431,0,0,0-2.04.372.634.634,0,0,0-.4.576.6.6,0,0,0,.612.6.815.815,0,0,0,.228-.036,3.763,3.763,0,0,1,1.4-.252c1.02,0,1.572.48,1.572,1.38v.156a5.293,5.293,0,0,0-1.7-.264c-1.548,0-2.616.672-2.616,2.04v.024A2.024,2.024,0,0,0,34.08.132Zm.408-1.056c-.7,0-1.236-.348-1.236-.96v-.024c0-.66.552-1.056,1.488-1.056a4.025,4.025,0,0,1,1.44.252v.432C36.18-1.476,35.448-.924,34.488-.924ZM41.424.108a2.888,2.888,0,0,0,1-.168A.625.625,0,0,0,42.8-.624a.612.612,0,0,0-.612-.6,3.433,3.433,0,0,1-.36.036.691.691,0,0,1-.78-.792V-5.088h1.14a.63.63,0,0,0,.636-.624.63.63,0,0,0-.636-.624h-1.14v-1.08a.722.722,0,0,0-.72-.72.725.725,0,0,0-.732.72v1.08h-.24a.62.62,0,0,0-.624.624.62.62,0,0,0,.624.624h.24v3.336A1.624,1.624,0,0,0,41.424.108Zm6.7-.78a.73.73,0,0,0,.744.732A.727.727,0,0,0,49.6-.672V-2.7h1.668c1.848,0,3.36-.984,3.36-2.868v-.024c0-1.692-1.224-2.808-3.192-2.808H48.864a.733.733,0,0,0-.744.744ZM49.6-4.032V-7.056h1.716c1.1,0,1.812.516,1.812,1.5v.024c0,.876-.7,1.5-1.812,1.5ZM57.732.132A2.575,2.575,0,0,0,59.8-.792v.24A.656.656,0,0,0,60.5.06a.692.692,0,0,0,.708-.7v-3.12a2.629,2.629,0,0,0-.684-1.956,2.839,2.839,0,0,0-2.1-.708,5.431,5.431,0,0,0-2.04.372.634.634,0,0,0-.4.576.6.6,0,0,0,.612.6.815.815,0,0,0,.228-.036,3.763,3.763,0,0,1,1.4-.252c1.02,0,1.572.48,1.572,1.38v.156a5.293,5.293,0,0,0-1.7-.264c-1.548,0-2.616.672-2.616,2.04v.024A2.024,2.024,0,0,0,57.732.132ZM58.14-.924c-.7,0-1.236-.348-1.236-.96v-.024c0-.66.552-1.056,1.488-1.056a4.025,4.025,0,0,1,1.44.252v.432C59.832-1.476,59.1-.924,58.14-.924ZM65.184.12c1.32,0,2.352-.66,2.352-1.992V-1.9c0-1.14-1.044-1.56-1.968-1.848-.744-.24-1.428-.432-1.428-.9v-.024c0-.36.324-.624.888-.624a3.456,3.456,0,0,1,1.488.432.57.57,0,0,0,.288.072.584.584,0,0,0,.6-.588.616.616,0,0,0-.348-.552,4.355,4.355,0,0,0-1.992-.516,2.021,2.021,0,0,0-2.256,1.932v.024c0,1.212,1.044,1.6,1.98,1.86.744.228,1.416.4,1.416.888v.024c0,.42-.36.684-.984.684A3.345,3.345,0,0,1,63.4-1.644a.634.634,0,0,0-.312-.084.581.581,0,0,0-.588.588.557.557,0,0,0,.276.5A4.33,4.33,0,0,0,65.184.12Zm5.952,0c1.32,0,2.352-.66,2.352-1.992V-1.9c0-1.14-1.044-1.56-1.968-1.848-.744-.24-1.428-.432-1.428-.9v-.024c0-.36.324-.624.888-.624a3.456,3.456,0,0,1,1.488.432.57.57,0,0,0,.288.072.584.584,0,0,0,.6-.588.616.616,0,0,0-.348-.552,4.355,4.355,0,0,0-1.992-.516A2.021,2.021,0,0,0,68.76-4.512v.024c0,1.212,1.044,1.6,1.98,1.86.744.228,1.416.4,1.416.888v.024c0,.42-.36.684-.984.684a3.345,3.345,0,0,1-1.824-.612.634.634,0,0,0-.312-.084.581.581,0,0,0-.588.588.557.557,0,0,0,.276.5A4.33,4.33,0,0,0,71.136.12ZM77.064.108h.048a.8.8,0,0,0,.78-.624L79.14-4.284,80.376-.516a.806.806,0,0,0,.792.624h.048a.845.845,0,0,0,.8-.648l1.728-4.872a1.2,1.2,0,0,0,.06-.324.674.674,0,0,0-.684-.672.724.724,0,0,0-.708.564L81.18-1.992l-1.248-3.84a.771.771,0,0,0-.744-.576H79.1a.771.771,0,0,0-.744.576l-1.236,3.84L75.9-5.832a.74.74,0,0,0-.708-.576.679.679,0,0,0-.708.672,1.205,1.205,0,0,0,.072.372L76.26-.54A.825.825,0,0,0,77.064.108Zm11,.036a3.313,3.313,0,0,0,3.4-3.3V-3.18a3.282,3.282,0,0,0-3.372-3.288,3.312,3.312,0,0,0-3.384,3.312v.024A3.277,3.277,0,0,0,88.068.144Zm.024-1.272A1.953,1.953,0,0,1,86.16-3.156V-3.18A1.9,1.9,0,0,1,88.068-5.2a1.958,1.958,0,0,1,1.944,2.04v.024A1.9,1.9,0,0,1,88.092-1.128ZM93-.66a.714.714,0,0,0,.72.72.725.725,0,0,0,.732-.72V-2.532c0-1.5.708-2.292,1.74-2.472a.681.681,0,0,0,.576-.7.674.674,0,0,0-.72-.72,2.014,2.014,0,0,0-1.6,1.392v-.648a.727.727,0,0,0-.732-.732.717.717,0,0,0-.72.732ZM104.064-8.1a.717.717,0,0,0-.732-.72.714.714,0,0,0-.72.72v2.748a2.592,2.592,0,0,0-2.16-1.116,3.024,3.024,0,0,0-2.94,3.288v.024a3.038,3.038,0,0,0,2.94,3.288,2.536,2.536,0,0,0,2.16-1.188v.4a.717.717,0,0,0,.732.72.714.714,0,0,0,.72-.72ZM100.8-5.208a1.9,1.9,0,0,1,1.836,2.028v.024A1.909,1.909,0,0,1,100.8-1.128a1.885,1.885,0,0,1-1.824-2.028V-3.18A1.857,1.857,0,0,1,100.8-5.208Z" transform="translate(82.75 431)" fill="#97a7c3"/>
    <path id="Search-5" data-name="Search" transform="translate(54.75 317)" fill="#97a7c3"/>
    <path id="Path_4452" data-name="Path 4452" d="M91.22,8.378a4.053,4.053,0,0,0,2.962-1.227A4.053,4.053,0,0,0,95.41,4.189a4.054,4.054,0,0,0-1.227-2.962,4.188,4.188,0,0,0-5.924,0,4.053,4.053,0,0,0-1.227,2.962,4.053,4.053,0,0,0,1.227,2.962A4.054,4.054,0,0,0,91.22,8.378Zm0,0" transform="translate(-27.678 181.303)" fill="#3f62ac"/>
    <path id="Path_4453" data-name="Path 4453" d="M14.476,252.289a10.347,10.347,0,0,0-.141-1.1,8.658,8.658,0,0,0-.27-1.1,5.458,5.458,0,0,0-.454-1.031,3.889,3.889,0,0,0-.685-.893,3.02,3.02,0,0,0-.984-.618,3.4,3.4,0,0,0-1.256-.227,1.275,1.275,0,0,0-.681.289c-.2.133-.443.287-.709.457a4.065,4.065,0,0,1-.918.4,3.564,3.564,0,0,1-2.245,0,4.054,4.054,0,0,1-.917-.4c-.264-.169-.5-.323-.71-.458a1.273,1.273,0,0,0-.681-.289,3.4,3.4,0,0,0-1.256.228,3.017,3.017,0,0,0-.984.618,3.889,3.889,0,0,0-.685.893,5.468,5.468,0,0,0-.454,1.031,8.679,8.679,0,0,0-.27,1.1,10.31,10.31,0,0,0-.141,1.1c-.023.333-.035.678-.035,1.027A2.888,2.888,0,0,0,.858,255.5a3.088,3.088,0,0,0,2.21.806h8.375a3.087,3.087,0,0,0,2.21-.806,2.887,2.887,0,0,0,.858-2.185C14.511,252.966,14.5,252.62,14.476,252.289Zm0,0" transform="translate(56.398 -57.612)" fill="#3f62ac"/>
    <path id="padlock" d="M14.556,6.6h-.55V4.4a4.4,4.4,0,1,0-8.8,0V6.6h-.55A1.653,1.653,0,0,0,3,8.254v7.7a1.653,1.653,0,0,0,1.651,1.651h9.905a1.653,1.653,0,0,0,1.651-1.651v-7.7A1.653,1.653,0,0,0,14.556,6.6ZM6.669,4.4a2.935,2.935,0,1,1,5.87,0V6.6H6.669Zm3.669,7.867v1.671a.734.734,0,1,1-1.467,0V12.269a1.467,1.467,0,1,1,1.467,0Z" transform="translate(54.05 358.195)" fill="#3f62ac"/>
    <path id="padlock-2" data-name="padlock" d="M14.556,6.6h-.55V4.4a4.4,4.4,0,1,0-8.8,0V6.6h-.55A1.653,1.653,0,0,0,3,8.254v7.7a1.653,1.653,0,0,0,1.651,1.651h9.905a1.653,1.653,0,0,0,1.651-1.651v-7.7A1.653,1.653,0,0,0,14.556,6.6ZM6.669,4.4a2.935,2.935,0,1,1,5.87,0V6.6H6.669Zm3.669,7.867v1.671a.734.734,0,1,1-1.467,0V12.269a1.467,1.467,0,1,1,1.467,0Z" transform="translate(54.05 417.195)" fill="#3f62ac"/>
    <g id="Path_4880" data-name="Path 4880" transform="translate(47.75 170)" fill="none">
      <path d="M5,0H280a5,5,0,0,1,5,5V35a5,5,0,0,1-5,5H5a5,5,0,0,1-5-5V5A5,5,0,0,1,5,0Z" stroke="none"/>
      <path d="M 5 1 C 2.794403076171875 1 1 2.794391632080078 1 5 L 1 35 C 1 37.20560836791992 2.794403076171875 39 5 39 L 280 39 C 282.2055969238281 39 284 37.20560836791992 284 35 L 284 5 C 284 2.794391632080078 282.2055969238281 1 280 1 L 5 1 M 5 0 L 280 0 C 282.7613830566406 0 285 2.238571166992188 285 5 L 285 35 C 285 37.76142883300781 282.7613830566406 40 280 40 L 5 40 C 2.23858642578125 40 0 37.76142883300781 0 35 L 0 5 C 0 2.238571166992188 2.23858642578125 0 5 0 Z" stroke="none" fill="#056dbc"/>
    </g>
    <g id="Path_4882" data-name="Path 4882" transform="translate(47.75 288)" fill="none">
      <path d="M5,0H280a5,5,0,0,1,5,5V35a5,5,0,0,1-5,5H5a5,5,0,0,1-5-5V5A5,5,0,0,1,5,0Z" stroke="none"/>
      <path d="M 5 1 C 2.794403076171875 1 1 2.794391632080078 1 5 L 1 35 C 1 37.20560836791992 2.794403076171875 39 5 39 L 280 39 C 282.2055969238281 39 284 37.20560836791992 284 35 L 284 5 C 284 2.794391632080078 282.2055969238281 1 280 1 L 5 1 M 5 0 L 280 0 C 282.7613830566406 0 285 2.238571166992188 285 5 L 285 35 C 285 37.76142883300781 282.7613830566406 40 280 40 L 5 40 C 2.23858642578125 40 0 37.76142883300781 0 35 L 0 5 C 0 2.238571166992188 2.23858642578125 0 5 0 Z" stroke="none" fill="#056dbc"/>
    </g>
    <g id="Path_4881" data-name="Path 4881" transform="translate(47.75 229)" fill="none">
      <path d="M5,0H280a5,5,0,0,1,5,5V35a5,5,0,0,1-5,5H5a5,5,0,0,1-5-5V5A5,5,0,0,1,5,0Z" stroke="none"/>
      <path d="M 5 1 C 2.794403076171875 1 1 2.794391632080078 1 5 L 1 35 C 1 37.20560836791992 2.794403076171875 39 5 39 L 280 39 C 282.2055969238281 39 284 37.20560836791992 284 35 L 284 5 C 284 2.794391632080078 282.2055969238281 1 280 1 L 5 1 M 5 0 L 280 0 C 282.7613830566406 0 285 2.238571166992188 285 5 L 285 35 C 285 37.76142883300781 282.7613830566406 40 280 40 L 5 40 C 2.23858642578125 40 0 37.76142883300781 0 35 L 0 5 C 0 2.238571166992188 2.23858642578125 0 5 0 Z" stroke="none" fill="#056dbc"/>
    </g>
    <g id="Path_4883" data-name="Path 4883" transform="translate(47.75 347)" fill="none">
      <path d="M5,0H280a5,5,0,0,1,5,5V35a5,5,0,0,1-5,5H5a5,5,0,0,1-5-5V5A5,5,0,0,1,5,0Z" stroke="none"/>
      <path d="M 5 1 C 2.794403076171875 1 1 2.794391632080078 1 5 L 1 35 C 1 37.20560836791992 2.794403076171875 39 5 39 L 280 39 C 282.2055969238281 39 284 37.20560836791992 284 35 L 284 5 C 284 2.794391632080078 282.2055969238281 1 280 1 L 5 1 M 5 0 L 280 0 C 282.7613830566406 0 285 2.238571166992188 285 5 L 285 35 C 285 37.76142883300781 282.7613830566406 40 280 40 L 5 40 C 2.23858642578125 40 0 37.76142883300781 0 35 L 0 5 C 0 2.238571166992188 2.23858642578125 0 5 0 Z" stroke="none" fill="#056dbc"/>
    </g>
    <g id="Path_4884" data-name="Path 4884" transform="translate(47.75 406)" fill="none">
      <path d="M5,0H280a5,5,0,0,1,5,5V35a5,5,0,0,1-5,5H5a5,5,0,0,1-5-5V5A5,5,0,0,1,5,0Z" stroke="none"/>
      <path d="M 5 1 C 2.794403076171875 1 1 2.794391632080078 1 5 L 1 35 C 1 37.20560836791992 2.794403076171875 39 5 39 L 280 39 C 282.2055969238281 39 284 37.20560836791992 284 35 L 284 5 C 284 2.794391632080078 282.2055969238281 1 280 1 L 5 1 M 5 0 L 280 0 C 282.7613830566406 0 285 2.238571166992188 285 5 L 285 35 C 285 37.76142883300781 282.7613830566406 40 280 40 L 5 40 C 2.23858642578125 40 0 37.76142883300781 0 35 L 0 5 C 0 2.238571166992188 2.23858642578125 0 5 0 Z" stroke="none" fill="#056dbc"/>
    </g>
    <path id="Oval" d="M12.731,0A12.731,12.731,0,1,1,0,12.731,12.731,12.731,0,0,1,12.731,0Z" transform="translate(116.75 607.4)" fill="#1977f3"/>
    <path id="Path" d="M10.178,11.44l.564-3.681H7.211V5.371A1.841,1.841,0,0,1,9.286,3.382h1.606V.249A19.571,19.571,0,0,0,8.042,0C5.135,0,3.233,1.762,3.233,4.954V7.759H0V11.44H3.233v8.9a12.781,12.781,0,0,0,1.989.154,13,13,0,0,0,1.989-.154v-8.9Z" transform="translate(124.259 612.372)" fill="#fff"/>
    <path id="Path-2" data-name="Path" d="M12.479,2.587A14.678,14.678,0,0,0,12.255,0H0V4.9H7.018a5.887,5.887,0,0,1-2.6,3.869v3.181H8.607A12.309,12.309,0,0,0,12.479,2.587Z" transform="translate(190.508 617.838)" fill="#4285f4"/>
    <path id="Path-3" data-name="Path" d="M11.61,10.291a12.587,12.587,0,0,0,8.612-3.073L16.036,4.037a7.891,7.891,0,0,1-4.421,1.216A7.762,7.762,0,0,1,4.32,0H0V3.279A13.025,13.025,0,0,0,11.61,10.291Z" transform="translate(178.898 622.571)" fill="#34a853"/>
    <path id="Path-4" data-name="Path" d="M5.7,8.153a7.48,7.48,0,0,1,0-4.874V0H1.382a12.512,12.512,0,0,0,0,11.433L5.7,8.153Z" transform="translate(177.514 614.419)" fill="#fbbc04"/>
    <path id="Path-5" data-name="Path" d="M11.61,5.039a7.14,7.14,0,0,1,4.984,1.909L20.3,3.313A12.63,12.63,0,0,0,11.61,0,13.021,13.021,0,0,0,0,7.018L4.316,10.3A7.755,7.755,0,0,1,11.61,5.039Z" transform="translate(178.898 607.4)" fill="#ea4335"/>
    <path id="Path_4455" data-name="Path 4455" d="M0,0H57.5" transform="translate(42.25 129)" fill="none" stroke="#b7b7b7" stroke-width="1"/>
    <path id="Path_4885" data-name="Path 4885" d="M0,0H46" transform="translate(281.25 129)" fill="none" stroke="#b7b7b7" stroke-width="1"/>
    <path id="Path_4456" data-name="Path 4456" d="M16.37,0h.184a5.538,5.538,0,0,1-1.395,4.173A4.323,4.323,0,0,1,11.354,5.96a5.372,5.372,0,0,1,1.42-4.044A6.131,6.131,0,0,1,16.37,0Z" transform="translate(244.498 607)"/>
    <path id="Path_4457" data-name="Path 4457" d="M23.188,18.238v.051a15.047,15.047,0,0,1-2.153,4.151c-.821,1.13-1.827,2.651-3.624,2.651-1.552,0-2.584-1-4.175-1.025-1.683-.027-2.609.835-4.147,1.052H8.565a4.686,4.686,0,0,1-2.706-1.865,16.337,16.337,0,0,1-3.754-9.4V12.7A7.579,7.579,0,0,1,5.413,6.476a5.589,5.589,0,0,1,3.752-.869A9.439,9.439,0,0,1,11,6.134a5.077,5.077,0,0,0,1.837.551A4.411,4.411,0,0,0,14.13,6.29a7.931,7.931,0,0,1,4.147-.736,5.754,5.754,0,0,1,4.228,2.521,5.426,5.426,0,0,0-2.756,5.383A5.557,5.557,0,0,0,23.188,18.238Z" transform="translate(243.246 607.745)"/>
    <path id="Path_4458" data-name="Path 4458" d="M10.067,176.2a2.595,2.595,0,0,1-2.883,0L.115,171.483Q.056,171.444,0,171.4v7.722a1.587,1.587,0,0,0,1.588,1.588H15.662a1.587,1.587,0,0,0,1.588-1.588V171.4c-.037.028-.076.055-.115.082Z" transform="translate(55.029 74.748)" fill="#3f62ac"/>
    <path id="Path_4459" data-name="Path 4459" d="M.676,67.116l7.069,4.713a1.584,1.584,0,0,0,1.762,0l7.069-4.713a1.513,1.513,0,0,0,.676-1.263,1.589,1.589,0,0,0-1.587-1.587H1.587A1.589,1.589,0,0,0,0,65.854a1.513,1.513,0,0,0,.676,1.262Z" transform="translate(55.029 178.274)" fill="#3f62ac"/>
    <path id="elon_gated.com" data-name="elon@gated.com" d="M3.38,7.946a.733.733,0,0,0,.741.741.741.741,0,0,0,.741-.741V6.139H6.708a.713.713,0,0,0,.715-.715.721.721,0,0,0-.715-.715H4.862V2.9a.741.741,0,0,0-.741-.741A.733.733,0,0,0,3.38,2.9V4.709H1.534a.721.721,0,0,0-.715.715.713.713,0,0,0,.715.715H3.38Zm5.486,1.3A.768.768,0,0,0,9.724,10h5.161a.7.7,0,0,0,0-1.4H11.193l1.872-1.56c1.612-1.313,2.366-2.093,2.366-3.523V3.487a2.725,2.725,0,0,0-3-2.717A3.521,3.521,0,0,0,9.412,2.239a.8.8,0,0,0-.182.494.737.737,0,0,0,1.287.481A2.225,2.225,0,0,1,12.311,2.2,1.365,1.365,0,0,1,13.78,3.617c0,.819-.455,1.4-1.7,2.457L9.282,8.453A.993.993,0,0,0,8.866,9.246Zm11.479.91a3.06,3.06,0,0,0,3.328-3.081V7.049c0-1.924-1.391-2.86-3.172-2.86a3.869,3.869,0,0,0-1.443.26L19.2,2.317H22.62a.71.71,0,0,0,.715-.7A.721.721,0,0,0,22.62.9H18.5a.732.732,0,0,0-.728.715l-.195,3.276a.758.758,0,0,0,.312.7,1.25,1.25,0,0,0,.754.312,6.2,6.2,0,0,1,1.56-.312c1.1,0,1.885.572,1.885,1.508v.026A1.593,1.593,0,0,1,20.319,8.7a3.054,3.054,0,0,1-1.976-.767.7.7,0,0,0-.468-.156.777.777,0,0,0-.767.767.788.788,0,0,0,.325.624A4.611,4.611,0,0,0,20.345,10.156Zm9.516-.845a.767.767,0,0,0,1.534,0V7.959h.7a.647.647,0,0,0,.663-.65.658.658,0,0,0-.663-.663h-.7V1.537a.771.771,0,0,0-.78-.767,1.132,1.132,0,0,0-.975.52L25.363,6.36a1.249,1.249,0,0,0-.351.845.752.752,0,0,0,.78.754h4.069Zm-2.99-2.665,2.99-3.6v3.6Z" transform="translate(111.75 302)" fill="#1e2022"/>
    <path id="Path_4069" data-name="Path 4069" d="M4.422,5.508.252,9.678a.748.748,0,0,0,.079,1.18.826.826,0,0,0,1.062-.079L6.075,6.058a.748.748,0,0,0,0-1.1L1.393.236A.826.826,0,0,0,.331.157a.748.748,0,0,0-.079,1.18Z" transform="translate(98.25 306.417) rotate(90)" fill="#3f62ac"/>
    <path id="Path_4886" data-name="Path 4886" d="M0,0V27" transform="translate(104.25 294.5)" fill="none" stroke="#056dbc" stroke-width="1"/>
    <path id="Don_t_have_a_Cuboid" data-name="Don’t have a Cuboid" d="M1.272-.42A.479.479,0,0,0,1.74.06a.481.481,0,0,0,.48-.48V-7.98a.481.481,0,0,0-.48-.48.479.479,0,0,0-.468.48Zm8.7.552A2.719,2.719,0,0,0,12.216-.936v.564A.426.426,0,0,0,12.66.06.439.439,0,0,0,13.1-.4v-3.4A2.449,2.449,0,0,0,12.468-5.6a2.722,2.722,0,0,0-2-.684,4.892,4.892,0,0,0-2.028.42.423.423,0,0,0-.252.384.41.41,0,0,0,.408.4.471.471,0,0,0,.168-.036,3.873,3.873,0,0,1,1.608-.348c1.164,0,1.848.576,1.848,1.692v.216a6.587,6.587,0,0,0-1.908-.264c-1.572,0-2.652.7-2.652,2V-1.8A2.089,2.089,0,0,0,9.972.132Zm.18-.732c-.84,0-1.56-.456-1.56-1.236V-1.86c0-.78.648-1.284,1.812-1.284a6.472,6.472,0,0,1,1.824.264v.6A1.876,1.876,0,0,1,10.152-.6Zm7.716.744a3.122,3.122,0,0,0,2.34-1,.419.419,0,0,0,.12-.288.433.433,0,0,0-.42-.42.366.366,0,0,0-.264.12,2.479,2.479,0,0,1-1.728.756A2.318,2.318,0,0,1,15.636-3.1V-3.12a2.289,2.289,0,0,1,2.22-2.4,2.393,2.393,0,0,1,1.692.744.478.478,0,0,0,.3.108.443.443,0,0,0,.444-.444.434.434,0,0,0-.144-.324,3.208,3.208,0,0,0-2.28-.9,3.2,3.2,0,0,0-3.18,3.24v.024A3.185,3.185,0,0,0,17.868.144Zm6.672,0a3.122,3.122,0,0,0,2.34-1A.419.419,0,0,0,27-1.14a.433.433,0,0,0-.42-.42.366.366,0,0,0-.264.12,2.479,2.479,0,0,1-1.728.756A2.318,2.318,0,0,1,22.308-3.1V-3.12a2.289,2.289,0,0,1,2.22-2.4,2.393,2.393,0,0,1,1.692.744.478.478,0,0,0,.3.108.443.443,0,0,0,.444-.444.434.434,0,0,0-.144-.324,3.208,3.208,0,0,0-2.28-.9A3.2,3.2,0,0,0,21.36-3.1v.024A3.185,3.185,0,0,0,24.54.144Zm4.428-3.588a2.139,2.139,0,0,1,2.016-2.112,2.043,2.043,0,0,1,1.98,2.112Zm4.5,2.652a.4.4,0,0,0,.144-.3.4.4,0,0,0-.408-.4.4.4,0,0,0-.264.108,2.536,2.536,0,0,1-1.788.72,2.167,2.167,0,0,1-2.184-2.1h4.488a.43.43,0,0,0,.432-.432,2.921,2.921,0,0,0-2.88-3.144,3.06,3.06,0,0,0-2.976,3.228v.024a3.084,3.084,0,0,0,3.1,3.228A3.154,3.154,0,0,0,33.468-.792Zm2.052,2.3a.461.461,0,0,0,.468.468.451.451,0,0,0,.456-.468v-2.7A2.8,2.8,0,0,0,38.82.132,3.037,3.037,0,0,0,41.784-3.1V-3.12A3.026,3.026,0,0,0,38.82-6.336a2.789,2.789,0,0,0-2.376,1.38V-5.8a.461.461,0,0,0-.468-.468.459.459,0,0,0-.456.468ZM38.652-.7a2.309,2.309,0,0,1-2.244-2.4V-3.12a2.313,2.313,0,0,1,2.244-2.388,2.234,2.234,0,0,1,2.184,2.4v.024A2.189,2.189,0,0,1,38.652-.7Zm6.912.8a2.334,2.334,0,0,0,.912-.168.386.386,0,0,0,.264-.36.4.4,0,0,0-.4-.4,2.614,2.614,0,0,1-.564.084.918.918,0,0,1-1.044-1.032V-5.388h1.608a.415.415,0,0,0,.42-.408.423.423,0,0,0-.42-.408H44.736V-7.668a.477.477,0,0,0-.468-.468.458.458,0,0,0-.456.468V-6.2h-.5A.412.412,0,0,0,42.9-5.8a.421.421,0,0,0,.408.408h.5v3.744A1.579,1.579,0,0,0,45.564.108Zm6.372,1.4a.461.461,0,0,0,.468.468.451.451,0,0,0,.456-.468v-2.7A2.8,2.8,0,0,0,55.236.132,3.037,3.037,0,0,0,58.2-3.1V-3.12a3.026,3.026,0,0,0-2.964-3.216,2.789,2.789,0,0,0-2.376,1.38V-5.8a.461.461,0,0,0-.468-.468.459.459,0,0,0-.456.468ZM55.068-.7a2.309,2.309,0,0,1-2.244-2.4V-3.12a2.313,2.313,0,0,1,2.244-2.388,2.234,2.234,0,0,1,2.184,2.4v.024A2.189,2.189,0,0,1,55.068-.7ZM59.9-.408a.461.461,0,0,0,.468.468.458.458,0,0,0,.456-.468V-2.52a2.526,2.526,0,0,1,2.184-2.832.459.459,0,0,0,.408-.468.444.444,0,0,0-.456-.468,2.569,2.569,0,0,0-2.136,1.656V-5.8a.461.461,0,0,0-.468-.468A.466.466,0,0,0,59.9-5.8Zm4.86-7.584a.506.506,0,0,0,.54.492.51.51,0,0,0,.552-.492v-.156A.5.5,0,0,0,65.3-8.64a.5.5,0,0,0-.54.492Zm.084,7.584a.461.461,0,0,0,.468.468.451.451,0,0,0,.456-.468V-5.8a.461.461,0,0,0-.468-.468.466.466,0,0,0-.456.468ZM70.932-.3l2.34-5.28a.64.64,0,0,0,.048-.228.456.456,0,0,0-.456-.456.442.442,0,0,0-.432.336l-2.04,4.872-2-4.848a.469.469,0,0,0-.468-.36.466.466,0,0,0-.468.456.962.962,0,0,0,.06.252L69.84-.3a.573.573,0,0,0,.528.4h.048A.559.559,0,0,0,70.932-.3Zm5.592.432A2.719,2.719,0,0,0,78.768-.936v.564a.426.426,0,0,0,.444.432A.439.439,0,0,0,79.656-.4v-3.4A2.449,2.449,0,0,0,79.02-5.6a2.722,2.722,0,0,0-2-.684,4.892,4.892,0,0,0-2.028.42.423.423,0,0,0-.252.384.41.41,0,0,0,.408.4.471.471,0,0,0,.168-.036,3.873,3.873,0,0,1,1.608-.348c1.164,0,1.848.576,1.848,1.692v.216a6.587,6.587,0,0,0-1.908-.264c-1.572,0-2.652.7-2.652,2V-1.8A2.089,2.089,0,0,0,76.524.132ZM76.7-.6c-.84,0-1.56-.456-1.56-1.236V-1.86c0-.78.648-1.284,1.812-1.284a6.472,6.472,0,0,1,1.824.264v.6A1.876,1.876,0,0,1,76.7-.6ZM84.42.144a3.122,3.122,0,0,0,2.34-1,.419.419,0,0,0,.12-.288.433.433,0,0,0-.42-.42.366.366,0,0,0-.264.12,2.479,2.479,0,0,1-1.728.756A2.318,2.318,0,0,1,82.188-3.1V-3.12a2.289,2.289,0,0,1,2.22-2.4,2.393,2.393,0,0,1,1.692.744.478.478,0,0,0,.3.108.443.443,0,0,0,.444-.444.434.434,0,0,0-.144-.324,3.208,3.208,0,0,0-2.28-.9A3.2,3.2,0,0,0,81.24-3.1v.024A3.185,3.185,0,0,0,84.42.144Zm4.908,1.812c.936,0,1.536-.468,2.076-1.752L93.828-5.58a.775.775,0,0,0,.048-.228.456.456,0,0,0-.456-.456.464.464,0,0,0-.444.348l-1.92,4.884L88.9-5.9a.489.489,0,0,0-.468-.36.459.459,0,0,0-.468.456.645.645,0,0,0,.06.252l2.592,5.5-.048.1c-.336.756-.672,1.1-1.248,1.1a1.907,1.907,0,0,1-.672-.108.7.7,0,0,0-.228-.048.4.4,0,0,0-.4.4.422.422,0,0,0,.288.4A2.921,2.921,0,0,0,89.328,1.956Zm9.744-.444a.461.461,0,0,0,.468.468A.451.451,0,0,0,100,1.512v-2.7a2.8,2.8,0,0,0,2.376,1.32A3.037,3.037,0,0,0,105.336-3.1V-3.12a3.026,3.026,0,0,0-2.964-3.216A2.789,2.789,0,0,0,100-4.956V-5.8a.461.461,0,0,0-.468-.468.459.459,0,0,0-.456.468ZM102.2-.7A2.309,2.309,0,0,1,99.96-3.1V-3.12A2.313,2.313,0,0,1,102.2-5.508a2.234,2.234,0,0,1,2.184,2.4v.024A2.189,2.189,0,0,1,102.2-.7Zm7.668.84a3.221,3.221,0,0,0,3.252-3.24V-3.12A3.188,3.188,0,0,0,109.9-6.336a3.211,3.211,0,0,0-3.24,3.24v.024A3.178,3.178,0,0,0,109.872.144Zm.024-.828A2.327,2.327,0,0,1,107.6-3.1V-3.12a2.29,2.29,0,0,1,2.268-2.4,2.348,2.348,0,0,1,2.3,2.424v.024A2.289,2.289,0,0,1,109.9-.684Zm4.98.276a.461.461,0,0,0,.468.468.451.451,0,0,0,.456-.468V-8.352a.469.469,0,0,0-.468-.468.466.466,0,0,0-.456.468Zm3.072-7.584a.506.506,0,0,0,.54.492.51.51,0,0,0,.552-.492v-.156a.5.5,0,0,0-.552-.492.5.5,0,0,0-.54.492Zm.084,7.584A.461.461,0,0,0,118.5.06a.451.451,0,0,0,.456-.468V-5.8a.461.461,0,0,0-.468-.468.466.466,0,0,0-.456.468ZM123.9.144a3.122,3.122,0,0,0,2.34-1,.419.419,0,0,0,.12-.288.433.433,0,0,0-.42-.42.366.366,0,0,0-.264.12,2.479,2.479,0,0,1-1.728.756,2.318,2.318,0,0,1-2.28-2.412V-3.12a2.289,2.289,0,0,1,2.22-2.4,2.393,2.393,0,0,1,1.692.744.478.478,0,0,0,.3.108.443.443,0,0,0,.444-.444.434.434,0,0,0-.144-.324,3.208,3.208,0,0,0-2.28-.9,3.2,3.2,0,0,0-3.18,3.24v.024A3.185,3.185,0,0,0,123.9.144Zm4.908,1.812c.936,0,1.536-.468,2.076-1.752l2.424-5.784a.775.775,0,0,0,.048-.228.456.456,0,0,0-.456-.456.464.464,0,0,0-.444.348l-1.92,4.884L128.376-5.9a.489.489,0,0,0-.468-.36.459.459,0,0,0-.468.456.645.645,0,0,0,.06.252l2.592,5.5-.048.1c-.336.756-.672,1.1-1.248,1.1a1.907,1.907,0,0,1-.672-.108A.7.7,0,0,0,127.9.984a.4.4,0,0,0-.4.4.422.422,0,0,0,.288.4A2.921,2.921,0,0,0,128.808,1.956ZM140.4.132a2.719,2.719,0,0,0,2.244-1.068v.564a.426.426,0,0,0,.444.432.439.439,0,0,0,.444-.456v-3.4A2.449,2.449,0,0,0,142.9-5.6a2.722,2.722,0,0,0-2-.684,4.892,4.892,0,0,0-2.028.42.423.423,0,0,0-.252.384.41.41,0,0,0,.408.4.471.471,0,0,0,.168-.036,3.873,3.873,0,0,1,1.608-.348c1.164,0,1.848.576,1.848,1.692v.216a6.587,6.587,0,0,0-1.908-.264c-1.572,0-2.652.7-2.652,2V-1.8A2.089,2.089,0,0,0,140.4.132Zm.18-.732c-.84,0-1.56-.456-1.56-1.236V-1.86c0-.78.648-1.284,1.812-1.284a6.472,6.472,0,0,1,1.824.264v.6A1.876,1.876,0,0,1,140.58-.6Zm4.92.192a.461.461,0,0,0,.468.468.451.451,0,0,0,.456-.468V-3.552a1.825,1.825,0,0,1,1.86-1.944A1.654,1.654,0,0,1,150-3.624V-.408a.461.461,0,0,0,.468.468.459.459,0,0,0,.456-.468V-3.852a2.266,2.266,0,0,0-2.376-2.484,2.349,2.349,0,0,0-2.124,1.212V-5.8a.461.461,0,0,0-.468-.468.466.466,0,0,0-.456.468Zm13.3-7.944a.461.461,0,0,0-.468-.468.451.451,0,0,0-.456.468v3.336a2.8,2.8,0,0,0-2.376-1.32,3.044,3.044,0,0,0-2.964,3.228v.024A3.026,3.026,0,0,0,155.5.132a2.789,2.789,0,0,0,2.376-1.38v.84a.461.461,0,0,0,.468.468.459.459,0,0,0,.456-.468Zm-3.132,2.844a2.306,2.306,0,0,1,2.244,2.388V-3.1a2.317,2.317,0,0,1-2.244,2.4,2.241,2.241,0,0,1-2.184-2.4V-3.12A2.189,2.189,0,0,1,155.664-5.508Zm11.544,7.452a3.262,3.262,0,0,0,2.364-.828,2.989,2.989,0,0,0,.792-2.2V-5.8a.469.469,0,0,0-.468-.468.458.458,0,0,0-.456.468v.708a2.909,2.909,0,0,0-2.424-1.248A2.881,2.881,0,0,0,164.1-3.408v.024a2.869,2.869,0,0,0,2.916,2.9,2.941,2.941,0,0,0,2.436-1.308v.732A2.039,2.039,0,0,1,167.2,1.152,3.918,3.918,0,0,1,165,.48a.372.372,0,0,0-.2-.06.441.441,0,0,0-.42.408.428.428,0,0,0,.24.384A4.859,4.859,0,0,0,167.208,1.944ZM167.2-1.3a2.1,2.1,0,0,1-2.148-2.112v-.024A2.052,2.052,0,0,1,167.2-5.52a2.174,2.174,0,0,1,2.28,2.1V-3.4A2.189,2.189,0,0,1,167.2-1.3Zm5.784-2.148A2.139,2.139,0,0,1,175-5.556a2.043,2.043,0,0,1,1.98,2.112Zm4.5,2.652a.4.4,0,0,0,.144-.3.4.4,0,0,0-.408-.4.4.4,0,0,0-.264.108,2.536,2.536,0,0,1-1.788.72,2.167,2.167,0,0,1-2.184-2.1h4.488a.43.43,0,0,0,.432-.432,2.921,2.921,0,0,0-2.88-3.144,3.06,3.06,0,0,0-2.976,3.228v.024a3.084,3.084,0,0,0,3.1,3.228A3.154,3.154,0,0,0,177.48-.792Zm2.052.384A.461.461,0,0,0,180,.06a.451.451,0,0,0,.456-.468V-3.552a1.825,1.825,0,0,1,1.86-1.944,1.654,1.654,0,0,1,1.716,1.872V-.408A.461.461,0,0,0,184.5.06a.459.459,0,0,0,.456-.468V-3.852a2.266,2.266,0,0,0-2.376-2.484,2.349,2.349,0,0,0-2.124,1.212V-5.8a.461.461,0,0,0-.468-.468.466.466,0,0,0-.456.468Zm7.944-3.036a2.139,2.139,0,0,1,2.016-2.112,2.043,2.043,0,0,1,1.98,2.112Zm4.5,2.652a.4.4,0,0,0,.144-.3.4.4,0,0,0-.408-.4.4.4,0,0,0-.264.108,2.536,2.536,0,0,1-1.788.72,2.167,2.167,0,0,1-2.184-2.1h4.488a.43.43,0,0,0,.432-.432,2.921,2.921,0,0,0-2.88-3.144,3.06,3.06,0,0,0-2.976,3.228v.024a3.084,3.084,0,0,0,3.1,3.228A3.154,3.154,0,0,0,191.976-.792Zm2.052.384A.461.461,0,0,0,194.5.06a.458.458,0,0,0,.456-.468V-2.52a2.526,2.526,0,0,1,2.184-2.832.459.459,0,0,0,.408-.468.444.444,0,0,0-.456-.468,2.569,2.569,0,0,0-2.136,1.656V-5.8a.461.461,0,0,0-.468-.468.466.466,0,0,0-.456.468Zm6.408.54A2.719,2.719,0,0,0,202.68-.936v.564a.426.426,0,0,0,.444.432.439.439,0,0,0,.444-.456v-3.4a2.449,2.449,0,0,0-.636-1.812,2.722,2.722,0,0,0-2-.684,4.892,4.892,0,0,0-2.028.42.423.423,0,0,0-.252.384.41.41,0,0,0,.408.4.471.471,0,0,0,.168-.036,3.873,3.873,0,0,1,1.608-.348c1.164,0,1.848.576,1.848,1.692v.216a6.587,6.587,0,0,0-1.908-.264c-1.572,0-2.652.7-2.652,2V-1.8A2.089,2.089,0,0,0,200.436.132Zm.18-.732c-.84,0-1.56-.456-1.56-1.236V-1.86c0-.78.648-1.284,1.812-1.284a6.472,6.472,0,0,1,1.824.264v.6A1.876,1.876,0,0,1,200.616-.6Zm5,.192a.461.461,0,0,0,.468.468.451.451,0,0,0,.456-.468V-8.352a.469.469,0,0,0-.468-.468.466.466,0,0,0-.456.468Zm9.468.552a3.122,3.122,0,0,0,2.34-1,.419.419,0,0,0,.12-.288.433.433,0,0,0-.42-.42.366.366,0,0,0-.264.12,2.479,2.479,0,0,1-1.728.756,2.318,2.318,0,0,1-2.28-2.412V-3.12a2.289,2.289,0,0,1,2.22-2.4,2.393,2.393,0,0,1,1.692.744.478.478,0,0,0,.3.108.443.443,0,0,0,.444-.444.434.434,0,0,0-.144-.324,3.208,3.208,0,0,0-2.28-.9,3.2,3.2,0,0,0-3.18,3.24v.024A3.185,3.185,0,0,0,215.088.144Zm6.708,0a3.221,3.221,0,0,0,3.252-3.24V-3.12a3.188,3.188,0,0,0-3.228-3.216,3.211,3.211,0,0,0-3.24,3.24v.024A3.178,3.178,0,0,0,221.8.144Zm.024-.828A2.328,2.328,0,0,1,219.528-3.1V-3.12a2.29,2.29,0,0,1,2.268-2.4A2.348,2.348,0,0,1,224.1-3.1v.024A2.289,2.289,0,0,1,221.82-.684Zm4.9.276a.461.461,0,0,0,.468.468.451.451,0,0,0,.456-.468V-3.552A1.825,1.825,0,0,1,229.5-5.5a1.654,1.654,0,0,1,1.716,1.872V-.408a.461.461,0,0,0,.468.468.459.459,0,0,0,.456-.468V-3.852a2.266,2.266,0,0,0-2.376-2.484,2.349,2.349,0,0,0-2.124,1.212V-5.8a.461.461,0,0,0-.468-.468.466.466,0,0,0-.456.468Zm13.3-7.944a.461.461,0,0,0-.468-.468.451.451,0,0,0-.456.468v3.336a2.8,2.8,0,0,0-2.376-1.32,3.044,3.044,0,0,0-2.964,3.228v.024A3.026,3.026,0,0,0,236.712.132a2.789,2.789,0,0,0,2.376-1.38v.84a.461.461,0,0,0,.468.468.459.459,0,0,0,.456-.468ZM236.88-5.508a2.306,2.306,0,0,1,2.244,2.388V-3.1A2.317,2.317,0,0,1,236.88-.7,2.241,2.241,0,0,1,234.7-3.1V-3.12A2.189,2.189,0,0,1,236.88-5.508Zm5.2-2.484a.506.506,0,0,0,.54.492.51.51,0,0,0,.552-.492v-.156a.5.5,0,0,0-.552-.492.5.5,0,0,0-.54.492Zm.084,7.584a.461.461,0,0,0,.468.468.451.451,0,0,0,.456-.468V-5.8a.461.461,0,0,0-.468-.468.466.466,0,0,0-.456.468Zm5.148.516a2.334,2.334,0,0,0,.912-.168.386.386,0,0,0,.264-.36.4.4,0,0,0-.4-.4,2.615,2.615,0,0,1-.564.084.918.918,0,0,1-1.044-1.032V-5.388h1.608a.415.415,0,0,0,.42-.408.423.423,0,0,0-.42-.408H246.48V-7.668a.477.477,0,0,0-.468-.468.458.458,0,0,0-.456.468V-6.2h-.5a.412.412,0,0,0-.408.408.421.421,0,0,0,.408.408h.5v3.744A1.579,1.579,0,0,0,247.308.108Zm2.772-8.1a.506.506,0,0,0,.54.492.51.51,0,0,0,.552-.492v-.156a.5.5,0,0,0-.552-.492.5.5,0,0,0-.54.492Zm.084,7.584a.461.461,0,0,0,.468.468.451.451,0,0,0,.456-.468V-5.8a.461.461,0,0,0-.468-.468.466.466,0,0,0-.456.468Zm5.9.552A3.221,3.221,0,0,0,259.32-3.1V-3.12a3.188,3.188,0,0,0-3.228-3.216,3.211,3.211,0,0,0-3.24,3.24v.024A3.178,3.178,0,0,0,256.068.144Zm.024-.828A2.328,2.328,0,0,1,253.8-3.1V-3.12a2.29,2.29,0,0,1,2.268-2.4,2.348,2.348,0,0,1,2.3,2.424v.024A2.289,2.289,0,0,1,256.092-.684Zm4.9.276a.461.461,0,0,0,.468.468.451.451,0,0,0,.456-.468V-3.552a1.825,1.825,0,0,1,1.86-1.944,1.654,1.654,0,0,1,1.716,1.872V-.408a.461.461,0,0,0,.468.468.459.459,0,0,0,.456-.468V-3.852a2.266,2.266,0,0,0-2.376-2.484,2.349,2.349,0,0,0-2.124,1.212V-5.8a.461.461,0,0,0-.468-.468.466.466,0,0,0-.456.468Zm9.444.528a1.954,1.954,0,0,0,2.208-1.86v-.024c0-1.116-1.032-1.488-1.992-1.776-.828-.252-1.6-.48-1.6-1.068v-.024c0-.516.468-.9,1.2-.9a3.358,3.358,0,0,1,1.62.48.464.464,0,0,0,.2.048.4.4,0,0,0,.408-.4.449.449,0,0,0-.228-.384,4.322,4.322,0,0,0-1.98-.528,1.877,1.877,0,0,0-2.112,1.776v.024c0,1.14,1.08,1.476,2.052,1.752.816.228,1.548.468,1.548,1.092v.024c0,.6-.54.984-1.284.984a3.486,3.486,0,0,1-1.968-.66.369.369,0,0,0-.228-.072.4.4,0,0,0-.408.4.417.417,0,0,0,.168.336A4.293,4.293,0,0,0,270.432.12Z" transform="translate(61.25 484.641)"/>
    <path id="Icon_material-radio-button-unchecked" data-name="Icon material-radio-button-unchecked" d="M9.473,3a6.473,6.473,0,1,0,6.473,6.473A6.475,6.475,0,0,0,9.473,3Zm0,11.651a5.178,5.178,0,1,1,5.178-5.178A5.177,5.177,0,0,1,9.473,14.651Z" transform="translate(40.25 471)"/>
    <path id="Sign_In-2" data-name="Sign In" d="M1.26-.868A.855.855,0,0,0,2.128,0H5.8C7.98,0,9.422-.938,9.422-2.688v-.028A2.4,2.4,0,0,0,7.476-5.1a2.334,2.334,0,0,0,1.4-2.184v-.028a2.195,2.195,0,0,0-.658-1.624A3.538,3.538,0,0,0,5.656-9.8H2.128a.855.855,0,0,0-.868.868Zm1.694-4.8v-2.6H5.432c1.106,0,1.722.476,1.722,1.246V-7c0,.9-.742,1.33-1.848,1.33Zm0,4.144V-4.214h2.73c1.358,0,2.016.49,2.016,1.316v.028c0,.882-.714,1.344-1.89,1.344ZM14.686.168a3.865,3.865,0,0,0,3.962-3.85V-3.71a3.829,3.829,0,0,0-3.934-3.836,3.864,3.864,0,0,0-3.948,3.864v.028A3.823,3.823,0,0,0,14.686.168Zm.028-1.484A2.278,2.278,0,0,1,12.46-3.682V-3.71a2.219,2.219,0,0,1,2.226-2.352,2.285,2.285,0,0,1,2.268,2.38v.028A2.218,2.218,0,0,1,14.714-1.316ZM23.884.168a3.865,3.865,0,0,0,3.962-3.85V-3.71a3.829,3.829,0,0,0-3.934-3.836,3.864,3.864,0,0,0-3.948,3.864v.028A3.823,3.823,0,0,0,23.884.168Zm.028-1.484a2.278,2.278,0,0,1-2.254-2.366V-3.71a2.219,2.219,0,0,1,2.226-2.352,2.285,2.285,0,0,1,2.268,2.38v.028A2.218,2.218,0,0,1,23.912-1.316Zm5.656.546a.834.834,0,0,0,.84.84.837.837,0,0,0,.854-.84V-2.058l1.12-1.064L34.5-.308a.841.841,0,0,0,.742.378.766.766,0,0,0,.8-.77.9.9,0,0,0-.224-.56l-2.24-2.926,1.96-1.806a.961.961,0,0,0,.378-.714.744.744,0,0,0-.742-.77,1,1,0,0,0-.728.364L31.262-3.99V-9.45a.846.846,0,0,0-.854-.84.834.834,0,0,0-.84.84ZM37.66-9.3a.877.877,0,0,0,.966.84.877.877,0,0,0,.966-.84V-9.38a.867.867,0,0,0-.966-.826.867.867,0,0,0-.966.826ZM37.786-.77a.834.834,0,0,0,.84.84.837.837,0,0,0,.854-.84V-6.622a.848.848,0,0,0-.854-.854.837.837,0,0,0-.84.854Zm3.906,0a.834.834,0,0,0,.84.84.837.837,0,0,0,.854-.84v-3.4a1.644,1.644,0,0,1,1.666-1.834c1.008,0,1.582.658,1.582,1.806V-.77a.837.837,0,0,0,.854.84.825.825,0,0,0,.84-.84V-4.718A2.534,2.534,0,0,0,45.7-7.546a2.679,2.679,0,0,0-2.31,1.288v-.364a.848.848,0,0,0-.854-.854.837.837,0,0,0-.84.854Zm11.97,3.038A4.161,4.161,0,0,0,56.7,1.274a3.782,3.782,0,0,0,.938-2.786v-5.11a.848.848,0,0,0-.854-.854.842.842,0,0,0-.84.84v.35a3.19,3.19,0,0,0-2.59-1.26,3.334,3.334,0,0,0-3.36,3.472v.028a3.322,3.322,0,0,0,3.36,3.458,3.1,3.1,0,0,0,2.6-1.358v.574A2.067,2.067,0,0,1,53.62.9,4.52,4.52,0,0,1,51.352.308a.667.667,0,0,0-.308-.07.714.714,0,0,0-.714.7.693.693,0,0,0,.476.672A6.386,6.386,0,0,0,53.662,2.268Zm.14-4.3a2.013,2.013,0,0,1-2.1-2.03v-.028a2,2,0,0,1,2.1-2.03,2.065,2.065,0,0,1,2.17,2.03v.028A2.065,2.065,0,0,1,53.8-2.03ZM66.444.126H66.5A.936.936,0,0,0,67.41-.6L68.866-5,70.308-.6a.94.94,0,0,0,.924.728h.056a.985.985,0,0,0,.938-.756l2.016-5.684a1.4,1.4,0,0,0,.07-.378.786.786,0,0,0-.8-.784.845.845,0,0,0-.826.658L71.246-2.324,69.79-6.8a.9.9,0,0,0-.868-.672h-.1a.9.9,0,0,0-.868.672l-1.442,4.48L65.086-6.8a.864.864,0,0,0-.826-.672.793.793,0,0,0-.826.784,1.406,1.406,0,0,0,.084.434L65.506-.63A.963.963,0,0,0,66.444.126ZM75.88-9.3a.877.877,0,0,0,.966.84.877.877,0,0,0,.966-.84V-9.38a.867.867,0,0,0-.966-.826.867.867,0,0,0-.966.826ZM76.006-.77a.834.834,0,0,0,.84.84A.837.837,0,0,0,77.7-.77V-6.622a.848.848,0,0,0-.854-.854.837.837,0,0,0-.84.854Zm6.384.9a3.37,3.37,0,0,0,1.162-.2A.729.729,0,0,0,84-.728a.714.714,0,0,0-.714-.7,4.005,4.005,0,0,1-.42.042.807.807,0,0,1-.91-.924V-5.936h1.33a.735.735,0,0,0,.742-.728.735.735,0,0,0-.742-.728h-1.33v-1.26a.842.842,0,0,0-.84-.84.846.846,0,0,0-.854.84v1.26h-.28a.723.723,0,0,0-.728.728.723.723,0,0,0,.728.728h.28v3.892A1.9,1.9,0,0,0,82.39.126Zm3.276-.9a.834.834,0,0,0,.84.84.837.837,0,0,0,.854-.84v-3.4a1.644,1.644,0,0,1,1.666-1.834c1.008,0,1.582.658,1.582,1.806V-.77a.837.837,0,0,0,.854.84.825.825,0,0,0,.84-.84V-4.718A2.534,2.534,0,0,0,89.67-7.546a2.679,2.679,0,0,0-2.31,1.288V-9.45a.846.846,0,0,0-.854-.84.834.834,0,0,0-.84.84ZM97.86.168a3.865,3.865,0,0,0,3.962-3.85V-3.71a3.829,3.829,0,0,0-3.934-3.836A3.864,3.864,0,0,0,93.94-3.682v.028A3.823,3.823,0,0,0,97.86.168Zm.028-1.484a2.278,2.278,0,0,1-2.254-2.366V-3.71A2.219,2.219,0,0,1,97.86-6.062a2.285,2.285,0,0,1,2.268,2.38v.028A2.218,2.218,0,0,1,97.888-1.316ZM110.11-6.622a.857.857,0,0,0-.854-.854.848.848,0,0,0-.854.854v3.4a1.633,1.633,0,0,1-1.666,1.82c-1.008,0-1.582-.644-1.582-1.792v-3.43a.848.848,0,0,0-.854-.854.846.846,0,0,0-.84.854v3.934A2.538,2.538,0,0,0,106.092.154a2.66,2.66,0,0,0,2.31-1.3V-.77a.845.845,0,0,0,.854.84.846.846,0,0,0,.854-.84ZM114.7.126a3.37,3.37,0,0,0,1.162-.2.729.729,0,0,0,.448-.658.714.714,0,0,0-.714-.7,4.005,4.005,0,0,1-.42.042.807.807,0,0,1-.91-.924V-5.936h1.33a.735.735,0,0,0,.742-.728.735.735,0,0,0-.742-.728h-1.33v-1.26a.842.842,0,0,0-.84-.84.846.846,0,0,0-.854.84v1.26h-.28a.723.723,0,0,0-.728.728.723.723,0,0,0,.728.728h.28v3.892A1.9,1.9,0,0,0,114.7.126Zm7.574-.9a.834.834,0,0,0,.84.84.837.837,0,0,0,.854-.84V-9.45a.846.846,0,0,0-.854-.84.834.834,0,0,0-.84.84Zm7.42.938a3.865,3.865,0,0,0,3.962-3.85V-3.71a3.829,3.829,0,0,0-3.934-3.836,3.864,3.864,0,0,0-3.948,3.864v.028A3.823,3.823,0,0,0,129.7.168Zm.028-1.484a2.278,2.278,0,0,1-2.254-2.366V-3.71A2.219,2.219,0,0,1,129.7-6.062a2.285,2.285,0,0,1,2.268,2.38v.028A2.218,2.218,0,0,1,129.724-1.316Zm8.946,3.584a4.161,4.161,0,0,0,3.038-.994,3.782,3.782,0,0,0,.938-2.786v-5.11a.848.848,0,0,0-.854-.854.842.842,0,0,0-.84.84v.35a3.19,3.19,0,0,0-2.59-1.26A3.334,3.334,0,0,0,135-4.074v.028a3.322,3.322,0,0,0,3.36,3.458,3.1,3.1,0,0,0,2.6-1.358v.574A2.067,2.067,0,0,1,138.628.9,4.52,4.52,0,0,1,136.36.308a.667.667,0,0,0-.308-.07.714.714,0,0,0-.714.7.693.693,0,0,0,.476.672A6.386,6.386,0,0,0,138.67,2.268Zm.14-4.3a2.013,2.013,0,0,1-2.1-2.03v-.028a2,2,0,0,1,2.1-2.03,2.065,2.065,0,0,1,2.17,2.03v.028A2.065,2.065,0,0,1,138.81-2.03ZM144.746-9.3a.877.877,0,0,0,.966.84.877.877,0,0,0,.966-.84V-9.38a.867.867,0,0,0-.966-.826.867.867,0,0,0-.966.826Zm.126,8.526a.834.834,0,0,0,.84.84.837.837,0,0,0,.854-.84V-6.622a.848.848,0,0,0-.854-.854.837.837,0,0,0-.84.854Zm3.906,0a.834.834,0,0,0,.84.84.837.837,0,0,0,.854-.84v-3.4a1.644,1.644,0,0,1,1.666-1.834c1.008,0,1.582.658,1.582,1.806V-.77a.837.837,0,0,0,.854.84.825.825,0,0,0,.84-.84V-4.718a2.534,2.534,0,0,0-2.632-2.828,2.679,2.679,0,0,0-2.31,1.288v-.364a.848.848,0,0,0-.854-.854.837.837,0,0,0-.84.854Z" transform="translate(110 688)" fill="#fff"/>
  </g>
</svg>
