<svg xmlns="http://www.w3.org/2000/svg" xmlns:xlink="http://www.w3.org/1999/xlink" width="375" height="811" viewBox="0 0 375 811">
  <defs>
    <filter id="Rectangle" x="-72" y="669.869" width="519" height="234" filterUnits="userSpaceOnUse">
      <feOffset dy="2" input="SourceAlpha"/>
      <feGaussianBlur stdDeviation="24" result="blur"/>
      <feFlood flood-opacity="0.11"/>
      <feComposite operator="in" in2="blur"/>
      <feComposite in="SourceGraphic"/>
    </filter>
    <clipPath id="clip-_3.2_Activity_Description_Price">
      <rect width="375" height="811"/>
    </clipPath>
  </defs>
  <g id="_3.2_Activity_Description_Price" data-name="3.2 Activity Description Price" clip-path="url(#clip-_3.2_Activity_Description_Price)">
    <rect width="375" height="811" fill="#fff"/>
    <g id="Group_4958" data-name="Group 4958">
      <g id="Rectangle_1837" data-name="Rectangle 1837" transform="translate(96 103)" fill="#3f62ac" stroke="#fff" stroke-width="1">
        <rect width="249" height="40" rx="10" stroke="none"/>
        <rect x="0.5" y="0.5" width="248" height="39" rx="9.5" fill="none"/>
      </g>
    </g>
    <g id="Group_4096" data-name="Group 4096" transform="translate(5 -11)">
      <g id="Group_4021" data-name="Group 4021" transform="translate(-2 30)">
        <g id="Group_4015" data-name="Group 4015" transform="translate(18 25)">
          <rect id="Rectangle_1577" data-name="Rectangle 1577" width="32.645" height="32" rx="10" fill="rgba(198,36,36,0)"/>
        </g>
      </g>
      <g id="Icon" transform="translate(24.5 64)">
        <path id="Path" d="M14,.5H0" transform="translate(0 6.5)" fill="none" stroke="#1e2022" stroke-linecap="round" stroke-linejoin="round" stroke-miterlimit="10" stroke-width="2"/>
        <path id="Path-2" data-name="Path" d="M7,14,0,7,7,0" fill="none" stroke="#1e2022" stroke-linecap="round" stroke-linejoin="round" stroke-miterlimit="10" stroke-width="2"/>
      </g>
    </g>
    <text id="Search" transform="translate(188 65)" font-size="18" font-family="GothamRounded-Medium, Gotham Rounded" font-weight="500" letter-spacing="0.005em"><tspan x="-71.226" y="0">Full description</tspan></text>
    <g id="Group_4957" data-name="Group 4957">
      <g id="Rectangle_1706" data-name="Rectangle 1706" transform="translate(30 103)" fill="#f2f2f2" stroke="#fff" stroke-width="1">
        <path d="M10,0H176a0,0,0,0,1,0,0V40a0,0,0,0,1,0,0H10A10,10,0,0,1,0,30V10A10,10,0,0,1,10,0Z" stroke="none"/>
        <path d="M10,.5H175.5a0,0,0,0,1,0,0v39a0,0,0,0,1,0,0H10A9.5,9.5,0,0,1,.5,30V10A9.5,9.5,0,0,1,10,.5Z" fill="none"/>
      </g>
    </g>
    <text id="Description_reviews" data-name="Description &amp; reviews" transform="matrix(1, 0, 0, 1, 41, 128)" font-size="14" font-family="GothamRounded-Medium, Gotham Rounded" font-weight="500"><tspan x="0" y="0">Description &amp; reviews</tspan></text>
    <text id="Price_details" data-name="Price &amp; details" transform="matrix(1, 0, 0, 1, 225, 128)" fill="#fff" font-size="14" font-family="GothamRounded-Medium, Gotham Rounded" font-weight="500"><tspan x="0" y="0">Price &amp; details</tspan></text>
    <text id="Schedule" transform="translate(16 189)" font-size="18" font-family="GothamRounded-Medium, Gotham Rounded" font-weight="500"><tspan x="0" y="0">Schedule</tspan></text>
    <text id="Activity_duration" data-name="Activity duration" transform="translate(30 351)" fill="#297e92" font-size="14" font-family="GothamRounded-Medium, Gotham Rounded" font-weight="500"><tspan x="0" y="0">Activity duration</tspan></text>
    <text id="Search-2" data-name="Search" transform="translate(30 375)" font-size="14" font-family="GothamRounded-Medium, Gotham Rounded" font-weight="500" letter-spacing="0.005em"><tspan x="0" y="0">20 Min</tspan></text>
    <line id="Line_928" data-name="Line 928" x2="292" transform="translate(41.5 316)" fill="none" stroke="#c7d9ff" stroke-width="1"/>
    <line id="Line_943" data-name="Line 943" x2="292" transform="translate(41.5 398.5)" fill="none" stroke="#c7d9ff" stroke-width="1"/>
    <text id="Who_can_participate" data-name="Who can participate" transform="translate(14.5 697.369)" font-size="18" font-family="GothamRounded-Medium, Gotham Rounded" font-weight="500"><tspan x="0" y="0">Who can participate</tspan></text>
    <text id="People" transform="translate(28.5 733.369)" fill="#297e92" font-size="14" font-family="GothamRounded-Medium, Gotham Rounded" font-weight="500"><tspan x="0" y="0">People</tspan></text>
    <g id="Group_5006" data-name="Group 5006" transform="translate(0 -383.228)">
      <text id="Min_age_limit" data-name="Min age
limit" transform="translate(312 1169)" fill="#297e92" font-size="12" font-family="GothamRounded-Medium, Gotham Rounded" font-weight="500"><tspan x="-23.616" y="0">Min age</tspan><tspan x="-13.314" y="13">limit</tspan></text>
      <text id="_9" data-name="+9" transform="translate(302 1150)" fill="#190202" font-size="16" font-family="GothamRounded-Medium, Gotham Rounded" font-weight="500" letter-spacing="0.005em"><tspan x="0" y="0">+9</tspan></text>
    </g>
    <g id="Group_5008" data-name="Group 5008" transform="translate(0 -383.228)">
      <text id="Search-3" data-name="Search" transform="translate(62 1151)" fill="#101319" font-size="17" font-family="GothamRounded-Medium, Gotham Rounded" font-weight="500" letter-spacing="0.005em"><tspan x="0" y="0">1</tspan></text>
      <text id="Minimum_persons" data-name="Minimum
persons" transform="translate(65 1168)" fill="#297e92" font-size="11" font-family="GothamRounded-Medium, Gotham Rounded" font-weight="500" letter-spacing="0.005em"><tspan x="-25.355" y="0">Minimum</tspan><tspan x="-21.984" y="12">persons</tspan></text>
    </g>
    <g id="Group_5007" data-name="Group 5007" transform="translate(24 -383.228)">
      <text id="Search-4" data-name="Search" transform="translate(159 1151)" fill="#101319" font-size="17" font-family="GothamRounded-Medium, Gotham Rounded" font-weight="500" letter-spacing="0.005em"><tspan x="0" y="0">4</tspan></text>
      <text id="Maximum_persons" data-name="Maximum
persons" transform="translate(165 1169)" fill="#297e92" font-size="12" font-family="GothamRounded-Medium, Gotham Rounded" font-weight="500" letter-spacing="0.005em"><tspan x="-29.184" y="0">Maximum</tspan><tspan x="-23.982" y="13">persons</tspan></text>
    </g>
    <g id="Group_5003" data-name="Group 5003" transform="translate(0 -380.065)">
      <text id="Equipment" transform="translate(16 810)" font-size="18" font-family="GothamRounded-Medium, Gotham Rounded" font-weight="500"><tspan x="0" y="0">Equipment</tspan></text>
      <text id="What_s_included_" data-name="What’s included " transform="translate(30 849)" fill="#297e92" font-size="14" font-family="GothamRounded-Medium, Gotham Rounded" font-weight="500"><tspan x="0" y="0">What’s included </tspan></text>
      <text id="What_To_Bring" data-name="What To Bring" transform="translate(30 960)" fill="#297e92" font-size="14" font-family="GothamRounded-Medium, Gotham Rounded" font-weight="500"><tspan x="0" y="0">What To Bring</tspan></text>
      <text id="Professional_instructors_helmet_lifevest_and_insurance." data-name="Professional instructors, helmet, lifevest, and insurance." transform="translate(30 865.435)" fill="rgba(0,0,0,0.85)" font-size="14" font-family="GothamRounded-Medium, Gotham Rounded" font-weight="500"><tspan x="0" y="11">Professional instructors, helmet, lifevest, and </tspan><tspan x="0" y="34">insurance.</tspan></text>
      <text id="Comfortable_clothes_bathing_costume_towel_and_sun_protection." data-name="Comfortable clothes, bathing costume, towel and sun protection." transform="translate(30 980)" fill="rgba(0,0,0,0.85)" font-size="14" font-family="GothamRounded-Medium, Gotham Rounded" font-weight="500"><tspan x="0" y="11">Comfortable clothes, bathing costume, </tspan><tspan x="0" y="34">towel and sun protection.</tspan></text>
      <line id="Line_947" data-name="Line 947" x2="292" transform="translate(41.5 926.435)" fill="none" stroke="#c7d9ff" stroke-width="1"/>
      <line id="Line_948" data-name="Line 948" x2="292" transform="translate(41.5 1046)" fill="none" stroke="#c7d9ff" stroke-width="1"/>
    </g>
    <rect id="textbox" width="346" height="49.817" rx="5" transform="translate(14.5 213.5)" fill="none" stroke="#c7d9ff" stroke-width="1"/>
    <text id="_09:00-12:00" data-name="09:00-12:00" transform="translate(265.9 231.965)" font-size="13" font-family="GothamRounded-Medium, Gotham Rounded" font-weight="500"><tspan x="0" y="0">09:00-12:00</tspan></text>
    <text id="MON_TUE_WED_THU_FRI" data-name="MON, TUE, WED, THU, FRI" transform="translate(200.5 241.5)" fill="#3f62ac" font-size="13" font-family="GothamRounded-Medium, Gotham Rounded" font-weight="500"><tspan x="-171.808" y="0">MON, TUE, WED, THU, FRI</tspan></text>
    <text id="_14:00-17:00" data-name="14:00-17:00" transform="translate(267.9 253.482)" font-size="13" font-family="GothamRounded-Medium, Gotham Rounded" font-weight="500"><tspan x="0" y="0">14:00-17:00</tspan></text>
    <rect id="textbox-2" data-name="textbox" width="346" height="26.817" rx="5" transform="translate(14.5 275.5)" fill="none" stroke="#c7d9ff" stroke-width="1"/>
    <text id="_09:00-12:00-2" data-name="09:00-12:00" transform="translate(265.9 292.5)" font-size="13" font-family="GothamRounded-Medium, Gotham Rounded" font-weight="500"><tspan x="0" y="0">09:00-12:00</tspan></text>
    <text id="SA_SUN" data-name="SA, SUN" transform="translate(28.5 292.5)" fill="#3f62ac" font-size="13" font-family="GothamRounded-Medium, Gotham Rounded" font-weight="500"><tspan x="0" y="0">SA, SUN</tspan></text>
    <g id="Group_5005" data-name="Group 5005" transform="translate(0 127.869)">
      <g id="Group_5120" data-name="Group 5120" transform="translate(0 -108)">
        <g id="Group_4726" data-name="Group 4726" transform="translate(0 -1)">
          <g transform="matrix(1, 0, 0, 1, 0, -18.87)" filter="url(#Rectangle)">
            <path id="Rectangle-2" data-name="Rectangle" d="M12,0H363a12,12,0,0,1,12,12V90a0,0,0,0,1,0,0H0a0,0,0,0,1,0,0V12A12,12,0,0,1,12,0Z" transform="translate(0 739.87)" fill="#fff"/>
          </g>
          <g id="Group_3778" data-name="Group 3778" transform="translate(187.5 738)">
            <g id="Group_3767" data-name="Group 3767">
              <rect id="textbox-3" data-name="textbox" width="170" height="40" rx="10" fill="#3f62ac"/>
              <text id="Book_now" data-name="Book now" transform="translate(85.937 25.102)" fill="#fff" font-size="14" font-family="GothamRounded-Medium, Gotham Rounded" font-weight="500"><tspan x="-35.217" y="0">Book now</tspan></text>
            </g>
          </g>
        </g>
        <g id="Group_4866" data-name="Group 4866">
          <text id="_12.30_person" data-name="$ 12.30 person" transform="translate(80 763.001)" fill="#3f62ac" font-size="18" font-family="GothamRounded-Bold, Gotham Rounded" font-weight="700"><tspan x="-63.012" y="0">$ 12.30</tspan><tspan y="0" font-size="16"> </tspan><tspan y="0" fill="#2f4246" font-size="16">person</tspan></text>
        </g>
      </g>
    </g>
  </g>
</svg>
