<svg xmlns="http://www.w3.org/2000/svg" xmlns:xlink="http://www.w3.org/1999/xlink" width="375" height="811" viewBox="0 0 375 811">
  <defs>
    <filter id="textbox" x="-20.5" y="208.996" width="237" height="137" filterUnits="userSpaceOnUse">
      <feOffset dy="4" input="SourceAlpha"/>
      <feGaussianBlur stdDeviation="16" result="blur"/>
      <feFlood flood-color="#5b4dbc" flood-opacity="0.078"/>
      <feComposite operator="in" in2="blur"/>
      <feComposite in="SourceGraphic"/>
    </filter>
    <filter id="textbox-2" x="154.5" y="208.996" width="237" height="137" filterUnits="userSpaceOnUse">
      <feOffset dy="4" input="SourceAlpha"/>
      <feGaussianBlur stdDeviation="16" result="blur-2"/>
      <feFlood flood-color="#5b4dbc" flood-opacity="0.078"/>
      <feComposite operator="in" in2="blur-2"/>
      <feComposite in="SourceGraphic"/>
    </filter>
    <filter id="slider_dot_MIN_" x="22" y="311.734" width="26" height="26" filterUnits="userSpaceOnUse">
      <feOffset dy="2" input="SourceAlpha"/>
      <feGaussianBlur stdDeviation="2" result="blur-3"/>
      <feFlood flood-color="#1a0b38" flood-opacity="0.302"/>
      <feComposite operator="in" in2="blur-3"/>
      <feComposite in="SourceGraphic"/>
    </filter>
    <filter id="slider_dot_MAX" x="22" y="308.734" width="32" height="32" filterUnits="userSpaceOnUse">
      <feOffset dy="2" input="SourceAlpha"/>
      <feGaussianBlur stdDeviation="2" result="blur-4"/>
      <feFlood flood-color="#1a0b38" flood-opacity="0.302"/>
      <feComposite operator="in" in2="blur-4"/>
      <feComposite in="SourceGraphic"/>
    </filter>
    <filter id="slider_dot_MIN_2" x="54" y="311.734" width="26" height="26" filterUnits="userSpaceOnUse">
      <feOffset dy="2" input="SourceAlpha"/>
      <feGaussianBlur stdDeviation="2" result="blur-5"/>
      <feFlood flood-color="#1a0b38" flood-opacity="0.302"/>
      <feComposite operator="in" in2="blur-5"/>
      <feComposite in="SourceGraphic"/>
    </filter>
    <filter id="slider_dot_MAX-2" x="54" y="308.734" width="32" height="32" filterUnits="userSpaceOnUse">
      <feOffset dy="2" input="SourceAlpha"/>
      <feGaussianBlur stdDeviation="2" result="blur-6"/>
      <feFlood flood-color="#1a0b38" flood-opacity="0.302"/>
      <feComposite operator="in" in2="blur-6"/>
      <feComposite in="SourceGraphic"/>
    </filter>
    <clipPath id="clip-path">
      <rect id="Rectangle_1863" data-name="Rectangle 1863" width="57" height="17" transform="translate(44 150)" fill="none" stroke="#707070" stroke-width="1"/>
    </clipPath>
    <filter id="Rectangle" x="-15" y="718" width="405" height="120" filterUnits="userSpaceOnUse">
      <feOffset dy="-5" input="SourceAlpha"/>
      <feGaussianBlur stdDeviation="5" result="blur-7"/>
      <feFlood flood-opacity="0.11"/>
      <feComposite operator="in" in2="blur-7"/>
      <feComposite in="SourceGraphic"/>
    </filter>
    <clipPath id="clip-_1.1.1_Filters_-_applied">
      <rect width="375" height="811"/>
    </clipPath>
  </defs>
  <g id="_1.1.1_Filters_-_applied" data-name="1.1.1 Filters - applied" clip-path="url(#clip-_1.1.1_Filters_-_applied)">
    <rect width="375" height="811" fill="#fff"/>
    <path id="Path_4894" data-name="Path 4894" d="M.756-.936A1.014,1.014,0,0,0,1.782.09a1.065,1.065,0,0,0,1.026-.7L3.87-3.042H9.99L11.016-.684A1.141,1.141,0,0,0,12.1.09,1.038,1.038,0,0,0,13.14-.972a.964.964,0,0,0-.126-.468L8.334-11.88a1.381,1.381,0,0,0-1.314-.9H6.912a1.4,1.4,0,0,0-1.332.9L.9-1.44A1.134,1.134,0,0,0,.756-.936ZM4.716-5,6.93-10.1,9.144-5ZM19.584-.774l3.168-7.272a1.306,1.306,0,0,0,.126-.522,1.038,1.038,0,0,0-1.062-1.044,1.084,1.084,0,0,0-1.026.756L18.306-2.52l-2.448-6.3a1.1,1.1,0,0,0-1.08-.792A1.089,1.089,0,0,0,13.7-8.568a1.7,1.7,0,0,0,.126.54L16.992-.774A1.352,1.352,0,0,0,18.234.18h.108A1.377,1.377,0,0,0,19.584-.774ZM27.4.2a3.863,3.863,0,0,0,3.1-1.386v.36A.984.984,0,0,0,31.554.09,1.038,1.038,0,0,0,32.616-.954v-4.68A3.944,3.944,0,0,0,31.59-8.568,4.259,4.259,0,0,0,28.44-9.63a8.147,8.147,0,0,0-3.06.558.951.951,0,0,0-.594.864.907.907,0,0,0,.918.9,1.223,1.223,0,0,0,.342-.054,5.644,5.644,0,0,1,2.106-.378c1.53,0,2.358.72,2.358,2.07v.234a7.94,7.94,0,0,0-2.556-.4c-2.322,0-3.924,1.008-3.924,3.06v.036C24.03-.828,25.614.2,27.4.2Zm.612-1.584c-1.044,0-1.854-.522-1.854-1.44v-.036c0-.99.828-1.584,2.232-1.584a6.038,6.038,0,0,1,2.16.378v.648C30.546-2.214,29.448-1.386,28.008-1.386ZM35.19-11.952a1.127,1.127,0,0,0,1.242,1.08,1.127,1.127,0,0,0,1.242-1.08v-.108a1.114,1.114,0,0,0-1.242-1.062A1.114,1.114,0,0,0,35.19-12.06ZM35.352-.99A1.072,1.072,0,0,0,36.432.09a1.076,1.076,0,0,0,1.1-1.08V-8.514a1.091,1.091,0,0,0-1.1-1.1,1.076,1.076,0,0,0-1.08,1.1Zm5.148,0A1.072,1.072,0,0,0,41.58.09a1.076,1.076,0,0,0,1.1-1.08V-12.15a1.087,1.087,0,0,0-1.1-1.08,1.072,1.072,0,0,0-1.08,1.08ZM48.258.2a3.863,3.863,0,0,0,3.1-1.386v.36A.984.984,0,0,0,52.416.09,1.038,1.038,0,0,0,53.478-.954v-4.68a3.944,3.944,0,0,0-1.026-2.934A4.259,4.259,0,0,0,49.3-9.63a8.147,8.147,0,0,0-3.06.558.951.951,0,0,0-.594.864.907.907,0,0,0,.918.9,1.223,1.223,0,0,0,.342-.054,5.644,5.644,0,0,1,2.106-.378c1.53,0,2.358.72,2.358,2.07v.234a7.94,7.94,0,0,0-2.556-.4c-2.322,0-3.924,1.008-3.924,3.06v.036C44.892-.828,46.476.2,48.258.2Zm.612-1.584c-1.044,0-1.854-.522-1.854-1.44v-.036c0-.99.828-1.584,2.232-1.584a6.038,6.038,0,0,1,2.16.378v.648C51.408-2.214,50.31-1.386,48.87-1.386Zm7.218.4A1.083,1.083,0,0,0,57.168.09a1.087,1.087,0,0,0,1.1-1.08v-.486A3.882,3.882,0,0,0,61.506.2c2.25,0,4.41-1.782,4.41-4.932V-4.77c0-3.168-2.178-4.932-4.41-4.932a3.8,3.8,0,0,0-3.24,1.782v-4.23a1.076,1.076,0,0,0-1.1-1.08,1.061,1.061,0,0,0-1.08,1.08Zm4.9-.7a2.866,2.866,0,0,1-2.772-3.042V-4.77a2.866,2.866,0,0,1,2.772-3.042A2.814,2.814,0,0,1,63.7-4.77v.036A2.783,2.783,0,0,1,60.984-1.692Zm7.308.7A1.072,1.072,0,0,0,69.372.09a1.076,1.076,0,0,0,1.1-1.08V-12.15a1.087,1.087,0,0,0-1.1-1.08,1.072,1.072,0,0,0-1.08,1.08Zm6.66-4.428a2.572,2.572,0,0,1,2.466-2.5,2.467,2.467,0,0,1,2.412,2.5ZM81.09-1.044a.951.951,0,0,0,.288-.666.857.857,0,0,0-.864-.882.811.811,0,0,0-.558.2,3.416,3.416,0,0,1-2.25.828A2.653,2.653,0,0,1,74.97-3.978h5.958a1.018,1.018,0,0,0,1.026-1.044A4.5,4.5,0,0,0,77.436-9.7a4.717,4.717,0,0,0-4.644,4.95v.036A4.742,4.742,0,0,0,77.67.216,4.88,4.88,0,0,0,81.09-1.044Zm8.982.054A1.083,1.083,0,0,0,91.152.09a1.087,1.087,0,0,0,1.1-1.08V-7.632h1.656a.907.907,0,0,0,.918-.9.9.9,0,0,0-.918-.9H92.214v-.522c0-.99.432-1.44,1.26-1.44a3.506,3.506,0,0,1,.45.036.9.9,0,0,0,.918-.9.9.9,0,0,0-.756-.9,6.279,6.279,0,0,0-1.1-.09,2.878,2.878,0,0,0-2.142.756,3.212,3.212,0,0,0-.774,2.34v.7h-.378a.922.922,0,0,0-.918.918.907.907,0,0,0,.918.9h.378ZM100.692.216a4.969,4.969,0,0,0,5.094-4.95V-4.77A4.923,4.923,0,0,0,100.728-9.7a4.968,4.968,0,0,0-5.076,4.968V-4.7A4.915,4.915,0,0,0,100.692.216Zm.036-1.908a2.929,2.929,0,0,1-2.9-3.042V-4.77a2.853,2.853,0,0,1,2.862-3.024,2.938,2.938,0,0,1,2.916,3.06V-4.7A2.851,2.851,0,0,1,100.728-1.692ZM108-.99A1.072,1.072,0,0,0,109.08.09a1.087,1.087,0,0,0,1.1-1.08V-3.8c0-2.25,1.062-3.438,2.61-3.708a1.022,1.022,0,0,0,.864-1.044,1.011,1.011,0,0,0-1.08-1.08,3.021,3.021,0,0,0-2.394,2.088v-.972a1.091,1.091,0,0,0-1.1-1.1,1.076,1.076,0,0,0-1.08,1.1Z" transform="matrix(1, 0, 0, 1, 16, 374.34)"/>
    <path id="Path_4895" data-name="Path 4895" d="M1.62-1.116A1.1,1.1,0,0,0,2.736,0H6.318c3.96,0,6.7-2.754,6.7-6.3v-.036c0-3.546-2.736-6.264-6.7-6.264H2.736A1.1,1.1,0,0,0,1.62-11.484Zm2.214-.9v-8.568H6.318A4.135,4.135,0,0,1,10.692-6.3v.036A4.107,4.107,0,0,1,6.318-2.016Zm20.052-6.5a1.1,1.1,0,0,0-1.1-1.1,1.091,1.091,0,0,0-1.1,1.1V-4.14A2.1,2.1,0,0,1,19.548-1.8c-1.3,0-2.034-.828-2.034-2.3v-4.41a1.091,1.091,0,0,0-1.1-1.1,1.087,1.087,0,0,0-1.08,1.1v5.058C15.336-1.242,16.578.2,18.72.2a3.42,3.42,0,0,0,2.97-1.674V-.99a1.087,1.087,0,0,0,1.1,1.08,1.087,1.087,0,0,0,1.1-1.08ZM26.6-.99A1.072,1.072,0,0,0,27.684.09a1.087,1.087,0,0,0,1.1-1.08V-3.8c0-2.25,1.062-3.438,2.61-3.708a1.022,1.022,0,0,0,.864-1.044,1.011,1.011,0,0,0-1.08-1.08,3.021,3.021,0,0,0-2.394,2.088v-.972a1.091,1.091,0,0,0-1.1-1.1,1.076,1.076,0,0,0-1.08,1.1ZM36.324.2a3.863,3.863,0,0,0,3.1-1.386v.36A.984.984,0,0,0,40.482.09,1.038,1.038,0,0,0,41.544-.954v-4.68a3.944,3.944,0,0,0-1.026-2.934,4.259,4.259,0,0,0-3.15-1.062,8.147,8.147,0,0,0-3.06.558.951.951,0,0,0-.594.864.907.907,0,0,0,.918.9,1.223,1.223,0,0,0,.342-.054A5.644,5.644,0,0,1,37.08-7.74c1.53,0,2.358.72,2.358,2.07v.234a7.94,7.94,0,0,0-2.556-.4c-2.322,0-3.924,1.008-3.924,3.06v.036C32.958-.828,34.542.2,36.324.2Zm.612-1.584c-1.044,0-1.854-.522-1.854-1.44v-.036c0-.99.828-1.584,2.232-1.584a6.038,6.038,0,0,1,2.16.378v.648C39.474-2.214,38.376-1.386,36.936-1.386ZM47.25.162A4.333,4.333,0,0,0,48.744-.09a.937.937,0,0,0,.576-.846.918.918,0,0,0-.918-.9,5.149,5.149,0,0,1-.54.054,1.037,1.037,0,0,1-1.17-1.188V-7.632H48.4a.945.945,0,0,0,.954-.936A.945.945,0,0,0,48.4-9.5h-1.71v-1.62a1.083,1.083,0,0,0-1.08-1.08,1.087,1.087,0,0,0-1.1,1.08V-9.5h-.36a.93.93,0,0,0-.936.936.93.93,0,0,0,.936.936h.36v5C44.514-.54,45.648.162,47.25.162Zm4.176-12.114a1.127,1.127,0,0,0,1.242,1.08,1.127,1.127,0,0,0,1.242-1.08v-.108a1.114,1.114,0,0,0-1.242-1.062,1.114,1.114,0,0,0-1.242,1.062ZM51.588-.99A1.072,1.072,0,0,0,52.668.09a1.076,1.076,0,0,0,1.1-1.08V-8.514a1.091,1.091,0,0,0-1.1-1.1,1.076,1.076,0,0,0-1.08,1.1ZM61.128.216a4.969,4.969,0,0,0,5.094-4.95V-4.77A4.923,4.923,0,0,0,61.164-9.7a4.968,4.968,0,0,0-5.076,4.968V-4.7A4.915,4.915,0,0,0,61.128.216Zm.036-1.908a2.929,2.929,0,0,1-2.9-3.042V-4.77a2.853,2.853,0,0,1,2.862-3.024,2.938,2.938,0,0,1,2.916,3.06V-4.7A2.851,2.851,0,0,1,61.164-1.692Zm7.272.7A1.072,1.072,0,0,0,69.516.09a1.076,1.076,0,0,0,1.1-1.08V-5.364a2.114,2.114,0,0,1,2.142-2.358c1.3,0,2.034.846,2.034,2.322V-.99a1.076,1.076,0,0,0,1.1,1.08,1.061,1.061,0,0,0,1.08-1.08V-6.066c0-2.2-1.242-3.636-3.384-3.636a3.445,3.445,0,0,0-2.97,1.656v-.468a1.091,1.091,0,0,0-1.1-1.1,1.076,1.076,0,0,0-1.08,1.1Z" transform="matrix(1, 0, 0, 1, 16, 464.913)"/>
    <path id="Path_4901" data-name="Path 4901" d="M1.62-1.116A1.1,1.1,0,0,0,2.736,0H6.318c3.96,0,6.7-2.754,6.7-6.3v-.036c0-3.546-2.736-6.264-6.7-6.264H2.736A1.1,1.1,0,0,0,1.62-11.484Zm2.214-.9v-8.568H6.318A4.135,4.135,0,0,1,10.692-6.3v.036A4.107,4.107,0,0,1,6.318-2.016Zm11.574-9.936a1.127,1.127,0,0,0,1.242,1.08,1.127,1.127,0,0,0,1.242-1.08v-.108a1.114,1.114,0,0,0-1.242-1.062,1.114,1.114,0,0,0-1.242,1.062ZM15.57-.99A1.072,1.072,0,0,0,16.65.09a1.076,1.076,0,0,0,1.1-1.08V-8.514a1.091,1.091,0,0,0-1.1-1.1,1.076,1.076,0,0,0-1.08,1.1ZM34.092-11.952a1.127,1.127,0,0,0,1.242,1.08,1.127,1.127,0,0,0,1.242-1.08v-.108a1.114,1.114,0,0,0-1.242-1.062,1.114,1.114,0,0,0-1.242,1.062ZM34.254-.99A1.072,1.072,0,0,0,35.334.09a1.076,1.076,0,0,0,1.1-1.08V-8.514a1.091,1.091,0,0,0-1.1-1.1,1.076,1.076,0,0,0-1.08,1.1Zm-13.176,0A1.083,1.083,0,0,0,22.158.09a1.087,1.087,0,0,0,1.1-1.08V-7.632h1.656a.907.907,0,0,0,.918-.9.9.9,0,0,0-.918-.9H23.22v-.522c0-.99.432-1.44,1.26-1.44a3.506,3.506,0,0,1,.45.036.9.9,0,0,0,.918-.9.9.9,0,0,0-.756-.9,6.279,6.279,0,0,0-1.1-.09,2.878,2.878,0,0,0-2.142.756,3.212,3.212,0,0,0-.774,2.34v.7H20.7a.922.922,0,0,0-.918.918.907.907,0,0,0,.918.9h.378Zm6.768,0A1.083,1.083,0,0,0,28.926.09a1.087,1.087,0,0,0,1.1-1.08V-7.632H31.68a.907.907,0,0,0,.918-.9.9.9,0,0,0-.918-.9H29.988v-.522c0-.99.432-1.44,1.26-1.44a3.507,3.507,0,0,1,.45.036.9.9,0,0,0,.918-.9.9.9,0,0,0-.756-.9,6.279,6.279,0,0,0-1.1-.09,2.878,2.878,0,0,0-2.142.756,3.212,3.212,0,0,0-.774,2.34v.7h-.378a.922.922,0,0,0-.918.918.907.907,0,0,0,.918.9h.378ZM43.668.216a4.652,4.652,0,0,0,3.456-1.35.849.849,0,0,0,.306-.684.945.945,0,0,0-.936-.954.947.947,0,0,0-.594.234,3.172,3.172,0,0,1-2.124.846,2.876,2.876,0,0,1-2.844-3.042V-4.77a2.866,2.866,0,0,1,2.754-3.024,3.014,3.014,0,0,1,2.034.81,1.11,1.11,0,0,0,.648.216.991.991,0,0,0,1.008-.99,1.033,1.033,0,0,0-.342-.756A4.811,4.811,0,0,0,43.7-9.7a4.905,4.905,0,0,0-4.95,4.968V-4.7A4.852,4.852,0,0,0,43.668.216ZM58-8.514a1.1,1.1,0,0,0-1.1-1.1,1.091,1.091,0,0,0-1.1,1.1V-4.14A2.1,2.1,0,0,1,53.658-1.8c-1.3,0-2.034-.828-2.034-2.3v-4.41a1.091,1.091,0,0,0-1.1-1.1,1.087,1.087,0,0,0-1.08,1.1v5.058C49.446-1.242,50.688.2,52.83.2A3.42,3.42,0,0,0,55.8-1.476V-.99A1.087,1.087,0,0,0,56.9.09,1.087,1.087,0,0,0,58-.99ZM60.84-.99A1.072,1.072,0,0,0,61.92.09a1.076,1.076,0,0,0,1.1-1.08V-12.15a1.087,1.087,0,0,0-1.1-1.08,1.072,1.072,0,0,0-1.08,1.08ZM69.048.162A4.333,4.333,0,0,0,70.542-.09a.937.937,0,0,0,.576-.846.918.918,0,0,0-.918-.9,5.149,5.149,0,0,1-.54.054A1.037,1.037,0,0,1,68.49-2.97V-7.632H70.2a.945.945,0,0,0,.954-.936A.945.945,0,0,0,70.2-9.5H68.49v-1.62a1.083,1.083,0,0,0-1.08-1.08,1.087,1.087,0,0,0-1.1,1.08V-9.5h-.36a.93.93,0,0,0-.936.936.93.93,0,0,0,.936.936h.36v5C66.312-.54,67.446.162,69.048.162Zm5.94,2.772c1.53,0,2.394-.72,3.2-2.664l3.474-8.334a1.953,1.953,0,0,0,.09-.522,1.03,1.03,0,0,0-1.044-1.026,1.118,1.118,0,0,0-1.044.828L77.292-2.466,74.736-8.784a1.093,1.093,0,0,0-1.062-.828,1.046,1.046,0,0,0-1.08,1.062,1.47,1.47,0,0,0,.126.522L76.248-.144l-.072.2c-.36.738-.7,1.008-1.35,1.008A2.462,2.462,0,0,1,74.07.936a1.111,1.111,0,0,0-.4-.072.876.876,0,0,0-.882.9.928.928,0,0,0,.684.9A3.847,3.847,0,0,0,74.988,2.934Z" transform="matrix(1, 0, 0, 1, 16, 683.688)"/>
    <path id="Path_4904" data-name="Path 4904" d="M1.62-1.116A1.1,1.1,0,0,0,2.736,0h6.8a1.006,1.006,0,0,0,1.008-1.008A1.006,1.006,0,0,0,9.54-2.016H3.834v-9.576a1.091,1.091,0,0,0-1.1-1.1,1.1,1.1,0,0,0-1.116,1.1ZM16.848.216a4.969,4.969,0,0,0,5.094-4.95V-4.77A4.923,4.923,0,0,0,16.884-9.7a4.968,4.968,0,0,0-5.076,4.968V-4.7A4.915,4.915,0,0,0,16.848.216Zm.036-1.908a2.929,2.929,0,0,1-2.9-3.042V-4.77a2.853,2.853,0,0,1,2.862-3.024,2.938,2.938,0,0,1,2.916,3.06V-4.7A2.851,2.851,0,0,1,16.884-1.692ZM28.548.216A4.652,4.652,0,0,0,32-1.134a.849.849,0,0,0,.306-.684.945.945,0,0,0-.936-.954.947.947,0,0,0-.594.234,3.172,3.172,0,0,1-2.124.846,2.876,2.876,0,0,1-2.844-3.042V-4.77a2.866,2.866,0,0,1,2.754-3.024,3.014,3.014,0,0,1,2.034.81,1.11,1.11,0,0,0,.648.216.991.991,0,0,0,1.008-.99,1.033,1.033,0,0,0-.342-.756A4.811,4.811,0,0,0,28.584-9.7a4.905,4.905,0,0,0-4.95,4.968V-4.7A4.852,4.852,0,0,0,28.548.216ZM37.17.2a3.863,3.863,0,0,0,3.1-1.386v.36A.984.984,0,0,0,41.328.09,1.038,1.038,0,0,0,42.39-.954v-4.68a3.944,3.944,0,0,0-1.026-2.934,4.259,4.259,0,0,0-3.15-1.062,8.147,8.147,0,0,0-3.06.558.951.951,0,0,0-.594.864.907.907,0,0,0,.918.9,1.223,1.223,0,0,0,.342-.054,5.644,5.644,0,0,1,2.106-.378c1.53,0,2.358.72,2.358,2.07v.234a7.94,7.94,0,0,0-2.556-.4c-2.322,0-3.924,1.008-3.924,3.06v.036C33.8-.828,35.388.2,37.17.2Zm.612-1.584c-1.044,0-1.854-.522-1.854-1.44v-.036c0-.99.828-1.584,2.232-1.584a6.038,6.038,0,0,1,2.16.378v.648C40.32-2.214,39.222-1.386,37.782-1.386ZM48.1.162A4.333,4.333,0,0,0,49.59-.09a.937.937,0,0,0,.576-.846.918.918,0,0,0-.918-.9,5.149,5.149,0,0,1-.54.054,1.037,1.037,0,0,1-1.17-1.188V-7.632h1.71a.945.945,0,0,0,.954-.936.945.945,0,0,0-.954-.936h-1.71v-1.62a1.083,1.083,0,0,0-1.08-1.08,1.087,1.087,0,0,0-1.1,1.08V-9.5H45a.93.93,0,0,0-.936.936A.93.93,0,0,0,45-7.632h.36v5C45.36-.54,46.494.162,48.1.162Zm4.176-12.114a1.127,1.127,0,0,0,1.242,1.08,1.127,1.127,0,0,0,1.242-1.08v-.108a1.114,1.114,0,0,0-1.242-1.062,1.114,1.114,0,0,0-1.242,1.062ZM52.434-.99A1.072,1.072,0,0,0,53.514.09a1.076,1.076,0,0,0,1.1-1.08V-8.514a1.091,1.091,0,0,0-1.1-1.1,1.076,1.076,0,0,0-1.08,1.1ZM61.974.216a4.969,4.969,0,0,0,5.094-4.95V-4.77A4.923,4.923,0,0,0,62.01-9.7a4.968,4.968,0,0,0-5.076,4.968V-4.7A4.915,4.915,0,0,0,61.974.216Zm.036-1.908a2.929,2.929,0,0,1-2.9-3.042V-4.77a2.853,2.853,0,0,1,2.862-3.024,2.938,2.938,0,0,1,2.916,3.06V-4.7A2.851,2.851,0,0,1,62.01-1.692Zm7.272.7A1.072,1.072,0,0,0,70.362.09a1.076,1.076,0,0,0,1.1-1.08V-5.364A2.114,2.114,0,0,1,73.6-7.722c1.3,0,2.034.846,2.034,2.322V-.99a1.076,1.076,0,0,0,1.1,1.08,1.061,1.061,0,0,0,1.08-1.08V-6.066c0-2.2-1.242-3.636-3.384-3.636a3.445,3.445,0,0,0-2.97,1.656v-.468a1.091,1.091,0,0,0-1.1-1.1,1.076,1.076,0,0,0-1.08,1.1Z" transform="matrix(1, 0, 0, 1, 16, 793.054)"/>
    <path id="Path_4898" data-name="Path 4898" d="M1.62-1.008A1.1,1.1,0,0,0,2.736.09a1.091,1.091,0,0,0,1.1-1.1V-4.05h2.5c2.772,0,5.04-1.476,5.04-4.3v-.036c0-2.538-1.836-4.212-4.788-4.212H2.736A1.1,1.1,0,0,0,1.62-11.484Zm2.214-5.04v-4.536H6.408c1.656,0,2.718.774,2.718,2.25V-8.3c0,1.314-1.044,2.25-2.718,2.25ZM15.948.2a3.863,3.863,0,0,0,3.1-1.386v.36A.984.984,0,0,0,20.106.09,1.038,1.038,0,0,0,21.168-.954v-4.68a3.944,3.944,0,0,0-1.026-2.934,4.259,4.259,0,0,0-3.15-1.062,8.147,8.147,0,0,0-3.06.558.951.951,0,0,0-.594.864.907.907,0,0,0,.918.9,1.223,1.223,0,0,0,.342-.054A5.644,5.644,0,0,1,16.7-7.74c1.53,0,2.358.72,2.358,2.07v.234a7.94,7.94,0,0,0-2.556-.4c-2.322,0-3.924,1.008-3.924,3.06v.036C12.582-.828,14.166.2,15.948.2Zm.612-1.584c-1.044,0-1.854-.522-1.854-1.44v-.036c0-.99.828-1.584,2.232-1.584a6.038,6.038,0,0,1,2.16.378v.648C19.1-2.214,18-1.386,16.56-1.386Zm7.218.4A1.072,1.072,0,0,0,24.858.09a1.087,1.087,0,0,0,1.1-1.08V-3.8c0-2.25,1.062-3.438,2.61-3.708A1.022,1.022,0,0,0,29.43-8.55a1.011,1.011,0,0,0-1.08-1.08,3.021,3.021,0,0,0-2.394,2.088v-.972a1.091,1.091,0,0,0-1.1-1.1,1.076,1.076,0,0,0-1.08,1.1ZM34.4.162A4.333,4.333,0,0,0,35.892-.09a.937.937,0,0,0,.576-.846.918.918,0,0,0-.918-.9,5.149,5.149,0,0,1-.54.054A1.037,1.037,0,0,1,33.84-2.97V-7.632h1.71a.945.945,0,0,0,.954-.936A.945.945,0,0,0,35.55-9.5H33.84v-1.62a1.083,1.083,0,0,0-1.08-1.08,1.087,1.087,0,0,0-1.1,1.08V-9.5H31.3a.93.93,0,0,0-.936.936.93.93,0,0,0,.936.936h.36v5C31.662-.54,32.8.162,34.4.162Zm4.176-12.114a1.127,1.127,0,0,0,1.242,1.08,1.127,1.127,0,0,0,1.242-1.08v-.108a1.114,1.114,0,0,0-1.242-1.062,1.114,1.114,0,0,0-1.242,1.062ZM38.736-.99A1.072,1.072,0,0,0,39.816.09a1.076,1.076,0,0,0,1.1-1.08V-8.514a1.091,1.091,0,0,0-1.1-1.1,1.076,1.076,0,0,0-1.08,1.1ZM48.15.216a4.652,4.652,0,0,0,3.456-1.35.849.849,0,0,0,.306-.684.945.945,0,0,0-.936-.954.947.947,0,0,0-.594.234,3.172,3.172,0,0,1-2.124.846,2.876,2.876,0,0,1-2.844-3.042V-4.77a2.866,2.866,0,0,1,2.754-3.024,3.014,3.014,0,0,1,2.034.81,1.11,1.11,0,0,0,.648.216.991.991,0,0,0,1.008-.99,1.033,1.033,0,0,0-.342-.756A4.811,4.811,0,0,0,48.186-9.7a4.905,4.905,0,0,0-4.95,4.968V-4.7A4.852,4.852,0,0,0,48.15.216ZM54-11.952a1.127,1.127,0,0,0,1.242,1.08,1.127,1.127,0,0,0,1.242-1.08v-.108a1.114,1.114,0,0,0-1.242-1.062A1.114,1.114,0,0,0,54-12.06ZM54.162-.99A1.072,1.072,0,0,0,55.242.09a1.076,1.076,0,0,0,1.1-1.08V-8.514a1.091,1.091,0,0,0-1.1-1.1,1.076,1.076,0,0,0-1.08,1.1Zm5.022,2.88a1.089,1.089,0,0,0,2.178,0V-1.476A3.882,3.882,0,0,0,64.6.2c2.25,0,4.41-1.782,4.41-4.932V-4.77c0-3.168-2.178-4.932-4.41-4.932a3.8,3.8,0,0,0-3.24,1.782v-.594a1.091,1.091,0,0,0-1.1-1.1,1.076,1.076,0,0,0-1.08,1.1Zm4.9-3.582a2.866,2.866,0,0,1-2.772-3.042V-4.77A2.866,2.866,0,0,1,64.08-7.812,2.814,2.814,0,0,1,66.8-4.77v.036A2.783,2.783,0,0,1,64.08-1.692ZM74,.2a3.863,3.863,0,0,0,3.1-1.386v.36A.984.984,0,0,0,78.156.09,1.038,1.038,0,0,0,79.218-.954v-4.68a3.944,3.944,0,0,0-1.026-2.934,4.259,4.259,0,0,0-3.15-1.062,8.147,8.147,0,0,0-3.06.558.951.951,0,0,0-.594.864.907.907,0,0,0,.918.9,1.223,1.223,0,0,0,.342-.054,5.644,5.644,0,0,1,2.106-.378c1.53,0,2.358.72,2.358,2.07v.234a7.94,7.94,0,0,0-2.556-.4c-2.322,0-3.924,1.008-3.924,3.06v.036C70.632-.828,72.216.2,74,.2Zm.612-1.584c-1.044,0-1.854-.522-1.854-1.44v-.036c0-.99.828-1.584,2.232-1.584a6.038,6.038,0,0,1,2.16.378v.648C77.148-2.214,76.05-1.386,74.61-1.386Zm7.218.4A1.072,1.072,0,0,0,82.908.09a1.076,1.076,0,0,0,1.1-1.08V-5.364a2.114,2.114,0,0,1,2.142-2.358c1.3,0,2.034.846,2.034,2.322V-.99A1.076,1.076,0,0,0,89.28.09,1.061,1.061,0,0,0,90.36-.99V-6.066c0-2.2-1.242-3.636-3.384-3.636a3.445,3.445,0,0,0-2.97,1.656v-.468a1.091,1.091,0,0,0-1.1-1.1,1.076,1.076,0,0,0-1.08,1.1ZM96.174.162A4.333,4.333,0,0,0,97.668-.09a.937.937,0,0,0,.576-.846.918.918,0,0,0-.918-.9,5.149,5.149,0,0,1-.54.054,1.037,1.037,0,0,1-1.17-1.188V-7.632h1.71a.945.945,0,0,0,.954-.936.945.945,0,0,0-.954-.936h-1.71v-1.62a1.083,1.083,0,0,0-1.08-1.08,1.087,1.087,0,0,0-1.1,1.08V-9.5h-.36a.93.93,0,0,0-.936.936.93.93,0,0,0,.936.936h.36v5C93.438-.54,94.572.162,96.174.162Zm7.47.018c1.98,0,3.528-.99,3.528-2.988v-.036c0-1.71-1.566-2.34-2.952-2.772-1.116-.36-2.142-.648-2.142-1.35V-7c0-.54.486-.936,1.332-.936a5.184,5.184,0,0,1,2.232.648.855.855,0,0,0,.432.108.876.876,0,0,0,.9-.882.924.924,0,0,0-.522-.828,6.533,6.533,0,0,0-2.988-.774c-1.89,0-3.384,1.1-3.384,2.9v.036c0,1.818,1.566,2.394,2.97,2.79,1.116.342,2.124.594,2.124,1.332v.036c0,.63-.54,1.026-1.476,1.026a5.017,5.017,0,0,1-2.736-.918.95.95,0,0,0-.468-.126.872.872,0,0,0-.882.882.835.835,0,0,0,.414.756A6.5,6.5,0,0,0,103.644.18Z" transform="matrix(1, 0, 0, 1, 16, 569.912)"/>
    <path id="Path_4891" data-name="Path 4891" d="M1.62-1.008A1.1,1.1,0,0,0,2.736.09a1.091,1.091,0,0,0,1.1-1.1V-4.05h2.5c2.772,0,5.04-1.476,5.04-4.3v-.036c0-2.538-1.836-4.212-4.788-4.212H2.736A1.1,1.1,0,0,0,1.62-11.484Zm2.214-5.04v-4.536H6.408c1.656,0,2.718.774,2.718,2.25V-8.3c0,1.314-1.044,2.25-2.718,2.25ZM13.392-.99A1.072,1.072,0,0,0,14.472.09a1.087,1.087,0,0,0,1.1-1.08V-3.8c0-2.25,1.062-3.438,2.61-3.708a1.022,1.022,0,0,0,.864-1.044,1.011,1.011,0,0,0-1.08-1.08A3.021,3.021,0,0,0,15.57-7.542v-.972a1.091,1.091,0,0,0-1.1-1.1,1.076,1.076,0,0,0-1.08,1.1Zm7.4-10.962a1.127,1.127,0,0,0,1.242,1.08,1.127,1.127,0,0,0,1.242-1.08v-.108a1.114,1.114,0,0,0-1.242-1.062A1.114,1.114,0,0,0,20.79-12.06ZM20.952-.99A1.072,1.072,0,0,0,22.032.09a1.076,1.076,0,0,0,1.1-1.08V-8.514a1.091,1.091,0,0,0-1.1-1.1,1.076,1.076,0,0,0-1.08,1.1ZM30.366.216a4.652,4.652,0,0,0,3.456-1.35.849.849,0,0,0,.306-.684.945.945,0,0,0-.936-.954.947.947,0,0,0-.594.234,3.172,3.172,0,0,1-2.124.846A2.876,2.876,0,0,1,27.63-4.734V-4.77a2.866,2.866,0,0,1,2.754-3.024,3.014,3.014,0,0,1,2.034.81,1.11,1.11,0,0,0,.648.216.991.991,0,0,0,1.008-.99,1.033,1.033,0,0,0-.342-.756A4.811,4.811,0,0,0,30.4-9.7a4.905,4.905,0,0,0-4.95,4.968V-4.7A4.852,4.852,0,0,0,30.366.216ZM37.62-5.418a2.572,2.572,0,0,1,2.466-2.5,2.467,2.467,0,0,1,2.412,2.5Zm6.138,4.374a.951.951,0,0,0,.288-.666.857.857,0,0,0-.864-.882.811.811,0,0,0-.558.2,3.416,3.416,0,0,1-2.25.828,2.653,2.653,0,0,1-2.736-2.412H43.6a1.018,1.018,0,0,0,1.026-1.044A4.5,4.5,0,0,0,40.1-9.7a4.717,4.717,0,0,0-4.644,4.95v.036A4.742,4.742,0,0,0,40.338.216,4.88,4.88,0,0,0,43.758-1.044Zm8.5.054A1.072,1.072,0,0,0,53.334.09a1.087,1.087,0,0,0,1.1-1.08V-3.8c0-2.25,1.062-3.438,2.61-3.708a1.022,1.022,0,0,0,.864-1.044,1.011,1.011,0,0,0-1.08-1.08,3.021,3.021,0,0,0-2.394,2.088v-.972a1.091,1.091,0,0,0-1.1-1.1,1.076,1.076,0,0,0-1.08,1.1ZM61.974.2a3.863,3.863,0,0,0,3.1-1.386v.36A.984.984,0,0,0,66.132.09,1.038,1.038,0,0,0,67.194-.954v-4.68a3.944,3.944,0,0,0-1.026-2.934,4.259,4.259,0,0,0-3.15-1.062,8.147,8.147,0,0,0-3.06.558.951.951,0,0,0-.594.864.907.907,0,0,0,.918.9,1.223,1.223,0,0,0,.342-.054A5.644,5.644,0,0,1,62.73-7.74c1.53,0,2.358.72,2.358,2.07v.234a7.94,7.94,0,0,0-2.556-.4c-2.322,0-3.924,1.008-3.924,3.06v.036C58.608-.828,60.192.2,61.974.2Zm.612-1.584c-1.044,0-1.854-.522-1.854-1.44v-.036c0-.99.828-1.584,2.232-1.584a6.038,6.038,0,0,1,2.16.378v.648C65.124-2.214,64.026-1.386,62.586-1.386Zm7.218.4A1.072,1.072,0,0,0,70.884.09a1.076,1.076,0,0,0,1.1-1.08V-5.364a2.114,2.114,0,0,1,2.142-2.358c1.3,0,2.034.846,2.034,2.322V-.99a1.076,1.076,0,0,0,1.1,1.08,1.061,1.061,0,0,0,1.08-1.08V-6.066c0-2.2-1.242-3.636-3.384-3.636a3.445,3.445,0,0,0-2.97,1.656v-.468a1.091,1.091,0,0,0-1.1-1.1,1.076,1.076,0,0,0-1.08,1.1Zm15.39,3.906A5.35,5.35,0,0,0,89.1,1.638a4.863,4.863,0,0,0,1.206-3.582v-6.57a1.091,1.091,0,0,0-1.1-1.1,1.083,1.083,0,0,0-1.08,1.08v.45A4.1,4.1,0,0,0,84.8-9.7a4.286,4.286,0,0,0-4.32,4.464V-5.2A4.271,4.271,0,0,0,84.8-.756,3.981,3.981,0,0,0,88.146-2.5v.738c0,1.908-1.062,2.916-3.006,2.916A5.812,5.812,0,0,1,82.224.4a.858.858,0,0,0-.4-.09.918.918,0,0,0-.918.9.892.892,0,0,0,.612.864A8.211,8.211,0,0,0,85.194,2.916Zm.18-5.526a2.588,2.588,0,0,1-2.7-2.61v-.036a2.568,2.568,0,0,1,2.7-2.61,2.654,2.654,0,0,1,2.79,2.61v.036A2.654,2.654,0,0,1,85.374-2.61ZM94.68-5.418a2.572,2.572,0,0,1,2.466-2.5,2.467,2.467,0,0,1,2.412,2.5Zm6.138,4.374a.951.951,0,0,0,.288-.666.857.857,0,0,0-.864-.882.811.811,0,0,0-.558.2,3.416,3.416,0,0,1-2.25.828A2.653,2.653,0,0,1,94.7-3.978h5.958a1.018,1.018,0,0,0,1.026-1.044A4.5,4.5,0,0,0,97.164-9.7a4.717,4.717,0,0,0-4.644,4.95v.036A4.742,4.742,0,0,0,97.4.216,4.88,4.88,0,0,0,100.818-1.044Z" transform="matrix(1, 0, 0, 1, 16, 232.748)"/>
    <g id="Path_4899" data-name="Path 4899" transform="translate(16 590.912)" fill="none">
      <path d="M5,0H338a5,5,0,0,1,5,5V45a5,5,0,0,1-5,5H5a5,5,0,0,1-5-5V5A5,5,0,0,1,5,0Z" stroke="none"/>
      <path d="M 5 1 C 2.794403076171875 1 1 2.794410705566406 1 5 L 1 45 C 1 47.20558929443359 2.794403076171875 49 5 49 L 338 49 C 340.2055969238281 49 342 47.20558929443359 342 45 L 342 5 C 342 2.794410705566406 340.2055969238281 1 338 1 L 5 1 M 5 0 L 338 0 C 340.7614135742188 0 343 2.238590240478516 343 5 L 343 45 C 343 47.76140975952148 340.7614135742188 50 338 50 L 5 50 C 2.23858642578125 50 0 47.76140975952148 0 45 L 0 5 C 0 2.238590240478516 2.23858642578125 0 5 0 Z" stroke="none" fill="#3f62ac"/>
    </g>
    <path id="Search" d="M6.22.24c2.92,0,4.9-1.86,4.9-4.44v-.04c0-2.58-2-3.66-4.12-3.92l3.3-3.42a1.79,1.79,0,0,0,.7-1.34A1.1,1.1,0,0,0,9.78-14H2.62a1.076,1.076,0,0,0-1.08,1.08,1.071,1.071,0,0,0,1.08,1.06H7.7L4.42-8.36a1.4,1.4,0,0,0-.52,1A1.067,1.067,0,0,0,4.96-6.3h.5c1.96,0,3.22.78,3.22,2.16v.04A2.191,2.191,0,0,1,6.26-1.98,4.257,4.257,0,0,1,3.08-3.32a1.18,1.18,0,0,0-.82-.32A1.2,1.2,0,0,0,1.08-2.46a1.182,1.182,0,0,0,.4.88A6.561,6.561,0,0,0,6.22.24Z" transform="translate(30 624.115)"/>
    <path id="Icon_ionic-ios-arrow-down" data-name="Icon ionic-ios-arrow-down" d="M14.982,18.269l6.649-6.654a1.251,1.251,0,0,1,1.775,0,1.267,1.267,0,0,1,0,1.78l-7.533,7.539a1.254,1.254,0,0,1-1.733.037L6.554,13.4a1.257,1.257,0,0,1,1.775-1.78Z" transform="translate(309.23 601.639)" fill="#3f62ac"/>
    <g id="Path_4896" data-name="Path 4896" transform="translate(13.5 479.673)" fill="#fff">
      <path d="M 338 49.5 L 5 49.5 C 2.518681764602661 49.5 0.5 47.48131942749023 0.5 45 L 0.5 5 C 0.5 2.518681764602661 2.518681764602661 0.5 5 0.5 L 338 0.5 C 340.4813232421875 0.5 342.5 2.518681764602661 342.5 5 L 342.5 45 C 342.5 47.48131942749023 340.4813232421875 49.5 338 49.5 Z" stroke="none"/>
      <path d="M 5 1 C 2.794403076171875 1 1 2.794410705566406 1 5 L 1 45 C 1 47.20558929443359 2.794403076171875 49 5 49 L 338 49 C 340.2055969238281 49 342 47.20558929443359 342 45 L 342 5 C 342 2.794410705566406 340.2055969238281 1 338 1 L 5 1 M 5 0 L 338 0 C 340.7614135742188 0 343 2.238590240478516 343 5 L 343 45 C 343 47.76140975952148 340.7614135742188 50 338 50 L 5 50 C 2.23858642578125 50 0 47.76140975952148 0 45 L 0 5 C 0 2.238590240478516 2.23858642578125 0 5 0 Z" stroke="none" fill="#3f62ac"/>
    </g>
    <path id="Search-2" data-name="Search" d="M.6-.812A.827.827,0,0,0,1.526,0H7.084A.753.753,0,0,0,7.84-.756a.753.753,0,0,0-.756-.756H3.108l2.016-1.68C6.86-4.606,7.672-5.446,7.672-6.986v-.028A2.935,2.935,0,0,0,4.438-9.94,3.792,3.792,0,0,0,1.19-8.358a.861.861,0,0,0-.2.532.783.783,0,0,0,.784.784.788.788,0,0,0,.6-.266A2.4,2.4,0,0,1,4.312-8.4,1.469,1.469,0,0,1,5.894-6.874c0,.882-.49,1.512-1.834,2.646L1.05-1.666A1.069,1.069,0,0,0,.6-.812ZM13.986-.77a.834.834,0,0,0,.84.84.837.837,0,0,0,.854-.84v-3.4a1.644,1.644,0,0,1,1.666-1.834c1.008,0,1.582.658,1.582,1.806V-.77a.837.837,0,0,0,.854.84.825.825,0,0,0,.84-.84V-4.718A2.534,2.534,0,0,0,17.99-7.546a2.679,2.679,0,0,0-2.31,1.288V-9.45a.846.846,0,0,0-.854-.84.834.834,0,0,0-.84.84ZM26.25.168a3.865,3.865,0,0,0,3.962-3.85V-3.71a3.829,3.829,0,0,0-3.934-3.836A3.864,3.864,0,0,0,22.33-3.682v.028A3.823,3.823,0,0,0,26.25.168Zm.028-1.484a2.278,2.278,0,0,1-2.254-2.366V-3.71A2.219,2.219,0,0,1,26.25-6.062a2.285,2.285,0,0,1,2.268,2.38v.028A2.218,2.218,0,0,1,26.278-1.316ZM38.57-6.622a.857.857,0,0,0-.854-.854.848.848,0,0,0-.854.854v3.4A1.633,1.633,0,0,1,35.2-1.4c-1.008,0-1.582-.644-1.582-1.792v-3.43a.848.848,0,0,0-.854-.854.846.846,0,0,0-.84.854v3.934A2.538,2.538,0,0,0,34.552.154a2.66,2.66,0,0,0,2.31-1.3V-.77a.845.845,0,0,0,.854.84.846.846,0,0,0,.854-.84ZM40.754-.77a.834.834,0,0,0,.84.84.846.846,0,0,0,.854-.84V-2.954c0-1.75.826-2.674,2.03-2.884a.8.8,0,0,0,.672-.812.786.786,0,0,0-.84-.84,2.35,2.35,0,0,0-1.862,1.624v-.756a.848.848,0,0,0-.854-.854.837.837,0,0,0-.84.854ZM49.14.14c1.54,0,2.744-.77,2.744-2.324v-.028c0-1.33-1.218-1.82-2.3-2.156-.868-.28-1.666-.5-1.666-1.05v-.028c0-.42.378-.728,1.036-.728a4.032,4.032,0,0,1,1.736.5.665.665,0,0,0,.336.084.682.682,0,0,0,.7-.686.718.718,0,0,0-.406-.644A5.081,5.081,0,0,0,49-7.518a2.358,2.358,0,0,0-2.632,2.254v.028c0,1.414,1.218,1.862,2.31,2.17.868.266,1.652.462,1.652,1.036V-2c0,.49-.42.8-1.148.8a3.9,3.9,0,0,1-2.128-.714.739.739,0,0,0-.364-.1A.678.678,0,0,0,46-1.33a.649.649,0,0,0,.322.588A5.052,5.052,0,0,0,49.14.14Z" transform="translate(29.5 517.674)" opacity="0"/>
    <path id="Icon_ionic-ios-arrow-down-2" data-name="Icon ionic-ios-arrow-down" d="M14.982,18.269l6.649-6.654a1.251,1.251,0,0,1,1.775,0,1.267,1.267,0,0,1,0,1.78l-7.533,7.539a1.254,1.254,0,0,1-1.733.037L6.554,13.4a1.257,1.257,0,0,1,1.775-1.78Z" transform="translate(306.73 490.401)" fill="#3f62ac"/>
    <path id="Path_4900" data-name="Path 4900" d="M-15.366.144A4.292,4.292,0,0,0-12.318-.984a.709.709,0,0,0,.24-.528.7.7,0,0,0-.7-.684.672.672,0,0,0-.444.168,3.01,3.01,0,0,1-2.1.8A2.83,2.83,0,0,1-18.09-4.2v-.024a2.827,2.827,0,0,1,2.772-2.964,3.046,3.046,0,0,1,2,.756.721.721,0,0,0,.444.144.717.717,0,0,0,.732-.72.738.738,0,0,0-.288-.588,4.405,4.405,0,0,0-2.88-.948A4.251,4.251,0,0,0-19.638-4.2v.024A4.225,4.225,0,0,0-15.366.144ZM-8.754.132A2.575,2.575,0,0,0-6.69-.792v.24A.656.656,0,0,0-5.982.06a.692.692,0,0,0,.708-.7v-3.12a2.629,2.629,0,0,0-.684-1.956,2.839,2.839,0,0,0-2.1-.708,5.431,5.431,0,0,0-2.04.372.634.634,0,0,0-.4.576.6.6,0,0,0,.612.6.815.815,0,0,0,.228-.036,3.763,3.763,0,0,1,1.4-.252c1.02,0,1.572.48,1.572,1.38v.156a5.293,5.293,0,0,0-1.7-.264C-9.93-3.888-11-3.216-11-1.848v.024A2.024,2.024,0,0,0-8.754.132Zm.408-1.056c-.7,0-1.236-.348-1.236-.96v-.024c0-.66.552-1.056,1.488-1.056a4.025,4.025,0,0,1,1.44.252v.432C-6.654-1.476-7.386-.924-8.346-.924Zm4.812.264a.714.714,0,0,0,.72.72.717.717,0,0,0,.732-.72V-3.576A1.41,1.41,0,0,1-.654-5.148C.21-5.148.7-4.584.7-3.6V-.66a.717.717,0,0,0,.732.72.707.707,0,0,0,.72-.72V-4.044A2.172,2.172,0,0,0-.1-6.468a2.3,2.3,0,0,0-1.98,1.1v-.312a.727.727,0,0,0-.732-.732.717.717,0,0,0-.72.732Zm10.368.8a3.1,3.1,0,0,0,2.3-.9.566.566,0,0,0,.2-.456.63.63,0,0,0-.624-.636.631.631,0,0,0-.4.156,2.115,2.115,0,0,1-1.416.564,1.917,1.917,0,0,1-1.9-2.028V-3.18A1.911,1.911,0,0,1,6.846-5.2a2.01,2.01,0,0,1,1.356.54.74.74,0,0,0,.432.144.661.661,0,0,0,.672-.66.689.689,0,0,0-.228-.5,3.207,3.207,0,0,0-2.22-.792,3.27,3.27,0,0,0-3.3,3.312v.024A3.235,3.235,0,0,0,6.834.144ZM11.67-3.612A1.715,1.715,0,0,1,13.314-5.28a1.645,1.645,0,0,1,1.608,1.668ZM15.762-.7a.634.634,0,0,0,.192-.444.571.571,0,0,0-.576-.588.541.541,0,0,0-.372.132,2.277,2.277,0,0,1-1.5.552,1.769,1.769,0,0,1-1.824-1.608h3.972a.679.679,0,0,0,.684-.7,3,3,0,0,0-3.012-3.12,3.145,3.145,0,0,0-3.1,3.3v.024A3.161,3.161,0,0,0,13.482.144,3.253,3.253,0,0,0,15.762-.7ZM17.91-.66a.714.714,0,0,0,.72.72.717.717,0,0,0,.732-.72V-8.1a.725.725,0,0,0-.732-.72.714.714,0,0,0-.72.72Z" transform="translate(313 509.674)" fill="#ff8282" opacity="0"/>
    <g id="CheckBox_Button" data-name="CheckBox Button" transform="translate(44 476.673)" opacity="0">
      <g id="Group_4917" data-name="Group 4917" transform="translate(1)">
        <g id="Group_4918" data-name="Group 4918">
          <g id="Group_4919" data-name="Group 4919">
            <g id="Group_4920" data-name="Group 4920">
              <g id="Group_4921" data-name="Group 4921" transform="translate(-1)">
                <g id="Group_4916" data-name="Group 4916" transform="translate(-0.197 14.999)">
                  <g id="Group_4915" data-name="Group 4915" transform="translate(262.197 0.001)">
                    <g id="Box" fill="none" stroke="#3f62ac" stroke-width="2">
                      <rect width="20" height="20" rx="5" stroke="none"/>
                      <rect x="1" y="1" width="18" height="18" rx="4" fill="none"/>
                    </g>
                    <rect id="Box_filled" data-name="Box filled" width="20" height="20" rx="5" fill="#3f62ac" opacity="0"/>
                    <path id="Check" d="M8.76,15.667a.732.732,0,0,1-.565-.242l-3.953-4.2A.8.8,0,0,1,5.371,10.1l3.308,3.55,6.777-7.422a.868.868,0,0,1,1.129-.161A.868.868,0,0,1,16.747,7.2l-.081.081L9.325,15.344a.7.7,0,0,1-.565.323Z" transform="translate(-0.299 -0.968)" fill="#fff"/>
                  </g>
                  <text id="Label" transform="translate(0.197 15)" font-size="16" font-family="GothamRounded-Book, Gotham Rounded" letter-spacing="0.005em"><tspan x="0" y="0">30 min </tspan></text>
                </g>
                <rect id="Button" width="280" height="50" transform="translate(1)" fill="none"/>
              </g>
            </g>
          </g>
        </g>
      </g>
    </g>
    <g id="CheckBox_Button-2" data-name="CheckBox Button" transform="translate(44 479.673)" opacity="0">
      <g id="Group_4917-2" data-name="Group 4917" transform="translate(1)">
        <g id="Group_4918-2" data-name="Group 4918">
          <g id="Group_4919-2" data-name="Group 4919">
            <g id="Group_4920-2" data-name="Group 4920">
              <g id="Group_4921-2" data-name="Group 4921" transform="translate(-1)">
                <g id="Group_4916-2" data-name="Group 4916" transform="translate(-0.197 14.999)">
                  <g id="Group_4915-2" data-name="Group 4915" transform="translate(262.197 0.001)">
                    <g id="Box-2" data-name="Box" fill="none" stroke="#3f62ac" stroke-width="2">
                      <rect width="20" height="20" rx="5" stroke="none"/>
                      <rect x="1" y="1" width="18" height="18" rx="4" fill="none"/>
                    </g>
                    <rect id="Box_filled-2" data-name="Box filled" width="20" height="20" rx="5" fill="#3f62ac" opacity="0"/>
                    <path id="Check-2" data-name="Check" d="M8.76,15.667a.732.732,0,0,1-.565-.242l-3.953-4.2A.8.8,0,0,1,5.371,10.1l3.308,3.55,6.777-7.422a.868.868,0,0,1,1.129-.161A.868.868,0,0,1,16.747,7.2l-.081.081L9.325,15.344a.7.7,0,0,1-.565.323Z" transform="translate(-0.299 -0.968)" fill="#fff"/>
                  </g>
                  <text id="Label-2" data-name="Label" transform="translate(0.197 15)" font-size="16" font-family="GothamRounded-Book, Gotham Rounded" letter-spacing="0.005em"><tspan x="0" y="0">2 hours</tspan></text>
                </g>
                <rect id="Button-2" data-name="Button" width="280" height="50" transform="translate(1)" fill="none"/>
              </g>
            </g>
          </g>
        </g>
      </g>
    </g>
    <g id="CheckBox_Button-3" data-name="CheckBox Button" transform="translate(44 477.673)" opacity="0">
      <g id="Group_4917-3" data-name="Group 4917" transform="translate(1)">
        <g id="Group_4918-3" data-name="Group 4918">
          <g id="Group_4919-3" data-name="Group 4919">
            <g id="Group_4920-3" data-name="Group 4920">
              <g id="Group_4921-3" data-name="Group 4921" transform="translate(-1)">
                <g id="Group_4916-3" data-name="Group 4916" transform="translate(-0.197 14.999)">
                  <g id="Group_4915-3" data-name="Group 4915" transform="translate(262.197 0.001)">
                    <g id="Box-3" data-name="Box" fill="none" stroke="#3f62ac" stroke-width="2">
                      <rect width="20" height="20" rx="5" stroke="none"/>
                      <rect x="1" y="1" width="18" height="18" rx="4" fill="none"/>
                    </g>
                    <rect id="Box_filled-3" data-name="Box filled" width="20" height="20" rx="5" fill="#3f62ac" opacity="0"/>
                    <path id="Check-3" data-name="Check" d="M8.76,15.667a.732.732,0,0,1-.565-.242l-3.953-4.2A.8.8,0,0,1,5.371,10.1l3.308,3.55,6.777-7.422a.868.868,0,0,1,1.129-.161A.868.868,0,0,1,16.747,7.2l-.081.081L9.325,15.344a.7.7,0,0,1-.565.323Z" transform="translate(-0.299 -0.968)" fill="#fff"/>
                  </g>
                  <text id="Label-3" data-name="Label" transform="translate(0.197 15)" font-size="16" font-family="GothamRounded-Book, Gotham Rounded" letter-spacing="0.005em"><tspan x="0" y="0">1 hour</tspan></text>
                </g>
                <rect id="Button-3" data-name="Button" width="280" height="50" transform="translate(1)" fill="none"/>
              </g>
            </g>
          </g>
        </g>
      </g>
    </g>
    <g id="CheckBox_Button-4" data-name="CheckBox Button" transform="translate(44 480.673)" opacity="0">
      <g id="Group_4917-4" data-name="Group 4917" transform="translate(1)">
        <g id="Group_4918-4" data-name="Group 4918">
          <g id="Group_4919-4" data-name="Group 4919">
            <g id="Group_4920-4" data-name="Group 4920">
              <g id="Group_4921-4" data-name="Group 4921" transform="translate(-1)">
                <g id="Group_4916-4" data-name="Group 4916" transform="translate(-0.197 14.999)">
                  <g id="Group_4915-4" data-name="Group 4915" transform="translate(262.197 0.001)">
                    <g id="Box-4" data-name="Box" fill="none" stroke="#3f62ac" stroke-width="2">
                      <rect width="20" height="20" rx="5" stroke="none"/>
                      <rect x="1" y="1" width="18" height="18" rx="4" fill="none"/>
                    </g>
                    <rect id="Box_filled-4" data-name="Box filled" width="20" height="20" rx="5" fill="#3f62ac" opacity="0"/>
                    <path id="Check-4" data-name="Check" d="M8.76,15.667a.732.732,0,0,1-.565-.242l-3.953-4.2A.8.8,0,0,1,5.371,10.1l3.308,3.55,6.777-7.422a.868.868,0,0,1,1.129-.161A.868.868,0,0,1,16.747,7.2l-.081.081L9.325,15.344a.7.7,0,0,1-.565.323Z" transform="translate(-0.299 -0.968)" fill="#fff"/>
                  </g>
                  <text id="Label-4" data-name="Label" transform="translate(0.197 15)" font-size="16" font-family="GothamRounded-Book, Gotham Rounded" letter-spacing="0.005em"><tspan x="0" y="0">5 hour</tspan></text>
                </g>
                <rect id="Button-4" data-name="Button" width="280" height="50" transform="translate(1)" fill="none"/>
              </g>
            </g>
          </g>
        </g>
      </g>
    </g>
    <g id="CheckBox_Button-5" data-name="CheckBox Button" transform="translate(44 482.673)" opacity="0">
      <g id="Group_4917-5" data-name="Group 4917" transform="translate(1)">
        <g id="Group_4918-5" data-name="Group 4918">
          <g id="Group_4919-5" data-name="Group 4919">
            <g id="Group_4920-5" data-name="Group 4920">
              <g id="Group_4921-5" data-name="Group 4921" transform="translate(-1)">
                <g id="Group_4916-5" data-name="Group 4916" transform="translate(-0.197 14.999)">
                  <g id="Group_4915-5" data-name="Group 4915" transform="translate(262.197 0.001)">
                    <g id="Box-5" data-name="Box" fill="none" stroke="#3f62ac" stroke-width="2">
                      <rect width="20" height="20" rx="5" stroke="none"/>
                      <rect x="1" y="1" width="18" height="18" rx="4" fill="none"/>
                    </g>
                    <rect id="Box_filled-5" data-name="Box filled" width="20" height="20" rx="5" fill="#3f62ac" opacity="0"/>
                    <path id="Check-5" data-name="Check" d="M8.76,15.667a.732.732,0,0,1-.565-.242l-3.953-4.2A.8.8,0,0,1,5.371,10.1l3.308,3.55,6.777-7.422a.868.868,0,0,1,1.129-.161A.868.868,0,0,1,16.747,7.2l-.081.081L9.325,15.344a.7.7,0,0,1-.565.323Z" transform="translate(-0.299 -0.968)" fill="#fff"/>
                  </g>
                  <text id="Label-5" data-name="Label" transform="translate(0.197 15)" font-size="16" font-family="GothamRounded-Book, Gotham Rounded" letter-spacing="0.005em"><tspan x="0" y="0">1 day</tspan></text>
                </g>
                <rect id="Button-5" data-name="Button" width="280" height="50" transform="translate(1)" fill="none"/>
              </g>
            </g>
          </g>
        </g>
      </g>
    </g>
    <path id="Search-3" data-name="Search" d="M.714-.884a.958.958,0,0,0,.969.969,1.006,1.006,0,0,0,.969-.663l1-2.295h5.78L10.4-.646a1.077,1.077,0,0,0,1.02.731.98.98,0,0,0,.986-1,.91.91,0,0,0-.119-.442l-4.42-9.86a1.3,1.3,0,0,0-1.241-.85h-.1a1.326,1.326,0,0,0-1.258.85L.85-1.36A1.071,1.071,0,0,0,.714-.884Zm3.74-3.842L6.545-9.537,8.636-4.726ZM14.518-.935a1.012,1.012,0,0,0,1.02,1.02,1.016,1.016,0,0,0,1.037-1.02V-5.066A2,2,0,0,1,18.6-7.293c1.224,0,1.921.8,1.921,2.193V-.935A1.016,1.016,0,0,0,21.556.085a1,1,0,0,0,1.02-1.02V-5.729c0-2.074-1.173-3.434-3.2-3.434a3.253,3.253,0,0,0-2.8,1.564v-.442a1.03,1.03,0,0,0-1.037-1.037,1.016,1.016,0,0,0-1.02,1.037ZM26.639,2.771c1.445,0,2.261-.68,3.026-2.516l3.281-7.871a1.844,1.844,0,0,0,.085-.493.972.972,0,0,0-.986-.969,1.055,1.055,0,0,0-.986.782L28.815-2.329,26.4-8.3a1.032,1.032,0,0,0-1-.782.988.988,0,0,0-1.02,1,1.389,1.389,0,0,0,.119.493L27.829-.136l-.068.187c-.34.7-.663.952-1.275.952a2.325,2.325,0,0,1-.714-.119A1.05,1.05,0,0,0,25.4.816a.827.827,0,0,0-.833.85.876.876,0,0,0,.646.85A3.633,3.633,0,0,0,26.639,2.771Z" transform="translate(30 511.673)"/>
    <g id="Path_4902" data-name="Path 4902" transform="translate(13.5 698.448)" fill="#fff">
      <path d="M 338 49.5 L 5 49.5 C 2.518681764602661 49.5 0.5 47.48131942749023 0.5 45 L 0.5 5 C 0.5 2.518681764602661 2.518681764602661 0.5 5 0.5 L 338 0.5 C 340.4813232421875 0.5 342.5 2.518681764602661 342.5 5 L 342.5 45 C 342.5 47.48131942749023 340.4813232421875 49.5 338 49.5 Z" stroke="none"/>
      <path d="M 5 1 C 2.794403076171875 1 1 2.794410705566406 1 5 L 1 45 C 1 47.20558929443359 2.794403076171875 49 5 49 L 338 49 C 340.2055969238281 49 342 47.20558929443359 342 45 L 342 5 C 342 2.794410705566406 340.2055969238281 1 338 1 L 5 1 M 5 0 L 338 0 C 340.7614135742188 0 343 2.238590240478516 343 5 L 343 45 C 343 47.76140975952148 340.7614135742188 50 338 50 L 5 50 C 2.23858642578125 50 0 47.76140975952148 0 45 L 0 5 C 0 2.238590240478516 2.23858642578125 0 5 0 Z" stroke="none" fill="#3f62ac"/>
    </g>
    <path id="Search-4" data-name="Search" d="M.6-.812A.827.827,0,0,0,1.526,0H7.084A.753.753,0,0,0,7.84-.756a.753.753,0,0,0-.756-.756H3.108l2.016-1.68C6.86-4.606,7.672-5.446,7.672-6.986v-.028A2.935,2.935,0,0,0,4.438-9.94,3.792,3.792,0,0,0,1.19-8.358a.861.861,0,0,0-.2.532.783.783,0,0,0,.784.784.788.788,0,0,0,.6-.266A2.4,2.4,0,0,1,4.312-8.4,1.469,1.469,0,0,1,5.894-6.874c0,.882-.49,1.512-1.834,2.646L1.05-1.666A1.069,1.069,0,0,0,.6-.812ZM13.986-.77a.834.834,0,0,0,.84.84.837.837,0,0,0,.854-.84v-3.4a1.644,1.644,0,0,1,1.666-1.834c1.008,0,1.582.658,1.582,1.806V-.77a.837.837,0,0,0,.854.84.825.825,0,0,0,.84-.84V-4.718A2.534,2.534,0,0,0,17.99-7.546a2.679,2.679,0,0,0-2.31,1.288V-9.45a.846.846,0,0,0-.854-.84.834.834,0,0,0-.84.84ZM26.25.168a3.865,3.865,0,0,0,3.962-3.85V-3.71a3.829,3.829,0,0,0-3.934-3.836A3.864,3.864,0,0,0,22.33-3.682v.028A3.823,3.823,0,0,0,26.25.168Zm.028-1.484a2.278,2.278,0,0,1-2.254-2.366V-3.71A2.219,2.219,0,0,1,26.25-6.062a2.285,2.285,0,0,1,2.268,2.38v.028A2.218,2.218,0,0,1,26.278-1.316ZM38.57-6.622a.857.857,0,0,0-.854-.854.848.848,0,0,0-.854.854v3.4A1.633,1.633,0,0,1,35.2-1.4c-1.008,0-1.582-.644-1.582-1.792v-3.43a.848.848,0,0,0-.854-.854.846.846,0,0,0-.84.854v3.934A2.538,2.538,0,0,0,34.552.154a2.66,2.66,0,0,0,2.31-1.3V-.77a.845.845,0,0,0,.854.84.846.846,0,0,0,.854-.84ZM40.754-.77a.834.834,0,0,0,.84.84.846.846,0,0,0,.854-.84V-2.954c0-1.75.826-2.674,2.03-2.884a.8.8,0,0,0,.672-.812.786.786,0,0,0-.84-.84,2.35,2.35,0,0,0-1.862,1.624v-.756a.848.848,0,0,0-.854-.854.837.837,0,0,0-.84.854ZM49.14.14c1.54,0,2.744-.77,2.744-2.324v-.028c0-1.33-1.218-1.82-2.3-2.156-.868-.28-1.666-.5-1.666-1.05v-.028c0-.42.378-.728,1.036-.728a4.032,4.032,0,0,1,1.736.5.665.665,0,0,0,.336.084.682.682,0,0,0,.7-.686.718.718,0,0,0-.406-.644A5.081,5.081,0,0,0,49-7.518a2.358,2.358,0,0,0-2.632,2.254v.028c0,1.414,1.218,1.862,2.31,2.17.868.266,1.652.462,1.652,1.036V-2c0,.49-.42.8-1.148.8a3.9,3.9,0,0,1-2.128-.714.739.739,0,0,0-.364-.1A.678.678,0,0,0,46-1.33a.649.649,0,0,0,.322.588A5.052,5.052,0,0,0,49.14.14Z" transform="translate(29.5 736.449)" opacity="0"/>
    <path id="Icon_ionic-ios-arrow-down-3" data-name="Icon ionic-ios-arrow-down" d="M14.982,18.269l6.649-6.654a1.251,1.251,0,0,1,1.775,0,1.267,1.267,0,0,1,0,1.78l-7.533,7.539a1.254,1.254,0,0,1-1.733.037L6.554,13.4a1.257,1.257,0,0,1,1.775-1.78Z" transform="translate(306.73 709.176)" fill="#3f62ac"/>
    <path id="Path_4903" data-name="Path 4903" d="M-15.366.144A4.292,4.292,0,0,0-12.318-.984a.709.709,0,0,0,.24-.528.7.7,0,0,0-.7-.684.672.672,0,0,0-.444.168,3.01,3.01,0,0,1-2.1.8A2.83,2.83,0,0,1-18.09-4.2v-.024a2.827,2.827,0,0,1,2.772-2.964,3.046,3.046,0,0,1,2,.756.721.721,0,0,0,.444.144.717.717,0,0,0,.732-.72.738.738,0,0,0-.288-.588,4.405,4.405,0,0,0-2.88-.948A4.251,4.251,0,0,0-19.638-4.2v.024A4.225,4.225,0,0,0-15.366.144ZM-8.754.132A2.575,2.575,0,0,0-6.69-.792v.24A.656.656,0,0,0-5.982.06a.692.692,0,0,0,.708-.7v-3.12a2.629,2.629,0,0,0-.684-1.956,2.839,2.839,0,0,0-2.1-.708,5.431,5.431,0,0,0-2.04.372.634.634,0,0,0-.4.576.6.6,0,0,0,.612.6.815.815,0,0,0,.228-.036,3.763,3.763,0,0,1,1.4-.252c1.02,0,1.572.48,1.572,1.38v.156a5.293,5.293,0,0,0-1.7-.264C-9.93-3.888-11-3.216-11-1.848v.024A2.024,2.024,0,0,0-8.754.132Zm.408-1.056c-.7,0-1.236-.348-1.236-.96v-.024c0-.66.552-1.056,1.488-1.056a4.025,4.025,0,0,1,1.44.252v.432C-6.654-1.476-7.386-.924-8.346-.924Zm4.812.264a.714.714,0,0,0,.72.72.717.717,0,0,0,.732-.72V-3.576A1.41,1.41,0,0,1-.654-5.148C.21-5.148.7-4.584.7-3.6V-.66a.717.717,0,0,0,.732.72.707.707,0,0,0,.72-.72V-4.044A2.172,2.172,0,0,0-.1-6.468a2.3,2.3,0,0,0-1.98,1.1v-.312a.727.727,0,0,0-.732-.732.717.717,0,0,0-.72.732Zm10.368.8a3.1,3.1,0,0,0,2.3-.9.566.566,0,0,0,.2-.456.63.63,0,0,0-.624-.636.631.631,0,0,0-.4.156,2.115,2.115,0,0,1-1.416.564,1.917,1.917,0,0,1-1.9-2.028V-3.18A1.911,1.911,0,0,1,6.846-5.2a2.01,2.01,0,0,1,1.356.54.74.74,0,0,0,.432.144.661.661,0,0,0,.672-.66.689.689,0,0,0-.228-.5,3.207,3.207,0,0,0-2.22-.792,3.27,3.27,0,0,0-3.3,3.312v.024A3.235,3.235,0,0,0,6.834.144ZM11.67-3.612A1.715,1.715,0,0,1,13.314-5.28a1.645,1.645,0,0,1,1.608,1.668ZM15.762-.7a.634.634,0,0,0,.192-.444.571.571,0,0,0-.576-.588.541.541,0,0,0-.372.132,2.277,2.277,0,0,1-1.5.552,1.769,1.769,0,0,1-1.824-1.608h3.972a.679.679,0,0,0,.684-.7,3,3,0,0,0-3.012-3.12,3.145,3.145,0,0,0-3.1,3.3v.024A3.161,3.161,0,0,0,13.482.144,3.253,3.253,0,0,0,15.762-.7ZM17.91-.66a.714.714,0,0,0,.72.72.717.717,0,0,0,.732-.72V-8.1a.725.725,0,0,0-.732-.72.714.714,0,0,0-.72.72Z" transform="translate(313 728.449)" fill="#ff8282" opacity="0"/>
    <g id="CheckBox_Button-6" data-name="CheckBox Button" transform="translate(44 695.448)" opacity="0">
      <g id="Group_4917-6" data-name="Group 4917" transform="translate(1)">
        <g id="Group_4918-6" data-name="Group 4918">
          <g id="Group_4919-6" data-name="Group 4919">
            <g id="Group_4920-6" data-name="Group 4920">
              <g id="Group_4921-6" data-name="Group 4921" transform="translate(-1)">
                <g id="Group_4916-6" data-name="Group 4916" transform="translate(-0.197 14.999)">
                  <g id="Group_4915-6" data-name="Group 4915" transform="translate(262.197 0.001)">
                    <g id="Box-6" data-name="Box" fill="none" stroke="#3f62ac" stroke-width="2">
                      <rect width="20" height="20" rx="5" stroke="none"/>
                      <rect x="1" y="1" width="18" height="18" rx="4" fill="none"/>
                    </g>
                    <rect id="Box_filled-6" data-name="Box filled" width="20" height="20" rx="5" fill="#3f62ac" opacity="0"/>
                    <path id="Check-6" data-name="Check" d="M8.76,15.667a.732.732,0,0,1-.565-.242l-3.953-4.2A.8.8,0,0,1,5.371,10.1l3.308,3.55,6.777-7.422a.868.868,0,0,1,1.129-.161A.868.868,0,0,1,16.747,7.2l-.081.081L9.325,15.344a.7.7,0,0,1-.565.323Z" transform="translate(-0.299 -0.968)" fill="#fff"/>
                  </g>
                  <text id="Label-6" data-name="Label" transform="translate(0.197 15)" font-size="16" font-family="GothamRounded-Book, Gotham Rounded" letter-spacing="0.005em"><tspan x="0" y="0">30 min </tspan></text>
                </g>
                <rect id="Button-6" data-name="Button" width="280" height="50" transform="translate(1)" fill="none"/>
              </g>
            </g>
          </g>
        </g>
      </g>
    </g>
    <g id="CheckBox_Button-7" data-name="CheckBox Button" transform="translate(44 698.448)" opacity="0">
      <g id="Group_4917-7" data-name="Group 4917" transform="translate(1)">
        <g id="Group_4918-7" data-name="Group 4918">
          <g id="Group_4919-7" data-name="Group 4919">
            <g id="Group_4920-7" data-name="Group 4920">
              <g id="Group_4921-7" data-name="Group 4921" transform="translate(-1)">
                <g id="Group_4916-7" data-name="Group 4916" transform="translate(-0.197 14.999)">
                  <g id="Group_4915-7" data-name="Group 4915" transform="translate(262.197 0.001)">
                    <g id="Box-7" data-name="Box" fill="none" stroke="#3f62ac" stroke-width="2">
                      <rect width="20" height="20" rx="5" stroke="none"/>
                      <rect x="1" y="1" width="18" height="18" rx="4" fill="none"/>
                    </g>
                    <rect id="Box_filled-7" data-name="Box filled" width="20" height="20" rx="5" fill="#3f62ac" opacity="0"/>
                    <path id="Check-7" data-name="Check" d="M8.76,15.667a.732.732,0,0,1-.565-.242l-3.953-4.2A.8.8,0,0,1,5.371,10.1l3.308,3.55,6.777-7.422a.868.868,0,0,1,1.129-.161A.868.868,0,0,1,16.747,7.2l-.081.081L9.325,15.344a.7.7,0,0,1-.565.323Z" transform="translate(-0.299 -0.968)" fill="#fff"/>
                  </g>
                  <text id="Label-7" data-name="Label" transform="translate(0.197 15)" font-size="16" font-family="GothamRounded-Book, Gotham Rounded" letter-spacing="0.005em"><tspan x="0" y="0">2 hours</tspan></text>
                </g>
                <rect id="Button-7" data-name="Button" width="280" height="50" transform="translate(1)" fill="none"/>
              </g>
            </g>
          </g>
        </g>
      </g>
    </g>
    <g id="CheckBox_Button-8" data-name="CheckBox Button" transform="translate(44 696.448)" opacity="0">
      <g id="Group_4917-8" data-name="Group 4917" transform="translate(1)">
        <g id="Group_4918-8" data-name="Group 4918">
          <g id="Group_4919-8" data-name="Group 4919">
            <g id="Group_4920-8" data-name="Group 4920">
              <g id="Group_4921-8" data-name="Group 4921" transform="translate(-1)">
                <g id="Group_4916-8" data-name="Group 4916" transform="translate(-0.197 14.999)">
                  <g id="Group_4915-8" data-name="Group 4915" transform="translate(262.197 0.001)">
                    <g id="Box-8" data-name="Box" fill="none" stroke="#3f62ac" stroke-width="2">
                      <rect width="20" height="20" rx="5" stroke="none"/>
                      <rect x="1" y="1" width="18" height="18" rx="4" fill="none"/>
                    </g>
                    <rect id="Box_filled-8" data-name="Box filled" width="20" height="20" rx="5" fill="#3f62ac" opacity="0"/>
                    <path id="Check-8" data-name="Check" d="M8.76,15.667a.732.732,0,0,1-.565-.242l-3.953-4.2A.8.8,0,0,1,5.371,10.1l3.308,3.55,6.777-7.422a.868.868,0,0,1,1.129-.161A.868.868,0,0,1,16.747,7.2l-.081.081L9.325,15.344a.7.7,0,0,1-.565.323Z" transform="translate(-0.299 -0.968)" fill="#fff"/>
                  </g>
                  <text id="Label-8" data-name="Label" transform="translate(0.197 15)" font-size="16" font-family="GothamRounded-Book, Gotham Rounded" letter-spacing="0.005em"><tspan x="0" y="0">1 hour</tspan></text>
                </g>
                <rect id="Button-8" data-name="Button" width="280" height="50" transform="translate(1)" fill="none"/>
              </g>
            </g>
          </g>
        </g>
      </g>
    </g>
    <g id="CheckBox_Button-9" data-name="CheckBox Button" transform="translate(44 699.448)" opacity="0">
      <g id="Group_4917-9" data-name="Group 4917" transform="translate(1)">
        <g id="Group_4918-9" data-name="Group 4918">
          <g id="Group_4919-9" data-name="Group 4919">
            <g id="Group_4920-9" data-name="Group 4920">
              <g id="Group_4921-9" data-name="Group 4921" transform="translate(-1)">
                <g id="Group_4916-9" data-name="Group 4916" transform="translate(-0.197 14.999)">
                  <g id="Group_4915-9" data-name="Group 4915" transform="translate(262.197 0.001)">
                    <g id="Box-9" data-name="Box" fill="none" stroke="#3f62ac" stroke-width="2">
                      <rect width="20" height="20" rx="5" stroke="none"/>
                      <rect x="1" y="1" width="18" height="18" rx="4" fill="none"/>
                    </g>
                    <rect id="Box_filled-9" data-name="Box filled" width="20" height="20" rx="5" fill="#3f62ac" opacity="0"/>
                    <path id="Check-9" data-name="Check" d="M8.76,15.667a.732.732,0,0,1-.565-.242l-3.953-4.2A.8.8,0,0,1,5.371,10.1l3.308,3.55,6.777-7.422a.868.868,0,0,1,1.129-.161A.868.868,0,0,1,16.747,7.2l-.081.081L9.325,15.344a.7.7,0,0,1-.565.323Z" transform="translate(-0.299 -0.968)" fill="#fff"/>
                  </g>
                  <text id="Label-9" data-name="Label" transform="translate(0.197 15)" font-size="16" font-family="GothamRounded-Book, Gotham Rounded" letter-spacing="0.005em"><tspan x="0" y="0">5 hour</tspan></text>
                </g>
                <rect id="Button-9" data-name="Button" width="280" height="50" transform="translate(1)" fill="none"/>
              </g>
            </g>
          </g>
        </g>
      </g>
    </g>
    <g id="CheckBox_Button-10" data-name="CheckBox Button" transform="translate(44 701.448)" opacity="0">
      <g id="Group_4917-10" data-name="Group 4917" transform="translate(1)">
        <g id="Group_4918-10" data-name="Group 4918">
          <g id="Group_4919-10" data-name="Group 4919">
            <g id="Group_4920-10" data-name="Group 4920">
              <g id="Group_4921-10" data-name="Group 4921" transform="translate(-1)">
                <g id="Group_4916-10" data-name="Group 4916" transform="translate(-0.197 14.999)">
                  <g id="Group_4915-10" data-name="Group 4915" transform="translate(262.197 0.001)">
                    <g id="Box-10" data-name="Box" fill="none" stroke="#3f62ac" stroke-width="2">
                      <rect width="20" height="20" rx="5" stroke="none"/>
                      <rect x="1" y="1" width="18" height="18" rx="4" fill="none"/>
                    </g>
                    <rect id="Box_filled-10" data-name="Box filled" width="20" height="20" rx="5" fill="#3f62ac" opacity="0"/>
                    <path id="Check-10" data-name="Check" d="M8.76,15.667a.732.732,0,0,1-.565-.242l-3.953-4.2A.8.8,0,0,1,5.371,10.1l3.308,3.55,6.777-7.422a.868.868,0,0,1,1.129-.161A.868.868,0,0,1,16.747,7.2l-.081.081L9.325,15.344a.7.7,0,0,1-.565.323Z" transform="translate(-0.299 -0.968)" fill="#fff"/>
                  </g>
                  <text id="Label-10" data-name="Label" transform="translate(0.197 15)" font-size="16" font-family="GothamRounded-Book, Gotham Rounded" letter-spacing="0.005em"><tspan x="0" y="0">1 day</tspan></text>
                </g>
                <rect id="Button-10" data-name="Button" width="280" height="50" transform="translate(1)" fill="none"/>
              </g>
            </g>
          </g>
        </g>
      </g>
    </g>
    <path id="Search-5" data-name="Search" d="M.714-.884a.958.958,0,0,0,.969.969,1.006,1.006,0,0,0,.969-.663l1-2.295h5.78L10.4-.646a1.077,1.077,0,0,0,1.02.731.98.98,0,0,0,.986-1,.91.91,0,0,0-.119-.442l-4.42-9.86a1.3,1.3,0,0,0-1.241-.85h-.1a1.326,1.326,0,0,0-1.258.85L.85-1.36A1.071,1.071,0,0,0,.714-.884Zm3.74-3.842L6.545-9.537,8.636-4.726ZM14.518-.935a1.012,1.012,0,0,0,1.02,1.02,1.016,1.016,0,0,0,1.037-1.02V-5.066A2,2,0,0,1,18.6-7.293c1.224,0,1.921.8,1.921,2.193V-.935A1.016,1.016,0,0,0,21.556.085a1,1,0,0,0,1.02-1.02V-5.729c0-2.074-1.173-3.434-3.2-3.434a3.253,3.253,0,0,0-2.8,1.564v-.442a1.03,1.03,0,0,0-1.037-1.037,1.016,1.016,0,0,0-1.02,1.037ZM26.639,2.771c1.445,0,2.261-.68,3.026-2.516l3.281-7.871a1.844,1.844,0,0,0,.085-.493.972.972,0,0,0-.986-.969,1.055,1.055,0,0,0-.986.782L28.815-2.329,26.4-8.3a1.032,1.032,0,0,0-1-.782.988.988,0,0,0-1.02,1,1.389,1.389,0,0,0,.119.493L27.829-.136l-.068.187c-.34.7-.663.952-1.275.952a2.325,2.325,0,0,1-.714-.119A1.05,1.05,0,0,0,25.4.816a.827.827,0,0,0-.833.85.876.876,0,0,0,.646.85A3.633,3.633,0,0,0,26.639,2.771Z" transform="translate(30 730.448)"/>
    <g id="Path_4905" data-name="Path 4905" transform="translate(13.5 807.814)" fill="#fff">
      <path d="M 338 49.5 L 5 49.5 C 2.518681764602661 49.5 0.5 47.48131942749023 0.5 45 L 0.5 5 C 0.5 2.518681764602661 2.518681764602661 0.5 5 0.5 L 338 0.5 C 340.4813232421875 0.5 342.5 2.518681764602661 342.5 5 L 342.5 45 C 342.5 47.48131942749023 340.4813232421875 49.5 338 49.5 Z" stroke="none"/>
      <path d="M 5 1 C 2.794403076171875 1 1 2.794410705566406 1 5 L 1 45 C 1 47.20558929443359 2.794403076171875 49 5 49 L 338 49 C 340.2055969238281 49 342 47.20558929443359 342 45 L 342 5 C 342 2.794410705566406 340.2055969238281 1 338 1 L 5 1 M 5 0 L 338 0 C 340.7614135742188 0 343 2.238590240478516 343 5 L 343 45 C 343 47.76140975952148 340.7614135742188 50 338 50 L 5 50 C 2.23858642578125 50 0 47.76140975952148 0 45 L 0 5 C 0 2.238590240478516 2.23858642578125 0 5 0 Z" stroke="none" fill="#3f62ac"/>
    </g>
    <g id="CheckBox_Button-11" data-name="CheckBox Button" transform="translate(44 804.814)" opacity="0">
      <g id="Group_4917-11" data-name="Group 4917" transform="translate(1)">
        <g id="Group_4918-11" data-name="Group 4918">
          <g id="Group_4919-11" data-name="Group 4919">
            <g id="Group_4920-11" data-name="Group 4920">
              <g id="Group_4921-11" data-name="Group 4921" transform="translate(-1)">
                <g id="Group_4916-11" data-name="Group 4916" transform="translate(-0.197 14.999)">
                  <g id="Group_4915-11" data-name="Group 4915" transform="translate(262.197 0.001)">
                    <g id="Box-11" data-name="Box" fill="none" stroke="#3f62ac" stroke-width="2">
                      <rect width="20" height="20" rx="5" stroke="none"/>
                      <rect x="1" y="1" width="18" height="18" rx="4" fill="none"/>
                    </g>
                    <rect id="Box_filled-11" data-name="Box filled" width="20" height="20" rx="5" fill="#3f62ac" opacity="0"/>
                    <path id="Check-11" data-name="Check" d="M8.76,15.667a.732.732,0,0,1-.565-.242l-3.953-4.2A.8.8,0,0,1,5.371,10.1l3.308,3.55,6.777-7.422a.868.868,0,0,1,1.129-.161A.868.868,0,0,1,16.747,7.2l-.081.081L9.325,15.344a.7.7,0,0,1-.565.323Z" transform="translate(-0.299 -0.968)" fill="#fff"/>
                  </g>
                  <text id="Label-11" data-name="Label" transform="translate(0.197 15)" font-size="16" font-family="GothamRounded-Book, Gotham Rounded" letter-spacing="0.005em"><tspan x="0" y="0">30 min </tspan></text>
                </g>
                <rect id="Button-11" data-name="Button" width="280" height="50" transform="translate(1)" fill="none"/>
              </g>
            </g>
          </g>
        </g>
      </g>
    </g>
    <g id="CheckBox_Button-12" data-name="CheckBox Button" transform="translate(44 807.814)" opacity="0">
      <g id="Group_4917-12" data-name="Group 4917" transform="translate(1)">
        <g id="Group_4918-12" data-name="Group 4918">
          <g id="Group_4919-12" data-name="Group 4919">
            <g id="Group_4920-12" data-name="Group 4920">
              <g id="Group_4921-12" data-name="Group 4921" transform="translate(-1)">
                <g id="Group_4916-12" data-name="Group 4916" transform="translate(-0.197 14.999)">
                  <g id="Group_4915-12" data-name="Group 4915" transform="translate(262.197 0.001)">
                    <g id="Box-12" data-name="Box" fill="none" stroke="#3f62ac" stroke-width="2">
                      <rect width="20" height="20" rx="5" stroke="none"/>
                      <rect x="1" y="1" width="18" height="18" rx="4" fill="none"/>
                    </g>
                    <rect id="Box_filled-12" data-name="Box filled" width="20" height="20" rx="5" fill="#3f62ac" opacity="0"/>
                    <path id="Check-12" data-name="Check" d="M8.76,15.667a.732.732,0,0,1-.565-.242l-3.953-4.2A.8.8,0,0,1,5.371,10.1l3.308,3.55,6.777-7.422a.868.868,0,0,1,1.129-.161A.868.868,0,0,1,16.747,7.2l-.081.081L9.325,15.344a.7.7,0,0,1-.565.323Z" transform="translate(-0.299 -0.968)" fill="#fff"/>
                  </g>
                  <text id="Label-12" data-name="Label" transform="translate(0.197 15)" font-size="16" font-family="GothamRounded-Book, Gotham Rounded" letter-spacing="0.005em"><tspan x="0" y="0">2 hours</tspan></text>
                </g>
                <rect id="Button-12" data-name="Button" width="280" height="50" transform="translate(1)" fill="none"/>
              </g>
            </g>
          </g>
        </g>
      </g>
    </g>
    <g id="CheckBox_Button-13" data-name="CheckBox Button" transform="translate(44 805.814)" opacity="0">
      <g id="Group_4917-13" data-name="Group 4917" transform="translate(1)">
        <g id="Group_4918-13" data-name="Group 4918">
          <g id="Group_4919-13" data-name="Group 4919">
            <g id="Group_4920-13" data-name="Group 4920">
              <g id="Group_4921-13" data-name="Group 4921" transform="translate(-1)">
                <g id="Group_4916-13" data-name="Group 4916" transform="translate(-0.197 14.999)">
                  <g id="Group_4915-13" data-name="Group 4915" transform="translate(262.197 0.001)">
                    <g id="Box-13" data-name="Box" fill="none" stroke="#3f62ac" stroke-width="2">
                      <rect width="20" height="20" rx="5" stroke="none"/>
                      <rect x="1" y="1" width="18" height="18" rx="4" fill="none"/>
                    </g>
                    <rect id="Box_filled-13" data-name="Box filled" width="20" height="20" rx="5" fill="#3f62ac" opacity="0"/>
                    <path id="Check-13" data-name="Check" d="M8.76,15.667a.732.732,0,0,1-.565-.242l-3.953-4.2A.8.8,0,0,1,5.371,10.1l3.308,3.55,6.777-7.422a.868.868,0,0,1,1.129-.161A.868.868,0,0,1,16.747,7.2l-.081.081L9.325,15.344a.7.7,0,0,1-.565.323Z" transform="translate(-0.299 -0.968)" fill="#fff"/>
                  </g>
                  <text id="Label-13" data-name="Label" transform="translate(0.197 15)" font-size="16" font-family="GothamRounded-Book, Gotham Rounded" letter-spacing="0.005em"><tspan x="0" y="0">1 hour</tspan></text>
                </g>
                <rect id="Button-13" data-name="Button" width="280" height="50" transform="translate(1)" fill="none"/>
              </g>
            </g>
          </g>
        </g>
      </g>
    </g>
    <g id="CheckBox_Button-14" data-name="CheckBox Button" transform="translate(44 808.814)" opacity="0">
      <g id="Group_4917-14" data-name="Group 4917" transform="translate(1)">
        <g id="Group_4918-14" data-name="Group 4918">
          <g id="Group_4919-14" data-name="Group 4919">
            <g id="Group_4920-14" data-name="Group 4920">
              <g id="Group_4921-14" data-name="Group 4921" transform="translate(-1)">
                <g id="Group_4916-14" data-name="Group 4916" transform="translate(-0.197 14.999)">
                  <g id="Group_4915-14" data-name="Group 4915" transform="translate(262.197 0.001)">
                    <g id="Box-14" data-name="Box" fill="none" stroke="#3f62ac" stroke-width="2">
                      <rect width="20" height="20" rx="5" stroke="none"/>
                      <rect x="1" y="1" width="18" height="18" rx="4" fill="none"/>
                    </g>
                    <rect id="Box_filled-14" data-name="Box filled" width="20" height="20" rx="5" fill="#3f62ac" opacity="0"/>
                    <path id="Check-14" data-name="Check" d="M8.76,15.667a.732.732,0,0,1-.565-.242l-3.953-4.2A.8.8,0,0,1,5.371,10.1l3.308,3.55,6.777-7.422a.868.868,0,0,1,1.129-.161A.868.868,0,0,1,16.747,7.2l-.081.081L9.325,15.344a.7.7,0,0,1-.565.323Z" transform="translate(-0.299 -0.968)" fill="#fff"/>
                  </g>
                  <text id="Label-14" data-name="Label" transform="translate(0.197 15)" font-size="16" font-family="GothamRounded-Book, Gotham Rounded" letter-spacing="0.005em"><tspan x="0" y="0">5 hour</tspan></text>
                </g>
                <rect id="Button-14" data-name="Button" width="280" height="50" transform="translate(1)" fill="none"/>
              </g>
            </g>
          </g>
        </g>
      </g>
    </g>
    <g transform="matrix(1, 0, 0, 1, 0, 0)" filter="url(#textbox)">
      <path id="textbox-3" data-name="textbox" d="M5,0H135a5,5,0,0,1,5,5V35a5,5,0,0,1-5,5H5a5,5,0,0,1-5-5V5A5,5,0,0,1,5,0Z" transform="translate(28 253.5)" fill="none" stroke="#3f62ac" stroke-width="1"/>
    </g>
    <g transform="matrix(1, 0, 0, 1, 0, 0)" filter="url(#textbox-2)">
      <path id="textbox-4" data-name="textbox" d="M5,0H135a5,5,0,0,1,5,5V35a5,5,0,0,1-5,5H5a5,5,0,0,1-5-5V5A5,5,0,0,1,5,0Z" transform="translate(203 253.5)" fill="none" stroke="#3f62ac" stroke-width="1"/>
    </g>
    <path id="_10000" data-name="$10000" d="M3.99-10.08v.294c-1.75.14-2.94,1.176-2.94,2.674,0,1.582.952,2.352,3,2.884V-1.47a4.96,4.96,0,0,1-2.072-.938.764.764,0,0,0-.462-.154.759.759,0,0,0-.77.77.77.77,0,0,0,.378.672A6.056,6.056,0,0,0,3.99-.028V.84a.61.61,0,0,0,.616.6.6.6,0,0,0,.6-.6V0C6.986-.168,8.19-1.19,8.19-2.73c0-1.5-.91-2.352-3.038-2.884V-8.3a5.086,5.086,0,0,1,1.442.616.81.81,0,0,0,.42.126A.771.771,0,0,0,7.8-8.33.749.749,0,0,0,7.378-9a5.1,5.1,0,0,0-2.17-.77v-.308a.6.6,0,0,0-.6-.6A.61.61,0,0,0,3.99-10.08ZM6.538-2.632c0,.672-.49,1.12-1.386,1.218V-3.962C6.23-3.626,6.538-3.248,6.538-2.632ZM2.7-7.21c0-.616.448-1.092,1.344-1.176v2.478C2.968-6.258,2.7-6.622,2.7-7.21Z" transform="translate(209.645 286.496)"/>
    <path id="Path_4892" data-name="Path 4892" d="M-10.956-.828a.891.891,0,0,0,.9.9.9.9,0,0,0,.912-.9V-5l1.6,2.46a.9.9,0,0,0,.768.468.9.9,0,0,0,.768-.468l1.62-2.5V-.852A.922.922,0,0,0-3.48.072a.917.917,0,0,0,.924-.924V-7.524a.917.917,0,0,0-.924-.924h-.2a.9.9,0,0,0-.828.468L-6.756-4.332-8.988-7.968a.949.949,0,0,0-.84-.48h-.2a.917.917,0,0,0-.924.924Zm10.5-.024A.917.917,0,0,0,.468.072a.917.917,0,0,0,.924-.924v-6.7a.917.917,0,0,0-.924-.924.917.917,0,0,0-.924.924ZM3.492-.84A.912.912,0,0,0,4.4.072.912.912,0,0,0,5.316-.84v-4.5l3.7,4.848a1.145,1.145,0,0,0,.96.54h.06a.917.917,0,0,0,.924-.924V-7.56a.912.912,0,0,0-.912-.912.912.912,0,0,0-.912.912v4.332L5.568-7.908a1.145,1.145,0,0,0-.96-.54H4.416a.917.917,0,0,0-.924.924Z" transform="translate(51.645 268.229)" fill="#77838f"/>
    <path id="Path_4897" data-name="Path 4897" d="M-13-.828a.891.891,0,0,0,.9.9.9.9,0,0,0,.912-.9V-5l1.6,2.46a.9.9,0,0,0,.768.468.9.9,0,0,0,.768-.468l1.62-2.5V-.852A.922.922,0,0,0-5.52.072.917.917,0,0,0-4.6-.852V-7.524a.917.917,0,0,0-.924-.924h-.2a.9.9,0,0,0-.828.468L-8.8-4.332l-2.232-3.636a.949.949,0,0,0-.84-.48h-.2A.917.917,0,0,0-13-7.524Zm9.84.036A.85.85,0,0,0-2.3.072.908.908,0,0,0-1.452-.5l.588-1.38h3.7L3.4-.564a.941.941,0,0,0,.888.636A.876.876,0,0,0,5.16-.816a.9.9,0,0,0-.1-.372L2.136-7.8a1.126,1.126,0,0,0-1.068-.732H.96A1.142,1.142,0,0,0-.12-7.8L-3.048-1.188A.98.98,0,0,0-3.156-.792ZM-.18-3.516.984-6.288,2.148-3.516ZM6.036-.78a.844.844,0,0,0,.84.852,1.055,1.055,0,0,0,.9-.5L9.72-2.964l1.968,2.58a.97.97,0,0,0,.852.456.89.89,0,0,0,.912-.912,1.13,1.13,0,0,0-.276-.684L10.92-4.3l2.136-2.616a1.1,1.1,0,0,0,.276-.708.844.844,0,0,0-.84-.852,1.055,1.055,0,0,0-.9.5l-1.824,2.4L7.932-8.016a.97.97,0,0,0-.852-.456.89.89,0,0,0-.912.912,1.13,1.13,0,0,0,.276.684l2.136,2.6L6.312-1.488A1.1,1.1,0,0,0,6.036-.78Z" transform="translate(226.645 268.229)" fill="#77838f"/>
    <g id="Slider" transform="translate(14 315.734)">
      <rect id="slider_bar_empty" data-name="slider bar empty" width="309" height="2" rx="1" transform="translate(20 6)" fill="#dadada"/>
      <rect id="slider_bar" data-name="slider bar" width="5" height="2" rx="1" transform="translate(20 6)" fill="#dadada"/>
      <g transform="matrix(1, 0, 0, 1, -14, -315.73)" filter="url(#slider_dot_MIN_)">
        <rect id="slider_dot_MIN_3" data-name="slider dot MIN " width="14" height="14" rx="7" transform="translate(28 315.73)" fill="#3f62ac"/>
      </g>
      <g transform="matrix(1, 0, 0, 1, -14, -315.73)" filter="url(#slider_dot_MAX)">
        <rect id="slider_dot_MAX-3" data-name="slider dot MAX" width="20" height="20" rx="10" transform="translate(28 312.73)" fill="#3f62ac"/>
      </g>
    </g>
    <g id="Slider-2" data-name="Slider" transform="translate(46 315.734)">
      <rect id="slider_bar_empty-2" data-name="slider bar empty" width="309" height="2" rx="1" transform="translate(20 6)" fill="#dadada"/>
      <rect id="slider_bar-2" data-name="slider bar" width="5" height="2" rx="1" transform="translate(20 6)" fill="#dadada"/>
      <g transform="matrix(1, 0, 0, 1, -46, -315.73)" filter="url(#slider_dot_MIN_2)">
        <rect id="slider_dot_MIN_4" data-name="slider dot MIN " width="14" height="14" rx="7" transform="translate(60 315.73)" fill="#3f62ac"/>
      </g>
      <g transform="matrix(1, 0, 0, 1, -46, -315.73)" filter="url(#slider_dot_MAX-2)">
        <rect id="slider_dot_MAX-4" data-name="slider dot MAX" width="20" height="20" rx="10" transform="translate(60 312.73)" fill="#3f62ac"/>
      </g>
    </g>
    <path id="Path_4893" data-name="Path 4893" d="M3.99-10.08v.294c-1.75.14-2.94,1.176-2.94,2.674,0,1.582.952,2.352,3,2.884V-1.47a4.96,4.96,0,0,1-2.072-.938.764.764,0,0,0-.462-.154.759.759,0,0,0-.77.77.77.77,0,0,0,.378.672A6.056,6.056,0,0,0,3.99-.028V.84a.61.61,0,0,0,.616.6.6.6,0,0,0,.6-.6V0C6.986-.168,8.19-1.19,8.19-2.73c0-1.5-.91-2.352-3.038-2.884V-8.3a5.086,5.086,0,0,1,1.442.616.81.81,0,0,0,.42.126A.771.771,0,0,0,7.8-8.33.749.749,0,0,0,7.378-9a5.1,5.1,0,0,0-2.17-.77v-.308a.6.6,0,0,0-.6-.6A.61.61,0,0,0,3.99-10.08ZM6.538-2.632c0,.672-.49,1.12-1.386,1.218V-3.962C6.23-3.626,6.538-3.248,6.538-2.632ZM2.7-7.21c0-.616.448-1.092,1.344-1.176v2.478C2.968-6.258,2.7-6.622,2.7-7.21Z" transform="translate(32.645 286.496)" fill="#2c2828"/>
    <g id="MIN" transform="translate(-2 123.115)" clip-path="url(#clip-path)">
      <text id="_5_1_1_2_2_3_3_4_4_5_5_6_6_7_7_8_8_9_9_1_1_1_1_1_1_1_1_1_1_1_1_1_1_1_1_1_1_1_2" data-name="
5
1
1
2
2
3
3
4
4
5
5
6
6
7
7
8
8
9
9
1
1
1
1
1
1
1
1
1
1
1
1
1
1
1
1
1
1
1
2" transform="translate(55 163)" fill="#2c2828" font-size="14" font-family="GothamRounded-Medium, Gotham Rounded" font-weight="500"><tspan x="-6.286" y="0"></tspan><tspan x="-4.361" y="19">5</tspan><tspan x="-2.772" y="38">1</tspan><tspan x="-2.772" y="57">1</tspan><tspan x="-4.291" y="76">2</tspan><tspan x="-4.291" y="95">2</tspan><tspan x="-4.326" y="114">3</tspan><tspan x="-4.326" y="133">3</tspan><tspan x="-4.774" y="152">4</tspan><tspan x="-4.774" y="171">4</tspan><tspan x="-4.361" y="190">5</tspan><tspan x="-4.361" y="209">5</tspan><tspan x="-4.592" y="228">6</tspan><tspan x="-4.592" y="247">6</tspan><tspan x="-4.263" y="266">7</tspan><tspan x="-4.263" y="285">7</tspan><tspan x="-4.41" y="304">8</tspan><tspan x="-4.41" y="323">8</tspan><tspan x="-4.592" y="342">9</tspan><tspan x="-4.592" y="361">9</tspan><tspan x="-2.772" y="380">1</tspan><tspan x="-2.772" y="399">1</tspan><tspan x="-2.772" y="418">1</tspan><tspan x="-2.772" y="437">1</tspan><tspan x="-2.772" y="456">1</tspan><tspan x="-2.772" y="475">1</tspan><tspan x="-2.772" y="494">1</tspan><tspan x="-2.772" y="513">1</tspan><tspan x="-2.772" y="532">1</tspan><tspan x="-2.772" y="551">1</tspan><tspan x="-2.772" y="570">1</tspan><tspan x="-2.772" y="589">1</tspan><tspan x="-2.772" y="608">1</tspan><tspan x="-2.772" y="627">1</tspan><tspan x="-2.772" y="646">1</tspan><tspan x="-2.772" y="665">1</tspan><tspan x="-2.772" y="684">1</tspan><tspan x="-2.772" y="703">1</tspan><tspan x="-2.772" y="722">1</tspan><tspan x="-4.291" y="741">2</tspan></text>
      <text id="_5_0_5_0_5_0_5_0_5_0_5_0_5_0_5_0_5_0_0_1_1_2_2_3_3_4_4_5_5_6_6_7_7_8_8_9_9_0" data-name="5
0
5
0
5
0
5
0
5
0
5
0
5
0
5
0
5
0
0
1
1
2
2
3
3
4
4
5
5
6
6
7
7
8
8
9
9
0" transform="translate(70 201)" fill="#2c2828" font-size="14" font-family="GothamRounded-Medium, Gotham Rounded" font-weight="500"><tspan x="-4.361" y="0">5</tspan><tspan x="-5.068" y="19">0</tspan><tspan x="-4.361" y="38">5</tspan><tspan x="-5.068" y="57">0</tspan><tspan x="-4.361" y="76">5</tspan><tspan x="-5.068" y="95">0</tspan><tspan x="-4.361" y="114">5</tspan><tspan x="-5.068" y="133">0</tspan><tspan x="-4.361" y="152">5</tspan><tspan x="-5.068" y="171">0</tspan><tspan x="-4.361" y="190">5</tspan><tspan x="-5.068" y="209">0</tspan><tspan x="-4.361" y="228">5</tspan><tspan x="-5.068" y="247">0</tspan><tspan x="-4.361" y="266">5</tspan><tspan x="-5.068" y="285">0</tspan><tspan x="-4.361" y="304">5</tspan><tspan x="-5.068" y="323">0</tspan><tspan x="-5.068" y="342">0</tspan><tspan x="-2.772" y="361">1</tspan><tspan x="-2.772" y="380">1</tspan><tspan x="-4.291" y="399">2</tspan><tspan x="-4.291" y="418">2</tspan><tspan x="-4.326" y="437">3</tspan><tspan x="-4.326" y="456">3</tspan><tspan x="-4.774" y="475">4</tspan><tspan x="-4.774" y="494">4</tspan><tspan x="-4.361" y="513">5</tspan><tspan x="-4.361" y="532">5</tspan><tspan x="-4.592" y="551">6</tspan><tspan x="-4.592" y="570">6</tspan><tspan x="-4.263" y="589">7</tspan><tspan x="-4.263" y="608">7</tspan><tspan x="-4.41" y="627">8</tspan><tspan x="-4.41" y="646">8</tspan><tspan x="-4.592" y="665">9</tspan><tspan x="-4.592" y="684">9</tspan><tspan x="-5.068" y="703">0</tspan></text>
      <text id="_0_5_0_5_0_5_0_5_0_5_0_5_0_5_0_5_0_5_0_5_0" data-name="0
5
0
5
0
5
0
5
0
5
0
5
0
5
0
5
0
5
0
5
0" transform="translate(84 524)" fill="#2c2828" font-size="14" font-family="GothamRounded-Medium, Gotham Rounded" font-weight="500"><tspan x="-5.068" y="0">0</tspan><tspan x="-4.361" y="19">5</tspan><tspan x="-5.068" y="38">0</tspan><tspan x="-4.361" y="57">5</tspan><tspan x="-5.068" y="76">0</tspan><tspan x="-4.361" y="95">5</tspan><tspan x="-5.068" y="114">0</tspan><tspan x="-4.361" y="133">5</tspan><tspan x="-5.068" y="152">0</tspan><tspan x="-4.361" y="171">5</tspan><tspan x="-5.068" y="190">0</tspan><tspan x="-4.361" y="209">5</tspan><tspan x="-5.068" y="228">0</tspan><tspan x="-4.361" y="247">5</tspan><tspan x="-5.068" y="266">0</tspan><tspan x="-4.361" y="285">5</tspan><tspan x="-5.068" y="304">0</tspan><tspan x="-4.361" y="323">5</tspan><tspan x="-5.068" y="342">0</tspan><tspan x="-4.361" y="361">5</tspan><tspan x="-5.068" y="380">0</tspan></text>
    </g>
    <g id="MAX" transform="translate(174 123.115)" clip-path="url(#clip-path)">
      <text id="_5_1_1_2_2_3_3_4_4_5_5_6_6_7_7_8_8_9_9_1_1_1_1_1_1_1_1_1_1_1_1_1_1_1_1_1_1_1_2-2" data-name="
5
1
1
2
2
3
3
4
4
5
5
6
6
7
7
8
8
9
9
1
1
1
1
1
1
1
1
1
1
1
1
1
1
1
1
1
1
1
2" transform="translate(55 163)" fill="#2c2828" font-size="14" font-family="GothamRounded-Medium, Gotham Rounded" font-weight="500"><tspan x="-6.286" y="0"></tspan><tspan x="-4.361" y="19">5</tspan><tspan x="-2.772" y="38">1</tspan><tspan x="-2.772" y="57">1</tspan><tspan x="-4.291" y="76">2</tspan><tspan x="-4.291" y="95">2</tspan><tspan x="-4.326" y="114">3</tspan><tspan x="-4.326" y="133">3</tspan><tspan x="-4.774" y="152">4</tspan><tspan x="-4.774" y="171">4</tspan><tspan x="-4.361" y="190">5</tspan><tspan x="-4.361" y="209">5</tspan><tspan x="-4.592" y="228">6</tspan><tspan x="-4.592" y="247">6</tspan><tspan x="-4.263" y="266">7</tspan><tspan x="-4.263" y="285">7</tspan><tspan x="-4.41" y="304">8</tspan><tspan x="-4.41" y="323">8</tspan><tspan x="-4.592" y="342">9</tspan><tspan x="-4.592" y="361">9</tspan><tspan x="-2.772" y="380">1</tspan><tspan x="-2.772" y="399">1</tspan><tspan x="-2.772" y="418">1</tspan><tspan x="-2.772" y="437">1</tspan><tspan x="-2.772" y="456">1</tspan><tspan x="-2.772" y="475">1</tspan><tspan x="-2.772" y="494">1</tspan><tspan x="-2.772" y="513">1</tspan><tspan x="-2.772" y="532">1</tspan><tspan x="-2.772" y="551">1</tspan><tspan x="-2.772" y="570">1</tspan><tspan x="-2.772" y="589">1</tspan><tspan x="-2.772" y="608">1</tspan><tspan x="-2.772" y="627">1</tspan><tspan x="-2.772" y="646">1</tspan><tspan x="-2.772" y="665">1</tspan><tspan x="-2.772" y="684">1</tspan><tspan x="-2.772" y="703">1</tspan><tspan x="-2.772" y="722">1</tspan><tspan x="-4.291" y="741">2</tspan></text>
      <text id="_5_0_5_0_5_0_5_0_5_0_5_0_5_0_5_0_5_0_0_1_1_2_2_3_3_4_4_5_5_6_6_7_7_8_8_9_9_0-2" data-name="
5
0
5
0
5
0
5
0
5
0
5
0
5
0
5
0
5
0
0
1
1
2
2
3
3
4
4
5
5
6
6
7
7
8
8
9
9
0" transform="translate(70 182)" fill="#2c2828" font-size="14" font-family="GothamRounded-Medium, Gotham Rounded" font-weight="500"><tspan x="0" y="0"></tspan><tspan x="-4.361" y="19">5</tspan><tspan x="-5.068" y="38">0</tspan><tspan x="-4.361" y="57">5</tspan><tspan x="-5.068" y="76">0</tspan><tspan x="-4.361" y="95">5</tspan><tspan x="-5.068" y="114">0</tspan><tspan x="-4.361" y="133">5</tspan><tspan x="-5.068" y="152">0</tspan><tspan x="-4.361" y="171">5</tspan><tspan x="-5.068" y="190">0</tspan><tspan x="-4.361" y="209">5</tspan><tspan x="-5.068" y="228">0</tspan><tspan x="-4.361" y="247">5</tspan><tspan x="-5.068" y="266">0</tspan><tspan x="-4.361" y="285">5</tspan><tspan x="-5.068" y="304">0</tspan><tspan x="-4.361" y="323">5</tspan><tspan x="-5.068" y="342">0</tspan><tspan x="-5.068" y="361">0</tspan><tspan x="-2.772" y="380">1</tspan><tspan x="-2.772" y="399">1</tspan><tspan x="-4.291" y="418">2</tspan><tspan x="-4.291" y="437">2</tspan><tspan x="-4.326" y="456">3</tspan><tspan x="-4.326" y="475">3</tspan><tspan x="-4.774" y="494">4</tspan><tspan x="-4.774" y="513">4</tspan><tspan x="-4.361" y="532">5</tspan><tspan x="-4.361" y="551">5</tspan><tspan x="-4.592" y="570">6</tspan><tspan x="-4.592" y="589">6</tspan><tspan x="-4.263" y="608">7</tspan><tspan x="-4.263" y="627">7</tspan><tspan x="-4.41" y="646">8</tspan><tspan x="-4.41" y="665">8</tspan><tspan x="-4.592" y="684">9</tspan><tspan x="-4.592" y="703">9</tspan><tspan x="-5.068" y="722">0</tspan></text>
      <text id="_0_5_0_5_0_5_0_5_0_5_0_5_0_5_0_5_0_5_0_5_0-2" data-name="0
5
0
5
0
5
0
5
0
5
0
5
0
5
0
5
0
5
0
5
0" transform="translate(84 524)" fill="#2c2828" font-size="14" font-family="GothamRounded-Medium, Gotham Rounded" font-weight="500"><tspan x="-5.068" y="0">0</tspan><tspan x="-4.361" y="19">5</tspan><tspan x="-5.068" y="38">0</tspan><tspan x="-4.361" y="57">5</tspan><tspan x="-5.068" y="76">0</tspan><tspan x="-4.361" y="95">5</tspan><tspan x="-5.068" y="114">0</tspan><tspan x="-4.361" y="133">5</tspan><tspan x="-5.068" y="152">0</tspan><tspan x="-4.361" y="171">5</tspan><tspan x="-5.068" y="190">0</tspan><tspan x="-4.361" y="209">5</tspan><tspan x="-5.068" y="228">0</tspan><tspan x="-4.361" y="247">5</tspan><tspan x="-5.068" y="266">0</tspan><tspan x="-4.361" y="285">5</tspan><tspan x="-5.068" y="304">0</tspan><tspan x="-4.361" y="323">5</tspan><tspan x="-5.068" y="342">0</tspan><tspan x="-4.361" y="361">5</tspan><tspan x="-5.068" y="380">0</tspan></text>
    </g>
    <path id="Path_4888" data-name="Path 4888" d="M0,0H375V80H0Z" fill="#fff"/>
    <path id="Search-6" data-name="Search" d="M-35.9-1.344A1.46,1.46,0,0,0-34.416.12a1.455,1.455,0,0,0,1.464-1.464v-5.5H-25.7A1.342,1.342,0,0,0-24.36-8.184,1.342,1.342,0,0,0-25.7-9.528h-7.248v-4.584h8.328a1.342,1.342,0,0,0,1.344-1.344A1.342,1.342,0,0,0-24.624-16.8h-9.792A1.465,1.465,0,0,0-35.9-15.312Zm15.48-14.592a1.5,1.5,0,0,0,1.656,1.44,1.5,1.5,0,0,0,1.656-1.44v-.144A1.486,1.486,0,0,0-18.768-17.5a1.486,1.486,0,0,0-1.656,1.416Zm.216,14.616A1.429,1.429,0,0,0-18.768.12,1.434,1.434,0,0,0-17.3-1.32V-11.352a1.455,1.455,0,0,0-1.464-1.464,1.434,1.434,0,0,0-1.44,1.464Zm6.984,0A1.429,1.429,0,0,0-11.784.12,1.434,1.434,0,0,0-10.32-1.32V-16.2a1.45,1.45,0,0,0-1.464-1.44,1.429,1.429,0,0,0-1.44,1.44ZM-2.16.216A5.777,5.777,0,0,0-.168-.12,1.25,1.25,0,0,0,.6-1.248a1.224,1.224,0,0,0-1.224-1.2,6.866,6.866,0,0,1-.72.072A1.383,1.383,0,0,1-2.9-3.96v-6.216h2.28A1.26,1.26,0,0,0,.648-11.424,1.26,1.26,0,0,0-.624-12.672H-2.9v-2.16a1.444,1.444,0,0,0-1.44-1.44,1.45,1.45,0,0,0-1.464,1.44v2.16h-.48a1.239,1.239,0,0,0-1.248,1.248,1.239,1.239,0,0,0,1.248,1.248h.48V-3.5C-5.808-.72-4.3.216-2.16.216ZM5.4-7.224c.264-1.968,1.512-3.336,3.288-3.336,1.92,0,3.024,1.464,3.216,3.336Zm8.184,5.832a1.268,1.268,0,0,0,.384-.888,1.143,1.143,0,0,0-1.152-1.176,1.081,1.081,0,0,0-.744.264,4.554,4.554,0,0,1-3,1.1A3.537,3.537,0,0,1,5.424-5.3h7.944A1.358,1.358,0,0,0,14.736-6.7a5.994,5.994,0,0,0-6.024-6.24,6.289,6.289,0,0,0-6.192,6.6v.048A6.323,6.323,0,0,0,9.024.288,6.506,6.506,0,0,0,13.584-1.392Zm4.248.072A1.429,1.429,0,0,0,19.272.12a1.45,1.45,0,0,0,1.464-1.44V-5.064c0-3,1.416-4.584,3.48-4.944A1.363,1.363,0,0,0,25.368-11.4a1.348,1.348,0,0,0-1.44-1.44c-1.272,0-2.52,1.2-3.192,2.784v-1.3a1.455,1.455,0,0,0-1.464-1.464,1.434,1.434,0,0,0-1.44,1.464ZM32.208.24c2.64,0,4.7-1.32,4.7-3.984v-.048c0-2.28-2.088-3.12-3.936-3.7-1.488-.48-2.856-.864-2.856-1.8v-.048c0-.72.648-1.248,1.776-1.248a6.911,6.911,0,0,1,2.976.864,1.14,1.14,0,0,0,.576.144,1.168,1.168,0,0,0,1.2-1.176,1.232,1.232,0,0,0-.7-1.1,8.711,8.711,0,0,0-3.984-1.032c-2.52,0-4.512,1.464-4.512,3.864v.048c0,2.424,2.088,3.192,3.96,3.72,1.488.456,2.832.792,2.832,1.776v.048c0,.84-.72,1.368-1.968,1.368a6.689,6.689,0,0,1-3.648-1.224,1.267,1.267,0,0,0-.624-.168A1.163,1.163,0,0,0,26.832-2.28a1.113,1.113,0,0,0,.552,1.008A8.661,8.661,0,0,0,32.208.24Z" transform="translate(188 68)"/>
    <path id="Icon" d="M8.311,17.764,8.2,17.671.329,9.8a1.127,1.127,0,0,1-.193-.259h0L.125,9.515l0-.006L.114,9.493.108,9.482l0-.01L.1,9.455v0a1.127,1.127,0,0,1-.04-.8v0L.062,8.63l0-.01,0-.01.006-.017v0a1.115,1.115,0,0,1,.158-.279l0,0a1.134,1.134,0,0,1,.087-.1l0,0L8.2.329A1.125,1.125,0,0,1,9.889,1.814L9.8,1.921,3.842,7.875H16.875a1.125,1.125,0,0,1,.131,2.243l-.131.007H3.842L9.8,16.079a1.126,1.126,0,0,1,.094,1.485l-.094.106a1.126,1.126,0,0,1-1.485.094Z" transform="translate(30 52)"/>
    <path id="textbox-5" data-name="textbox" d="M5,0H86.582a5,5,0,0,1,5,5V16.729a5,5,0,0,1-5,5H5a5,5,0,0,1-5-5V5A5,5,0,0,1,5,0Z" transform="translate(14 401.578)" fill="#3f62ac"/>
    <path id="Railway" d="M-12.337-.676A.733.733,0,0,0-11.6.065a.769.769,0,0,0,.741-.507l.767-1.755h4.42l.741,1.7a.824.824,0,0,0,.78.559A.749.749,0,0,0-3.393-.7a.7.7,0,0,0-.091-.338l-3.38-7.54a1,1,0,0,0-.949-.65h-.078a1.014,1.014,0,0,0-.962.65l-3.38,7.54A.819.819,0,0,0-12.337-.676Zm2.86-2.938,1.6-3.679,1.6,3.679Zm7.7,2.9A.774.774,0,0,0-1,.065a.777.777,0,0,0,.793-.78V-3.874a1.527,1.527,0,0,1,1.547-1.7c.936,0,1.469.611,1.469,1.677V-.715A.777.777,0,0,0,3.6.065a.766.766,0,0,0,.78-.78V-4.381A2.353,2.353,0,0,0,1.937-7.007a2.488,2.488,0,0,0-2.145,1.2v-.338A.788.788,0,0,0-1-6.942a.777.777,0,0,0-.78.793ZM7.488,2.119C8.593,2.119,9.217,1.6,9.8.195l2.509-6.019a1.41,1.41,0,0,0,.065-.377.744.744,0,0,0-.754-.741.807.807,0,0,0-.754.6L9.152-1.781,7.306-6.344a.789.789,0,0,0-.767-.6.755.755,0,0,0-.78.767A1.062,1.062,0,0,0,5.85-5.8L8.4-.1,8.346.039c-.26.533-.507.728-.975.728A1.778,1.778,0,0,1,6.825.676.8.8,0,0,0,6.539.624a.633.633,0,0,0-.637.65.67.67,0,0,0,.494.65A2.779,2.779,0,0,0,7.488,2.119Z" transform="translate(59.791 416.942)" fill="#fff"/>
    <path id="textbox-6" data-name="textbox" d="M5,0H87.837a5,5,0,0,1,5,5V16.729a5,5,0,0,1-5,5H5a5,5,0,0,1-5-5V5A5,5,0,0,1,5,0Z" transform="translate(141 401.578)" fill="#ecf0f3"/>
    <path id="Railway-2" data-name="Railway" d="M-26.286-.806A.794.794,0,0,0-25.48,0h2.587a4.556,4.556,0,0,0,4.836-4.55v-.026A4.536,4.536,0,0,0-22.893-9.1H-25.48a.794.794,0,0,0-.806.806Zm1.6-.65V-7.644h1.794A2.986,2.986,0,0,1-19.734-4.55v.026a2.966,2.966,0,0,1-3.159,3.068Zm10.426,1.6a2.79,2.79,0,0,0,2.236-1V-.6a.711.711,0,0,0,.767.663.749.749,0,0,0,.767-.754v-3.38a2.848,2.848,0,0,0-.741-2.119,3.076,3.076,0,0,0-2.275-.767,5.884,5.884,0,0,0-2.21.4.687.687,0,0,0-.429.624.655.655,0,0,0,.663.65.883.883,0,0,0,.247-.039,4.076,4.076,0,0,1,1.521-.273c1.1,0,1.7.52,1.7,1.5v.169a5.734,5.734,0,0,0-1.846-.286c-1.677,0-2.834.728-2.834,2.21v.026A2.193,2.193,0,0,0-14.261.143ZM-13.819-1c-.754,0-1.339-.377-1.339-1.04v-.026c0-.715.6-1.144,1.612-1.144a4.361,4.361,0,0,1,1.56.273v.468C-11.986-1.6-12.779-1-13.819-1Zm6.357,3.12c1.105,0,1.729-.52,2.314-1.924l2.509-6.019A1.41,1.41,0,0,0-2.574-6.2a.744.744,0,0,0-.754-.741.807.807,0,0,0-.754.6L-5.8-1.781-7.644-6.344a.789.789,0,0,0-.767-.6.755.755,0,0,0-.78.767A1.062,1.062,0,0,0-9.1-5.8L-6.552-.1-6.6.039c-.26.533-.507.728-.975.728A1.778,1.778,0,0,1-8.125.676.8.8,0,0,0-8.411.624a.633.633,0,0,0-.637.65.67.67,0,0,0,.494.65A2.779,2.779,0,0,0-7.462,2.119Zm8.749-2A3.129,3.129,0,0,0,2.366-.065a.677.677,0,0,0,.416-.611.663.663,0,0,0-.663-.65,3.719,3.719,0,0,1-.39.039.749.749,0,0,1-.845-.858V-5.512H2.119a.682.682,0,0,0,.689-.676.682.682,0,0,0-.689-.676H.884v-1.17a.782.782,0,0,0-.78-.78.785.785,0,0,0-.793.78v1.17h-.26a.671.671,0,0,0-.676.676.671.671,0,0,0,.676.676h.26V-1.9A1.759,1.759,0,0,0,1.287.117ZM4.368-8.632a.814.814,0,0,0,.9.78.814.814,0,0,0,.9-.78V-8.71a.8.8,0,0,0-.9-.767.8.8,0,0,0-.9.767ZM4.485-.715a.774.774,0,0,0,.78.78.777.777,0,0,0,.793-.78V-6.149a.788.788,0,0,0-.793-.793.777.777,0,0,0-.78.793Zm3.692,0a.774.774,0,0,0,.78.78.777.777,0,0,0,.793-.78V-3.874a1.5,1.5,0,0,1,1.469-1.7c.871,0,1.391.6,1.391,1.664v3.2a.777.777,0,0,0,.793.78.774.774,0,0,0,.78-.78V-3.874c0-1.1.611-1.7,1.469-1.7.884,0,1.391.585,1.391,1.677V-.715a.777.777,0,0,0,.793.78.766.766,0,0,0,.78-.78V-4.381a2.307,2.307,0,0,0-2.405-2.626A2.762,2.762,0,0,0,13.9-5.8a2.178,2.178,0,0,0-2.054-1.209A2.46,2.46,0,0,0,9.75-5.824v-.325a.788.788,0,0,0-.793-.793.777.777,0,0,0-.78.793Zm13.6-3.2A1.858,1.858,0,0,1,23.556-5.72,1.782,1.782,0,0,1,25.3-3.913ZM26.208-.754a.687.687,0,0,0,.208-.481.619.619,0,0,0-.624-.637.586.586,0,0,0-.4.143,2.467,2.467,0,0,1-1.625.6,1.916,1.916,0,0,1-1.976-1.742h4.3a.736.736,0,0,0,.741-.754,3.247,3.247,0,0,0-3.263-3.38,3.407,3.407,0,0,0-3.354,3.575v.026A3.425,3.425,0,0,0,23.738.156,3.524,3.524,0,0,0,26.208-.754Z" transform="translate(188.686 417.197)"/>
    <path id="textbox-7" data-name="textbox" d="M5,0H87.837a5,5,0,0,1,5,5V16.729a5,5,0,0,1-5,5H5a5,5,0,0,1-5-5V5A5,5,0,0,1,5,0Z" transform="translate(269 401.578)" fill="#ecf0f3"/>
    <path id="Railway-3" data-name="Railway" d="M-29.075-.715a.785.785,0,0,0,.793.78.782.782,0,0,0,.78-.78V-6.487l4.68,6.058a1.006,1.006,0,0,0,.832.481h.065a.777.777,0,0,0,.78-.793V-8.385a.785.785,0,0,0-.793-.78.782.782,0,0,0-.78.78V-2.8l-4.55-5.889a1.007,1.007,0,0,0-.832-.468h-.169a.8.8,0,0,0-.806.806Zm10.127-7.917a.814.814,0,0,0,.9.78.814.814,0,0,0,.9-.78V-8.71a.8.8,0,0,0-.9-.767.8.8,0,0,0-.9.767Zm.117,7.917a.774.774,0,0,0,.78.78.777.777,0,0,0,.793-.78V-6.149a.788.788,0,0,0-.793-.793.777.777,0,0,0-.78.793Zm6.747,2.821a3.864,3.864,0,0,0,2.821-.923A3.512,3.512,0,0,0-8.392-1.4V-6.149a.788.788,0,0,0-.793-.793.782.782,0,0,0-.78.78v.325a2.962,2.962,0,0,0-2.405-1.17,3.1,3.1,0,0,0-3.12,3.224v.026A3.085,3.085,0,0,0-12.37-.546,2.875,2.875,0,0,0-9.952-1.807v.533A1.919,1.919,0,0,1-12.123.832,4.2,4.2,0,0,1-14.229.286a.62.62,0,0,0-.286-.065.663.663,0,0,0-.663.65.644.644,0,0,0,.442.624A5.93,5.93,0,0,0-12.084,2.106Zm.13-3.991A1.869,1.869,0,0,1-13.9-3.77V-3.8a1.854,1.854,0,0,1,1.95-1.885A1.917,1.917,0,0,1-9.939-3.8v.026A1.917,1.917,0,0,1-11.954-1.885Zm5.6,1.17a.774.774,0,0,0,.78.78.777.777,0,0,0,.793-.78V-3.874a1.527,1.527,0,0,1,1.547-1.7c.936,0,1.469.611,1.469,1.677V-.715a.777.777,0,0,0,.793.78.766.766,0,0,0,.78-.78V-4.381A2.353,2.353,0,0,0-2.633-7.007a2.488,2.488,0,0,0-2.145,1.2V-8.775a.785.785,0,0,0-.793-.78.774.774,0,0,0-.78.78ZM4.075.117A3.129,3.129,0,0,0,5.154-.065.677.677,0,0,0,5.57-.676a.663.663,0,0,0-.663-.65,3.719,3.719,0,0,1-.39.039.749.749,0,0,1-.845-.858V-5.512H4.907A.682.682,0,0,0,5.6-6.188a.682.682,0,0,0-.689-.676H3.672v-1.17a.782.782,0,0,0-.78-.78.785.785,0,0,0-.793.78v1.17h-.26a.671.671,0,0,0-.676.676.671.671,0,0,0,.676.676H2.1V-1.9A1.759,1.759,0,0,0,4.075.117ZM7.156-8.632a.814.814,0,0,0,.9.78.814.814,0,0,0,.9-.78V-8.71a.8.8,0,0,0-.9-.767.8.8,0,0,0-.9.767ZM7.273-.715a.774.774,0,0,0,.78.78.777.777,0,0,0,.793-.78V-6.149a.788.788,0,0,0-.793-.793.777.777,0,0,0-.78.793Zm3.692,0a.774.774,0,0,0,.78.78.777.777,0,0,0,.793-.78V-3.874a1.5,1.5,0,0,1,1.469-1.7c.871,0,1.391.6,1.391,1.664v3.2a.777.777,0,0,0,.793.78.774.774,0,0,0,.78-.78V-3.874c0-1.1.611-1.7,1.469-1.7.884,0,1.391.585,1.391,1.677V-.715a.777.777,0,0,0,.793.78.766.766,0,0,0,.78-.78V-4.381A2.307,2.307,0,0,0,19-7.007,2.762,2.762,0,0,0,16.685-5.8a2.178,2.178,0,0,0-2.054-1.209,2.46,2.46,0,0,0-2.093,1.183v-.325a.788.788,0,0,0-.793-.793.777.777,0,0,0-.78.793Zm13.6-3.2A1.858,1.858,0,0,1,26.344-5.72a1.782,1.782,0,0,1,1.742,1.807ZM29-.754a.687.687,0,0,0,.208-.481.619.619,0,0,0-.624-.637.586.586,0,0,0-.4.143,2.467,2.467,0,0,1-1.625.6,1.916,1.916,0,0,1-1.976-1.742h4.3a.736.736,0,0,0,.741-.754,3.247,3.247,0,0,0-3.263-3.38A3.407,3.407,0,0,0,23-3.432v.026A3.425,3.425,0,0,0,26.527.156,3.524,3.524,0,0,0,29-.754Z" transform="translate(316.686 417.197)"/>
    <path id="Path_4889" data-name="Path 4889" d="M0,0H375V27H0Z" transform="translate(0 102)" fill="#ecf0f3"/>
    <path id="Search-7" data-name="Search" d="M.5-.624A.676.676,0,0,0,1.188.06a.71.71,0,0,0,.684-.468l.708-1.62H6.66L7.344-.456a.76.76,0,0,0,.72.516.692.692,0,0,0,.7-.708A.643.643,0,0,0,8.676-.96L5.556-7.92a.921.921,0,0,0-.876-.6H4.608a.936.936,0,0,0-.888.6L.6-.96A.756.756,0,0,0,.5-.624Zm2.64-2.712,1.476-3.4L6.1-3.336ZM10.416-.672A.73.73,0,0,0,11.16.06a.727.727,0,0,0,.732-.732V-2.7H13.56c1.848,0,3.36-.984,3.36-2.868v-.024C16.92-7.284,15.7-8.4,13.728-8.4H11.16a.733.733,0,0,0-.744.744Zm1.476-3.36V-7.056h1.716c1.1,0,1.812.516,1.812,1.5v.024c0,.876-.7,1.5-1.812,1.5Zm6.6,3.36a.73.73,0,0,0,.744.732.727.727,0,0,0,.732-.732V-2.7h1.668C23.484-2.7,25-3.684,25-5.568v-.024C25-7.284,23.772-8.4,21.8-8.4H19.236a.733.733,0,0,0-.744.744Zm1.476-3.36V-7.056h1.716c1.1,0,1.812.516,1.812,1.5v.024c0,.876-.7,1.5-1.812,1.5Zm6.6,3.288A.733.733,0,0,0,27.312,0h4.536a.671.671,0,0,0,.672-.672.671.671,0,0,0-.672-.672h-3.8V-7.728a.727.727,0,0,0-.732-.732.73.73,0,0,0-.744.732Zm7.572.072a.73.73,0,0,0,.744.732.727.727,0,0,0,.732-.732V-7.728a.727.727,0,0,0-.732-.732.73.73,0,0,0-.744.732ZM38.664,0h4.944a.658.658,0,0,0,.66-.66.666.666,0,0,0-.66-.66H39.4V-3.576h3.612a.656.656,0,0,0,.66-.648.668.668,0,0,0-.66-.672H39.4V-7.08h4.152a.658.658,0,0,0,.66-.66.666.666,0,0,0-.66-.66H38.664a.733.733,0,0,0-.744.744V-.744A.733.733,0,0,0,38.664,0ZM46.02-.744A.733.733,0,0,0,46.764,0h2.388a4.205,4.205,0,0,0,4.464-4.2v-.024A4.187,4.187,0,0,0,49.152-8.4H46.764a.733.733,0,0,0-.744.744Zm1.476-.6V-7.056h1.656A2.756,2.756,0,0,1,52.068-4.2v.024a2.738,2.738,0,0,1-2.916,2.832Zm11.628.672a.73.73,0,0,0,.744.732A.727.727,0,0,0,60.6-.672V-3.42h3.624a.671.671,0,0,0,.672-.672.671.671,0,0,0-.672-.672H60.6V-7.056h4.164a.671.671,0,0,0,.672-.672.671.671,0,0,0-.672-.672h-4.9a.733.733,0,0,0-.744.744Zm8.016,0a.73.73,0,0,0,.744.732.727.727,0,0,0,.732-.732V-7.728a.727.727,0,0,0-.732-.732.73.73,0,0,0-.744.732Zm3.78-.072A.733.733,0,0,0,71.664,0H76.2a.671.671,0,0,0,.672-.672.671.671,0,0,0-.672-.672H72.4V-7.728a.727.727,0,0,0-.732-.732.73.73,0,0,0-.744.732Zm8.352.072a.738.738,0,0,0,.744.732.738.738,0,0,0,.744-.732v-6.36h2.052a.681.681,0,0,0,.672-.684.681.681,0,0,0-.672-.684h-5.58a.684.684,0,0,0-.684.684.684.684,0,0,0,.684.684h2.04ZM85.788,0h4.944a.658.658,0,0,0,.66-.66.666.666,0,0,0-.66-.66H86.52V-3.576h3.612a.656.656,0,0,0,.66-.648.668.668,0,0,0-.66-.672H86.52V-7.08h4.152a.658.658,0,0,0,.66-.66.666.666,0,0,0-.66-.66H85.788a.733.733,0,0,0-.744.744V-.744A.733.733,0,0,0,85.788,0Zm7.356-.672a.73.73,0,0,0,.744.732.727.727,0,0,0,.732-.732V-2.928h1.86l2.04,2.6a.844.844,0,0,0,.72.384.7.7,0,0,0,.708-.684.856.856,0,0,0-.24-.564L98.1-3.216a2.486,2.486,0,0,0,1.908-2.508v-.024a2.539,2.539,0,0,0-.7-1.812,3.384,3.384,0,0,0-2.424-.84h-3a.733.733,0,0,0-.744.744ZM94.62-4.236v-2.82h2.148c1.092,0,1.74.492,1.74,1.392v.024c0,.852-.672,1.4-1.728,1.4ZM104.82.12c1.764,0,3-.936,3-2.508v-.024c0-1.392-.912-2.028-2.688-2.46-1.62-.384-2-.672-2-1.32v-.024c0-.552.5-1,1.368-1a3.494,3.494,0,0,1,1.932.636.714.714,0,0,0,.384.108.686.686,0,0,0,.7-.684.666.666,0,0,0-.324-.588,4.622,4.622,0,0,0-2.664-.78c-1.668,0-2.868,1-2.868,2.436v.024c0,1.548,1.008,2.076,2.8,2.508,1.56.36,1.9.684,1.9,1.284v.024c0,.624-.576,1.056-1.488,1.056a3.642,3.642,0,0,1-2.352-.864.684.684,0,0,0-.432-.132.686.686,0,0,0-.7.684.692.692,0,0,0,.288.564A5.23,5.23,0,0,0,104.82.12Z" transform="translate(14 120)" fill="#97a7c3"/>
    <g id="Group_3966" data-name="Group 3966" transform="translate(14 140.013)">
      <rect id="textbox-8" data-name="textbox" width="92.082" height="21.729" rx="5" transform="translate(0 0.136)" fill="#d4e6d1"/>
      <text id="Railway-4" data-name="Railway" transform="translate(34.529 15.5)" font-size="13" font-family="GothamRounded-Medium, Gotham Rounded" font-weight="500" letter-spacing="0.005em"><tspan x="-24.063" y="0">Nairobi</tspan></text>
      <line id="Line_858" data-name="Line 858" y2="22" transform="translate(67.529)" fill="none" stroke="#ecf3ed" stroke-width="1"/>
      <g id="Group_3164" data-name="Group 3164" transform="translate(76.529 7.78)">
        <line id="Line_852" data-name="Line 852" y2="9.107" transform="translate(6.439 0) rotate(45)" fill="none" stroke="#fff" stroke-linecap="round" stroke-width="2"/>
        <line id="Line_853" data-name="Line 853" y1="9.107" transform="translate(6.439 6.439) rotate(135)" fill="none" stroke="#fff" stroke-linecap="round" stroke-width="2"/>
      </g>
    </g>
    <g id="Group_4006" data-name="Group 4006" transform="translate(150 140.148)">
      <rect id="textbox-9" data-name="textbox" width="60.082" height="21.729" rx="5" transform="translate(0 0.136)" fill="#d4e6d1"/>
      <text id="Railway-5" data-name="Railway" transform="translate(23.529 15.5)" font-size="13" font-family="GothamRounded-Medium, Gotham Rounded" font-weight="500" letter-spacing="0.005em"><tspan x="-13.338" y="0">1-2h</tspan></text>
      <line id="Line_858-2" data-name="Line 858" y2="22" transform="translate(42.529 -0.135)" fill="none" stroke="#ecf3ed" stroke-width="1"/>
      <g id="Group_3164-2" data-name="Group 3164" transform="translate(48.529 7.645)">
        <line id="Line_852-2" data-name="Line 852" y2="9.107" transform="translate(6.439 0) rotate(45)" fill="none" stroke="#fff" stroke-linecap="round" stroke-width="2"/>
        <line id="Line_853-2" data-name="Line 853" y1="9.107" transform="translate(6.439 6.439) rotate(135)" fill="none" stroke="#fff" stroke-linecap="round" stroke-width="2"/>
      </g>
    </g>
    <g id="Group_4003" data-name="Group 4003" transform="translate(254 140.013)">
      <rect id="textbox-10" data-name="textbox" width="108.276" height="22" rx="5" transform="translate(0 0)" fill="#d4e6d1"/>
      <text id="Railway-6" data-name="Railway" transform="translate(41.776 15.5)" font-size="13" font-family="GothamRounded-Medium, Gotham Rounded" font-weight="500" letter-spacing="0.005em"><tspan x="-32.597" y="0">This week</tspan></text>
      <line id="Line_858-3" data-name="Line 858" y2="22" transform="translate(81.311)" fill="none" stroke="#ecf3ed" stroke-width="1"/>
      <g id="Group_3164-3" data-name="Group 3164" transform="translate(91.846 7.781)">
        <line id="Line_852-3" data-name="Line 852" y2="9.107" transform="translate(6.439 0) rotate(45)" fill="none" stroke="#fff" stroke-linecap="round" stroke-width="2"/>
        <line id="Line_853-3" data-name="Line 853" y1="9.107" transform="translate(6.439 6.439) rotate(135)" fill="none" stroke="#fff" stroke-linecap="round" stroke-width="2"/>
      </g>
    </g>
    <path id="Path_4890" data-name="Path 4890" d="M0,0H375V27H0Z" transform="translate(0 175)" fill="#ecf0f3"/>
    <g transform="matrix(1, 0, 0, 1, 0, 0)" filter="url(#Rectangle)">
      <path id="Rectangle-2" data-name="Rectangle" d="M12,0H363a12,12,0,0,1,12,12V90H0V12A12,12,0,0,1,12,0Z" transform="translate(0 738)" fill="#fff"/>
    </g>
    <g id="Group_4682" data-name="Group 4682" transform="translate(29 779)">
      <text id="Railway-7" data-name="Railway" transform="translate(10 0)" fill="#ff8282" font-size="14" font-family="GothamRounded-Medium, Gotham Rounded" font-weight="500" letter-spacing="0.005em"><tspan x="0" y="0">Clear</tspan></text>
    </g>
    <g id="Group_3778" data-name="Group 3778" transform="translate(148.574 756.454)">
      <g id="Group_3767" data-name="Group 3767" transform="translate(-29.574 -1)">
        <path id="textbox-11" data-name="textbox" d="M10,0H230a10,10,0,0,1,10,10V30a10,10,0,0,1-10,10H10A10,10,0,0,1,0,30V10A10,10,0,0,1,10,0Z" fill="#000308"/>
        <text id="Back" transform="translate(121.436 25.102)" fill="#fff" font-size="14" font-family="GothamRounded-Medium, Gotham Rounded" font-weight="500"><tspan x="-17.22" y="0">Back</tspan></text>
      </g>
    </g>
  </g>
</svg>
