<svg xmlns="http://www.w3.org/2000/svg" xmlns:xlink="http://www.w3.org/1999/xlink" width="375" height="838" viewBox="0 0 375 838">
  <defs>
    <filter id="Path_4969" x="28" y="623" width="319" height="48" filterUnits="userSpaceOnUse">
      <feOffset input="SourceAlpha"/>
      <feGaussianBlur stdDeviation="1" result="blur"/>
      <feFlood flood-opacity="0.161"/>
      <feComposite operator="in" in2="blur"/>
      <feComposite in="SourceGraphic"/>
    </filter>
    <clipPath id="clip-H-1.3_Edit_your_activity_-_Info_1">
      <rect width="375" height="838"/>
    </clipPath>
  </defs>
  <g id="H-1.3_Edit_your_activity_-_Info_1" data-name="H-1.3 Edit your activity - Info – 1" clip-path="url(#clip-H-1.3_Edit_your_activity_-_Info_1)">
    <rect width="375" height="838" fill="#fff"/>
    <path id="Russia" d="M2.475-.875a1,1,0,0,0,.975,1,1,1,0,0,0,1-1v-5.3H8.7c3.725,0,6.875-1.95,6.875-5.725v-.05c0-3.45-2.6-5.55-6.55-5.55H3.45a1,1,0,0,0-.975,1Zm1.975-7.1v-7.7H8.875c2.825,0,4.7,1.3,4.7,3.8v.05c0,2.3-1.9,3.85-4.8,3.85ZM22.575.275A5.664,5.664,0,0,0,27.25-1.95V-.775a.887.887,0,0,0,.925.9.914.914,0,0,0,.925-.95V-7.9a5.1,5.1,0,0,0-1.325-3.775A5.671,5.671,0,0,0,23.6-13.1a10.192,10.192,0,0,0-4.225.875.882.882,0,0,0-.525.8.854.854,0,0,0,.85.825.981.981,0,0,0,.35-.075A8.069,8.069,0,0,1,23.4-11.4c2.425,0,3.85,1.2,3.85,3.525v.45a13.724,13.724,0,0,0-3.975-.55C20-7.975,17.75-6.525,17.75-3.8v.05C17.75-1.1,20.175.275,22.575.275ZM22.95-1.25c-1.75,0-3.25-.95-3.25-2.575v-.05c0-1.625,1.35-2.675,3.775-2.675a13.482,13.482,0,0,1,3.8.55v1.25C27.275-2.7,25.325-1.25,22.95-1.25Zm10.375.4A.961.961,0,0,0,34.3.125a.955.955,0,0,0,.95-.975v-4.4c0-3.725,2.05-5.6,4.55-5.9a.955.955,0,0,0,.85-.975.926.926,0,0,0-.95-.975,5.352,5.352,0,0,0-4.45,3.45v-2.425a.961.961,0,0,0-.975-.975.971.971,0,0,0-.95.975ZM46.8.275A5.664,5.664,0,0,0,51.475-1.95V-.775a.887.887,0,0,0,.925.9.914.914,0,0,0,.925-.95V-7.9A5.1,5.1,0,0,0,52-11.675,5.671,5.671,0,0,0,47.825-13.1a10.192,10.192,0,0,0-4.225.875.882.882,0,0,0-.525.8.854.854,0,0,0,.85.825.981.981,0,0,0,.35-.075,8.069,8.069,0,0,1,3.35-.725c2.425,0,3.85,1.2,3.85,3.525v.45a13.724,13.724,0,0,0-3.975-.55c-3.275,0-5.525,1.45-5.525,4.175v.05C41.975-1.1,44.4.275,46.8.275Zm.375-1.525c-1.75,0-3.25-.95-3.25-2.575v-.05c0-1.625,1.35-2.675,3.775-2.675A13.482,13.482,0,0,1,51.5-6v1.25C51.5-2.7,49.55-1.25,47.175-1.25ZM61.825.25c2.575,0,4.6-1.425,4.6-3.875v-.05c0-2.325-2.15-3.1-4.15-3.7C60.55-7.9,58.95-8.375,58.95-9.6v-.05c0-1.075.975-1.875,2.5-1.875a7,7,0,0,1,3.375,1,.967.967,0,0,0,.425.1.838.838,0,0,0,.85-.825.935.935,0,0,0-.475-.8,9,9,0,0,0-4.125-1.1c-2.55,0-4.4,1.475-4.4,3.7v.05c0,2.375,2.25,3.075,4.275,3.65,1.7.475,3.225.975,3.225,2.275v.05c0,1.25-1.125,2.05-2.675,2.05a7.262,7.262,0,0,1-4.1-1.375.769.769,0,0,0-.475-.15.838.838,0,0,0-.85.825.869.869,0,0,0,.35.7A8.944,8.944,0,0,0,61.825.25Zm12.15.025A5.664,5.664,0,0,0,78.65-1.95V-.775a.887.887,0,0,0,.925.9.914.914,0,0,0,.925-.95V-7.9a5.1,5.1,0,0,0-1.325-3.775A5.671,5.671,0,0,0,75-13.1a10.192,10.192,0,0,0-4.225.875.882.882,0,0,0-.525.8.854.854,0,0,0,.85.825.981.981,0,0,0,.35-.075A8.069,8.069,0,0,1,74.8-11.4c2.425,0,3.85,1.2,3.85,3.525v.45a13.724,13.724,0,0,0-3.975-.55c-3.275,0-5.525,1.45-5.525,4.175v.05C69.15-1.1,71.575.275,73.975.275ZM74.35-1.25c-1.75,0-3.25-.95-3.25-2.575v-.05c0-1.625,1.35-2.675,3.775-2.675a13.482,13.482,0,0,1,3.8.55v1.25C78.675-2.7,76.725-1.25,74.35-1.25Zm10.375-15.4a1.055,1.055,0,0,0,1.125,1.025A1.062,1.062,0,0,0,87-16.65v-.325A1.048,1.048,0,0,0,85.85-18a1.04,1.04,0,0,0-1.125,1.025ZM84.9-.85a.961.961,0,0,0,.975.975.94.94,0,0,0,.95-.975V-12.075a.961.961,0,0,0-.975-.975.971.971,0,0,0-.95.975Zm6.7,0a.961.961,0,0,0,.975.975.94.94,0,0,0,.95-.975V-17.4a.976.976,0,0,0-.975-.975.971.971,0,0,0-.95.975Zm6.525-15.8a1.055,1.055,0,0,0,1.125,1.025,1.062,1.062,0,0,0,1.15-1.025v-.325A1.048,1.048,0,0,0,99.25-18a1.04,1.04,0,0,0-1.125,1.025ZM98.3-.85a.961.961,0,0,0,.975.975.94.94,0,0,0,.95-.975V-12.075a.961.961,0,0,0-.975-.975.971.971,0,0,0-.95.975Zm6.525,0a.961.961,0,0,0,.975.975.94.94,0,0,0,.95-.975V-7.4a3.8,3.8,0,0,1,3.875-4.05c2.275,0,3.575,1.5,3.575,3.9v6.7a.961.961,0,0,0,.975.975.955.955,0,0,0,.95-.975V-8.025c0-3.075-1.825-5.175-4.95-5.175a4.895,4.895,0,0,0-4.425,2.525v-1.4a.961.961,0,0,0-.975-.975.971.971,0,0,0-.95.975Zm21.25,4.9A6.8,6.8,0,0,0,131,2.325a6.226,6.226,0,0,0,1.65-4.575v-9.825a.976.976,0,0,0-.975-.975.955.955,0,0,0-.95.975V-10.6a6.06,6.06,0,0,0-5.05-2.6A6,6,0,0,0,119.6-7.1v.05A5.976,5.976,0,0,0,125.675-1a6.127,6.127,0,0,0,5.075-2.725V-2.2c0,3.025-1.85,4.6-4.7,4.6A8.163,8.163,0,0,1,121.475,1a.775.775,0,0,0-.425-.125.918.918,0,0,0-.875.85.891.891,0,0,0,.5.8A10.122,10.122,0,0,0,126.075,4.05ZM126.05-2.7a4.375,4.375,0,0,1-4.475-4.4v-.05a4.275,4.275,0,0,1,4.475-4.35,4.528,4.528,0,0,1,4.75,4.375v.05A4.561,4.561,0,0,1,126.05-2.7Z" transform="translate(31 122)" fill="#1e2022"/>
    <path id="Path_4950" data-name="Path 4950" d="M6,0H116a6,6,0,0,1,6,6V24a6,6,0,0,1-6,6H6a6,6,0,0,1-6-6V6A6,6,0,0,1,6,0Z" transform="translate(237 48)" fill="rgba(206,206,206,0.2)"/>
    <path id="thunder" d="M90.724,20.94a.614.614,0,0,1-.6-.761L92.2,11.828h-5.59a.614.614,0,0,1-.572-.835l4.1-10.6A.613.613,0,0,1,90.715,0h5.642a.613.613,0,0,1,.561.861L94.49,6.372h4.8a.613.613,0,0,1,.516.945L91.241,20.658A.614.614,0,0,1,90.724,20.94Z" transform="translate(161.927 52.53)" fill="#0d58a2"/>
    <path id="Russia-2" data-name="Russia" d="M5.278.154c2.562,0,4.214-1.47,4.214-4.4V-9.016a.848.848,0,0,0-.854-.854.852.852,0,0,0-.868.854v4.858c0,1.806-.938,2.716-2.464,2.716S2.828-2.408,2.828-4.228V-9.016a.848.848,0,0,0-.854-.854.852.852,0,0,0-.868.854v4.858C1.106-1.316,2.73.154,5.278.154ZM11.732,1.47a.847.847,0,0,0,1.694,0V-1.148a3.019,3.019,0,0,0,2.52,1.3,3.536,3.536,0,0,0,3.43-3.836V-3.71a3.536,3.536,0,0,0-3.43-3.836,2.959,2.959,0,0,0-2.52,1.386v-.462a.848.848,0,0,0-.854-.854.837.837,0,0,0-.84.854ZM15.54-1.316a2.229,2.229,0,0,1-2.156-2.366V-3.71A2.229,2.229,0,0,1,15.54-6.076,2.189,2.189,0,0,1,17.654-3.71v.028A2.165,2.165,0,0,1,15.54-1.316Zm8.946,3.584a4.161,4.161,0,0,0,3.038-.994,3.782,3.782,0,0,0,.938-2.786v-5.11a.848.848,0,0,0-.854-.854.842.842,0,0,0-.84.84v.35a3.19,3.19,0,0,0-2.59-1.26,3.334,3.334,0,0,0-3.36,3.472v.028a3.322,3.322,0,0,0,3.36,3.458,3.1,3.1,0,0,0,2.6-1.358v.574A2.067,2.067,0,0,1,24.444.9,4.52,4.52,0,0,1,22.176.308a.667.667,0,0,0-.308-.07.714.714,0,0,0-.714.7.693.693,0,0,0,.476.672A6.386,6.386,0,0,0,24.486,2.268Zm.14-4.3a2.013,2.013,0,0,1-2.1-2.03v-.028a2,2,0,0,1,2.1-2.03,2.065,2.065,0,0,1,2.17,2.03v.028A2.065,2.065,0,0,1,24.626-2.03ZM30.66-.77a.834.834,0,0,0,.84.84.846.846,0,0,0,.854-.84V-2.954c0-1.75.826-2.674,2.03-2.884a.8.8,0,0,0,.672-.812.786.786,0,0,0-.84-.84,2.35,2.35,0,0,0-1.862,1.624v-.756a.848.848,0,0,0-.854-.854.837.837,0,0,0-.84.854Zm7.63.924A3,3,0,0,0,40.7-.924v.28a.766.766,0,0,0,.826.714.807.807,0,0,0,.826-.812v-3.64a3.067,3.067,0,0,0-.8-2.282A3.312,3.312,0,0,0,39.1-7.49a6.336,6.336,0,0,0-2.38.434.739.739,0,0,0-.462.672.705.705,0,0,0,.714.7.951.951,0,0,0,.266-.042,4.39,4.39,0,0,1,1.638-.294c1.19,0,1.834.56,1.834,1.61v.182a6.175,6.175,0,0,0-1.988-.308c-1.806,0-3.052.784-3.052,2.38v.028A2.361,2.361,0,0,0,38.29.154Zm.476-1.232c-.812,0-1.442-.406-1.442-1.12v-.028c0-.77.644-1.232,1.736-1.232a4.7,4.7,0,0,1,1.68.294v.5C40.74-1.722,39.886-1.078,38.766-1.078ZM51.716-9.45a.837.837,0,0,0-.854-.84.834.834,0,0,0-.84.84v3.206a3.024,3.024,0,0,0-2.52-1.3,3.528,3.528,0,0,0-3.43,3.836v.028A3.544,3.544,0,0,0,47.5.154a2.959,2.959,0,0,0,2.52-1.386V-.77a.837.837,0,0,0,.854.84.834.834,0,0,0,.84-.84ZM47.908-6.076A2.218,2.218,0,0,1,50.05-3.71v.028a2.227,2.227,0,0,1-2.142,2.366A2.2,2.2,0,0,1,45.78-3.682V-3.71A2.167,2.167,0,0,1,47.908-6.076Zm7.28,1.862A2,2,0,0,1,57.106-6.16a1.919,1.919,0,0,1,1.876,1.946Zm4.774,3.4a.74.74,0,0,0,.224-.518.667.667,0,0,0-.672-.686.631.631,0,0,0-.434.154,2.657,2.657,0,0,1-1.75.644A2.064,2.064,0,0,1,55.2-3.094h4.634a.792.792,0,0,0,.8-.812,3.5,3.5,0,0,0-3.514-3.64A3.669,3.669,0,0,0,53.508-3.7v.028A3.688,3.688,0,0,0,57.3.168,3.8,3.8,0,0,0,59.962-.812Z" transform="translate(283 67)" fill="#0d58a2"/>
    <path id="Path_4681" data-name="Path 4681" d="M11.482,137.729h0l5.45-5.424a1.043,1.043,0,0,1,1.472,1.479l-3.659,3.641H27.8a1.043,1.043,0,0,1,0,2.086H14.746l3.659,3.641a1.043,1.043,0,0,1-1.472,1.479l-5.45-5.424h0A1.044,1.044,0,0,1,11.482,137.729Z" transform="translate(7.156 -74.934)"/>
    <g id="Path_4945" data-name="Path 4945" transform="translate(96 159)" fill="#f2f2f2">
      <path d="M 239 39.5 L 10 39.5 C 4.761687278747559 39.5 0.5 35.23831176757812 0.5 30 L 0.5 10 C 0.5 4.761687278747559 4.761687278747559 0.5 10 0.5 L 239 0.5 C 244.2383117675781 0.5 248.5 4.761687278747559 248.5 10 L 248.5 30 C 248.5 35.23831176757812 244.2383117675781 39.5 239 39.5 Z" stroke="none"/>
      <path d="M 10 1 C 5.037368774414062 1 1 5.037376403808594 1 10 L 1 30 C 1 34.96262359619141 5.037368774414062 39 10 39 L 239 39 C 243.9626312255859 39 248 34.96262359619141 248 30 L 248 10 C 248 5.037376403808594 243.9626312255859 1 239 1 L 10 1 M 10 0 L 239 0 C 244.5228424072266 0 249 4.477157592773438 249 10 L 249 30 C 249 35.52284240722656 244.5228424072266 40 239 40 L 10 40 C 4.477157592773438 40 0 35.52284240722656 0 30 L 0 10 C 0 4.477157592773438 4.477157592773438 0 10 0 Z" stroke="none" fill="#fff"/>
    </g>
    <g id="Path_4946" data-name="Path 4946" transform="translate(30 159)" fill="#3f62ac">
      <path d="M 175.5 39.5 L 10 39.5 C 4.761673927307129 39.5 0.5 35.23832702636719 0.5 30 L 0.5 10 C 0.5 4.761673927307129 4.761673927307129 0.5 10 0.5 L 175.5 0.5 L 175.5 39.5 Z" stroke="none"/>
      <path d="M 10 1 C 5.037384033203125 1 1 5.037387847900391 1 10 L 1 30 C 1 34.96261215209961 5.037384033203125 39 10 39 L 175 39 L 175 1 L 10 1 M 10 0 L 176 0 L 176 40 L 10 40 C 4.477157592773438 40 0 35.52284240722656 0 30 L 0 10 C 0 4.477157592773438 4.477157592773438 0 10 0 Z" stroke="none" fill="#fff"/>
    </g>
    <path id="Path_4947" data-name="Path 4947" d="M-12.362-.784a.852.852,0,0,0,.868.854.848.848,0,0,0,.854-.854V-9.016a.848.848,0,0,0-.854-.854.852.852,0,0,0-.868.854Zm4.144.014a.834.834,0,0,0,.84.84.837.837,0,0,0,.854-.84v-3.4A1.644,1.644,0,0,1-4.858-6.006c1.008,0,1.582.658,1.582,1.806V-.77a.837.837,0,0,0,.854.84.825.825,0,0,0,.84-.84V-4.718A2.534,2.534,0,0,0-4.214-7.546a2.679,2.679,0,0,0-2.31,1.288v-.364a.848.848,0,0,0-.854-.854.837.837,0,0,0-.84.854ZM.84-.77a.842.842,0,0,0,.84.84.846.846,0,0,0,.854-.84V-5.936H3.822a.705.705,0,0,0,.714-.7.7.7,0,0,0-.714-.7H2.506v-.406c0-.77.336-1.12.98-1.12a2.727,2.727,0,0,1,.35.028.7.7,0,0,0,.714-.7.7.7,0,0,0-.588-.7,4.884,4.884,0,0,0-.854-.07,2.239,2.239,0,0,0-1.666.588A2.5,2.5,0,0,0,.84-7.9v.546H.546a.717.717,0,0,0-.714.714.705.705,0,0,0,.714.7H.84ZM9.1.168a3.865,3.865,0,0,0,3.962-3.85V-3.71A3.829,3.829,0,0,0,9.128-7.546,3.864,3.864,0,0,0,5.18-3.682v.028A3.823,3.823,0,0,0,9.1.168Zm.028-1.484A2.278,2.278,0,0,1,6.874-3.682V-3.71A2.219,2.219,0,0,1,9.1-6.062a2.285,2.285,0,0,1,2.268,2.38v.028A2.218,2.218,0,0,1,9.128-1.316Z" transform="matrix(1, 0, 0, 1, 111, 184)" fill="#fff"/>
    <path id="Path_4956" data-name="Path 4956" d="M4.69.14c2.058,0,3.5-1.092,3.5-2.926v-.028c0-1.624-1.064-2.366-3.136-2.87-1.89-.448-2.338-.784-2.338-1.54v-.028c0-.644.588-1.162,1.6-1.162a4.076,4.076,0,0,1,2.254.742.833.833,0,0,0,.448.126.8.8,0,0,0,.812-.8.777.777,0,0,0-.378-.686A5.392,5.392,0,0,0,4.34-9.94C2.394-9.94.994-8.778.994-7.1v.028c0,1.806,1.176,2.422,3.262,2.926,1.82.42,2.212.8,2.212,1.5v.028c0,.728-.672,1.232-1.736,1.232A4.25,4.25,0,0,1,1.988-2.394a.8.8,0,0,0-.5-.154.8.8,0,0,0-.812.8.808.808,0,0,0,.336.658A6.1,6.1,0,0,0,4.69.14ZM12.432.126a3.37,3.37,0,0,0,1.162-.2.729.729,0,0,0,.448-.658.714.714,0,0,0-.714-.7,4,4,0,0,1-.42.042A.807.807,0,0,1,12-2.31V-5.936h1.33a.735.735,0,0,0,.742-.728.735.735,0,0,0-.742-.728H12v-1.26a.842.842,0,0,0-.84-.84.846.846,0,0,0-.854.84v1.26h-.28a.723.723,0,0,0-.728.728.723.723,0,0,0,.728.728h.28v3.892A1.9,1.9,0,0,0,12.432.126Zm5.4.028A3,3,0,0,0,20.244-.924v.28A.766.766,0,0,0,21.07.07.807.807,0,0,0,21.9-.742v-3.64a3.067,3.067,0,0,0-.8-2.282,3.312,3.312,0,0,0-2.45-.826,6.336,6.336,0,0,0-2.38.434.739.739,0,0,0-.462.672.705.705,0,0,0,.714.7.951.951,0,0,0,.266-.042,4.39,4.39,0,0,1,1.638-.294c1.19,0,1.834.56,1.834,1.61v.182a6.175,6.175,0,0,0-1.988-.308c-1.806,0-3.052.784-3.052,2.38v.028A2.361,2.361,0,0,0,17.836.154Zm.476-1.232c-.812,0-1.442-.406-1.442-1.12v-.028c0-.77.644-1.232,1.736-1.232a4.7,4.7,0,0,1,1.68.294v.5C20.286-1.722,19.432-1.078,18.312-1.078Zm8.022,1.2A3.37,3.37,0,0,0,27.5-.07a.729.729,0,0,0,.448-.658.714.714,0,0,0-.714-.7,4,4,0,0,1-.42.042.807.807,0,0,1-.91-.924V-5.936h1.33a.735.735,0,0,0,.742-.728.735.735,0,0,0-.742-.728H25.9v-1.26a.842.842,0,0,0-.84-.84.846.846,0,0,0-.854.84v1.26h-.28a.723.723,0,0,0-.728.728.723.723,0,0,0,.728.728h.28v3.892A1.9,1.9,0,0,0,26.334.126Zm5.81.014c1.54,0,2.744-.77,2.744-2.324v-.028c0-1.33-1.218-1.82-2.3-2.156-.868-.28-1.666-.5-1.666-1.05v-.028c0-.42.378-.728,1.036-.728a4.032,4.032,0,0,1,1.736.5.665.665,0,0,0,.336.084.682.682,0,0,0,.7-.686.718.718,0,0,0-.406-.644A5.081,5.081,0,0,0,32-7.518a2.358,2.358,0,0,0-2.632,2.254v.028c0,1.414,1.218,1.862,2.31,2.17.868.266,1.652.462,1.652,1.036V-2c0,.49-.42.8-1.148.8a3.9,3.9,0,0,1-2.128-.714.739.739,0,0,0-.364-.1.678.678,0,0,0-.686.686.649.649,0,0,0,.322.588A5.052,5.052,0,0,0,32.144.14Z" transform="matrix(1, 0, 0, 1, 262, 184)"/>
    <path id="Path_4952" data-name="Path 4952" d="M6,0H145a6,6,0,0,1,6,6V74a6,6,0,0,1-6,6H6a6,6,0,0,1-6-6V6A6,6,0,0,1,6,0Z" transform="translate(31 364)" fill="#4de8b5" opacity="0.8"/>
    <path id="Path_4953" data-name="Path 4953" d="M3.408-.42a.481.481,0,0,0,.48.48.481.481,0,0,0,.48-.48v-7.1H6.8a.441.441,0,0,0,.444-.432A.451.451,0,0,0,6.8-8.4H.972a.451.451,0,0,0-.444.444.441.441,0,0,0,.444.432H3.408ZM8.484-7.992a.506.506,0,0,0,.54.492.51.51,0,0,0,.552-.492v-.156a.5.5,0,0,0-.552-.492.5.5,0,0,0-.54.492ZM8.568-.408A.461.461,0,0,0,9.036.06a.451.451,0,0,0,.456-.468V-5.8a.461.461,0,0,0-.468-.468.466.466,0,0,0-.456.468ZM14.5.144a3.122,3.122,0,0,0,2.34-1,.419.419,0,0,0,.12-.288.433.433,0,0,0-.42-.42.366.366,0,0,0-.264.12,2.479,2.479,0,0,1-1.728.756A2.318,2.318,0,0,1,12.264-3.1V-3.12a2.289,2.289,0,0,1,2.22-2.4,2.393,2.393,0,0,1,1.692.744.478.478,0,0,0,.3.108.443.443,0,0,0,.444-.444.434.434,0,0,0-.144-.324,3.208,3.208,0,0,0-2.28-.9,3.2,3.2,0,0,0-3.18,3.24v.024A3.185,3.185,0,0,0,14.5.144Zm4.116-.552A.461.461,0,0,0,19.08.06a.451.451,0,0,0,.456-.468V-1.6L20.82-2.868,22.968-.156a.453.453,0,0,0,.4.216.426.426,0,0,0,.444-.432.465.465,0,0,0-.12-.312l-2.22-2.8L23.5-5.472a.478.478,0,0,0,.18-.36.42.42,0,0,0-.42-.432.46.46,0,0,0-.36.18l-3.36,3.42V-8.352a.469.469,0,0,0-.468-.468.466.466,0,0,0-.456.468Zm7.176-3.036A2.139,2.139,0,0,1,27.8-5.556a2.043,2.043,0,0,1,1.98,2.112Zm4.5,2.652a.4.4,0,0,0,.144-.3.4.4,0,0,0-.408-.4.4.4,0,0,0-.264.108,2.536,2.536,0,0,1-1.788.72,2.167,2.167,0,0,1-2.184-2.1h4.488a.43.43,0,0,0,.432-.432,2.921,2.921,0,0,0-2.88-3.144,3.06,3.06,0,0,0-2.976,3.228v.024a3.084,3.084,0,0,0,3.1,3.228A3.154,3.154,0,0,0,30.288-.792Zm4.188.9a2.334,2.334,0,0,0,.912-.168.386.386,0,0,0,.264-.36.4.4,0,0,0-.4-.4,2.615,2.615,0,0,1-.564.084.918.918,0,0,1-1.044-1.032V-5.388h1.608a.415.415,0,0,0,.42-.408.423.423,0,0,0-.42-.408H33.648V-7.668a.477.477,0,0,0-.468-.468.458.458,0,0,0-.456.468V-6.2h-.5a.412.412,0,0,0-.408.408.421.421,0,0,0,.408.408h.5v3.744A1.579,1.579,0,0,0,34.476.108ZM39.36.12a1.954,1.954,0,0,0,2.208-1.86v-.024c0-1.116-1.032-1.488-1.992-1.776-.828-.252-1.6-.48-1.6-1.068v-.024c0-.516.468-.9,1.2-.9a3.358,3.358,0,0,1,1.62.48A.464.464,0,0,0,41-5a.4.4,0,0,0,.408-.4.449.449,0,0,0-.228-.384,4.322,4.322,0,0,0-1.98-.528,1.877,1.877,0,0,0-2.112,1.776v.024c0,1.14,1.08,1.476,2.052,1.752.816.228,1.548.468,1.548,1.092v.024c0,.6-.54.984-1.284.984a3.486,3.486,0,0,1-1.968-.66.369.369,0,0,0-.228-.072A.4.4,0,0,0,36.8-1a.417.417,0,0,0,.168.336A4.293,4.293,0,0,0,39.36.12ZM1.188,15.58a.474.474,0,1,0,.948,0V13.036h2.04c1.788,0,3.3-.936,3.3-2.748v-.024C7.476,8.608,6.228,7.6,4.332,7.6H1.656a.479.479,0,0,0-.468.48Zm.948-3.408v-3.7H4.26c1.356,0,2.256.624,2.256,1.824v.024c0,1.1-.912,1.848-2.3,1.848ZM14.484,10.2a.459.459,0,0,0-.456-.468.451.451,0,0,0-.456.468v3.144a1.832,1.832,0,0,1-1.86,1.944A1.654,1.654,0,0,1,10,13.42V10.2a.469.469,0,0,0-.468-.468.451.451,0,0,0-.456.468v3.444a2.266,2.266,0,0,0,2.376,2.484,2.363,2.363,0,0,0,2.124-1.212v.672a.456.456,0,1,0,.912,0Zm2.136,5.388a.462.462,0,1,0,.924,0V13.48a2.526,2.526,0,0,1,2.184-2.832.459.459,0,0,0,.408-.468.444.444,0,0,0-.456-.468,2.569,2.569,0,0,0-2.136,1.656V10.2a.461.461,0,0,0-.468-.468.466.466,0,0,0-.456.468Zm7.452.552a3.122,3.122,0,0,0,2.34-1,.419.419,0,0,0,.12-.288.433.433,0,0,0-.42-.42.366.366,0,0,0-.264.12,2.479,2.479,0,0,1-1.728.756A2.318,2.318,0,0,1,21.84,12.9V12.88a2.289,2.289,0,0,1,2.22-2.4,2.393,2.393,0,0,1,1.692.744.478.478,0,0,0,.3.108.443.443,0,0,0,.444-.444.434.434,0,0,0-.144-.324,3.225,3.225,0,0,0-5.46,2.34v.024A3.185,3.185,0,0,0,24.072,16.144Zm4.116-.552a.461.461,0,0,0,.468.468.451.451,0,0,0,.456-.468V12.448a1.825,1.825,0,0,1,1.86-1.944,1.654,1.654,0,0,1,1.716,1.872v3.216a.462.462,0,1,0,.924,0V12.148a2.266,2.266,0,0,0-2.376-2.484,2.349,2.349,0,0,0-2.124,1.212V7.648a.462.462,0,1,0-.924,0Zm9.3.54a2.719,2.719,0,0,0,2.244-1.068v.564a.426.426,0,0,0,.444.432.439.439,0,0,0,.444-.456v-3.4a2.449,2.449,0,0,0-.636-1.812,2.722,2.722,0,0,0-2-.684,4.892,4.892,0,0,0-2.028.42.423.423,0,0,0-.252.384.41.41,0,0,0,.408.4.471.471,0,0,0,.168-.036,3.873,3.873,0,0,1,1.608-.348c1.164,0,1.848.576,1.848,1.692v.216a6.587,6.587,0,0,0-1.908-.264c-1.572,0-2.652.7-2.652,2V14.2A2.089,2.089,0,0,0,37.488,16.132Zm.18-.732c-.84,0-1.56-.456-1.56-1.236V14.14c0-.78.648-1.284,1.812-1.284a6.472,6.472,0,0,1,1.824.264v.6A1.876,1.876,0,0,1,37.668,15.4Zm7.032.72a1.954,1.954,0,0,0,2.208-1.86v-.024c0-1.116-1.032-1.488-1.992-1.776-.828-.252-1.6-.48-1.6-1.068v-.024c0-.516.468-.9,1.2-.9a3.358,3.358,0,0,1,1.62.48.464.464,0,0,0,.2.048.4.4,0,0,0,.408-.4.449.449,0,0,0-.228-.384,4.322,4.322,0,0,0-1.98-.528,1.877,1.877,0,0,0-2.112,1.776v.024c0,1.14,1.08,1.476,2.052,1.752.816.228,1.548.468,1.548,1.092v.024c0,.6-.54.984-1.284.984a3.486,3.486,0,0,1-1.968-.66.369.369,0,0,0-.228-.072.4.4,0,0,0-.408.4.417.417,0,0,0,.168.336A4.293,4.293,0,0,0,44.7,16.12Zm4.536-3.564a2.139,2.139,0,0,1,2.016-2.112,2.043,2.043,0,0,1,1.98,2.112Zm4.5,2.652a.392.392,0,0,0-.264-.7.4.4,0,0,0-.264.108,2.536,2.536,0,0,1-1.788.72,2.167,2.167,0,0,1-2.184-2.1h4.488a.43.43,0,0,0,.432-.432,2.921,2.921,0,0,0-2.88-3.144A3.06,3.06,0,0,0,48.3,12.892v.024a3.084,3.084,0,0,0,3.1,3.228A3.154,3.154,0,0,0,53.736,15.208Zm8.016-7.56a.461.461,0,0,0-.468-.468.451.451,0,0,0-.456.468v3.336a2.8,2.8,0,0,0-2.376-1.32,3.044,3.044,0,0,0-2.964,3.228v.024a3.026,3.026,0,0,0,2.964,3.216,2.789,2.789,0,0,0,2.376-1.38v.84a.462.462,0,1,0,.924,0ZM58.62,10.492a2.306,2.306,0,0,1,2.244,2.388V12.9a2.317,2.317,0,0,1-2.244,2.4,2.241,2.241,0,0,1-2.184-2.4V12.88A2.189,2.189,0,0,1,58.62,10.492Z" transform="translate(40 382)" fill="#24282f"/>
    <path id="Path_4960" data-name="Path 4960" d="M.84-.77A.764.764,0,0,0,1.61,0H5.23a.7.7,0,0,0,.7-.7.7.7,0,0,0-.7-.7H2.38V-6.29a.764.764,0,0,0-.77-.77.764.764,0,0,0-.77.77ZM8.44.1a2.061,2.061,0,0,0,1.62-.68v.01a.681.681,0,0,0,.73.63.73.73,0,0,0,.74-.73V-3.11a2.336,2.336,0,0,0-.58-1.71,2.475,2.475,0,0,0-1.81-.6,4.666,4.666,0,0,0-1.71.28.63.63,0,0,0-.41.59.619.619,0,0,0,.63.62.643.643,0,0,0,.22-.04,3.486,3.486,0,0,1,1.05-.15c.76,0,1.15.35,1.15.98v.09a3.809,3.809,0,0,0-1.31-.22c-1.27,0-2.16.54-2.16,1.71v.02A1.658,1.658,0,0,0,8.44.1ZM8.9-.95c-.49,0-.83-.24-.83-.65v-.02c0-.48.4-.74,1.05-.74a2.357,2.357,0,0,1,.97.2v.27C10.09-1.34,9.61-.95,8.9-.95ZM14.77.1c1.16,0,2.05-.54,2.05-1.73v-.02c0-.98-.87-1.34-1.62-1.59-.58-.2-1.09-.34-1.09-.64V-3.9c0-.21.19-.37.56-.37a2.858,2.858,0,0,1,1.16.34.555.555,0,0,0,.28.07.6.6,0,0,0,.61-.6.619.619,0,0,0-.36-.57,3.768,3.768,0,0,0-1.66-.41,1.752,1.752,0,0,0-1.96,1.7v.02c0,1.04.85,1.39,1.6,1.61.59.18,1.11.29,1.11.62v.02c0,.24-.2.4-.64.4a2.823,2.823,0,0,1-1.45-.48.583.583,0,0,0-.3-.08.589.589,0,0,0-.6.6.606.606,0,0,0,.29.52A3.735,3.735,0,0,0,14.77.1Zm4.9-.01a2.243,2.243,0,0,0,.87-.15.618.618,0,0,0,.39-.57.634.634,0,0,0-.63-.63c-.03,0-.13.01-.18.01-.34,0-.49-.17-.49-.52V-4.06h.67a.649.649,0,0,0,.65-.65.649.649,0,0,0-.65-.65h-.67v-.67a.76.76,0,0,0-.76-.76.76.76,0,0,0-.76.76v.67h-.05a.649.649,0,0,0-.65.65.649.649,0,0,0,.65.65h.05v2.54C18.11-.28,18.74.09,19.67.09Zm7.87.03a2.283,2.283,0,0,0,2.52-2.29v-.02a1.941,1.941,0,0,0-1.88-1.96l1.37-1.31a1.117,1.117,0,0,0,.46-.86A.7.7,0,0,0,29.23-7H25.82a.666.666,0,0,0-.66.66.666.666,0,0,0,.66.66h2.15L26.61-4.31a.869.869,0,0,0-.33.63.666.666,0,0,0,.66.66h.24c.86,0,1.37.32,1.37.89v.02a.878.878,0,0,1-.99.85,2,2,0,0,1-1.37-.52.731.731,0,0,0-.49-.19.751.751,0,0,0-.74.74.759.759,0,0,0,.26.55A3.422,3.422,0,0,0,27.54.12Zm6.79,0c1.87,0,3.12-1.59,3.12-3.62v-.02c0-2.03-1.25-3.6-3.1-3.6S31.23-5.53,31.23-3.5v.02C31.23-1.45,32.46.12,34.33.12Zm.02-1.39c-.93,0-1.54-.95-1.54-2.23v-.02c0-1.28.6-2.21,1.52-2.21s1.54.96,1.54,2.23v.02C35.87-2.21,35.28-1.27,34.35-1.27ZM47.16-6.6a.76.76,0,0,0-.76-.76.76.76,0,0,0-.76.76v1.94a2.058,2.058,0,0,0-1.67-.8,2.512,2.512,0,0,0-2.44,2.77v.02A2.523,2.523,0,0,0,43.97.1a1.968,1.968,0,0,0,1.67-.87V-.7a.76.76,0,0,0,.76.76.76.76,0,0,0,.76-.76Zm-2.8,2.43a1.36,1.36,0,0,1,1.3,1.48v.02a1.36,1.36,0,0,1-1.3,1.48,1.367,1.367,0,0,1-1.31-1.48v-.02A1.361,1.361,0,0,1,44.36-4.17ZM50.09.1a2.061,2.061,0,0,0,1.62-.68v.01a.681.681,0,0,0,.73.63.73.73,0,0,0,.74-.73V-3.11a2.336,2.336,0,0,0-.58-1.71,2.475,2.475,0,0,0-1.81-.6,4.666,4.666,0,0,0-1.71.28.63.63,0,0,0-.41.59.619.619,0,0,0,.63.62.643.643,0,0,0,.22-.04,3.486,3.486,0,0,1,1.05-.15c.76,0,1.15.35,1.15.98v.09a3.809,3.809,0,0,0-1.31-.22c-1.27,0-2.16.54-2.16,1.71v.02A1.658,1.658,0,0,0,50.09.1Zm.46-1.05c-.49,0-.83-.24-.83-.65v-.02c0-.48.4-.74,1.05-.74a2.357,2.357,0,0,1,.97.2v.27C51.74-1.34,51.26-.95,50.55-.95Zm5,2.58c.91,0,1.36-.41,1.81-1.5l1.87-4.49a1.148,1.148,0,0,0,.07-.36.706.706,0,0,0-.72-.7.771.771,0,0,0-.73.58L56.73-1.73,55.57-4.85a.735.735,0,0,0-.73-.57.72.72,0,0,0-.75.73,1.109,1.109,0,0,0,.08.35L56-.1l-.05.12a.5.5,0,0,1-.54.32,1,1,0,0,1-.32-.06.717.717,0,0,0-.25-.04.606.606,0,0,0-.6.62.658.658,0,0,0,.48.63A2.287,2.287,0,0,0,55.55,1.63ZM62.13.1c1.16,0,2.05-.54,2.05-1.73v-.02c0-.98-.87-1.34-1.62-1.59-.58-.2-1.09-.34-1.09-.64V-3.9c0-.21.19-.37.56-.37a2.858,2.858,0,0,1,1.16.34.555.555,0,0,0,.28.07.6.6,0,0,0,.61-.6.619.619,0,0,0-.36-.57,3.768,3.768,0,0,0-1.66-.41,1.752,1.752,0,0,0-1.96,1.7v.02c0,1.04.85,1.39,1.6,1.61.59.18,1.11.29,1.11.62v.02c0,.24-.2.4-.64.4a2.823,2.823,0,0,1-1.45-.48.583.583,0,0,0-.3-.08.589.589,0,0,0-.6.6.606.606,0,0,0,.29.52A3.735,3.735,0,0,0,62.13.1Z" transform="translate(109 435)" fill="#20232b"/>
    <path id="Path_4961" data-name="Path 4961" d="M4.976.192C7.312.192,8.9-1.3,8.9-3.36v-.032c0-2.064-1.6-2.928-3.3-3.136L8.24-9.264a1.432,1.432,0,0,0,.56-1.072.882.882,0,0,0-.976-.864H2.1a.86.86,0,0,0-.864.864.857.857,0,0,0,.864.848H6.16l-2.624,2.8a1.118,1.118,0,0,0-.416.8.854.854,0,0,0,.848.848h.4c1.568,0,2.576.624,2.576,1.728v.032a1.753,1.753,0,0,1-1.936,1.7A3.406,3.406,0,0,1,2.464-2.656a.944.944,0,0,0-.656-.256.956.956,0,0,0-.944.944.945.945,0,0,0,.32.7A5.249,5.249,0,0,0,4.976.192ZM11.808-.8a.92.92,0,0,0,1.008.88,1.04,1.04,0,0,0,.944-.656l4.64-8.8a2.178,2.178,0,0,0,.272-.944.82.82,0,0,0-.9-.88H11.488a.86.86,0,0,0-.864.864.86.86,0,0,0,.864.864h4.848L11.984-1.408A1.534,1.534,0,0,0,11.808-.8Z" transform="translate(42 434)" fill="#24282f"/>
    <path id="ticket_3_" data-name="ticket (3)" d="M2.135,32.866H18.616a.265.265,0,0,0,.265-.265V30.065a.262.262,0,0,0-.083-.193.266.266,0,0,0-.2-.072h-.035a.233.233,0,0,1-.049,0,1.621,1.621,0,0,1,0-3.241.462.462,0,0,1,.049,0H18.6a.251.251,0,0,0,.2-.071.262.262,0,0,0,.083-.193V23.765a.265.265,0,0,0-.265-.265H2.135a.265.265,0,0,0-.265.265V26.3a.266.266,0,0,0,.251.265,1.619,1.619,0,0,1,0,3.234.266.266,0,0,0-.251.265V32.6a.265.265,0,0,0,.265.265ZM6.477,24.1a.251.251,0,0,1,.012-.074.263.263,0,0,1,.505,0,.251.251,0,0,1,.012.074v.442a.265.265,0,0,1-.53,0Zm0,1.681a.265.265,0,0,1,.53,0v.772a.265.265,0,0,1-.53,0Zm0,2.011a.265.265,0,0,1,.53,0v.774a.265.265,0,0,1-.53,0Zm0,2.013a.265.265,0,0,1,.53,0v.772a.265.265,0,1,1-.53,0Zm0,2.011a.265.265,0,1,1,.53,0v.442a.251.251,0,0,1-.012.074.263.263,0,0,1-.505,0,.251.251,0,0,1-.012-.074Z" transform="translate(197.5 370.13) rotate(90)" fill="#20232b"/>
    <path id="Path_4948" data-name="Path 4948" d="M6,0H307a6,6,0,0,1,6,6V74a6,6,0,0,1-6,6H6a6,6,0,0,1-6-6V6A6,6,0,0,1,6,0Z" transform="translate(31 277)" fill="#4de8b5" opacity="0.8"/>
    <path id="Path_4949" data-name="Path 4949" d="M5.028.144a4.3,4.3,0,0,0,3.12-1.236A.448.448,0,0,0,8.3-1.428a.472.472,0,0,0-.456-.456.436.436,0,0,0-.3.132,3.441,3.441,0,0,1-2.5,1.02A3.315,3.315,0,0,1,1.8-4.2v-.024A3.293,3.293,0,0,1,5.052-7.668a3.439,3.439,0,0,1,2.412.96.567.567,0,0,0,.312.108.487.487,0,0,0,.48-.468.519.519,0,0,0-.192-.384,4.345,4.345,0,0,0-3-1.092A4.232,4.232,0,0,0,.816-4.2v.024A4.19,4.19,0,0,0,5.028.144ZM11.8.132A2.719,2.719,0,0,0,14.04-.936v.564a.426.426,0,0,0,.444.432A.439.439,0,0,0,14.928-.4v-3.4A2.449,2.449,0,0,0,14.292-5.6a2.722,2.722,0,0,0-2-.684,4.892,4.892,0,0,0-2.028.42.423.423,0,0,0-.252.384.41.41,0,0,0,.408.4.471.471,0,0,0,.168-.036,3.873,3.873,0,0,1,1.608-.348c1.164,0,1.848.576,1.848,1.692v.216a6.587,6.587,0,0,0-1.908-.264c-1.572,0-2.652.7-2.652,2V-1.8A2.089,2.089,0,0,0,11.8.132Zm.18-.732c-.84,0-1.56-.456-1.56-1.236V-1.86c0-.78.648-1.284,1.812-1.284a6.471,6.471,0,0,1,1.824.264v.6A1.876,1.876,0,0,1,11.976-.6Zm7.032.72a1.954,1.954,0,0,0,2.208-1.86v-.024c0-1.116-1.032-1.488-1.992-1.776-.828-.252-1.6-.48-1.6-1.068v-.024c0-.516.468-.9,1.2-.9a3.358,3.358,0,0,1,1.62.48.464.464,0,0,0,.2.048.4.4,0,0,0,.408-.4.449.449,0,0,0-.228-.384,4.322,4.322,0,0,0-1.98-.528A1.877,1.877,0,0,0,16.74-4.536v.024c0,1.14,1.08,1.476,2.052,1.752.816.228,1.548.468,1.548,1.092v.024c0,.6-.54.984-1.284.984a3.486,3.486,0,0,1-1.968-.66.369.369,0,0,0-.228-.072.4.4,0,0,0-.408.4.417.417,0,0,0,.168.336A4.293,4.293,0,0,0,19.008.12Zm3.984-.528A.461.461,0,0,0,23.46.06a.451.451,0,0,0,.456-.468V-3.552A1.825,1.825,0,0,1,25.776-5.5a1.654,1.654,0,0,1,1.716,1.872V-.408A.461.461,0,0,0,27.96.06a.459.459,0,0,0,.456-.468V-3.852A2.266,2.266,0,0,0,26.04-6.336a2.349,2.349,0,0,0-2.124,1.212V-8.352a.469.469,0,0,0-.468-.468.466.466,0,0,0-.456.468ZM35,1.956c.936,0,1.536-.468,2.076-1.752L39.5-5.58a.775.775,0,0,0,.048-.228.456.456,0,0,0-.456-.456.464.464,0,0,0-.444.348l-1.92,4.884L34.572-5.9a.489.489,0,0,0-.468-.36.459.459,0,0,0-.468.456.645.645,0,0,0,.06.252l2.592,5.5-.048.1c-.336.756-.672,1.1-1.248,1.1a1.907,1.907,0,0,1-.672-.108.7.7,0,0,0-.228-.048.4.4,0,0,0-.4.4.422.422,0,0,0,.288.4A2.921,2.921,0,0,0,35,1.956ZM43.728.144A3.221,3.221,0,0,0,46.98-3.1V-3.12a3.188,3.188,0,0,0-3.228-3.216,3.211,3.211,0,0,0-3.24,3.24v.024A3.178,3.178,0,0,0,43.728.144Zm.024-.828A2.327,2.327,0,0,1,41.46-3.1V-3.12a2.29,2.29,0,0,1,2.268-2.4,2.348,2.348,0,0,1,2.3,2.424v.024A2.289,2.289,0,0,1,43.752-.684ZM54.024-5.8a.459.459,0,0,0-.456-.468.451.451,0,0,0-.456.468v3.144a1.832,1.832,0,0,1-1.86,1.944A1.654,1.654,0,0,1,49.536-2.58V-5.8a.469.469,0,0,0-.468-.468.451.451,0,0,0-.456.468v3.444A2.266,2.266,0,0,0,50.988.132,2.363,2.363,0,0,0,53.112-1.08v.672a.459.459,0,0,0,.456.468.458.458,0,0,0,.456-.468Zm6.348,2.352a2.139,2.139,0,0,1,2.016-2.112,2.043,2.043,0,0,1,1.98,2.112Zm4.5,2.652a.4.4,0,0,0,.144-.3.4.4,0,0,0-.408-.4.4.4,0,0,0-.264.108,2.536,2.536,0,0,1-1.788.72,2.167,2.167,0,0,1-2.184-2.1H64.86a.43.43,0,0,0,.432-.432,2.921,2.921,0,0,0-2.88-3.144,3.06,3.06,0,0,0-2.976,3.228v.024a3.084,3.084,0,0,0,3.1,3.228A3.154,3.154,0,0,0,64.872-.792Zm3.96.924A2.719,2.719,0,0,0,71.076-.936v.564A.426.426,0,0,0,71.52.06.439.439,0,0,0,71.964-.4v-3.4A2.449,2.449,0,0,0,71.328-5.6a2.722,2.722,0,0,0-2-.684,4.892,4.892,0,0,0-2.028.42.423.423,0,0,0-.252.384.41.41,0,0,0,.408.4.471.471,0,0,0,.168-.036,3.873,3.873,0,0,1,1.608-.348c1.164,0,1.848.576,1.848,1.692v.216a6.587,6.587,0,0,0-1.908-.264c-1.572,0-2.652.7-2.652,2V-1.8A2.089,2.089,0,0,0,68.832.132Zm.18-.732c-.84,0-1.56-.456-1.56-1.236V-1.86c0-.78.648-1.284,1.812-1.284a6.472,6.472,0,0,1,1.824.264v.6A1.876,1.876,0,0,1,69.012-.6Zm4.98.192A.461.461,0,0,0,74.46.06a.458.458,0,0,0,.456-.468V-2.52A2.526,2.526,0,0,1,77.1-5.352a.459.459,0,0,0,.408-.468.444.444,0,0,0-.456-.468,2.569,2.569,0,0,0-2.136,1.656V-5.8a.461.461,0,0,0-.468-.468.466.466,0,0,0-.456.468Zm4.92,0A.461.461,0,0,0,79.38.06a.451.451,0,0,0,.456-.468V-3.552A1.825,1.825,0,0,1,81.7-5.5a1.654,1.654,0,0,1,1.716,1.872V-.408A.461.461,0,0,0,83.88.06a.459.459,0,0,0,.456-.468V-3.852A2.266,2.266,0,0,0,81.96-6.336a2.349,2.349,0,0,0-2.124,1.212V-5.8a.461.461,0,0,0-.468-.468.466.466,0,0,0-.456.468Zm8-3.036a2.139,2.139,0,0,1,2.016-2.112,2.043,2.043,0,0,1,1.98,2.112Zm4.5,2.652a.4.4,0,0,0,.144-.3.4.4,0,0,0-.408-.4.4.4,0,0,0-.264.108A2.536,2.536,0,0,1,89.1-.66a2.167,2.167,0,0,1-2.184-2.1H91.4a.43.43,0,0,0,.432-.432,2.921,2.921,0,0,0-2.88-3.144A3.06,3.06,0,0,0,85.98-3.108v.024a3.084,3.084,0,0,0,3.1,3.228A3.154,3.154,0,0,0,91.416-.792Zm8.016-7.56a.461.461,0,0,0-.468-.468.451.451,0,0,0-.456.468v3.336a2.8,2.8,0,0,0-2.376-1.32,3.044,3.044,0,0,0-2.964,3.228v.024A3.026,3.026,0,0,0,96.132.132a2.789,2.789,0,0,0,2.376-1.38v.84a.461.461,0,0,0,.468.468.459.459,0,0,0,.456-.468ZM96.3-5.508A2.306,2.306,0,0,1,98.544-3.12V-3.1A2.317,2.317,0,0,1,96.3-.7a2.241,2.241,0,0,1-2.184-2.4V-3.12A2.189,2.189,0,0,1,96.3-5.508Z" transform="translate(40 295)" fill="#24282f"/>
    <path id="Path_4951" data-name="Path 4951" d="M4.56-11.52v.336c-2,.16-3.36,1.344-3.36,3.056,0,1.808,1.088,2.688,3.424,3.3V-1.68A5.669,5.669,0,0,1,2.256-2.752a.873.873,0,0,0-.528-.176.868.868,0,0,0-.88.88.879.879,0,0,0,.432.768A6.921,6.921,0,0,0,4.56-.032V.96a.7.7,0,0,0,.7.688A.683.683,0,0,0,5.952.96V0C7.984-.192,9.36-1.36,9.36-3.12c0-1.712-1.04-2.688-3.472-3.3V-9.488a5.812,5.812,0,0,1,1.648.7.926.926,0,0,0,.48.144.881.881,0,0,0,.9-.88.857.857,0,0,0-.48-.768,5.825,5.825,0,0,0-2.48-.88v-.352a.683.683,0,0,0-.688-.688A.7.7,0,0,0,4.56-11.52ZM7.472-3.008c0,.768-.56,1.28-1.584,1.392V-4.528C7.12-4.144,7.472-3.712,7.472-3.008ZM3.088-8.24c0-.7.512-1.248,1.536-1.344v2.832C3.392-7.152,3.088-7.568,3.088-8.24ZM15.328.192c2.336,0,3.92-1.488,3.92-3.552v-.032c0-2.064-1.6-2.928-3.3-3.136l2.64-2.736a1.432,1.432,0,0,0,.56-1.072.882.882,0,0,0-.976-.864H12.448a.86.86,0,0,0-.864.864.857.857,0,0,0,.864.848h4.064l-2.624,2.8a1.118,1.118,0,0,0-.416.8.854.854,0,0,0,.848.848h.4c1.568,0,2.576.624,2.576,1.728v.032a1.753,1.753,0,0,1-1.936,1.7,3.406,3.406,0,0,1-2.544-1.072.944.944,0,0,0-.656-.256.956.956,0,0,0-.944.944.945.945,0,0,0,.32.7A5.249,5.249,0,0,0,15.328.192ZM26.912-.848a.922.922,0,0,0,.944.928A.922.922,0,0,0,28.8-.848V-2.512h.864a.8.8,0,0,0,.816-.8.809.809,0,0,0-.816-.816H28.8v-6.288a.949.949,0,0,0-.96-.944,1.394,1.394,0,0,0-1.2.64L21.376-4.48a1.537,1.537,0,0,0-.432,1.04.926.926,0,0,0,.96.928h5.008Zm-3.68-3.28,3.68-4.432v4.432ZM37.088.192c2.944,0,4.9-2.592,4.9-5.792v-.032c0-3.2-1.936-5.76-4.864-5.76-2.944,0-4.9,2.592-4.9,5.792v.032C32.224-2.368,34.144.192,37.088.192Zm.032-1.776c-1.744,0-2.864-1.808-2.864-4.016v-.032c0-2.224,1.1-3.984,2.832-3.984S39.952-7.808,39.952-5.6v.032C39.952-3.376,38.864-1.584,37.12-1.584Z" transform="translate(42 347)" fill="#24282f"/>
    <path id="Path_4583" data-name="Path 4583" d="M22.8,149.87A3.811,3.811,0,0,0,20,151.294a7.613,7.613,0,0,0-5.3-2.117H8.789a6.884,6.884,0,0,0-.85.054,4.012,4.012,0,0,0-4.506-1.406.709.709,0,0,0-.483.5.667.667,0,0,0,.195.651,3.924,3.924,0,0,1,.976,1.815A6.986,6.986,0,0,0,2.1,153.337H.732A.713.713,0,0,0,0,154.03v4.16a.713.713,0,0,0,.732.693H2.1a7.251,7.251,0,0,0,3.96,3.678l-.2,1.108a.665.665,0,0,0,.164.562.748.748,0,0,0,.559.245h2.93a.722.722,0,0,0,.722-.58l.142-.807H13.1l.142.807a.722.722,0,0,0,.722.58h2.93a.748.748,0,0,0,.559-.245.665.665,0,0,0,.164-.562l-.195-1.107a6.991,6.991,0,0,0,4.648-6.452,6.609,6.609,0,0,0-1.144-3.685,2.609,2.609,0,0,1,1.877-1.168c.419,0,.732.183.732.347a.581.581,0,0,1-.285.435.675.675,0,0,0-.282.944.756.756,0,0,0,1,.267A1.954,1.954,0,0,0,25,151.6,1.985,1.985,0,0,0,22.8,149.87ZM6.592,154.724a.694.694,0,1,1,.732-.693A.714.714,0,0,1,6.592,154.724Zm8.838-1.387H9.521a.694.694,0,1,1,0-1.387H15.43a.694.694,0,1,1,0,1.387Z" transform="translate(309.682 143.378)" fill="#20232b"/>
    <path id="Path_4584" data-name="Path 4584" d="M180,4.2a4.2,4.2,0,0,0,4.2,4.144A4.149,4.149,0,0,0,188.343,4.2,4.2,4.2,0,0,0,184.2,0,4.244,4.244,0,0,0,180,4.2Z" transform="translate(137.987 282.855)" fill="#20232b"/>
    <path id="Path_4962" data-name="Path 4962" d="M6,0H146a6,6,0,0,1,6,6V74a6,6,0,0,1-6,6H6a6,6,0,0,1-6-6V6A6,6,0,0,1,6,0Z" transform="translate(192 440)" fill="#ff8282" opacity="0.8"/>
    <path id="Path_4963" data-name="Path 4963" d="M1.188-.42a.479.479,0,0,0,.468.48.481.481,0,0,0,.48-.48V-3.264H4.548L6.912-.192A.552.552,0,0,0,7.356.06a.5.5,0,0,0,.48-.468A.515.515,0,0,0,7.68-.756L5.592-3.444A2.442,2.442,0,0,0,7.836-5.88V-5.9A2.32,2.32,0,0,0,7.188-7.56,3.312,3.312,0,0,0,4.8-8.4H1.656a.479.479,0,0,0-.468.48Zm.948-3.7V-7.524H4.728c1.356,0,2.148.624,2.148,1.656v.024c0,1.08-.9,1.728-2.16,1.728Zm8.064.672a2.139,2.139,0,0,1,2.016-2.112A2.043,2.043,0,0,1,14.2-3.444ZM14.7-.792a.4.4,0,0,0,.144-.3.4.4,0,0,0-.408-.4.4.4,0,0,0-.264.108,2.536,2.536,0,0,1-1.788.72A2.167,2.167,0,0,1,10.2-2.76h4.488a.43.43,0,0,0,.432-.432,2.921,2.921,0,0,0-2.88-3.144A3.06,3.06,0,0,0,9.264-3.108v.024A3.084,3.084,0,0,0,12.36.144,3.154,3.154,0,0,0,14.7-.792ZM19.56-.3,21.9-5.58a.64.64,0,0,0,.048-.228.456.456,0,0,0-.456-.456.442.442,0,0,0-.432.336L19.02-1.056l-2-4.848a.469.469,0,0,0-.468-.36.466.466,0,0,0-.468.456.962.962,0,0,0,.06.252L18.468-.3A.573.573,0,0,0,19,.1h.048A.559.559,0,0,0,19.56-.3Zm4.056-7.692a.506.506,0,0,0,.54.492.51.51,0,0,0,.552-.492v-.156a.5.5,0,0,0-.552-.492.5.5,0,0,0-.54.492ZM23.7-.408a.461.461,0,0,0,.468.468.451.451,0,0,0,.456-.468V-5.8a.461.461,0,0,0-.468-.468A.466.466,0,0,0,23.7-5.8Zm3.684-3.036A2.139,2.139,0,0,1,29.4-5.556a2.043,2.043,0,0,1,1.98,2.112Zm4.5,2.652a.4.4,0,0,0,.144-.3.4.4,0,0,0-.408-.4.4.4,0,0,0-.264.108,2.536,2.536,0,0,1-1.788.72,2.167,2.167,0,0,1-2.184-2.1h4.488a.43.43,0,0,0,.432-.432,2.921,2.921,0,0,0-2.88-3.144,3.06,3.06,0,0,0-2.976,3.228v.024a3.084,3.084,0,0,0,3.1,3.228A3.154,3.154,0,0,0,31.884-.792ZM35.724.1h.024a.517.517,0,0,0,.5-.42l1.56-4.524L39.36-.324a.517.517,0,0,0,.5.42H39.9a.547.547,0,0,0,.5-.42L42.3-5.58a.861.861,0,0,0,.06-.252.444.444,0,0,0-.456-.432.453.453,0,0,0-.444.36l-1.584,4.68-1.56-4.668a.49.49,0,0,0-.48-.372h-.048a.473.473,0,0,0-.456.372L35.76-1.224,34.2-5.88a.485.485,0,0,0-.468-.384.456.456,0,0,0-.468.444.861.861,0,0,0,.06.252L35.208-.324A.549.549,0,0,0,35.724.1ZM45.96.12a1.954,1.954,0,0,0,2.208-1.86v-.024c0-1.116-1.032-1.488-1.992-1.776-.828-.252-1.6-.48-1.6-1.068v-.024c0-.516.468-.9,1.2-.9a3.358,3.358,0,0,1,1.62.48A.464.464,0,0,0,47.6-5a.4.4,0,0,0,.408-.4.449.449,0,0,0-.228-.384,4.322,4.322,0,0,0-1.98-.528,1.877,1.877,0,0,0-2.112,1.776v.024c0,1.14,1.08,1.476,2.052,1.752.816.228,1.548.468,1.548,1.092v.024c0,.6-.54.984-1.284.984a3.486,3.486,0,0,1-1.968-.66.369.369,0,0,0-.228-.072A.4.4,0,0,0,43.4-1a.417.417,0,0,0,.168.336A4.293,4.293,0,0,0,45.96.12Z" transform="translate(201 458)" fill="#24282f"/>
    <path id="Path_4966" data-name="Path 4966" d="M2.848-.9A.98.98,0,0,0,3.824.08.97.97,0,0,0,4.8-.9v-9.472a.96.96,0,0,0-.976-.976H3.792a3.411,3.411,0,0,0-.96.176l-1.7.544a.857.857,0,0,0-.656.848.865.865,0,0,0,.864.832A1.427,1.427,0,0,0,1.7-8.992l1.152-.352ZM7.1-.928A.945.945,0,0,0,8.16,0h6.352a.86.86,0,0,0,.864-.864.86.86,0,0,0-.864-.864H9.968l2.3-1.92c1.984-1.616,2.912-2.576,2.912-4.336v-.032c0-2-1.5-3.344-3.7-3.344A4.333,4.333,0,0,0,7.776-9.552a.984.984,0,0,0-.224.608.9.9,0,0,0,.9.9.9.9,0,0,0,.688-.3A2.738,2.738,0,0,1,11.344-9.6a1.679,1.679,0,0,1,1.808,1.744c0,1.008-.56,1.728-2.1,3.024L7.616-1.9A1.222,1.222,0,0,0,7.1-.928Z" transform="translate(203 510)" fill="#24282f"/>
    <path id="Path_4954" data-name="Path 4954" d="M6,0H146a6,6,0,0,1,6,6V64a6,6,0,0,1-6,6H6a6,6,0,0,1-6-6V6A6,6,0,0,1,6,0Z" transform="translate(192 364)" fill="#4dcae8" opacity="0.8"/>
    <path id="Path_4955" data-name="Path 4955" d="M4.44,10.1h.048a.58.58,0,0,0,.552-.4L8.292,2.188A.5.5,0,0,0,8.328,2,.466.466,0,0,0,7.86,1.54a.558.558,0,0,0-.468.336L4.476,8.86,1.572,1.9a.531.531,0,0,0-.492-.36.487.487,0,0,0-.48.468.439.439,0,0,0,.048.216L3.888,9.7A.569.569,0,0,0,4.44,10.1ZM9.78,2.008a.549.549,0,0,0,1.092,0V1.852a.549.549,0,0,0-1.092,0Zm.084,7.584a.461.461,0,0,0,.468.468.451.451,0,0,0,.456-.468V4.2a.461.461,0,0,0-.468-.468.466.466,0,0,0-.456.468Zm3.684-3.036a2.139,2.139,0,0,1,2.016-2.112,2.043,2.043,0,0,1,1.98,2.112Zm4.5,2.652a.392.392,0,0,0-.264-.7.4.4,0,0,0-.264.108,2.536,2.536,0,0,1-1.788.72,2.167,2.167,0,0,1-2.184-2.1h4.488a.43.43,0,0,0,.432-.432,2.921,2.921,0,0,0-2.88-3.144,3.06,3.06,0,0,0-2.976,3.228v.024a3.084,3.084,0,0,0,3.1,3.228A3.154,3.154,0,0,0,18.048,9.208Zm3.84.888h.024a.517.517,0,0,0,.5-.42l1.56-4.524,1.548,4.524a.517.517,0,0,0,.5.42h.036a.547.547,0,0,0,.5-.42l1.9-5.256a.861.861,0,0,0,.06-.252.444.444,0,0,0-.456-.432.453.453,0,0,0-.444.36L26.04,8.776,24.48,4.108A.49.49,0,0,0,24,3.736h-.048a.473.473,0,0,0-.456.372L21.924,8.776,20.364,4.12a.485.485,0,0,0-.468-.384.456.456,0,0,0-.468.444.861.861,0,0,0,.06.252l1.884,5.244A.549.549,0,0,0,21.888,10.1Zm10.236.024a1.954,1.954,0,0,0,2.208-1.86V8.236c0-1.116-1.032-1.488-1.992-1.776-.828-.252-1.6-.48-1.6-1.068V5.368c0-.516.468-.9,1.2-.9a3.358,3.358,0,0,1,1.62.48.464.464,0,0,0,.2.048.4.4,0,0,0,.408-.4.449.449,0,0,0-.228-.384,4.322,4.322,0,0,0-1.98-.528,1.877,1.877,0,0,0-2.112,1.776v.024c0,1.14,1.08,1.476,2.052,1.752.816.228,1.548.468,1.548,1.092v.024c0,.6-.54.984-1.284.984A3.486,3.486,0,0,1,30.2,8.68a.369.369,0,0,0-.228-.072.4.4,0,0,0-.408.4.417.417,0,0,0,.168.336A4.293,4.293,0,0,0,32.124,10.12Z" transform="translate(201 372)" fill="#24282f"/>
    <path id="Path_4957" data-name="Path 4957" d="M4.928.192A3.766,3.766,0,0,0,9.024-3.6v-.032c0-2.368-1.712-3.52-3.9-3.52a4.762,4.762,0,0,0-1.776.32L3.52-9.456H7.728a.874.874,0,0,0,.88-.864.888.888,0,0,0-.88-.88H2.656a.9.9,0,0,0-.9.88L1.52-6.288a.933.933,0,0,0,.384.864,1.539,1.539,0,0,0,.928.384,7.625,7.625,0,0,1,1.92-.384c1.36,0,2.32.7,2.32,1.856v.032A1.961,1.961,0,0,1,4.9-1.6a3.758,3.758,0,0,1-2.432-.944.863.863,0,0,0-.576-.192.956.956,0,0,0-.944.944.97.97,0,0,0,.4.768A5.675,5.675,0,0,0,4.928.192Zm10.9,0c2.944,0,4.9-2.592,4.9-5.792v-.032c0-3.2-1.936-5.76-4.864-5.76-2.944,0-4.9,2.592-4.9,5.792v.032C10.96-2.368,12.88.192,15.824.192Zm.032-1.776c-1.744,0-2.864-1.808-2.864-4.016v-.032c0-2.224,1.1-3.984,2.832-3.984S18.688-7.808,18.688-5.6v.032C18.688-3.376,17.6-1.584,15.856-1.584Z" transform="translate(203 424)" fill="#24282f"/>
    <path id="Path_4958" data-name="Path 4958" d="M.84-.77A.764.764,0,0,0,1.61,0H5.23a.7.7,0,0,0,.7-.7.7.7,0,0,0-.7-.7H2.38V-6.29a.764.764,0,0,0-.77-.77.764.764,0,0,0-.77.77ZM8.44.1a2.061,2.061,0,0,0,1.62-.68v.01a.681.681,0,0,0,.73.63.73.73,0,0,0,.74-.73V-3.11a2.336,2.336,0,0,0-.58-1.71,2.475,2.475,0,0,0-1.81-.6,4.666,4.666,0,0,0-1.71.28.63.63,0,0,0-.41.59.619.619,0,0,0,.63.62.643.643,0,0,0,.22-.04,3.486,3.486,0,0,1,1.05-.15c.76,0,1.15.35,1.15.98v.09a3.809,3.809,0,0,0-1.31-.22c-1.27,0-2.16.54-2.16,1.71v.02A1.658,1.658,0,0,0,8.44.1ZM8.9-.95c-.49,0-.83-.24-.83-.65v-.02c0-.48.4-.74,1.05-.74a2.357,2.357,0,0,1,.97.2v.27C10.09-1.34,9.61-.95,8.9-.95ZM14.77.1c1.16,0,2.05-.54,2.05-1.73v-.02c0-.98-.87-1.34-1.62-1.59-.58-.2-1.09-.34-1.09-.64V-3.9c0-.21.19-.37.56-.37a2.858,2.858,0,0,1,1.16.34.555.555,0,0,0,.28.07.6.6,0,0,0,.61-.6.619.619,0,0,0-.36-.57,3.768,3.768,0,0,0-1.66-.41,1.752,1.752,0,0,0-1.96,1.7v.02c0,1.04.85,1.39,1.6,1.61.59.18,1.11.29,1.11.62v.02c0,.24-.2.4-.64.4a2.823,2.823,0,0,1-1.45-.48.583.583,0,0,0-.3-.08.589.589,0,0,0-.6.6.606.606,0,0,0,.29.52A3.735,3.735,0,0,0,14.77.1Zm4.9-.01a2.243,2.243,0,0,0,.87-.15.618.618,0,0,0,.39-.57.634.634,0,0,0-.63-.63c-.03,0-.13.01-.18.01-.34,0-.49-.17-.49-.52V-4.06h.67a.649.649,0,0,0,.65-.65.649.649,0,0,0-.65-.65h-.67v-.67a.76.76,0,0,0-.76-.76.76.76,0,0,0-.76.76v.67h-.05a.649.649,0,0,0-.65.65.649.649,0,0,0,.65.65h.05v2.54C18.11-.28,18.74.09,19.67.09Zm7.87.03a2.283,2.283,0,0,0,2.52-2.29v-.02a1.941,1.941,0,0,0-1.88-1.96l1.37-1.31a1.117,1.117,0,0,0,.46-.86A.7.7,0,0,0,29.23-7H25.82a.666.666,0,0,0-.66.66.666.666,0,0,0,.66.66h2.15L26.61-4.31a.869.869,0,0,0-.33.63.666.666,0,0,0,.66.66h.24c.86,0,1.37.32,1.37.89v.02a.878.878,0,0,1-.99.85,2,2,0,0,1-1.37-.52.731.731,0,0,0-.49-.19.751.751,0,0,0-.74.74.759.759,0,0,0,.26.55A3.422,3.422,0,0,0,27.54.12Zm6.79,0c1.87,0,3.12-1.59,3.12-3.62v-.02c0-2.03-1.25-3.6-3.1-3.6S31.23-5.53,31.23-3.5v.02C31.23-1.45,32.46.12,34.33.12Zm.02-1.39c-.93,0-1.54-.95-1.54-2.23v-.02c0-1.28.6-2.21,1.52-2.21s1.54.96,1.54,2.23v.02C35.87-2.21,35.28-1.27,34.35-1.27ZM47.16-6.6a.76.76,0,0,0-.76-.76.76.76,0,0,0-.76.76v1.94a2.058,2.058,0,0,0-1.67-.8,2.512,2.512,0,0,0-2.44,2.77v.02A2.523,2.523,0,0,0,43.97.1a1.968,1.968,0,0,0,1.67-.87V-.7a.76.76,0,0,0,.76.76.76.76,0,0,0,.76-.76Zm-2.8,2.43a1.36,1.36,0,0,1,1.3,1.48v.02a1.36,1.36,0,0,1-1.3,1.48,1.367,1.367,0,0,1-1.31-1.48v-.02A1.361,1.361,0,0,1,44.36-4.17ZM50.09.1a2.061,2.061,0,0,0,1.62-.68v.01a.681.681,0,0,0,.73.63.73.73,0,0,0,.74-.73V-3.11a2.336,2.336,0,0,0-.58-1.71,2.475,2.475,0,0,0-1.81-.6,4.666,4.666,0,0,0-1.71.28.63.63,0,0,0-.41.59.619.619,0,0,0,.63.62.643.643,0,0,0,.22-.04,3.486,3.486,0,0,1,1.05-.15c.76,0,1.15.35,1.15.98v.09a3.809,3.809,0,0,0-1.31-.22c-1.27,0-2.16.54-2.16,1.71v.02A1.658,1.658,0,0,0,50.09.1Zm.46-1.05c-.49,0-.83-.24-.83-.65v-.02c0-.48.4-.74,1.05-.74a2.357,2.357,0,0,1,.97.2v.27C51.74-1.34,51.26-.95,50.55-.95Zm5,2.58c.91,0,1.36-.41,1.81-1.5l1.87-4.49a1.148,1.148,0,0,0,.07-.36.706.706,0,0,0-.72-.7.771.771,0,0,0-.73.58L56.73-1.73,55.57-4.85a.735.735,0,0,0-.73-.57.72.72,0,0,0-.75.73,1.109,1.109,0,0,0,.08.35L56-.1l-.05.12a.5.5,0,0,1-.54.32,1,1,0,0,1-.32-.06.717.717,0,0,0-.25-.04.606.606,0,0,0-.6.62.658.658,0,0,0,.48.63A2.287,2.287,0,0,0,55.55,1.63ZM62.13.1c1.16,0,2.05-.54,2.05-1.73v-.02c0-.98-.87-1.34-1.62-1.59-.58-.2-1.09-.34-1.09-.64V-3.9c0-.21.19-.37.56-.37a2.858,2.858,0,0,1,1.16.34.555.555,0,0,0,.28.07.6.6,0,0,0,.61-.6.619.619,0,0,0-.36-.57,3.768,3.768,0,0,0-1.66-.41,1.752,1.752,0,0,0-1.96,1.7v.02c0,1.04.85,1.39,1.6,1.61.59.18,1.11.29,1.11.62v.02c0,.24-.2.4-.64.4a2.823,2.823,0,0,1-1.45-.48.583.583,0,0,0-.3-.08.589.589,0,0,0-.6.6.606.606,0,0,0,.29.52A3.735,3.735,0,0,0,62.13.1Z" transform="translate(272 424)" fill="#20232b"/>
    <path id="Path_4738" data-name="Path 4738" d="M11.252,98.725c-4.3,0-8.2,2.352-11.076,6.173a.891.891,0,0,0,0,1.063c2.877,3.825,6.776,6.178,11.076,6.178s8.2-2.352,11.076-6.173a.891.891,0,0,0,0-1.063C19.45,101.077,15.551,98.725,11.252,98.725Zm.308,11.43a4.733,4.733,0,1,1,4.415-4.415A4.736,4.736,0,0,1,11.56,110.155Zm-.143-2.182a2.549,2.549,0,1,1,2.38-2.38A2.544,2.544,0,0,1,11.417,107.973Z" transform="translate(316.173 271.861)" fill="#20232b"/>
    <path id="Path_4964" data-name="Path 4964" d="M6,0H145a6,6,0,0,1,6,6V64a6,6,0,0,1-6,6H6a6,6,0,0,1-6-6V6A6,6,0,0,1,6,0Z" transform="translate(31 450)" fill="#dce84d" opacity="0.8"/>
    <path id="Path_4965" data-name="Path 4965" d="M1.188-.42a.479.479,0,0,0,.468.48.481.481,0,0,0,.48-.48V-3.264H4.548L6.912-.192A.552.552,0,0,0,7.356.06a.5.5,0,0,0,.48-.468A.515.515,0,0,0,7.68-.756L5.592-3.444A2.442,2.442,0,0,0,7.836-5.88V-5.9A2.32,2.32,0,0,0,7.188-7.56,3.312,3.312,0,0,0,4.8-8.4H1.656a.479.479,0,0,0-.468.48Zm.948-3.7V-7.524H4.728c1.356,0,2.148.624,2.148,1.656v.024c0,1.08-.9,1.728-2.16,1.728ZM11.616.132A2.719,2.719,0,0,0,13.86-.936v.564A.426.426,0,0,0,14.3.06.439.439,0,0,0,14.748-.4v-3.4A2.449,2.449,0,0,0,14.112-5.6a2.722,2.722,0,0,0-2-.684,4.892,4.892,0,0,0-2.028.42.423.423,0,0,0-.252.384.41.41,0,0,0,.408.4.471.471,0,0,0,.168-.036,3.873,3.873,0,0,1,1.608-.348c1.164,0,1.848.576,1.848,1.692v.216a6.587,6.587,0,0,0-1.908-.264c-1.572,0-2.652.7-2.652,2V-1.8A2.089,2.089,0,0,0,11.616.132ZM11.8-.6c-.84,0-1.56-.456-1.56-1.236V-1.86c0-.78.648-1.284,1.812-1.284a6.471,6.471,0,0,1,1.824.264v.6A1.876,1.876,0,0,1,11.8-.6Zm7,.708A2.334,2.334,0,0,0,19.7-.06a.386.386,0,0,0,.264-.36.4.4,0,0,0-.4-.4,2.614,2.614,0,0,1-.564.084.918.918,0,0,1-1.044-1.032V-5.388h1.608a.415.415,0,0,0,.42-.408.423.423,0,0,0-.42-.408H17.964V-7.668a.477.477,0,0,0-.468-.468.458.458,0,0,0-.456.468V-6.2h-.5a.412.412,0,0,0-.408.408.421.421,0,0,0,.408.408h.5v3.744A1.579,1.579,0,0,0,18.792.108Zm2.832-8.1a.506.506,0,0,0,.54.492.51.51,0,0,0,.552-.492v-.156a.5.5,0,0,0-.552-.492.5.5,0,0,0-.54.492Zm.084,7.584a.461.461,0,0,0,.468.468.451.451,0,0,0,.456-.468V-5.8a.461.461,0,0,0-.468-.468.466.466,0,0,0-.456.468Zm3.132,0a.461.461,0,0,0,.468.468.451.451,0,0,0,.456-.468V-3.552A1.825,1.825,0,0,1,27.624-5.5,1.654,1.654,0,0,1,29.34-3.624V-.408a.461.461,0,0,0,.468.468.459.459,0,0,0,.456-.468V-3.852a2.266,2.266,0,0,0-2.376-2.484,2.349,2.349,0,0,0-2.124,1.212V-5.8a.461.461,0,0,0-.468-.468.466.466,0,0,0-.456.468Zm10.2,2.352A3.262,3.262,0,0,0,37.4,1.116a2.988,2.988,0,0,0,.792-2.2V-5.8a.469.469,0,0,0-.468-.468.458.458,0,0,0-.456.468v.708a2.909,2.909,0,0,0-2.424-1.248,2.881,2.881,0,0,0-2.916,2.928v.024a2.869,2.869,0,0,0,2.916,2.9,2.941,2.941,0,0,0,2.436-1.308v.732a2.039,2.039,0,0,1-2.256,2.208,3.918,3.918,0,0,1-2.2-.672.372.372,0,0,0-.2-.06.441.441,0,0,0-.42.408.428.428,0,0,0,.24.384A4.859,4.859,0,0,0,35.04,1.944ZM35.028-1.3A2.1,2.1,0,0,1,32.88-3.408v-.024A2.052,2.052,0,0,1,35.028-5.52a2.174,2.174,0,0,1,2.28,2.1V-3.4A2.189,2.189,0,0,1,35.028-1.3Z" transform="translate(40 468)" fill="#24282f"/>
    <path id="Path_4967" data-name="Path 4967" d="M4.976.192C7.312.192,8.9-1.3,8.9-3.36v-.032c0-2.064-1.6-2.928-3.3-3.136L8.24-9.264a1.432,1.432,0,0,0,.56-1.072.882.882,0,0,0-.976-.864H2.1a.86.86,0,0,0-.864.864.857.857,0,0,0,.864.848H6.16l-2.624,2.8a1.118,1.118,0,0,0-.416.8.854.854,0,0,0,.848.848h.4c1.568,0,2.576.624,2.576,1.728v.032a1.753,1.753,0,0,1-1.936,1.7A3.406,3.406,0,0,1,2.464-2.656a.944.944,0,0,0-.656-.256.956.956,0,0,0-.944.944.945.945,0,0,0,.32.7A5.249,5.249,0,0,0,4.976.192Zm6.016-1.376v.16A1.094,1.094,0,0,0,12.128.08a1.09,1.09,0,0,0,1.12-1.1v-.16a1.09,1.09,0,0,0-1.12-1.1A1.094,1.094,0,0,0,10.992-1.184ZM16.224-.8a.92.92,0,0,0,1.008.88,1.04,1.04,0,0,0,.944-.656l4.64-8.8a2.178,2.178,0,0,0,.272-.944.82.82,0,0,0-.9-.88H15.9a.86.86,0,0,0-.864.864.86.86,0,0,0,.864.864h4.848L16.4-1.408A1.534,1.534,0,0,0,16.224-.8Zm5.392,2.192a.762.762,0,0,0,.768.736.729.729,0,0,0,.688-.448l6.56-13.408a1.248,1.248,0,0,0,.08-.384.748.748,0,0,0-.752-.736.751.751,0,0,0-.7.448L21.712,1.008A.9.9,0,0,0,21.616,1.392ZM35.1-.848a.922.922,0,0,0,.944.928.922.922,0,0,0,.944-.928V-2.512h.864a.8.8,0,0,0,.816-.8.809.809,0,0,0-.816-.816h-.864v-6.288a.949.949,0,0,0-.96-.944,1.393,1.393,0,0,0-1.2.64L29.568-4.48a1.537,1.537,0,0,0-.432,1.04.926.926,0,0,0,.96.928H35.1Zm-3.68-3.28L35.1-8.56v4.432Z" transform="translate(42 510)" fill="#24282f"/>
    <path id="star" d="M16.293,6.408a.866.866,0,0,0-.747-.6L10.83,5.383,8.966,1.019a.868.868,0,0,0-1.6,0L5.5,5.383.789,5.811A.869.869,0,0,0,.3,7.33L3.86,10.455,2.81,15.085a.867.867,0,0,0,1.291.938l4.067-2.431,4.065,2.431a.868.868,0,0,0,1.292-.938l-1.051-4.629,3.564-3.125A.869.869,0,0,0,16.293,6.408Zm0,0" transform="translate(159.826 457.508)" fill="#20232b"/>
    <path id="Path_4959" data-name="Path 4959" d="M.84-.77A.764.764,0,0,0,1.61,0H5.23a.7.7,0,0,0,.7-.7.7.7,0,0,0-.7-.7H2.38V-6.29a.764.764,0,0,0-.77-.77.764.764,0,0,0-.77.77ZM8.44.1a2.061,2.061,0,0,0,1.62-.68v.01a.681.681,0,0,0,.73.63.73.73,0,0,0,.74-.73V-3.11a2.336,2.336,0,0,0-.58-1.71,2.475,2.475,0,0,0-1.81-.6,4.666,4.666,0,0,0-1.71.28.63.63,0,0,0-.41.59.619.619,0,0,0,.63.62.643.643,0,0,0,.22-.04,3.486,3.486,0,0,1,1.05-.15c.76,0,1.15.35,1.15.98v.09a3.809,3.809,0,0,0-1.31-.22c-1.27,0-2.16.54-2.16,1.71v.02A1.658,1.658,0,0,0,8.44.1ZM8.9-.95c-.49,0-.83-.24-.83-.65v-.02c0-.48.4-.74,1.05-.74a2.357,2.357,0,0,1,.97.2v.27C10.09-1.34,9.61-.95,8.9-.95ZM14.77.1c1.16,0,2.05-.54,2.05-1.73v-.02c0-.98-.87-1.34-1.62-1.59-.58-.2-1.09-.34-1.09-.64V-3.9c0-.21.19-.37.56-.37a2.858,2.858,0,0,1,1.16.34.555.555,0,0,0,.28.07.6.6,0,0,0,.61-.6.619.619,0,0,0-.36-.57,3.768,3.768,0,0,0-1.66-.41,1.752,1.752,0,0,0-1.96,1.7v.02c0,1.04.85,1.39,1.6,1.61.59.18,1.11.29,1.11.62v.02c0,.24-.2.4-.64.4a2.823,2.823,0,0,1-1.45-.48.583.583,0,0,0-.3-.08.589.589,0,0,0-.6.6.606.606,0,0,0,.29.52A3.735,3.735,0,0,0,14.77.1Zm4.9-.01a2.243,2.243,0,0,0,.87-.15.618.618,0,0,0,.39-.57.634.634,0,0,0-.63-.63c-.03,0-.13.01-.18.01-.34,0-.49-.17-.49-.52V-4.06h.67a.649.649,0,0,0,.65-.65.649.649,0,0,0-.65-.65h-.67v-.67a.76.76,0,0,0-.76-.76.76.76,0,0,0-.76.76v.67h-.05a.649.649,0,0,0-.65.65.649.649,0,0,0,.65.65h.05v2.54C18.11-.28,18.74.09,19.67.09Zm7.87.03a2.283,2.283,0,0,0,2.52-2.29v-.02a1.941,1.941,0,0,0-1.88-1.96l1.37-1.31a1.117,1.117,0,0,0,.46-.86A.7.7,0,0,0,29.23-7H25.82a.666.666,0,0,0-.66.66.666.666,0,0,0,.66.66h2.15L26.61-4.31a.869.869,0,0,0-.33.63.666.666,0,0,0,.66.66h.24c.86,0,1.37.32,1.37.89v.02a.878.878,0,0,1-.99.85,2,2,0,0,1-1.37-.52.731.731,0,0,0-.49-.19.751.751,0,0,0-.74.74.759.759,0,0,0,.26.55A3.422,3.422,0,0,0,27.54.12Zm6.79,0c1.87,0,3.12-1.59,3.12-3.62v-.02c0-2.03-1.25-3.6-3.1-3.6S31.23-5.53,31.23-3.5v.02C31.23-1.45,32.46.12,34.33.12Zm.02-1.39c-.93,0-1.54-.95-1.54-2.23v-.02c0-1.28.6-2.21,1.52-2.21s1.54.96,1.54,2.23v.02C35.87-2.21,35.28-1.27,34.35-1.27ZM47.16-6.6a.76.76,0,0,0-.76-.76.76.76,0,0,0-.76.76v1.94a2.058,2.058,0,0,0-1.67-.8,2.512,2.512,0,0,0-2.44,2.77v.02A2.523,2.523,0,0,0,43.97.1a1.968,1.968,0,0,0,1.67-.87V-.7a.76.76,0,0,0,.76.76.76.76,0,0,0,.76-.76Zm-2.8,2.43a1.36,1.36,0,0,1,1.3,1.48v.02a1.36,1.36,0,0,1-1.3,1.48,1.367,1.367,0,0,1-1.31-1.48v-.02A1.361,1.361,0,0,1,44.36-4.17ZM50.09.1a2.061,2.061,0,0,0,1.62-.68v.01a.681.681,0,0,0,.73.63.73.73,0,0,0,.74-.73V-3.11a2.336,2.336,0,0,0-.58-1.71,2.475,2.475,0,0,0-1.81-.6,4.666,4.666,0,0,0-1.71.28.63.63,0,0,0-.41.59.619.619,0,0,0,.63.62.643.643,0,0,0,.22-.04,3.486,3.486,0,0,1,1.05-.15c.76,0,1.15.35,1.15.98v.09a3.809,3.809,0,0,0-1.31-.22c-1.27,0-2.16.54-2.16,1.71v.02A1.658,1.658,0,0,0,50.09.1Zm.46-1.05c-.49,0-.83-.24-.83-.65v-.02c0-.48.4-.74,1.05-.74a2.357,2.357,0,0,1,.97.2v.27C51.74-1.34,51.26-.95,50.55-.95Zm5,2.58c.91,0,1.36-.41,1.81-1.5l1.87-4.49a1.148,1.148,0,0,0,.07-.36.706.706,0,0,0-.72-.7.771.771,0,0,0-.73.58L56.73-1.73,55.57-4.85a.735.735,0,0,0-.73-.57.72.72,0,0,0-.75.73,1.109,1.109,0,0,0,.08.35L56-.1l-.05.12a.5.5,0,0,1-.54.32,1,1,0,0,1-.32-.06.717.717,0,0,0-.25-.04.606.606,0,0,0-.6.62.658.658,0,0,0,.48.63A2.287,2.287,0,0,0,55.55,1.63ZM62.13.1c1.16,0,2.05-.54,2.05-1.73v-.02c0-.98-.87-1.34-1.62-1.59-.58-.2-1.09-.34-1.09-.64V-3.9c0-.21.19-.37.56-.37a2.858,2.858,0,0,1,1.16.34.555.555,0,0,0,.28.07.6.6,0,0,0,.61-.6.619.619,0,0,0-.36-.57,3.768,3.768,0,0,0-1.66-.41,1.752,1.752,0,0,0-1.96,1.7v.02c0,1.04.85,1.39,1.6,1.61.59.18,1.11.29,1.11.62v.02c0,.24-.2.4-.64.4a2.823,2.823,0,0,1-1.45-.48.583.583,0,0,0-.3-.08.589.589,0,0,0-.6.6.606.606,0,0,0,.29.52A3.735,3.735,0,0,0,62.13.1Z" transform="translate(272 424)" fill="#20232b"/>
    <path id="Path_4968" data-name="Path 4968" d="M.84-.77A.764.764,0,0,0,1.61,0H5.23a.7.7,0,0,0,.7-.7.7.7,0,0,0-.7-.7H2.38V-6.29a.764.764,0,0,0-.77-.77.764.764,0,0,0-.77.77ZM8.44.1a2.061,2.061,0,0,0,1.62-.68v.01a.681.681,0,0,0,.73.63.73.73,0,0,0,.74-.73V-3.11a2.336,2.336,0,0,0-.58-1.71,2.475,2.475,0,0,0-1.81-.6,4.666,4.666,0,0,0-1.71.28.63.63,0,0,0-.41.59.619.619,0,0,0,.63.62.643.643,0,0,0,.22-.04,3.486,3.486,0,0,1,1.05-.15c.76,0,1.15.35,1.15.98v.09a3.809,3.809,0,0,0-1.31-.22c-1.27,0-2.16.54-2.16,1.71v.02A1.658,1.658,0,0,0,8.44.1ZM8.9-.95c-.49,0-.83-.24-.83-.65v-.02c0-.48.4-.74,1.05-.74a2.357,2.357,0,0,1,.97.2v.27C10.09-1.34,9.61-.95,8.9-.95ZM14.77.1c1.16,0,2.05-.54,2.05-1.73v-.02c0-.98-.87-1.34-1.62-1.59-.58-.2-1.09-.34-1.09-.64V-3.9c0-.21.19-.37.56-.37a2.858,2.858,0,0,1,1.16.34.555.555,0,0,0,.28.07.6.6,0,0,0,.61-.6.619.619,0,0,0-.36-.57,3.768,3.768,0,0,0-1.66-.41,1.752,1.752,0,0,0-1.96,1.7v.02c0,1.04.85,1.39,1.6,1.61.59.18,1.11.29,1.11.62v.02c0,.24-.2.4-.64.4a2.823,2.823,0,0,1-1.45-.48.583.583,0,0,0-.3-.08.589.589,0,0,0-.6.6.606.606,0,0,0,.29.52A3.735,3.735,0,0,0,14.77.1Zm4.9-.01a2.243,2.243,0,0,0,.87-.15.618.618,0,0,0,.39-.57.634.634,0,0,0-.63-.63c-.03,0-.13.01-.18.01-.34,0-.49-.17-.49-.52V-4.06h.67a.649.649,0,0,0,.65-.65.649.649,0,0,0-.65-.65h-.67v-.67a.76.76,0,0,0-.76-.76.76.76,0,0,0-.76.76v.67h-.05a.649.649,0,0,0-.65.65.649.649,0,0,0,.65.65h.05v2.54C18.11-.28,18.74.09,19.67.09Zm7.87.03a2.283,2.283,0,0,0,2.52-2.29v-.02a1.941,1.941,0,0,0-1.88-1.96l1.37-1.31a1.117,1.117,0,0,0,.46-.86A.7.7,0,0,0,29.23-7H25.82a.666.666,0,0,0-.66.66.666.666,0,0,0,.66.66h2.15L26.61-4.31a.869.869,0,0,0-.33.63.666.666,0,0,0,.66.66h.24c.86,0,1.37.32,1.37.89v.02a.878.878,0,0,1-.99.85,2,2,0,0,1-1.37-.52.731.731,0,0,0-.49-.19.751.751,0,0,0-.74.74.759.759,0,0,0,.26.55A3.422,3.422,0,0,0,27.54.12Zm6.79,0c1.87,0,3.12-1.59,3.12-3.62v-.02c0-2.03-1.25-3.6-3.1-3.6S31.23-5.53,31.23-3.5v.02C31.23-1.45,32.46.12,34.33.12Zm.02-1.39c-.93,0-1.54-.95-1.54-2.23v-.02c0-1.28.6-2.21,1.52-2.21s1.54.96,1.54,2.23v.02C35.87-2.21,35.28-1.27,34.35-1.27ZM47.16-6.6a.76.76,0,0,0-.76-.76.76.76,0,0,0-.76.76v1.94a2.058,2.058,0,0,0-1.67-.8,2.512,2.512,0,0,0-2.44,2.77v.02A2.523,2.523,0,0,0,43.97.1a1.968,1.968,0,0,0,1.67-.87V-.7a.76.76,0,0,0,.76.76.76.76,0,0,0,.76-.76Zm-2.8,2.43a1.36,1.36,0,0,1,1.3,1.48v.02a1.36,1.36,0,0,1-1.3,1.48,1.367,1.367,0,0,1-1.31-1.48v-.02A1.361,1.361,0,0,1,44.36-4.17ZM50.09.1a2.061,2.061,0,0,0,1.62-.68v.01a.681.681,0,0,0,.73.63.73.73,0,0,0,.74-.73V-3.11a2.336,2.336,0,0,0-.58-1.71,2.475,2.475,0,0,0-1.81-.6,4.666,4.666,0,0,0-1.71.28.63.63,0,0,0-.41.59.619.619,0,0,0,.63.62.643.643,0,0,0,.22-.04,3.486,3.486,0,0,1,1.05-.15c.76,0,1.15.35,1.15.98v.09a3.809,3.809,0,0,0-1.31-.22c-1.27,0-2.16.54-2.16,1.71v.02A1.658,1.658,0,0,0,50.09.1Zm.46-1.05c-.49,0-.83-.24-.83-.65v-.02c0-.48.4-.74,1.05-.74a2.357,2.357,0,0,1,.97.2v.27C51.74-1.34,51.26-.95,50.55-.95Zm5,2.58c.91,0,1.36-.41,1.81-1.5l1.87-4.49a1.148,1.148,0,0,0,.07-.36.706.706,0,0,0-.72-.7.771.771,0,0,0-.73.58L56.73-1.73,55.57-4.85a.735.735,0,0,0-.73-.57.72.72,0,0,0-.75.73,1.109,1.109,0,0,0,.08.35L56-.1l-.05.12a.5.5,0,0,1-.54.32,1,1,0,0,1-.32-.06.717.717,0,0,0-.25-.04.606.606,0,0,0-.6.62.658.658,0,0,0,.48.63A2.287,2.287,0,0,0,55.55,1.63ZM62.13.1c1.16,0,2.05-.54,2.05-1.73v-.02c0-.98-.87-1.34-1.62-1.59-.58-.2-1.09-.34-1.09-.64V-3.9c0-.21.19-.37.56-.37a2.858,2.858,0,0,1,1.16.34.555.555,0,0,0,.28.07.6.6,0,0,0,.61-.6.619.619,0,0,0-.36-.57,3.768,3.768,0,0,0-1.66-.41,1.752,1.752,0,0,0-1.96,1.7v.02c0,1.04.85,1.39,1.6,1.61.59.18,1.11.29,1.11.62v.02c0,.24-.2.4-.64.4a2.823,2.823,0,0,1-1.45-.48.583.583,0,0,0-.3-.08.589.589,0,0,0-.6.6.606.606,0,0,0,.29.52A3.735,3.735,0,0,0,62.13.1Z" transform="translate(272 509)" fill="#20232b"/>
    <path id="Path_4742" data-name="Path 4742" d="M20.544,176.017H1.916A1.918,1.918,0,0,0,0,177.933v7.75A1.918,1.918,0,0,0,1.916,187.6H20.544a1.918,1.918,0,0,0,1.916-1.916v-7.75a1.918,1.918,0,0,0-1.916-1.916Zm-7.735,7.515a.658.658,0,0,1,0-1.316h5.045a.658.658,0,0,1,0,1.316Zm5.045-2.632H4.606a.658.658,0,0,1,0-1.316H17.854a.658.658,0,0,1,0,1.316Zm-7.545,1.974a.658.658,0,0,1-.658.658H4.606a.658.658,0,0,1,0-1.316H9.651A.658.658,0,0,1,10.309,182.874Z" transform="translate(315 272.697)"/>
    <path id="Profile" d="M7.632.216A6.456,6.456,0,0,0,14.238-6.3v-.036a6.4,6.4,0,0,0-6.57-6.48A6.456,6.456,0,0,0,1.062-6.3v.036A6.4,6.4,0,0,0,7.632.216Zm.036-2.052A4.3,4.3,0,0,1,3.384-6.3v-.036a4.257,4.257,0,0,1,4.248-4.446A4.317,4.317,0,0,1,11.916-6.3v.036A4.242,4.242,0,0,1,7.668-1.836ZM21.87-.774l3.168-7.272a1.306,1.306,0,0,0,.126-.522A1.038,1.038,0,0,0,24.1-9.612a1.084,1.084,0,0,0-1.026.756L20.592-2.52l-2.448-6.3a1.1,1.1,0,0,0-1.08-.792,1.089,1.089,0,0,0-1.08,1.044,1.7,1.7,0,0,0,.126.54L19.278-.774A1.352,1.352,0,0,0,20.52.18h.108A1.377,1.377,0,0,0,21.87-.774Zm6.624-4.644a2.572,2.572,0,0,1,2.466-2.5,2.467,2.467,0,0,1,2.412,2.5Zm6.138,4.374a.951.951,0,0,0,.288-.666.857.857,0,0,0-.864-.882.811.811,0,0,0-.558.2,3.416,3.416,0,0,1-2.25.828,2.653,2.653,0,0,1-2.736-2.412H34.47A1.018,1.018,0,0,0,35.5-5.022,4.5,4.5,0,0,0,30.978-9.7a4.717,4.717,0,0,0-4.644,4.95v.036A4.742,4.742,0,0,0,31.212.216,4.88,4.88,0,0,0,34.632-1.044Zm3.1.054A1.072,1.072,0,0,0,38.808.09a1.087,1.087,0,0,0,1.1-1.08V-3.8c0-2.25,1.062-3.438,2.61-3.708A1.022,1.022,0,0,0,43.38-8.55,1.011,1.011,0,0,0,42.3-9.63a3.021,3.021,0,0,0-2.394,2.088v-.972a1.091,1.091,0,0,0-1.1-1.1,1.076,1.076,0,0,0-1.08,1.1Zm12.636.216,3.168-7.272a1.306,1.306,0,0,0,.126-.522A1.038,1.038,0,0,0,52.6-9.612a1.084,1.084,0,0,0-1.026.756L49.086-2.52l-2.448-6.3a1.1,1.1,0,0,0-1.08-.792,1.089,1.089,0,0,0-1.08,1.044,1.7,1.7,0,0,0,.126.54L47.772-.774A1.352,1.352,0,0,0,49.014.18h.108A1.377,1.377,0,0,0,50.364-.774Zm5.31-11.178a1.127,1.127,0,0,0,1.242,1.08,1.127,1.127,0,0,0,1.242-1.08v-.108a1.114,1.114,0,0,0-1.242-1.062,1.114,1.114,0,0,0-1.242,1.062ZM55.836-.99A1.072,1.072,0,0,0,56.916.09a1.076,1.076,0,0,0,1.1-1.08V-8.514a1.091,1.091,0,0,0-1.1-1.1,1.076,1.076,0,0,0-1.08,1.1ZM62.5-5.418a2.572,2.572,0,0,1,2.466-2.5,2.467,2.467,0,0,1,2.412,2.5Zm6.138,4.374a.951.951,0,0,0,.288-.666.857.857,0,0,0-.864-.882.811.811,0,0,0-.558.2,3.416,3.416,0,0,1-2.25.828,2.653,2.653,0,0,1-2.736-2.412h5.958A1.018,1.018,0,0,0,69.5-5.022,4.5,4.5,0,0,0,64.98-9.7a4.717,4.717,0,0,0-4.644,4.95v.036A4.742,4.742,0,0,0,65.214.216,4.88,4.88,0,0,0,68.634-1.044ZM74.646.162h.072a1.2,1.2,0,0,0,1.17-.936L77.76-6.426,79.614-.774A1.209,1.209,0,0,0,80.8.162h.072A1.267,1.267,0,0,0,82.08-.81l2.592-7.308a1.8,1.8,0,0,0,.09-.486,1.01,1.01,0,0,0-1.026-1.008,1.086,1.086,0,0,0-1.062.846L80.82-2.988l-1.872-5.76a1.156,1.156,0,0,0-1.116-.864h-.126a1.156,1.156,0,0,0-1.116.864l-1.854,5.76L72.9-8.748a1.11,1.11,0,0,0-1.062-.864A1.019,1.019,0,0,0,70.776-8.6a1.808,1.808,0,0,0,.108.558L73.44-.81A1.238,1.238,0,0,0,74.646.162Z" transform="translate(31 254)" fill="#1e2022"/>
    <path id="Path_4974" data-name="Path 4974" d="M3.976-.49a.562.562,0,0,0,.56.56A.562.562,0,0,0,5.1-.49V-8.778H7.938a.514.514,0,0,0,.518-.5A.526.526,0,0,0,7.938-9.8h-6.8a.526.526,0,0,0-.518.518.514.514,0,0,0,.518.5H3.976ZM9.828-9.324a.591.591,0,0,0,.63.574.6.6,0,0,0,.644-.574v-.182a.587.587,0,0,0-.644-.574.582.582,0,0,0-.63.574Zm.1,8.848a.538.538,0,0,0,.546.546A.526.526,0,0,0,11-.476V-6.762a.538.538,0,0,0-.546-.546.544.544,0,0,0-.532.546Zm6.846.644A3.643,3.643,0,0,0,19.5-.994a.489.489,0,0,0,.14-.336.506.506,0,0,0-.49-.49.427.427,0,0,0-.308.14A2.892,2.892,0,0,1,16.828-.8a2.7,2.7,0,0,1-2.66-2.814V-3.64a2.671,2.671,0,0,1,2.59-2.8,2.791,2.791,0,0,1,1.974.868.558.558,0,0,0,.35.126.517.517,0,0,0,.518-.518.507.507,0,0,0-.168-.378,3.742,3.742,0,0,0-2.66-1.05,3.731,3.731,0,0,0-3.71,3.78v.028A3.716,3.716,0,0,0,16.772.168ZM21.5-.476A.538.538,0,0,0,22.05.07a.526.526,0,0,0,.532-.546V-1.862l1.5-1.484L26.586-.182a.528.528,0,0,0,.462.252.5.5,0,0,0,.518-.5.543.543,0,0,0-.14-.364L24.836-4.06,27.2-6.384a.558.558,0,0,0,.21-.42.49.49,0,0,0-.49-.5.537.537,0,0,0-.42.21l-3.92,3.99V-9.744a.547.547,0,0,0-.546-.546.544.544,0,0,0-.532.546Zm8.3-3.542a2.5,2.5,0,0,1,2.352-2.464,2.384,2.384,0,0,1,2.31,2.464Zm5.25,3.094a.465.465,0,0,0,.168-.35.469.469,0,0,0-.476-.462.472.472,0,0,0-.308.126,2.958,2.958,0,0,1-2.086.84,2.528,2.528,0,0,1-2.548-2.45h5.236a.5.5,0,0,0,.5-.5,3.408,3.408,0,0,0-3.36-3.668,3.57,3.57,0,0,0-3.472,3.766V-3.6A3.6,3.6,0,0,0,32.326.168,3.68,3.68,0,0,0,35.056-.924ZM39.872.126a2.723,2.723,0,0,0,1.064-.2.45.45,0,0,0,.308-.42.466.466,0,0,0-.462-.462,3.05,3.05,0,0,1-.658.1,1.071,1.071,0,0,1-1.218-1.2V-6.286h1.876a.484.484,0,0,0,.49-.476.493.493,0,0,0-.49-.476H38.906V-8.946a.556.556,0,0,0-.546-.546.535.535,0,0,0-.532.546v1.708H37.24a.481.481,0,0,0-.476.476.491.491,0,0,0,.476.476h.588v4.368A1.843,1.843,0,0,0,39.872.126ZM45.5.14c1.442,0,2.576-.8,2.576-2.17v-.028c0-1.3-1.2-1.736-2.324-2.072-.966-.294-1.862-.56-1.862-1.246V-5.4c0-.6.546-1.05,1.4-1.05a3.917,3.917,0,0,1,1.89.56.541.541,0,0,0,.238.056.469.469,0,0,0,.476-.462.523.523,0,0,0-.266-.448,5.042,5.042,0,0,0-2.31-.616,2.19,2.19,0,0,0-2.464,2.072v.028c0,1.33,1.26,1.722,2.394,2.044.952.266,1.806.546,1.806,1.274v.028c0,.7-.63,1.148-1.5,1.148a4.067,4.067,0,0,1-2.3-.77.431.431,0,0,0-.266-.084.469.469,0,0,0-.476.462.487.487,0,0,0,.2.392A5.008,5.008,0,0,0,45.5.14Zm11.172,0c1.442,0,2.576-.8,2.576-2.17v-.028c0-1.3-1.2-1.736-2.324-2.072-.966-.294-1.862-.56-1.862-1.246V-5.4c0-.6.546-1.05,1.4-1.05a3.917,3.917,0,0,1,1.89.56.541.541,0,0,0,.238.056.469.469,0,0,0,.476-.462.523.523,0,0,0-.266-.448,5.042,5.042,0,0,0-2.31-.616,2.19,2.19,0,0,0-2.464,2.072v.028c0,1.33,1.26,1.722,2.394,2.044.952.266,1.806.546,1.806,1.274v.028c0,.7-.63,1.148-1.5,1.148a4.067,4.067,0,0,1-2.3-.77.431.431,0,0,0-.266-.084.469.469,0,0,0-.476.462.487.487,0,0,0,.2.392A5.008,5.008,0,0,0,56.672.14Zm7.882.028a3.758,3.758,0,0,0,3.794-3.78V-3.64a3.72,3.72,0,0,0-3.766-3.752,3.746,3.746,0,0,0-3.78,3.78v.028A3.708,3.708,0,0,0,64.554.168ZM64.582-.8a2.715,2.715,0,0,1-2.674-2.814V-3.64a2.671,2.671,0,0,1,2.646-2.8,2.739,2.739,0,0,1,2.688,2.828v.028A2.671,2.671,0,0,1,64.582-.8Zm5.81.322a.538.538,0,0,0,.546.546.526.526,0,0,0,.532-.546V-9.744a.547.547,0,0,0-.546-.546.544.544,0,0,0-.532.546ZM80.864-9.744a.538.538,0,0,0-.546-.546.526.526,0,0,0-.532.546v3.892a3.265,3.265,0,0,0-2.772-1.54,3.552,3.552,0,0,0-3.458,3.766V-3.6A3.53,3.53,0,0,0,77.014.154a3.254,3.254,0,0,0,2.772-1.61v.98a.538.538,0,0,0,.546.546.535.535,0,0,0,.532-.546ZM77.21-6.426A2.69,2.69,0,0,1,79.828-3.64v.028a2.7,2.7,0,0,1-2.618,2.8,2.615,2.615,0,0,1-2.548-2.8V-3.64A2.554,2.554,0,0,1,77.21-6.426Z" transform="matrix(1, 0, 0, 1, 31, 744.5)" fill="#5e6167"/>
    <path id="Railway" d="M4.746.168A3.457,3.457,0,0,0,8.484-3.22v-.028c0-2.044-1.5-3.122-3.444-3.122a3.39,3.39,0,0,0-2.03.63c.14-1.288.756-2.268,1.974-2.268a2.709,2.709,0,0,1,1.442.392,1.172,1.172,0,0,0,.532.154A1,1,0,0,0,7.98-8.456a1.024,1.024,0,0,0-.56-.924,4.608,4.608,0,0,0-2.366-.588c-2.926,0-4.3,2.324-4.3,5.348v.028c0,1.946.448,3,1.162,3.71A3.717,3.717,0,0,0,4.746.168ZM4.662-1.68A1.513,1.513,0,0,1,2.954-3.136v-.028c0-.826.616-1.414,1.68-1.414s1.708.6,1.708,1.428v.028C6.342-2.282,5.726-1.68,4.662-1.68Zm6.188.8a1.012,1.012,0,0,0,1.106.966,1.144,1.144,0,0,0,1.036-.728l3.934-7.14a2.366,2.366,0,0,0,.308-1.05.894.894,0,0,0-.98-.966h-5.32A.938.938,0,0,0,10-8.862a.926.926,0,0,0,.938.924h3.752l-3.64,6.384A1.592,1.592,0,0,0,10.85-.882Z" transform="translate(319.82 744.5)" fill="#3c69b0"/>
    <path id="Path_4975" data-name="Path 4975" d="M1.386-.49a.559.559,0,0,0,.546.56.562.562,0,0,0,.56-.56V-3.458h2.38c2.086,0,3.85-1.092,3.85-3.206v-.028C8.722-8.624,7.266-9.8,5.054-9.8H1.932a.559.559,0,0,0-.546.56ZM2.492-4.466V-8.778H4.97C6.552-8.778,7.6-8.05,7.6-6.65v.028c0,1.288-1.064,2.156-2.688,2.156Zm8.638.448a2.5,2.5,0,0,1,2.352-2.464,2.384,2.384,0,0,1,2.31,2.464ZM16.38-.924a.465.465,0,0,0,.168-.35.469.469,0,0,0-.476-.462.472.472,0,0,0-.308.126,2.958,2.958,0,0,1-2.086.84A2.528,2.528,0,0,1,11.13-3.22h5.236a.5.5,0,0,0,.5-.5,3.408,3.408,0,0,0-3.36-3.668,3.57,3.57,0,0,0-3.472,3.766V-3.6A3.6,3.6,0,0,0,13.65.168,3.68,3.68,0,0,0,16.38-.924Zm5.7,1.092a3.758,3.758,0,0,0,3.794-3.78V-3.64a3.72,3.72,0,0,0-3.766-3.752,3.746,3.746,0,0,0-3.78,3.78v.028A3.708,3.708,0,0,0,22.078.168ZM22.106-.8a2.715,2.715,0,0,1-2.674-2.814V-3.64a2.671,2.671,0,0,1,2.646-2.8,2.739,2.739,0,0,1,2.688,2.828v.028A2.671,2.671,0,0,1,22.106-.8Zm5.712,2.562a.538.538,0,0,0,.546.546.526.526,0,0,0,.532-.546v-3.15A3.265,3.265,0,0,0,31.668.154a3.543,3.543,0,0,0,3.458-3.766V-3.64a3.53,3.53,0,0,0-3.458-3.752A3.254,3.254,0,0,0,28.9-5.782v-.98a.538.538,0,0,0-.546-.546.535.535,0,0,0-.532.546ZM31.472-.812a2.694,2.694,0,0,1-2.618-2.8V-3.64a2.7,2.7,0,0,1,2.618-2.786,2.606,2.606,0,0,1,2.548,2.8V-3.6A2.554,2.554,0,0,1,31.472-.812Zm5.74.336a.538.538,0,0,0,.546.546.526.526,0,0,0,.532-.546V-9.744a.547.547,0,0,0-.546-.546.544.544,0,0,0-.532.546ZM41.44-4.018a2.5,2.5,0,0,1,2.352-2.464A2.384,2.384,0,0,1,46.1-4.018ZM46.69-.924a.465.465,0,0,0,.168-.35.469.469,0,0,0-.476-.462.472.472,0,0,0-.308.126,2.958,2.958,0,0,1-2.086.84A2.528,2.528,0,0,1,41.44-3.22h5.236a.5.5,0,0,0,.5-.5,3.408,3.408,0,0,0-3.36-3.668,3.57,3.57,0,0,0-3.472,3.766V-3.6A3.6,3.6,0,0,0,43.96.168,3.68,3.68,0,0,0,46.69-.924ZM55.44.154a3.172,3.172,0,0,0,2.618-1.246v.658a.5.5,0,0,0,.518.5.512.512,0,0,0,.518-.532V-4.424a2.857,2.857,0,0,0-.742-2.114,3.176,3.176,0,0,0-2.338-.8,5.708,5.708,0,0,0-2.366.49.494.494,0,0,0-.294.448.478.478,0,0,0,.476.462.55.55,0,0,0,.2-.042A4.519,4.519,0,0,1,55.9-6.384c1.358,0,2.156.672,2.156,1.974v.252a7.685,7.685,0,0,0-2.226-.308c-1.834,0-3.094.812-3.094,2.338V-2.1A2.438,2.438,0,0,0,55.44.154ZM55.65-.7c-.98,0-1.82-.532-1.82-1.442V-2.17c0-.91.756-1.5,2.114-1.5a7.55,7.55,0,0,1,2.128.308v.7A2.188,2.188,0,0,1,55.65-.7Zm8.092.826a2.723,2.723,0,0,0,1.064-.2.45.45,0,0,0,.308-.42.466.466,0,0,0-.462-.462,3.05,3.05,0,0,1-.658.1,1.071,1.071,0,0,1-1.218-1.2V-6.286h1.876a.484.484,0,0,0,.49-.476.493.493,0,0,0-.49-.476H62.776V-8.946a.556.556,0,0,0-.546-.546.535.535,0,0,0-.532.546v1.708H61.11a.481.481,0,0,0-.476.476.491.491,0,0,0,.476.476H61.7v4.368A1.843,1.843,0,0,0,63.742.126Zm5.656,0a2.723,2.723,0,0,0,1.064-.2.45.45,0,0,0,.308-.42.466.466,0,0,0-.462-.462,3.05,3.05,0,0,1-.658.1,1.071,1.071,0,0,1-1.218-1.2V-6.286h1.876a.484.484,0,0,0,.49-.476.493.493,0,0,0-.49-.476H68.432V-8.946a.556.556,0,0,0-.546-.546.535.535,0,0,0-.532.546v1.708h-.588a.481.481,0,0,0-.476.476.491.491,0,0,0,.476.476h.588v4.368A1.843,1.843,0,0,0,69.4.126Zm3.668-4.144a2.5,2.5,0,0,1,2.352-2.464,2.384,2.384,0,0,1,2.31,2.464Zm5.25,3.094a.465.465,0,0,0,.168-.35.469.469,0,0,0-.476-.462.472.472,0,0,0-.308.126,2.958,2.958,0,0,1-2.086.84,2.528,2.528,0,0,1-2.548-2.45H78.3a.5.5,0,0,0,.5-.5,3.408,3.408,0,0,0-3.36-3.668,3.57,3.57,0,0,0-3.472,3.766V-3.6A3.6,3.6,0,0,0,75.586.168,3.68,3.68,0,0,0,78.316-.924Zm2.394.448a.538.538,0,0,0,.546.546.526.526,0,0,0,.532-.546V-4.144a2.13,2.13,0,0,1,2.17-2.268,1.929,1.929,0,0,1,2,2.184V-.476a.538.538,0,0,0,.546.546.535.535,0,0,0,.532-.546V-4.494a2.644,2.644,0,0,0-2.772-2.9,2.741,2.741,0,0,0-2.478,1.414v-.784a.538.538,0,0,0-.546-.546.544.544,0,0,0-.532.546ZM96.222-9.744a.538.538,0,0,0-.546-.546.526.526,0,0,0-.532.546v3.892a3.265,3.265,0,0,0-2.772-1.54,3.552,3.552,0,0,0-3.458,3.766V-3.6A3.53,3.53,0,0,0,92.372.154a3.254,3.254,0,0,0,2.772-1.61v.98A.538.538,0,0,0,95.69.07a.535.535,0,0,0,.532-.546ZM92.568-6.426A2.69,2.69,0,0,1,95.186-3.64v.028a2.7,2.7,0,0,1-2.618,2.8,2.615,2.615,0,0,1-2.548-2.8V-3.64A2.554,2.554,0,0,1,92.568-6.426Zm6.706,2.408a2.5,2.5,0,0,1,2.352-2.464,2.384,2.384,0,0,1,2.31,2.464Zm5.25,3.094a.465.465,0,0,0,.168-.35.469.469,0,0,0-.476-.462.472.472,0,0,0-.308.126,2.958,2.958,0,0,1-2.086.84,2.528,2.528,0,0,1-2.548-2.45h5.236a.5.5,0,0,0,.5-.5,3.408,3.408,0,0,0-3.36-3.668,3.57,3.57,0,0,0-3.472,3.766V-3.6A3.6,3.6,0,0,0,101.794.168,3.68,3.68,0,0,0,104.524-.924Zm9.282-8.82a.538.538,0,0,0-.546-.546.526.526,0,0,0-.532.546v3.892a3.265,3.265,0,0,0-2.772-1.54A3.552,3.552,0,0,0,106.5-3.626V-3.6A3.53,3.53,0,0,0,109.956.154a3.254,3.254,0,0,0,2.772-1.61v.98a.538.538,0,0,0,.546.546.535.535,0,0,0,.532-.546Zm-3.654,3.318A2.69,2.69,0,0,1,112.77-3.64v.028a2.7,2.7,0,0,1-2.618,2.8,2.615,2.615,0,0,1-2.548-2.8V-3.64A2.554,2.554,0,0,1,110.152-6.426Z" transform="matrix(1, 0, 0, 1, 32, 781.5)" fill="#5e6167"/>
    <path id="Railway-2" data-name="Railway" d="M4.41.14C6.58.14,8.19-.924,8.19-2.744v-.028a2.429,2.429,0,0,0-1.582-2.31A2.332,2.332,0,0,0,7.854-7.224v-.028c0-1.512-1.372-2.688-3.444-2.688S.966-8.75.966-7.252v.028A2.332,2.332,0,0,0,2.212-5.082,2.382,2.382,0,0,0,.63-2.716v.028C.63-.98,2.24.14,4.41.14Zm0-5.936A1.253,1.253,0,0,1,3.01-7v-.028c0-.6.518-1.134,1.4-1.134a1.247,1.247,0,0,1,1.4,1.148v.028A1.243,1.243,0,0,1,4.41-5.8Zm0,4.158c-1.064,0-1.694-.546-1.694-1.218v-.028c0-.756.714-1.2,1.694-1.2S6.1-3.64,6.1-2.884v.028C6.1-2.17,5.474-1.638,4.41-1.638ZM13.23.168A3.331,3.331,0,0,0,16.884-3.22v-.028c0-2.212-1.5-3.136-3.43-3.136a4.794,4.794,0,0,0-1.288.168l.112-1.694h3.3a.95.95,0,0,0,.952-.938.962.962,0,0,0-.952-.952H11.326a.957.957,0,0,0-.952.924l-.2,3.318a.914.914,0,0,0,.392.868,1.659,1.659,0,0,0,.98.434,7.92,7.92,0,0,1,1.484-.252c1.022,0,1.736.49,1.736,1.33v.028c0,.868-.672,1.358-1.582,1.358a3.021,3.021,0,0,1-1.862-.63.9.9,0,0,0-.588-.2A1.04,1.04,0,0,0,9.716-1.582a1,1,0,0,0,.434.826A5.008,5.008,0,0,0,13.23.168Z" transform="translate(319.803 781.5)" fill="#3c69b0"/>
    <path id="Path_4976" data-name="Path 4976" d="M1.386-.49a.559.559,0,0,0,.546.56.562.562,0,0,0,.56-.56V-3.808H5.306L8.064-.224A.645.645,0,0,0,8.582.07a.578.578,0,0,0,.56-.546A.6.6,0,0,0,8.96-.882L6.524-4.018A2.849,2.849,0,0,0,9.142-6.86v-.028A2.707,2.707,0,0,0,8.386-8.82,3.864,3.864,0,0,0,5.6-9.8H1.932a.559.559,0,0,0-.546.56ZM2.492-4.8V-8.778H5.516c1.582,0,2.506.728,2.506,1.932v.028c0,1.26-1.05,2.016-2.52,2.016Zm9.338.784a2.5,2.5,0,0,1,2.352-2.464,2.384,2.384,0,0,1,2.31,2.464ZM17.08-.924a.465.465,0,0,0,.168-.35.469.469,0,0,0-.476-.462.472.472,0,0,0-.308.126,2.958,2.958,0,0,1-2.086.84A2.528,2.528,0,0,1,11.83-3.22h5.236a.5.5,0,0,0,.5-.5,3.408,3.408,0,0,0-3.36-3.668,3.57,3.57,0,0,0-3.472,3.766V-3.6A3.6,3.6,0,0,0,14.35.168,3.68,3.68,0,0,0,17.08-.924Zm5.6.574,2.73-6.16a.746.746,0,0,0,.056-.266.532.532,0,0,0-.532-.532.516.516,0,0,0-.5.392L22.05-1.232,19.712-6.888a.547.547,0,0,0-.546-.42.544.544,0,0,0-.546.532,1.123,1.123,0,0,0,.07.294L21.406-.35a.669.669,0,0,0,.616.462h.056A.652.652,0,0,0,22.68-.35Zm4.662-8.974a.591.591,0,0,0,.63.574.6.6,0,0,0,.644-.574v-.182a.587.587,0,0,0-.644-.574.582.582,0,0,0-.63.574Zm.1,8.848a.538.538,0,0,0,.546.546.526.526,0,0,0,.532-.546V-6.762a.538.538,0,0,0-.546-.546.544.544,0,0,0-.532.546Zm4.228-3.542A2.5,2.5,0,0,1,34.02-6.482a2.384,2.384,0,0,1,2.31,2.464Zm5.25,3.094a.465.465,0,0,0,.168-.35.469.469,0,0,0-.476-.462.472.472,0,0,0-.308.126,2.958,2.958,0,0,1-2.086.84,2.528,2.528,0,0,1-2.548-2.45H36.9a.5.5,0,0,0,.5-.5,3.408,3.408,0,0,0-3.36-3.668,3.57,3.57,0,0,0-3.472,3.766V-3.6A3.6,3.6,0,0,0,34.188.168,3.68,3.68,0,0,0,36.918-.924ZM41.328.112h.028a.6.6,0,0,0,.588-.49l1.82-5.278L45.57-.378a.6.6,0,0,0,.588.49H46.2a.638.638,0,0,0,.588-.49L49-6.51a1,1,0,0,0,.07-.294.517.517,0,0,0-.532-.5.529.529,0,0,0-.518.42l-1.848,5.46-1.82-5.446a.572.572,0,0,0-.56-.434h-.056a.552.552,0,0,0-.532.434L41.37-1.428,39.55-6.86A.566.566,0,0,0,39-7.308a.532.532,0,0,0-.546.518,1,1,0,0,0,.07.294l2.2,6.118A.641.641,0,0,0,41.328.112ZM53.2.14c1.442,0,2.576-.8,2.576-2.17v-.028c0-1.3-1.2-1.736-2.324-2.072-.966-.294-1.862-.56-1.862-1.246V-5.4c0-.6.546-1.05,1.4-1.05a3.917,3.917,0,0,1,1.89.56.541.541,0,0,0,.238.056.469.469,0,0,0,.476-.462.523.523,0,0,0-.266-.448,5.042,5.042,0,0,0-2.31-.616,2.19,2.19,0,0,0-2.464,2.072v.028c0,1.33,1.26,1.722,2.394,2.044.952.266,1.806.546,1.806,1.274v.028c0,.7-.63,1.148-1.5,1.148a4.067,4.067,0,0,1-2.3-.77.431.431,0,0,0-.266-.084.469.469,0,0,0-.476.462.487.487,0,0,0,.2.392A5.008,5.008,0,0,0,53.2.14Z" transform="matrix(1, 0, 0, 1, 32, 819.5)" fill="#5e6167"/>
    <path id="Railway-3" data-name="Railway" d="M4.41.14C6.58.14,8.19-.924,8.19-2.744v-.028a2.429,2.429,0,0,0-1.582-2.31A2.332,2.332,0,0,0,7.854-7.224v-.028c0-1.512-1.372-2.688-3.444-2.688S.966-8.75.966-7.252v.028A2.332,2.332,0,0,0,2.212-5.082,2.382,2.382,0,0,0,.63-2.716v.028C.63-.98,2.24.14,4.41.14Zm0-5.936A1.253,1.253,0,0,1,3.01-7v-.028c0-.6.518-1.134,1.4-1.134a1.247,1.247,0,0,1,1.4,1.148v.028A1.243,1.243,0,0,1,4.41-5.8Zm0,4.158c-1.064,0-1.694-.546-1.694-1.218v-.028c0-.756.714-1.2,1.694-1.2S6.1-3.64,6.1-2.884v.028C6.1-2.17,5.474-1.638,4.41-1.638ZM13.23.168A3.331,3.331,0,0,0,16.884-3.22v-.028c0-2.212-1.5-3.136-3.43-3.136a4.794,4.794,0,0,0-1.288.168l.112-1.694h3.3a.95.95,0,0,0,.952-.938.962.962,0,0,0-.952-.952H11.326a.957.957,0,0,0-.952.924l-.2,3.318a.914.914,0,0,0,.392.868,1.659,1.659,0,0,0,.98.434,7.92,7.92,0,0,1,1.484-.252c1.022,0,1.736.49,1.736,1.33v.028c0,.868-.672,1.358-1.582,1.358a3.021,3.021,0,0,1-1.862-.63.9.9,0,0,0-.588-.2A1.04,1.04,0,0,0,9.716-1.582a1,1,0,0,0,.434.826A5.008,5.008,0,0,0,13.23.168Z" transform="translate(319.803 819.5)" fill="#3c69b0"/>
    <path id="Path_4973" data-name="Path 4973" d="M1.386-.49a.559.559,0,0,0,.546.56.562.562,0,0,0,.56-.56V-3.808H5.306L8.064-.224A.645.645,0,0,0,8.582.07a.578.578,0,0,0,.56-.546A.6.6,0,0,0,8.96-.882L6.524-4.018A2.849,2.849,0,0,0,9.142-6.86v-.028A2.707,2.707,0,0,0,8.386-8.82,3.864,3.864,0,0,0,5.6-9.8H1.932a.559.559,0,0,0-.546.56ZM2.492-4.8V-8.778H5.516c1.582,0,2.506.728,2.506,1.932v.028c0,1.26-1.05,2.016-2.52,2.016ZM13.482.154A3.172,3.172,0,0,0,16.1-1.092v.658a.5.5,0,0,0,.518.5.512.512,0,0,0,.518-.532V-4.424a2.857,2.857,0,0,0-.742-2.114,3.176,3.176,0,0,0-2.338-.8,5.708,5.708,0,0,0-2.366.49A.494.494,0,0,0,11.4-6.4a.478.478,0,0,0,.476.462.55.55,0,0,0,.2-.042,4.519,4.519,0,0,1,1.876-.406c1.358,0,2.156.672,2.156,1.974v.252a7.685,7.685,0,0,0-2.226-.308c-1.834,0-3.094.812-3.094,2.338V-2.1A2.438,2.438,0,0,0,13.482.154Zm.21-.854c-.98,0-1.82-.532-1.82-1.442V-2.17c0-.91.756-1.5,2.114-1.5a7.55,7.55,0,0,1,2.128.308v.7A2.188,2.188,0,0,1,13.692-.7Zm8.092.826a2.723,2.723,0,0,0,1.064-.2.45.45,0,0,0,.308-.42.466.466,0,0,0-.462-.462,3.05,3.05,0,0,1-.658.1,1.071,1.071,0,0,1-1.218-1.2V-6.286h1.876a.484.484,0,0,0,.49-.476.493.493,0,0,0-.49-.476H20.818V-8.946a.556.556,0,0,0-.546-.546.535.535,0,0,0-.532.546v1.708h-.588a.481.481,0,0,0-.476.476.491.491,0,0,0,.476.476h.588v4.368A1.843,1.843,0,0,0,21.784.126Zm3.234-9.45a.591.591,0,0,0,.63.574.6.6,0,0,0,.644-.574v-.182a.587.587,0,0,0-.644-.574.582.582,0,0,0-.63.574Zm.1,8.848a.538.538,0,0,0,.546.546.526.526,0,0,0,.532-.546V-6.762a.538.538,0,0,0-.546-.546.544.544,0,0,0-.532.546Zm3.584,0a.538.538,0,0,0,.546.546.526.526,0,0,0,.532-.546V-4.144a2.13,2.13,0,0,1,2.17-2.268,1.929,1.929,0,0,1,2,2.184V-.476A.538.538,0,0,0,34.5.07a.535.535,0,0,0,.532-.546V-4.494a2.644,2.644,0,0,0-2.772-2.9,2.741,2.741,0,0,0-2.478,1.414v-.784a.538.538,0,0,0-.546-.546.544.544,0,0,0-.532.546ZM40.53,2.268A3.806,3.806,0,0,0,43.288,1.3a3.487,3.487,0,0,0,.924-2.562v-5.5a.547.547,0,0,0-.546-.546.535.535,0,0,0-.532.546v.826a3.393,3.393,0,0,0-2.828-1.456,3.362,3.362,0,0,0-3.4,3.416v.028a3.347,3.347,0,0,0,3.4,3.388,3.431,3.431,0,0,0,2.842-1.526v.854a2.379,2.379,0,0,1-2.632,2.576A4.571,4.571,0,0,1,37.954.56a.434.434,0,0,0-.238-.07.514.514,0,0,0-.49.476.5.5,0,0,0,.28.448A5.668,5.668,0,0,0,40.53,2.268Zm-.014-3.78A2.45,2.45,0,0,1,38.01-3.976V-4A2.394,2.394,0,0,1,40.516-6.44a2.536,2.536,0,0,1,2.66,2.45v.028A2.554,2.554,0,0,1,40.516-1.512Z" transform="matrix(1, 0, 0, 1, 31, 706.5)" fill="#5e6167"/>
    <path id="Railway-4" data-name="Railway" d="M5.572-.938A1.01,1.01,0,0,0,6.594.084,1.022,1.022,0,0,0,7.63-.938V-2.114h.518a.867.867,0,0,0,.882-.868.878.878,0,0,0-.882-.882H7.63V-8.932A1.022,1.022,0,0,0,6.594-9.954a1.581,1.581,0,0,0-1.344.728L.994-4.284a1.745,1.745,0,0,0-.5,1.176,1.011,1.011,0,0,0,1.05.994H5.572Zm-2.6-2.926,2.6-3.052v3.052Zm6.51,4.942a.832.832,0,0,0,.826.8.783.783,0,0,0,.742-.49L16.52-10.052a1.081,1.081,0,0,0,.1-.406.832.832,0,0,0-.826-.8.783.783,0,0,0-.742.49L9.576.672A1.081,1.081,0,0,0,9.478,1.078ZM20.986.168A3.331,3.331,0,0,0,24.64-3.22v-.028c0-2.212-1.5-3.136-3.43-3.136a4.794,4.794,0,0,0-1.288.168l.112-1.694h3.3a.95.95,0,0,0,.952-.938.962.962,0,0,0-.952-.952H19.082a.957.957,0,0,0-.952.924l-.2,3.318a.914.914,0,0,0,.392.868,1.659,1.659,0,0,0,.98.434,7.92,7.92,0,0,1,1.484-.252c1.022,0,1.736.49,1.736,1.33v.028c0,.868-.672,1.358-1.582,1.358a3.021,3.021,0,0,1-1.862-.63.9.9,0,0,0-.588-.2,1.04,1.04,0,0,0-1.022,1.036,1,1,0,0,0,.434.826A5.008,5.008,0,0,0,20.986.168Z" transform="translate(318.235 706.5)" fill="#3c69b0"/>
    <g transform="matrix(1, 0, 0, 1, 0, 0)" filter="url(#Path_4969)">
      <path id="Path_4969-2" data-name="Path 4969" d="M5,0H308a5,5,0,0,1,5,5V37a5,5,0,0,1-5,5H5a5,5,0,0,1-5-5V5A5,5,0,0,1,5,0Z" transform="translate(31 626)" fill="#fff"/>
    </g>
    <path id="Path_4971" data-name="Path 4971" d="M.612-.372A.43.43,0,0,0,1.044.06.475.475,0,0,0,1.5-.264L2.376-2.22H6.984L7.86-.288A.517.517,0,0,0,8.328.06.456.456,0,0,0,8.784-.4a.641.641,0,0,0-.06-.24L5.316-8.076a.6.6,0,0,0-.588-.42H4.68a.62.62,0,0,0-.6.42L.672-.624A.546.546,0,0,0,.612-.372ZM2.748-3.084,4.68-7.38l1.932,4.3ZM13.044.144a3.122,3.122,0,0,0,2.34-1,.419.419,0,0,0,.12-.288.433.433,0,0,0-.42-.42.366.366,0,0,0-.264.12,2.479,2.479,0,0,1-1.728.756A2.318,2.318,0,0,1,10.812-3.1V-3.12a2.289,2.289,0,0,1,2.22-2.4,2.393,2.393,0,0,1,1.692.744.478.478,0,0,0,.3.108.443.443,0,0,0,.444-.444.434.434,0,0,0-.144-.324,3.208,3.208,0,0,0-2.28-.9A3.2,3.2,0,0,0,9.864-3.1v.024A3.185,3.185,0,0,0,13.044.144ZM19.236.108a2.334,2.334,0,0,0,.912-.168.386.386,0,0,0,.264-.36.4.4,0,0,0-.4-.4,2.614,2.614,0,0,1-.564.084.918.918,0,0,1-1.044-1.032V-5.388h1.608a.415.415,0,0,0,.42-.408.423.423,0,0,0-.42-.408H18.408V-7.668a.477.477,0,0,0-.468-.468.458.458,0,0,0-.456.468V-6.2h-.5a.412.412,0,0,0-.408.408.421.421,0,0,0,.408.408h.5v3.744A1.579,1.579,0,0,0,19.236.108Zm2.832-8.1a.506.506,0,0,0,.54.492.51.51,0,0,0,.552-.492v-.156a.5.5,0,0,0-.552-.492.5.5,0,0,0-.54.492Zm.084,7.584A.461.461,0,0,0,22.62.06a.451.451,0,0,0,.456-.468V-5.8a.461.461,0,0,0-.468-.468.466.466,0,0,0-.456.468ZM28.3-.3l2.34-5.28a.64.64,0,0,0,.048-.228.456.456,0,0,0-.456-.456.442.442,0,0,0-.432.336l-2.04,4.872-2-4.848a.469.469,0,0,0-.468-.36.466.466,0,0,0-.468.456.962.962,0,0,0,.06.252L27.2-.3a.573.573,0,0,0,.528.4h.048A.559.559,0,0,0,28.3-.3Zm4.056-7.692a.506.506,0,0,0,.54.492.51.51,0,0,0,.552-.492v-.156a.5.5,0,0,0-.552-.492.5.5,0,0,0-.54.492Zm.084,7.584A.461.461,0,0,0,32.9.06a.451.451,0,0,0,.456-.468V-5.8a.461.461,0,0,0-.468-.468.466.466,0,0,0-.456.468Zm5.208.516a2.334,2.334,0,0,0,.912-.168.386.386,0,0,0,.264-.36.4.4,0,0,0-.4-.4,2.615,2.615,0,0,1-.564.084.918.918,0,0,1-1.044-1.032V-5.388h1.608a.415.415,0,0,0,.42-.408.423.423,0,0,0-.42-.408H36.816V-7.668a.477.477,0,0,0-.468-.468.458.458,0,0,0-.456.468V-6.2h-.5a.412.412,0,0,0-.408.408.421.421,0,0,0,.408.408h.5v3.744A1.579,1.579,0,0,0,37.644.108Zm3.732,1.848c.936,0,1.536-.468,2.076-1.752L45.876-5.58a.775.775,0,0,0,.048-.228.456.456,0,0,0-.456-.456.464.464,0,0,0-.444.348L43.1-1.032,40.944-5.9a.489.489,0,0,0-.468-.36.459.459,0,0,0-.468.456.645.645,0,0,0,.06.252L42.66-.06l-.048.1c-.336.756-.672,1.1-1.248,1.1a1.907,1.907,0,0,1-.672-.108.7.7,0,0,0-.228-.048.4.4,0,0,0-.4.4.422.422,0,0,0,.288.4A2.921,2.921,0,0,0,41.376,1.956ZM51.24-7.992a.506.506,0,0,0,.54.492.51.51,0,0,0,.552-.492v-.156a.5.5,0,0,0-.552-.492.5.5,0,0,0-.54.492Zm.084,7.584a.461.461,0,0,0,.468.468.451.451,0,0,0,.456-.468V-5.8a.461.461,0,0,0-.468-.468.466.466,0,0,0-.456.468Zm3.132,0a.461.461,0,0,0,.468.468.451.451,0,0,0,.456-.468V-3.552A1.825,1.825,0,0,1,57.24-5.5a1.654,1.654,0,0,1,1.716,1.872V-.408a.461.461,0,0,0,.468.468.459.459,0,0,0,.456-.468V-3.852A2.266,2.266,0,0,0,57.5-6.336,2.349,2.349,0,0,0,55.38-5.124V-5.8a.461.461,0,0,0-.468-.468.466.466,0,0,0-.456.468Zm9.528.516A2.334,2.334,0,0,0,64.9-.06a.386.386,0,0,0,.264-.36.4.4,0,0,0-.4-.4,2.614,2.614,0,0,1-.564.084.918.918,0,0,1-1.044-1.032V-5.388h1.608a.415.415,0,0,0,.42-.408.423.423,0,0,0-.42-.408H63.156V-7.668a.477.477,0,0,0-.468-.468.458.458,0,0,0-.456.468V-6.2h-.5a.412.412,0,0,0-.408.408.421.421,0,0,0,.408.408h.5v3.744A1.579,1.579,0,0,0,63.984.108Zm3.2-3.552A2.139,2.139,0,0,1,69.2-5.556a2.043,2.043,0,0,1,1.98,2.112Zm4.5,2.652a.4.4,0,0,0,.144-.3.4.4,0,0,0-.408-.4.4.4,0,0,0-.264.108,2.536,2.536,0,0,1-1.788.72,2.167,2.167,0,0,1-2.184-2.1h4.488a.43.43,0,0,0,.432-.432,2.921,2.921,0,0,0-2.88-3.144,3.06,3.06,0,0,0-2.976,3.228v.024a3.084,3.084,0,0,0,3.1,3.228A3.154,3.154,0,0,0,71.688-.792ZM73.8-.408a.461.461,0,0,0,.468.468.458.458,0,0,0,.456-.468V-2.52a2.526,2.526,0,0,1,2.184-2.832.459.459,0,0,0,.408-.468.444.444,0,0,0-.456-.468,2.569,2.569,0,0,0-2.136,1.656V-5.8a.461.461,0,0,0-.468-.468A.466.466,0,0,0,73.8-5.8Zm6.468.54A2.719,2.719,0,0,0,82.512-.936v.564a.426.426,0,0,0,.444.432A.439.439,0,0,0,83.4-.4v-3.4A2.449,2.449,0,0,0,82.764-5.6a2.722,2.722,0,0,0-2-.684,4.892,4.892,0,0,0-2.028.42.423.423,0,0,0-.252.384.41.41,0,0,0,.408.4.471.471,0,0,0,.168-.036,3.873,3.873,0,0,1,1.608-.348c1.164,0,1.848.576,1.848,1.692v.216A6.587,6.587,0,0,0,80.6-3.828c-1.572,0-2.652.7-2.652,2V-1.8A2.089,2.089,0,0,0,80.268.132Zm.18-.732c-.84,0-1.56-.456-1.56-1.236V-1.86c0-.78.648-1.284,1.812-1.284a6.472,6.472,0,0,1,1.824.264v.6A1.876,1.876,0,0,1,80.448-.6Zm7.776.744a3.122,3.122,0,0,0,2.34-1,.419.419,0,0,0,.12-.288.433.433,0,0,0-.42-.42A.366.366,0,0,0,90-1.44a2.479,2.479,0,0,1-1.728.756A2.318,2.318,0,0,1,85.992-3.1V-3.12a2.289,2.289,0,0,1,2.22-2.4,2.393,2.393,0,0,1,1.692.744.478.478,0,0,0,.3.108.443.443,0,0,0,.444-.444.434.434,0,0,0-.144-.324,3.208,3.208,0,0,0-2.28-.9,3.2,3.2,0,0,0-3.18,3.24v.024A3.185,3.185,0,0,0,88.224.144ZM94.416.108a2.334,2.334,0,0,0,.912-.168.386.386,0,0,0,.264-.36.4.4,0,0,0-.4-.4,2.614,2.614,0,0,1-.564.084.918.918,0,0,1-1.044-1.032V-5.388H95.2a.415.415,0,0,0,.42-.408A.423.423,0,0,0,95.2-6.2H93.588V-7.668a.477.477,0,0,0-.468-.468.458.458,0,0,0-.456.468V-6.2h-.5a.412.412,0,0,0-.408.408.421.421,0,0,0,.408.408h.5v3.744A1.579,1.579,0,0,0,94.416.108Zm2.832-8.1a.506.506,0,0,0,.54.492.51.51,0,0,0,.552-.492v-.156a.5.5,0,0,0-.552-.492.5.5,0,0,0-.54.492Zm.084,7.584A.461.461,0,0,0,97.8.06a.451.451,0,0,0,.456-.468V-5.8a.461.461,0,0,0-.468-.468.466.466,0,0,0-.456.468ZM103.3.144a3.221,3.221,0,0,0,3.252-3.24V-3.12a3.188,3.188,0,0,0-3.228-3.216,3.211,3.211,0,0,0-3.24,3.24v.024A3.178,3.178,0,0,0,103.3.144Zm.024-.828A2.327,2.327,0,0,1,101.028-3.1V-3.12a2.29,2.29,0,0,1,2.268-2.4A2.348,2.348,0,0,1,105.6-3.1v.024A2.289,2.289,0,0,1,103.32-.684Zm4.956.276a.461.461,0,0,0,.468.468.451.451,0,0,0,.456-.468V-3.552A1.825,1.825,0,0,1,111.06-5.5a1.654,1.654,0,0,1,1.716,1.872V-.408a.461.461,0,0,0,.468.468.459.459,0,0,0,.456-.468V-3.852a2.266,2.266,0,0,0-2.376-2.484A2.349,2.349,0,0,0,109.2-5.124V-5.8a.461.461,0,0,0-.468-.468.466.466,0,0,0-.456.468Zm9.5.528a1.954,1.954,0,0,0,2.208-1.86v-.024c0-1.116-1.032-1.488-1.992-1.776-.828-.252-1.6-.48-1.6-1.068v-.024c0-.516.468-.9,1.2-.9a3.358,3.358,0,0,1,1.62.48.464.464,0,0,0,.2.048.4.4,0,0,0,.408-.4.449.449,0,0,0-.228-.384,4.322,4.322,0,0,0-1.98-.528,1.877,1.877,0,0,0-2.112,1.776v.024c0,1.14,1.08,1.476,2.052,1.752.816.228,1.548.468,1.548,1.092v.024c0,.6-.54.984-1.284.984a3.486,3.486,0,0,1-1.968-.66.369.369,0,0,0-.228-.072.4.4,0,0,0-.408.4.417.417,0,0,0,.168.336A4.293,4.293,0,0,0,117.78.12Z" transform="translate(67 662)" fill="#77838f"/>
    <path id="Path_4970" data-name="Path 4970" d="M1.918-.7A.805.805,0,0,0,2.8.07.91.91,0,0,0,3.626-.5l4.06-7.7a1.906,1.906,0,0,0,.238-.826A.717.717,0,0,0,7.14-9.8h-5.5a.753.753,0,0,0-.756.756.753.753,0,0,0,.756.756H5.88L2.072-1.232A1.343,1.343,0,0,0,1.918-.7ZM13.37.168c2.576,0,4.284-2.268,4.284-5.068v-.028c0-2.8-1.694-5.04-4.256-5.04S9.114-7.7,9.114-4.9v.028C9.114-2.072,10.794.168,13.37.168ZM13.4-1.386c-1.526,0-2.506-1.582-2.506-3.514v-.028c0-1.946.966-3.486,2.478-3.486S15.876-6.832,15.876-4.9v.028C15.876-2.954,14.924-1.386,13.4-1.386ZM23.576.168C26.152.168,27.86-2.1,27.86-4.9v-.028c0-2.8-1.694-5.04-4.256-5.04S19.32-7.7,19.32-4.9v.028C19.32-2.072,21,.168,23.576.168ZM23.6-1.386C22.078-1.386,21.1-2.968,21.1-4.9v-.028c0-1.946.966-3.486,2.478-3.486S26.082-6.832,26.082-4.9v.028C26.082-2.954,25.13-1.386,23.6-1.386Z" transform="translate(67 645.493)" fill="rgba(0,0,0,0.85)"/>
    <path id="chart" d="M12.278,28.908H9.5V15.043h2.778Zm8.321,0H17.821V9.5H20.6s0,6.41,0,11.262Zm8.309,0H26.13V20.587h2.778Z" transform="translate(25.5 629.093)" fill="#3f62ac" fill-rule="evenodd"/>
    <path id="Russia-3" data-name="Russia" d="M1.746-1.008A1.1,1.1,0,0,0,2.862.09a1.091,1.091,0,0,0,1.1-1.1V-11.592a1.091,1.091,0,0,0-1.1-1.1,1.1,1.1,0,0,0-1.116,1.1ZM7.164-.99A1.072,1.072,0,0,0,8.244.09a1.076,1.076,0,0,0,1.1-1.08V-5.364a2.114,2.114,0,0,1,2.142-2.358c1.3,0,2.034.846,2.034,2.322V-.99a1.076,1.076,0,0,0,1.1,1.08A1.061,1.061,0,0,0,15.7-.99V-6.066c0-2.2-1.242-3.636-3.384-3.636a3.445,3.445,0,0,0-2.97,1.656v-.468a1.091,1.091,0,0,0-1.1-1.1,1.076,1.076,0,0,0-1.08,1.1ZM21.6.162A4.333,4.333,0,0,0,23.094-.09a.937.937,0,0,0,.576-.846.918.918,0,0,0-.918-.9,5.149,5.149,0,0,1-.54.054,1.037,1.037,0,0,1-1.17-1.188V-7.632h1.71a.945.945,0,0,0,.954-.936.945.945,0,0,0-.954-.936h-1.71v-1.62a1.083,1.083,0,0,0-1.08-1.08,1.087,1.087,0,0,0-1.1,1.08V-9.5H18.5a.93.93,0,0,0-.936.936.93.93,0,0,0,.936.936h.36v5C18.864-.54,20,.162,21.6.162Zm5.67-5.58a2.572,2.572,0,0,1,2.466-2.5,2.467,2.467,0,0,1,2.412,2.5Zm6.138,4.374A.951.951,0,0,0,33.7-1.71a.857.857,0,0,0-.864-.882.811.811,0,0,0-.558.2,3.416,3.416,0,0,1-2.25.828,2.653,2.653,0,0,1-2.736-2.412h5.958a1.018,1.018,0,0,0,1.026-1.044A4.5,4.5,0,0,0,29.754-9.7a4.717,4.717,0,0,0-4.644,4.95v.036A4.742,4.742,0,0,0,29.988.216,4.88,4.88,0,0,0,33.408-1.044Zm3.186.054A1.072,1.072,0,0,0,37.674.09a1.087,1.087,0,0,0,1.1-1.08V-3.8c0-2.25,1.062-3.438,2.61-3.708a1.022,1.022,0,0,0,.864-1.044,1.011,1.011,0,0,0-1.08-1.08,3.021,3.021,0,0,0-2.394,2.088v-.972a1.091,1.091,0,0,0-1.1-1.1,1.076,1.076,0,0,0-1.08,1.1ZM46.4.2a3.863,3.863,0,0,0,3.1-1.386v.36A.984.984,0,0,0,50.562.09,1.038,1.038,0,0,0,51.624-.954v-4.68A3.944,3.944,0,0,0,50.6-8.568a4.259,4.259,0,0,0-3.15-1.062,8.147,8.147,0,0,0-3.06.558.951.951,0,0,0-.594.864.907.907,0,0,0,.918.9,1.223,1.223,0,0,0,.342-.054A5.644,5.644,0,0,1,47.16-7.74c1.53,0,2.358.72,2.358,2.07v.234a7.94,7.94,0,0,0-2.556-.4c-2.322,0-3.924,1.008-3.924,3.06v.036C43.038-.828,44.622.2,46.4.2Zm.612-1.584c-1.044,0-1.854-.522-1.854-1.44v-.036c0-.99.828-1.584,2.232-1.584a6.038,6.038,0,0,1,2.16.378v.648C49.554-2.214,48.456-1.386,47.016-1.386Zm11.7,1.6a4.652,4.652,0,0,0,3.456-1.35.849.849,0,0,0,.306-.684.945.945,0,0,0-.936-.954.947.947,0,0,0-.594.234,3.172,3.172,0,0,1-2.124.846A2.876,2.876,0,0,1,55.98-4.734V-4.77a2.866,2.866,0,0,1,2.754-3.024,3.014,3.014,0,0,1,2.034.81,1.11,1.11,0,0,0,.648.216.991.991,0,0,0,1.008-.99,1.033,1.033,0,0,0-.342-.756A4.811,4.811,0,0,0,58.752-9.7,4.905,4.905,0,0,0,53.8-4.734V-4.7A4.852,4.852,0,0,0,58.716.216ZM67.878.162A4.333,4.333,0,0,0,69.372-.09a.937.937,0,0,0,.576-.846.918.918,0,0,0-.918-.9,5.149,5.149,0,0,1-.54.054A1.037,1.037,0,0,1,67.32-2.97V-7.632h1.71a.945.945,0,0,0,.954-.936A.945.945,0,0,0,69.03-9.5H67.32v-1.62a1.083,1.083,0,0,0-1.08-1.08,1.087,1.087,0,0,0-1.1,1.08V-9.5h-.36a.93.93,0,0,0-.936.936.93.93,0,0,0,.936.936h.36v5C65.142-.54,66.276.162,67.878.162Zm4.266-12.114a1.127,1.127,0,0,0,1.242,1.08,1.127,1.127,0,0,0,1.242-1.08v-.108a1.114,1.114,0,0,0-1.242-1.062,1.114,1.114,0,0,0-1.242,1.062ZM72.306-.99A1.072,1.072,0,0,0,73.386.09a1.076,1.076,0,0,0,1.1-1.08V-8.514a1.091,1.091,0,0,0-1.1-1.1,1.076,1.076,0,0,0-1.08,1.1ZM81.936.216a4.969,4.969,0,0,0,5.094-4.95V-4.77A4.923,4.923,0,0,0,81.972-9.7,4.968,4.968,0,0,0,76.9-4.734V-4.7A4.915,4.915,0,0,0,81.936.216Zm.036-1.908a2.929,2.929,0,0,1-2.9-3.042V-4.77a2.853,2.853,0,0,1,2.862-3.024,2.938,2.938,0,0,1,2.916,3.06V-4.7A2.851,2.851,0,0,1,81.972-1.692Zm7.362.7A1.072,1.072,0,0,0,90.414.09a1.076,1.076,0,0,0,1.1-1.08V-5.364a2.114,2.114,0,0,1,2.142-2.358c1.3,0,2.034.846,2.034,2.322V-.99a1.076,1.076,0,0,0,1.1,1.08,1.061,1.061,0,0,0,1.08-1.08V-6.066c0-2.2-1.242-3.636-3.384-3.636a3.445,3.445,0,0,0-2.97,1.656v-.468a1.091,1.091,0,0,0-1.1-1.1,1.076,1.076,0,0,0-1.08,1.1ZM103.842.18c1.98,0,3.528-.99,3.528-2.988v-.036c0-1.71-1.566-2.34-2.952-2.772-1.116-.36-2.142-.648-2.142-1.35V-7c0-.54.486-.936,1.332-.936a5.184,5.184,0,0,1,2.232.648.855.855,0,0,0,.432.108.876.876,0,0,0,.9-.882.924.924,0,0,0-.522-.828,6.533,6.533,0,0,0-2.988-.774c-1.89,0-3.384,1.1-3.384,2.9v.036c0,1.818,1.566,2.394,2.97,2.79,1.116.342,2.124.594,2.124,1.332v.036c0,.63-.54,1.026-1.476,1.026a5.017,5.017,0,0,1-2.736-.918.95.95,0,0,0-.468-.126.872.872,0,0,0-.882.882.835.835,0,0,0,.414.756A6.5,6.5,0,0,0,103.842.18Z" transform="translate(31 592.5)" fill="#1e2022"/>
    <path id="Path_4972" data-name="Path 4972" d="M.84-.77A.764.764,0,0,0,1.61,0H5.23a.7.7,0,0,0,.7-.7.7.7,0,0,0-.7-.7H2.38V-6.29a.764.764,0,0,0-.77-.77.764.764,0,0,0-.77.77ZM8.44.1a2.061,2.061,0,0,0,1.62-.68v.01a.681.681,0,0,0,.73.63.73.73,0,0,0,.74-.73V-3.11a2.336,2.336,0,0,0-.58-1.71,2.475,2.475,0,0,0-1.81-.6,4.666,4.666,0,0,0-1.71.28.63.63,0,0,0-.41.59.619.619,0,0,0,.63.62.643.643,0,0,0,.22-.04,3.486,3.486,0,0,1,1.05-.15c.76,0,1.15.35,1.15.98v.09a3.809,3.809,0,0,0-1.31-.22c-1.27,0-2.16.54-2.16,1.71v.02A1.658,1.658,0,0,0,8.44.1ZM8.9-.95c-.49,0-.83-.24-.83-.65v-.02c0-.48.4-.74,1.05-.74a2.357,2.357,0,0,1,.97.2v.27C10.09-1.34,9.61-.95,8.9-.95ZM14.77.1c1.16,0,2.05-.54,2.05-1.73v-.02c0-.98-.87-1.34-1.62-1.59-.58-.2-1.09-.34-1.09-.64V-3.9c0-.21.19-.37.56-.37a2.858,2.858,0,0,1,1.16.34.555.555,0,0,0,.28.07.6.6,0,0,0,.61-.6.619.619,0,0,0-.36-.57,3.768,3.768,0,0,0-1.66-.41,1.752,1.752,0,0,0-1.96,1.7v.02c0,1.04.85,1.39,1.6,1.61.59.18,1.11.29,1.11.62v.02c0,.24-.2.4-.64.4a2.823,2.823,0,0,1-1.45-.48.583.583,0,0,0-.3-.08.589.589,0,0,0-.6.6.606.606,0,0,0,.29.52A3.735,3.735,0,0,0,14.77.1Zm4.9-.01a2.243,2.243,0,0,0,.87-.15.618.618,0,0,0,.39-.57.634.634,0,0,0-.63-.63c-.03,0-.13.01-.18.01-.34,0-.49-.17-.49-.52V-4.06h.67a.649.649,0,0,0,.65-.65.649.649,0,0,0-.65-.65h-.67v-.67a.76.76,0,0,0-.76-.76.76.76,0,0,0-.76.76v.67h-.05a.649.649,0,0,0-.65.65.649.649,0,0,0,.65.65h.05v2.54C18.11-.28,18.74.09,19.67.09Zm7.87.03a2.283,2.283,0,0,0,2.52-2.29v-.02a1.941,1.941,0,0,0-1.88-1.96l1.37-1.31a1.117,1.117,0,0,0,.46-.86A.7.7,0,0,0,29.23-7H25.82a.666.666,0,0,0-.66.66.666.666,0,0,0,.66.66h2.15L26.61-4.31a.869.869,0,0,0-.33.63.666.666,0,0,0,.66.66h.24c.86,0,1.37.32,1.37.89v.02a.878.878,0,0,1-.99.85,2,2,0,0,1-1.37-.52.731.731,0,0,0-.49-.19.751.751,0,0,0-.74.74.759.759,0,0,0,.26.55A3.422,3.422,0,0,0,27.54.12Zm6.79,0c1.87,0,3.12-1.59,3.12-3.62v-.02c0-2.03-1.25-3.6-3.1-3.6S31.23-5.53,31.23-3.5v.02C31.23-1.45,32.46.12,34.33.12Zm.02-1.39c-.93,0-1.54-.95-1.54-2.23v-.02c0-1.28.6-2.21,1.52-2.21s1.54.96,1.54,2.23v.02C35.87-2.21,35.28-1.27,34.35-1.27ZM47.16-6.6a.76.76,0,0,0-.76-.76.76.76,0,0,0-.76.76v1.94a2.058,2.058,0,0,0-1.67-.8,2.512,2.512,0,0,0-2.44,2.77v.02A2.523,2.523,0,0,0,43.97.1a1.968,1.968,0,0,0,1.67-.87V-.7a.76.76,0,0,0,.76.76.76.76,0,0,0,.76-.76Zm-2.8,2.43a1.36,1.36,0,0,1,1.3,1.48v.02a1.36,1.36,0,0,1-1.3,1.48,1.367,1.367,0,0,1-1.31-1.48v-.02A1.361,1.361,0,0,1,44.36-4.17ZM50.09.1a2.061,2.061,0,0,0,1.62-.68v.01a.681.681,0,0,0,.73.63.73.73,0,0,0,.74-.73V-3.11a2.336,2.336,0,0,0-.58-1.71,2.475,2.475,0,0,0-1.81-.6,4.666,4.666,0,0,0-1.71.28.63.63,0,0,0-.41.59.619.619,0,0,0,.63.62.643.643,0,0,0,.22-.04,3.486,3.486,0,0,1,1.05-.15c.76,0,1.15.35,1.15.98v.09a3.809,3.809,0,0,0-1.31-.22c-1.27,0-2.16.54-2.16,1.71v.02A1.658,1.658,0,0,0,50.09.1Zm.46-1.05c-.49,0-.83-.24-.83-.65v-.02c0-.48.4-.74,1.05-.74a2.357,2.357,0,0,1,.97.2v.27C51.74-1.34,51.26-.95,50.55-.95Zm5,2.58c.91,0,1.36-.41,1.81-1.5l1.87-4.49a1.148,1.148,0,0,0,.07-.36.706.706,0,0,0-.72-.7.771.771,0,0,0-.73.58L56.73-1.73,55.57-4.85a.735.735,0,0,0-.73-.57.72.72,0,0,0-.75.73,1.109,1.109,0,0,0,.08.35L56-.1l-.05.12a.5.5,0,0,1-.54.32,1,1,0,0,1-.32-.06.717.717,0,0,0-.25-.04.606.606,0,0,0-.6.62.658.658,0,0,0,.48.63A2.287,2.287,0,0,0,55.55,1.63ZM62.13.1c1.16,0,2.05-.54,2.05-1.73v-.02c0-.98-.87-1.34-1.62-1.59-.58-.2-1.09-.34-1.09-.64V-3.9c0-.21.19-.37.56-.37a2.858,2.858,0,0,1,1.16.34.555.555,0,0,0,.28.07.6.6,0,0,0,.61-.6.619.619,0,0,0-.36-.57,3.768,3.768,0,0,0-1.66-.41,1.752,1.752,0,0,0-1.96,1.7v.02c0,1.04.85,1.39,1.6,1.61.59.18,1.11.29,1.11.62v.02c0,.24-.2.4-.64.4a2.823,2.823,0,0,1-1.45-.48.583.583,0,0,0-.3-.08.589.589,0,0,0-.6.6.606.606,0,0,0,.29.52A3.735,3.735,0,0,0,62.13.1Z" transform="translate(240 662)" fill="#20232b"/>
  </g>
</svg>
