<svg xmlns="http://www.w3.org/2000/svg" xmlns:xlink="http://www.w3.org/1999/xlink" width="375" height="838" viewBox="0 0 375 838">
  <defs>
    <filter id="Rectangle" x="-55" y="332" width="486" height="248" filterUnits="userSpaceOnUse">
      <feOffset dy="2" input="SourceAlpha"/>
      <feGaussianBlur stdDeviation="24" result="blur"/>
      <feFlood flood-opacity="0.039"/>
      <feComposite operator="in" in2="blur"/>
      <feComposite in="SourceGraphic"/>
    </filter>
    <filter id="Rectangle-2" x="-56" y="209" width="486" height="248" filterUnits="userSpaceOnUse">
      <feOffset dy="2" input="SourceAlpha"/>
      <feGaussianBlur stdDeviation="24" result="blur-2"/>
      <feFlood flood-opacity="0.039"/>
      <feComposite operator="in" in2="blur-2"/>
      <feComposite in="SourceGraphic"/>
    </filter>
    <filter id="Rectangle-3" x="-56" y="82" width="486" height="248" filterUnits="userSpaceOnUse">
      <feOffset dy="2" input="SourceAlpha"/>
      <feGaussianBlur stdDeviation="24" result="blur-3"/>
      <feFlood flood-opacity="0.039"/>
      <feComposite operator="in" in2="blur-3"/>
      <feComposite in="SourceGraphic"/>
    </filter>
    <filter id="Rectangle-4" x="-55" y="332" width="486" height="189" filterUnits="userSpaceOnUse">
      <feOffset dy="2" input="SourceAlpha"/>
      <feGaussianBlur stdDeviation="24" result="blur-4"/>
      <feFlood flood-opacity="0.039"/>
      <feComposite operator="in" in2="blur-4"/>
      <feComposite in="SourceGraphic"/>
    </filter>
    <filter id="Rectangle-5" x="-56" y="209" width="486" height="189" filterUnits="userSpaceOnUse">
      <feOffset dy="2" input="SourceAlpha"/>
      <feGaussianBlur stdDeviation="24" result="blur-5"/>
      <feFlood flood-opacity="0.039"/>
      <feComposite operator="in" in2="blur-5"/>
      <feComposite in="SourceGraphic"/>
    </filter>
    <filter id="Rectangle-6" x="-56" y="82" width="486" height="189" filterUnits="userSpaceOnUse">
      <feOffset dy="2" input="SourceAlpha"/>
      <feGaussianBlur stdDeviation="24" result="blur-6"/>
      <feFlood flood-opacity="0.039"/>
      <feComposite operator="in" in2="blur-6"/>
      <feComposite in="SourceGraphic"/>
    </filter>
    <filter id="Rectangle-7" x="-72" y="698" width="519" height="214" filterUnits="userSpaceOnUse">
      <feOffset dy="2" input="SourceAlpha"/>
      <feGaussianBlur stdDeviation="24" result="blur-7"/>
      <feFlood flood-opacity="0.039"/>
      <feComposite operator="in" in2="blur-7"/>
      <feComposite in="SourceGraphic"/>
    </filter>
    <clipPath id="clip-H-4.1_Latest_scans">
      <rect width="375" height="838"/>
    </clipPath>
  </defs>
  <g id="H-4.1_Latest_scans" data-name="H-4.1 Latest scans" clip-path="url(#clip-H-4.1_Latest_scans)">
    <rect width="375" height="838" fill="#fff"/>
    <g transform="matrix(1, 0, 0, 1, 0, 0)" filter="url(#Rectangle)">
      <path id="Rectangle-8" data-name="Rectangle" d="M12,0H330a12,12,0,0,1,12,12V92a12,12,0,0,1-12,12H12A12,12,0,0,1,0,92V12A12,12,0,0,1,12,0Z" transform="translate(17 402)" fill="#fff"/>
    </g>
    <g transform="matrix(1, 0, 0, 1, 0, 0)" filter="url(#Rectangle-2)">
      <path id="Rectangle-9" data-name="Rectangle" d="M12,0H330a12,12,0,0,1,12,12V92a12,12,0,0,1-12,12H12A12,12,0,0,1,0,92V12A12,12,0,0,1,12,0Z" transform="translate(16 279)" fill="#fff"/>
    </g>
    <g transform="matrix(1, 0, 0, 1, 0, 0)" filter="url(#Rectangle-3)">
      <path id="Rectangle-10" data-name="Rectangle" d="M12,0H330a12,12,0,0,1,12,12V92a12,12,0,0,1-12,12H12A12,12,0,0,1,0,92V12A12,12,0,0,1,12,0Z" transform="translate(16 152)" fill="#fff"/>
    </g>
    <g transform="matrix(1, 0, 0, 1, 0, 0)" filter="url(#Rectangle-4)">
      <path id="Rectangle-11" data-name="Rectangle" d="M12,0H330a12,12,0,0,1,12,12V45H0V12A12,12,0,0,1,12,0Z" transform="translate(17 402)" fill="#fff"/>
    </g>
    <g transform="matrix(1, 0, 0, 1, 0, 0)" filter="url(#Rectangle-5)">
      <path id="Rectangle-12" data-name="Rectangle" d="M12,0H330a12,12,0,0,1,12,12V45H0V12A12,12,0,0,1,12,0Z" transform="translate(16 279)" fill="#fff"/>
    </g>
    <g transform="matrix(1, 0, 0, 1, 0, 0)" filter="url(#Rectangle-6)">
      <path id="Rectangle-13" data-name="Rectangle" d="M12,0H330a12,12,0,0,1,12,12V45H0V12A12,12,0,0,1,12,0Z" transform="translate(16 152)" fill="#fff"/>
    </g>
    <path id="Russia" d="M4.69.14c2.058,0,3.5-1.092,3.5-2.926v-.028c0-1.624-1.064-2.366-3.136-2.87-1.89-.448-2.338-.784-2.338-1.54v-.028c0-.644.588-1.162,1.6-1.162a4.076,4.076,0,0,1,2.254.742.833.833,0,0,0,.448.126.8.8,0,0,0,.812-.8.777.777,0,0,0-.378-.686A5.392,5.392,0,0,0,4.34-9.94C2.394-9.94.994-8.778.994-7.1v.028c0,1.806,1.176,2.422,3.262,2.926,1.82.42,2.212.8,2.212,1.5v.028c0,.728-.672,1.232-1.736,1.232A4.25,4.25,0,0,1,1.988-2.394a.8.8,0,0,0-.5-.154.8.8,0,0,0-.812.8.808.808,0,0,0,.336.658A6.1,6.1,0,0,0,4.69.14Zm8.82.028A3.618,3.618,0,0,0,16.2-.882a.66.66,0,0,0,.238-.532.735.735,0,0,0-.728-.742.736.736,0,0,0-.462.182,2.467,2.467,0,0,1-1.652.658,2.237,2.237,0,0,1-2.212-2.366V-3.71a2.229,2.229,0,0,1,2.142-2.352,2.345,2.345,0,0,1,1.582.63.864.864,0,0,0,.5.168.771.771,0,0,0,.784-.77.8.8,0,0,0-.266-.588,3.742,3.742,0,0,0-2.59-.924,3.815,3.815,0,0,0-3.85,3.864v.028A3.774,3.774,0,0,0,13.51.168Zm11.214-6.79a.857.857,0,0,0-.854-.854.848.848,0,0,0-.854.854v3.4A1.633,1.633,0,0,1,21.35-1.4c-1.008,0-1.582-.644-1.582-1.792v-3.43a.848.848,0,0,0-.854-.854.846.846,0,0,0-.84.854v3.934A2.538,2.538,0,0,0,20.706.154a2.66,2.66,0,0,0,2.31-1.3V-.77a.845.845,0,0,0,.854.84.846.846,0,0,0,.854-.84ZM26.908-.77a.842.842,0,0,0,.84.84A.846.846,0,0,0,28.6-.77v-.378a3.019,3.019,0,0,0,2.52,1.3,3.536,3.536,0,0,0,3.43-3.836V-3.71a3.536,3.536,0,0,0-3.43-3.836A2.959,2.959,0,0,0,28.6-6.16V-9.45a.837.837,0,0,0-.854-.84.825.825,0,0,0-.84.84Zm3.808-.546A2.229,2.229,0,0,1,28.56-3.682V-3.71a2.229,2.229,0,0,1,2.156-2.366A2.189,2.189,0,0,1,32.83-3.71v.028A2.165,2.165,0,0,1,30.716-1.316ZM38.5.154A3,3,0,0,0,40.908-.924v.28a.766.766,0,0,0,.826.714.807.807,0,0,0,.826-.812v-3.64a3.067,3.067,0,0,0-.8-2.282,3.312,3.312,0,0,0-2.45-.826,6.336,6.336,0,0,0-2.38.434.739.739,0,0,0-.462.672.705.705,0,0,0,.714.7.951.951,0,0,0,.266-.042,4.39,4.39,0,0,1,1.638-.294c1.19,0,1.834.56,1.834,1.61v.182a6.175,6.175,0,0,0-1.988-.308c-1.806,0-3.052.784-3.052,2.38v.028A2.361,2.361,0,0,0,38.5.154Zm.476-1.232c-.812,0-1.442-.406-1.442-1.12v-.028c0-.77.644-1.232,1.736-1.232a4.7,4.7,0,0,1,1.68.294v.5C40.95-1.722,40.1-1.078,38.976-1.078ZM56.2-9.45a.837.837,0,0,0-.854-.84.834.834,0,0,0-.84.84v3.206a3.024,3.024,0,0,0-2.52-1.3,3.528,3.528,0,0,0-3.43,3.836v.028A3.544,3.544,0,0,0,51.982.154,2.959,2.959,0,0,0,54.5-1.232V-.77a.837.837,0,0,0,.854.84.834.834,0,0,0,.84-.84ZM52.388-6.076A2.218,2.218,0,0,1,54.53-3.71v.028a2.227,2.227,0,0,1-2.142,2.366A2.2,2.2,0,0,1,50.26-3.682V-3.71A2.167,2.167,0,0,1,52.388-6.076ZM58.366-9.3a.877.877,0,0,0,.966.84A.877.877,0,0,0,60.3-9.3V-9.38a.867.867,0,0,0-.966-.826.867.867,0,0,0-.966.826ZM58.492-.77a.834.834,0,0,0,.84.84.837.837,0,0,0,.854-.84V-6.622a.848.848,0,0,0-.854-.854.837.837,0,0,0-.84.854ZM66.514-.6l2.464-5.656a1.016,1.016,0,0,0,.1-.406.807.807,0,0,0-.826-.812.843.843,0,0,0-.8.588L65.52-1.96l-1.9-4.9a.853.853,0,0,0-.84-.616.847.847,0,0,0-.84.812,1.319,1.319,0,0,0,.1.42L64.5-.6a1.052,1.052,0,0,0,.966.742h.084A1.071,1.071,0,0,0,66.514-.6Zm4.2-8.694a.877.877,0,0,0,.966.84.877.877,0,0,0,.966-.84V-9.38a.867.867,0,0,0-.966-.826.867.867,0,0,0-.966.826ZM70.84-.77a.834.834,0,0,0,.84.84.837.837,0,0,0,.854-.84V-6.622a.848.848,0,0,0-.854-.854.837.837,0,0,0-.84.854Zm3.976,0a.834.834,0,0,0,.84.84.837.837,0,0,0,.854-.84v-3.4a1.644,1.644,0,0,1,1.666-1.834c1.008,0,1.582.658,1.582,1.806V-.77a.837.837,0,0,0,.854.84.825.825,0,0,0,.84-.84V-4.718A2.534,2.534,0,0,0,78.82-7.546a2.679,2.679,0,0,0-2.31,1.288v-.364a.848.848,0,0,0-.854-.854.837.837,0,0,0-.84.854Zm12.04,3.038a4.161,4.161,0,0,0,3.038-.994,3.782,3.782,0,0,0,.938-2.786v-5.11a.848.848,0,0,0-.854-.854.842.842,0,0,0-.84.84v.35a3.19,3.19,0,0,0-2.59-1.26,3.334,3.334,0,0,0-3.36,3.472v.028a3.322,3.322,0,0,0,3.36,3.458,3.1,3.1,0,0,0,2.6-1.358v.574A2.067,2.067,0,0,1,86.814.9,4.52,4.52,0,0,1,84.546.308a.667.667,0,0,0-.308-.07.714.714,0,0,0-.714.7A.693.693,0,0,0,84,1.61,6.386,6.386,0,0,0,86.856,2.268ZM87-2.03a2.013,2.013,0,0,1-2.1-2.03v-.028A2,2,0,0,1,87-6.118a2.065,2.065,0,0,1,2.17,2.03v.028A2.065,2.065,0,0,1,87-2.03Z" transform="translate(84 432)" fill="#1e2022"/>
    <path id="Russia-2" data-name="Russia" d="M4.69.14c2.058,0,3.5-1.092,3.5-2.926v-.028c0-1.624-1.064-2.366-3.136-2.87-1.89-.448-2.338-.784-2.338-1.54v-.028c0-.644.588-1.162,1.6-1.162a4.076,4.076,0,0,1,2.254.742.833.833,0,0,0,.448.126.8.8,0,0,0,.812-.8.777.777,0,0,0-.378-.686A5.392,5.392,0,0,0,4.34-9.94C2.394-9.94.994-8.778.994-7.1v.028c0,1.806,1.176,2.422,3.262,2.926,1.82.42,2.212.8,2.212,1.5v.028c0,.728-.672,1.232-1.736,1.232A4.25,4.25,0,0,1,1.988-2.394a.8.8,0,0,0-.5-.154.8.8,0,0,0-.812.8.808.808,0,0,0,.336.658A6.1,6.1,0,0,0,4.69.14Zm8.82.028A3.618,3.618,0,0,0,16.2-.882a.66.66,0,0,0,.238-.532.735.735,0,0,0-.728-.742.736.736,0,0,0-.462.182,2.467,2.467,0,0,1-1.652.658,2.237,2.237,0,0,1-2.212-2.366V-3.71a2.229,2.229,0,0,1,2.142-2.352,2.345,2.345,0,0,1,1.582.63.864.864,0,0,0,.5.168.771.771,0,0,0,.784-.77.8.8,0,0,0-.266-.588,3.742,3.742,0,0,0-2.59-.924,3.815,3.815,0,0,0-3.85,3.864v.028A3.774,3.774,0,0,0,13.51.168Zm11.214-6.79a.857.857,0,0,0-.854-.854.848.848,0,0,0-.854.854v3.4A1.633,1.633,0,0,1,21.35-1.4c-1.008,0-1.582-.644-1.582-1.792v-3.43a.848.848,0,0,0-.854-.854.846.846,0,0,0-.84.854v3.934A2.538,2.538,0,0,0,20.706.154a2.66,2.66,0,0,0,2.31-1.3V-.77a.845.845,0,0,0,.854.84.846.846,0,0,0,.854-.84ZM26.908-.77a.842.842,0,0,0,.84.84A.846.846,0,0,0,28.6-.77v-.378a3.019,3.019,0,0,0,2.52,1.3,3.536,3.536,0,0,0,3.43-3.836V-3.71a3.536,3.536,0,0,0-3.43-3.836A2.959,2.959,0,0,0,28.6-6.16V-9.45a.837.837,0,0,0-.854-.84.825.825,0,0,0-.84.84Zm3.808-.546A2.229,2.229,0,0,1,28.56-3.682V-3.71a2.229,2.229,0,0,1,2.156-2.366A2.189,2.189,0,0,1,32.83-3.71v.028A2.165,2.165,0,0,1,30.716-1.316ZM38.5.154A3,3,0,0,0,40.908-.924v.28a.766.766,0,0,0,.826.714.807.807,0,0,0,.826-.812v-3.64a3.067,3.067,0,0,0-.8-2.282,3.312,3.312,0,0,0-2.45-.826,6.336,6.336,0,0,0-2.38.434.739.739,0,0,0-.462.672.705.705,0,0,0,.714.7.951.951,0,0,0,.266-.042,4.39,4.39,0,0,1,1.638-.294c1.19,0,1.834.56,1.834,1.61v.182a6.175,6.175,0,0,0-1.988-.308c-1.806,0-3.052.784-3.052,2.38v.028A2.361,2.361,0,0,0,38.5.154Zm.476-1.232c-.812,0-1.442-.406-1.442-1.12v-.028c0-.77.644-1.232,1.736-1.232a4.7,4.7,0,0,1,1.68.294v.5C40.95-1.722,40.1-1.078,38.976-1.078ZM56.2-9.45a.837.837,0,0,0-.854-.84.834.834,0,0,0-.84.84v3.206a3.024,3.024,0,0,0-2.52-1.3,3.528,3.528,0,0,0-3.43,3.836v.028A3.544,3.544,0,0,0,51.982.154,2.959,2.959,0,0,0,54.5-1.232V-.77a.837.837,0,0,0,.854.84.834.834,0,0,0,.84-.84ZM52.388-6.076A2.218,2.218,0,0,1,54.53-3.71v.028a2.227,2.227,0,0,1-2.142,2.366A2.2,2.2,0,0,1,50.26-3.682V-3.71A2.167,2.167,0,0,1,52.388-6.076ZM58.366-9.3a.877.877,0,0,0,.966.84A.877.877,0,0,0,60.3-9.3V-9.38a.867.867,0,0,0-.966-.826.867.867,0,0,0-.966.826ZM58.492-.77a.834.834,0,0,0,.84.84.837.837,0,0,0,.854-.84V-6.622a.848.848,0,0,0-.854-.854.837.837,0,0,0-.84.854ZM66.514-.6l2.464-5.656a1.016,1.016,0,0,0,.1-.406.807.807,0,0,0-.826-.812.843.843,0,0,0-.8.588L65.52-1.96l-1.9-4.9a.853.853,0,0,0-.84-.616.847.847,0,0,0-.84.812,1.319,1.319,0,0,0,.1.42L64.5-.6a1.052,1.052,0,0,0,.966.742h.084A1.071,1.071,0,0,0,66.514-.6Zm4.2-8.694a.877.877,0,0,0,.966.84.877.877,0,0,0,.966-.84V-9.38a.867.867,0,0,0-.966-.826.867.867,0,0,0-.966.826ZM70.84-.77a.834.834,0,0,0,.84.84.837.837,0,0,0,.854-.84V-6.622a.848.848,0,0,0-.854-.854.837.837,0,0,0-.84.854Zm3.976,0a.834.834,0,0,0,.84.84.837.837,0,0,0,.854-.84v-3.4a1.644,1.644,0,0,1,1.666-1.834c1.008,0,1.582.658,1.582,1.806V-.77a.837.837,0,0,0,.854.84.825.825,0,0,0,.84-.84V-4.718A2.534,2.534,0,0,0,78.82-7.546a2.679,2.679,0,0,0-2.31,1.288v-.364a.848.848,0,0,0-.854-.854.837.837,0,0,0-.84.854Zm12.04,3.038a4.161,4.161,0,0,0,3.038-.994,3.782,3.782,0,0,0,.938-2.786v-5.11a.848.848,0,0,0-.854-.854.842.842,0,0,0-.84.84v.35a3.19,3.19,0,0,0-2.59-1.26,3.334,3.334,0,0,0-3.36,3.472v.028a3.322,3.322,0,0,0,3.36,3.458,3.1,3.1,0,0,0,2.6-1.358v.574A2.067,2.067,0,0,1,86.814.9,4.52,4.52,0,0,1,84.546.308a.667.667,0,0,0-.308-.07.714.714,0,0,0-.714.7A.693.693,0,0,0,84,1.61,6.386,6.386,0,0,0,86.856,2.268ZM87-2.03a2.013,2.013,0,0,1-2.1-2.03v-.028A2,2,0,0,1,87-6.118a2.065,2.065,0,0,1,2.17,2.03v.028A2.065,2.065,0,0,1,87-2.03Z" transform="translate(83 309)" fill="#1e2022"/>
    <path id="Russia-3" data-name="Russia" d="M4.69.14c2.058,0,3.5-1.092,3.5-2.926v-.028c0-1.624-1.064-2.366-3.136-2.87-1.89-.448-2.338-.784-2.338-1.54v-.028c0-.644.588-1.162,1.6-1.162a4.076,4.076,0,0,1,2.254.742.833.833,0,0,0,.448.126.8.8,0,0,0,.812-.8.777.777,0,0,0-.378-.686A5.392,5.392,0,0,0,4.34-9.94C2.394-9.94.994-8.778.994-7.1v.028c0,1.806,1.176,2.422,3.262,2.926,1.82.42,2.212.8,2.212,1.5v.028c0,.728-.672,1.232-1.736,1.232A4.25,4.25,0,0,1,1.988-2.394a.8.8,0,0,0-.5-.154.8.8,0,0,0-.812.8.808.808,0,0,0,.336.658A6.1,6.1,0,0,0,4.69.14Zm8.82.028A3.618,3.618,0,0,0,16.2-.882a.66.66,0,0,0,.238-.532.735.735,0,0,0-.728-.742.736.736,0,0,0-.462.182,2.467,2.467,0,0,1-1.652.658,2.237,2.237,0,0,1-2.212-2.366V-3.71a2.229,2.229,0,0,1,2.142-2.352,2.345,2.345,0,0,1,1.582.63.864.864,0,0,0,.5.168.771.771,0,0,0,.784-.77.8.8,0,0,0-.266-.588,3.742,3.742,0,0,0-2.59-.924,3.815,3.815,0,0,0-3.85,3.864v.028A3.774,3.774,0,0,0,13.51.168Zm11.214-6.79a.857.857,0,0,0-.854-.854.848.848,0,0,0-.854.854v3.4A1.633,1.633,0,0,1,21.35-1.4c-1.008,0-1.582-.644-1.582-1.792v-3.43a.848.848,0,0,0-.854-.854.846.846,0,0,0-.84.854v3.934A2.538,2.538,0,0,0,20.706.154a2.66,2.66,0,0,0,2.31-1.3V-.77a.845.845,0,0,0,.854.84.846.846,0,0,0,.854-.84ZM26.908-.77a.842.842,0,0,0,.84.84A.846.846,0,0,0,28.6-.77v-.378a3.019,3.019,0,0,0,2.52,1.3,3.536,3.536,0,0,0,3.43-3.836V-3.71a3.536,3.536,0,0,0-3.43-3.836A2.959,2.959,0,0,0,28.6-6.16V-9.45a.837.837,0,0,0-.854-.84.825.825,0,0,0-.84.84Zm3.808-.546A2.229,2.229,0,0,1,28.56-3.682V-3.71a2.229,2.229,0,0,1,2.156-2.366A2.189,2.189,0,0,1,32.83-3.71v.028A2.165,2.165,0,0,1,30.716-1.316ZM38.5.154A3,3,0,0,0,40.908-.924v.28a.766.766,0,0,0,.826.714.807.807,0,0,0,.826-.812v-3.64a3.067,3.067,0,0,0-.8-2.282,3.312,3.312,0,0,0-2.45-.826,6.336,6.336,0,0,0-2.38.434.739.739,0,0,0-.462.672.705.705,0,0,0,.714.7.951.951,0,0,0,.266-.042,4.39,4.39,0,0,1,1.638-.294c1.19,0,1.834.56,1.834,1.61v.182a6.175,6.175,0,0,0-1.988-.308c-1.806,0-3.052.784-3.052,2.38v.028A2.361,2.361,0,0,0,38.5.154Zm.476-1.232c-.812,0-1.442-.406-1.442-1.12v-.028c0-.77.644-1.232,1.736-1.232a4.7,4.7,0,0,1,1.68.294v.5C40.95-1.722,40.1-1.078,38.976-1.078ZM56.2-9.45a.837.837,0,0,0-.854-.84.834.834,0,0,0-.84.84v3.206a3.024,3.024,0,0,0-2.52-1.3,3.528,3.528,0,0,0-3.43,3.836v.028A3.544,3.544,0,0,0,51.982.154,2.959,2.959,0,0,0,54.5-1.232V-.77a.837.837,0,0,0,.854.84.834.834,0,0,0,.84-.84ZM52.388-6.076A2.218,2.218,0,0,1,54.53-3.71v.028a2.227,2.227,0,0,1-2.142,2.366A2.2,2.2,0,0,1,50.26-3.682V-3.71A2.167,2.167,0,0,1,52.388-6.076ZM58.366-9.3a.877.877,0,0,0,.966.84A.877.877,0,0,0,60.3-9.3V-9.38a.867.867,0,0,0-.966-.826.867.867,0,0,0-.966.826ZM58.492-.77a.834.834,0,0,0,.84.84.837.837,0,0,0,.854-.84V-6.622a.848.848,0,0,0-.854-.854.837.837,0,0,0-.84.854ZM66.514-.6l2.464-5.656a1.016,1.016,0,0,0,.1-.406.807.807,0,0,0-.826-.812.843.843,0,0,0-.8.588L65.52-1.96l-1.9-4.9a.853.853,0,0,0-.84-.616.847.847,0,0,0-.84.812,1.319,1.319,0,0,0,.1.42L64.5-.6a1.052,1.052,0,0,0,.966.742h.084A1.071,1.071,0,0,0,66.514-.6Zm4.2-8.694a.877.877,0,0,0,.966.84.877.877,0,0,0,.966-.84V-9.38a.867.867,0,0,0-.966-.826.867.867,0,0,0-.966.826ZM70.84-.77a.834.834,0,0,0,.84.84.837.837,0,0,0,.854-.84V-6.622a.848.848,0,0,0-.854-.854.837.837,0,0,0-.84.854Zm3.976,0a.834.834,0,0,0,.84.84.837.837,0,0,0,.854-.84v-3.4a1.644,1.644,0,0,1,1.666-1.834c1.008,0,1.582.658,1.582,1.806V-.77a.837.837,0,0,0,.854.84.825.825,0,0,0,.84-.84V-4.718A2.534,2.534,0,0,0,78.82-7.546a2.679,2.679,0,0,0-2.31,1.288v-.364a.848.848,0,0,0-.854-.854.837.837,0,0,0-.84.854Zm12.04,3.038a4.161,4.161,0,0,0,3.038-.994,3.782,3.782,0,0,0,.938-2.786v-5.11a.848.848,0,0,0-.854-.854.842.842,0,0,0-.84.84v.35a3.19,3.19,0,0,0-2.59-1.26,3.334,3.334,0,0,0-3.36,3.472v.028a3.322,3.322,0,0,0,3.36,3.458,3.1,3.1,0,0,0,2.6-1.358v.574A2.067,2.067,0,0,1,86.814.9,4.52,4.52,0,0,1,84.546.308a.667.667,0,0,0-.308-.07.714.714,0,0,0-.714.7A.693.693,0,0,0,84,1.61,6.386,6.386,0,0,0,86.856,2.268ZM87-2.03a2.013,2.013,0,0,1-2.1-2.03v-.028A2,2,0,0,1,87-6.118a2.065,2.065,0,0,1,2.17,2.03v.028A2.065,2.065,0,0,1,87-2.03Z" transform="translate(83 182)" fill="#1e2022"/>
    <path id="Path_4921" data-name="Path 4921" d="M2.136-.672A.735.735,0,0,0,2.868.06.727.727,0,0,0,3.6-.672v-7.1a.72.72,0,0,0-.732-.732H2.844a2.558,2.558,0,0,0-.72.132L.852-7.968a.643.643,0,0,0-.492.636.649.649,0,0,0,.648.624,1.07,1.07,0,0,0,.264-.036l.864-.264Zm4.812,0A.735.735,0,0,0,7.68.06a.727.727,0,0,0,.732-.732v-7.1a.72.72,0,0,0-.732-.732H7.656a2.558,2.558,0,0,0-.72.132l-1.272.408a.643.643,0,0,0-.492.636.649.649,0,0,0,.648.624,1.07,1.07,0,0,0,.264-.036l.864-.264Zm3.5-4.9v.108a.823.823,0,0,0,.852.84.82.82,0,0,0,.84-.84v-.108a.82.82,0,0,0-.84-.84A.823.823,0,0,0,10.452-5.568Zm0,4.68v.12A.821.821,0,0,0,11.3.06a.818.818,0,0,0,.84-.828v-.12a.818.818,0,0,0-.84-.828A.821.821,0,0,0,10.452-.888ZM16.764.144A2.69,2.69,0,0,0,19.7-2.52v-.024c0-1.548-1.2-2.2-2.472-2.352l1.98-2.052a1.074,1.074,0,0,0,.42-.8A.661.661,0,0,0,18.9-8.4H14.6a.645.645,0,0,0-.648.648.643.643,0,0,0,.648.636h3.048l-1.968,2.1a.838.838,0,0,0-.312.6.64.64,0,0,0,.636.636h.3c1.176,0,1.932.468,1.932,1.3v.024a1.315,1.315,0,0,1-1.452,1.272,2.554,2.554,0,0,1-1.908-.8.708.708,0,0,0-.492-.192.717.717,0,0,0-.708.708.709.709,0,0,0,.24.528A3.937,3.937,0,0,0,16.764.144Zm8.076,0c2.208,0,3.672-1.944,3.672-4.344v-.024c0-2.4-1.452-4.32-3.648-4.32S21.192-6.6,21.192-4.2v.024C21.192-1.776,22.632.144,24.84.144Zm.024-1.332c-1.308,0-2.148-1.356-2.148-3.012v-.024c0-1.668.828-2.988,2.124-2.988S26.988-5.856,26.988-4.2v.024C26.988-2.532,26.172-1.188,24.864-1.188Z" transform="matrix(1, 0, 0, 1, 313, 430)"/>
    <path id="Path_4922" data-name="Path 4922" d="M2.136-.672A.735.735,0,0,0,2.868.06.727.727,0,0,0,3.6-.672v-7.1a.72.72,0,0,0-.732-.732H2.844a2.558,2.558,0,0,0-.72.132L.852-7.968a.643.643,0,0,0-.492.636.649.649,0,0,0,.648.624,1.07,1.07,0,0,0,.264-.036l.864-.264ZM5.328-.7A.709.709,0,0,0,6.12,0h4.764a.645.645,0,0,0,.648-.648.645.645,0,0,0-.648-.648H7.476L9.2-2.736c1.488-1.212,2.184-1.932,2.184-3.252v-.024A2.515,2.515,0,0,0,8.616-8.52,3.25,3.25,0,0,0,5.832-7.164a.738.738,0,0,0-.168.456.671.671,0,0,0,.672.672.675.675,0,0,0,.516-.228A2.054,2.054,0,0,1,8.508-7.2,1.26,1.26,0,0,1,9.864-5.892c0,.756-.42,1.3-1.572,2.268l-2.58,2.2A.917.917,0,0,0,5.328-.7Zm7.728-4.872v.108a.823.823,0,0,0,.852.84.82.82,0,0,0,.84-.84v-.108a.82.82,0,0,0-.84-.84A.823.823,0,0,0,13.056-5.568Zm0,4.68v.12a.821.821,0,0,0,.852.828.818.818,0,0,0,.84-.828v-.12a.818.818,0,0,0-.84-.828A.821.821,0,0,0,13.056-.888ZM19.368.144a2.69,2.69,0,0,0,2.94-2.664v-.024c0-1.548-1.2-2.2-2.472-2.352l1.98-2.052a1.074,1.074,0,0,0,.42-.8A.661.661,0,0,0,21.5-8.4h-4.3a.645.645,0,0,0-.648.648.643.643,0,0,0,.648.636h3.048l-1.968,2.1a.838.838,0,0,0-.312.6.64.64,0,0,0,.636.636h.3c1.176,0,1.932.468,1.932,1.3v.024a1.315,1.315,0,0,1-1.452,1.272,2.554,2.554,0,0,1-1.908-.8.708.708,0,0,0-.492-.192.717.717,0,0,0-.708.708.709.709,0,0,0,.24.528A3.937,3.937,0,0,0,19.368.144Zm8.076,0c2.208,0,3.672-1.944,3.672-4.344v-.024c0-2.4-1.452-4.32-3.648-4.32S23.8-6.6,23.8-4.2v.024C23.8-1.776,25.236.144,27.444.144Zm.024-1.332c-1.308,0-2.148-1.356-2.148-3.012v-.024c0-1.668.828-2.988,2.124-2.988S29.592-5.856,29.592-4.2v.024C29.592-2.532,28.776-1.188,27.468-1.188Z" transform="matrix(1, 0, 0, 1, 312, 307)"/>
    <path id="Path_4923" data-name="Path 4923" d="M2.136-.672A.735.735,0,0,0,2.868.06.727.727,0,0,0,3.6-.672v-7.1a.72.72,0,0,0-.732-.732H2.844a2.558,2.558,0,0,0-.72.132L.852-7.968a.643.643,0,0,0-.492.636.649.649,0,0,0,.648.624,1.07,1.07,0,0,0,.264-.036l.864-.264ZM8.544.144a2.69,2.69,0,0,0,2.94-2.664v-.024c0-1.548-1.2-2.2-2.472-2.352l1.98-2.052a1.074,1.074,0,0,0,.42-.8A.661.661,0,0,0,10.68-8.4h-4.3a.645.645,0,0,0-.648.648.643.643,0,0,0,.648.636H9.432l-1.968,2.1a.838.838,0,0,0-.312.6.64.64,0,0,0,.636.636h.3c1.176,0,1.932.468,1.932,1.3v.024A1.315,1.315,0,0,1,8.568-1.188a2.554,2.554,0,0,1-1.908-.8.708.708,0,0,0-.492-.192.717.717,0,0,0-.708.708.709.709,0,0,0,.24.528A3.937,3.937,0,0,0,8.544.144Zm4.572-5.712v.108a.823.823,0,0,0,.852.84.82.82,0,0,0,.84-.84v-.108a.82.82,0,0,0-.84-.84A.823.823,0,0,0,13.116-5.568Zm0,4.68v.12a.821.821,0,0,0,.852.828.818.818,0,0,0,.84-.828v-.12a.818.818,0,0,0-.84-.828A.821.821,0,0,0,13.116-.888ZM19.428.144a2.69,2.69,0,0,0,2.94-2.664v-.024c0-1.548-1.2-2.2-2.472-2.352l1.98-2.052a1.074,1.074,0,0,0,.42-.8.661.661,0,0,0-.732-.648h-4.3a.645.645,0,0,0-.648.648.643.643,0,0,0,.648.636h3.048l-1.968,2.1a.838.838,0,0,0-.312.6.64.64,0,0,0,.636.636h.3c1.176,0,1.932.468,1.932,1.3v.024a1.315,1.315,0,0,1-1.452,1.272,2.554,2.554,0,0,1-1.908-.8.708.708,0,0,0-.492-.192.717.717,0,0,0-.708.708.709.709,0,0,0,.24.528A3.937,3.937,0,0,0,19.428.144Zm8.076,0c2.208,0,3.672-1.944,3.672-4.344v-.024c0-2.4-1.452-4.32-3.648-4.32S23.856-6.6,23.856-4.2v.024C23.856-1.776,25.3.144,27.5.144Zm.024-1.332c-1.308,0-2.148-1.356-2.148-3.012v-.024c0-1.668.828-2.988,2.124-2.988S29.652-5.856,29.652-4.2v.024C29.652-2.532,28.836-1.188,27.528-1.188Z" transform="matrix(1, 0, 0, 1, 312, 180)"/>
    <path id="Path_4394" data-name="Path 4394" d="M238.986,462.253h-2.223a.744.744,0,1,0,0,1.489h2.223a.745.745,0,1,0,0-1.489Z" transform="translate(492.741 189.913) rotate(90)" fill="rgba(0,0,0,0.5)"/>
    <path id="Path_4395" data-name="Path 4395" d="M199.448,39.511H208.6a.744.744,0,1,0,0-1.489h-9.154a.744.744,0,1,0,0,1.489Z" transform="translate(107.913 223.763) rotate(90)" fill="rgba(0,0,0,0.5)"/>
    <path id="Path_4396" data-name="Path 4396" d="M200.057,197a.94.94,0,0,0-.939-.939h-3.143a.94.94,0,0,0-.939.939v3.144a.94.94,0,0,0,.939.939h3.143a.94.94,0,0,0,.939-.939Zm-1.489,2.593h-2.044v-2.043h2.044Z" transform="translate(251.275 227.09) rotate(90)" fill="rgba(0,0,0,0.5)"/>
    <path id="Path_4397" data-name="Path 4397" d="M267.914,197a.94.94,0,0,0-.939-.939h-3.143a.941.941,0,0,0-.939.939v3.144a.94.94,0,0,0,.939.939h3.143a.94.94,0,0,0,.939-.939Zm-1.489,2.593h-2.044v-2.043h2.044Z" transform="translate(251.275 165.536) rotate(90)" fill="rgba(0,0,0,0.5)"/>
    <path id="Path_4398" data-name="Path 4398" d="M265.26,289.345h-.879v-.336a.745.745,0,1,0-1.489,0v.835a.991.991,0,0,0,.99.99h1.378a.745.745,0,1,0,0-1.489Z" transform="translate(334.912 165.536) rotate(90)" fill="rgba(0,0,0,0.5)"/>
    <path id="Path_4399" data-name="Path 4399" d="M199.118,261.864h-3.143a.94.94,0,0,0-.939.939v3.143a.94.94,0,0,0,.939.939h3.143a.94.94,0,0,0,.939-.939V262.8A.94.94,0,0,0,199.118,261.864Zm-.55,3.533h-2.044v-2.043h2.044Z" transform="translate(310.965 227.09) rotate(90)" fill="rgba(0,0,0,0.5)"/>
    <path id="Path_4400" data-name="Path 4400" d="M267.169,265.12a.744.744,0,0,0,.744-.744v-1.521a.991.991,0,0,0-.99-.99h-3.288a.744.744,0,1,0,0,1.489h2.789v1.022A.744.744,0,0,0,267.169,265.12Z" transform="translate(310.965 165.537) rotate(90)" fill="rgba(0,0,0,0.5)"/>
    <path id="Path_4401" data-name="Path 4401" d="M168.266,302.818h-2.072V300.65a.745.745,0,0,0-1.489,0v2.667a.991.991,0,0,0,.99.99h2.572a.745.745,0,1,0,0-1.489Z" transform="translate(345.473 254.603) rotate(90)" fill="rgba(0,0,0,0.5)"/>
    <path id="Path_4402" data-name="Path 4402" d="M304.495,299.9a.745.745,0,0,0-.745.745v2.168h-2.072a.745.745,0,1,0,0,1.489h2.572a.991.991,0,0,0,.99-.989v-2.667A.744.744,0,0,0,304.495,299.9Z" transform="translate(345.468 131.028) rotate(90)" fill="rgba(0,0,0,0.5)"/>
    <path id="Path_4403" data-name="Path 4403" d="M304.249,164.7h-2.572a.744.744,0,1,0,0,1.489h2.072v2.168a.745.745,0,0,0,1.489,0v-2.667A.991.991,0,0,0,304.249,164.7Z" transform="translate(222.829 131.028) rotate(90)" fill="rgba(0,0,0,0.5)"/>
    <path id="Path_4404" data-name="Path 4404" d="M165.449,169.106a.745.745,0,0,0,.745-.744v-2.169h2.072a.744.744,0,1,0,0-1.489h-2.572a.991.991,0,0,0-.99.99v2.667A.745.745,0,0,0,165.449,169.106Z" transform="translate(222.829 254.603) rotate(90)" fill="rgba(0,0,0,0.5)"/>
    <path id="Path_4394-2" data-name="Path 4394" d="M238.986,462.253h-2.223a.744.744,0,1,0,0,1.489h2.223a.745.745,0,1,0,0-1.489Z" transform="translate(491.741 66.913) rotate(90)" fill="rgba(0,0,0,0.5)"/>
    <path id="Path_4395-2" data-name="Path 4395" d="M199.448,39.511H208.6a.744.744,0,1,0,0-1.489h-9.154a.744.744,0,1,0,0,1.489Z" transform="translate(106.913 100.763) rotate(90)" fill="rgba(0,0,0,0.5)"/>
    <path id="Path_4396-2" data-name="Path 4396" d="M200.057,197a.94.94,0,0,0-.939-.939h-3.143a.94.94,0,0,0-.939.939v3.144a.94.94,0,0,0,.939.939h3.143a.94.94,0,0,0,.939-.939Zm-1.489,2.593h-2.044v-2.043h2.044Z" transform="translate(250.275 104.09) rotate(90)" fill="rgba(0,0,0,0.5)"/>
    <path id="Path_4397-2" data-name="Path 4397" d="M267.914,197a.94.94,0,0,0-.939-.939h-3.143a.941.941,0,0,0-.939.939v3.144a.94.94,0,0,0,.939.939h3.143a.94.94,0,0,0,.939-.939Zm-1.489,2.593h-2.044v-2.043h2.044Z" transform="translate(250.275 42.536) rotate(90)" fill="rgba(0,0,0,0.5)"/>
    <path id="Path_4398-2" data-name="Path 4398" d="M265.26,289.345h-.879v-.336a.745.745,0,1,0-1.489,0v.835a.991.991,0,0,0,.99.99h1.378a.745.745,0,1,0,0-1.489Z" transform="translate(333.912 42.536) rotate(90)" fill="rgba(0,0,0,0.5)"/>
    <path id="Path_4399-2" data-name="Path 4399" d="M199.118,261.864h-3.143a.94.94,0,0,0-.939.939v3.143a.94.94,0,0,0,.939.939h3.143a.94.94,0,0,0,.939-.939V262.8A.94.94,0,0,0,199.118,261.864Zm-.55,3.533h-2.044v-2.043h2.044Z" transform="translate(309.965 104.09) rotate(90)" fill="rgba(0,0,0,0.5)"/>
    <path id="Path_4400-2" data-name="Path 4400" d="M267.169,265.12a.744.744,0,0,0,.744-.744v-1.521a.991.991,0,0,0-.99-.99h-3.288a.744.744,0,1,0,0,1.489h2.789v1.022A.744.744,0,0,0,267.169,265.12Z" transform="translate(309.965 42.537) rotate(90)" fill="rgba(0,0,0,0.5)"/>
    <path id="Path_4401-2" data-name="Path 4401" d="M168.266,302.818h-2.072V300.65a.745.745,0,0,0-1.489,0v2.667a.991.991,0,0,0,.99.99h2.572a.745.745,0,1,0,0-1.489Z" transform="translate(344.473 131.603) rotate(90)" fill="rgba(0,0,0,0.5)"/>
    <path id="Path_4402-2" data-name="Path 4402" d="M304.495,299.9a.745.745,0,0,0-.745.745v2.168h-2.072a.745.745,0,1,0,0,1.489h2.572a.991.991,0,0,0,.99-.989v-2.667A.744.744,0,0,0,304.495,299.9Z" transform="translate(344.468 8.028) rotate(90)" fill="rgba(0,0,0,0.5)"/>
    <path id="Path_4403-2" data-name="Path 4403" d="M304.249,164.7h-2.572a.744.744,0,1,0,0,1.489h2.072v2.168a.745.745,0,0,0,1.489,0v-2.667A.991.991,0,0,0,304.249,164.7Z" transform="translate(221.829 8.028) rotate(90)" fill="rgba(0,0,0,0.5)"/>
    <path id="Path_4404-2" data-name="Path 4404" d="M165.449,169.106a.745.745,0,0,0,.745-.744v-2.169h2.072a.744.744,0,1,0,0-1.489h-2.572a.991.991,0,0,0-.99.99v2.667A.745.745,0,0,0,165.449,169.106Z" transform="translate(221.829 131.603) rotate(90)" fill="rgba(0,0,0,0.5)"/>
    <path id="Path_4394-3" data-name="Path 4394" d="M238.986,462.253h-2.223a.744.744,0,1,0,0,1.489h2.223a.745.745,0,1,0,0-1.489Z" transform="translate(491.741 -60.087) rotate(90)" fill="rgba(0,0,0,0.5)"/>
    <path id="Path_4395-3" data-name="Path 4395" d="M199.448,39.511H208.6a.744.744,0,1,0,0-1.489h-9.154a.744.744,0,1,0,0,1.489Z" transform="translate(106.913 -26.237) rotate(90)" fill="rgba(0,0,0,0.5)"/>
    <path id="Path_4396-3" data-name="Path 4396" d="M200.057,197a.94.94,0,0,0-.939-.939h-3.143a.94.94,0,0,0-.939.939v3.144a.94.94,0,0,0,.939.939h3.143a.94.94,0,0,0,.939-.939Zm-1.489,2.593h-2.044v-2.043h2.044Z" transform="translate(250.275 -22.91) rotate(90)" fill="rgba(0,0,0,0.5)"/>
    <path id="Path_4397-3" data-name="Path 4397" d="M267.914,197a.94.94,0,0,0-.939-.939h-3.143a.941.941,0,0,0-.939.939v3.144a.94.94,0,0,0,.939.939h3.143a.94.94,0,0,0,.939-.939Zm-1.489,2.593h-2.044v-2.043h2.044Z" transform="translate(250.275 -84.464) rotate(90)" fill="rgba(0,0,0,0.5)"/>
    <path id="Path_4398-3" data-name="Path 4398" d="M265.26,289.345h-.879v-.336a.745.745,0,1,0-1.489,0v.835a.991.991,0,0,0,.99.99h1.378a.745.745,0,1,0,0-1.489Z" transform="translate(333.912 -84.464) rotate(90)" fill="rgba(0,0,0,0.5)"/>
    <path id="Path_4399-3" data-name="Path 4399" d="M199.118,261.864h-3.143a.94.94,0,0,0-.939.939v3.143a.94.94,0,0,0,.939.939h3.143a.94.94,0,0,0,.939-.939V262.8A.94.94,0,0,0,199.118,261.864Zm-.55,3.533h-2.044v-2.043h2.044Z" transform="translate(309.965 -22.91) rotate(90)" fill="rgba(0,0,0,0.5)"/>
    <path id="Path_4400-3" data-name="Path 4400" d="M267.169,265.12a.744.744,0,0,0,.744-.744v-1.521a.991.991,0,0,0-.99-.99h-3.288a.744.744,0,1,0,0,1.489h2.789v1.022A.744.744,0,0,0,267.169,265.12Z" transform="translate(309.965 -84.463) rotate(90)" fill="rgba(0,0,0,0.5)"/>
    <path id="Path_4401-3" data-name="Path 4401" d="M168.266,302.818h-2.072V300.65a.745.745,0,0,0-1.489,0v2.667a.991.991,0,0,0,.99.99h2.572a.745.745,0,1,0,0-1.489Z" transform="translate(344.473 4.603) rotate(90)" fill="rgba(0,0,0,0.5)"/>
    <path id="Path_4402-3" data-name="Path 4402" d="M304.495,299.9a.745.745,0,0,0-.745.745v2.168h-2.072a.745.745,0,1,0,0,1.489h2.572a.991.991,0,0,0,.99-.989v-2.667A.744.744,0,0,0,304.495,299.9Z" transform="translate(344.468 -118.972) rotate(90)" fill="rgba(0,0,0,0.5)"/>
    <path id="Path_4403-3" data-name="Path 4403" d="M304.249,164.7h-2.572a.744.744,0,1,0,0,1.489h2.072v2.168a.745.745,0,0,0,1.489,0v-2.667A.991.991,0,0,0,304.249,164.7Z" transform="translate(221.829 -118.972) rotate(90)" fill="rgba(0,0,0,0.5)"/>
    <path id="Path_4404-3" data-name="Path 4404" d="M165.449,169.106a.745.745,0,0,0,.745-.744v-2.169h2.072a.744.744,0,1,0,0-1.489h-2.572a.991.991,0,0,0-.99.99v2.667A.745.745,0,0,0,165.449,169.106Z" transform="translate(221.829 4.603) rotate(90)" fill="rgba(0,0,0,0.5)"/>
    <path id="Path_4924" data-name="Path 4924" d="M1.08-.672A.73.73,0,0,0,1.824.06a.727.727,0,0,0,.732-.732V-2.7H4.224c1.848,0,3.36-.984,3.36-2.868v-.024C7.584-7.284,6.36-8.4,4.392-8.4H1.824a.733.733,0,0,0-.744.744Zm1.476-3.36V-7.056H4.272c1.1,0,1.812.516,1.812,1.5v.024c0,.876-.7,1.5-1.812,1.5ZM7.908-.624A.676.676,0,0,0,8.592.06a.71.71,0,0,0,.684-.468l.708-1.62h4.08l.684,1.572a.76.76,0,0,0,.72.516.692.692,0,0,0,.7-.708A.643.643,0,0,0,16.08-.96L12.96-7.92a.921.921,0,0,0-.876-.6h-.072a.936.936,0,0,0-.888.6L8-.96A.756.756,0,0,0,7.908-.624Zm2.64-2.712,1.476-3.4,1.476,3.4ZM17.82-.672a.73.73,0,0,0,.744.732A.727.727,0,0,0,19.3-.672V-2.928h1.86l2.04,2.6a.844.844,0,0,0,.72.384.7.7,0,0,0,.708-.684.856.856,0,0,0-.24-.564L22.776-3.216a2.486,2.486,0,0,0,1.908-2.508v-.024a2.539,2.539,0,0,0-.7-1.812,3.384,3.384,0,0,0-2.424-.84h-3a.733.733,0,0,0-.744.744ZM19.3-4.236v-2.82h2.148c1.092,0,1.74.492,1.74,1.392v.024c0,.852-.672,1.4-1.728,1.4ZM28.584-.672a.738.738,0,0,0,.744.732.738.738,0,0,0,.744-.732v-6.36h2.052a.681.681,0,0,0,.672-.684.681.681,0,0,0-.672-.684h-5.58a.684.684,0,0,0-.684.684.684.684,0,0,0,.684.684h2.04Zm5.856,0a.73.73,0,0,0,.744.732.727.727,0,0,0,.732-.732V-7.728a.727.727,0,0,0-.732-.732.73.73,0,0,0-.744.732Zm7.68.816A4.292,4.292,0,0,0,45.168-.984a.709.709,0,0,0,.24-.528.7.7,0,0,0-.7-.684.672.672,0,0,0-.444.168,3.01,3.01,0,0,1-2.1.8A2.83,2.83,0,0,1,39.4-4.2v-.024a2.827,2.827,0,0,1,2.772-2.964,3.046,3.046,0,0,1,2,.756.721.721,0,0,0,.444.144.717.717,0,0,0,.732-.72A.737.737,0,0,0,45.06-7.6a4.405,4.405,0,0,0-2.88-.948A4.251,4.251,0,0,0,37.848-4.2v.024A4.225,4.225,0,0,0,42.12.144Zm5.016-.816A.73.73,0,0,0,47.88.06a.727.727,0,0,0,.732-.732V-2.7H50.28c1.848,0,3.36-.984,3.36-2.868v-.024c0-1.692-1.224-2.808-3.192-2.808H47.88a.733.733,0,0,0-.744.744Zm1.476-3.36V-7.056h1.716c1.1,0,1.812.516,1.812,1.5v.024c0,.876-.7,1.5-1.812,1.5ZM53.964-.624a.676.676,0,0,0,.684.684.71.71,0,0,0,.684-.468l.708-1.62h4.08L60.8-.456a.76.76,0,0,0,.72.516.692.692,0,0,0,.7-.708.643.643,0,0,0-.084-.312l-3.12-6.96a.921.921,0,0,0-.876-.6h-.072a.936.936,0,0,0-.888.6L54.06-.96A.756.756,0,0,0,53.964-.624ZM56.6-3.336l1.476-3.4,1.476,3.4ZM63.876-.66a.725.725,0,0,0,.732.72.722.722,0,0,0,.72-.72V-5.988L69.648-.4a.929.929,0,0,0,.768.444h.06a.717.717,0,0,0,.72-.732V-7.74a.725.725,0,0,0-.732-.72.722.722,0,0,0-.72.72v5.16l-4.2-5.436a.929.929,0,0,0-.768-.432H64.62a.74.74,0,0,0-.744.744Zm8.964.036a.676.676,0,0,0,.684.684.71.71,0,0,0,.684-.468l.708-1.62H79L79.68-.456A.76.76,0,0,0,80.4.06a.692.692,0,0,0,.7-.708.643.643,0,0,0-.084-.312l-3.12-6.96a.921.921,0,0,0-.876-.6h-.072a.936.936,0,0,0-.888.6L72.936-.96A.756.756,0,0,0,72.84-.624Zm2.64-2.712,1.476-3.4,1.476,3.4ZM83.856-.672A.738.738,0,0,0,84.6.06a.738.738,0,0,0,.744-.732v-6.36H87.4a.681.681,0,0,0,.672-.684A.681.681,0,0,0,87.4-8.4h-5.58a.684.684,0,0,0-.684.684.684.684,0,0,0,.684.684h2.04ZM92.388.12c1.764,0,3-.936,3-2.508v-.024c0-1.392-.912-2.028-2.688-2.46-1.62-.384-2-.672-2-1.32v-.024c0-.552.5-1,1.368-1A3.494,3.494,0,0,1,94-6.576a.714.714,0,0,0,.384.108.686.686,0,0,0,.7-.684.666.666,0,0,0-.324-.588,4.622,4.622,0,0,0-2.664-.78c-1.668,0-2.868,1-2.868,2.436v.024c0,1.548,1.008,2.076,2.8,2.508,1.56.36,1.9.684,1.9,1.284v.024c0,.624-.576,1.056-1.488,1.056a3.642,3.642,0,0,1-2.352-.864.684.684,0,0,0-.432-.132.686.686,0,0,0-.7.684.692.692,0,0,0,.288.564A5.23,5.23,0,0,0,92.388.12Z" transform="matrix(1, 0, 0, 1, 38, 468)" fill="#6d7278"/>
    <path id="Path_4917" data-name="Path 4917" d="M1.08-.672A.73.73,0,0,0,1.824.06a.727.727,0,0,0,.732-.732V-2.7H4.224c1.848,0,3.36-.984,3.36-2.868v-.024C7.584-7.284,6.36-8.4,4.392-8.4H1.824a.733.733,0,0,0-.744.744Zm1.476-3.36V-7.056H4.272c1.1,0,1.812.516,1.812,1.5v.024c0,.876-.7,1.5-1.812,1.5ZM7.908-.624A.676.676,0,0,0,8.592.06a.71.71,0,0,0,.684-.468l.708-1.62h4.08l.684,1.572a.76.76,0,0,0,.72.516.692.692,0,0,0,.7-.708A.643.643,0,0,0,16.08-.96L12.96-7.92a.921.921,0,0,0-.876-.6h-.072a.936.936,0,0,0-.888.6L8-.96A.756.756,0,0,0,7.908-.624Zm2.64-2.712,1.476-3.4,1.476,3.4ZM17.82-.672a.73.73,0,0,0,.744.732A.727.727,0,0,0,19.3-.672V-2.928h1.86l2.04,2.6a.844.844,0,0,0,.72.384.7.7,0,0,0,.708-.684.856.856,0,0,0-.24-.564L22.776-3.216a2.486,2.486,0,0,0,1.908-2.508v-.024a2.539,2.539,0,0,0-.7-1.812,3.384,3.384,0,0,0-2.424-.84h-3a.733.733,0,0,0-.744.744ZM19.3-4.236v-2.82h2.148c1.092,0,1.74.492,1.74,1.392v.024c0,.852-.672,1.4-1.728,1.4ZM28.584-.672a.738.738,0,0,0,.744.732.738.738,0,0,0,.744-.732v-6.36h2.052a.681.681,0,0,0,.672-.684.681.681,0,0,0-.672-.684h-5.58a.684.684,0,0,0-.684.684.684.684,0,0,0,.684.684h2.04Zm5.856,0a.73.73,0,0,0,.744.732.727.727,0,0,0,.732-.732V-7.728a.727.727,0,0,0-.732-.732.73.73,0,0,0-.744.732Zm7.68.816A4.292,4.292,0,0,0,45.168-.984a.709.709,0,0,0,.24-.528.7.7,0,0,0-.7-.684.672.672,0,0,0-.444.168,3.01,3.01,0,0,1-2.1.8A2.83,2.83,0,0,1,39.4-4.2v-.024a2.827,2.827,0,0,1,2.772-2.964,3.046,3.046,0,0,1,2,.756.721.721,0,0,0,.444.144.717.717,0,0,0,.732-.72A.737.737,0,0,0,45.06-7.6a4.405,4.405,0,0,0-2.88-.948A4.251,4.251,0,0,0,37.848-4.2v.024A4.225,4.225,0,0,0,42.12.144Zm5.016-.816A.73.73,0,0,0,47.88.06a.727.727,0,0,0,.732-.732V-2.7H50.28c1.848,0,3.36-.984,3.36-2.868v-.024c0-1.692-1.224-2.808-3.192-2.808H47.88a.733.733,0,0,0-.744.744Zm1.476-3.36V-7.056h1.716c1.1,0,1.812.516,1.812,1.5v.024c0,.876-.7,1.5-1.812,1.5ZM53.964-.624a.676.676,0,0,0,.684.684.71.71,0,0,0,.684-.468l.708-1.62h4.08L60.8-.456a.76.76,0,0,0,.72.516.692.692,0,0,0,.7-.708.643.643,0,0,0-.084-.312l-3.12-6.96a.921.921,0,0,0-.876-.6h-.072a.936.936,0,0,0-.888.6L54.06-.96A.756.756,0,0,0,53.964-.624ZM56.6-3.336l1.476-3.4,1.476,3.4ZM63.876-.66a.725.725,0,0,0,.732.72.722.722,0,0,0,.72-.72V-5.988L69.648-.4a.929.929,0,0,0,.768.444h.06a.717.717,0,0,0,.72-.732V-7.74a.725.725,0,0,0-.732-.72.722.722,0,0,0-.72.72v5.16l-4.2-5.436a.929.929,0,0,0-.768-.432H64.62a.74.74,0,0,0-.744.744Zm8.964.036a.676.676,0,0,0,.684.684.71.71,0,0,0,.684-.468l.708-1.62H79L79.68-.456A.76.76,0,0,0,80.4.06a.692.692,0,0,0,.7-.708.643.643,0,0,0-.084-.312l-3.12-6.96a.921.921,0,0,0-.876-.6h-.072a.936.936,0,0,0-.888.6L72.936-.96A.756.756,0,0,0,72.84-.624Zm2.64-2.712,1.476-3.4,1.476,3.4ZM83.856-.672A.738.738,0,0,0,84.6.06a.738.738,0,0,0,.744-.732v-6.36H87.4a.681.681,0,0,0,.672-.684A.681.681,0,0,0,87.4-8.4h-5.58a.684.684,0,0,0-.684.684.684.684,0,0,0,.684.684h2.04ZM92.388.12c1.764,0,3-.936,3-2.508v-.024c0-1.392-.912-2.028-2.688-2.46-1.62-.384-2-.672-2-1.32v-.024c0-.552.5-1,1.368-1A3.494,3.494,0,0,1,94-6.576a.714.714,0,0,0,.384.108.686.686,0,0,0,.7-.684.666.666,0,0,0-.324-.588,4.622,4.622,0,0,0-2.664-.78c-1.668,0-2.868,1-2.868,2.436v.024c0,1.548,1.008,2.076,2.8,2.508,1.56.36,1.9.684,1.9,1.284v.024c0,.624-.576,1.056-1.488,1.056a3.642,3.642,0,0,1-2.352-.864.684.684,0,0,0-.432-.132.686.686,0,0,0-.7.684.692.692,0,0,0,.288.564A5.23,5.23,0,0,0,92.388.12Z" transform="matrix(1, 0, 0, 1, 37, 345)" fill="#6d7278"/>
    <path id="Path_4913" data-name="Path 4913" d="M1.08-.672A.73.73,0,0,0,1.824.06a.727.727,0,0,0,.732-.732V-2.7H4.224c1.848,0,3.36-.984,3.36-2.868v-.024C7.584-7.284,6.36-8.4,4.392-8.4H1.824a.733.733,0,0,0-.744.744Zm1.476-3.36V-7.056H4.272c1.1,0,1.812.516,1.812,1.5v.024c0,.876-.7,1.5-1.812,1.5ZM7.908-.624A.676.676,0,0,0,8.592.06a.71.71,0,0,0,.684-.468l.708-1.62h4.08l.684,1.572a.76.76,0,0,0,.72.516.692.692,0,0,0,.7-.708A.643.643,0,0,0,16.08-.96L12.96-7.92a.921.921,0,0,0-.876-.6h-.072a.936.936,0,0,0-.888.6L8-.96A.756.756,0,0,0,7.908-.624Zm2.64-2.712,1.476-3.4,1.476,3.4ZM17.82-.672a.73.73,0,0,0,.744.732A.727.727,0,0,0,19.3-.672V-2.928h1.86l2.04,2.6a.844.844,0,0,0,.72.384.7.7,0,0,0,.708-.684.856.856,0,0,0-.24-.564L22.776-3.216a2.486,2.486,0,0,0,1.908-2.508v-.024a2.539,2.539,0,0,0-.7-1.812,3.384,3.384,0,0,0-2.424-.84h-3a.733.733,0,0,0-.744.744ZM19.3-4.236v-2.82h2.148c1.092,0,1.74.492,1.74,1.392v.024c0,.852-.672,1.4-1.728,1.4ZM28.584-.672a.738.738,0,0,0,.744.732.738.738,0,0,0,.744-.732v-6.36h2.052a.681.681,0,0,0,.672-.684.681.681,0,0,0-.672-.684h-5.58a.684.684,0,0,0-.684.684.684.684,0,0,0,.684.684h2.04Zm5.856,0a.73.73,0,0,0,.744.732.727.727,0,0,0,.732-.732V-7.728a.727.727,0,0,0-.732-.732.73.73,0,0,0-.744.732Zm7.68.816A4.292,4.292,0,0,0,45.168-.984a.709.709,0,0,0,.24-.528.7.7,0,0,0-.7-.684.672.672,0,0,0-.444.168,3.01,3.01,0,0,1-2.1.8A2.83,2.83,0,0,1,39.4-4.2v-.024a2.827,2.827,0,0,1,2.772-2.964,3.046,3.046,0,0,1,2,.756.721.721,0,0,0,.444.144.717.717,0,0,0,.732-.72A.737.737,0,0,0,45.06-7.6a4.405,4.405,0,0,0-2.88-.948A4.251,4.251,0,0,0,37.848-4.2v.024A4.225,4.225,0,0,0,42.12.144Zm5.016-.816A.73.73,0,0,0,47.88.06a.727.727,0,0,0,.732-.732V-2.7H50.28c1.848,0,3.36-.984,3.36-2.868v-.024c0-1.692-1.224-2.808-3.192-2.808H47.88a.733.733,0,0,0-.744.744Zm1.476-3.36V-7.056h1.716c1.1,0,1.812.516,1.812,1.5v.024c0,.876-.7,1.5-1.812,1.5ZM53.964-.624a.676.676,0,0,0,.684.684.71.71,0,0,0,.684-.468l.708-1.62h4.08L60.8-.456a.76.76,0,0,0,.72.516.692.692,0,0,0,.7-.708.643.643,0,0,0-.084-.312l-3.12-6.96a.921.921,0,0,0-.876-.6h-.072a.936.936,0,0,0-.888.6L54.06-.96A.756.756,0,0,0,53.964-.624ZM56.6-3.336l1.476-3.4,1.476,3.4ZM63.876-.66a.725.725,0,0,0,.732.72.722.722,0,0,0,.72-.72V-5.988L69.648-.4a.929.929,0,0,0,.768.444h.06a.717.717,0,0,0,.72-.732V-7.74a.725.725,0,0,0-.732-.72.722.722,0,0,0-.72.72v5.16l-4.2-5.436a.929.929,0,0,0-.768-.432H64.62a.74.74,0,0,0-.744.744Zm8.964.036a.676.676,0,0,0,.684.684.71.71,0,0,0,.684-.468l.708-1.62H79L79.68-.456A.76.76,0,0,0,80.4.06a.692.692,0,0,0,.7-.708.643.643,0,0,0-.084-.312l-3.12-6.96a.921.921,0,0,0-.876-.6h-.072a.936.936,0,0,0-.888.6L72.936-.96A.756.756,0,0,0,72.84-.624Zm2.64-2.712,1.476-3.4,1.476,3.4ZM83.856-.672A.738.738,0,0,0,84.6.06a.738.738,0,0,0,.744-.732v-6.36H87.4a.681.681,0,0,0,.672-.684A.681.681,0,0,0,87.4-8.4h-5.58a.684.684,0,0,0-.684.684.684.684,0,0,0,.684.684h2.04ZM92.388.12c1.764,0,3-.936,3-2.508v-.024c0-1.392-.912-2.028-2.688-2.46-1.62-.384-2-.672-2-1.32v-.024c0-.552.5-1,1.368-1A3.494,3.494,0,0,1,94-6.576a.714.714,0,0,0,.384.108.686.686,0,0,0,.7-.684.666.666,0,0,0-.324-.588,4.622,4.622,0,0,0-2.664-.78c-1.668,0-2.868,1-2.868,2.436v.024c0,1.548,1.008,2.076,2.8,2.508,1.56.36,1.9.684,1.9,1.284v.024c0,.624-.576,1.056-1.488,1.056a3.642,3.642,0,0,1-2.352-.864.684.684,0,0,0-.432-.132.686.686,0,0,0-.7.684.692.692,0,0,0,.288.564A5.23,5.23,0,0,0,92.388.12Z" transform="matrix(1, 0, 0, 1, 37, 218)" fill="#6d7278"/>
    <path id="Path_4925" data-name="Path 4925" d="M.516-.7a.709.709,0,0,0,.792.7H6.072A.645.645,0,0,0,6.72-.648.645.645,0,0,0,6.072-1.3H2.664l1.728-1.44C5.88-3.948,6.576-4.668,6.576-5.988v-.024A2.515,2.515,0,0,0,3.8-8.52,3.25,3.25,0,0,0,1.02-7.164a.738.738,0,0,0-.168.456.671.671,0,0,0,.672.672.675.675,0,0,0,.516-.228A2.054,2.054,0,0,1,3.7-7.2,1.26,1.26,0,0,1,5.052-5.892c0,.756-.42,1.3-1.572,2.268L.9-1.428A.917.917,0,0,0,.516-.7Zm6.9,1.74a.572.572,0,0,0,.576.552.547.547,0,0,0,.516-.336L13.428-8.8a.936.936,0,0,0,.06-.288.561.561,0,0,0-.564-.552A.563.563,0,0,0,12.4-9.3L7.488.756A.678.678,0,0,0,7.416,1.044Zm9.768-.9A2.824,2.824,0,0,0,20.256-2.7v-.024c0-1.776-1.284-2.64-2.928-2.64A3.571,3.571,0,0,0,16-5.124l.132-1.968h3.156a.656.656,0,0,0,.66-.648.666.666,0,0,0-.66-.66h-3.8a.676.676,0,0,0-.672.66l-.18,3.024a.7.7,0,0,0,.288.648,1.154,1.154,0,0,0,.7.288,5.719,5.719,0,0,1,1.44-.288c1.02,0,1.74.528,1.74,1.392v.024A1.471,1.471,0,0,1,17.16-1.2a2.819,2.819,0,0,1-1.824-.708.648.648,0,0,0-.432-.144.717.717,0,0,0-.708.708.727.727,0,0,0,.3.576A4.257,4.257,0,0,0,17.184.144Zm8.532-.552a.461.461,0,0,0,.468.468.451.451,0,0,0,.456-.468V-3.552A1.825,1.825,0,0,1,28.5-5.5a1.654,1.654,0,0,1,1.716,1.872V-.408a.461.461,0,0,0,.468.468.459.459,0,0,0,.456-.468V-3.852a2.266,2.266,0,0,0-2.376-2.484A2.349,2.349,0,0,0,26.64-5.124V-8.352a.469.469,0,0,0-.468-.468.466.466,0,0,0-.456.468Zm9.3.54A2.719,2.719,0,0,0,37.26-.936v.564A.426.426,0,0,0,37.7.06.439.439,0,0,0,38.148-.4v-3.4A2.449,2.449,0,0,0,37.512-5.6a2.722,2.722,0,0,0-2-.684,4.892,4.892,0,0,0-2.028.42.423.423,0,0,0-.252.384.41.41,0,0,0,.408.4.471.471,0,0,0,.168-.036,3.873,3.873,0,0,1,1.608-.348c1.164,0,1.848.576,1.848,1.692v.216a6.587,6.587,0,0,0-1.908-.264c-1.572,0-2.652.7-2.652,2V-1.8A2.089,2.089,0,0,0,35.016.132ZM35.2-.6c-.84,0-1.56-.456-1.56-1.236V-1.86c0-.78.648-1.284,1.812-1.284a6.472,6.472,0,0,1,1.824.264v.6A1.876,1.876,0,0,1,35.2-.6Zm7.764.3L45.3-5.58a.64.64,0,0,0,.048-.228.456.456,0,0,0-.456-.456.442.442,0,0,0-.432.336L42.42-1.056l-2-4.848a.469.469,0,0,0-.468-.36.466.466,0,0,0-.468.456.962.962,0,0,0,.06.252L41.868-.3A.573.573,0,0,0,42.4.1h.048A.559.559,0,0,0,42.96-.3Zm4.3-3.144a2.139,2.139,0,0,1,2.016-2.112,2.043,2.043,0,0,1,1.98,2.112Zm4.5,2.652a.4.4,0,0,0,.144-.3.4.4,0,0,0-.408-.4.4.4,0,0,0-.264.108,2.536,2.536,0,0,1-1.788.72,2.167,2.167,0,0,1-2.184-2.1h4.488a.43.43,0,0,0,.432-.432A2.921,2.921,0,0,0,49.3-6.336,3.06,3.06,0,0,0,46.32-3.108v.024a3.084,3.084,0,0,0,3.1,3.228A3.154,3.154,0,0,0,51.756-.792ZM59.58.12a1.954,1.954,0,0,0,2.208-1.86v-.024c0-1.116-1.032-1.488-1.992-1.776-.828-.252-1.6-.48-1.6-1.068v-.024c0-.516.468-.9,1.2-.9a3.358,3.358,0,0,1,1.62.48.464.464,0,0,0,.2.048.4.4,0,0,0,.408-.4.449.449,0,0,0-.228-.384,4.322,4.322,0,0,0-1.98-.528,1.877,1.877,0,0,0-2.112,1.776v.024c0,1.14,1.08,1.476,2.052,1.752.816.228,1.548.468,1.548,1.092v.024c0,.6-.54.984-1.284.984a3.486,3.486,0,0,1-1.968-.66.369.369,0,0,0-.228-.072.4.4,0,0,0-.408.4.417.417,0,0,0,.168.336A4.293,4.293,0,0,0,59.58.12Zm6.78.024a3.122,3.122,0,0,0,2.34-1,.419.419,0,0,0,.12-.288.433.433,0,0,0-.42-.42.366.366,0,0,0-.264.12,2.479,2.479,0,0,1-1.728.756A2.318,2.318,0,0,1,64.128-3.1V-3.12a2.289,2.289,0,0,1,2.22-2.4,2.393,2.393,0,0,1,1.692.744.478.478,0,0,0,.3.108.443.443,0,0,0,.444-.444.434.434,0,0,0-.144-.324,3.208,3.208,0,0,0-2.28-.9A3.2,3.2,0,0,0,63.18-3.1v.024A3.185,3.185,0,0,0,66.36.144ZM72.324.132A2.719,2.719,0,0,0,74.568-.936v.564a.426.426,0,0,0,.444.432A.439.439,0,0,0,75.456-.4v-3.4A2.449,2.449,0,0,0,74.82-5.6a2.722,2.722,0,0,0-2-.684,4.892,4.892,0,0,0-2.028.42.423.423,0,0,0-.252.384.41.41,0,0,0,.408.4.471.471,0,0,0,.168-.036,3.873,3.873,0,0,1,1.608-.348c1.164,0,1.848.576,1.848,1.692v.216a6.587,6.587,0,0,0-1.908-.264c-1.572,0-2.652.7-2.652,2V-1.8A2.089,2.089,0,0,0,72.324.132ZM72.5-.6c-.84,0-1.56-.456-1.56-1.236V-1.86c0-.78.648-1.284,1.812-1.284a6.472,6.472,0,0,1,1.824.264v.6A1.876,1.876,0,0,1,72.5-.6Zm4.98.192a.461.461,0,0,0,.468.468.451.451,0,0,0,.456-.468V-3.552A1.825,1.825,0,0,1,80.268-5.5a1.654,1.654,0,0,1,1.716,1.872V-.408a.461.461,0,0,0,.468.468.459.459,0,0,0,.456-.468V-3.852a2.266,2.266,0,0,0-2.376-2.484,2.349,2.349,0,0,0-2.124,1.212V-5.8a.461.461,0,0,0-.468-.468.466.466,0,0,0-.456.468Zm8-3.036A2.139,2.139,0,0,1,87.5-5.556a2.043,2.043,0,0,1,1.98,2.112Zm4.5,2.652a.4.4,0,0,0,.144-.3.4.4,0,0,0-.408-.4.4.4,0,0,0-.264.108,2.536,2.536,0,0,1-1.788.72,2.167,2.167,0,0,1-2.184-2.1h4.488a.43.43,0,0,0,.432-.432,2.921,2.921,0,0,0-2.88-3.144,3.06,3.06,0,0,0-2.976,3.228v.024a3.084,3.084,0,0,0,3.1,3.228A3.154,3.154,0,0,0,89.988-.792ZM98-8.352a.461.461,0,0,0-.468-.468.451.451,0,0,0-.456.468v3.336A2.8,2.8,0,0,0,94.7-6.336,3.044,3.044,0,0,0,91.74-3.108v.024A3.026,3.026,0,0,0,94.7.132a2.789,2.789,0,0,0,2.376-1.38v.84a.461.461,0,0,0,.468.468A.459.459,0,0,0,98-.408ZM94.872-5.508A2.306,2.306,0,0,1,97.116-3.12V-3.1A2.317,2.317,0,0,1,94.872-.7a2.241,2.241,0,0,1-2.184-2.4V-3.12A2.189,2.189,0,0,1,94.872-5.508Z" transform="matrix(1, 0, 0, 1, 38, 486)" fill="#6d7278"/>
    <path id="Path_4918" data-name="Path 4918" d="M3.732.144A2.69,2.69,0,0,0,6.672-2.52v-.024c0-1.548-1.2-2.2-2.472-2.352L6.18-6.948a1.074,1.074,0,0,0,.42-.8A.661.661,0,0,0,5.868-8.4h-4.3a.645.645,0,0,0-.648.648.643.643,0,0,0,.648.636H4.62l-1.968,2.1a.838.838,0,0,0-.312.6.64.64,0,0,0,.636.636h.3c1.176,0,1.932.468,1.932,1.3v.024A1.315,1.315,0,0,1,3.756-1.188a2.554,2.554,0,0,1-1.908-.8.708.708,0,0,0-.492-.192.717.717,0,0,0-.708.708.709.709,0,0,0,.24.528A3.937,3.937,0,0,0,3.732.144Zm3.624.9a.572.572,0,0,0,.576.552.547.547,0,0,0,.516-.336L13.368-8.8a.936.936,0,0,0,.06-.288.561.561,0,0,0-.564-.552.563.563,0,0,0-.528.336L7.428.756A.678.678,0,0,0,7.356,1.044Zm9.768-.9A2.824,2.824,0,0,0,20.2-2.7v-.024c0-1.776-1.284-2.64-2.928-2.64a3.571,3.571,0,0,0-1.332.24l.132-1.968h3.156a.656.656,0,0,0,.66-.648.666.666,0,0,0-.66-.66h-3.8a.676.676,0,0,0-.672.66l-.18,3.024a.7.7,0,0,0,.288.648,1.154,1.154,0,0,0,.7.288,5.719,5.719,0,0,1,1.44-.288c1.02,0,1.74.528,1.74,1.392v.024A1.471,1.471,0,0,1,17.1-1.2a2.819,2.819,0,0,1-1.824-.708.648.648,0,0,0-.432-.144.717.717,0,0,0-.708.708.727.727,0,0,0,.3.576A4.257,4.257,0,0,0,17.124.144Zm8.532-.552a.461.461,0,0,0,.468.468.451.451,0,0,0,.456-.468V-3.552A1.825,1.825,0,0,1,28.44-5.5a1.654,1.654,0,0,1,1.716,1.872V-.408a.461.461,0,0,0,.468.468.459.459,0,0,0,.456-.468V-3.852A2.266,2.266,0,0,0,28.7-6.336,2.349,2.349,0,0,0,26.58-5.124V-8.352a.469.469,0,0,0-.468-.468.466.466,0,0,0-.456.468Zm9.3.54A2.719,2.719,0,0,0,37.2-.936v.564a.426.426,0,0,0,.444.432A.439.439,0,0,0,38.088-.4v-3.4A2.449,2.449,0,0,0,37.452-5.6a2.722,2.722,0,0,0-2-.684,4.892,4.892,0,0,0-2.028.42.423.423,0,0,0-.252.384.41.41,0,0,0,.408.4.471.471,0,0,0,.168-.036,3.873,3.873,0,0,1,1.608-.348c1.164,0,1.848.576,1.848,1.692v.216a6.587,6.587,0,0,0-1.908-.264c-1.572,0-2.652.7-2.652,2V-1.8A2.089,2.089,0,0,0,34.956.132Zm.18-.732c-.84,0-1.56-.456-1.56-1.236V-1.86c0-.78.648-1.284,1.812-1.284a6.472,6.472,0,0,1,1.824.264v.6A1.876,1.876,0,0,1,35.136-.6ZM42.9-.3l2.34-5.28a.64.64,0,0,0,.048-.228.456.456,0,0,0-.456-.456.442.442,0,0,0-.432.336L42.36-1.056l-2-4.848a.469.469,0,0,0-.468-.36.466.466,0,0,0-.468.456.962.962,0,0,0,.06.252L41.808-.3a.573.573,0,0,0,.528.4h.048A.559.559,0,0,0,42.9-.3Zm4.3-3.144a2.139,2.139,0,0,1,2.016-2.112,2.043,2.043,0,0,1,1.98,2.112ZM51.7-.792a.4.4,0,0,0,.144-.3.4.4,0,0,0-.408-.4.4.4,0,0,0-.264.108,2.536,2.536,0,0,1-1.788.72A2.167,2.167,0,0,1,47.2-2.76h4.488a.43.43,0,0,0,.432-.432,2.921,2.921,0,0,0-2.88-3.144A3.06,3.06,0,0,0,46.26-3.108v.024a3.084,3.084,0,0,0,3.1,3.228A3.154,3.154,0,0,0,51.7-.792ZM59.52.12a1.954,1.954,0,0,0,2.208-1.86v-.024c0-1.116-1.032-1.488-1.992-1.776-.828-.252-1.6-.48-1.6-1.068v-.024c0-.516.468-.9,1.2-.9a3.358,3.358,0,0,1,1.62.48.464.464,0,0,0,.2.048.4.4,0,0,0,.408-.4.449.449,0,0,0-.228-.384,4.322,4.322,0,0,0-1.98-.528,1.877,1.877,0,0,0-2.112,1.776v.024c0,1.14,1.08,1.476,2.052,1.752.816.228,1.548.468,1.548,1.092v.024c0,.6-.54.984-1.284.984A3.486,3.486,0,0,1,57.6-1.32a.369.369,0,0,0-.228-.072.4.4,0,0,0-.408.4.417.417,0,0,0,.168.336A4.293,4.293,0,0,0,59.52.12ZM66.3.144a3.122,3.122,0,0,0,2.34-1,.419.419,0,0,0,.12-.288.433.433,0,0,0-.42-.42.366.366,0,0,0-.264.12,2.479,2.479,0,0,1-1.728.756A2.318,2.318,0,0,1,64.068-3.1V-3.12a2.289,2.289,0,0,1,2.22-2.4,2.393,2.393,0,0,1,1.692.744.478.478,0,0,0,.3.108.443.443,0,0,0,.444-.444.434.434,0,0,0-.144-.324,3.208,3.208,0,0,0-2.28-.9A3.2,3.2,0,0,0,63.12-3.1v.024A3.185,3.185,0,0,0,66.3.144ZM72.264.132A2.719,2.719,0,0,0,74.508-.936v.564a.426.426,0,0,0,.444.432A.439.439,0,0,0,75.4-.4v-3.4A2.449,2.449,0,0,0,74.76-5.6a2.722,2.722,0,0,0-2-.684,4.892,4.892,0,0,0-2.028.42.423.423,0,0,0-.252.384.41.41,0,0,0,.408.4.471.471,0,0,0,.168-.036,3.873,3.873,0,0,1,1.608-.348c1.164,0,1.848.576,1.848,1.692v.216A6.587,6.587,0,0,0,72.6-3.828c-1.572,0-2.652.7-2.652,2V-1.8A2.089,2.089,0,0,0,72.264.132Zm.18-.732c-.84,0-1.56-.456-1.56-1.236V-1.86c0-.78.648-1.284,1.812-1.284a6.472,6.472,0,0,1,1.824.264v.6A1.876,1.876,0,0,1,72.444-.6Zm4.98.192a.461.461,0,0,0,.468.468.451.451,0,0,0,.456-.468V-3.552A1.825,1.825,0,0,1,80.208-5.5a1.654,1.654,0,0,1,1.716,1.872V-.408a.461.461,0,0,0,.468.468.459.459,0,0,0,.456-.468V-3.852a2.266,2.266,0,0,0-2.376-2.484,2.349,2.349,0,0,0-2.124,1.212V-5.8a.461.461,0,0,0-.468-.468.466.466,0,0,0-.456.468Zm8-3.036a2.139,2.139,0,0,1,2.016-2.112,2.043,2.043,0,0,1,1.98,2.112Zm4.5,2.652a.4.4,0,0,0,.144-.3.4.4,0,0,0-.408-.4.4.4,0,0,0-.264.108,2.536,2.536,0,0,1-1.788.72,2.167,2.167,0,0,1-2.184-2.1h4.488a.43.43,0,0,0,.432-.432,2.921,2.921,0,0,0-2.88-3.144,3.06,3.06,0,0,0-2.976,3.228v.024a3.084,3.084,0,0,0,3.1,3.228A3.154,3.154,0,0,0,89.928-.792Zm8.016-7.56a.461.461,0,0,0-.468-.468.451.451,0,0,0-.456.468v3.336a2.8,2.8,0,0,0-2.376-1.32A3.044,3.044,0,0,0,91.68-3.108v.024A3.026,3.026,0,0,0,94.644.132a2.789,2.789,0,0,0,2.376-1.38v.84a.461.461,0,0,0,.468.468.459.459,0,0,0,.456-.468ZM94.812-5.508A2.306,2.306,0,0,1,97.056-3.12V-3.1A2.317,2.317,0,0,1,94.812-.7a2.241,2.241,0,0,1-2.184-2.4V-3.12A2.189,2.189,0,0,1,94.812-5.508Z" transform="matrix(1, 0, 0, 1, 37, 363)" fill="#6d7278"/>
    <path id="Path_4914" data-name="Path 4914" d="M3.7.144A2.824,2.824,0,0,0,6.768-2.7v-.024c0-1.776-1.284-2.64-2.928-2.64a3.571,3.571,0,0,0-1.332.24L2.64-7.092H5.8a.656.656,0,0,0,.66-.648A.666.666,0,0,0,5.8-8.4h-3.8a.676.676,0,0,0-.672.66L1.14-4.716a.7.7,0,0,0,.288.648,1.154,1.154,0,0,0,.7.288,5.719,5.719,0,0,1,1.44-.288c1.02,0,1.74.528,1.74,1.392v.024A1.471,1.471,0,0,1,3.672-1.2a2.819,2.819,0,0,1-1.824-.708.648.648,0,0,0-.432-.144.717.717,0,0,0-.708.708.727.727,0,0,0,.3.576A4.257,4.257,0,0,0,3.7.144Zm3.6.9a.572.572,0,0,0,.576.552.547.547,0,0,0,.516-.336L13.308-8.8a.936.936,0,0,0,.06-.288.561.561,0,0,0-.564-.552.563.563,0,0,0-.528.336L7.368.756A.678.678,0,0,0,7.3,1.044Zm9.768-.9A2.824,2.824,0,0,0,20.136-2.7v-.024c0-1.776-1.284-2.64-2.928-2.64a3.571,3.571,0,0,0-1.332.24l.132-1.968h3.156a.656.656,0,0,0,.66-.648.666.666,0,0,0-.66-.66h-3.8a.676.676,0,0,0-.672.66l-.18,3.024a.7.7,0,0,0,.288.648,1.154,1.154,0,0,0,.7.288,5.719,5.719,0,0,1,1.44-.288c1.02,0,1.74.528,1.74,1.392v.024A1.471,1.471,0,0,1,17.04-1.2a2.819,2.819,0,0,1-1.824-.708.648.648,0,0,0-.432-.144.717.717,0,0,0-.708.708.727.727,0,0,0,.3.576A4.257,4.257,0,0,0,17.064.144ZM26.5,1.956c.936,0,1.536-.468,2.076-1.752L31-5.58a.775.775,0,0,0,.048-.228.456.456,0,0,0-.456-.456.464.464,0,0,0-.444.348l-1.92,4.884L26.064-5.9a.489.489,0,0,0-.468-.36.459.459,0,0,0-.468.456.645.645,0,0,0,.06.252L27.78-.06l-.048.1c-.336.756-.672,1.1-1.248,1.1a1.907,1.907,0,0,1-.672-.108.7.7,0,0,0-.228-.048.4.4,0,0,0-.4.4.422.422,0,0,0,.288.4A2.921,2.921,0,0,0,26.5,1.956ZM35.22.144A3.221,3.221,0,0,0,38.472-3.1V-3.12a3.188,3.188,0,0,0-3.228-3.216A3.211,3.211,0,0,0,32-3.1v.024A3.178,3.178,0,0,0,35.22.144Zm.024-.828A2.327,2.327,0,0,1,32.952-3.1V-3.12a2.29,2.29,0,0,1,2.268-2.4,2.348,2.348,0,0,1,2.3,2.424v.024A2.289,2.289,0,0,1,35.244-.684ZM45.516-5.8a.459.459,0,0,0-.456-.468A.451.451,0,0,0,44.6-5.8v3.144a1.832,1.832,0,0,1-1.86,1.944A1.654,1.654,0,0,1,41.028-2.58V-5.8a.469.469,0,0,0-.468-.468A.451.451,0,0,0,40.1-5.8v3.444A2.266,2.266,0,0,0,42.48.132,2.363,2.363,0,0,0,44.6-1.08v.672A.459.459,0,0,0,45.06.06a.458.458,0,0,0,.456-.468Zm5.8,5.388A.461.461,0,0,0,51.78.06a.451.451,0,0,0,.456-.468V-3.552A1.825,1.825,0,0,1,54.1-5.5a1.654,1.654,0,0,1,1.716,1.872V-.408A.461.461,0,0,0,56.28.06a.459.459,0,0,0,.456-.468V-3.852A2.266,2.266,0,0,0,54.36-6.336a2.349,2.349,0,0,0-2.124,1.212V-8.352a.469.469,0,0,0-.468-.468.466.466,0,0,0-.456.468Zm9.3.54A2.719,2.719,0,0,0,62.856-.936v.564A.426.426,0,0,0,63.3.06.439.439,0,0,0,63.744-.4v-3.4A2.449,2.449,0,0,0,63.108-5.6a2.722,2.722,0,0,0-2-.684,4.892,4.892,0,0,0-2.028.42.423.423,0,0,0-.252.384.41.41,0,0,0,.408.4.471.471,0,0,0,.168-.036,3.873,3.873,0,0,1,1.608-.348c1.164,0,1.848.576,1.848,1.692v.216a6.587,6.587,0,0,0-1.908-.264c-1.572,0-2.652.7-2.652,2V-1.8A2.089,2.089,0,0,0,60.612.132Zm.18-.732c-.84,0-1.56-.456-1.56-1.236V-1.86c0-.78.648-1.284,1.812-1.284a6.472,6.472,0,0,1,1.824.264v.6A1.876,1.876,0,0,1,60.792-.6Zm7.764.3L70.9-5.58a.64.64,0,0,0,.048-.228.456.456,0,0,0-.456-.456.442.442,0,0,0-.432.336l-2.04,4.872-2-4.848a.469.469,0,0,0-.468-.36.466.466,0,0,0-.468.456.962.962,0,0,0,.06.252L67.464-.3a.573.573,0,0,0,.528.4h.048A.559.559,0,0,0,68.556-.3Zm4.3-3.144a2.139,2.139,0,0,1,2.016-2.112,2.043,2.043,0,0,1,1.98,2.112Zm4.5,2.652a.4.4,0,0,0,.144-.3.4.4,0,0,0-.408-.4.4.4,0,0,0-.264.108,2.536,2.536,0,0,1-1.788.72,2.167,2.167,0,0,1-2.184-2.1H77.34a.43.43,0,0,0,.432-.432,2.921,2.921,0,0,0-2.88-3.144,3.06,3.06,0,0,0-2.976,3.228v.024a3.084,3.084,0,0,0,3.1,3.228A3.154,3.154,0,0,0,77.352-.792ZM85.176.12a1.954,1.954,0,0,0,2.208-1.86v-.024c0-1.116-1.032-1.488-1.992-1.776-.828-.252-1.6-.48-1.6-1.068v-.024c0-.516.468-.9,1.2-.9a3.358,3.358,0,0,1,1.62.48.464.464,0,0,0,.2.048.4.4,0,0,0,.408-.4A.449.449,0,0,0,87-5.784a4.322,4.322,0,0,0-1.98-.528,1.877,1.877,0,0,0-2.112,1.776v.024c0,1.14,1.08,1.476,2.052,1.752.816.228,1.548.468,1.548,1.092v.024c0,.6-.54.984-1.284.984a3.486,3.486,0,0,1-1.968-.66.369.369,0,0,0-.228-.072.4.4,0,0,0-.408.4.417.417,0,0,0,.168.336A4.293,4.293,0,0,0,85.176.12Zm6.78.024a3.122,3.122,0,0,0,2.34-1,.419.419,0,0,0,.12-.288A.433.433,0,0,0,94-1.56a.366.366,0,0,0-.264.12A2.479,2.479,0,0,1,92-.684,2.318,2.318,0,0,1,89.724-3.1V-3.12a2.289,2.289,0,0,1,2.22-2.4,2.393,2.393,0,0,1,1.692.744.478.478,0,0,0,.3.108.443.443,0,0,0,.444-.444.434.434,0,0,0-.144-.324,3.208,3.208,0,0,0-2.28-.9,3.2,3.2,0,0,0-3.18,3.24v.024A3.185,3.185,0,0,0,91.956.144ZM97.92.132a2.719,2.719,0,0,0,2.244-1.068v.564a.426.426,0,0,0,.444.432.439.439,0,0,0,.444-.456v-3.4a2.449,2.449,0,0,0-.636-1.812,2.722,2.722,0,0,0-2-.684,4.892,4.892,0,0,0-2.028.42.423.423,0,0,0-.252.384.41.41,0,0,0,.408.4.471.471,0,0,0,.168-.036,3.873,3.873,0,0,1,1.608-.348c1.164,0,1.848.576,1.848,1.692v.216a6.587,6.587,0,0,0-1.908-.264c-1.572,0-2.652.7-2.652,2V-1.8A2.089,2.089,0,0,0,97.92.132ZM98.1-.6c-.84,0-1.56-.456-1.56-1.236V-1.86c0-.78.648-1.284,1.812-1.284a6.472,6.472,0,0,1,1.824.264v.6A1.876,1.876,0,0,1,98.1-.6Zm4.98.192a.461.461,0,0,0,.468.468A.451.451,0,0,0,104-.408V-3.552a1.825,1.825,0,0,1,1.86-1.944,1.654,1.654,0,0,1,1.716,1.872V-.408a.461.461,0,0,0,.468.468.459.459,0,0,0,.456-.468V-3.852a2.266,2.266,0,0,0-2.376-2.484A2.349,2.349,0,0,0,104-5.124V-5.8a.461.461,0,0,0-.468-.468.466.466,0,0,0-.456.468Zm8-3.036A2.139,2.139,0,0,1,113.1-5.556a2.043,2.043,0,0,1,1.98,2.112Zm4.5,2.652a.4.4,0,0,0,.144-.3.4.4,0,0,0-.408-.4.4.4,0,0,0-.264.108,2.536,2.536,0,0,1-1.788.72,2.167,2.167,0,0,1-2.184-2.1h4.488A.43.43,0,0,0,116-3.192a2.921,2.921,0,0,0-2.88-3.144,3.06,3.06,0,0,0-2.976,3.228v.024a3.084,3.084,0,0,0,3.1,3.228A3.154,3.154,0,0,0,115.584-.792Zm8.016-7.56a.461.461,0,0,0-.468-.468.451.451,0,0,0-.456.468v3.336a2.8,2.8,0,0,0-2.376-1.32,3.044,3.044,0,0,0-2.964,3.228v.024A3.026,3.026,0,0,0,120.3.132a2.789,2.789,0,0,0,2.376-1.38v.84a.461.461,0,0,0,.468.468.459.459,0,0,0,.456-.468Zm-3.132,2.844a2.306,2.306,0,0,1,2.244,2.388V-3.1a2.317,2.317,0,0,1-2.244,2.4,2.241,2.241,0,0,1-2.184-2.4V-3.12A2.189,2.189,0,0,1,120.468-5.508Z" transform="matrix(1, 0, 0, 1, 37, 236)" fill="#6d7278"/>
    <path id="Path_4919" data-name="Path 4919" d="M1.932,1.956c.936,0,1.536-.468,2.076-1.752L6.432-5.58a.775.775,0,0,0,.048-.228.456.456,0,0,0-.456-.456.464.464,0,0,0-.444.348L3.66-1.032,1.5-5.9a.489.489,0,0,0-.468-.36.459.459,0,0,0-.468.456.645.645,0,0,0,.06.252L3.216-.06l-.048.1C2.832.792,2.5,1.14,1.92,1.14a1.907,1.907,0,0,1-.672-.108A.7.7,0,0,0,1.02.984a.4.4,0,0,0-.4.4.422.422,0,0,0,.288.4A2.921,2.921,0,0,0,1.932,1.956ZM9.732.132A2.719,2.719,0,0,0,11.976-.936v.564A.426.426,0,0,0,12.42.06.439.439,0,0,0,12.864-.4v-3.4A2.449,2.449,0,0,0,12.228-5.6a2.722,2.722,0,0,0-2-.684,4.892,4.892,0,0,0-2.028.42.423.423,0,0,0-.252.384.41.41,0,0,0,.408.4.471.471,0,0,0,.168-.036,3.873,3.873,0,0,1,1.608-.348c1.164,0,1.848.576,1.848,1.692v.216a6.587,6.587,0,0,0-1.908-.264c-1.572,0-2.652.7-2.652,2V-1.8A2.089,2.089,0,0,0,9.732.132ZM9.912-.6c-.84,0-1.56-.456-1.56-1.236V-1.86c0-.78.648-1.284,1.812-1.284a6.472,6.472,0,0,1,1.824.264v.6A1.876,1.876,0,0,1,9.912-.6Zm5.676,2.556c.936,0,1.536-.468,2.076-1.752L20.088-5.58a.775.775,0,0,0,.048-.228.456.456,0,0,0-.456-.456.464.464,0,0,0-.444.348l-1.92,4.884L15.156-5.9a.489.489,0,0,0-.468-.36.459.459,0,0,0-.468.456.645.645,0,0,0,.06.252l2.592,5.5-.048.1c-.336.756-.672,1.1-1.248,1.1a1.907,1.907,0,0,1-.672-.108.7.7,0,0,0-.228-.048.4.4,0,0,0-.4.4.422.422,0,0,0,.288.4A2.921,2.921,0,0,0,15.588,1.956ZM22.1-2.6a.29.29,0,0,0,.288.276.287.287,0,0,0,.276-.276l.276-5.448a.344.344,0,0,0-.348-.384h-.42a.351.351,0,0,0-.348.384ZM21.816-.756v.24a.561.561,0,0,0,.576.576.559.559,0,0,0,.564-.576v-.24a.549.549,0,0,0-.564-.564A.552.552,0,0,0,21.816-.756Zm9.744.9a3.122,3.122,0,0,0,2.34-1,.419.419,0,0,0,.12-.288.433.433,0,0,0-.42-.42.366.366,0,0,0-.264.12,2.479,2.479,0,0,1-1.728.756A2.318,2.318,0,0,1,29.328-3.1V-3.12a2.289,2.289,0,0,1,2.22-2.4,2.393,2.393,0,0,1,1.692.744.478.478,0,0,0,.3.108.443.443,0,0,0,.444-.444.434.434,0,0,0-.144-.324,3.208,3.208,0,0,0-2.28-.9A3.2,3.2,0,0,0,28.38-3.1v.024A3.185,3.185,0,0,0,31.56.144Zm6.768,0A3.221,3.221,0,0,0,41.58-3.1V-3.12a3.188,3.188,0,0,0-3.228-3.216,3.211,3.211,0,0,0-3.24,3.24v.024A3.178,3.178,0,0,0,38.328.144Zm.024-.828A2.327,2.327,0,0,1,36.06-3.1V-3.12a2.29,2.29,0,0,1,2.268-2.4,2.348,2.348,0,0,1,2.3,2.424v.024A2.289,2.289,0,0,1,38.352-.684Zm4.956.276a.461.461,0,0,0,.468.468.451.451,0,0,0,.456-.468V-3.54A1.8,1.8,0,0,1,45.96-5.5c.984,0,1.6.684,1.6,1.848v3.24a.459.459,0,0,0,.456.468.461.461,0,0,0,.468-.468V-3.576a1.729,1.729,0,0,1,1.7-1.92c1.008,0,1.608.672,1.608,1.872V-.408A.461.461,0,0,0,52.26.06a.459.459,0,0,0,.456-.468V-3.84a2.23,2.23,0,0,0-2.3-2.5A2.473,2.473,0,0,0,48.228-5.1a2.108,2.108,0,0,0-1.992-1.236,2.266,2.266,0,0,0-2,1.176V-5.8a.461.461,0,0,0-.468-.468.466.466,0,0,0-.456.468ZM54.78,1.512a.461.461,0,0,0,.468.468.451.451,0,0,0,.456-.468v-2.7A2.8,2.8,0,0,0,58.08.132,3.037,3.037,0,0,0,61.044-3.1V-3.12A3.026,3.026,0,0,0,58.08-6.336,2.789,2.789,0,0,0,55.7-4.956V-5.8a.461.461,0,0,0-.468-.468.459.459,0,0,0-.456.468ZM57.912-.7a2.309,2.309,0,0,1-2.244-2.4V-3.12a2.313,2.313,0,0,1,2.244-2.388,2.234,2.234,0,0,1,2.184,2.4v.024A2.189,2.189,0,0,1,57.912-.7Zm4.98.288A.461.461,0,0,0,63.36.06a.451.451,0,0,0,.456-.468V-8.352a.469.469,0,0,0-.468-.468.466.466,0,0,0-.456.468Zm3.684-3.036a2.139,2.139,0,0,1,2.016-2.112,2.043,2.043,0,0,1,1.98,2.112Zm4.5,2.652a.4.4,0,0,0,.144-.3.4.4,0,0,0-.408-.4.4.4,0,0,0-.264.108,2.536,2.536,0,0,1-1.788.72,2.167,2.167,0,0,1-2.184-2.1h4.488a.43.43,0,0,0,.432-.432,2.921,2.921,0,0,0-2.88-3.144A3.06,3.06,0,0,0,65.64-3.108v.024a3.084,3.084,0,0,0,3.1,3.228A3.154,3.154,0,0,0,71.076-.792Zm4.188.9a2.334,2.334,0,0,0,.912-.168.386.386,0,0,0,.264-.36.4.4,0,0,0-.4-.4,2.614,2.614,0,0,1-.564.084.918.918,0,0,1-1.044-1.032V-5.388h1.608a.415.415,0,0,0,.42-.408.423.423,0,0,0-.42-.408H74.436V-7.668a.477.477,0,0,0-.468-.468.458.458,0,0,0-.456.468V-6.2h-.5A.412.412,0,0,0,72.6-5.8a.421.421,0,0,0,.408.408h.5v3.744A1.579,1.579,0,0,0,75.264.108Zm3.2-3.552a2.139,2.139,0,0,1,2.016-2.112,2.043,2.043,0,0,1,1.98,2.112Zm4.5,2.652a.4.4,0,0,0,.144-.3.4.4,0,0,0-.408-.4.4.4,0,0,0-.264.108,2.536,2.536,0,0,1-1.788.72,2.167,2.167,0,0,1-2.184-2.1h4.488a.43.43,0,0,0,.432-.432,2.921,2.921,0,0,0-2.88-3.144,3.06,3.06,0,0,0-2.976,3.228v.024a3.084,3.084,0,0,0,3.1,3.228A3.154,3.154,0,0,0,82.968-.792Zm8.016-7.56a.461.461,0,0,0-.468-.468.451.451,0,0,0-.456.468v3.336a2.8,2.8,0,0,0-2.376-1.32A3.044,3.044,0,0,0,84.72-3.108v.024A3.026,3.026,0,0,0,87.684.132a2.789,2.789,0,0,0,2.376-1.38v.84a.461.461,0,0,0,.468.468.459.459,0,0,0,.456-.468ZM87.852-5.508A2.306,2.306,0,0,1,90.1-3.12V-3.1A2.317,2.317,0,0,1,87.852-.7a2.241,2.241,0,0,1-2.184-2.4V-3.12A2.189,2.189,0,0,1,87.852-5.508Z" transform="matrix(1, 0, 0, 1, 188, 236)" fill="#6d7278"/>
    <g id="Path_4915" data-name="Path 4915" transform="translate(170 229)" fill="#3f62ac">
      <path d="M 3.5 6.5 C 1.845790028572083 6.5 0.5 5.154210090637207 0.5 3.5 C 0.5 1.845790028572083 1.845790028572083 0.5 3.5 0.5 C 5.154210090637207 0.5 6.5 1.845790028572083 6.5 3.5 C 6.5 5.154210090637207 5.154210090637207 6.5 3.5 6.5 Z" stroke="none"/>
      <path d="M 3.5 1 C 2.121500015258789 1 1 2.121500015258789 1 3.5 C 1 4.878499984741211 2.121500015258789 6 3.5 6 C 4.878499984741211 6 6 4.878499984741211 6 3.5 C 6 2.121500015258789 4.878499984741211 1 3.5 1 M 3.5 0 C 5.433000087738037 0 7 1.566999912261963 7 3.5 C 7 5.433000087738037 5.433000087738037 7 3.5 7 C 1.566999912261963 7 0 5.433000087738037 0 3.5 C 0 1.566999912261963 1.566999912261963 0 3.5 0 Z" stroke="none" fill="#3f62ac"/>
    </g>
    <path id="Path_4926" data-name="Path 4926" d="M2.534,0A2.534,2.534,0,1,1,0,2.534,2.534,2.534,0,0,1,2.534,0Z" transform="translate(26.467 458)" fill="#3f62ac"/>
    <path id="Path_4126" data-name="Path 4126" d="M68.1,298.667a4.1,4.1,0,0,0-4.1,4.1.455.455,0,0,0,.455.455h7.286a.455.455,0,0,0,.455-.455A4.1,4.1,0,0,0,68.1,298.667Z" transform="translate(-39.098 165.492)" fill="#3f62ac"/>
    <path id="Path_4920" data-name="Path 4920" d="M2.534,0A2.534,2.534,0,1,1,0,2.534,2.534,2.534,0,0,1,2.534,0Z" transform="translate(25.467 335)" fill="#3f62ac"/>
    <path id="Path_4126-2" data-name="Path 4126" d="M68.1,298.667a4.1,4.1,0,0,0-4.1,4.1.455.455,0,0,0,.455.455h7.286a.455.455,0,0,0,.455-.455A4.1,4.1,0,0,0,68.1,298.667Z" transform="translate(-40.098 42.492)" fill="#3f62ac"/>
    <path id="Path_4916" data-name="Path 4916" d="M2.534,0A2.534,2.534,0,1,1,0,2.534,2.534,2.534,0,0,1,2.534,0Z" transform="translate(25.467 208)" fill="#3f62ac"/>
    <path id="Path_4126-3" data-name="Path 4126" d="M68.1,298.667a4.1,4.1,0,0,0-4.1,4.1.455.455,0,0,0,.455.455h7.286a.455.455,0,0,0,.455-.455A4.1,4.1,0,0,0,68.1,298.667Z" transform="translate(-40.098 -84.508)" fill="#3f62ac"/>
    <g transform="matrix(1, 0, 0, 1, 0, 0)" filter="url(#Rectangle-7)">
      <path id="Rectangle-14" data-name="Rectangle" d="M12,0H363a12,12,0,0,1,12,12V70H0V12A12,12,0,0,1,12,0Z" transform="translate(0 768)" fill="#fff"/>
    </g>
    <path id="Path_4509" data-name="Path 4509" d="M8.088,0H1.53A1.532,1.532,0,0,0,0,1.53V5.465A1.532,1.532,0,0,0,1.53,7H8.088a1.532,1.532,0,0,0,1.53-1.53V1.53A1.532,1.532,0,0,0,8.088,0Zm0,0" transform="translate(40 785)" fill="#67797f"/>
    <path id="Path_4510" data-name="Path 4510" d="M8.088,213.332H1.53A1.532,1.532,0,0,0,0,214.862v9.181a1.532,1.532,0,0,0,1.53,1.53H8.088a1.532,1.532,0,0,0,1.53-1.53v-9.181A1.532,1.532,0,0,0,8.088,213.332Zm0,0" transform="translate(40 580.412)" fill="#67797f"/>
    <path id="Path_4511" data-name="Path 4511" d="M285.42,341.332h-6.558a1.532,1.532,0,0,0-1.53,1.53V346.8a1.532,1.532,0,0,0,1.53,1.53h6.558a1.532,1.532,0,0,0,1.53-1.53v-3.935A1.532,1.532,0,0,0,285.42,341.332Zm0,0" transform="translate(-225.965 457.659)" fill="#67797f"/>
    <path id="Path_4512" data-name="Path 4512" d="M285.42,0h-6.558a1.532,1.532,0,0,0-1.53,1.53v9.181a1.532,1.532,0,0,0,1.53,1.53h6.558a1.532,1.532,0,0,0,1.53-1.53V1.53A1.532,1.532,0,0,0,285.42,0Zm0,0" transform="translate(-225.965 785)" fill="#67797f"/>
    <path id="Path_4927" data-name="Path 4927" d="M3.015.09c1.323,0,2.25-.7,2.25-1.881v-.018c0-1.044-.684-1.521-2.016-1.845-1.215-.288-1.5-.5-1.5-.99v-.018c0-.414.378-.747,1.026-.747a2.62,2.62,0,0,1,1.449.477.535.535,0,0,0,.288.081.515.515,0,0,0,.522-.513A.5.5,0,0,0,4.788-5.8a3.466,3.466,0,0,0-2-.585A1.927,1.927,0,0,0,.639-4.563v.018c0,1.161.756,1.557,2.1,1.881,1.17.27,1.422.513,1.422.963v.018c0,.468-.432.792-1.116.792a2.732,2.732,0,0,1-1.764-.648.513.513,0,0,0-.324-.1.515.515,0,0,0-.522.513A.519.519,0,0,0,.648-.7,3.922,3.922,0,0,0,3.015.09ZM10.71-4.257a.551.551,0,0,0-.549-.549.545.545,0,0,0-.549.549V-2.07A1.05,1.05,0,0,1,8.541-.9c-.648,0-1.017-.414-1.017-1.152v-2.2a.545.545,0,0,0-.549-.549.544.544,0,0,0-.54.549v2.529A1.632,1.632,0,0,0,8.127.1,1.71,1.71,0,0,0,9.612-.738V-.5a.543.543,0,0,0,.549.54A.544.544,0,0,0,10.71-.5ZM12.114-.5a.536.536,0,0,0,.54.54A.538.538,0,0,0,13.2-.5V-2.682A1.038,1.038,0,0,1,14.22-3.861c.6,0,.963.414.963,1.152V-.5a.538.538,0,0,0,.549.54.536.536,0,0,0,.54-.54V-2.682c0-.765.423-1.179,1.017-1.179.612,0,.963.4.963,1.161V-.5a.538.538,0,0,0,.549.54.53.53,0,0,0,.54-.54V-3.033a1.6,1.6,0,0,0-1.665-1.818,1.912,1.912,0,0,0-1.6.837,1.508,1.508,0,0,0-1.422-.837,1.7,1.7,0,0,0-1.449.819v-.225a.545.545,0,0,0-.549-.549.538.538,0,0,0-.54.549Zm8.595,0a.536.536,0,0,0,.54.54A.538.538,0,0,0,21.8-.5V-2.682a1.038,1.038,0,0,1,1.017-1.179c.6,0,.963.414.963,1.152V-.5a.538.538,0,0,0,.549.54.536.536,0,0,0,.54-.54V-2.682c0-.765.423-1.179,1.017-1.179.612,0,.963.4.963,1.161V-.5a.538.538,0,0,0,.549.54.53.53,0,0,0,.54-.54V-3.033a1.6,1.6,0,0,0-1.665-1.818,1.912,1.912,0,0,0-1.6.837,1.508,1.508,0,0,0-1.422-.837,1.7,1.7,0,0,0-1.449.819v-.225a.545.545,0,0,0-.549-.549.538.538,0,0,0-.54.549ZM30.672.1A1.931,1.931,0,0,0,32.22-.594v.18a.492.492,0,0,0,.531.459.519.519,0,0,0,.531-.522v-2.34a1.972,1.972,0,0,0-.513-1.467,2.129,2.129,0,0,0-1.575-.531,4.073,4.073,0,0,0-1.53.279.475.475,0,0,0-.3.432.453.453,0,0,0,.459.45A.612.612,0,0,0,30-3.681,2.822,2.822,0,0,1,31.05-3.87c.765,0,1.179.36,1.179,1.035v.117a3.97,3.97,0,0,0-1.278-.2c-1.161,0-1.962.5-1.962,1.53v.018A1.518,1.518,0,0,0,30.672.1Zm.306-.792c-.522,0-.927-.261-.927-.72v-.018c0-.5.414-.792,1.116-.792a3.019,3.019,0,0,1,1.08.189v.324C32.247-1.107,31.7-.693,30.978-.693Zm3.654.2a.536.536,0,0,0,.54.54.544.544,0,0,0,.549-.54V-1.9c0-1.125.531-1.719,1.305-1.854a.511.511,0,0,0,.432-.522.505.505,0,0,0-.54-.54,1.511,1.511,0,0,0-1.2,1.044v-.486a.545.545,0,0,0-.549-.549.538.538,0,0,0-.54.549Zm4.626,1.962c.765,0,1.2-.36,1.6-1.332L42.6-4.032a.977.977,0,0,0,.045-.261.515.515,0,0,0-.522-.513.559.559,0,0,0-.522.414L40.41-1.233,39.132-4.392a.546.546,0,0,0-.531-.414.523.523,0,0,0-.54.531.735.735,0,0,0,.063.261L39.888-.072l-.036.1c-.18.369-.351.5-.675.5A1.231,1.231,0,0,1,38.8.468a.556.556,0,0,0-.2-.036.438.438,0,0,0-.441.45.464.464,0,0,0,.342.45A1.924,1.924,0,0,0,39.258,1.467Z" transform="translate(29 819)" fill="#67797f"/>
    <path id="Path_4928" data-name="Path 4928" d="M3.735.108A3.219,3.219,0,0,0,6.021-.738a.532.532,0,0,0,.18-.4.527.527,0,0,0-.522-.513.5.5,0,0,0-.333.126,2.258,2.258,0,0,1-1.575.6A2.123,2.123,0,0,1,1.692-3.15v-.018A2.12,2.12,0,0,1,3.771-5.391a2.285,2.285,0,0,1,1.5.567.541.541,0,0,0,.333.108.538.538,0,0,0,.549-.54A.553.553,0,0,0,5.94-5.7a3.3,3.3,0,0,0-2.16-.711A3.188,3.188,0,0,0,.531-3.15v.018A3.168,3.168,0,0,0,3.735.108Zm5-.009a1.931,1.931,0,0,0,1.548-.693v.18a.492.492,0,0,0,.531.459.519.519,0,0,0,.531-.522v-2.34a1.972,1.972,0,0,0-.513-1.467,2.129,2.129,0,0,0-1.575-.531,4.073,4.073,0,0,0-1.53.279.475.475,0,0,0-.3.432.453.453,0,0,0,.459.45.612.612,0,0,0,.171-.027A2.822,2.822,0,0,1,9.117-3.87c.765,0,1.179.36,1.179,1.035v.117a3.97,3.97,0,0,0-1.278-.2c-1.161,0-1.962.5-1.962,1.53v.018A1.518,1.518,0,0,0,8.739.1Zm.306-.792c-.522,0-.927-.261-.927-.72v-.018c0-.5.414-.792,1.116-.792a3.019,3.019,0,0,1,1.08.189v.324C10.314-1.107,9.765-.693,9.045-.693Zm3.717.2a.536.536,0,0,0,.54.54.538.538,0,0,0,.549-.54v-5.58a.544.544,0,0,0-.549-.54.536.536,0,0,0-.54.54Zm3.375-2.214A1.286,1.286,0,0,1,17.37-3.96a1.234,1.234,0,0,1,1.206,1.251ZM19.206-.522a.475.475,0,0,0,.144-.333.429.429,0,0,0-.432-.441.405.405,0,0,0-.279.1,1.708,1.708,0,0,1-1.125.414,1.327,1.327,0,0,1-1.368-1.206h2.979a.509.509,0,0,0,.513-.522,2.248,2.248,0,0,0-2.259-2.34,2.358,2.358,0,0,0-2.322,2.475v.018A2.371,2.371,0,0,0,17.5.108,2.44,2.44,0,0,0,19.206-.522ZM20.8-.5a.536.536,0,0,0,.54.54.538.538,0,0,0,.549-.54V-2.682a1.057,1.057,0,0,1,1.071-1.179c.648,0,1.017.423,1.017,1.161V-.5a.538.538,0,0,0,.549.54.53.53,0,0,0,.54-.54V-3.033a1.629,1.629,0,0,0-1.692-1.818,1.722,1.722,0,0,0-1.485.828v-.234a.545.545,0,0,0-.549-.549.538.538,0,0,0-.54.549Zm10.3-5.58a.538.538,0,0,0-.549-.54.536.536,0,0,0-.54.54v2.061a1.944,1.944,0,0,0-1.62-.837,2.268,2.268,0,0,0-2.2,2.466v.018A2.279,2.279,0,0,0,28.386.1a1.9,1.9,0,0,0,1.62-.891v.3a.538.538,0,0,0,.549.54A.536.536,0,0,0,31.1-.5ZM28.647-3.906a1.426,1.426,0,0,1,1.377,1.521v.018A1.431,1.431,0,0,1,28.647-.846a1.414,1.414,0,0,1-1.368-1.521v-.018A1.393,1.393,0,0,1,28.647-3.906Zm5.229,4a1.931,1.931,0,0,0,1.548-.693v.18a.492.492,0,0,0,.531.459.519.519,0,0,0,.531-.522v-2.34a1.972,1.972,0,0,0-.513-1.467A2.129,2.129,0,0,0,34.4-4.815a4.073,4.073,0,0,0-1.53.279.475.475,0,0,0-.3.432.453.453,0,0,0,.459.45.612.612,0,0,0,.171-.027,2.822,2.822,0,0,1,1.053-.189c.765,0,1.179.36,1.179,1.035v.117a3.97,3.97,0,0,0-1.278-.2c-1.161,0-1.962.5-1.962,1.53v.018A1.518,1.518,0,0,0,33.876.1Zm.306-.792c-.522,0-.927-.261-.927-.72v-.018c0-.5.414-.792,1.116-.792a3.019,3.019,0,0,1,1.08.189v.324C35.451-1.107,34.9-.693,34.182-.693Zm3.654.2a.536.536,0,0,0,.54.54.544.544,0,0,0,.549-.54V-1.9c0-1.125.531-1.719,1.305-1.854a.511.511,0,0,0,.432-.522.505.505,0,0,0-.54-.54,1.511,1.511,0,0,0-1.2,1.044v-.486a.545.545,0,0,0-.549-.549.538.538,0,0,0-.54.549Z" transform="translate(132 819)" fill="#67797f"/>
    <path id="Path_4516" data-name="Path 4516" d="M19,22.75H5A3.755,3.755,0,0,1,1.25,19V7A3.755,3.755,0,0,1,5,3.25H19A3.755,3.755,0,0,1,22.75,7V19A3.755,3.755,0,0,1,19,22.75ZM5,4.75A2.253,2.253,0,0,0,2.75,7V19A2.253,2.253,0,0,0,5,21.25H19A2.253,2.253,0,0,0,21.25,19V7A2.253,2.253,0,0,0,19,4.75Z" transform="translate(140.75 783.75)" fill="#67797f"/>
    <path id="Path_4517" data-name="Path 4517" d="M22,9.75H2A.75.75,0,0,1,1.25,9V7A3.755,3.755,0,0,1,5,3.25H19A3.755,3.755,0,0,1,22.75,7V9A.75.75,0,0,1,22,9.75ZM2.75,8.25h18.5V7A2.253,2.253,0,0,0,19,4.75H5A2.253,2.253,0,0,0,2.75,7Z" transform="translate(140.75 783.75)" fill="#67797f"/>
    <path id="Path_4518" data-name="Path 4518" d="M16,6.75A.75.75,0,0,1,15.25,6V2a.75.75,0,1,1,1.5,0V6A.75.75,0,0,1,16,6.75Z" transform="translate(140.75 783.75)" fill="#67797f"/>
    <path id="Path_4519" data-name="Path 4519" d="M8,6.75A.75.75,0,0,1,7.25,6V2a.75.75,0,1,1,1.5,0V6A.75.75,0,0,1,8,6.75Z" transform="translate(140.75 783.75)" fill="#67797f"/>
    <path id="Path_4520" data-name="Path 4520" d="M2,9v9a4,4,0,0,0,4,4H18a4,4,0,0,0,4-4V9Zm4,9a1,1,0,1,1,1-1A1,1,0,0,1,6,18Zm0-4a1,1,0,1,1,1-1A1,1,0,0,1,6,14Zm4,4a1,1,0,1,1,1-1A1,1,0,0,1,10,18Zm0-4a1,1,0,1,1,1-1A1,1,0,0,1,10,14Zm4,4a1,1,0,1,1,1-1A1,1,0,0,1,14,18Zm0-4a1,1,0,1,1,1-1A1,1,0,0,1,14,14Zm4,4a1,1,0,1,1,1-1A1,1,0,0,1,18,18Zm0-4a1,1,0,1,1,1-1A1,1,0,0,1,18,14Z" transform="translate(140.75 783.75)" fill="#67797f"/>
    <path id="Path_4929" data-name="Path 4929" d="M3.735.108A3.219,3.219,0,0,0,6.021-.738a.532.532,0,0,0,.18-.4.527.527,0,0,0-.522-.513.5.5,0,0,0-.333.126,2.258,2.258,0,0,1-1.575.6A2.123,2.123,0,0,1,1.692-3.15v-.018A2.12,2.12,0,0,1,3.771-5.391a2.285,2.285,0,0,1,1.5.567.541.541,0,0,0,.333.108.538.538,0,0,0,.549-.54A.553.553,0,0,0,5.94-5.7a3.3,3.3,0,0,0-2.16-.711A3.188,3.188,0,0,0,.531-3.15v.018A3.168,3.168,0,0,0,3.735.108ZM7.371-.5a.536.536,0,0,0,.54.54A.538.538,0,0,0,8.46-.5V-2.682A1.057,1.057,0,0,1,9.531-3.861c.648,0,1.017.423,1.017,1.161V-.5a.538.538,0,0,0,.549.54.53.53,0,0,0,.54-.54V-3.033A1.629,1.629,0,0,0,9.945-4.851a1.722,1.722,0,0,0-1.485.828V-6.075a.544.544,0,0,0-.549-.54.536.536,0,0,0-.54.54ZM14.364.1a1.931,1.931,0,0,0,1.548-.693v.18a.492.492,0,0,0,.531.459.519.519,0,0,0,.531-.522v-2.34a1.972,1.972,0,0,0-.513-1.467,2.129,2.129,0,0,0-1.575-.531,4.073,4.073,0,0,0-1.53.279.475.475,0,0,0-.3.432.453.453,0,0,0,.459.45.612.612,0,0,0,.171-.027,2.822,2.822,0,0,1,1.053-.189c.765,0,1.179.36,1.179,1.035v.117a3.97,3.97,0,0,0-1.278-.2c-1.161,0-1.962.5-1.962,1.53v.018A1.518,1.518,0,0,0,14.364.1Zm.306-.792c-.522,0-.927-.261-.927-.72v-.018c0-.5.414-.792,1.116-.792a3.019,3.019,0,0,1,1.08.189v.324C15.939-1.107,15.39-.693,14.67-.693Zm5.2.774a2.166,2.166,0,0,0,.747-.126.469.469,0,0,0,.288-.423.459.459,0,0,0-.459-.45,2.575,2.575,0,0,1-.27.027.519.519,0,0,1-.585-.594V-3.816h.855a.472.472,0,0,0,.477-.468.472.472,0,0,0-.477-.468h-.855v-.81a.542.542,0,0,0-.54-.54.544.544,0,0,0-.549.54v.81h-.18a.465.465,0,0,0-.468.468.465.465,0,0,0,.468.468h.18v2.5A1.218,1.218,0,0,0,19.872.081Z" transform="translate(233 819)" fill="#67797f"/>
    <path id="Path_4521" data-name="Path 4521" d="M3.555,52.048H1.825l1.223-1.223a4.14,4.14,0,0,0,1.182-2.448A8.726,8.726,0,0,1,0,41.021c0-5.194,4.774-10.473,12.251-10.473,7.921,0,12.168,4.857,12.168,10.018,0,5.195-4.292,10.049-12.168,10.049a16.5,16.5,0,0,1-4.1-.522,6.412,6.412,0,0,1-4.591,1.955Z" transform="translate(231 754.451)" fill="#67797f"/>
    <path id="Path_4930" data-name="Path 4930" d="M3.015.09c1.323,0,2.25-.7,2.25-1.881v-.018c0-1.044-.684-1.521-2.016-1.845-1.215-.288-1.5-.5-1.5-.99v-.018c0-.414.378-.747,1.026-.747a2.62,2.62,0,0,1,1.449.477.535.535,0,0,0,.288.081.515.515,0,0,0,.522-.513A.5.5,0,0,0,4.788-5.8a3.466,3.466,0,0,0-2-.585A1.927,1.927,0,0,0,.639-4.563v.018c0,1.161.756,1.557,2.1,1.881,1.17.27,1.422.513,1.422.963v.018c0,.468-.432.792-1.116.792a2.732,2.732,0,0,1-1.764-.648.513.513,0,0,0-.324-.1.515.515,0,0,0-.522.513A.519.519,0,0,0,.648-.7,3.922,3.922,0,0,0,3.015.09Zm5.67.018a2.326,2.326,0,0,0,1.728-.675.424.424,0,0,0,.153-.342.472.472,0,0,0-.468-.477.473.473,0,0,0-.3.117,1.586,1.586,0,0,1-1.062.423A1.438,1.438,0,0,1,7.317-2.367v-.018A1.433,1.433,0,0,1,8.694-3.9a1.507,1.507,0,0,1,1.017.4.555.555,0,0,0,.324.108.5.5,0,0,0,.5-.5.516.516,0,0,0-.171-.378A2.4,2.4,0,0,0,8.7-4.851,2.453,2.453,0,0,0,6.228-2.367v.018A2.426,2.426,0,0,0,8.685.108ZM13.041.1a1.931,1.931,0,0,0,1.548-.693v.18a.492.492,0,0,0,.531.459.519.519,0,0,0,.531-.522v-2.34a1.972,1.972,0,0,0-.513-1.467,2.129,2.129,0,0,0-1.575-.531,4.073,4.073,0,0,0-1.53.279.475.475,0,0,0-.3.432.453.453,0,0,0,.459.45.612.612,0,0,0,.171-.027,2.822,2.822,0,0,1,1.053-.189c.765,0,1.179.36,1.179,1.035v.117a3.97,3.97,0,0,0-1.278-.2c-1.161,0-1.962.5-1.962,1.53v.018A1.518,1.518,0,0,0,13.041.1Zm.306-.792c-.522,0-.927-.261-.927-.72v-.018c0-.5.414-.792,1.116-.792a3.019,3.019,0,0,1,1.08.189v.324C14.616-1.107,14.067-.693,13.347-.693ZM17-.5a.536.536,0,0,0,.54.54A.538.538,0,0,0,18.09-.5V-2.682a1.057,1.057,0,0,1,1.071-1.179c.648,0,1.017.423,1.017,1.161V-.5a.538.538,0,0,0,.549.54.53.53,0,0,0,.54-.54V-3.033a1.629,1.629,0,0,0-1.692-1.818,1.722,1.722,0,0,0-1.485.828v-.234a.545.545,0,0,0-.549-.549.538.538,0,0,0-.54.549ZM24.255.09c.99,0,1.764-.5,1.764-1.494v-.018c0-.855-.783-1.17-1.476-1.386-.558-.18-1.071-.324-1.071-.675V-3.5c0-.27.243-.468.666-.468a2.592,2.592,0,0,1,1.116.324.428.428,0,0,0,.216.054.438.438,0,0,0,.45-.441.462.462,0,0,0-.261-.414,3.267,3.267,0,0,0-1.494-.387,1.516,1.516,0,0,0-1.692,1.449v.018c0,.909.783,1.2,1.485,1.4.558.171,1.062.3,1.062.666v.018c0,.315-.27.513-.738.513a2.508,2.508,0,0,1-1.368-.459A.475.475,0,0,0,22.68-1.3a.436.436,0,0,0-.441.441.417.417,0,0,0,.207.378A3.248,3.248,0,0,0,24.255.09Z" transform="translate(315 819)" fill="#3f62ac"/>
    <path id="Path_4522" data-name="Path 4522" d="M7,1.25H3A1.751,1.751,0,0,0,1.25,3V7a.75.75,0,0,0,1.5,0V3A.249.249,0,0,1,3,2.75H7a.75.75,0,0,0,0-1.5Z" transform="translate(315.75 783.75)" fill="#3f62ac" fill-rule="evenodd"/>
    <path id="Path_4523" data-name="Path 4523" d="M17,2.75h4a.249.249,0,0,1,.25.25V7a.75.75,0,0,0,1.5,0V3A1.751,1.751,0,0,0,21,1.25H17a.75.75,0,0,0,0,1.5Z" transform="translate(315.75 783.75)" fill="#3f62ac" fill-rule="evenodd"/>
    <path id="Path_4524" data-name="Path 4524" d="M1.25,17v4A1.751,1.751,0,0,0,3,22.75H7a.75.75,0,0,0,0-1.5H3A.249.249,0,0,1,2.75,21V17a.75.75,0,0,0-1.5,0Z" transform="translate(315.75 783.75)" fill="#3f62ac" fill-rule="evenodd"/>
    <path id="Path_4525" data-name="Path 4525" d="M21.25,17v4a.249.249,0,0,1-.25.25H17a.75.75,0,0,0,0,1.5h4A1.751,1.751,0,0,0,22.75,21V17a.75.75,0,0,0-1.5,0Z" transform="translate(315.75 783.75)" fill="#3f62ac" fill-rule="evenodd"/>
    <path id="Path_4526" data-name="Path 4526" d="M11.25,6.5A1.751,1.751,0,0,0,9.5,4.75h-3A1.751,1.751,0,0,0,4.75,6.5v3A1.751,1.751,0,0,0,6.5,11.25h3A1.751,1.751,0,0,0,11.25,9.5Z" transform="translate(315.75 783.75)" fill="#3f62ac" fill-rule="evenodd"/>
    <path id="Path_4527" data-name="Path 4527" d="M11.25,14.5A1.751,1.751,0,0,0,9.5,12.75h-3A1.751,1.751,0,0,0,4.75,14.5v3A1.751,1.751,0,0,0,6.5,19.25h3a1.751,1.751,0,0,0,1.75-1.75Z" transform="translate(315.75 783.75)" fill="#3f62ac" fill-rule="evenodd"/>
    <path id="Path_4528" data-name="Path 4528" d="M19.25,6.5A1.751,1.751,0,0,0,17.5,4.75h-3A1.751,1.751,0,0,0,12.75,6.5v3a1.751,1.751,0,0,0,1.75,1.75h3A1.751,1.751,0,0,0,19.25,9.5Z" transform="translate(315.75 783.75)" fill="#3f62ac" fill-rule="evenodd"/>
    <path id="Path_4529" data-name="Path 4529" d="M14,14.875h1a.75.75,0,0,0,0-1.5H14a.75.75,0,0,0,0,1.5Z" transform="translate(315.75 783.75)" fill="#3f62ac" fill-rule="evenodd"/>
    <path id="Path_4530" data-name="Path 4530" d="M18.5,17.125h-1a.75.75,0,0,0,0,1.5h1a.75.75,0,0,0,0-1.5Z" transform="translate(315.75 783.75)" fill="#3f62ac" fill-rule="evenodd"/>
    <path id="Path_4531" data-name="Path 4531" d="M17,14.875h.75v.75a.75.75,0,0,0,1.5,0v-1.5a.75.75,0,0,0-.75-.75H17a.75.75,0,0,0,0,1.5Z" transform="translate(315.75 783.75)" fill="#3f62ac" fill-rule="evenodd"/>
    <path id="Path_4532" data-name="Path 4532" d="M15.5,17.125h-.75v-.75a.75.75,0,0,0-1.5,0v1.5a.75.75,0,0,0,.75.75h1.5a.75.75,0,0,0,0-1.5Z" transform="translate(315.75 783.75)" fill="#3f62ac" fill-rule="evenodd"/>
    <path id="Profile" d="M2.178-.77a.878.878,0,0,0,.858.88.883.883,0,0,0,.88-.88V-5.984H8.338L12.672-.352a1.013,1.013,0,0,0,.814.462.909.909,0,0,0,.88-.858.945.945,0,0,0-.286-.638L10.252-6.314c2.4-.462,4.114-1.936,4.114-4.466v-.044a4.253,4.253,0,0,0-1.188-3.036A6.072,6.072,0,0,0,8.8-15.4H3.036a.878.878,0,0,0-.858.88ZM3.916-7.546v-6.248H8.668c2.486,0,3.938,1.144,3.938,3.036v.044c0,1.98-1.65,3.168-3.96,3.168ZM18.59-6.314c.22-2.222,1.716-3.872,3.7-3.872,2.266,0,3.454,1.8,3.63,3.872Zm8.25,4.862A.73.73,0,0,0,27.1-2a.737.737,0,0,0-.748-.726.742.742,0,0,0-.484.2,4.649,4.649,0,0,1-3.278,1.32,3.972,3.972,0,0,1-4-3.85h8.228a.789.789,0,0,0,.792-.792c0-3.014-1.914-5.764-5.28-5.764A5.61,5.61,0,0,0,16.874-5.7v.044A5.653,5.653,0,0,0,22.55.264,5.782,5.782,0,0,0,26.84-1.452ZM35.728.264a5.724,5.724,0,0,0,4.29-1.826.768.768,0,0,0,.22-.528.8.8,0,0,0-.77-.77.671.671,0,0,0-.484.22,4.545,4.545,0,0,1-3.168,1.386,4.25,4.25,0,0,1-4.18-4.422V-5.72a4.2,4.2,0,0,1,4.07-4.4,4.386,4.386,0,0,1,3.1,1.364.877.877,0,0,0,.55.2.812.812,0,0,0,.814-.814.8.8,0,0,0-.264-.594,5.88,5.88,0,0,0-4.18-1.65,5.864,5.864,0,0,0-5.83,5.94v.044A5.84,5.84,0,0,0,35.728.264Zm12.3,0a5.906,5.906,0,0,0,5.962-5.94V-5.72a5.845,5.845,0,0,0-5.918-5.9,5.887,5.887,0,0,0-5.94,5.94v.044A5.827,5.827,0,0,0,48.026.264Zm.044-1.518a4.267,4.267,0,0,1-4.2-4.422V-5.72a4.2,4.2,0,0,1,4.158-4.4A4.3,4.3,0,0,1,52.25-5.676v.044A4.2,4.2,0,0,1,48.07-1.254Zm8.976.506A.845.845,0,0,0,57.9.11a.84.84,0,0,0,.836-.858V-4.62c0-3.278,1.8-4.928,4-5.192a.841.841,0,0,0,.748-.858.814.814,0,0,0-.836-.858A4.71,4.71,0,0,0,58.74-8.492v-2.134a.845.845,0,0,0-.858-.858.855.855,0,0,0-.836.858ZM76.318-15.312a.845.845,0,0,0-.858-.858.827.827,0,0,0-.836.858V-9.2a5.131,5.131,0,0,0-4.356-2.42A5.581,5.581,0,0,0,64.834-5.7v.044a5.548,5.548,0,0,0,5.434,5.9,5.113,5.113,0,0,0,4.356-2.53v1.54a.845.845,0,0,0,.858.858.841.841,0,0,0,.836-.858ZM70.576-10.1A4.227,4.227,0,0,1,74.69-5.72v.044a4.247,4.247,0,0,1-4.114,4.4,4.109,4.109,0,0,1-4-4.4V-5.72C66.572-8.47,68.376-10.1,70.576-10.1ZM83.864.22c2.266,0,4.048-1.254,4.048-3.41v-.044c0-2.046-1.892-2.728-3.652-3.256-1.518-.462-2.926-.88-2.926-1.958v-.044c0-.946.858-1.65,2.2-1.65a6.156,6.156,0,0,1,2.97.88.851.851,0,0,0,.374.088.737.737,0,0,0,.748-.726.822.822,0,0,0-.418-.7,7.924,7.924,0,0,0-3.63-.968c-2.244,0-3.872,1.3-3.872,3.256v.044c0,2.09,1.98,2.706,3.762,3.212,1.5.418,2.838.858,2.838,2v.044c0,1.1-.99,1.8-2.354,1.8a6.39,6.39,0,0,1-3.608-1.21.677.677,0,0,0-.418-.132.737.737,0,0,0-.748.726.765.765,0,0,0,.308.616A7.87,7.87,0,0,0,83.864.22Z" transform="translate(49 88)" fill="#1e2022"/>
    <path id="Path" d="M16.875,0a1.125,1.125,0,0,1,.131,2.242l-.131.008H1.125A1.125,1.125,0,0,1,.994.008L1.125,0Z" transform="translate(20 81.875)" fill="#1e2022"/>
    <path id="Path-2" data-name="Path" d="M8.2.33A1.125,1.125,0,0,1,9.889,1.815L9.8,1.92,2.717,9,9.8,16.08a1.125,1.125,0,0,1,.094,1.485L9.8,17.67a1.125,1.125,0,0,1-1.485.094L8.2,17.67.33,9.8A1.125,1.125,0,0,1,.236,8.31L.33,8.2Z" transform="translate(20 74)" fill="#1e2022"/>
  </g>
</svg>
