<svg xmlns="http://www.w3.org/2000/svg" xmlns:xlink="http://www.w3.org/1999/xlink" width="375" height="812" viewBox="0 0 375 812">
  <defs>
    <clipPath id="clip-_7.0_Log_in">
      <rect width="375" height="812"/>
    </clipPath>
  </defs>
  <g id="_7.0_Log_in" data-name="7.0 Log in" clip-path="url(#clip-_7.0_Log_in)">
    <rect width="375" height="812" fill="#fff"/>
    <path id="Path_4856" data-name="Path 4856" d="M-26.667-1.116A1.1,1.1,0,0,0-25.551,0h6.8a1.006,1.006,0,0,0,1.008-1.008,1.006,1.006,0,0,0-1.008-1.008h-5.706v-9.576a1.091,1.091,0,0,0-1.1-1.1,1.1,1.1,0,0,0-1.116,1.1ZM-11.439.216a4.969,4.969,0,0,0,5.094-4.95V-4.77A4.923,4.923,0,0,0-11.4-9.7a4.968,4.968,0,0,0-5.076,4.968V-4.7A4.915,4.915,0,0,0-11.439.216Zm.036-1.908a2.929,2.929,0,0,1-2.9-3.042V-4.77a2.853,2.853,0,0,1,2.862-3.024,2.938,2.938,0,0,1,2.916,3.06V-4.7A2.851,2.851,0,0,1-11.4-1.692ZM.1,2.916A5.35,5.35,0,0,0,4,1.638,4.863,4.863,0,0,0,5.211-1.944v-6.57a1.091,1.091,0,0,0-1.1-1.1,1.083,1.083,0,0,0-1.08,1.08v.45A4.1,4.1,0,0,0-.3-9.7a4.286,4.286,0,0,0-4.32,4.464V-5.2A4.271,4.271,0,0,0-.3-.756,3.981,3.981,0,0,0,3.051-2.5v.738C3.051.144,1.989,1.152.045,1.152A5.812,5.812,0,0,1-2.871.4a.858.858,0,0,0-.4-.09.918.918,0,0,0-.918.9.892.892,0,0,0,.612.864A8.211,8.211,0,0,0,.1,2.916ZM.279-2.61a2.588,2.588,0,0,1-2.7-2.61v-.036a2.568,2.568,0,0,1,2.7-2.61,2.654,2.654,0,0,1,2.79,2.61v.036A2.654,2.654,0,0,1,.279-2.61Zm13.032-9.342a1.127,1.127,0,0,0,1.242,1.08,1.127,1.127,0,0,0,1.242-1.08v-.108a1.114,1.114,0,0,0-1.242-1.062,1.114,1.114,0,0,0-1.242,1.062ZM13.473-.99A1.072,1.072,0,0,0,14.553.09a1.076,1.076,0,0,0,1.1-1.08V-8.514a1.091,1.091,0,0,0-1.1-1.1,1.076,1.076,0,0,0-1.08,1.1Zm5.022,0A1.072,1.072,0,0,0,19.575.09a1.076,1.076,0,0,0,1.1-1.08V-5.364a2.114,2.114,0,0,1,2.142-2.358c1.3,0,2.034.846,2.034,2.322V-.99a1.076,1.076,0,0,0,1.1,1.08,1.061,1.061,0,0,0,1.08-1.08V-6.066c0-2.2-1.242-3.636-3.384-3.636a3.445,3.445,0,0,0-2.97,1.656v-.468a1.091,1.091,0,0,0-1.1-1.1,1.076,1.076,0,0,0-1.08,1.1Z" transform="matrix(1, 0, 0, 1, 188, 261)" fill="#3f7993"/>
    <path id="Path_4860" data-name="Path 4860" d="M-49.133.156A4.663,4.663,0,0,0-44.362-4.55v-.026a4.619,4.619,0,0,0-4.745-4.68A4.663,4.663,0,0,0-53.879-4.55v.026A4.619,4.619,0,0,0-49.133.156Zm.026-1.482A3.107,3.107,0,0,1-52.2-4.55v-.026a3.075,3.075,0,0,1,3.068-3.211A3.118,3.118,0,0,1-46.04-4.55v.026A3.064,3.064,0,0,1-49.107-1.326Zm6.5.611a.774.774,0,0,0,.78.78.785.785,0,0,0,.793-.78V-2.743c0-1.625.767-2.483,1.885-2.678a.738.738,0,0,0,.624-.754.73.73,0,0,0-.78-.78,2.182,2.182,0,0,0-1.729,1.508v-.7a.788.788,0,0,0-.793-.793.777.777,0,0,0-.78.793Zm12.441.871a3.359,3.359,0,0,0,2.5-.975.613.613,0,0,0,.221-.494A.682.682,0,0,0-28.125-2a.684.684,0,0,0-.429.169,2.291,2.291,0,0,1-1.534.611,2.077,2.077,0,0,1-2.054-2.2v-.026a2.07,2.07,0,0,1,1.989-2.184,2.177,2.177,0,0,1,1.469.585.8.8,0,0,0,.468.156.716.716,0,0,0,.728-.715.746.746,0,0,0-.247-.546,3.474,3.474,0,0,0-2.4-.858,3.543,3.543,0,0,0-3.575,3.588v.026A3.5,3.5,0,0,0-30.167.156Zm7.319,0a3.589,3.589,0,0,0,3.679-3.575v-.026a3.556,3.556,0,0,0-3.653-3.562,3.588,3.588,0,0,0-3.666,3.588v.026A3.55,3.55,0,0,0-22.847.156Zm.026-1.378a2.116,2.116,0,0,1-2.093-2.2v-.026a2.06,2.06,0,0,1,2.067-2.184,2.122,2.122,0,0,1,2.106,2.21v.026A2.059,2.059,0,0,1-22.821-1.222Zm5.252.507a.774.774,0,0,0,.78.78A.777.777,0,0,0-16-.715V-3.874a1.527,1.527,0,0,1,1.547-1.7c.936,0,1.469.611,1.469,1.677V-.715a.777.777,0,0,0,.793.78.766.766,0,0,0,.78-.78V-4.381a2.353,2.353,0,0,0-2.444-2.626A2.488,2.488,0,0,0-16-5.811v-.338a.788.788,0,0,0-.793-.793.777.777,0,0,0-.78.793ZM-7.209.117A3.129,3.129,0,0,0-6.13-.065a.677.677,0,0,0,.416-.611.663.663,0,0,0-.663-.65,3.719,3.719,0,0,1-.39.039.749.749,0,0,1-.845-.858V-5.512h1.235a.682.682,0,0,0,.689-.676.682.682,0,0,0-.689-.676H-7.612v-1.17a.782.782,0,0,0-.78-.78.785.785,0,0,0-.793.78v1.17h-.26a.671.671,0,0,0-.676.676.671.671,0,0,0,.676.676h.26V-1.9A1.759,1.759,0,0,0-7.209.117Zm3.016-8.749a.814.814,0,0,0,.9.78.814.814,0,0,0,.9-.78V-8.71a.8.8,0,0,0-.9-.767.8.8,0,0,0-.9.767Zm.117,7.917a.774.774,0,0,0,.78.78A.777.777,0,0,0-2.5-.715V-6.149A.788.788,0,0,0-3.3-6.942a.777.777,0,0,0-.78.793Zm3.627,0a.774.774,0,0,0,.78.78.777.777,0,0,0,.793-.78V-3.874a1.527,1.527,0,0,1,1.547-1.7c.936,0,1.469.611,1.469,1.677V-.715a.777.777,0,0,0,.793.78.766.766,0,0,0,.78-.78V-4.381A2.353,2.353,0,0,0,3.269-7.007a2.488,2.488,0,0,0-2.145,1.2v-.338a.788.788,0,0,0-.793-.793.777.777,0,0,0-.78.793ZM13.709-6.149a.8.8,0,0,0-.793-.793.788.788,0,0,0-.793.793V-2.99A1.516,1.516,0,0,1,10.576-1.3c-.936,0-1.469-.6-1.469-1.664V-6.149a.788.788,0,0,0-.793-.793.785.785,0,0,0-.78.793V-2.5A2.357,2.357,0,0,0,9.978.143a2.47,2.47,0,0,0,2.145-1.209v.351a.785.785,0,0,0,.793.78.785.785,0,0,0,.793-.78Zm3.146,2.236A1.858,1.858,0,0,1,18.636-5.72a1.782,1.782,0,0,1,1.742,1.807ZM21.288-.754a.687.687,0,0,0,.208-.481.619.619,0,0,0-.624-.637.586.586,0,0,0-.4.143,2.467,2.467,0,0,1-1.625.6,1.916,1.916,0,0,1-1.976-1.742h4.3a.736.736,0,0,0,.741-.754,3.247,3.247,0,0,0-3.263-3.38,3.407,3.407,0,0,0-3.354,3.575v.026A3.425,3.425,0,0,0,18.818.156,3.524,3.524,0,0,0,21.288-.754Zm8.437.871h.052a.869.869,0,0,0,.845-.676l1.352-4.082L33.313-.559a.873.873,0,0,0,.858.676h.052a.915.915,0,0,0,.871-.7l1.872-5.278a1.3,1.3,0,0,0,.065-.351.73.73,0,0,0-.741-.728.784.784,0,0,0-.767.611L34.184-2.158l-1.352-4.16a.835.835,0,0,0-.806-.624h-.091a.835.835,0,0,0-.806.624L29.79-2.158l-1.326-4.16a.8.8,0,0,0-.767-.624.736.736,0,0,0-.767.728,1.306,1.306,0,0,0,.078.4L28.854-.585A.894.894,0,0,0,29.725.117Zm8.762-8.749a.814.814,0,0,0,.9.78.814.814,0,0,0,.9-.78V-8.71a.8.8,0,0,0-.9-.767.8.8,0,0,0-.9.767ZM38.6-.715a.774.774,0,0,0,.78.78.777.777,0,0,0,.793-.78V-6.149a.788.788,0,0,0-.793-.793.777.777,0,0,0-.78.793Zm5.928.832a3.129,3.129,0,0,0,1.079-.182.677.677,0,0,0,.416-.611.663.663,0,0,0-.663-.65,3.719,3.719,0,0,1-.39.039.749.749,0,0,1-.845-.858V-5.512h1.235a.682.682,0,0,0,.689-.676.682.682,0,0,0-.689-.676H44.129v-1.17a.782.782,0,0,0-.78-.78.785.785,0,0,0-.793.78v1.17H42.3a.671.671,0,0,0-.676.676.671.671,0,0,0,.676.676h.26V-1.9A1.759,1.759,0,0,0,44.532.117Zm3.042-.832a.774.774,0,0,0,.78.78.777.777,0,0,0,.793-.78V-3.874a1.527,1.527,0,0,1,1.547-1.7c.936,0,1.469.611,1.469,1.677V-.715a.777.777,0,0,0,.793.78.766.766,0,0,0,.78-.78V-4.381a2.353,2.353,0,0,0-2.444-2.626,2.488,2.488,0,0,0-2.145,1.2V-8.775a.785.785,0,0,0-.793-.78.774.774,0,0,0-.78.78Z" transform="matrix(1, 0, 0, 1, 188, 562)" fill="#3f7993"/>
    <path id="Path_4855" data-name="Path 4855" d="M-79.209-1.352A1.465,1.465,0,0,0-77.727.13,1.538,1.538,0,0,0-76.245-.884l1.534-3.51h8.84l1.482,3.406A1.648,1.648,0,0,0-62.829.13,1.5,1.5,0,0,0-61.321-1.4,1.392,1.392,0,0,0-61.5-2.08l-6.76-15.08a2,2,0,0,0-1.9-1.3h-.156a2.029,2.029,0,0,0-1.924,1.3L-79-2.08A1.638,1.638,0,0,0-79.209-1.352Zm5.72-5.876,3.2-7.358,3.2,7.358ZM-52.273.312a6.719,6.719,0,0,0,4.992-1.95,1.226,1.226,0,0,0,.442-.988A1.365,1.365,0,0,0-48.191-4a1.367,1.367,0,0,0-.858.338,4.582,4.582,0,0,1-3.068,1.222,4.154,4.154,0,0,1-4.108-4.394V-6.89a4.14,4.14,0,0,1,3.978-4.368,4.354,4.354,0,0,1,2.938,1.17,1.6,1.6,0,0,0,.936.312,1.432,1.432,0,0,0,1.456-1.43,1.492,1.492,0,0,0-.494-1.092,6.949,6.949,0,0,0-4.81-1.716,7.086,7.086,0,0,0-7.15,7.176v.052A7.009,7.009,0,0,0-52.273.312Zm13.1-.078A6.258,6.258,0,0,0-37.011-.13a1.354,1.354,0,0,0,.832-1.222,1.326,1.326,0,0,0-1.326-1.3,7.438,7.438,0,0,1-.78.078,1.5,1.5,0,0,1-1.69-1.716v-6.734h2.47a1.365,1.365,0,0,0,1.378-1.352,1.365,1.365,0,0,0-1.378-1.352h-2.47v-2.34a1.565,1.565,0,0,0-1.56-1.56,1.57,1.57,0,0,0-1.586,1.56v2.34h-.52a1.343,1.343,0,0,0-1.352,1.352,1.343,1.343,0,0,0,1.352,1.352h.52V-3.8C-43.121-.78-41.483.234-39.169.234Zm6.032-17.5a1.629,1.629,0,0,0,1.794,1.56,1.629,1.629,0,0,0,1.794-1.56v-.156a1.61,1.61,0,0,0-1.794-1.534,1.61,1.61,0,0,0-1.794,1.534ZM-32.9-1.43A1.548,1.548,0,0,0-31.343.13a1.554,1.554,0,0,0,1.586-1.56V-12.3a1.576,1.576,0,0,0-1.586-1.586A1.554,1.554,0,0,0-32.9-12.3ZM-19.123.312a7.178,7.178,0,0,0,7.358-7.15V-6.89a7.112,7.112,0,0,0-7.306-7.124A7.176,7.176,0,0,0-26.4-6.838v.052A7.1,7.1,0,0,0-19.123.312Zm.052-2.756a4.231,4.231,0,0,1-4.186-4.394V-6.89a4.12,4.12,0,0,1,4.134-4.368,4.243,4.243,0,0,1,4.212,4.42v.052A4.119,4.119,0,0,1-19.071-2.444Zm10.5,1.014A1.548,1.548,0,0,0-7.007.13,1.554,1.554,0,0,0-5.421-1.43V-7.748c0-2.132,1.274-3.406,3.094-3.406C-.455-11.154.611-9.932.611-7.8v6.37A1.554,1.554,0,0,0,2.2.13a1.532,1.532,0,0,0,1.56-1.56V-8.762c0-3.172-1.794-5.252-4.888-5.252a4.976,4.976,0,0,0-4.29,2.392V-12.3a1.576,1.576,0,0,0-1.586-1.586A1.554,1.554,0,0,0-8.567-12.3ZM16.367.312a9.3,9.3,0,0,0,6.6-2.444,1.536,1.536,0,0,0,.52-1.144,1.521,1.521,0,0,0-1.508-1.482,1.455,1.455,0,0,0-.962.364,6.522,6.522,0,0,1-4.55,1.742A6.132,6.132,0,0,1,10.465-9.1v-.052a6.125,6.125,0,0,1,6.006-6.422,6.6,6.6,0,0,1,4.342,1.638,1.562,1.562,0,0,0,.962.312,1.554,1.554,0,0,0,1.586-1.56,1.6,1.6,0,0,0-.624-1.274,9.544,9.544,0,0,0-6.24-2.054A9.21,9.21,0,0,0,7.111-9.1v.052A9.153,9.153,0,0,0,16.367.312Zm16.64,0a7.178,7.178,0,0,0,7.358-7.15V-6.89a7.112,7.112,0,0,0-7.306-7.124,7.176,7.176,0,0,0-7.332,7.176v.052A7.1,7.1,0,0,0,33.007.312Zm.052-2.756a4.231,4.231,0,0,1-4.186-4.394V-6.89a4.12,4.12,0,0,1,4.134-4.368,4.243,4.243,0,0,1,4.212,4.42v.052A4.119,4.119,0,0,1,33.059-2.444ZM47.515.286a5.579,5.579,0,0,0,4.472-2v.52A1.422,1.422,0,0,0,53.521.13a1.5,1.5,0,0,0,1.534-1.508v-6.76a5.7,5.7,0,0,0-1.482-4.238,6.152,6.152,0,0,0-4.55-1.534,11.767,11.767,0,0,0-4.42.806,1.373,1.373,0,0,0-.858,1.248,1.31,1.31,0,0,0,1.326,1.3,1.767,1.767,0,0,0,.494-.078,8.153,8.153,0,0,1,3.042-.546c2.21,0,3.406,1.04,3.406,2.99v.338a11.468,11.468,0,0,0-3.692-.572c-3.354,0-5.668,1.456-5.668,4.42v.052C42.653-1.2,44.941.286,47.515.286ZM48.4-2c-1.508,0-2.678-.754-2.678-2.08v-.052c0-1.43,1.2-2.288,3.224-2.288a8.722,8.722,0,0,1,3.12.546v.936C52.065-3.2,50.479-2,48.4-2ZM63.531.26c2.86,0,5.1-1.43,5.1-4.316v-.052c0-2.47-2.262-3.38-4.264-4-1.612-.52-3.094-.936-3.094-1.95v-.052c0-.78.7-1.352,1.924-1.352a7.487,7.487,0,0,1,3.224.936,1.235,1.235,0,0,0,.624.156,1.266,1.266,0,0,0,1.3-1.274,1.334,1.334,0,0,0-.754-1.2,9.437,9.437,0,0,0-4.316-1.118c-2.73,0-4.888,1.586-4.888,4.186v.052c0,2.626,2.262,3.458,4.29,4.03,1.612.494,3.068.858,3.068,1.924v.052c0,.91-.78,1.482-2.132,1.482a7.247,7.247,0,0,1-3.952-1.326,1.373,1.373,0,0,0-.676-.182A1.26,1.26,0,0,0,57.707-2.47a1.206,1.206,0,0,0,.6,1.092A9.383,9.383,0,0,0,63.531.26ZM76.193.234A6.258,6.258,0,0,0,78.351-.13a1.354,1.354,0,0,0,.832-1.222,1.326,1.326,0,0,0-1.326-1.3,7.438,7.438,0,0,1-.78.078,1.5,1.5,0,0,1-1.69-1.716v-6.734h2.47a1.365,1.365,0,0,0,1.378-1.352,1.365,1.365,0,0,0-1.378-1.352h-2.47v-2.34a1.565,1.565,0,0,0-1.56-1.56,1.57,1.57,0,0,0-1.586,1.56v2.34h-.52a1.343,1.343,0,0,0-1.352,1.352,1.343,1.343,0,0,0,1.352,1.352h.52V-3.8C72.241-.78,73.879.234,76.193.234Z" transform="matrix(1, 0, 0, 1, 188, 78)" fill="#3f62ac"/>
    <path id="Base" d="M10,0H246a10,10,0,0,1,10,10V27a10,10,0,0,1-10,10H10A10,10,0,0,1,0,27V10A10,10,0,0,1,10,0Z" transform="translate(60 434)" fill="#3f62ac"/>
    <path id="Sign_In" data-name="Sign In" d="M-21.966.14c2.058,0,3.5-1.092,3.5-2.926v-.028c0-1.624-1.064-2.366-3.136-2.87-1.89-.448-2.338-.784-2.338-1.54v-.028c0-.644.588-1.162,1.6-1.162a4.076,4.076,0,0,1,2.254.742.833.833,0,0,0,.448.126.8.8,0,0,0,.812-.8.777.777,0,0,0-.378-.686,5.392,5.392,0,0,0-3.108-.91c-1.946,0-3.346,1.162-3.346,2.842v.028c0,1.806,1.176,2.422,3.262,2.926,1.82.42,2.212.8,2.212,1.5v.028c0,.728-.672,1.232-1.736,1.232a4.25,4.25,0,0,1-2.744-1.008.8.8,0,0,0-.5-.154.8.8,0,0,0-.812.8.808.808,0,0,0,.336.658A6.1,6.1,0,0,0-21.966.14ZM-16.66-9.3a.877.877,0,0,0,.966.84.877.877,0,0,0,.966-.84V-9.38a.867.867,0,0,0-.966-.826.867.867,0,0,0-.966.826Zm.126,8.526a.834.834,0,0,0,.84.84.837.837,0,0,0,.854-.84V-6.622a.848.848,0,0,0-.854-.854.837.837,0,0,0-.84.854Zm7.2,3.038A4.161,4.161,0,0,0-6.3,1.274a3.782,3.782,0,0,0,.938-2.786v-5.11a.848.848,0,0,0-.854-.854.842.842,0,0,0-.84.84v.35a3.19,3.19,0,0,0-2.59-1.26,3.334,3.334,0,0,0-3.36,3.472v.028A3.322,3.322,0,0,0-9.646-.588a3.1,3.1,0,0,0,2.6-1.358v.574A2.067,2.067,0,0,1-9.38.9,4.52,4.52,0,0,1-11.648.308a.667.667,0,0,0-.308-.07.714.714,0,0,0-.714.7.693.693,0,0,0,.476.672A6.386,6.386,0,0,0-9.338,2.268Zm.14-4.3a2.013,2.013,0,0,1-2.1-2.03v-.028a2,2,0,0,1,2.1-2.03,2.065,2.065,0,0,1,2.17,2.03v.028A2.065,2.065,0,0,1-9.2-2.03ZM-3.234-.77a.834.834,0,0,0,.84.84A.837.837,0,0,0-1.54-.77v-3.4A1.644,1.644,0,0,1,.126-6.006c1.008,0,1.582.658,1.582,1.806V-.77a.837.837,0,0,0,.854.84A.825.825,0,0,0,3.4-.77V-4.718A2.534,2.534,0,0,0,.77-7.546,2.679,2.679,0,0,0-1.54-6.258v-.364a.848.848,0,0,0-.854-.854.837.837,0,0,0-.84.854ZM16.212-6.622a.857.857,0,0,0-.854-.854.848.848,0,0,0-.854.854v3.4A1.633,1.633,0,0,1,12.838-1.4c-1.008,0-1.582-.644-1.582-1.792v-3.43a.848.848,0,0,0-.854-.854.846.846,0,0,0-.84.854v3.934A2.538,2.538,0,0,0,12.194.154a2.66,2.66,0,0,0,2.31-1.3V-.77a.845.845,0,0,0,.854.84.846.846,0,0,0,.854-.84ZM18.326,1.47a.847.847,0,0,0,1.694,0V-1.148a3.019,3.019,0,0,0,2.52,1.3,3.536,3.536,0,0,0,3.43-3.836V-3.71a3.536,3.536,0,0,0-3.43-3.836A2.959,2.959,0,0,0,20.02-6.16v-.462a.848.848,0,0,0-.854-.854.837.837,0,0,0-.84.854Zm3.808-2.786a2.229,2.229,0,0,1-2.156-2.366V-3.71a2.229,2.229,0,0,1,2.156-2.366A2.189,2.189,0,0,1,24.248-3.71v.028A2.165,2.165,0,0,1,22.134-1.316Z" transform="translate(188 457)" fill="#fff"/>
    <path id="Search" d="M1.824,0H6.768a.658.658,0,0,0,.66-.66.666.666,0,0,0-.66-.66H2.556V-3.576H6.168a.656.656,0,0,0,.66-.648.668.668,0,0,0-.66-.672H2.556V-7.08H6.708a.658.658,0,0,0,.66-.66.666.666,0,0,0-.66-.66H1.824a.733.733,0,0,0-.744.744V-.744A.733.733,0,0,0,1.824,0ZM9.012-.66a.714.714,0,0,0,.72.72.717.717,0,0,0,.732-.72V-3.576A1.384,1.384,0,0,1,11.82-5.148c.8,0,1.284.552,1.284,1.536V-.66a.717.717,0,0,0,.732.72.714.714,0,0,0,.72-.72V-3.576c0-1.02.564-1.572,1.356-1.572.816,0,1.284.54,1.284,1.548V-.66a.717.717,0,0,0,.732.72.707.707,0,0,0,.72-.72V-4.044a2.13,2.13,0,0,0-2.22-2.424,2.549,2.549,0,0,0-2.136,1.116,2.011,2.011,0,0,0-1.9-1.116,2.271,2.271,0,0,0-1.932,1.092v-.3a.727.727,0,0,0-.732-.732.717.717,0,0,0-.72.732ZM22.3.132A2.575,2.575,0,0,0,24.36-.792v.24a.656.656,0,0,0,.708.612.692.692,0,0,0,.708-.7v-3.12a2.629,2.629,0,0,0-.684-1.956,2.839,2.839,0,0,0-2.1-.708,5.431,5.431,0,0,0-2.04.372.634.634,0,0,0-.4.576.6.6,0,0,0,.612.6.815.815,0,0,0,.228-.036,3.763,3.763,0,0,1,1.4-.252c1.02,0,1.572.48,1.572,1.38v.156a5.293,5.293,0,0,0-1.7-.264c-1.548,0-2.616.672-2.616,2.04v.024A2.024,2.024,0,0,0,22.3.132ZM22.7-.924c-.7,0-1.236-.348-1.236-.96v-.024c0-.66.552-1.056,1.488-1.056a4.025,4.025,0,0,1,1.44.252v.432C24.4-1.476,23.664-.924,22.7-.924Zm4.848-7.044a.752.752,0,0,0,.828.72.752.752,0,0,0,.828-.72V-8.04a.743.743,0,0,0-.828-.708.743.743,0,0,0-.828.708ZM27.66-.66a.714.714,0,0,0,.72.72.717.717,0,0,0,.732-.72V-5.676a.727.727,0,0,0-.732-.732.717.717,0,0,0-.72.732Zm3.492,0a.714.714,0,0,0,.72.72A.717.717,0,0,0,32.6-.66V-8.1a.725.725,0,0,0-.732-.72.714.714,0,0,0-.72.72Z" transform="translate(80 321)" fill="#97a7c3"/>
    <path id="Search-2" data-name="Search" d="M1.08-.672A.73.73,0,0,0,1.824.06a.727.727,0,0,0,.732-.732V-2.7H4.224c1.848,0,3.36-.984,3.36-2.868v-.024C7.584-7.284,6.36-8.4,4.392-8.4H1.824a.733.733,0,0,0-.744.744Zm1.476-3.36V-7.056H4.272c1.1,0,1.812.516,1.812,1.5v.024c0,.876-.7,1.5-1.812,1.5ZM10.692.132a2.575,2.575,0,0,0,2.064-.924v.24a.656.656,0,0,0,.708.612.692.692,0,0,0,.708-.7v-3.12a2.629,2.629,0,0,0-.684-1.956,2.839,2.839,0,0,0-2.1-.708,5.431,5.431,0,0,0-2.04.372.634.634,0,0,0-.4.576.6.6,0,0,0,.612.6.815.815,0,0,0,.228-.036,3.763,3.763,0,0,1,1.4-.252c1.02,0,1.572.48,1.572,1.38v.156a5.293,5.293,0,0,0-1.7-.264c-1.548,0-2.616.672-2.616,2.04v.024A2.024,2.024,0,0,0,10.692.132ZM11.1-.924c-.7,0-1.236-.348-1.236-.96v-.024c0-.66.552-1.056,1.488-1.056a4.025,4.025,0,0,1,1.44.252v.432C12.792-1.476,12.06-.924,11.1-.924ZM18.144.12c1.32,0,2.352-.66,2.352-1.992V-1.9c0-1.14-1.044-1.56-1.968-1.848-.744-.24-1.428-.432-1.428-.9v-.024c0-.36.324-.624.888-.624a3.456,3.456,0,0,1,1.488.432.57.57,0,0,0,.288.072.584.584,0,0,0,.6-.588.616.616,0,0,0-.348-.552,4.355,4.355,0,0,0-1.992-.516,2.021,2.021,0,0,0-2.256,1.932v.024c0,1.212,1.044,1.6,1.98,1.86.744.228,1.416.4,1.416.888v.024c0,.42-.36.684-.984.684a3.345,3.345,0,0,1-1.824-.612.634.634,0,0,0-.312-.084.581.581,0,0,0-.588.588.557.557,0,0,0,.276.5A4.33,4.33,0,0,0,18.144.12ZM24.1.12c1.32,0,2.352-.66,2.352-1.992V-1.9c0-1.14-1.044-1.56-1.968-1.848-.744-.24-1.428-.432-1.428-.9v-.024c0-.36.324-.624.888-.624a3.456,3.456,0,0,1,1.488.432.57.57,0,0,0,.288.072.584.584,0,0,0,.6-.588.616.616,0,0,0-.348-.552,4.355,4.355,0,0,0-1.992-.516A2.021,2.021,0,0,0,21.72-4.512v.024c0,1.212,1.044,1.6,1.98,1.86.744.228,1.416.4,1.416.888v.024c0,.42-.36.684-.984.684a3.345,3.345,0,0,1-1.824-.612A.634.634,0,0,0,22-1.728a.581.581,0,0,0-.588.588.557.557,0,0,0,.276.5A4.33,4.33,0,0,0,24.1.12ZM30.024.108h.048a.8.8,0,0,0,.78-.624L32.1-4.284,33.336-.516a.806.806,0,0,0,.792.624h.048a.845.845,0,0,0,.8-.648l1.728-4.872a1.2,1.2,0,0,0,.06-.324.674.674,0,0,0-.684-.672.724.724,0,0,0-.708.564L34.14-1.992l-1.248-3.84a.771.771,0,0,0-.744-.576h-.084a.771.771,0,0,0-.744.576l-1.236,3.84L28.86-5.832a.74.74,0,0,0-.708-.576.679.679,0,0,0-.708.672,1.205,1.205,0,0,0,.072.372L29.22-.54A.825.825,0,0,0,30.024.108Zm11,.036a3.313,3.313,0,0,0,3.4-3.3V-3.18a3.282,3.282,0,0,0-3.372-3.288,3.312,3.312,0,0,0-3.384,3.312v.024A3.277,3.277,0,0,0,41.028.144Zm.024-1.272A1.953,1.953,0,0,1,39.12-3.156V-3.18A1.9,1.9,0,0,1,41.028-5.2a1.958,1.958,0,0,1,1.944,2.04v.024A1.9,1.9,0,0,1,41.052-1.128ZM45.96-.66a.714.714,0,0,0,.72.72.725.725,0,0,0,.732-.72V-2.532c0-1.5.708-2.292,1.74-2.472a.681.681,0,0,0,.576-.7.674.674,0,0,0-.72-.72,2.014,2.014,0,0,0-1.6,1.392v-.648a.727.727,0,0,0-.732-.732.717.717,0,0,0-.72.732ZM57.024-8.1a.717.717,0,0,0-.732-.72.714.714,0,0,0-.72.72v2.748a2.592,2.592,0,0,0-2.16-1.116,3.024,3.024,0,0,0-2.94,3.288v.024A3.038,3.038,0,0,0,53.412.132a2.536,2.536,0,0,0,2.16-1.188v.4A.717.717,0,0,0,56.3.06a.714.714,0,0,0,.72-.72ZM53.76-5.208A1.9,1.9,0,0,1,55.6-3.18v.024A1.909,1.909,0,0,1,53.76-1.128a1.885,1.885,0,0,1-1.824-2.028V-3.18A1.857,1.857,0,0,1,53.76-5.208Z" transform="translate(80 380)" fill="#97a7c3"/>
    <path id="Path_4452" data-name="Path 4452" d="M91.22,8.378a4.053,4.053,0,0,0,2.962-1.227A4.053,4.053,0,0,0,95.41,4.189a4.054,4.054,0,0,0-1.227-2.962,4.188,4.188,0,0,0-5.924,0,4.053,4.053,0,0,0-1.227,2.962,4.053,4.053,0,0,0,1.227,2.962A4.054,4.054,0,0,0,91.22,8.378Zm0,0" transform="translate(-30.428 307.303)" fill="#3f62ac"/>
    <path id="Path_4453" data-name="Path 4453" d="M14.476,252.289a10.347,10.347,0,0,0-.141-1.1,8.658,8.658,0,0,0-.27-1.1,5.458,5.458,0,0,0-.454-1.031,3.889,3.889,0,0,0-.685-.893,3.02,3.02,0,0,0-.984-.618,3.4,3.4,0,0,0-1.256-.227,1.275,1.275,0,0,0-.681.289c-.2.133-.443.287-.709.457a4.065,4.065,0,0,1-.918.4,3.564,3.564,0,0,1-2.245,0,4.054,4.054,0,0,1-.917-.4c-.264-.169-.5-.323-.71-.458a1.273,1.273,0,0,0-.681-.289,3.4,3.4,0,0,0-1.256.228,3.017,3.017,0,0,0-.984.618,3.889,3.889,0,0,0-.685.893,5.468,5.468,0,0,0-.454,1.031,8.679,8.679,0,0,0-.27,1.1,10.31,10.31,0,0,0-.141,1.1c-.023.333-.035.678-.035,1.027A2.888,2.888,0,0,0,.858,255.5a3.088,3.088,0,0,0,2.21.806h8.375a3.087,3.087,0,0,0,2.21-.806,2.887,2.887,0,0,0,.858-2.185C14.511,252.966,14.5,252.62,14.476,252.289Zm0,0" transform="translate(53.648 68.388)" fill="#3f62ac"/>
    <path id="padlock" d="M14.556,6.6h-.55V4.4a4.4,4.4,0,1,0-8.8,0V6.6h-.55A1.653,1.653,0,0,0,3,8.254v7.7a1.653,1.653,0,0,0,1.651,1.651h9.905a1.653,1.653,0,0,0,1.651-1.651v-7.7A1.653,1.653,0,0,0,14.556,6.6ZM6.669,4.4a2.935,2.935,0,1,1,5.87,0V6.6H6.669Zm3.669,7.867v1.671a.734.734,0,1,1-1.467,0V12.269a1.467,1.467,0,1,1,1.467,0Z" transform="translate(51.3 366.195)" fill="#3f62ac"/>
    <g id="Path_4857" data-name="Path 4857" transform="translate(45 296)" fill="none">
      <path d="M5,0H280a5,5,0,0,1,5,5V35a5,5,0,0,1-5,5H5a5,5,0,0,1-5-5V5A5,5,0,0,1,5,0Z" stroke="none"/>
      <path d="M 5 1 C 2.794403076171875 1 1 2.794391632080078 1 5 L 1 35 C 1 37.20560836791992 2.794403076171875 39 5 39 L 280 39 C 282.2055969238281 39 284 37.20560836791992 284 35 L 284 5 C 284 2.794391632080078 282.2055969238281 1 280 1 L 5 1 M 5 0 L 280 0 C 282.7613830566406 0 285 2.238571166992188 285 5 L 285 35 C 285 37.76142883300781 282.7613830566406 40 280 40 L 5 40 C 2.23858642578125 40 0 37.76142883300781 0 35 L 0 5 C 0 2.238571166992188 2.23858642578125 0 5 0 Z" stroke="none" fill="#056dbc"/>
    </g>
    <g id="Path_4858" data-name="Path 4858" transform="translate(45 355)" fill="none">
      <path d="M5,0H280a5,5,0,0,1,5,5V35a5,5,0,0,1-5,5H5a5,5,0,0,1-5-5V5A5,5,0,0,1,5,0Z" stroke="none"/>
      <path d="M 5 1 C 2.794403076171875 1 1 2.794391632080078 1 5 L 1 35 C 1 37.20560836791992 2.794403076171875 39 5 39 L 280 39 C 282.2055969238281 39 284 37.20560836791992 284 35 L 284 5 C 284 2.794391632080078 282.2055969238281 1 280 1 L 5 1 M 5 0 L 280 0 C 282.7613830566406 0 285 2.238571166992188 285 5 L 285 35 C 285 37.76142883300781 282.7613830566406 40 280 40 L 5 40 C 2.23858642578125 40 0 37.76142883300781 0 35 L 0 5 C 0 2.238571166992188 2.23858642578125 0 5 0 Z" stroke="none" fill="#056dbc"/>
    </g>
    <path id="Oval" d="M12.731,0A12.731,12.731,0,1,1,0,12.731,12.731,12.731,0,0,1,12.731,0Z" transform="translate(114 584.4)" fill="#1977f3"/>
    <path id="Path" d="M10.178,11.44l.564-3.681H7.211V5.371A1.841,1.841,0,0,1,9.286,3.382h1.606V.249A19.571,19.571,0,0,0,8.042,0C5.135,0,3.233,1.762,3.233,4.954V7.759H0V11.44H3.233v8.9a12.781,12.781,0,0,0,1.989.154,13,13,0,0,0,1.989-.154v-8.9Z" transform="translate(121.509 589.372)" fill="#fff"/>
    <path id="Path-2" data-name="Path" d="M12.479,2.587A14.678,14.678,0,0,0,12.255,0H0V4.9H7.018a5.887,5.887,0,0,1-2.6,3.869v3.181H8.607A12.309,12.309,0,0,0,12.479,2.587Z" transform="translate(187.758 594.838)" fill="#4285f4"/>
    <path id="Path-3" data-name="Path" d="M11.61,10.291a12.587,12.587,0,0,0,8.612-3.073L16.036,4.037a7.891,7.891,0,0,1-4.421,1.216A7.762,7.762,0,0,1,4.32,0H0V3.279A13.025,13.025,0,0,0,11.61,10.291Z" transform="translate(176.148 599.571)" fill="#34a853"/>
    <path id="Path-4" data-name="Path" d="M5.7,8.153a7.48,7.48,0,0,1,0-4.874V0H1.382a12.512,12.512,0,0,0,0,11.433L5.7,8.153Z" transform="translate(174.764 591.419)" fill="#fbbc04"/>
    <path id="Path-5" data-name="Path" d="M11.61,5.039a7.14,7.14,0,0,1,4.984,1.909L20.3,3.313A12.63,12.63,0,0,0,11.61,0,13.021,13.021,0,0,0,0,7.018L4.316,10.3A7.755,7.755,0,0,1,11.61,5.039Z" transform="translate(176.148 584.4)" fill="#ea4335"/>
    <path id="Forgot_password_" data-name="Forgot password?" d="M1.008-.852a.917.917,0,0,0,.924.924.917.917,0,0,0,.924-.924v-2.4H6.1a.835.835,0,0,0,.84-.84.835.835,0,0,0-.84-.84H2.856V-6.72h3.78a.835.835,0,0,0,.84-.84.835.835,0,0,0-.84-.84h-4.7a.917.917,0,0,0-.924.924Zm10.656,1A3.376,3.376,0,0,0,15.156-3.2v-.024a3.343,3.343,0,0,0-3.468-3.324A3.376,3.376,0,0,0,8.2-3.2v.024A3.343,3.343,0,0,0,11.664.144Zm.024-1.572A1.709,1.709,0,0,1,10-3.2v-.024A1.648,1.648,0,0,1,11.664-4.98,1.709,1.709,0,0,1,13.356-3.2v.024A1.648,1.648,0,0,1,11.688-1.428Zm4.788.588a.912.912,0,0,0,.912.912A.912.912,0,0,0,18.3-.84v-1.7c0-1.3.516-2,1.44-2.22a.839.839,0,0,0,.684-.852.831.831,0,0,0-.888-.888c-.54,0-.972.576-1.236,1.2v-.288a.912.912,0,0,0-.912-.912.912.912,0,0,0-.912.912Zm7.776,2.784a3.77,3.77,0,0,0,2.772-.864,3.45,3.45,0,0,0,.816-2.532v-4.14a.912.912,0,0,0-.912-.912.909.909,0,0,0-.912.9v.012a2.6,2.6,0,0,0-2.076-.96,2.831,2.831,0,0,0-2.856,3v.024a2.825,2.825,0,0,0,2.856,3,2.516,2.516,0,0,0,2.1-1.044v.312C26.04-.108,25.452.492,24.2.492A4.157,4.157,0,0,1,22.428.108.745.745,0,1,0,21.9,1.5,6.167,6.167,0,0,0,24.252,1.944Zm.216-3.984a1.469,1.469,0,0,1-1.56-1.488v-.024a1.476,1.476,0,0,1,1.56-1.488A1.486,1.486,0,0,1,26.04-3.552v.024A1.486,1.486,0,0,1,24.468-2.04ZM32.628.144A3.376,3.376,0,0,0,36.12-3.2v-.024a3.343,3.343,0,0,0-3.468-3.324A3.376,3.376,0,0,0,29.16-3.2v.024A3.343,3.343,0,0,0,32.628.144Zm.024-1.572A1.709,1.709,0,0,1,30.96-3.2v-.024A1.648,1.648,0,0,1,32.628-4.98,1.709,1.709,0,0,1,34.32-3.2v.024A1.648,1.648,0,0,1,32.652-1.428ZM39.612.108a2.692,2.692,0,0,0,1.044-.18.742.742,0,0,0,.468-.684.761.761,0,0,0-.756-.756c-.036,0-.156.012-.216.012-.408,0-.588-.2-.588-.624V-4.872h.8a.778.778,0,0,0,.78-.78.778.778,0,0,0-.78-.78h-.8v-.8a.912.912,0,0,0-.912-.912.912.912,0,0,0-.912.912v.8h-.06a.778.778,0,0,0-.78.78.778.778,0,0,0,.78.78h.06v3.048C37.74-.336,38.5.108,39.612.108Zm6.408.972a.912.912,0,1,0,1.824,0V-.84a2.47,2.47,0,0,0,2,.96A3.014,3.014,0,0,0,52.776-3.2v-.024a3.027,3.027,0,0,0-2.928-3.324,2.362,2.362,0,0,0-2,1.044v-.084a.912.912,0,0,0-.912-.912.912.912,0,0,0-.912.912Zm3.36-2.508A1.632,1.632,0,0,1,47.82-3.2v-.024A1.632,1.632,0,0,1,49.38-5a1.64,1.64,0,0,1,1.572,1.776V-3.2A1.633,1.633,0,0,1,49.38-1.428ZM55.944.12A2.473,2.473,0,0,0,57.888-.7v.012a.817.817,0,0,0,.876.756A.876.876,0,0,0,59.652-.8V-3.732a2.8,2.8,0,0,0-.7-2.052,2.969,2.969,0,0,0-2.172-.72,5.6,5.6,0,0,0-2.052.336.756.756,0,0,0-.492.708A.743.743,0,0,0,55-4.716a.772.772,0,0,0,.264-.048,4.183,4.183,0,0,1,1.26-.18c.912,0,1.38.42,1.38,1.176v.108a4.57,4.57,0,0,0-1.572-.264c-1.524,0-2.592.648-2.592,2.052v.024A1.99,1.99,0,0,0,55.944.12ZM56.5-1.14c-.588,0-1-.288-1-.78v-.024c0-.576.48-.888,1.26-.888a2.828,2.828,0,0,1,1.164.24v.324C57.924-1.608,57.348-1.14,56.5-1.14ZM63.48.12c1.392,0,2.46-.648,2.46-2.076V-1.98C65.94-3.156,64.9-3.588,64-3.888c-.7-.24-1.308-.408-1.308-.768V-4.68c0-.252.228-.444.672-.444a3.43,3.43,0,0,1,1.392.408.666.666,0,0,0,.336.084.717.717,0,0,0,.732-.72.743.743,0,0,0-.432-.684A4.522,4.522,0,0,0,63.4-6.528a2.1,2.1,0,0,0-2.352,2.04v.024c0,1.248,1.02,1.668,1.92,1.932.708.216,1.332.348,1.332.744v.024c0,.288-.24.48-.768.48a3.387,3.387,0,0,1-1.74-.576.7.7,0,0,0-.36-.1.707.707,0,0,0-.72.72.727.727,0,0,0,.348.624A4.482,4.482,0,0,0,63.48.12Zm5.9,0c1.392,0,2.46-.648,2.46-2.076V-1.98c0-1.176-1.044-1.608-1.944-1.908-.7-.24-1.308-.408-1.308-.768V-4.68c0-.252.228-.444.672-.444a3.43,3.43,0,0,1,1.392.408.666.666,0,0,0,.336.084.717.717,0,0,0,.732-.72.743.743,0,0,0-.432-.684A4.522,4.522,0,0,0,69.3-6.528a2.1,2.1,0,0,0-2.352,2.04v.024c0,1.248,1.02,1.668,1.92,1.932.708.216,1.332.348,1.332.744v.024c0,.288-.24.48-.768.48a3.387,3.387,0,0,1-1.74-.576.7.7,0,0,0-.36-.1.707.707,0,0,0-.72.72.727.727,0,0,0,.348.624A4.482,4.482,0,0,0,69.384.12Zm5.9,0h.06a1,1,0,0,0,.984-.78L77.364-3.9l1.02,3.24a1,1,0,0,0,.984.78h.06A1.045,1.045,0,0,0,80.436-.7l1.62-4.6a1.607,1.607,0,0,0,.06-.372.83.83,0,0,0-.852-.84.893.893,0,0,0-.876.7L79.38-2.52,78.36-5.784a.963.963,0,0,0-.936-.732h-.108a.963.963,0,0,0-.936.732L75.372-2.532,74.388-5.8A.91.91,0,0,0,73.5-6.5a.841.841,0,0,0-.876.828,1.538,1.538,0,0,0,.084.444L74.28-.7A1.045,1.045,0,0,0,75.288.12ZM86.28.144A3.376,3.376,0,0,0,89.772-3.2v-.024A3.343,3.343,0,0,0,86.3-6.552,3.376,3.376,0,0,0,82.812-3.2v.024A3.343,3.343,0,0,0,86.28.144ZM86.3-1.428A1.709,1.709,0,0,1,84.612-3.2v-.024A1.648,1.648,0,0,1,86.28-4.98,1.709,1.709,0,0,1,87.972-3.2v.024A1.648,1.648,0,0,1,86.3-1.428Zm4.788.588A.912.912,0,0,0,92,.072a.912.912,0,0,0,.912-.912v-1.7c0-1.3.516-2,1.44-2.22a.839.839,0,0,0,.684-.852.831.831,0,0,0-.888-.888c-.54,0-.972.576-1.236,1.2v-.288A.912.912,0,0,0,92-6.5a.912.912,0,0,0-.912.912Zm11.364-7.08a.912.912,0,0,0-.912-.912.912.912,0,0,0-.912.912v2.328a2.47,2.47,0,0,0-2-.96A3.014,3.014,0,0,0,95.7-3.228V-3.2A3.027,3.027,0,0,0,98.628.12a2.362,2.362,0,0,0,2-1.044V-.84a.912.912,0,0,0,.912.912.912.912,0,0,0,.912-.912ZM99.1-5a1.632,1.632,0,0,1,1.56,1.776V-3.2A1.632,1.632,0,0,1,99.1-1.428,1.64,1.64,0,0,1,97.524-3.2v-.024A1.633,1.633,0,0,1,99.1-5Zm7.212,2.22a.671.671,0,0,0,.648-.588l.036-.216c1.308-.264,2.364-.888,2.364-2.412v-.024c0-1.6-1.176-2.484-2.9-2.484a3.76,3.76,0,0,0-2.5.864.839.839,0,0,0-.312.648.85.85,0,0,0,.84.84.921.921,0,0,0,.54-.192,2.228,2.228,0,0,1,1.392-.48c.7,0,1.1.312,1.1.852v.024c0,.588-.48.912-1.524,1.044a.592.592,0,0,0-.552.72l.12.816a.661.661,0,0,0,.648.588Zm-1.14,1.812v.024a1.01,1.01,0,0,0,1.044,1.02,1.01,1.01,0,0,0,1.044-1.02V-.972a1.01,1.01,0,0,0-1.044-1.02A1.01,1.01,0,0,0,105.168-.972Z" transform="translate(220 416)" fill="#3f62ac"/>
    <path id="Path_4455" data-name="Path 4455" d="M0,0S95.9-58.458,60.446-23.033,115,0,115,0" transform="translate(35.5 256.5)" fill="none" stroke="#b7b7b7" stroke-width="1"/>
    <path id="Path_4859" data-name="Path 4859" d="M0,0H101" transform="translate(223.5 256.5)" fill="none" stroke="#b7b7b7" stroke-width="1"/>
    <path id="Path_4456" data-name="Path 4456" d="M16.37,0h.184a5.538,5.538,0,0,1-1.395,4.173A4.323,4.323,0,0,1,11.354,5.96a5.372,5.372,0,0,1,1.42-4.044A6.131,6.131,0,0,1,16.37,0Z" transform="translate(241.748 584)"/>
    <path id="Path_4457" data-name="Path 4457" d="M23.188,18.238v.051a15.047,15.047,0,0,1-2.153,4.151c-.821,1.13-1.827,2.651-3.624,2.651-1.552,0-2.584-1-4.175-1.025-1.683-.027-2.609.835-4.147,1.052H8.565a4.686,4.686,0,0,1-2.706-1.865,16.337,16.337,0,0,1-3.754-9.4V12.7A7.579,7.579,0,0,1,5.413,6.476a5.589,5.589,0,0,1,3.752-.869A9.439,9.439,0,0,1,11,6.134a5.077,5.077,0,0,0,1.837.551A4.411,4.411,0,0,0,14.13,6.29a7.931,7.931,0,0,1,4.147-.736,5.754,5.754,0,0,1,4.228,2.521,5.426,5.426,0,0,0-2.756,5.383A5.557,5.557,0,0,0,23.188,18.238Z" transform="translate(240.496 584.745)"/>
    <path id="Sign_In-2" data-name="Sign In" d="M1.26-.868A.855.855,0,0,0,2.128,0H5.8C7.98,0,9.422-.938,9.422-2.688v-.028A2.4,2.4,0,0,0,7.476-5.1a2.334,2.334,0,0,0,1.4-2.184v-.028a2.195,2.195,0,0,0-.658-1.624A3.538,3.538,0,0,0,5.656-9.8H2.128a.855.855,0,0,0-.868.868Zm1.694-4.8v-2.6H5.432c1.106,0,1.722.476,1.722,1.246V-7c0,.9-.742,1.33-1.848,1.33Zm0,4.144V-4.214h2.73c1.358,0,2.016.49,2.016,1.316v.028c0,.882-.714,1.344-1.89,1.344ZM14.686.168a3.865,3.865,0,0,0,3.962-3.85V-3.71a3.829,3.829,0,0,0-3.934-3.836,3.864,3.864,0,0,0-3.948,3.864v.028A3.823,3.823,0,0,0,14.686.168Zm.028-1.484A2.278,2.278,0,0,1,12.46-3.682V-3.71a2.219,2.219,0,0,1,2.226-2.352,2.285,2.285,0,0,1,2.268,2.38v.028A2.218,2.218,0,0,1,14.714-1.316ZM23.884.168a3.865,3.865,0,0,0,3.962-3.85V-3.71a3.829,3.829,0,0,0-3.934-3.836,3.864,3.864,0,0,0-3.948,3.864v.028A3.823,3.823,0,0,0,23.884.168Zm.028-1.484a2.278,2.278,0,0,1-2.254-2.366V-3.71a2.219,2.219,0,0,1,2.226-2.352,2.285,2.285,0,0,1,2.268,2.38v.028A2.218,2.218,0,0,1,23.912-1.316Zm5.656.546a.834.834,0,0,0,.84.84.837.837,0,0,0,.854-.84V-2.058l1.12-1.064L34.5-.308a.841.841,0,0,0,.742.378.766.766,0,0,0,.8-.77.9.9,0,0,0-.224-.56l-2.24-2.926,1.96-1.806a.961.961,0,0,0,.378-.714.744.744,0,0,0-.742-.77,1,1,0,0,0-.728.364L31.262-3.99V-9.45a.846.846,0,0,0-.854-.84.834.834,0,0,0-.84.84ZM37.66-9.3a.877.877,0,0,0,.966.84.877.877,0,0,0,.966-.84V-9.38a.867.867,0,0,0-.966-.826.867.867,0,0,0-.966.826ZM37.786-.77a.834.834,0,0,0,.84.84.837.837,0,0,0,.854-.84V-6.622a.848.848,0,0,0-.854-.854.837.837,0,0,0-.84.854Zm3.906,0a.834.834,0,0,0,.84.84.837.837,0,0,0,.854-.84v-3.4a1.644,1.644,0,0,1,1.666-1.834c1.008,0,1.582.658,1.582,1.806V-.77a.837.837,0,0,0,.854.84.825.825,0,0,0,.84-.84V-4.718A2.534,2.534,0,0,0,45.7-7.546a2.679,2.679,0,0,0-2.31,1.288v-.364a.848.848,0,0,0-.854-.854.837.837,0,0,0-.84.854Zm11.97,3.038A4.161,4.161,0,0,0,56.7,1.274a3.782,3.782,0,0,0,.938-2.786v-5.11a.848.848,0,0,0-.854-.854.842.842,0,0,0-.84.84v.35a3.19,3.19,0,0,0-2.59-1.26,3.334,3.334,0,0,0-3.36,3.472v.028a3.322,3.322,0,0,0,3.36,3.458,3.1,3.1,0,0,0,2.6-1.358v.574A2.067,2.067,0,0,1,53.62.9,4.52,4.52,0,0,1,51.352.308a.667.667,0,0,0-.308-.07.714.714,0,0,0-.714.7.693.693,0,0,0,.476.672A6.386,6.386,0,0,0,53.662,2.268Zm.14-4.3a2.013,2.013,0,0,1-2.1-2.03v-.028a2,2,0,0,1,2.1-2.03,2.065,2.065,0,0,1,2.17,2.03v.028A2.065,2.065,0,0,1,53.8-2.03ZM66.444.126H66.5A.936.936,0,0,0,67.41-.6L68.866-5,70.308-.6a.94.94,0,0,0,.924.728h.056a.985.985,0,0,0,.938-.756l2.016-5.684a1.4,1.4,0,0,0,.07-.378.786.786,0,0,0-.8-.784.845.845,0,0,0-.826.658L71.246-2.324,69.79-6.8a.9.9,0,0,0-.868-.672h-.1a.9.9,0,0,0-.868.672l-1.442,4.48L65.086-6.8a.864.864,0,0,0-.826-.672.793.793,0,0,0-.826.784,1.406,1.406,0,0,0,.084.434L65.506-.63A.963.963,0,0,0,66.444.126ZM75.88-9.3a.877.877,0,0,0,.966.84.877.877,0,0,0,.966-.84V-9.38a.867.867,0,0,0-.966-.826.867.867,0,0,0-.966.826ZM76.006-.77a.834.834,0,0,0,.84.84A.837.837,0,0,0,77.7-.77V-6.622a.848.848,0,0,0-.854-.854.837.837,0,0,0-.84.854Zm6.384.9a3.37,3.37,0,0,0,1.162-.2A.729.729,0,0,0,84-.728a.714.714,0,0,0-.714-.7,4.005,4.005,0,0,1-.42.042.807.807,0,0,1-.91-.924V-5.936h1.33a.735.735,0,0,0,.742-.728.735.735,0,0,0-.742-.728h-1.33v-1.26a.842.842,0,0,0-.84-.84.846.846,0,0,0-.854.84v1.26h-.28a.723.723,0,0,0-.728.728.723.723,0,0,0,.728.728h.28v3.892A1.9,1.9,0,0,0,82.39.126Zm3.276-.9a.834.834,0,0,0,.84.84.837.837,0,0,0,.854-.84v-3.4a1.644,1.644,0,0,1,1.666-1.834c1.008,0,1.582.658,1.582,1.806V-.77a.837.837,0,0,0,.854.84.825.825,0,0,0,.84-.84V-4.718A2.534,2.534,0,0,0,89.67-7.546a2.679,2.679,0,0,0-2.31,1.288V-9.45a.846.846,0,0,0-.854-.84.834.834,0,0,0-.84.84ZM97.86.168a3.865,3.865,0,0,0,3.962-3.85V-3.71a3.829,3.829,0,0,0-3.934-3.836A3.864,3.864,0,0,0,93.94-3.682v.028A3.823,3.823,0,0,0,97.86.168Zm.028-1.484a2.278,2.278,0,0,1-2.254-2.366V-3.71A2.219,2.219,0,0,1,97.86-6.062a2.285,2.285,0,0,1,2.268,2.38v.028A2.218,2.218,0,0,1,97.888-1.316ZM110.11-6.622a.857.857,0,0,0-.854-.854.848.848,0,0,0-.854.854v3.4a1.633,1.633,0,0,1-1.666,1.82c-1.008,0-1.582-.644-1.582-1.792v-3.43a.848.848,0,0,0-.854-.854.846.846,0,0,0-.84.854v3.934A2.538,2.538,0,0,0,106.092.154a2.66,2.66,0,0,0,2.31-1.3V-.77a.845.845,0,0,0,.854.84.846.846,0,0,0,.854-.84ZM114.7.126a3.37,3.37,0,0,0,1.162-.2.729.729,0,0,0,.448-.658.714.714,0,0,0-.714-.7,4.005,4.005,0,0,1-.42.042.807.807,0,0,1-.91-.924V-5.936h1.33a.735.735,0,0,0,.742-.728.735.735,0,0,0-.742-.728h-1.33v-1.26a.842.842,0,0,0-.84-.84.846.846,0,0,0-.854.84v1.26h-.28a.723.723,0,0,0-.728.728.723.723,0,0,0,.728.728h.28v3.892A1.9,1.9,0,0,0,114.7.126Zm7.574-.9a.834.834,0,0,0,.84.84.837.837,0,0,0,.854-.84V-9.45a.846.846,0,0,0-.854-.84.834.834,0,0,0-.84.84Zm7.42.938a3.865,3.865,0,0,0,3.962-3.85V-3.71a3.829,3.829,0,0,0-3.934-3.836,3.864,3.864,0,0,0-3.948,3.864v.028A3.823,3.823,0,0,0,129.7.168Zm.028-1.484a2.278,2.278,0,0,1-2.254-2.366V-3.71A2.219,2.219,0,0,1,129.7-6.062a2.285,2.285,0,0,1,2.268,2.38v.028A2.218,2.218,0,0,1,129.724-1.316Zm8.946,3.584a4.161,4.161,0,0,0,3.038-.994,3.782,3.782,0,0,0,.938-2.786v-5.11a.848.848,0,0,0-.854-.854.842.842,0,0,0-.84.84v.35a3.19,3.19,0,0,0-2.59-1.26A3.334,3.334,0,0,0,135-4.074v.028a3.322,3.322,0,0,0,3.36,3.458,3.1,3.1,0,0,0,2.6-1.358v.574A2.067,2.067,0,0,1,138.628.9,4.52,4.52,0,0,1,136.36.308a.667.667,0,0,0-.308-.07.714.714,0,0,0-.714.7.693.693,0,0,0,.476.672A6.386,6.386,0,0,0,138.67,2.268Zm.14-4.3a2.013,2.013,0,0,1-2.1-2.03v-.028a2,2,0,0,1,2.1-2.03,2.065,2.065,0,0,1,2.17,2.03v.028A2.065,2.065,0,0,1,138.81-2.03ZM144.746-9.3a.877.877,0,0,0,.966.84.877.877,0,0,0,.966-.84V-9.38a.867.867,0,0,0-.966-.826.867.867,0,0,0-.966.826Zm.126,8.526a.834.834,0,0,0,.84.84.837.837,0,0,0,.854-.84V-6.622a.848.848,0,0,0-.854-.854.837.837,0,0,0-.84.854Zm3.906,0a.834.834,0,0,0,.84.84.837.837,0,0,0,.854-.84v-3.4a1.644,1.644,0,0,1,1.666-1.834c1.008,0,1.582.658,1.582,1.806V-.77a.837.837,0,0,0,.854.84.825.825,0,0,0,.84-.84V-4.718a2.534,2.534,0,0,0-2.632-2.828,2.679,2.679,0,0,0-2.31,1.288v-.364a.848.848,0,0,0-.854-.854.837.837,0,0,0-.84.854Z" transform="translate(117 688)" fill="#fff"/>
  </g>
</svg>
