<svg xmlns="http://www.w3.org/2000/svg" xmlns:xlink="http://www.w3.org/1999/xlink" width="1920" height="1080" viewBox="0 0 1920 1080">
  <defs>
    <linearGradient id="linear-gradient" x1="0.5" y1="1" x2="0.5" gradientUnits="objectBoundingBox">
      <stop offset="0" stop-color="#00132d"/>
      <stop offset="1" stop-color="#0072aa"/>
      <stop offset="1" stop-color="#546172" stop-opacity="0"/>
    </linearGradient>
    <filter id="Path_289">
      <feOffset dy="3" input="SourceAlpha"/>
      <feGaussianBlur stdDeviation="3" result="blur"/>
      <feFlood flood-opacity="0.161" result="color"/>
      <feComposite operator="out" in="SourceGraphic" in2="blur"/>
      <feComposite operator="in" in="color"/>
      <feComposite operator="in" in2="SourceGraphic"/>
    </filter>
    <linearGradient id="linear-gradient-2" x1="0.014" y1="0.5" x2="1" y2="0.5" gradientUnits="objectBoundingBox">
      <stop offset="0"/>
      <stop offset="0.739" stop-color="#2b2b2b" stop-opacity="0.482"/>
      <stop offset="1" stop-color="#545454" stop-opacity="0"/>
    </linearGradient>
    <clipPath id="clip-_1.2_Add_new_drone">
      <rect width="1920" height="1080"/>
    </clipPath>
  </defs>
  <g id="_1.2_Add_new_drone" data-name="1.2 Add new drone" clip-path="url(#clip-_1.2_Add_new_drone)">
    <rect width="1920" height="1080" fill="#141f27"/>
    <g id="Group_271" data-name="Group 271" transform="translate(215 296.348)">
      <g id="Rectangle_338" data-name="Rectangle 338" transform="translate(0 -0.348)" fill="#303a41" stroke="#707070" stroke-width="1">
        <rect width="1583" height="439" rx="10" stroke="none"/>
        <rect x="0.5" y="0.5" width="1582" height="438" rx="9.5" fill="none"/>
      </g>
    </g>
    <g id="Rectangle_349" data-name="Rectangle 349" transform="translate(944 667)" fill="#141f27" stroke="#001d2b" stroke-width="3">
      <rect width="184" height="43" rx="5" stroke="none"/>
      <rect x="1.5" y="1.5" width="181" height="40" rx="3.5" fill="none"/>
    </g>
    <text id="Add" transform="translate(1036 697)" fill="#fff" font-size="20" font-family="HelveticaNeue-Medium, Helvetica Neue" font-weight="500"><tspan x="-18.89" y="0">Add</tspan></text>
    <text id="Checklist_1" data-name="Checklist 1" transform="translate(298 357)" fill="#fff" font-size="20" font-family="BaiJamjuree-Medium, Bai Jamjuree" font-weight="500"><tspan x="0" y="0">Checklist 1</tspan></text>
    <text id="Checklist_2" data-name="Checklist 2" transform="translate(298 462)" fill="#fff" font-size="20" font-family="BaiJamjuree-Medium, Bai Jamjuree" font-weight="500"><tspan x="0" y="0">Checklist 2</tspan></text>
    <text id="Checklist_3" data-name="Checklist 3" transform="translate(298 567)" fill="#fff" font-size="20" font-family="BaiJamjuree-Medium, Bai Jamjuree" font-weight="500"><tspan x="0" y="0">Checklist 3</tspan></text>
    <text id="Checklist" transform="translate(229 254)" fill="#fff" font-size="42" font-family="BaiJamjuree-Bold, Bai Jamjuree" font-weight="700"><tspan x="0" y="0">Checklist</tspan></text>
    <g id="Rectangle_310" data-name="Rectangle 310" transform="translate(298 371)" fill="none" stroke="#c7c7c7" stroke-linecap="round" stroke-linejoin="bevel" stroke-width="2">
      <rect width="1381" height="40" rx="8" stroke="none"/>
      <rect x="1" y="1" width="1379" height="38" rx="7" fill="none"/>
    </g>
    <g id="Rectangle_511" data-name="Rectangle 511" transform="translate(298 476)" fill="none" stroke="#c7c7c7" stroke-linecap="round" stroke-linejoin="bevel" stroke-width="2">
      <rect width="1381" height="40" rx="8" stroke="none"/>
      <rect x="1" y="1" width="1379" height="38" rx="7" fill="none"/>
    </g>
    <g id="Rectangle_512" data-name="Rectangle 512" transform="translate(298 581)" fill="none" stroke="#c7c7c7" stroke-linecap="round" stroke-linejoin="bevel" stroke-width="2">
      <rect width="1381" height="40" rx="8" stroke="none"/>
      <rect x="1" y="1" width="1379" height="38" rx="7" fill="none"/>
    </g>
    <g id="close-cross-in-circular-outlined-interface-button" transform="translate(1699.106 378.632)">
      <g id="Group_269" data-name="Group 269" transform="translate(0 0)">
        <g id="Group_267" data-name="Group 267" transform="translate(0 0)">
          <path id="Path_204" data-name="Path 204" d="M4.242,22.311A12.742,12.742,0,1,0,1.5,18.251,12.732,12.732,0,0,0,4.242,22.311ZM13.276,2.366A10.911,10.911,0,1,1,2.365,13.277,10.911,10.911,0,0,1,13.276,2.366Z" transform="translate(-0.478 -0.479)" fill="#fff"/>
          <path id="Path_205" data-name="Path 205" d="M12.8,25.6A12.8,12.8,0,0,1,7.816,1.007,12.8,12.8,0,0,1,17.78,24.59,12.72,12.72,0,0,1,12.8,25.6ZM12.8.045A12.757,12.757,0,0,0,7.833,24.55a12.757,12.757,0,0,0,9.93-23.5A12.675,12.675,0,0,0,12.8.045Zm0,23.687A10.933,10.933,0,0,1,5.067,5.068,10.933,10.933,0,1,1,20.529,20.53,10.861,10.861,0,0,1,12.8,23.732Zm0-21.822A10.889,10.889,0,0,0,5.1,20.5,10.889,10.889,0,1,0,20.5,5.1,10.818,10.818,0,0,0,12.8,1.91Z" transform="translate(0 -0.001)" fill="#fff"/>
        </g>
        <g id="Group_268" data-name="Group 268" transform="translate(7.756 7.756)">
          <path id="Path_206" data-name="Path 206" d="M178.918,188.414a.932.932,0,0,0,1.319,0l3.428-3.428,3.428,3.428a.933.933,0,0,0,1.319-1.319l-3.428-3.428,3.428-3.428a.933.933,0,1,0-1.319-1.319l-3.428,3.428-3.428-3.428a.933.933,0,1,0-1.319,1.319l3.428,3.428-3.428,3.428A.933.933,0,0,0,178.918,188.414Z" transform="translate(-178.623 -178.625)" fill="#fff"/>
          <path id="Path_207" data-name="Path 207" d="M187.277,188.231a.948.948,0,0,1-.675-.28l-3.413-3.413-3.413,3.413a.954.954,0,1,1-1.35-1.35l3.413-3.413-3.413-3.413a.954.954,0,0,1,1.35-1.35l3.413,3.413,3.413-3.413a.954.954,0,0,1,1.35,1.35l-3.413,3.413,3.413,3.413a.954.954,0,0,1-.675,1.629Zm-4.088-3.754,3.444,3.444a.911.911,0,1,0,1.288-1.288l-3.444-3.444,3.444-3.444a.911.911,0,1,0-1.288-1.288l-3.444,3.444-3.444-3.444a.911.911,0,0,0-1.288,1.288l3.444,3.444-3.444,3.444a.911.911,0,1,0,1.288,1.288Z" transform="translate(-178.147 -178.147)" fill="#fff"/>
        </g>
      </g>
    </g>
    <g id="close-cross-in-circular-outlined-interface-button-2" data-name="close-cross-in-circular-outlined-interface-button" transform="translate(1699.106 483.632)">
      <g id="Group_269-2" data-name="Group 269" transform="translate(0 0)">
        <g id="Group_267-2" data-name="Group 267" transform="translate(0 0)">
          <path id="Path_204-2" data-name="Path 204" d="M4.242,22.311A12.742,12.742,0,1,0,1.5,18.251,12.732,12.732,0,0,0,4.242,22.311ZM13.276,2.366A10.911,10.911,0,1,1,2.365,13.277,10.911,10.911,0,0,1,13.276,2.366Z" transform="translate(-0.478 -0.479)" fill="#fff"/>
          <path id="Path_205-2" data-name="Path 205" d="M12.8,25.6A12.8,12.8,0,0,1,7.816,1.007,12.8,12.8,0,0,1,17.78,24.59,12.72,12.72,0,0,1,12.8,25.6ZM12.8.045A12.757,12.757,0,0,0,7.833,24.55a12.757,12.757,0,0,0,9.93-23.5A12.675,12.675,0,0,0,12.8.045Zm0,23.687A10.933,10.933,0,0,1,5.067,5.068,10.933,10.933,0,1,1,20.529,20.53,10.861,10.861,0,0,1,12.8,23.732Zm0-21.822A10.889,10.889,0,0,0,5.1,20.5,10.889,10.889,0,1,0,20.5,5.1,10.818,10.818,0,0,0,12.8,1.91Z" transform="translate(0 -0.001)" fill="#fff"/>
        </g>
        <g id="Group_268-2" data-name="Group 268" transform="translate(7.756 7.756)">
          <path id="Path_206-2" data-name="Path 206" d="M178.918,188.414a.932.932,0,0,0,1.319,0l3.428-3.428,3.428,3.428a.933.933,0,0,0,1.319-1.319l-3.428-3.428,3.428-3.428a.933.933,0,1,0-1.319-1.319l-3.428,3.428-3.428-3.428a.933.933,0,1,0-1.319,1.319l3.428,3.428-3.428,3.428A.933.933,0,0,0,178.918,188.414Z" transform="translate(-178.623 -178.625)" fill="#fff"/>
          <path id="Path_207-2" data-name="Path 207" d="M187.277,188.231a.948.948,0,0,1-.675-.28l-3.413-3.413-3.413,3.413a.954.954,0,1,1-1.35-1.35l3.413-3.413-3.413-3.413a.954.954,0,0,1,1.35-1.35l3.413,3.413,3.413-3.413a.954.954,0,0,1,1.35,1.35l-3.413,3.413,3.413,3.413a.954.954,0,0,1-.675,1.629Zm-4.088-3.754,3.444,3.444a.911.911,0,1,0,1.288-1.288l-3.444-3.444,3.444-3.444a.911.911,0,1,0-1.288-1.288l-3.444,3.444-3.444-3.444a.911.911,0,0,0-1.288,1.288l3.444,3.444-3.444,3.444a.911.911,0,1,0,1.288,1.288Z" transform="translate(-178.147 -178.147)" fill="#fff"/>
        </g>
      </g>
    </g>
    <g id="close-cross-in-circular-outlined-interface-button-3" data-name="close-cross-in-circular-outlined-interface-button" transform="translate(1699.106 588.632)">
      <g id="Group_269-3" data-name="Group 269" transform="translate(0 0)">
        <g id="Group_267-3" data-name="Group 267">
          <path id="Path_204-3" data-name="Path 204" d="M4.242,22.311A12.742,12.742,0,1,0,1.5,18.251,12.732,12.732,0,0,0,4.242,22.311ZM13.276,2.366A10.911,10.911,0,1,1,2.365,13.277,10.911,10.911,0,0,1,13.276,2.366Z" transform="translate(-0.478 -0.479)" fill="#fff"/>
          <path id="Path_205-3" data-name="Path 205" d="M12.8,25.6A12.8,12.8,0,0,1,7.816,1.007,12.8,12.8,0,0,1,17.78,24.59,12.72,12.72,0,0,1,12.8,25.6ZM12.8.045A12.757,12.757,0,0,0,7.833,24.55a12.757,12.757,0,0,0,9.93-23.5A12.675,12.675,0,0,0,12.8.045Zm0,23.687A10.933,10.933,0,0,1,5.067,5.068,10.933,10.933,0,1,1,20.529,20.53,10.861,10.861,0,0,1,12.8,23.732Zm0-21.822A10.889,10.889,0,0,0,5.1,20.5,10.889,10.889,0,1,0,20.5,5.1,10.818,10.818,0,0,0,12.8,1.91Z" transform="translate(0 -0.001)" fill="#fff"/>
        </g>
        <g id="Group_268-3" data-name="Group 268" transform="translate(7.756 7.756)">
          <path id="Path_206-3" data-name="Path 206" d="M178.918,188.414a.932.932,0,0,0,1.319,0l3.428-3.428,3.428,3.428a.933.933,0,0,0,1.319-1.319l-3.428-3.428,3.428-3.428a.933.933,0,1,0-1.319-1.319l-3.428,3.428-3.428-3.428a.933.933,0,1,0-1.319,1.319l3.428,3.428-3.428,3.428A.933.933,0,0,0,178.918,188.414Z" transform="translate(-178.623 -178.625)" fill="#fff"/>
          <path id="Path_207-3" data-name="Path 207" d="M187.277,188.231a.948.948,0,0,1-.675-.28l-3.413-3.413-3.413,3.413a.954.954,0,1,1-1.35-1.35l3.413-3.413-3.413-3.413a.954.954,0,0,1,1.35-1.35l3.413,3.413,3.413-3.413a.954.954,0,0,1,1.35,1.35l-3.413,3.413,3.413,3.413a.954.954,0,0,1-.675,1.629Zm-4.088-3.754,3.444,3.444a.911.911,0,1,0,1.288-1.288l-3.444-3.444,3.444-3.444a.911.911,0,1,0-1.288-1.288l-3.444,3.444-3.444-3.444a.911.911,0,0,0-1.288,1.288l3.444,3.444-3.444,3.444a.911.911,0,1,0,1.288,1.288Z" transform="translate(-178.147 -178.147)" fill="#fff"/>
        </g>
      </g>
    </g>
    <rect id="Rectangle_348" data-name="Rectangle 348" width="184" height="43" rx="5" transform="translate(1614 1009)" fill="#303a41"/>
    <rect id="Rectangle_349-2" data-name="Rectangle 349" width="184" height="43" rx="5" transform="translate(1405 1009)" fill="#303a41"/>
    <rect id="Rectangle_428" data-name="Rectangle 428" width="184" height="43" rx="5" transform="translate(1195 1009)" fill="#303a41"/>
    <text id="Cancel" transform="translate(1497 1039)" fill="#fff" font-size="20" font-family="BaiJamjuree-Medium, Bai Jamjuree" font-weight="500"><tspan x="-31.97" y="0">Cancel</tspan></text>
    <text id="Back" transform="translate(1287 1039)" fill="#fff" font-size="20" font-family="BaiJamjuree-Medium, Bai Jamjuree" font-weight="500"><tspan x="-23.06" y="0">Back</tspan></text>
    <text id="Continue" transform="translate(1706 1039)" fill="#fff" font-size="20" font-family="BaiJamjuree-Medium, Bai Jamjuree" font-weight="500"><tspan x="-42.09" y="0">Continue</tspan></text>
    <g id="Navbar_add_drone" data-name="Navbar add drone">
      <g data-type="innerShadowGroup">
        <path id="Path_289-2" data-name="Path 289" d="M1.594,0h119.88c.88,0,1.594,2.608,1.594,5.825v1068.35c0,3.217-.714,5.825-1.594,5.825H1.594c-.88,0-1.594-2.608-1.594-5.825V5.825C0,2.608.714,0,1.594,0Z" fill="url(#linear-gradient)"/>
        <g transform="matrix(1, 0, 0, 1, 0, 0)" filter="url(#Path_289)">
          <path id="Path_289-3" data-name="Path 289" d="M1.594,0h119.88c.88,0,1.594,2.608,1.594,5.825v1068.35c0,3.217-.714,5.825-1.594,5.825H1.594c-.88,0-1.594-2.608-1.594-5.825V5.825C0,2.608.714,0,1.594,0Z" fill="#fff"/>
        </g>
      </g>
      <rect id="Rectangle_594" data-name="Rectangle 594" width="123.068" height="63" transform="translate(0 392.5)" fill="url(#linear-gradient-2)"/>
      <text id="Home" transform="translate(34.999 215.5)" fill="#fff" font-size="20" font-family="BaiJamjuree-Medium, Bai Jamjuree" font-weight="500"><tspan x="0" y="0">Home</tspan></text>
      <text id="Settings_" data-name="Settings " transform="translate(20 933.318)" fill="#fff" font-size="20" font-family="BaiJamjuree-Medium, Bai Jamjuree" font-weight="500"><tspan x="0" y="0">Settings </tspan></text>
      <text id="Log_out" data-name="Log out" transform="translate(26 1061.561)" fill="#fff" font-size="20" font-family="BaiJamjuree-Medium, Bai Jamjuree" font-weight="500"><tspan x="0" y="0">Log out</tspan></text>
      <text id="Drone" transform="translate(33.999 342.5)" fill="#fff" font-size="20" font-family="BaiJamjuree-Medium, Bai Jamjuree" font-weight="500"><tspan x="0" y="0">Drone</tspan></text>
      <text id="Add_drone" data-name="Add drone" transform="translate(14.522 479.962)" fill="#fff" font-size="20" font-family="BaiJamjuree-Medium, Bai Jamjuree" font-weight="500"><tspan x="0" y="0">Add drone</tspan></text>
      <g id="Group_367" data-name="Group 367" transform="translate(43 868.5)">
        <path id="settings-3" d="M34.855,14.435l-2.889-.367a14.522,14.522,0,0,0-.874-2.111l1.784-2.3a2.284,2.284,0,0,0-.187-3.041L30.268,4.2a2.29,2.29,0,0,0-3.05-.2L24.924,5.787a14.469,14.469,0,0,0-2.113-.874l-.367-2.884A2.3,2.3,0,0,0,20.16,0H16.718a2.3,2.3,0,0,0-2.283,2.024l-.367,2.889a14.3,14.3,0,0,0-2.113.874L9.659,4a2.286,2.286,0,0,0-3.041.187L4.2,6.609A2.291,2.291,0,0,0,4,9.661l1.784,2.3a14.352,14.352,0,0,0-.874,2.111l-2.884.367A2.3,2.3,0,0,0,0,16.718V20.16a2.3,2.3,0,0,0,2.024,2.283l2.889.367a14.521,14.521,0,0,0,.874,2.111L4,27.22a2.284,2.284,0,0,0,.187,3.041l2.42,2.42a2.292,2.292,0,0,0,3.05.194l2.3-1.784a14.186,14.186,0,0,0,2.111.874l.367,2.883a2.3,2.3,0,0,0,2.283,2.031H20.16a2.3,2.3,0,0,0,2.283-2.024l.367-2.889a14.522,14.522,0,0,0,2.111-.874l2.3,1.784a2.284,2.284,0,0,0,3.041-.187l2.42-2.42a2.289,2.289,0,0,0,.2-3.05l-1.784-2.3a14.187,14.187,0,0,0,.874-2.111l2.883-.367a2.3,2.3,0,0,0,2.028-2.283V16.718a2.3,2.3,0,0,0-2.022-2.283ZM18.439,26.123a7.683,7.683,0,1,1,7.683-7.683,7.692,7.692,0,0,1-7.683,7.683Z" transform="translate(0 0)" fill="#fff"/>
      </g>
      <g id="Group_368" data-name="Group 368" transform="translate(37 1004.682)">
        <g id="exit" transform="translate(0 0)">
          <g id="Group_35" data-name="Group 35" transform="translate(0 0)">
            <g id="Group_34" data-name="Group 34">
              <path id="Path_44" data-name="Path 44" d="M10.756,18.443a4.616,4.616,0,0,0-4.61-4.61H0V1.54A1.536,1.536,0,0,1,1.537,0H23.049A1.536,1.536,0,0,1,24.586,1.54V35.345a1.536,1.536,0,0,1-1.537,1.537H1.537A1.536,1.536,0,0,1,0,35.345V23.052H6.146A4.616,4.616,0,0,0,10.756,18.443Z" transform="translate(12.293 -0.003)" fill="#fff"/>
              <path id="Path_45" data-name="Path 45" d="M235.013,157.984l-.013-.018c-.026-.033-.052-.067-.075-.1-.011-.017-.02-.034-.031-.051s-.031-.051-.046-.077-.021-.044-.032-.066-.022-.045-.032-.069-.019-.051-.028-.076-.016-.042-.022-.064-.016-.061-.023-.091-.009-.035-.013-.053c-.008-.042-.014-.084-.019-.126,0-.007,0-.014,0-.022a1.546,1.546,0,0,1,0-.311c0-.007,0-.014,0-.022,0-.042.011-.084.019-.126,0-.018.009-.036.013-.053s.014-.061.023-.091.015-.043.022-.064.018-.051.028-.077.021-.046.032-.069.02-.044.032-.066.03-.052.046-.077.02-.034.031-.051c.024-.035.049-.069.075-.1l.013-.018a1.536,1.536,0,0,1,.11-.121l6.141-6.141a1.536,1.536,0,1,1,2.173,2.173l-3.523,3.523h13.193a1.537,1.537,0,1,1,0,3.073H239.913l3.523,3.523a1.536,1.536,0,1,1-2.173,2.173l-6.141-6.141A1.524,1.524,0,0,1,235.013,157.984Z" transform="translate(-234.667 -138.573)" fill="#fff"/>
            </g>
          </g>
        </g>
      </g>
      <g id="propeller" transform="translate(40.999 272.5)">
        <g id="Group_144" data-name="Group 144" transform="translate(13.018 0)">
          <g id="Group_143" data-name="Group 143">
            <path id="Path_113" data-name="Path 113" d="M178.39,36.308l-3.682-11.477A1.192,1.192,0,0,0,173.573,24h-4.909a1.192,1.192,0,0,0-1.135.828l-3.682,11.477a1.186,1.186,0,0,0-.015.678l.618,2.264a9.715,9.715,0,0,1,13.338,0l.618-2.264A1.186,1.186,0,0,0,178.39,36.308Z" transform="translate(-163.79 -24.003)" fill="#fff"/>
          </g>
        </g>
        <g id="Group_146" data-name="Group 146" transform="translate(0 20.458)">
          <g id="Group_145" data-name="Group 145" transform="translate(0 0)">
            <path id="Path_114" data-name="Path 114" d="M13,289.6A9.71,9.71,0,0,1,10.81,281.4l-2.245.691A1.2,1.2,0,0,0,8,282.47L.276,291.725a1.192,1.192,0,0,0-.091,1.4l2.629,4.143a1.193,1.193,0,0,0,1.307.515l11.669-3.04a1.2,1.2,0,0,0,.58-.35l1.582-1.733A9.722,9.722,0,0,1,13,289.6Z" transform="translate(0 -281.403)" fill="#fff"/>
          </g>
        </g>
        <g id="Group_148" data-name="Group 148" transform="translate(13.018 14.981)">
          <g id="Group_147" data-name="Group 147" transform="translate(0 0)">
            <path id="Path_115" data-name="Path 115" d="M171.12,212.493a7.325,7.325,0,1,0,7.329,7.325A7.328,7.328,0,0,0,171.12,212.493Z" transform="translate(-163.791 -212.493)" fill="#fff"/>
          </g>
        </g>
        <g id="Group_150" data-name="Group 150" transform="translate(22.741 20.458)">
          <g id="Group_149" data-name="Group 149" transform="translate(0 0)">
            <path id="Path_116" data-name="Path 116" d="M303.8,291.725l-7.725-9.255a1.2,1.2,0,0,0-.564-.376l-2.245-.691a9.712,9.712,0,0,1-7.143,11.258l1.582,1.734a1.2,1.2,0,0,0,.58.35l11.669,3.04a1.193,1.193,0,0,0,1.307-.515l2.629-4.143A1.192,1.192,0,0,0,303.8,291.725Z" transform="translate(-286.121 -281.403)" fill="#fff"/>
          </g>
        </g>
      </g>
      <line id="Line_86" data-name="Line 86" x2="123" transform="translate(0.5 971.5)" fill="none" stroke="#0072aa" stroke-width="3"/>
      <g id="Group_369" data-name="Group 369" transform="translate(42.001 145.5)">
        <path id="Path_224" data-name="Path 224" d="M16.439,0a2,2,0,0,1,2,2V15.021a2,2,0,0,1-2,2H2a2,2,0,0,1-2-2Z" fill="#fff"/>
        <rect id="Rectangle_63" data-name="Rectangle 63" width="18.439" height="17.021" rx="2" transform="translate(21.275)" fill="#fff"/>
        <rect id="Rectangle_64" data-name="Rectangle 64" width="18.439" height="17.021" rx="2" transform="translate(21.275 19.857)" fill="#fff"/>
        <rect id="Rectangle_65" data-name="Rectangle 65" width="18.439" height="17.021" rx="2" transform="translate(0 19.857)" fill="#fff"/>
      </g>
      <rect id="Rectangle_593" data-name="Rectangle 593" width="124" height="92" transform="translate(3)" fill="none"/>
      <line id="Line_87" data-name="Line 87" x2="123.5" transform="translate(0 100.5)" fill="none" stroke="#031732" stroke-width="3"/>
      <g id="left-arrow" transform="translate(47.754 28.004)">
        <g id="Group_366" data-name="Group 366">
          <path id="Path_288" data-name="Path 288" d="M108.585,18,122.05,4.539a1.973,1.973,0,0,0,0-2.784L120.87.575a1.972,1.972,0,0,0-2.784,0L102.054,16.607a1.987,1.987,0,0,0,0,2.794l16.017,16.016a1.972,1.972,0,0,0,2.785,0l1.18-1.179a1.971,1.971,0,0,0,0-2.784Z" transform="translate(-101.48 0)" fill="#fff"/>
        </g>
      </g>
      <path id="Exclusion_9" data-name="Exclusion 9" d="M33.1,36.881H4.949A4.958,4.958,0,0,1,0,31.928V4.955A4.958,4.958,0,0,1,4.949,0H33.1a4.957,4.957,0,0,1,4.949,4.955V31.928A4.956,4.956,0,0,1,33.1,36.881ZM9.541,16.275a2.093,2.093,0,1,0,0,4.186H17v7.461a2.092,2.092,0,1,0,4.184,0V20.461H28.5a2.093,2.093,0,1,0,0-4.186h-7.32V8.955a2.092,2.092,0,0,0-4.184,0v7.32Z" transform="translate(39.304 405.56)" fill="#fff"/>
    </g>
    <text id="Choose_the_drone" data-name="Choose the drone" transform="translate(323 92)" fill="#fff" font-size="28" font-family="BaiJamjuree-Medium, Bai Jamjuree" font-weight="500"><tspan x="-115.178" y="0">Choose the drone</tspan></text>
    <text id="Create_the_checklist_" data-name="Create the checklist " transform="translate(678 92)" fill="#fff" font-size="28" font-family="BaiJamjuree-Medium, Bai Jamjuree" font-weight="500"><tspan x="-134.82" y="0">Create the checklist </tspan></text>
    <text id="Choose_platform_for_the_drone" data-name="Choose platform for the drone" transform="translate(1128 92)" fill="#505050" font-size="28" font-family="BaiJamjuree-Medium, Bai Jamjuree" font-weight="500"><tspan x="-195.846" y="0">Choose platform for the drone</tspan></text>
    <text id="Install_the_drone_on_the_platform" data-name="Install the drone on the platform" transform="translate(1630 92)" fill="#505050" font-size="28" font-family="BaiJamjuree-Medium, Bai Jamjuree" font-weight="500"><tspan x="-210.434" y="0">Install the drone on the platform</tspan></text>
    <rect id="Rectangle_842" data-name="Rectangle 842" width="146" height="15" rx="7.5" transform="translate(250 41)" fill="#2b9ad0"/>
    <rect id="Rectangle_843" data-name="Rectangle 843" width="146" height="15" rx="7.5" transform="translate(605 41)" fill="#2b9ad0"/>
    <g id="Rectangle_844" data-name="Rectangle 844" transform="translate(1053 41)" fill="#141f27" stroke="#2b9ad0" stroke-width="1">
      <rect width="146" height="15" rx="7.5" stroke="none"/>
      <rect x="0.5" y="0.5" width="145" height="14" rx="7" fill="none"/>
    </g>
    <g id="Rectangle_845" data-name="Rectangle 845" transform="translate(1557 41)" fill="#141f27" stroke="#2b9ad0" stroke-width="1">
      <rect width="146" height="15" rx="7.5" stroke="none"/>
      <rect x="0.5" y="0.5" width="145" height="14" rx="7" fill="none"/>
    </g>
    <line id="Line_88" data-name="Line 88" x2="184" transform="translate(407.5 48.5)" fill="none" stroke="#2b9ad0" stroke-linecap="round" stroke-width="1"/>
    <line id="Line_89" data-name="Line 89" x2="273" transform="translate(764.5 48.5)" fill="none" stroke="#2b9ad0" stroke-linecap="round" stroke-width="1"/>
    <line id="Line_90" data-name="Line 90" x2="330" transform="translate(1216.5 48.5)" fill="none" stroke="#2b9ad0" stroke-linecap="round" stroke-width="1"/>
  </g>
</svg>
