<svg xmlns="http://www.w3.org/2000/svg" xmlns:xlink="http://www.w3.org/1999/xlink" width="1920" height="1071" viewBox="0 0 1920 1071">
  <defs>
    <linearGradient id="linear-gradient" x1="0.5" y1="1" x2="0.5" gradientUnits="objectBoundingBox">
      <stop offset="0" stop-color="#00112b"/>
      <stop offset="1" stop-color="#0072aa"/>
      <stop offset="1" stop-color="#546172" stop-opacity="0"/>
    </linearGradient>
    <filter id="Path_289">
      <feOffset dy="3" input="SourceAlpha"/>
      <feGaussianBlur stdDeviation="3" result="blur"/>
      <feFlood flood-opacity="0.161" result="color"/>
      <feComposite operator="out" in="SourceGraphic" in2="blur"/>
      <feComposite operator="in" in="color"/>
      <feComposite operator="in" in2="SourceGraphic"/>
    </filter>
    <linearGradient id="linear-gradient-2" x1="0.014" y1="0.5" x2="1" y2="0.5" gradientUnits="objectBoundingBox">
      <stop offset="0"/>
      <stop offset="0.739" stop-color="#2b2b2b" stop-opacity="0.482"/>
      <stop offset="1" stop-color="#545454" stop-opacity="0"/>
    </linearGradient>
    <clipPath id="clip-_1.0_station_database_">
      <rect width="1920" height="1071"/>
    </clipPath>
  </defs>
  <g id="_1.0_station_database_" data-name="1.0 station database " clip-path="url(#clip-_1.0_station_database_)">
    <rect width="1920" height="1071" fill="#141f27"/>
    <rect id="Rectangle_338" data-name="Rectangle 338" width="503" height="91" rx="5" transform="translate(224 271)" fill="#303a41"/>
    <rect id="Rectangle_696" data-name="Rectangle 696" width="503" height="91" rx="5" transform="translate(224 385)" fill="#0072aa"/>
    <rect id="Rectangle_697" data-name="Rectangle 697" width="503" height="91" rx="5" transform="translate(224 499)" fill="#303a41"/>
    <rect id="Rectangle_698" data-name="Rectangle 698" width="503" height="91" rx="5" transform="translate(224 613)" fill="#303a41"/>
    <rect id="Rectangle_699" data-name="Rectangle 699" width="503" height="91" rx="5" transform="translate(224 727)" fill="#303a41"/>
    <rect id="Rectangle_700" data-name="Rectangle 700" width="503" height="91" rx="5" transform="translate(224 841)" fill="#303a41"/>
    <g id="drone-5" transform="translate(235.079 294)">
      <g id="Group_169" data-name="Group 169" transform="translate(0 0)">
        <g id="Group_168" data-name="Group 168">
          <path id="Path_147" data-name="Path 147" d="M62.453,185.85,58.06,183.2a1.231,1.231,0,0,0-1.273,2.108l2.648,1.6-12.767,7.71-11.821-7.142a8.128,8.128,0,0,0-.5-.836l8.113-4.9a8.449,8.449,0,0,0,3.3,4.781,1.232,1.232,0,0,0,1.344,0,8.229,8.229,0,0,0,3.507-6.56,8.122,8.122,0,0,0-3.516-6.529,1.232,1.232,0,0,0-1.326,0,7.915,7.915,0,0,0-1.557,1.4l-8.491-5.128a8.181,8.181,0,0,0-3.5-5.994,1.232,1.232,0,0,0-1.326,0,8.187,8.187,0,0,0-3.492,5.949l-.024.013-8.575,5.178a7.929,7.929,0,0,0-1.572-1.422,1.232,1.232,0,0,0-1.326,0,8.272,8.272,0,0,0-3.4,5.227L.595,185.85a1.231,1.231,0,0,0,0,2.108l30.293,18.294a1.232,1.232,0,0,0,1.273,0l30.293-18.294a1.232,1.232,0,0,0,0-2.108Zm-16.022-9.794a5.446,5.446,0,0,1,1.716,3.9,5.531,5.531,0,0,1-1.716,3.928,5.537,5.537,0,0,1-1.716-3.928A5.448,5.448,0,0,1,46.431,176.055Zm-14.869-9.718a5.445,5.445,0,0,1,1.716,3.9,5.531,5.531,0,0,1-1.716,3.928,5.537,5.537,0,0,1-1.716-3.928A5.447,5.447,0,0,1,31.561,166.337Zm-14.989,9.718a5.446,5.446,0,0,1,1.716,3.9,5.531,5.531,0,0,1-1.716,3.928,5.537,5.537,0,0,1-1.716-3.928A5.447,5.447,0,0,1,16.573,176.055ZM3.613,186.9l8.938-5.4a8.42,8.42,0,0,0,3.349,5.012,1.232,1.232,0,0,0,1.344,0,8.229,8.229,0,0,0,3.507-6.56,7.519,7.519,0,0,0-.627-3.025l7.559-4.565A8.489,8.489,0,0,0,30.89,176.8a1.232,1.232,0,0,0,1.344,0,8.491,8.491,0,0,0,3.2-4.393l7.459,4.5a7.5,7.5,0,0,0-.568,2.034l-9.606,5.8c-.022.014-.043.029-.064.043a5.614,5.614,0,0,0-.463-.342,1.232,1.232,0,0,0-1.326,0,5.643,5.643,0,0,0-.46.339l-2.327-1.406A1.231,1.231,0,0,0,26.8,185.49l1.9,1.147a8.117,8.117,0,0,0-.5.836l-11.823,7.14Zm29.626,4.073a5.531,5.531,0,0,1-1.716,3.928,5.537,5.537,0,0,1-1.716-3.928,5.447,5.447,0,0,1,1.715-3.9A5.445,5.445,0,0,1,33.24,190.977Zm-1.716,12.782L18.76,196.051l8.589-5.187c0,.038,0,.075,0,.113a8.229,8.229,0,0,0,3.507,6.56,1.232,1.232,0,0,0,1.344,0,8.229,8.229,0,0,0,3.507-6.56c0-.038,0-.075,0-.112l8.586,5.188Z" transform="translate(0 -163.517)" fill="#fff"/>
        </g>
      </g>
      <g id="Group_171" data-name="Group 171" transform="translate(22.595 17.506)">
        <g id="Group_170" data-name="Group 170">
          <path id="Path_148" data-name="Path 148" d="M185.592,306.041a1.231,1.231,0,1,0,.361.871A1.241,1.241,0,0,0,185.592,306.041Z" transform="translate(-183.49 -305.68)" fill="#fff"/>
        </g>
      </g>
    </g>
    <g id="drone-5-2" data-name="drone-5" transform="translate(235.079 408)">
      <g id="Group_169-2" data-name="Group 169" transform="translate(0 0)">
        <g id="Group_168-2" data-name="Group 168">
          <path id="Path_147-2" data-name="Path 147" d="M62.453,185.85,58.06,183.2a1.231,1.231,0,0,0-1.273,2.108l2.648,1.6-12.767,7.71-11.821-7.142a8.128,8.128,0,0,0-.5-.836l8.113-4.9a8.449,8.449,0,0,0,3.3,4.781,1.232,1.232,0,0,0,1.344,0,8.229,8.229,0,0,0,3.507-6.56,8.122,8.122,0,0,0-3.516-6.529,1.232,1.232,0,0,0-1.326,0,7.915,7.915,0,0,0-1.557,1.4l-8.491-5.128a8.181,8.181,0,0,0-3.5-5.994,1.232,1.232,0,0,0-1.326,0,8.187,8.187,0,0,0-3.492,5.949l-.024.013-8.575,5.178a7.929,7.929,0,0,0-1.572-1.422,1.232,1.232,0,0,0-1.326,0,8.272,8.272,0,0,0-3.4,5.227L.595,185.85a1.231,1.231,0,0,0,0,2.108l30.293,18.294a1.232,1.232,0,0,0,1.273,0l30.293-18.294a1.232,1.232,0,0,0,0-2.108Zm-16.022-9.794a5.446,5.446,0,0,1,1.716,3.9,5.531,5.531,0,0,1-1.716,3.928,5.537,5.537,0,0,1-1.716-3.928A5.448,5.448,0,0,1,46.431,176.055Zm-14.869-9.718a5.445,5.445,0,0,1,1.716,3.9,5.531,5.531,0,0,1-1.716,3.928,5.537,5.537,0,0,1-1.716-3.928A5.447,5.447,0,0,1,31.561,166.337Zm-14.989,9.718a5.446,5.446,0,0,1,1.716,3.9,5.531,5.531,0,0,1-1.716,3.928,5.537,5.537,0,0,1-1.716-3.928A5.447,5.447,0,0,1,16.573,176.055ZM3.613,186.9l8.938-5.4a8.42,8.42,0,0,0,3.349,5.012,1.232,1.232,0,0,0,1.344,0,8.229,8.229,0,0,0,3.507-6.56,7.519,7.519,0,0,0-.627-3.025l7.559-4.565A8.489,8.489,0,0,0,30.89,176.8a1.232,1.232,0,0,0,1.344,0,8.491,8.491,0,0,0,3.2-4.393l7.459,4.5a7.5,7.5,0,0,0-.568,2.034l-9.606,5.8c-.022.014-.043.029-.064.043a5.614,5.614,0,0,0-.463-.342,1.232,1.232,0,0,0-1.326,0,5.643,5.643,0,0,0-.46.339l-2.327-1.406A1.231,1.231,0,0,0,26.8,185.49l1.9,1.147a8.117,8.117,0,0,0-.5.836l-11.823,7.14Zm29.626,4.073a5.531,5.531,0,0,1-1.716,3.928,5.537,5.537,0,0,1-1.716-3.928,5.447,5.447,0,0,1,1.715-3.9A5.445,5.445,0,0,1,33.24,190.977Zm-1.716,12.782L18.76,196.051l8.589-5.187c0,.038,0,.075,0,.113a8.229,8.229,0,0,0,3.507,6.56,1.232,1.232,0,0,0,1.344,0,8.229,8.229,0,0,0,3.507-6.56c0-.038,0-.075,0-.112l8.586,5.188Z" transform="translate(0 -163.517)" fill="#fff"/>
        </g>
      </g>
      <g id="Group_171-2" data-name="Group 171" transform="translate(22.595 17.506)">
        <g id="Group_170-2" data-name="Group 170">
          <path id="Path_148-2" data-name="Path 148" d="M185.592,306.041a1.231,1.231,0,1,0,.361.871A1.241,1.241,0,0,0,185.592,306.041Z" transform="translate(-183.49 -305.68)" fill="#fff"/>
        </g>
      </g>
    </g>
    <g id="drone-5-3" data-name="drone-5" transform="translate(235.079 522)">
      <g id="Group_169-3" data-name="Group 169" transform="translate(0 0)">
        <g id="Group_168-3" data-name="Group 168">
          <path id="Path_147-3" data-name="Path 147" d="M62.453,185.85,58.06,183.2a1.231,1.231,0,0,0-1.273,2.108l2.648,1.6-12.767,7.71-11.821-7.142a8.128,8.128,0,0,0-.5-.836l8.113-4.9a8.449,8.449,0,0,0,3.3,4.781,1.232,1.232,0,0,0,1.344,0,8.229,8.229,0,0,0,3.507-6.56,8.122,8.122,0,0,0-3.516-6.529,1.232,1.232,0,0,0-1.326,0,7.915,7.915,0,0,0-1.557,1.4l-8.491-5.128a8.181,8.181,0,0,0-3.5-5.994,1.232,1.232,0,0,0-1.326,0,8.187,8.187,0,0,0-3.492,5.949l-.024.013-8.575,5.178a7.929,7.929,0,0,0-1.572-1.422,1.232,1.232,0,0,0-1.326,0,8.272,8.272,0,0,0-3.4,5.227L.595,185.85a1.231,1.231,0,0,0,0,2.108l30.293,18.294a1.232,1.232,0,0,0,1.273,0l30.293-18.294a1.232,1.232,0,0,0,0-2.108Zm-16.022-9.794a5.446,5.446,0,0,1,1.716,3.9,5.531,5.531,0,0,1-1.716,3.928,5.537,5.537,0,0,1-1.716-3.928A5.448,5.448,0,0,1,46.431,176.055Zm-14.869-9.718a5.445,5.445,0,0,1,1.716,3.9,5.531,5.531,0,0,1-1.716,3.928,5.537,5.537,0,0,1-1.716-3.928A5.447,5.447,0,0,1,31.561,166.337Zm-14.989,9.718a5.446,5.446,0,0,1,1.716,3.9,5.531,5.531,0,0,1-1.716,3.928,5.537,5.537,0,0,1-1.716-3.928A5.447,5.447,0,0,1,16.573,176.055ZM3.613,186.9l8.938-5.4a8.42,8.42,0,0,0,3.349,5.012,1.232,1.232,0,0,0,1.344,0,8.229,8.229,0,0,0,3.507-6.56,7.519,7.519,0,0,0-.627-3.025l7.559-4.565A8.489,8.489,0,0,0,30.89,176.8a1.232,1.232,0,0,0,1.344,0,8.491,8.491,0,0,0,3.2-4.393l7.459,4.5a7.5,7.5,0,0,0-.568,2.034l-9.606,5.8c-.022.014-.043.029-.064.043a5.614,5.614,0,0,0-.463-.342,1.232,1.232,0,0,0-1.326,0,5.643,5.643,0,0,0-.46.339l-2.327-1.406A1.231,1.231,0,0,0,26.8,185.49l1.9,1.147a8.117,8.117,0,0,0-.5.836l-11.823,7.14Zm29.626,4.073a5.531,5.531,0,0,1-1.716,3.928,5.537,5.537,0,0,1-1.716-3.928,5.447,5.447,0,0,1,1.715-3.9A5.445,5.445,0,0,1,33.24,190.977Zm-1.716,12.782L18.76,196.051l8.589-5.187c0,.038,0,.075,0,.113a8.229,8.229,0,0,0,3.507,6.56,1.232,1.232,0,0,0,1.344,0,8.229,8.229,0,0,0,3.507-6.56c0-.038,0-.075,0-.112l8.586,5.188Z" transform="translate(0 -163.517)" fill="#fff"/>
        </g>
      </g>
      <g id="Group_171-3" data-name="Group 171" transform="translate(22.595 17.506)">
        <g id="Group_170-3" data-name="Group 170">
          <path id="Path_148-3" data-name="Path 148" d="M185.592,306.041a1.231,1.231,0,1,0,.361.871A1.241,1.241,0,0,0,185.592,306.041Z" transform="translate(-183.49 -305.68)" fill="#fff"/>
        </g>
      </g>
    </g>
    <g id="drone-5-4" data-name="drone-5" transform="translate(235.079 636)">
      <g id="Group_169-4" data-name="Group 169" transform="translate(0 0)">
        <g id="Group_168-4" data-name="Group 168">
          <path id="Path_147-4" data-name="Path 147" d="M62.453,185.85,58.06,183.2a1.231,1.231,0,0,0-1.273,2.108l2.648,1.6-12.767,7.71-11.821-7.142a8.128,8.128,0,0,0-.5-.836l8.113-4.9a8.449,8.449,0,0,0,3.3,4.781,1.232,1.232,0,0,0,1.344,0,8.229,8.229,0,0,0,3.507-6.56,8.122,8.122,0,0,0-3.516-6.529,1.232,1.232,0,0,0-1.326,0,7.915,7.915,0,0,0-1.557,1.4l-8.491-5.128a8.181,8.181,0,0,0-3.5-5.994,1.232,1.232,0,0,0-1.326,0,8.187,8.187,0,0,0-3.492,5.949l-.024.013-8.575,5.178a7.929,7.929,0,0,0-1.572-1.422,1.232,1.232,0,0,0-1.326,0,8.272,8.272,0,0,0-3.4,5.227L.595,185.85a1.231,1.231,0,0,0,0,2.108l30.293,18.294a1.232,1.232,0,0,0,1.273,0l30.293-18.294a1.232,1.232,0,0,0,0-2.108Zm-16.022-9.794a5.446,5.446,0,0,1,1.716,3.9,5.531,5.531,0,0,1-1.716,3.928,5.537,5.537,0,0,1-1.716-3.928A5.448,5.448,0,0,1,46.431,176.055Zm-14.869-9.718a5.445,5.445,0,0,1,1.716,3.9,5.531,5.531,0,0,1-1.716,3.928,5.537,5.537,0,0,1-1.716-3.928A5.447,5.447,0,0,1,31.561,166.337Zm-14.989,9.718a5.446,5.446,0,0,1,1.716,3.9,5.531,5.531,0,0,1-1.716,3.928,5.537,5.537,0,0,1-1.716-3.928A5.447,5.447,0,0,1,16.573,176.055ZM3.613,186.9l8.938-5.4a8.42,8.42,0,0,0,3.349,5.012,1.232,1.232,0,0,0,1.344,0,8.229,8.229,0,0,0,3.507-6.56,7.519,7.519,0,0,0-.627-3.025l7.559-4.565A8.489,8.489,0,0,0,30.89,176.8a1.232,1.232,0,0,0,1.344,0,8.491,8.491,0,0,0,3.2-4.393l7.459,4.5a7.5,7.5,0,0,0-.568,2.034l-9.606,5.8c-.022.014-.043.029-.064.043a5.614,5.614,0,0,0-.463-.342,1.232,1.232,0,0,0-1.326,0,5.643,5.643,0,0,0-.46.339l-2.327-1.406A1.231,1.231,0,0,0,26.8,185.49l1.9,1.147a8.117,8.117,0,0,0-.5.836l-11.823,7.14Zm29.626,4.073a5.531,5.531,0,0,1-1.716,3.928,5.537,5.537,0,0,1-1.716-3.928,5.447,5.447,0,0,1,1.715-3.9A5.445,5.445,0,0,1,33.24,190.977Zm-1.716,12.782L18.76,196.051l8.589-5.187c0,.038,0,.075,0,.113a8.229,8.229,0,0,0,3.507,6.56,1.232,1.232,0,0,0,1.344,0,8.229,8.229,0,0,0,3.507-6.56c0-.038,0-.075,0-.112l8.586,5.188Z" transform="translate(0 -163.517)" fill="#fff"/>
        </g>
      </g>
      <g id="Group_171-4" data-name="Group 171" transform="translate(22.595 17.506)">
        <g id="Group_170-4" data-name="Group 170">
          <path id="Path_148-4" data-name="Path 148" d="M185.592,306.041a1.231,1.231,0,1,0,.361.871A1.241,1.241,0,0,0,185.592,306.041Z" transform="translate(-183.49 -305.68)" fill="#fff"/>
        </g>
      </g>
    </g>
    <g id="drone-5-5" data-name="drone-5" transform="translate(235.079 750)">
      <g id="Group_169-5" data-name="Group 169" transform="translate(0 0)">
        <g id="Group_168-5" data-name="Group 168">
          <path id="Path_147-5" data-name="Path 147" d="M62.453,185.85,58.06,183.2a1.231,1.231,0,0,0-1.273,2.108l2.648,1.6-12.767,7.71-11.821-7.142a8.128,8.128,0,0,0-.5-.836l8.113-4.9a8.449,8.449,0,0,0,3.3,4.781,1.232,1.232,0,0,0,1.344,0,8.229,8.229,0,0,0,3.507-6.56,8.122,8.122,0,0,0-3.516-6.529,1.232,1.232,0,0,0-1.326,0,7.915,7.915,0,0,0-1.557,1.4l-8.491-5.128a8.181,8.181,0,0,0-3.5-5.994,1.232,1.232,0,0,0-1.326,0,8.187,8.187,0,0,0-3.492,5.949l-.024.013-8.575,5.178a7.929,7.929,0,0,0-1.572-1.422,1.232,1.232,0,0,0-1.326,0,8.272,8.272,0,0,0-3.4,5.227L.595,185.85a1.231,1.231,0,0,0,0,2.108l30.293,18.294a1.232,1.232,0,0,0,1.273,0l30.293-18.294a1.232,1.232,0,0,0,0-2.108Zm-16.022-9.794a5.446,5.446,0,0,1,1.716,3.9,5.531,5.531,0,0,1-1.716,3.928,5.537,5.537,0,0,1-1.716-3.928A5.448,5.448,0,0,1,46.431,176.055Zm-14.869-9.718a5.445,5.445,0,0,1,1.716,3.9,5.531,5.531,0,0,1-1.716,3.928,5.537,5.537,0,0,1-1.716-3.928A5.447,5.447,0,0,1,31.561,166.337Zm-14.989,9.718a5.446,5.446,0,0,1,1.716,3.9,5.531,5.531,0,0,1-1.716,3.928,5.537,5.537,0,0,1-1.716-3.928A5.447,5.447,0,0,1,16.573,176.055ZM3.613,186.9l8.938-5.4a8.42,8.42,0,0,0,3.349,5.012,1.232,1.232,0,0,0,1.344,0,8.229,8.229,0,0,0,3.507-6.56,7.519,7.519,0,0,0-.627-3.025l7.559-4.565A8.489,8.489,0,0,0,30.89,176.8a1.232,1.232,0,0,0,1.344,0,8.491,8.491,0,0,0,3.2-4.393l7.459,4.5a7.5,7.5,0,0,0-.568,2.034l-9.606,5.8c-.022.014-.043.029-.064.043a5.614,5.614,0,0,0-.463-.342,1.232,1.232,0,0,0-1.326,0,5.643,5.643,0,0,0-.46.339l-2.327-1.406A1.231,1.231,0,0,0,26.8,185.49l1.9,1.147a8.117,8.117,0,0,0-.5.836l-11.823,7.14Zm29.626,4.073a5.531,5.531,0,0,1-1.716,3.928,5.537,5.537,0,0,1-1.716-3.928,5.447,5.447,0,0,1,1.715-3.9A5.445,5.445,0,0,1,33.24,190.977Zm-1.716,12.782L18.76,196.051l8.589-5.187c0,.038,0,.075,0,.113a8.229,8.229,0,0,0,3.507,6.56,1.232,1.232,0,0,0,1.344,0,8.229,8.229,0,0,0,3.507-6.56c0-.038,0-.075,0-.112l8.586,5.188Z" transform="translate(0 -163.517)" fill="#fff"/>
        </g>
      </g>
      <g id="Group_171-5" data-name="Group 171" transform="translate(22.595 17.506)">
        <g id="Group_170-5" data-name="Group 170">
          <path id="Path_148-5" data-name="Path 148" d="M185.592,306.041a1.231,1.231,0,1,0,.361.871A1.241,1.241,0,0,0,185.592,306.041Z" transform="translate(-183.49 -305.68)" fill="#fff"/>
        </g>
      </g>
    </g>
    <g id="drone-5-6" data-name="drone-5" transform="translate(235.079 864)">
      <g id="Group_169-6" data-name="Group 169" transform="translate(0 0)">
        <g id="Group_168-6" data-name="Group 168">
          <path id="Path_147-6" data-name="Path 147" d="M62.453,185.85,58.06,183.2a1.231,1.231,0,0,0-1.273,2.108l2.648,1.6-12.767,7.71-11.821-7.142a8.128,8.128,0,0,0-.5-.836l8.113-4.9a8.449,8.449,0,0,0,3.3,4.781,1.232,1.232,0,0,0,1.344,0,8.229,8.229,0,0,0,3.507-6.56,8.122,8.122,0,0,0-3.516-6.529,1.232,1.232,0,0,0-1.326,0,7.915,7.915,0,0,0-1.557,1.4l-8.491-5.128a8.181,8.181,0,0,0-3.5-5.994,1.232,1.232,0,0,0-1.326,0,8.187,8.187,0,0,0-3.492,5.949l-.024.013-8.575,5.178a7.929,7.929,0,0,0-1.572-1.422,1.232,1.232,0,0,0-1.326,0,8.272,8.272,0,0,0-3.4,5.227L.595,185.85a1.231,1.231,0,0,0,0,2.108l30.293,18.294a1.232,1.232,0,0,0,1.273,0l30.293-18.294a1.232,1.232,0,0,0,0-2.108Zm-16.022-9.794a5.446,5.446,0,0,1,1.716,3.9,5.531,5.531,0,0,1-1.716,3.928,5.537,5.537,0,0,1-1.716-3.928A5.448,5.448,0,0,1,46.431,176.055Zm-14.869-9.718a5.445,5.445,0,0,1,1.716,3.9,5.531,5.531,0,0,1-1.716,3.928,5.537,5.537,0,0,1-1.716-3.928A5.447,5.447,0,0,1,31.561,166.337Zm-14.989,9.718a5.446,5.446,0,0,1,1.716,3.9,5.531,5.531,0,0,1-1.716,3.928,5.537,5.537,0,0,1-1.716-3.928A5.447,5.447,0,0,1,16.573,176.055ZM3.613,186.9l8.938-5.4a8.42,8.42,0,0,0,3.349,5.012,1.232,1.232,0,0,0,1.344,0,8.229,8.229,0,0,0,3.507-6.56,7.519,7.519,0,0,0-.627-3.025l7.559-4.565A8.489,8.489,0,0,0,30.89,176.8a1.232,1.232,0,0,0,1.344,0,8.491,8.491,0,0,0,3.2-4.393l7.459,4.5a7.5,7.5,0,0,0-.568,2.034l-9.606,5.8c-.022.014-.043.029-.064.043a5.614,5.614,0,0,0-.463-.342,1.232,1.232,0,0,0-1.326,0,5.643,5.643,0,0,0-.46.339l-2.327-1.406A1.231,1.231,0,0,0,26.8,185.49l1.9,1.147a8.117,8.117,0,0,0-.5.836l-11.823,7.14Zm29.626,4.073a5.531,5.531,0,0,1-1.716,3.928,5.537,5.537,0,0,1-1.716-3.928,5.447,5.447,0,0,1,1.715-3.9A5.445,5.445,0,0,1,33.24,190.977Zm-1.716,12.782L18.76,196.051l8.589-5.187c0,.038,0,.075,0,.113a8.229,8.229,0,0,0,3.507,6.56,1.232,1.232,0,0,0,1.344,0,8.229,8.229,0,0,0,3.507-6.56c0-.038,0-.075,0-.112l8.586,5.188Z" transform="translate(0 -163.517)" fill="#fff"/>
        </g>
      </g>
      <g id="Group_171-6" data-name="Group 171" transform="translate(22.595 17.506)">
        <g id="Group_170-6" data-name="Group 170">
          <path id="Path_148-6" data-name="Path 148" d="M185.592,306.041a1.231,1.231,0,1,0,.361.871A1.241,1.241,0,0,0,185.592,306.041Z" transform="translate(-183.49 -305.68)" fill="#fff"/>
        </g>
      </g>
    </g>
    <rect id="Rectangle_429" data-name="Rectangle 429" width="20" height="49" rx="10" transform="translate(757 278)" fill="#fff"/>
    <g id="Group_299" data-name="Group 299" transform="translate(0.051 -894.996)">
      <path id="Path_242" data-name="Path 242" d="M0,0H1810V221H0Z" transform="translate(109.949 894.995)" fill="#141f27"/>
    </g>
    <text id="Stations" transform="translate(218 80)" fill="#fff" font-size="49" font-family="BaiJamjuree-SemiBold, Bai Jamjuree" font-weight="600"><tspan x="0" y="0">Stations</tspan></text>
    <g id="Group_424" data-name="Group 424" transform="translate(21 14.121)">
      <path id="Exclusion_47" data-name="Exclusion 47" d="M7,0H343.92a7,7,0,0,1,7,7V46.879a7,7,0,0,1-7,7H7a7,7,0,0,1-7-7V7A7,7,0,0,1,7,0Z" transform="translate(1462.08 24)" fill="#303a41"/>
      <text id="Add_new_drone" data-name="Add new drone" transform="translate(1706.58 60.939)" fill="#fff" font-size="27" font-family="BaiJamjuree-SemiBold, Bai Jamjuree" font-weight="600"><tspan x="-94.514" y="0">Add new drone</tspan></text>
      <path id="Exclusion_48" data-name="Exclusion 48" d="M17234.428,18832.559H17211.1a4.108,4.108,0,0,1-4.1-4.1V18806.1a4.108,4.108,0,0,1,4.1-4.105h23.324a4.108,4.108,0,0,1,4.1,4.105v22.352A4.108,4.108,0,0,1,17234.428,18832.559Zm-19.52-17.074a1.734,1.734,0,1,0,0,3.469h6.182v6.182a1.733,1.733,0,1,0,3.467,0v-6.182h6.066a1.734,1.734,0,1,0,0-3.469h-6.066v-6.066a1.733,1.733,0,0,0-3.467,0v6.066Z" transform="translate(-15729.945 -18766.34)" fill="#daebf7"/>
    </g>
    <g id="Group_427" data-name="Group 427">
      <rect id="Rectangle_335" data-name="Rectangle 335" width="507" height="50" rx="5" transform="translate(222 188)" fill="#303a41"/>
      <g id="surface1" transform="translate(236 197.492)">
        <path id="Path_122" data-name="Path 122" d="M21.291,18.4a11.66,11.66,0,1,0-3.587,3.3l8.6,8.547a2.441,2.441,0,0,0,3.539-3.362c-.029-.031-.058-.06-.089-.089Zm-9.525.8a7.515,7.515,0,1,1,.005,0Zm0,0" transform="translate(-0.109 0)" fill="#fff"/>
      </g>
      <text id="Search_Drone_" data-name="Search Drone " transform="translate(521 223)" fill="#fff" font-size="30" font-family="BaiJamjuree-Medium, Bai Jamjuree" font-weight="500"><tspan x="0" y="0">Search Drone </tspan></text>
    </g>
    <text id="Berlin_-_Friedrichbrunner_Straße_19_" data-name="Berlin - Friedrichbrunner Straße 19 " transform="translate(359 343)" fill="#fff" font-size="20" font-family="BaiJamjuree-Medium, Bai Jamjuree" font-weight="500"><tspan x="0" y="0">Berlin - Friedrichbrunner Straße 19 </tspan></text>
    <text id="Berlin_-_Friedrichbrunner_Straße_19_2" data-name="Berlin - Friedrichbrunner Straße 19 " transform="translate(359 457)" fill="#fff" font-size="20" font-family="BaiJamjuree-Medium, Bai Jamjuree" font-weight="500"><tspan x="0" y="0">Berlin - Friedrichbrunner Straße 19 </tspan></text>
    <text id="Berlin_-_Friedrichbrunner_Straße_19_3" data-name="Berlin - Friedrichbrunner Straße 19 " transform="translate(359 571)" fill="#fff" font-size="20" font-family="BaiJamjuree-Medium, Bai Jamjuree" font-weight="500"><tspan x="0" y="0">Berlin - Friedrichbrunner Straße 19 </tspan></text>
    <text id="Berlin_-_Friedrichbrunner_Straße_19_4" data-name="Berlin - Friedrichbrunner Straße 19 " transform="translate(359 685)" fill="#fff" font-size="20" font-family="BaiJamjuree-Medium, Bai Jamjuree" font-weight="500"><tspan x="0" y="0">Berlin - Friedrichbrunner Straße 19 </tspan></text>
    <text id="Berlin_-_Friedrichbrunner_Straße_19_5" data-name="Berlin - Friedrichbrunner Straße 19 " transform="translate(359 799)" fill="#fff" font-size="20" font-family="BaiJamjuree-Medium, Bai Jamjuree" font-weight="500"><tspan x="0" y="0">Berlin - Friedrichbrunner Straße 19 </tspan></text>
    <text id="Berlin_-_Friedrichbrunner_Straße_19_6" data-name="Berlin - Friedrichbrunner Straße 19 " transform="translate(359 913)" fill="#fff" font-size="20" font-family="BaiJamjuree-Medium, Bai Jamjuree" font-weight="500"><tspan x="0" y="0">Berlin - Friedrichbrunner Straße 19 </tspan></text>
    <text id="Station_n_1" data-name="Station nº1" transform="translate(359 302)" fill="#fff" font-size="20" font-family="BaiJamjuree-Medium, Bai Jamjuree" font-weight="500"><tspan x="0" y="0">Station nº1</tspan></text>
    <text id="Station_n_1-2" data-name="Station nº1" transform="translate(359 416)" fill="#fff" font-size="20" font-family="BaiJamjuree-Medium, Bai Jamjuree" font-weight="500"><tspan x="0" y="0">Station nº1</tspan></text>
    <text id="Station_n_1-3" data-name="Station nº1" transform="translate(359 530)" fill="#fff" font-size="20" font-family="BaiJamjuree-Medium, Bai Jamjuree" font-weight="500"><tspan x="0" y="0">Station nº1</tspan></text>
    <text id="Station_n_1-4" data-name="Station nº1" transform="translate(359 644)" fill="#fff" font-size="20" font-family="BaiJamjuree-Medium, Bai Jamjuree" font-weight="500"><tspan x="0" y="0">Station nº1</tspan></text>
    <text id="Station_n_1-5" data-name="Station nº1" transform="translate(359 758)" fill="#fff" font-size="20" font-family="BaiJamjuree-Medium, Bai Jamjuree" font-weight="500"><tspan x="0" y="0">Station nº1</tspan></text>
    <text id="Station_n_1-6" data-name="Station nº1" transform="translate(359 872)" fill="#fff" font-size="20" font-family="BaiJamjuree-Medium, Bai Jamjuree" font-weight="500"><tspan x="0" y="0">Station nº1</tspan></text>
    <rect id="Rectangle_643" data-name="Rectangle 643" width="947" height="538" rx="5" transform="translate(848 192)" fill="#303a41"/>
    <text id="Weather_station:" data-name="Weather station:" transform="translate(1180 409)" fill="#fff" font-size="27" font-family="BaiJamjuree-Bold, Bai Jamjuree" font-weight="700"><tspan x="-213.867" y="0">Weather station:</tspan></text>
    <text id="Multi_control_station:" data-name="Multi control station:" transform="translate(1175 550)" fill="#fff" font-size="27" font-family="BaiJamjuree-Bold, Bai Jamjuree" font-weight="700"><tspan x="-271.863" y="0">Multi control station:</tspan></text>
    <text id="Remote_power_switch:" data-name="Remote power switch:" transform="translate(1175 626)" fill="#fff" font-size="27" font-family="BaiJamjuree-Bold, Bai Jamjuree" font-weight="700"><tspan x="-283.662" y="0">Remote power switch:</tspan></text>
    <text id="Name:" transform="translate(1180 340)" fill="#fff" font-size="27" font-family="BaiJamjuree-Bold, Bai Jamjuree" font-weight="700"><tspan x="-80.136" y="0">Name:</tspan></text>
    <text id="Station_n_1-7" data-name="Station nº1" transform="translate(1201 340)" fill="#fff" font-size="25" font-family="BaiJamjuree-Medium, Bai Jamjuree" font-weight="500"><tspan x="0" y="0">Station nº1</tspan></text>
    <g id="drone-5-7" data-name="drone-5" transform="translate(886.404 284.79)">
      <g id="Group_169-7" data-name="Group 169">
        <g id="Group_168-7" data-name="Group 168">
          <path id="Path_147-7" data-name="Path 147" d="M106.547,201.617l-7.495-4.526a2.1,2.1,0,0,0-2.172,3.6l4.517,2.728-21.78,13.153L59.451,204.385a13.863,13.863,0,0,0-.851-1.425L72.44,194.6a14.415,14.415,0,0,0,5.626,8.156,2.1,2.1,0,0,0,2.293,0,14.039,14.039,0,0,0,5.982-11.191,13.856,13.856,0,0,0-6-11.139,2.1,2.1,0,0,0-2.262,0,13.5,13.5,0,0,0-2.656,2.4L60.94,174.074a13.957,13.957,0,0,0-5.963-10.227,2.1,2.1,0,0,0-2.262,0A13.967,13.967,0,0,0,46.757,174l-.042.022-14.629,8.835a13.528,13.528,0,0,0-2.682-2.426,2.1,2.1,0,0,0-2.262,0,14.112,14.112,0,0,0-5.807,8.918L1.015,201.618a2.1,2.1,0,0,0,0,3.6L52.7,236.425a2.1,2.1,0,0,0,2.172,0l51.68-31.211a2.1,2.1,0,0,0,0-3.6ZM79.212,184.908a9.29,9.29,0,0,1,2.928,6.657,9.436,9.436,0,0,1-2.927,6.7,9.447,9.447,0,0,1-2.927-6.7A9.294,9.294,0,0,1,79.212,184.908Zm-25.367-16.58a9.29,9.29,0,0,1,2.928,6.657,9.436,9.436,0,0,1-2.927,6.7,9.447,9.447,0,0,1-2.927-6.7A9.293,9.293,0,0,1,53.845,168.329Zm-25.572,16.58a9.29,9.29,0,0,1,2.928,6.657,9.436,9.436,0,0,1-2.927,6.7,9.447,9.447,0,0,1-2.927-6.7A9.293,9.293,0,0,1,28.273,184.908ZM6.165,203.416l15.249-9.209a14.364,14.364,0,0,0,5.714,8.55,2.1,2.1,0,0,0,2.293,0A14.039,14.039,0,0,0,35.4,191.566a12.828,12.828,0,0,0-1.069-5.161l12.9-7.788a14.483,14.483,0,0,0,5.47,7.561,2.1,2.1,0,0,0,2.293,0,14.485,14.485,0,0,0,5.451-7.495l12.725,7.685a12.792,12.792,0,0,0-.968,3.47l-16.389,9.9c-.038.023-.074.049-.11.074a9.578,9.578,0,0,0-.79-.583,2.1,2.1,0,0,0-2.262,0,9.627,9.627,0,0,0-.784.579l-3.971-2.4a2.1,2.1,0,0,0-2.172,3.6l3.239,1.956a13.844,13.844,0,0,0-.851,1.425L27.94,216.567Zm50.544,6.949a9.436,9.436,0,0,1-2.927,6.7,9.447,9.447,0,0,1-2.927-6.7,9.293,9.293,0,0,1,2.927-6.657A9.29,9.29,0,0,1,56.708,210.365Zm-2.927,21.807L32,219.021l14.652-8.849c0,.065,0,.127,0,.193a14.038,14.038,0,0,0,5.982,11.191,2.1,2.1,0,0,0,2.293,0,14.039,14.039,0,0,0,5.982-11.191c0-.065,0-.127,0-.192l14.649,8.85Z" transform="translate(0 -163.517)" fill="#fff"/>
        </g>
      </g>
      <g id="Group_171-7" data-name="Group 171" transform="translate(38.548 29.866)">
        <g id="Group_170-7" data-name="Group 170">
          <path id="Path_148-7" data-name="Path 148" d="M187.076,306.3a2.1,2.1,0,1,0,.616,1.485A2.117,2.117,0,0,0,187.076,306.3Z" transform="translate(-183.49 -305.68)" fill="#fff"/>
        </g>
      </g>
    </g>
    <text id="YES" transform="translate(1201 412)" fill="#fff" font-size="25" font-family="BaiJamjuree-Medium, Bai Jamjuree" font-weight="500"><tspan x="0" y="0">YES</tspan></text>
    <text id="Location:" transform="translate(1175 481)" fill="#fff" font-size="27" font-family="BaiJamjuree-Bold, Bai Jamjuree" font-weight="700"><tspan x="-120.042" y="0">Location:</tspan></text>
    <text id="Berlin_-_Friedrichbrunner_Straße_19_-_14300" data-name="Berlin - Friedrichbrunner Straße 19 - 14300" transform="translate(1201 481)" fill="#fff" font-size="25" font-family="BaiJamjuree-Medium, Bai Jamjuree" font-weight="500"><tspan x="0" y="0">Berlin - Friedrichbrunner Straße 19 - 14300</tspan></text>
    <rect id="Rectangle_657" data-name="Rectangle 657" width="944" height="57" transform="translate(851 673)" fill="#525252"/>
    <text id="Platforms_information" data-name="Platforms information" transform="translate(968 711.5)" fill="#fff" font-size="27" font-family="HelveticaNeue-Bold, Helvetica Neue" font-weight="700"><tspan x="0" y="0">Platforms information</tspan></text>
    <g id="information-2" transform="translate(896 686.606)">
      <g id="Group_430" data-name="Group 430">
        <g id="Group_429" data-name="Group 429">
          <path id="Path_322" data-name="Path 322" d="M14.893,0A14.893,14.893,0,1,0,29.786,14.893,14.885,14.885,0,0,0,14.893,0Zm0,27.459A12.566,12.566,0,1,1,27.459,14.893,12.559,12.559,0,0,1,14.893,27.459Z" fill="#fff"/>
        </g>
      </g>
      <g id="Group_432" data-name="Group 432" transform="translate(13.73 12.469)">
        <g id="Group_431" data-name="Group 431">
          <path id="Path_323" data-name="Path 323" d="M237.164,214.33A1.163,1.163,0,0,0,236,215.494v7.493a1.164,1.164,0,1,0,2.327,0v-7.493A1.163,1.163,0,0,0,237.164,214.33Z" transform="translate(-236 -214.33)" fill="#fff"/>
        </g>
      </g>
      <g id="Group_434" data-name="Group 434" transform="translate(13.322 7.903)">
        <g id="Group_433" data-name="Group 433">
          <circle id="Ellipse_1" data-name="Ellipse 1" cx="1.571" cy="1.571" r="1.571" fill="#fff"/>
        </g>
      </g>
    </g>
    <g id="Group_428" data-name="Group 428" transform="translate(703 28)">
      <rect id="Rectangle_533" data-name="Rectangle 533" width="947" height="57" rx="5" transform="translate(145 164)" fill="#b1b1b1"/>
      <text id="Station_Nb_1" data-name="Station Nb 1" transform="translate(260 203)" font-size="27" font-family="BaiJamjuree-Bold, Bai Jamjuree" font-weight="700"><tspan x="0" y="0">Station Nb 1</tspan></text>
      <g id="Group_417" data-name="Group 417" transform="translate(692.828 171)">
        <g id="Rectangle_349" data-name="Rectangle 349" transform="translate(0.173)" fill="#303a41" stroke="#0072aa" stroke-width="3">
          <rect width="184" height="43" rx="5" stroke="none"/>
          <rect x="1.5" y="1.5" width="181" height="40" rx="3.5" fill="none"/>
        </g>
        <text id="Edit" transform="translate(92.172 29)" fill="#fff" font-size="20" font-family="BaiJamjuree-Medium, Bai Jamjuree" font-weight="500"><tspan x="-18.56" y="0">Edit</tspan></text>
      </g>
      <g id="Group_418" data-name="Group 418" transform="translate(898 171)">
        <rect id="Rectangle_348" data-name="Rectangle 348" width="184" height="43" rx="5" fill="#303a41"/>
        <text id="Remove" transform="translate(92 29)" fill="#fff" font-size="20" font-family="BaiJamjuree-Medium, Bai Jamjuree" font-weight="500"><tspan x="-36.77" y="0">Remove</tspan></text>
      </g>
      <g id="drone-5-8" data-name="drone-5" transform="translate(173.452 173.395)">
        <g id="Group_169-8" data-name="Group 169">
          <g id="Group_168-8" data-name="Group 168">
            <path id="Path_147-8" data-name="Path 147" d="M53.274,182.567,49.527,180.3a1.05,1.05,0,0,0-1.086,1.8l2.258,1.364-10.89,6.577-10.083-6.092a6.93,6.93,0,0,0-.426-.713l6.921-4.179a7.208,7.208,0,0,0,2.813,4.078,1.051,1.051,0,0,0,1.146,0,7.019,7.019,0,0,0,2.991-5.6,6.928,6.928,0,0,0-3-5.569,1.051,1.051,0,0,0-1.131,0,6.752,6.752,0,0,0-1.328,1.2L30.47,168.8a6.978,6.978,0,0,0-2.982-5.113,1.051,1.051,0,0,0-1.131,0,6.984,6.984,0,0,0-2.979,5.074l-.021.011-7.314,4.417a6.764,6.764,0,0,0-1.341-1.213,1.051,1.051,0,0,0-1.131,0,7.056,7.056,0,0,0-2.9,4.459L.507,182.567a1.05,1.05,0,0,0,0,1.8l25.84,15.605a1.051,1.051,0,0,0,1.086,0l25.84-15.605a1.051,1.051,0,0,0,0-1.8Zm-13.668-8.355a4.645,4.645,0,0,1,1.464,3.329,4.718,4.718,0,0,1-1.464,3.351,4.723,4.723,0,0,1-1.464-3.351A4.647,4.647,0,0,1,39.607,174.213Zm-12.684-8.29a4.645,4.645,0,0,1,1.464,3.329,4.718,4.718,0,0,1-1.464,3.351,4.723,4.723,0,0,1-1.464-3.351A4.647,4.647,0,0,1,26.923,165.923Zm-12.786,8.29a4.645,4.645,0,0,1,1.464,3.329,4.718,4.718,0,0,1-1.464,3.351,4.723,4.723,0,0,1-1.464-3.351A4.647,4.647,0,0,1,14.137,174.213ZM3.082,183.467l7.624-4.6a7.182,7.182,0,0,0,2.857,4.275,1.051,1.051,0,0,0,1.146,0,7.019,7.019,0,0,0,2.991-5.6,6.414,6.414,0,0,0-.535-2.581l6.448-3.894a7.241,7.241,0,0,0,2.735,3.781,1.051,1.051,0,0,0,1.146,0,7.243,7.243,0,0,0,2.726-3.747l6.363,3.843a6.4,6.4,0,0,0-.484,1.735l-8.194,4.949c-.019.012-.037.025-.055.037a4.8,4.8,0,0,0-.395-.292,1.051,1.051,0,0,0-1.131,0,4.82,4.82,0,0,0-.392.289l-1.985-1.2a1.05,1.05,0,0,0-1.086,1.8l1.62.978a6.922,6.922,0,0,0-.426.713L13.97,190.042Zm25.272,3.474a4.718,4.718,0,0,1-1.464,3.351,4.723,4.723,0,0,1-1.464-3.351,4.646,4.646,0,0,1,1.463-3.329A4.645,4.645,0,0,1,28.355,186.941Zm-1.464,10.9L16,191.269l7.326-4.424c0,.032,0,.064,0,.1a7.019,7.019,0,0,0,2.991,5.6,1.05,1.05,0,0,0,1.146,0,7.019,7.019,0,0,0,2.991-5.6c0-.032,0-.064,0-.1l7.324,4.425Z" transform="translate(0 -163.517)" fill="#303a41"/>
          </g>
        </g>
        <g id="Group_171-8" data-name="Group 171" transform="translate(19.274 14.933)">
          <g id="Group_170-8" data-name="Group 170">
            <path id="Path_148-8" data-name="Path 148" d="M185.283,305.988a1.05,1.05,0,1,0,.308.743A1.058,1.058,0,0,0,185.283,305.988Z" transform="translate(-183.49 -305.68)" fill="#303a41"/>
          </g>
        </g>
      </g>
    </g>
    <text id="YES-2" data-name="YES" transform="translate(1200 550)" fill="#fff" font-size="25" font-family="BaiJamjuree-Medium, Bai Jamjuree" font-weight="500"><tspan x="0" y="0">YES</tspan></text>
    <text id="YES-3" data-name="YES" transform="translate(1201 624)" fill="#fff" font-size="25" font-family="BaiJamjuree-Medium, Bai Jamjuree" font-weight="500"><tspan x="0" y="0">YES</tspan></text>
    <g id="Group_435" data-name="Group 435" transform="translate(1271.828 680)">
      <g id="Rectangle_349-2" data-name="Rectangle 349" transform="translate(0.173)" fill="#141f27" stroke="#0072aa" stroke-width="3">
        <rect width="184" height="43" rx="5" stroke="none"/>
        <rect x="1.5" y="1.5" width="181" height="40" rx="3.5" fill="none"/>
      </g>
      <text id="See_more" data-name="See more" transform="translate(92.172 29)" fill="#fff" font-size="20" font-family="BaiJamjuree-Medium, Bai Jamjuree" font-weight="500"><tspan x="-43.55" y="0">See more</tspan></text>
    </g>
    <text id="Nb_of_rack" data-name="Nb of rack" transform="translate(1581.5 711.5)" fill="#fff" font-size="27" font-family="HelveticaNeue-Bold, Helvetica Neue" font-weight="700"><tspan x="0" y="0">Nb of rack</tspan></text>
    <text id="_2" data-name="2" transform="translate(1756.373 711)" fill="#fff" font-size="25" font-family="HelveticaNeue, Helvetica Neue"><tspan x="0" y="0">2</tspan></text>
    <g id="navbar_stations" data-name="navbar stations">
      <g id="Group_169-9" data-name="Group 169" transform="translate(26.476 268.088)">
        <g id="Group_168-9" data-name="Group 168">
          <path id="Path_147-9" data-name="Path 147" d="M62.453,185.85,58.06,183.2a1.231,1.231,0,0,0-1.273,2.108l2.648,1.6-12.767,7.71-11.821-7.142a8.128,8.128,0,0,0-.5-.836l8.113-4.9a8.449,8.449,0,0,0,3.3,4.781,1.232,1.232,0,0,0,1.344,0,8.229,8.229,0,0,0,3.507-6.56,8.122,8.122,0,0,0-3.516-6.529,1.232,1.232,0,0,0-1.326,0,7.915,7.915,0,0,0-1.557,1.4l-8.491-5.128a8.181,8.181,0,0,0-3.5-5.994,1.232,1.232,0,0,0-1.326,0,8.187,8.187,0,0,0-3.492,5.949l-.024.013-8.575,5.178a7.929,7.929,0,0,0-1.572-1.422,1.232,1.232,0,0,0-1.326,0,8.272,8.272,0,0,0-3.4,5.227L.595,185.85a1.231,1.231,0,0,0,0,2.108l30.293,18.294a1.232,1.232,0,0,0,1.273,0l30.293-18.294a1.232,1.232,0,0,0,0-2.108Zm-16.022-9.794a5.446,5.446,0,0,1,1.716,3.9,5.531,5.531,0,0,1-1.716,3.928,5.537,5.537,0,0,1-1.716-3.928A5.448,5.448,0,0,1,46.431,176.055Zm-14.869-9.718a5.445,5.445,0,0,1,1.716,3.9,5.531,5.531,0,0,1-1.716,3.928,5.537,5.537,0,0,1-1.716-3.928A5.447,5.447,0,0,1,31.561,166.337Zm-14.989,9.718a5.446,5.446,0,0,1,1.716,3.9,5.531,5.531,0,0,1-1.716,3.928,5.537,5.537,0,0,1-1.716-3.928A5.447,5.447,0,0,1,16.573,176.055ZM3.613,186.9l8.938-5.4a8.42,8.42,0,0,0,3.349,5.012,1.232,1.232,0,0,0,1.344,0,8.229,8.229,0,0,0,3.507-6.56,7.519,7.519,0,0,0-.627-3.025l7.559-4.565A8.489,8.489,0,0,0,30.89,176.8a1.232,1.232,0,0,0,1.344,0,8.491,8.491,0,0,0,3.2-4.393l7.459,4.5a7.5,7.5,0,0,0-.568,2.034l-9.606,5.8c-.022.014-.043.029-.064.043a5.614,5.614,0,0,0-.463-.342,1.232,1.232,0,0,0-1.326,0,5.643,5.643,0,0,0-.46.339l-2.327-1.406A1.231,1.231,0,0,0,26.8,185.49l1.9,1.147a8.117,8.117,0,0,0-.5.836l-11.823,7.14Zm29.626,4.073a5.531,5.531,0,0,1-1.716,3.928,5.537,5.537,0,0,1-1.716-3.928,5.447,5.447,0,0,1,1.715-3.9A5.445,5.445,0,0,1,33.24,190.977Zm-1.716,12.782L18.76,196.051l8.589-5.187c0,.038,0,.075,0,.113a8.229,8.229,0,0,0,3.507,6.56,1.232,1.232,0,0,0,1.344,0,8.229,8.229,0,0,0,3.507-6.56c0-.038,0-.075,0-.112l8.586,5.188Z" transform="translate(0 -163.517)" fill="#fff"/>
        </g>
      </g>
      <g id="Group_171-9" data-name="Group 171" transform="translate(49.07 285.594)">
        <g id="Group_170-9" data-name="Group 170">
          <path id="Path_148-9" data-name="Path 148" d="M185.592,306.041a1.231,1.231,0,1,0,.361.871A1.241,1.241,0,0,0,185.592,306.041Z" transform="translate(-183.49 -305.68)" fill="#fff"/>
        </g>
      </g>
      <g id="Group_388" data-name="Group 388">
        <g data-type="innerShadowGroup">
          <path id="Path_289-2" data-name="Path 289" d="M1.594,0h119.88c.88,0,1.594,2.586,1.594,5.777V1065.223c0,3.19-.714,5.777-1.594,5.777H1.594c-.88,0-1.594-2.586-1.594-5.777V5.777C0,2.586.714,0,1.594,0Z" fill="url(#linear-gradient)"/>
          <g transform="matrix(1, 0, 0, 1, 0, 0)" filter="url(#Path_289)">
            <path id="Path_289-3" data-name="Path 289" d="M1.594,0h119.88c.88,0,1.594,2.586,1.594,5.777V1065.223c0,3.19-.714,5.777-1.594,5.777H1.594c-.88,0-1.594-2.586-1.594-5.777V5.777C0,2.586.714,0,1.594,0Z" fill="#fff"/>
          </g>
        </g>
        <rect id="Rectangle_592" data-name="Rectangle 592" width="127.568" height="63" transform="translate(0 257.144)" fill="url(#linear-gradient-2)"/>
        <text id="Home" transform="translate(31.533 213.832)" fill="#fff" font-size="20" font-family="BaiJamjuree-Medium, Bai Jamjuree" font-weight="500"><tspan x="0" y="0">Home</tspan></text>
        <text id="Settings_" data-name="Settings " transform="translate(20 924.318)" fill="#fff" font-size="20" font-family="BaiJamjuree-Medium, Bai Jamjuree" font-weight="500"><tspan x="0" y="0">Settings </tspan></text>
        <text id="Log_out" data-name="Log out" transform="translate(26 1052.561)" fill="#fff" font-size="20" font-family="BaiJamjuree-Medium, Bai Jamjuree" font-weight="500"><tspan x="0" y="0">Log out</tspan></text>
        <text id="Stations-2" data-name="Stations" transform="translate(61.534 349.108)" fill="#fff" font-size="20" font-family="BaiJamjuree-Medium, Bai Jamjuree" font-weight="500"><tspan x="-39.3" y="0">Stations</tspan></text>
        <g id="Group_367" data-name="Group 367" transform="translate(43 859.5)">
          <path id="settings-3" d="M34.855,14.435l-2.889-.367a14.522,14.522,0,0,0-.874-2.111l1.784-2.3a2.284,2.284,0,0,0-.187-3.041L30.268,4.2a2.29,2.29,0,0,0-3.05-.2L24.924,5.787a14.469,14.469,0,0,0-2.113-.874l-.367-2.884A2.3,2.3,0,0,0,20.16,0H16.718a2.3,2.3,0,0,0-2.283,2.024l-.367,2.889a14.3,14.3,0,0,0-2.113.874L9.659,4a2.286,2.286,0,0,0-3.041.187L4.2,6.609A2.291,2.291,0,0,0,4,9.661l1.784,2.3a14.352,14.352,0,0,0-.874,2.111l-2.884.367A2.3,2.3,0,0,0,0,16.718V20.16a2.3,2.3,0,0,0,2.024,2.283l2.889.367a14.521,14.521,0,0,0,.874,2.111L4,27.22a2.284,2.284,0,0,0,.187,3.041l2.42,2.42a2.292,2.292,0,0,0,3.05.194l2.3-1.784a14.186,14.186,0,0,0,2.111.874l.367,2.883a2.3,2.3,0,0,0,2.283,2.031H20.16a2.3,2.3,0,0,0,2.283-2.024l.367-2.889a14.522,14.522,0,0,0,2.111-.874l2.3,1.784a2.284,2.284,0,0,0,3.041-.187l2.42-2.42a2.289,2.289,0,0,0,.2-3.05l-1.784-2.3a14.187,14.187,0,0,0,.874-2.111l2.883-.367a2.3,2.3,0,0,0,2.028-2.283V16.718a2.3,2.3,0,0,0-2.022-2.283ZM18.439,26.123a7.683,7.683,0,1,1,7.683-7.683,7.692,7.692,0,0,1-7.683,7.683Z" transform="translate(0 0)" fill="#fff"/>
        </g>
        <g id="Group_368" data-name="Group 368" transform="translate(37 995.682)">
          <g id="exit" transform="translate(0 0)">
            <g id="Group_35" data-name="Group 35" transform="translate(0 0)">
              <g id="Group_34" data-name="Group 34">
                <path id="Path_44" data-name="Path 44" d="M10.756,18.443a4.616,4.616,0,0,0-4.61-4.61H0V1.54A1.536,1.536,0,0,1,1.537,0H23.049A1.536,1.536,0,0,1,24.586,1.54V35.345a1.536,1.536,0,0,1-1.537,1.537H1.537A1.536,1.536,0,0,1,0,35.345V23.052H6.146A4.616,4.616,0,0,0,10.756,18.443Z" transform="translate(12.293 -0.003)" fill="#fff"/>
                <path id="Path_45" data-name="Path 45" d="M235.013,157.984l-.013-.018c-.026-.033-.052-.067-.075-.1-.011-.017-.02-.034-.031-.051s-.031-.051-.046-.077-.021-.044-.032-.066-.022-.045-.032-.069-.019-.051-.028-.076-.016-.042-.022-.064-.016-.061-.023-.091-.009-.035-.013-.053c-.008-.042-.014-.084-.019-.126,0-.007,0-.014,0-.022a1.546,1.546,0,0,1,0-.311c0-.007,0-.014,0-.022,0-.042.011-.084.019-.126,0-.018.009-.036.013-.053s.014-.061.023-.091.015-.043.022-.064.018-.051.028-.077.021-.046.032-.069.02-.044.032-.066.03-.052.046-.077.02-.034.031-.051c.024-.035.049-.069.075-.1l.013-.018a1.536,1.536,0,0,1,.11-.121l6.141-6.141a1.536,1.536,0,1,1,2.173,2.173l-3.523,3.523h13.193a1.537,1.537,0,1,1,0,3.073H239.913l3.523,3.523a1.536,1.536,0,1,1-2.173,2.173l-6.141-6.141A1.524,1.524,0,0,1,235.013,157.984Z" transform="translate(-234.667 -138.573)" fill="#fff"/>
              </g>
            </g>
          </g>
        </g>
        <line id="Line_86" data-name="Line 86" x2="121" transform="translate(0.5 962.5)" fill="none" stroke="#0072aa" stroke-width="3"/>
        <g id="Group_369" data-name="Group 369" transform="translate(38.469 145.5)">
          <path id="Path_224" data-name="Path 224" d="M16.439,0a2,2,0,0,1,2,2V15.021a2,2,0,0,1-2,2H2a2,2,0,0,1-2-2Z" fill="#fff"/>
          <rect id="Rectangle_63" data-name="Rectangle 63" width="18.439" height="17.021" rx="2" transform="translate(21.275)" fill="#fff"/>
          <rect id="Rectangle_64" data-name="Rectangle 64" width="18.439" height="17.021" rx="2" transform="translate(21.275 19.857)" fill="#fff"/>
          <rect id="Rectangle_65" data-name="Rectangle 65" width="18.439" height="17.021" rx="2" transform="translate(0 19.857)" fill="#fff"/>
        </g>
        <rect id="Rectangle_593" data-name="Rectangle 593" width="124" height="92" transform="translate(3)" fill="none"/>
        <line id="Line_87" data-name="Line 87" x2="123.568" transform="translate(0 100.5)" fill="none" stroke="#031732" stroke-width="3"/>
        <g id="left-arrow" transform="translate(47.754 28.004)">
          <g id="Group_366" data-name="Group 366">
            <path id="Path_288" data-name="Path 288" d="M108.585,18,122.05,4.539a1.973,1.973,0,0,0,0-2.784L120.87.575a1.972,1.972,0,0,0-2.784,0L102.054,16.607a1.987,1.987,0,0,0,0,2.794l16.017,16.016a1.972,1.972,0,0,0,2.785,0l1.18-1.179a1.971,1.971,0,0,0,0-2.784Z" transform="translate(-101.48 0)" fill="#fff"/>
          </g>
        </g>
      </g>
      <g id="Group_169-10" data-name="Group 169" transform="translate(29.476 268.297)">
        <g id="Group_168-10" data-name="Group 168">
          <path id="Path_147-10" data-name="Path 147" d="M62.453,185.85,58.06,183.2a1.231,1.231,0,0,0-1.273,2.108l2.648,1.6-12.767,7.71-11.821-7.142a8.128,8.128,0,0,0-.5-.836l8.113-4.9a8.449,8.449,0,0,0,3.3,4.781,1.232,1.232,0,0,0,1.344,0,8.229,8.229,0,0,0,3.507-6.56,8.122,8.122,0,0,0-3.516-6.529,1.232,1.232,0,0,0-1.326,0,7.915,7.915,0,0,0-1.557,1.4l-8.491-5.128a8.181,8.181,0,0,0-3.5-5.994,1.232,1.232,0,0,0-1.326,0,8.187,8.187,0,0,0-3.492,5.949l-.024.013-8.575,5.178a7.929,7.929,0,0,0-1.572-1.422,1.232,1.232,0,0,0-1.326,0,8.272,8.272,0,0,0-3.4,5.227L.595,185.85a1.231,1.231,0,0,0,0,2.108l30.293,18.294a1.232,1.232,0,0,0,1.273,0l30.293-18.294a1.232,1.232,0,0,0,0-2.108Zm-16.022-9.794a5.446,5.446,0,0,1,1.716,3.9,5.531,5.531,0,0,1-1.716,3.928,5.537,5.537,0,0,1-1.716-3.928A5.448,5.448,0,0,1,46.431,176.055Zm-14.869-9.718a5.445,5.445,0,0,1,1.716,3.9,5.531,5.531,0,0,1-1.716,3.928,5.537,5.537,0,0,1-1.716-3.928A5.447,5.447,0,0,1,31.561,166.337Zm-14.989,9.718a5.446,5.446,0,0,1,1.716,3.9,5.531,5.531,0,0,1-1.716,3.928,5.537,5.537,0,0,1-1.716-3.928A5.447,5.447,0,0,1,16.573,176.055ZM3.613,186.9l8.938-5.4a8.42,8.42,0,0,0,3.349,5.012,1.232,1.232,0,0,0,1.344,0,8.229,8.229,0,0,0,3.507-6.56,7.519,7.519,0,0,0-.627-3.025l7.559-4.565A8.489,8.489,0,0,0,30.89,176.8a1.232,1.232,0,0,0,1.344,0,8.491,8.491,0,0,0,3.2-4.393l7.459,4.5a7.5,7.5,0,0,0-.568,2.034l-9.606,5.8c-.022.014-.043.029-.064.043a5.614,5.614,0,0,0-.463-.342,1.232,1.232,0,0,0-1.326,0,5.643,5.643,0,0,0-.46.339l-2.327-1.406A1.231,1.231,0,0,0,26.8,185.49l1.9,1.147a8.117,8.117,0,0,0-.5.836l-11.823,7.14Zm29.626,4.073a5.531,5.531,0,0,1-1.716,3.928,5.537,5.537,0,0,1-1.716-3.928,5.447,5.447,0,0,1,1.715-3.9A5.445,5.445,0,0,1,33.24,190.977Zm-1.716,12.782L18.76,196.051l8.589-5.187c0,.038,0,.075,0,.113a8.229,8.229,0,0,0,3.507,6.56,1.232,1.232,0,0,0,1.344,0,8.229,8.229,0,0,0,3.507-6.56c0-.038,0-.075,0-.112l8.586,5.188Z" transform="translate(0 -163.517)" fill="#fff"/>
        </g>
      </g>
      <g id="Group_171-10" data-name="Group 171" transform="translate(49.07 287.29)">
        <g id="Group_170-10" data-name="Group 170">
          <path id="Path_148-10" data-name="Path 148" d="M185.592,306.041a1.231,1.231,0,1,0,.361.871A1.241,1.241,0,0,0,185.592,306.041Z" transform="translate(-183.49 -305.68)" fill="#fff"/>
        </g>
      </g>
    </g>
  </g>
</svg>
