<svg xmlns="http://www.w3.org/2000/svg" xmlns:xlink="http://www.w3.org/1999/xlink" width="1920" height="1080" viewBox="0 0 1920 1080">
  <defs>
    <linearGradient id="linear-gradient" x1="0.5" y1="1" x2="0.5" gradientUnits="objectBoundingBox">
      <stop offset="0" stop-color="#00132d"/>
      <stop offset="1" stop-color="#0072aa"/>
      <stop offset="1" stop-color="#546172" stop-opacity="0"/>
    </linearGradient>
    <filter id="Path_289">
      <feOffset dy="3" input="SourceAlpha"/>
      <feGaussianBlur stdDeviation="3" result="blur"/>
      <feFlood flood-opacity="0.161" result="color"/>
      <feComposite operator="out" in="SourceGraphic" in2="blur"/>
      <feComposite operator="in" in="color"/>
      <feComposite operator="in" in2="SourceGraphic"/>
    </filter>
    <linearGradient id="linear-gradient-2" x1="0.014" y1="0.5" x2="1" y2="0.5" gradientUnits="objectBoundingBox">
      <stop offset="0"/>
      <stop offset="0.739" stop-color="#2b2b2b" stop-opacity="0.482"/>
      <stop offset="1" stop-color="#545454" stop-opacity="0"/>
    </linearGradient>
    <clipPath id="clip-_1.3_Add_new_drone">
      <rect width="1920" height="1080"/>
    </clipPath>
  </defs>
  <g id="_1.3_Add_new_drone" data-name="1.3 Add new drone" clip-path="url(#clip-_1.3_Add_new_drone)">
    <rect width="1920" height="1080" fill="#141f27"/>
    <path id="Rectangle_510" data-name="Rectangle 510" d="M5,0H774a5,5,0,0,1,5,5V46a0,0,0,0,1,0,0H0a0,0,0,0,1,0,0V5A5,5,0,0,1,5,0Z" transform="translate(1019 159)" fill="#b1b1b1"/>
    <path id="Path_293" data-name="Path 293" d="M0,0H779V711a5,5,0,0,1-5,5H5a5,5,0,0,1-5-5Z" transform="translate(1019 205)" fill="#303a41"/>
    <rect id="Rectangle_338" data-name="Rectangle 338" width="503" height="91" rx="5" transform="translate(214 244)" fill="#303a41"/>
    <rect id="Rectangle_439" data-name="Rectangle 439" width="503" height="91" rx="5" transform="translate(214 364)" fill="#507fbb"/>
    <rect id="Rectangle_440" data-name="Rectangle 440" width="503" height="91" rx="5" transform="translate(214 484)" fill="#303a41"/>
    <rect id="Rectangle_554" data-name="Rectangle 554" width="503" height="91" rx="5" transform="translate(214 964)" fill="#303a41"/>
    <rect id="Rectangle_441" data-name="Rectangle 441" width="503" height="91" rx="5" transform="translate(214 604)" fill="#303a41"/>
    <rect id="Rectangle_442" data-name="Rectangle 442" width="503" height="91" rx="5" transform="translate(214 724)" fill="#303a41"/>
    <rect id="Rectangle_443" data-name="Rectangle 443" width="503" height="91" rx="5" transform="translate(214 844)" fill="#303a41"/>
    <text id="Name:" transform="translate(349 297)" fill="#fff" font-size="18" font-family="BaiJamjuree-Bold, Bai Jamjuree" font-weight="700"><tspan x="0" y="0">Name:</tspan></text>
    <text id="Name:-2" data-name="Name:" transform="translate(349 417)" fill="#fff" font-size="18" font-family="BaiJamjuree-Bold, Bai Jamjuree" font-weight="700"><tspan x="0" y="0">Name:</tspan></text>
    <text id="Name:-3" data-name="Name:" transform="translate(349 537)" fill="#fff" font-size="18" font-family="BaiJamjuree-Bold, Bai Jamjuree" font-weight="700"><tspan x="0" y="0">Name:</tspan></text>
    <text id="Name:-4" data-name="Name:" transform="translate(349 1017)" fill="#fff" font-size="18" font-family="HelveticaNeue-Bold, Helvetica Neue" font-weight="700"><tspan x="0" y="0">Name:</tspan></text>
    <text id="Name:-5" data-name="Name:" transform="translate(349 657)" fill="#fff" font-size="18" font-family="BaiJamjuree-Bold, Bai Jamjuree" font-weight="700"><tspan x="0" y="0">Name:</tspan></text>
    <text id="Name:-6" data-name="Name:" transform="translate(349 777)" fill="#fff" font-size="18" font-family="BaiJamjuree-Bold, Bai Jamjuree" font-weight="700"><tspan x="0" y="0">Name:</tspan></text>
    <text id="Name:-7" data-name="Name:" transform="translate(349 897)" fill="#fff" font-size="18" font-family="BaiJamjuree-Bold, Bai Jamjuree" font-weight="700"><tspan x="0" y="0">Name:</tspan></text>
    <text id="Station_n_1" data-name="Station nº1" transform="translate(420 297)" fill="#fff" font-size="16" font-family="BaiJamjuree-Medium, Bai Jamjuree" font-weight="500"><tspan x="0" y="0">Station nº1</tspan></text>
    <text id="Station_n_1-2" data-name="Station nº1" transform="translate(420 417)" fill="#fff" font-size="16" font-family="BaiJamjuree-Medium, Bai Jamjuree" font-weight="500"><tspan x="0" y="0">Station nº1</tspan></text>
    <text id="Station_n_1-3" data-name="Station nº1" transform="translate(420 537)" fill="#fff" font-size="16" font-family="BaiJamjuree-Medium, Bai Jamjuree" font-weight="500"><tspan x="0" y="0">Station nº1</tspan></text>
    <text id="Station_n_1-4" data-name="Station nº1" transform="translate(420 1017)" fill="#fff" font-size="16" font-family="HelveticaNeue, Helvetica Neue"><tspan x="0" y="0">Station nº1</tspan></text>
    <text id="Station_n_1-5" data-name="Station nº1" transform="translate(420 657)" fill="#fff" font-size="16" font-family="BaiJamjuree-Medium, Bai Jamjuree" font-weight="500"><tspan x="0" y="0">Station nº1</tspan></text>
    <text id="Station_n_1-6" data-name="Station nº1" transform="translate(420 777)" fill="#fff" font-size="16" font-family="BaiJamjuree-Medium, Bai Jamjuree" font-weight="500"><tspan x="0" y="0">Station nº1</tspan></text>
    <text id="Station_n_1-7" data-name="Station nº1" transform="translate(420 897)" fill="#fff" font-size="16" font-family="BaiJamjuree-Medium, Bai Jamjuree" font-weight="500"><tspan x="0" y="0">Station nº1</tspan></text>
    <rect id="Rectangle_66" data-name="Rectangle 66" width="144" height="131" rx="13.5" transform="translate(1143 262.422)" fill="#141f27" stroke="#507fbb" stroke-width="2"/>
    <path id="add" d="M21.5,9.7H14.333a.422.422,0,0,1-.422-.422V2.108a2.108,2.108,0,1,0-4.216,0V9.275a.422.422,0,0,1-.422.422H2.108a2.108,2.108,0,1,0,0,4.216H9.275a.422.422,0,0,1,.422.422V21.5a2.108,2.108,0,1,0,4.216,0V14.333a.422.422,0,0,1,.422-.422H21.5a2.108,2.108,0,1,0,0-4.216Zm0,0" transform="translate(1251.893 270.118)" fill="#fff"/>
    <g id="propeller" transform="translate(1184.225 276.531)">
      <g id="Group_175" data-name="Group 175" transform="translate(19.691 0)">
        <g id="Group_174" data-name="Group 174" transform="translate(0 0)">
          <path id="Path_149" data-name="Path 149" d="M185.874,42.615l-5.57-17.36A1.8,1.8,0,0,0,178.588,24h-7.425a1.8,1.8,0,0,0-1.717,1.253l-5.57,17.36a1.794,1.794,0,0,0-.023,1.025l.934,3.425a14.695,14.695,0,0,1,20.175,0l.934-3.425A1.794,1.794,0,0,0,185.874,42.615Z" transform="translate(-163.79 -24.003)" fill="#fff"/>
        </g>
      </g>
      <g id="Group_177" data-name="Group 177" transform="translate(0 30.944)">
        <g id="Group_176" data-name="Group 176" transform="translate(0 0)">
          <path id="Path_150" data-name="Path 150" d="M19.658,293.8A14.686,14.686,0,0,1,16.351,281.4l-3.395,1.046a1.811,1.811,0,0,0-.854.569l-11.684,14a1.8,1.8,0,0,0-.137,2.122L4.258,305.4a1.8,1.8,0,0,0,1.976.779l17.651-4.6a1.817,1.817,0,0,0,.878-.53l2.392-2.622A14.7,14.7,0,0,1,19.658,293.8Z" transform="translate(0 -281.403)" fill="#fff"/>
        </g>
      </g>
      <g id="Group_179" data-name="Group 179" transform="translate(19.691 22.66)">
        <g id="Group_178" data-name="Group 178" transform="translate(0 0)">
          <path id="Path_151" data-name="Path 151" d="M174.876,212.493a11.079,11.079,0,1,0,11.085,11.079A11.083,11.083,0,0,0,174.876,212.493Z" transform="translate(-163.791 -212.493)" fill="#fff"/>
        </g>
      </g>
      <g id="Group_181" data-name="Group 181" transform="translate(34.397 30.944)">
        <g id="Group_180" data-name="Group 180" transform="translate(0 0)">
          <path id="Path_152" data-name="Path 152" d="M312.858,297.016l-11.684-14a1.811,1.811,0,0,0-.854-.569l-3.395-1.046a14.69,14.69,0,0,1-10.8,17.028l2.392,2.623a1.817,1.817,0,0,0,.878.53l17.651,4.6a1.8,1.8,0,0,0,1.976-.779l3.977-6.266A1.8,1.8,0,0,0,312.858,297.016Z" transform="translate(-286.121 -281.403)" fill="#fff"/>
        </g>
      </g>
    </g>
    <path id="step-platform" d="M102.687,185.222,95.9,159.347a2.189,2.189,0,0,0-2.158-1.556H9.006a2.189,2.189,0,0,0-2.158,1.556L.061,185.222a1.9,1.9,0,0,0,.415,1.73,2.3,2.3,0,0,0,1.742.773h13.2a2.189,2.189,0,0,0,2.158-1.556l2.147-8.185H83.021l2.147,8.185a2.189,2.189,0,0,0,2.158,1.556h13.2a2.3,2.3,0,0,0,1.742-.773A1.9,1.9,0,0,0,102.687,185.222ZM91.993,161.85l1.158,4.415H87.594a2.217,2.217,0,0,0-2.09,1.349l-2.455,6.311H19.7l-2.455-6.311a2.217,2.217,0,0,0-2.09-1.349H9.6l1.158-4.415ZM13.674,183.666H5.033l3.5-13.342h5.055l2.141,5.5Zm75.4,0-2.056-7.838,2.141-5.5h5.055l3.5,13.342Z" transform="translate(1163.626 189.131)" fill="#fff"/>
    <path id="Exclusion_18" data-name="Exclusion 18" d="M-6990-7717.5h-117a13.409,13.409,0,0,1-9.546-3.954A13.411,13.411,0,0,1-7120.5-7731v-104a13.412,13.412,0,0,1,3.954-9.546A13.411,13.411,0,0,1-7107-7848.5h117a13.41,13.41,0,0,1,9.546,3.955A13.411,13.411,0,0,1-6976.5-7835v104a13.409,13.409,0,0,1-3.954,9.546A13.409,13.409,0,0,1-6990-7717.5Zm-90.146-26.308h63.293l2.147,8.187a2.18,2.18,0,0,0,2.157,1.556h13.205a2.281,2.281,0,0,0,1.741-.774,1.883,1.883,0,0,0,.416-1.729l-6.786-25.874a2.183,2.183,0,0,0-2.159-1.556h-84.735a2.183,2.183,0,0,0-2.159,1.556l-6.786,25.874a1.882,1.882,0,0,0,.414,1.729,2.29,2.29,0,0,0,1.743.774h13.205a2.183,2.183,0,0,0,2.157-1.556l2.147-8.186Zm46.072-59.637a14.815,14.815,0,0,1-.229,6.582,14.742,14.742,0,0,1-3.078,5.813,14.61,14.61,0,0,1-7.5,4.633l2.391,2.624a1.829,1.829,0,0,0,.878.53l17.651,4.6a1.807,1.807,0,0,0,.455.057,1.792,1.792,0,0,0,1.521-.837l3.977-6.266a1.8,1.8,0,0,0-.136-2.122l-11.685-14a1.786,1.786,0,0,0-.853-.567l-3.4-1.046h0Zm-28.851,0h0l-3.393,1.046a1.807,1.807,0,0,0-.855.567l-11.684,14a1.8,1.8,0,0,0-.136,2.122l3.977,6.266a1.788,1.788,0,0,0,1.521.837,1.877,1.877,0,0,0,.455-.057l17.65-4.6a1.831,1.831,0,0,0,.879-.53l2.391-2.622a14.624,14.624,0,0,1-7.5-4.635,14.753,14.753,0,0,1-3.079-5.818,14.812,14.812,0,0,1-.229-6.576Zm14.426-8.285a11.032,11.032,0,0,0-7.821,3.226,10.991,10.991,0,0,0-3.265,7.852,11.094,11.094,0,0,0,11.085,11.078,11.094,11.094,0,0,0,11.086-11.078A11.094,11.094,0,0,0-7048.5-7811.729Zm-3.715-22.662a1.8,1.8,0,0,0-1.715,1.253l-5.57,17.359a1.8,1.8,0,0,0-.022,1.026l.934,3.425a14.645,14.645,0,0,1,10.087-4.008,14.646,14.646,0,0,1,10.089,4.008l.934-3.425a1.78,1.78,0,0,0-.023-1.026l-5.568-17.359a1.8,1.8,0,0,0-1.718-1.253Zm42.713,3.284a2.11,2.11,0,0,0-2.107,2.107,2.11,2.11,0,0,0,2.107,2.107h7.168a.422.422,0,0,1,.421.422v7.167a2.11,2.11,0,0,0,2.107,2.108,2.111,2.111,0,0,0,2.108-2.108v-7.167a.422.422,0,0,1,.421-.422h7.166A2.111,2.111,0,0,0-6988-7829a2.111,2.111,0,0,0-2.11-2.107h-7.166a.422.422,0,0,1-.421-.422v-7.166a2.111,2.111,0,0,0-2.108-2.11,2.111,2.111,0,0,0-2.107,2.11v7.166a.422.422,0,0,1-.421.422Zm7.341,92.982h-8.639l-2.057-7.838,2.141-5.505h5.054l3.5,13.342Zm-84.042,0h-8.639l3.5-13.343h5.057l2.141,5.505-2.056,7.837Zm69.375-9.743h-63.348l-2.456-6.311a2.223,2.223,0,0,0-2.09-1.348h-5.557l1.158-4.416h81.237l1.158,4.416h-5.557a2.222,2.222,0,0,0-2.09,1.348l-2.456,6.31Z" transform="translate(8263.5 8344.922)" fill="#48596f"/>
    <path id="Exclusion_16" data-name="Exclusion 16" d="M-6990-7717.5h-117a13.409,13.409,0,0,1-9.546-3.954A13.411,13.411,0,0,1-7120.5-7731v-104a13.412,13.412,0,0,1,3.954-9.546A13.411,13.411,0,0,1-7107-7848.5h117a13.41,13.41,0,0,1,9.546,3.955A13.411,13.411,0,0,1-6976.5-7835v104a13.409,13.409,0,0,1-3.954,9.546A13.409,13.409,0,0,1-6990-7717.5Zm-90.146-26.308h63.293l2.147,8.187a2.18,2.18,0,0,0,2.157,1.556h13.205a2.281,2.281,0,0,0,1.741-.774,1.883,1.883,0,0,0,.416-1.729l-6.786-25.874a2.183,2.183,0,0,0-2.159-1.556h-84.735a2.183,2.183,0,0,0-2.159,1.556l-6.786,25.874a1.882,1.882,0,0,0,.414,1.729,2.29,2.29,0,0,0,1.743.774h13.205a2.183,2.183,0,0,0,2.157-1.556l2.147-8.186Zm46.072-59.637a14.815,14.815,0,0,1-.229,6.582,14.742,14.742,0,0,1-3.078,5.813,14.61,14.61,0,0,1-7.5,4.633l2.391,2.624a1.829,1.829,0,0,0,.878.53l17.651,4.6a1.807,1.807,0,0,0,.455.057,1.792,1.792,0,0,0,1.521-.837l3.977-6.266a1.8,1.8,0,0,0-.136-2.122l-11.685-14a1.786,1.786,0,0,0-.853-.567l-3.4-1.046h0Zm-28.851,0h0l-3.393,1.046a1.807,1.807,0,0,0-.855.567l-11.684,14a1.8,1.8,0,0,0-.136,2.122l3.977,6.266a1.788,1.788,0,0,0,1.521.837,1.877,1.877,0,0,0,.455-.057l17.65-4.6a1.831,1.831,0,0,0,.879-.53l2.391-2.622a14.624,14.624,0,0,1-7.5-4.635,14.753,14.753,0,0,1-3.079-5.818,14.812,14.812,0,0,1-.229-6.576Zm14.426-8.285a11.032,11.032,0,0,0-7.821,3.226,10.991,10.991,0,0,0-3.265,7.852,11.094,11.094,0,0,0,11.085,11.078,11.094,11.094,0,0,0,11.086-11.078A11.094,11.094,0,0,0-7048.5-7811.729Zm-3.715-22.662a1.8,1.8,0,0,0-1.715,1.253l-5.57,17.359a1.8,1.8,0,0,0-.022,1.026l.934,3.425a14.645,14.645,0,0,1,10.087-4.008,14.646,14.646,0,0,1,10.089,4.008l.934-3.425a1.78,1.78,0,0,0-.023-1.026l-5.568-17.359a1.8,1.8,0,0,0-1.718-1.253Zm42.713,3.284a2.11,2.11,0,0,0-2.107,2.107,2.11,2.11,0,0,0,2.107,2.107h7.168a.422.422,0,0,1,.421.422v7.167a2.11,2.11,0,0,0,2.107,2.108,2.111,2.111,0,0,0,2.108-2.108v-7.167a.422.422,0,0,1,.421-.422h7.166A2.111,2.111,0,0,0-6988-7829a2.111,2.111,0,0,0-2.11-2.107h-7.166a.422.422,0,0,1-.421-.422v-7.166a2.111,2.111,0,0,0-2.108-2.11,2.111,2.111,0,0,0-2.107,2.11v7.166a.422.422,0,0,1-.421.422Zm7.341,92.982h-8.639l-2.057-7.838,2.141-5.505h5.054l3.5,13.342Zm-84.042,0h-8.639l3.5-13.343h5.057l2.141,5.505-2.056,7.837Zm69.375-9.743h-63.348l-2.456-6.311a2.223,2.223,0,0,0-2.09-1.348h-5.557l1.158-4.416h81.237l1.158,4.416h-5.557a2.222,2.222,0,0,0-2.09,1.348l-2.456,6.31Z" transform="translate(8651 8110.922)" fill="#48596f"/>
    <text id="Platform_3_-_A" data-name="Platform 3 - A" transform="translate(1215.5 250.5)" fill="#fff" font-size="20" font-family="BaiJamjuree-Medium, Bai Jamjuree" font-weight="500"><tspan x="-64.38" y="0">Platform 3 - A</tspan></text>
    <text id="Platform_2_-_A" data-name="Platform 2 - A" transform="translate(1215.5 484.5)" fill="#48596f" font-size="20" font-family="BaiJamjuree-Medium, Bai Jamjuree" font-weight="500"><tspan x="-64.04" y="0">Platform 2 - A</tspan></text>
    <text id="Platform_1_-_A" data-name="Platform 1 - A" transform="translate(1215.5 718.5)" fill="#fff" font-size="20" font-family="BaiJamjuree-Medium, Bai Jamjuree" font-weight="500"><tspan x="-62.05" y="0">Platform 1 - A</tspan></text>
    <text id="Platform_3_-_B" data-name="Platform 3 - B" transform="translate(1603 250.5)" fill="#48596f" font-size="20" font-family="BaiJamjuree-Medium, Bai Jamjuree" font-weight="500"><tspan x="-64.51" y="0">Platform 3 - B</tspan></text>
    <text id="Platform_2_-_B" data-name="Platform 2 - B" transform="translate(1603 484.5)" fill="#fff" font-size="20" font-family="BaiJamjuree-Medium, Bai Jamjuree" font-weight="500"><tspan x="-64.17" y="0">Platform 2 - B</tspan></text>
    <text id="Platform_1_-_B" data-name="Platform 1 - B" transform="translate(1603 718.5)" fill="#fff" font-size="20" font-family="BaiJamjuree-Medium, Bai Jamjuree" font-weight="500"><tspan x="-62.18" y="0">Platform 1 - B</tspan></text>
    <text id="Add_drone" data-name="Add drone" transform="translate(1165.5 421.5)" fill="#fff" font-size="20" font-family="BaiJamjuree-Medium, Bai Jamjuree" font-weight="500"><tspan x="0" y="0">Add drone</tspan></text>
    <text id="Add_drone-2" data-name="Add drone" transform="translate(1165.5 655.5)" fill="#48596f" font-size="20" font-family="BaiJamjuree-Medium, Bai Jamjuree" font-weight="500"><tspan x="0" y="0">Add drone</tspan></text>
    <text id="Add_drone-3" data-name="Add drone" transform="translate(1165.5 889.5)" fill="#fff" font-size="20" font-family="BaiJamjuree-Medium, Bai Jamjuree" font-weight="500"><tspan x="0" y="0">Add drone</tspan></text>
    <text id="Add_drone-4" data-name="Add drone" transform="translate(1554 421.5)" fill="#48596f" font-size="20" font-family="BaiJamjuree-Medium, Bai Jamjuree" font-weight="500"><tspan x="0" y="0">Add drone</tspan></text>
    <text id="Add_drone-5" data-name="Add drone" transform="translate(1554 655.5)" fill="#fff" font-size="20" font-family="BaiJamjuree-Medium, Bai Jamjuree" font-weight="500"><tspan x="0" y="0">Add drone</tspan></text>
    <text id="Add_drone-6" data-name="Add drone" transform="translate(1554 889.5)" fill="#fff" font-size="20" font-family="BaiJamjuree-Medium, Bai Jamjuree" font-weight="500"><tspan x="0" y="0">Add drone</tspan></text>
    <g id="drone-5" transform="translate(251.079 285.696)">
      <g id="Group_169" data-name="Group 169" transform="translate(0 0)">
        <g id="Group_168" data-name="Group 168">
          <path id="Path_147" data-name="Path 147" d="M62.453,185.85,58.06,183.2a1.231,1.231,0,0,0-1.273,2.108l2.648,1.6-12.767,7.71-11.821-7.142a8.128,8.128,0,0,0-.5-.836l8.113-4.9a8.449,8.449,0,0,0,3.3,4.781,1.232,1.232,0,0,0,1.344,0,8.229,8.229,0,0,0,3.507-6.56,8.122,8.122,0,0,0-3.516-6.529,1.232,1.232,0,0,0-1.326,0,7.915,7.915,0,0,0-1.557,1.4l-8.491-5.128a8.181,8.181,0,0,0-3.5-5.994,1.232,1.232,0,0,0-1.326,0,8.187,8.187,0,0,0-3.492,5.949l-.024.013-8.575,5.178a7.929,7.929,0,0,0-1.572-1.422,1.232,1.232,0,0,0-1.326,0,8.272,8.272,0,0,0-3.4,5.227L.595,185.85a1.231,1.231,0,0,0,0,2.108l30.293,18.294a1.232,1.232,0,0,0,1.273,0l30.293-18.294a1.232,1.232,0,0,0,0-2.108Zm-16.022-9.794a5.446,5.446,0,0,1,1.716,3.9,5.531,5.531,0,0,1-1.716,3.928,5.537,5.537,0,0,1-1.716-3.928A5.448,5.448,0,0,1,46.431,176.055Zm-14.869-9.718a5.445,5.445,0,0,1,1.716,3.9,5.531,5.531,0,0,1-1.716,3.928,5.537,5.537,0,0,1-1.716-3.928A5.447,5.447,0,0,1,31.561,166.337Zm-14.989,9.718a5.446,5.446,0,0,1,1.716,3.9,5.531,5.531,0,0,1-1.716,3.928,5.537,5.537,0,0,1-1.716-3.928A5.447,5.447,0,0,1,16.573,176.055ZM3.613,186.9l8.938-5.4a8.42,8.42,0,0,0,3.349,5.012,1.232,1.232,0,0,0,1.344,0,8.229,8.229,0,0,0,3.507-6.56,7.519,7.519,0,0,0-.627-3.025l7.559-4.565A8.489,8.489,0,0,0,30.89,176.8a1.232,1.232,0,0,0,1.344,0,8.491,8.491,0,0,0,3.2-4.393l7.459,4.5a7.5,7.5,0,0,0-.568,2.034l-9.606,5.8c-.022.014-.043.029-.064.043a5.614,5.614,0,0,0-.463-.342,1.232,1.232,0,0,0-1.326,0,5.643,5.643,0,0,0-.46.339l-2.327-1.406A1.231,1.231,0,0,0,26.8,185.49l1.9,1.147a8.117,8.117,0,0,0-.5.836l-11.823,7.14Zm29.626,4.073a5.531,5.531,0,0,1-1.716,3.928,5.537,5.537,0,0,1-1.716-3.928,5.447,5.447,0,0,1,1.715-3.9A5.445,5.445,0,0,1,33.24,190.977Zm-1.716,12.782L18.76,196.051l8.589-5.187c0,.038,0,.075,0,.113a8.229,8.229,0,0,0,3.507,6.56,1.232,1.232,0,0,0,1.344,0,8.229,8.229,0,0,0,3.507-6.56c0-.038,0-.075,0-.112l8.586,5.188Z" transform="translate(0 -163.517)" fill="#fff"/>
        </g>
      </g>
      <g id="Group_171" data-name="Group 171" transform="translate(22.595 17.506)">
        <g id="Group_170" data-name="Group 170">
          <path id="Path_148" data-name="Path 148" d="M185.592,306.041a1.231,1.231,0,1,0,.361.871A1.241,1.241,0,0,0,185.592,306.041Z" transform="translate(-183.49 -305.68)" fill="#fff"/>
        </g>
      </g>
    </g>
    <g id="drone-5-2" data-name="drone-5" transform="translate(251.079 405.696)">
      <g id="Group_169-2" data-name="Group 169" transform="translate(0 0)">
        <g id="Group_168-2" data-name="Group 168">
          <path id="Path_147-2" data-name="Path 147" d="M62.453,185.85,58.06,183.2a1.231,1.231,0,0,0-1.273,2.108l2.648,1.6-12.767,7.71-11.821-7.142a8.128,8.128,0,0,0-.5-.836l8.113-4.9a8.449,8.449,0,0,0,3.3,4.781,1.232,1.232,0,0,0,1.344,0,8.229,8.229,0,0,0,3.507-6.56,8.122,8.122,0,0,0-3.516-6.529,1.232,1.232,0,0,0-1.326,0,7.915,7.915,0,0,0-1.557,1.4l-8.491-5.128a8.181,8.181,0,0,0-3.5-5.994,1.232,1.232,0,0,0-1.326,0,8.187,8.187,0,0,0-3.492,5.949l-.024.013-8.575,5.178a7.929,7.929,0,0,0-1.572-1.422,1.232,1.232,0,0,0-1.326,0,8.272,8.272,0,0,0-3.4,5.227L.595,185.85a1.231,1.231,0,0,0,0,2.108l30.293,18.294a1.232,1.232,0,0,0,1.273,0l30.293-18.294a1.232,1.232,0,0,0,0-2.108Zm-16.022-9.794a5.446,5.446,0,0,1,1.716,3.9,5.531,5.531,0,0,1-1.716,3.928,5.537,5.537,0,0,1-1.716-3.928A5.448,5.448,0,0,1,46.431,176.055Zm-14.869-9.718a5.445,5.445,0,0,1,1.716,3.9,5.531,5.531,0,0,1-1.716,3.928,5.537,5.537,0,0,1-1.716-3.928A5.447,5.447,0,0,1,31.561,166.337Zm-14.989,9.718a5.446,5.446,0,0,1,1.716,3.9,5.531,5.531,0,0,1-1.716,3.928,5.537,5.537,0,0,1-1.716-3.928A5.447,5.447,0,0,1,16.573,176.055ZM3.613,186.9l8.938-5.4a8.42,8.42,0,0,0,3.349,5.012,1.232,1.232,0,0,0,1.344,0,8.229,8.229,0,0,0,3.507-6.56,7.519,7.519,0,0,0-.627-3.025l7.559-4.565A8.489,8.489,0,0,0,30.89,176.8a1.232,1.232,0,0,0,1.344,0,8.491,8.491,0,0,0,3.2-4.393l7.459,4.5a7.5,7.5,0,0,0-.568,2.034l-9.606,5.8c-.022.014-.043.029-.064.043a5.614,5.614,0,0,0-.463-.342,1.232,1.232,0,0,0-1.326,0,5.643,5.643,0,0,0-.46.339l-2.327-1.406A1.231,1.231,0,0,0,26.8,185.49l1.9,1.147a8.117,8.117,0,0,0-.5.836l-11.823,7.14Zm29.626,4.073a5.531,5.531,0,0,1-1.716,3.928,5.537,5.537,0,0,1-1.716-3.928,5.447,5.447,0,0,1,1.715-3.9A5.445,5.445,0,0,1,33.24,190.977Zm-1.716,12.782L18.76,196.051l8.589-5.187c0,.038,0,.075,0,.113a8.229,8.229,0,0,0,3.507,6.56,1.232,1.232,0,0,0,1.344,0,8.229,8.229,0,0,0,3.507-6.56c0-.038,0-.075,0-.112l8.586,5.188Z" transform="translate(0 -163.517)" fill="#fff"/>
        </g>
      </g>
      <g id="Group_171-2" data-name="Group 171" transform="translate(22.595 17.506)">
        <g id="Group_170-2" data-name="Group 170">
          <path id="Path_148-2" data-name="Path 148" d="M185.592,306.041a1.231,1.231,0,1,0,.361.871A1.241,1.241,0,0,0,185.592,306.041Z" transform="translate(-183.49 -305.68)" fill="#fff"/>
        </g>
      </g>
    </g>
    <g id="drone-5-3" data-name="drone-5" transform="translate(251.079 525.696)">
      <g id="Group_169-3" data-name="Group 169" transform="translate(0 0)">
        <g id="Group_168-3" data-name="Group 168">
          <path id="Path_147-3" data-name="Path 147" d="M62.453,185.85,58.06,183.2a1.231,1.231,0,0,0-1.273,2.108l2.648,1.6-12.767,7.71-11.821-7.142a8.128,8.128,0,0,0-.5-.836l8.113-4.9a8.449,8.449,0,0,0,3.3,4.781,1.232,1.232,0,0,0,1.344,0,8.229,8.229,0,0,0,3.507-6.56,8.122,8.122,0,0,0-3.516-6.529,1.232,1.232,0,0,0-1.326,0,7.915,7.915,0,0,0-1.557,1.4l-8.491-5.128a8.181,8.181,0,0,0-3.5-5.994,1.232,1.232,0,0,0-1.326,0,8.187,8.187,0,0,0-3.492,5.949l-.024.013-8.575,5.178a7.929,7.929,0,0,0-1.572-1.422,1.232,1.232,0,0,0-1.326,0,8.272,8.272,0,0,0-3.4,5.227L.595,185.85a1.231,1.231,0,0,0,0,2.108l30.293,18.294a1.232,1.232,0,0,0,1.273,0l30.293-18.294a1.232,1.232,0,0,0,0-2.108Zm-16.022-9.794a5.446,5.446,0,0,1,1.716,3.9,5.531,5.531,0,0,1-1.716,3.928,5.537,5.537,0,0,1-1.716-3.928A5.448,5.448,0,0,1,46.431,176.055Zm-14.869-9.718a5.445,5.445,0,0,1,1.716,3.9,5.531,5.531,0,0,1-1.716,3.928,5.537,5.537,0,0,1-1.716-3.928A5.447,5.447,0,0,1,31.561,166.337Zm-14.989,9.718a5.446,5.446,0,0,1,1.716,3.9,5.531,5.531,0,0,1-1.716,3.928,5.537,5.537,0,0,1-1.716-3.928A5.447,5.447,0,0,1,16.573,176.055ZM3.613,186.9l8.938-5.4a8.42,8.42,0,0,0,3.349,5.012,1.232,1.232,0,0,0,1.344,0,8.229,8.229,0,0,0,3.507-6.56,7.519,7.519,0,0,0-.627-3.025l7.559-4.565A8.489,8.489,0,0,0,30.89,176.8a1.232,1.232,0,0,0,1.344,0,8.491,8.491,0,0,0,3.2-4.393l7.459,4.5a7.5,7.5,0,0,0-.568,2.034l-9.606,5.8c-.022.014-.043.029-.064.043a5.614,5.614,0,0,0-.463-.342,1.232,1.232,0,0,0-1.326,0,5.643,5.643,0,0,0-.46.339l-2.327-1.406A1.231,1.231,0,0,0,26.8,185.49l1.9,1.147a8.117,8.117,0,0,0-.5.836l-11.823,7.14Zm29.626,4.073a5.531,5.531,0,0,1-1.716,3.928,5.537,5.537,0,0,1-1.716-3.928,5.447,5.447,0,0,1,1.715-3.9A5.445,5.445,0,0,1,33.24,190.977Zm-1.716,12.782L18.76,196.051l8.589-5.187c0,.038,0,.075,0,.113a8.229,8.229,0,0,0,3.507,6.56,1.232,1.232,0,0,0,1.344,0,8.229,8.229,0,0,0,3.507-6.56c0-.038,0-.075,0-.112l8.586,5.188Z" transform="translate(0 -163.517)" fill="#fff"/>
        </g>
      </g>
      <g id="Group_171-3" data-name="Group 171" transform="translate(22.595 17.506)">
        <g id="Group_170-3" data-name="Group 170">
          <path id="Path_148-3" data-name="Path 148" d="M185.592,306.041a1.231,1.231,0,1,0,.361.871A1.241,1.241,0,0,0,185.592,306.041Z" transform="translate(-183.49 -305.68)" fill="#fff"/>
        </g>
      </g>
    </g>
    <g id="drone-5-4" data-name="drone-5" transform="translate(251.079 1005.696)">
      <g id="Group_169-4" data-name="Group 169" transform="translate(0 0)">
        <g id="Group_168-4" data-name="Group 168">
          <path id="Path_147-4" data-name="Path 147" d="M62.453,185.85,58.06,183.2a1.231,1.231,0,0,0-1.273,2.108l2.648,1.6-12.767,7.71-11.821-7.142a8.128,8.128,0,0,0-.5-.836l8.113-4.9a8.449,8.449,0,0,0,3.3,4.781,1.232,1.232,0,0,0,1.344,0,8.229,8.229,0,0,0,3.507-6.56,8.122,8.122,0,0,0-3.516-6.529,1.232,1.232,0,0,0-1.326,0,7.915,7.915,0,0,0-1.557,1.4l-8.491-5.128a8.181,8.181,0,0,0-3.5-5.994,1.232,1.232,0,0,0-1.326,0,8.187,8.187,0,0,0-3.492,5.949l-.024.013-8.575,5.178a7.929,7.929,0,0,0-1.572-1.422,1.232,1.232,0,0,0-1.326,0,8.272,8.272,0,0,0-3.4,5.227L.595,185.85a1.231,1.231,0,0,0,0,2.108l30.293,18.294a1.232,1.232,0,0,0,1.273,0l30.293-18.294a1.232,1.232,0,0,0,0-2.108Zm-16.022-9.794a5.446,5.446,0,0,1,1.716,3.9,5.531,5.531,0,0,1-1.716,3.928,5.537,5.537,0,0,1-1.716-3.928A5.448,5.448,0,0,1,46.431,176.055Zm-14.869-9.718a5.445,5.445,0,0,1,1.716,3.9,5.531,5.531,0,0,1-1.716,3.928,5.537,5.537,0,0,1-1.716-3.928A5.447,5.447,0,0,1,31.561,166.337Zm-14.989,9.718a5.446,5.446,0,0,1,1.716,3.9,5.531,5.531,0,0,1-1.716,3.928,5.537,5.537,0,0,1-1.716-3.928A5.447,5.447,0,0,1,16.573,176.055ZM3.613,186.9l8.938-5.4a8.42,8.42,0,0,0,3.349,5.012,1.232,1.232,0,0,0,1.344,0,8.229,8.229,0,0,0,3.507-6.56,7.519,7.519,0,0,0-.627-3.025l7.559-4.565A8.489,8.489,0,0,0,30.89,176.8a1.232,1.232,0,0,0,1.344,0,8.491,8.491,0,0,0,3.2-4.393l7.459,4.5a7.5,7.5,0,0,0-.568,2.034l-9.606,5.8c-.022.014-.043.029-.064.043a5.614,5.614,0,0,0-.463-.342,1.232,1.232,0,0,0-1.326,0,5.643,5.643,0,0,0-.46.339l-2.327-1.406A1.231,1.231,0,0,0,26.8,185.49l1.9,1.147a8.117,8.117,0,0,0-.5.836l-11.823,7.14Zm29.626,4.073a5.531,5.531,0,0,1-1.716,3.928,5.537,5.537,0,0,1-1.716-3.928,5.447,5.447,0,0,1,1.715-3.9A5.445,5.445,0,0,1,33.24,190.977Zm-1.716,12.782L18.76,196.051l8.589-5.187c0,.038,0,.075,0,.113a8.229,8.229,0,0,0,3.507,6.56,1.232,1.232,0,0,0,1.344,0,8.229,8.229,0,0,0,3.507-6.56c0-.038,0-.075,0-.112l8.586,5.188Z" transform="translate(0 -163.517)" fill="#fff"/>
        </g>
      </g>
      <g id="Group_171-4" data-name="Group 171" transform="translate(22.595 17.506)">
        <g id="Group_170-4" data-name="Group 170">
          <path id="Path_148-4" data-name="Path 148" d="M185.592,306.041a1.231,1.231,0,1,0,.361.871A1.241,1.241,0,0,0,185.592,306.041Z" transform="translate(-183.49 -305.68)" fill="#fff"/>
        </g>
      </g>
    </g>
    <g id="drone-5-5" data-name="drone-5" transform="translate(251.079 645.696)">
      <g id="Group_169-5" data-name="Group 169" transform="translate(0 0)">
        <g id="Group_168-5" data-name="Group 168">
          <path id="Path_147-5" data-name="Path 147" d="M62.453,185.85,58.06,183.2a1.231,1.231,0,0,0-1.273,2.108l2.648,1.6-12.767,7.71-11.821-7.142a8.128,8.128,0,0,0-.5-.836l8.113-4.9a8.449,8.449,0,0,0,3.3,4.781,1.232,1.232,0,0,0,1.344,0,8.229,8.229,0,0,0,3.507-6.56,8.122,8.122,0,0,0-3.516-6.529,1.232,1.232,0,0,0-1.326,0,7.915,7.915,0,0,0-1.557,1.4l-8.491-5.128a8.181,8.181,0,0,0-3.5-5.994,1.232,1.232,0,0,0-1.326,0,8.187,8.187,0,0,0-3.492,5.949l-.024.013-8.575,5.178a7.929,7.929,0,0,0-1.572-1.422,1.232,1.232,0,0,0-1.326,0,8.272,8.272,0,0,0-3.4,5.227L.595,185.85a1.231,1.231,0,0,0,0,2.108l30.293,18.294a1.232,1.232,0,0,0,1.273,0l30.293-18.294a1.232,1.232,0,0,0,0-2.108Zm-16.022-9.794a5.446,5.446,0,0,1,1.716,3.9,5.531,5.531,0,0,1-1.716,3.928,5.537,5.537,0,0,1-1.716-3.928A5.448,5.448,0,0,1,46.431,176.055Zm-14.869-9.718a5.445,5.445,0,0,1,1.716,3.9,5.531,5.531,0,0,1-1.716,3.928,5.537,5.537,0,0,1-1.716-3.928A5.447,5.447,0,0,1,31.561,166.337Zm-14.989,9.718a5.446,5.446,0,0,1,1.716,3.9,5.531,5.531,0,0,1-1.716,3.928,5.537,5.537,0,0,1-1.716-3.928A5.447,5.447,0,0,1,16.573,176.055ZM3.613,186.9l8.938-5.4a8.42,8.42,0,0,0,3.349,5.012,1.232,1.232,0,0,0,1.344,0,8.229,8.229,0,0,0,3.507-6.56,7.519,7.519,0,0,0-.627-3.025l7.559-4.565A8.489,8.489,0,0,0,30.89,176.8a1.232,1.232,0,0,0,1.344,0,8.491,8.491,0,0,0,3.2-4.393l7.459,4.5a7.5,7.5,0,0,0-.568,2.034l-9.606,5.8c-.022.014-.043.029-.064.043a5.614,5.614,0,0,0-.463-.342,1.232,1.232,0,0,0-1.326,0,5.643,5.643,0,0,0-.46.339l-2.327-1.406A1.231,1.231,0,0,0,26.8,185.49l1.9,1.147a8.117,8.117,0,0,0-.5.836l-11.823,7.14Zm29.626,4.073a5.531,5.531,0,0,1-1.716,3.928,5.537,5.537,0,0,1-1.716-3.928,5.447,5.447,0,0,1,1.715-3.9A5.445,5.445,0,0,1,33.24,190.977Zm-1.716,12.782L18.76,196.051l8.589-5.187c0,.038,0,.075,0,.113a8.229,8.229,0,0,0,3.507,6.56,1.232,1.232,0,0,0,1.344,0,8.229,8.229,0,0,0,3.507-6.56c0-.038,0-.075,0-.112l8.586,5.188Z" transform="translate(0 -163.517)" fill="#fff"/>
        </g>
      </g>
      <g id="Group_171-5" data-name="Group 171" transform="translate(22.595 17.506)">
        <g id="Group_170-5" data-name="Group 170">
          <path id="Path_148-5" data-name="Path 148" d="M185.592,306.041a1.231,1.231,0,1,0,.361.871A1.241,1.241,0,0,0,185.592,306.041Z" transform="translate(-183.49 -305.68)" fill="#fff"/>
        </g>
      </g>
    </g>
    <g id="drone-5-6" data-name="drone-5" transform="translate(251.079 765.696)">
      <g id="Group_169-6" data-name="Group 169" transform="translate(0 0)">
        <g id="Group_168-6" data-name="Group 168">
          <path id="Path_147-6" data-name="Path 147" d="M62.453,185.85,58.06,183.2a1.231,1.231,0,0,0-1.273,2.108l2.648,1.6-12.767,7.71-11.821-7.142a8.128,8.128,0,0,0-.5-.836l8.113-4.9a8.449,8.449,0,0,0,3.3,4.781,1.232,1.232,0,0,0,1.344,0,8.229,8.229,0,0,0,3.507-6.56,8.122,8.122,0,0,0-3.516-6.529,1.232,1.232,0,0,0-1.326,0,7.915,7.915,0,0,0-1.557,1.4l-8.491-5.128a8.181,8.181,0,0,0-3.5-5.994,1.232,1.232,0,0,0-1.326,0,8.187,8.187,0,0,0-3.492,5.949l-.024.013-8.575,5.178a7.929,7.929,0,0,0-1.572-1.422,1.232,1.232,0,0,0-1.326,0,8.272,8.272,0,0,0-3.4,5.227L.595,185.85a1.231,1.231,0,0,0,0,2.108l30.293,18.294a1.232,1.232,0,0,0,1.273,0l30.293-18.294a1.232,1.232,0,0,0,0-2.108Zm-16.022-9.794a5.446,5.446,0,0,1,1.716,3.9,5.531,5.531,0,0,1-1.716,3.928,5.537,5.537,0,0,1-1.716-3.928A5.448,5.448,0,0,1,46.431,176.055Zm-14.869-9.718a5.445,5.445,0,0,1,1.716,3.9,5.531,5.531,0,0,1-1.716,3.928,5.537,5.537,0,0,1-1.716-3.928A5.447,5.447,0,0,1,31.561,166.337Zm-14.989,9.718a5.446,5.446,0,0,1,1.716,3.9,5.531,5.531,0,0,1-1.716,3.928,5.537,5.537,0,0,1-1.716-3.928A5.447,5.447,0,0,1,16.573,176.055ZM3.613,186.9l8.938-5.4a8.42,8.42,0,0,0,3.349,5.012,1.232,1.232,0,0,0,1.344,0,8.229,8.229,0,0,0,3.507-6.56,7.519,7.519,0,0,0-.627-3.025l7.559-4.565A8.489,8.489,0,0,0,30.89,176.8a1.232,1.232,0,0,0,1.344,0,8.491,8.491,0,0,0,3.2-4.393l7.459,4.5a7.5,7.5,0,0,0-.568,2.034l-9.606,5.8c-.022.014-.043.029-.064.043a5.614,5.614,0,0,0-.463-.342,1.232,1.232,0,0,0-1.326,0,5.643,5.643,0,0,0-.46.339l-2.327-1.406A1.231,1.231,0,0,0,26.8,185.49l1.9,1.147a8.117,8.117,0,0,0-.5.836l-11.823,7.14Zm29.626,4.073a5.531,5.531,0,0,1-1.716,3.928,5.537,5.537,0,0,1-1.716-3.928,5.447,5.447,0,0,1,1.715-3.9A5.445,5.445,0,0,1,33.24,190.977Zm-1.716,12.782L18.76,196.051l8.589-5.187c0,.038,0,.075,0,.113a8.229,8.229,0,0,0,3.507,6.56,1.232,1.232,0,0,0,1.344,0,8.229,8.229,0,0,0,3.507-6.56c0-.038,0-.075,0-.112l8.586,5.188Z" transform="translate(0 -163.517)" fill="#fff"/>
        </g>
      </g>
      <g id="Group_171-6" data-name="Group 171" transform="translate(22.595 17.506)">
        <g id="Group_170-6" data-name="Group 170">
          <path id="Path_148-6" data-name="Path 148" d="M185.592,306.041a1.231,1.231,0,1,0,.361.871A1.241,1.241,0,0,0,185.592,306.041Z" transform="translate(-183.49 -305.68)" fill="#fff"/>
        </g>
      </g>
    </g>
    <g id="drone-5-7" data-name="drone-5" transform="translate(251.079 885.696)">
      <g id="Group_169-7" data-name="Group 169" transform="translate(0 0)">
        <g id="Group_168-7" data-name="Group 168">
          <path id="Path_147-7" data-name="Path 147" d="M62.453,185.85,58.06,183.2a1.231,1.231,0,0,0-1.273,2.108l2.648,1.6-12.767,7.71-11.821-7.142a8.128,8.128,0,0,0-.5-.836l8.113-4.9a8.449,8.449,0,0,0,3.3,4.781,1.232,1.232,0,0,0,1.344,0,8.229,8.229,0,0,0,3.507-6.56,8.122,8.122,0,0,0-3.516-6.529,1.232,1.232,0,0,0-1.326,0,7.915,7.915,0,0,0-1.557,1.4l-8.491-5.128a8.181,8.181,0,0,0-3.5-5.994,1.232,1.232,0,0,0-1.326,0,8.187,8.187,0,0,0-3.492,5.949l-.024.013-8.575,5.178a7.929,7.929,0,0,0-1.572-1.422,1.232,1.232,0,0,0-1.326,0,8.272,8.272,0,0,0-3.4,5.227L.595,185.85a1.231,1.231,0,0,0,0,2.108l30.293,18.294a1.232,1.232,0,0,0,1.273,0l30.293-18.294a1.232,1.232,0,0,0,0-2.108Zm-16.022-9.794a5.446,5.446,0,0,1,1.716,3.9,5.531,5.531,0,0,1-1.716,3.928,5.537,5.537,0,0,1-1.716-3.928A5.448,5.448,0,0,1,46.431,176.055Zm-14.869-9.718a5.445,5.445,0,0,1,1.716,3.9,5.531,5.531,0,0,1-1.716,3.928,5.537,5.537,0,0,1-1.716-3.928A5.447,5.447,0,0,1,31.561,166.337Zm-14.989,9.718a5.446,5.446,0,0,1,1.716,3.9,5.531,5.531,0,0,1-1.716,3.928,5.537,5.537,0,0,1-1.716-3.928A5.447,5.447,0,0,1,16.573,176.055ZM3.613,186.9l8.938-5.4a8.42,8.42,0,0,0,3.349,5.012,1.232,1.232,0,0,0,1.344,0,8.229,8.229,0,0,0,3.507-6.56,7.519,7.519,0,0,0-.627-3.025l7.559-4.565A8.489,8.489,0,0,0,30.89,176.8a1.232,1.232,0,0,0,1.344,0,8.491,8.491,0,0,0,3.2-4.393l7.459,4.5a7.5,7.5,0,0,0-.568,2.034l-9.606,5.8c-.022.014-.043.029-.064.043a5.614,5.614,0,0,0-.463-.342,1.232,1.232,0,0,0-1.326,0,5.643,5.643,0,0,0-.46.339l-2.327-1.406A1.231,1.231,0,0,0,26.8,185.49l1.9,1.147a8.117,8.117,0,0,0-.5.836l-11.823,7.14Zm29.626,4.073a5.531,5.531,0,0,1-1.716,3.928,5.537,5.537,0,0,1-1.716-3.928,5.447,5.447,0,0,1,1.715-3.9A5.445,5.445,0,0,1,33.24,190.977Zm-1.716,12.782L18.76,196.051l8.589-5.187c0,.038,0,.075,0,.113a8.229,8.229,0,0,0,3.507,6.56,1.232,1.232,0,0,0,1.344,0,8.229,8.229,0,0,0,3.507-6.56c0-.038,0-.075,0-.112l8.586,5.188Z" transform="translate(0 -163.517)" fill="#fff"/>
        </g>
      </g>
      <g id="Group_171-7" data-name="Group 171" transform="translate(22.595 17.506)">
        <g id="Group_170-7" data-name="Group 170">
          <path id="Path_148-7" data-name="Path 148" d="M185.592,306.041a1.231,1.231,0,1,0,.361.871A1.241,1.241,0,0,0,185.592,306.041Z" transform="translate(-183.49 -305.68)" fill="#fff"/>
        </g>
      </g>
    </g>
    <g id="propeller-2" data-name="propeller" transform="translate(233.04 253)">
      <g id="Group_175-2" data-name="Group 175" transform="translate(11.542 0)">
        <g id="Group_174-2" data-name="Group 174" transform="translate(0 0)">
          <path id="Path_149-2" data-name="Path 149" d="M176.735,34.913,173.47,24.737A1.056,1.056,0,0,0,172.464,24h-4.352a1.056,1.056,0,0,0-1.006.734l-3.265,10.175a1.051,1.051,0,0,0-.013.6l.548,2.008a8.614,8.614,0,0,1,11.826,0l.548-2.008A1.052,1.052,0,0,0,176.735,34.913Z" transform="translate(-163.79 -24.003)" fill="#fff"/>
        </g>
      </g>
      <g id="Group_177-2" data-name="Group 177" transform="translate(0 18.138)">
        <g id="Group_176-2" data-name="Group 176" transform="translate(0 0)">
          <path id="Path_150-2" data-name="Path 150" d="M11.523,288.668A8.608,8.608,0,0,1,9.584,281.4l-1.99.613a1.061,1.061,0,0,0-.5.333L.245,290.554a1.056,1.056,0,0,0-.08,1.244L2.5,295.471a1.058,1.058,0,0,0,1.158.457L14,293.232a1.065,1.065,0,0,0,.514-.311l1.4-1.537A8.619,8.619,0,0,1,11.523,288.668Z" transform="translate(0 -281.403)" fill="#fff"/>
        </g>
      </g>
      <g id="Group_179-2" data-name="Group 179" transform="translate(11.542 13.282)">
        <g id="Group_178-2" data-name="Group 178" transform="translate(0 0)">
          <path id="Path_151-2" data-name="Path 151" d="M170.289,212.493a6.494,6.494,0,1,0,6.5,6.494A6.5,6.5,0,0,0,170.289,212.493Z" transform="translate(-163.791 -212.493)" fill="#fff"/>
        </g>
      </g>
      <g id="Group_181-2" data-name="Group 181" transform="translate(20.162 18.138)">
        <g id="Group_180-2" data-name="Group 180" transform="translate(0 0)">
          <path id="Path_152-2" data-name="Path 152" d="M301.793,290.554l-6.849-8.205a1.061,1.061,0,0,0-.5-.333l-1.99-.613a8.611,8.611,0,0,1-6.333,9.981l1.4,1.538a1.065,1.065,0,0,0,.514.311l10.346,2.7a1.058,1.058,0,0,0,1.158-.457l2.331-3.673A1.057,1.057,0,0,0,301.793,290.554Z" transform="translate(-286.121 -281.403)" fill="#fff"/>
        </g>
      </g>
    </g>
    <g id="propeller-3" data-name="propeller" transform="translate(233.04 373)">
      <g id="Group_175-3" data-name="Group 175" transform="translate(11.542 0)">
        <g id="Group_174-3" data-name="Group 174" transform="translate(0 0)">
          <path id="Path_149-3" data-name="Path 149" d="M176.735,34.913,173.47,24.737A1.056,1.056,0,0,0,172.464,24h-4.352a1.056,1.056,0,0,0-1.006.734l-3.265,10.175a1.051,1.051,0,0,0-.013.6l.548,2.008a8.614,8.614,0,0,1,11.826,0l.548-2.008A1.052,1.052,0,0,0,176.735,34.913Z" transform="translate(-163.79 -24.003)" fill="#fff"/>
        </g>
      </g>
      <g id="Group_177-3" data-name="Group 177" transform="translate(0 18.138)">
        <g id="Group_176-3" data-name="Group 176" transform="translate(0 0)">
          <path id="Path_150-3" data-name="Path 150" d="M11.523,288.668A8.608,8.608,0,0,1,9.584,281.4l-1.99.613a1.061,1.061,0,0,0-.5.333L.245,290.554a1.056,1.056,0,0,0-.08,1.244L2.5,295.471a1.058,1.058,0,0,0,1.158.457L14,293.232a1.065,1.065,0,0,0,.514-.311l1.4-1.537A8.619,8.619,0,0,1,11.523,288.668Z" transform="translate(0 -281.403)" fill="#fff"/>
        </g>
      </g>
      <g id="Group_179-3" data-name="Group 179" transform="translate(11.542 13.282)">
        <g id="Group_178-3" data-name="Group 178" transform="translate(0 0)">
          <path id="Path_151-3" data-name="Path 151" d="M170.289,212.493a6.494,6.494,0,1,0,6.5,6.494A6.5,6.5,0,0,0,170.289,212.493Z" transform="translate(-163.791 -212.493)" fill="#fff"/>
        </g>
      </g>
      <g id="Group_181-3" data-name="Group 181" transform="translate(20.162 18.138)">
        <g id="Group_180-3" data-name="Group 180" transform="translate(0 0)">
          <path id="Path_152-3" data-name="Path 152" d="M301.793,290.554l-6.849-8.205a1.061,1.061,0,0,0-.5-.333l-1.99-.613a8.611,8.611,0,0,1-6.333,9.981l1.4,1.538a1.065,1.065,0,0,0,.514.311l10.346,2.7a1.058,1.058,0,0,0,1.158-.457l2.331-3.673A1.057,1.057,0,0,0,301.793,290.554Z" transform="translate(-286.121 -281.403)" fill="#fff"/>
        </g>
      </g>
    </g>
    <g id="propeller-4" data-name="propeller" transform="translate(233.04 493)">
      <g id="Group_175-4" data-name="Group 175" transform="translate(11.542 0)">
        <g id="Group_174-4" data-name="Group 174" transform="translate(0 0)">
          <path id="Path_149-4" data-name="Path 149" d="M176.735,34.913,173.47,24.737A1.056,1.056,0,0,0,172.464,24h-4.352a1.056,1.056,0,0,0-1.006.734l-3.265,10.175a1.051,1.051,0,0,0-.013.6l.548,2.008a8.614,8.614,0,0,1,11.826,0l.548-2.008A1.052,1.052,0,0,0,176.735,34.913Z" transform="translate(-163.79 -24.003)" fill="#fff"/>
        </g>
      </g>
      <g id="Group_177-4" data-name="Group 177" transform="translate(0 18.138)">
        <g id="Group_176-4" data-name="Group 176" transform="translate(0 0)">
          <path id="Path_150-4" data-name="Path 150" d="M11.523,288.668A8.608,8.608,0,0,1,9.584,281.4l-1.99.613a1.061,1.061,0,0,0-.5.333L.245,290.554a1.056,1.056,0,0,0-.08,1.244L2.5,295.471a1.058,1.058,0,0,0,1.158.457L14,293.232a1.065,1.065,0,0,0,.514-.311l1.4-1.537A8.619,8.619,0,0,1,11.523,288.668Z" transform="translate(0 -281.403)" fill="#fff"/>
        </g>
      </g>
      <g id="Group_179-4" data-name="Group 179" transform="translate(11.542 13.282)">
        <g id="Group_178-4" data-name="Group 178" transform="translate(0 0)">
          <path id="Path_151-4" data-name="Path 151" d="M170.289,212.493a6.494,6.494,0,1,0,6.5,6.494A6.5,6.5,0,0,0,170.289,212.493Z" transform="translate(-163.791 -212.493)" fill="#fff"/>
        </g>
      </g>
      <g id="Group_181-4" data-name="Group 181" transform="translate(20.162 18.138)">
        <g id="Group_180-4" data-name="Group 180" transform="translate(0 0)">
          <path id="Path_152-4" data-name="Path 152" d="M301.793,290.554l-6.849-8.205a1.061,1.061,0,0,0-.5-.333l-1.99-.613a8.611,8.611,0,0,1-6.333,9.981l1.4,1.538a1.065,1.065,0,0,0,.514.311l10.346,2.7a1.058,1.058,0,0,0,1.158-.457l2.331-3.673A1.057,1.057,0,0,0,301.793,290.554Z" transform="translate(-286.121 -281.403)" fill="#fff"/>
        </g>
      </g>
    </g>
    <g id="propeller-5" data-name="propeller" transform="translate(233.04 973)">
      <g id="Group_175-5" data-name="Group 175" transform="translate(11.542 0)">
        <g id="Group_174-5" data-name="Group 174" transform="translate(0 0)">
          <path id="Path_149-5" data-name="Path 149" d="M176.735,34.913,173.47,24.737A1.056,1.056,0,0,0,172.464,24h-4.352a1.056,1.056,0,0,0-1.006.734l-3.265,10.175a1.051,1.051,0,0,0-.013.6l.548,2.008a8.614,8.614,0,0,1,11.826,0l.548-2.008A1.052,1.052,0,0,0,176.735,34.913Z" transform="translate(-163.79 -24.003)" fill="#fff"/>
        </g>
      </g>
      <g id="Group_177-5" data-name="Group 177" transform="translate(0 18.138)">
        <g id="Group_176-5" data-name="Group 176" transform="translate(0 0)">
          <path id="Path_150-5" data-name="Path 150" d="M11.523,288.668A8.608,8.608,0,0,1,9.584,281.4l-1.99.613a1.061,1.061,0,0,0-.5.333L.245,290.554a1.056,1.056,0,0,0-.08,1.244L2.5,295.471a1.058,1.058,0,0,0,1.158.457L14,293.232a1.065,1.065,0,0,0,.514-.311l1.4-1.537A8.619,8.619,0,0,1,11.523,288.668Z" transform="translate(0 -281.403)" fill="#fff"/>
        </g>
      </g>
      <g id="Group_179-5" data-name="Group 179" transform="translate(11.542 13.282)">
        <g id="Group_178-5" data-name="Group 178" transform="translate(0 0)">
          <path id="Path_151-5" data-name="Path 151" d="M170.289,212.493a6.494,6.494,0,1,0,6.5,6.494A6.5,6.5,0,0,0,170.289,212.493Z" transform="translate(-163.791 -212.493)" fill="#fff"/>
        </g>
      </g>
      <g id="Group_181-5" data-name="Group 181" transform="translate(20.162 18.138)">
        <g id="Group_180-5" data-name="Group 180" transform="translate(0 0)">
          <path id="Path_152-5" data-name="Path 152" d="M301.793,290.554l-6.849-8.205a1.061,1.061,0,0,0-.5-.333l-1.99-.613a8.611,8.611,0,0,1-6.333,9.981l1.4,1.538a1.065,1.065,0,0,0,.514.311l10.346,2.7a1.058,1.058,0,0,0,1.158-.457l2.331-3.673A1.057,1.057,0,0,0,301.793,290.554Z" transform="translate(-286.121 -281.403)" fill="#fff"/>
        </g>
      </g>
    </g>
    <g id="propeller-6" data-name="propeller" transform="translate(233.04 613)">
      <g id="Group_175-6" data-name="Group 175" transform="translate(11.542 0)">
        <g id="Group_174-6" data-name="Group 174" transform="translate(0 0)">
          <path id="Path_149-6" data-name="Path 149" d="M176.735,34.913,173.47,24.737A1.056,1.056,0,0,0,172.464,24h-4.352a1.056,1.056,0,0,0-1.006.734l-3.265,10.175a1.051,1.051,0,0,0-.013.6l.548,2.008a8.614,8.614,0,0,1,11.826,0l.548-2.008A1.052,1.052,0,0,0,176.735,34.913Z" transform="translate(-163.79 -24.003)" fill="#fff"/>
        </g>
      </g>
      <g id="Group_177-6" data-name="Group 177" transform="translate(0 18.138)">
        <g id="Group_176-6" data-name="Group 176" transform="translate(0 0)">
          <path id="Path_150-6" data-name="Path 150" d="M11.523,288.668A8.608,8.608,0,0,1,9.584,281.4l-1.99.613a1.061,1.061,0,0,0-.5.333L.245,290.554a1.056,1.056,0,0,0-.08,1.244L2.5,295.471a1.058,1.058,0,0,0,1.158.457L14,293.232a1.065,1.065,0,0,0,.514-.311l1.4-1.537A8.619,8.619,0,0,1,11.523,288.668Z" transform="translate(0 -281.403)" fill="#fff"/>
        </g>
      </g>
      <g id="Group_179-6" data-name="Group 179" transform="translate(11.542 13.282)">
        <g id="Group_178-6" data-name="Group 178" transform="translate(0 0)">
          <path id="Path_151-6" data-name="Path 151" d="M170.289,212.493a6.494,6.494,0,1,0,6.5,6.494A6.5,6.5,0,0,0,170.289,212.493Z" transform="translate(-163.791 -212.493)" fill="#fff"/>
        </g>
      </g>
      <g id="Group_181-6" data-name="Group 181" transform="translate(20.162 18.138)">
        <g id="Group_180-6" data-name="Group 180" transform="translate(0 0)">
          <path id="Path_152-6" data-name="Path 152" d="M301.793,290.554l-6.849-8.205a1.061,1.061,0,0,0-.5-.333l-1.99-.613a8.611,8.611,0,0,1-6.333,9.981l1.4,1.538a1.065,1.065,0,0,0,.514.311l10.346,2.7a1.058,1.058,0,0,0,1.158-.457l2.331-3.673A1.057,1.057,0,0,0,301.793,290.554Z" transform="translate(-286.121 -281.403)" fill="#fff"/>
        </g>
      </g>
    </g>
    <g id="propeller-7" data-name="propeller" transform="translate(233.04 733)">
      <g id="Group_175-7" data-name="Group 175" transform="translate(11.542 0)">
        <g id="Group_174-7" data-name="Group 174" transform="translate(0 0)">
          <path id="Path_149-7" data-name="Path 149" d="M176.735,34.913,173.47,24.737A1.056,1.056,0,0,0,172.464,24h-4.352a1.056,1.056,0,0,0-1.006.734l-3.265,10.175a1.051,1.051,0,0,0-.013.6l.548,2.008a8.614,8.614,0,0,1,11.826,0l.548-2.008A1.052,1.052,0,0,0,176.735,34.913Z" transform="translate(-163.79 -24.003)" fill="#fff"/>
        </g>
      </g>
      <g id="Group_177-7" data-name="Group 177" transform="translate(0 18.138)">
        <g id="Group_176-7" data-name="Group 176" transform="translate(0 0)">
          <path id="Path_150-7" data-name="Path 150" d="M11.523,288.668A8.608,8.608,0,0,1,9.584,281.4l-1.99.613a1.061,1.061,0,0,0-.5.333L.245,290.554a1.056,1.056,0,0,0-.08,1.244L2.5,295.471a1.058,1.058,0,0,0,1.158.457L14,293.232a1.065,1.065,0,0,0,.514-.311l1.4-1.537A8.619,8.619,0,0,1,11.523,288.668Z" transform="translate(0 -281.403)" fill="#fff"/>
        </g>
      </g>
      <g id="Group_179-7" data-name="Group 179" transform="translate(11.542 13.282)">
        <g id="Group_178-7" data-name="Group 178" transform="translate(0 0)">
          <path id="Path_151-7" data-name="Path 151" d="M170.289,212.493a6.494,6.494,0,1,0,6.5,6.494A6.5,6.5,0,0,0,170.289,212.493Z" transform="translate(-163.791 -212.493)" fill="#fff"/>
        </g>
      </g>
      <g id="Group_181-7" data-name="Group 181" transform="translate(20.162 18.138)">
        <g id="Group_180-7" data-name="Group 180" transform="translate(0 0)">
          <path id="Path_152-7" data-name="Path 152" d="M301.793,290.554l-6.849-8.205a1.061,1.061,0,0,0-.5-.333l-1.99-.613a8.611,8.611,0,0,1-6.333,9.981l1.4,1.538a1.065,1.065,0,0,0,.514.311l10.346,2.7a1.058,1.058,0,0,0,1.158-.457l2.331-3.673A1.057,1.057,0,0,0,301.793,290.554Z" transform="translate(-286.121 -281.403)" fill="#fff"/>
        </g>
      </g>
    </g>
    <g id="propeller-8" data-name="propeller" transform="translate(233.04 853)">
      <g id="Group_175-8" data-name="Group 175" transform="translate(11.542 0)">
        <g id="Group_174-8" data-name="Group 174" transform="translate(0 0)">
          <path id="Path_149-8" data-name="Path 149" d="M176.735,34.913,173.47,24.737A1.056,1.056,0,0,0,172.464,24h-4.352a1.056,1.056,0,0,0-1.006.734l-3.265,10.175a1.051,1.051,0,0,0-.013.6l.548,2.008a8.614,8.614,0,0,1,11.826,0l.548-2.008A1.052,1.052,0,0,0,176.735,34.913Z" transform="translate(-163.79 -24.003)" fill="#fff"/>
        </g>
      </g>
      <g id="Group_177-8" data-name="Group 177" transform="translate(0 18.138)">
        <g id="Group_176-8" data-name="Group 176" transform="translate(0 0)">
          <path id="Path_150-8" data-name="Path 150" d="M11.523,288.668A8.608,8.608,0,0,1,9.584,281.4l-1.99.613a1.061,1.061,0,0,0-.5.333L.245,290.554a1.056,1.056,0,0,0-.08,1.244L2.5,295.471a1.058,1.058,0,0,0,1.158.457L14,293.232a1.065,1.065,0,0,0,.514-.311l1.4-1.537A8.619,8.619,0,0,1,11.523,288.668Z" transform="translate(0 -281.403)" fill="#fff"/>
        </g>
      </g>
      <g id="Group_179-8" data-name="Group 179" transform="translate(11.542 13.282)">
        <g id="Group_178-8" data-name="Group 178" transform="translate(0 0)">
          <path id="Path_151-8" data-name="Path 151" d="M170.289,212.493a6.494,6.494,0,1,0,6.5,6.494A6.5,6.5,0,0,0,170.289,212.493Z" transform="translate(-163.791 -212.493)" fill="#fff"/>
        </g>
      </g>
      <g id="Group_181-8" data-name="Group 181" transform="translate(20.162 18.138)">
        <g id="Group_180-8" data-name="Group 180" transform="translate(0 0)">
          <path id="Path_152-8" data-name="Path 152" d="M301.793,290.554l-6.849-8.205a1.061,1.061,0,0,0-.5-.333l-1.99-.613a8.611,8.611,0,0,1-6.333,9.981l1.4,1.538a1.065,1.065,0,0,0,.514.311l10.346,2.7a1.058,1.058,0,0,0,1.158-.457l2.331-3.673A1.057,1.057,0,0,0,301.793,290.554Z" transform="translate(-286.121 -281.403)" fill="#fff"/>
        </g>
      </g>
    </g>
    <text id="N_of_platforms:" data-name="Nº of platforms:" transform="translate(535 297)" fill="#fff" font-size="16" font-family="BaiJamjuree-Bold, Bai Jamjuree" font-weight="700"><tspan x="0" y="0">Nº of platforms:</tspan></text>
    <text id="N_of_platforms:-2" data-name="Nº of platforms:" transform="translate(535 417)" fill="#fff" font-size="16" font-family="BaiJamjuree-Bold, Bai Jamjuree" font-weight="700"><tspan x="0" y="0">Nº of platforms:</tspan></text>
    <text id="N_of_platforms:-3" data-name="Nº of platforms:" transform="translate(535 537)" fill="#fff" font-size="16" font-family="BaiJamjuree-Bold, Bai Jamjuree" font-weight="700"><tspan x="0" y="0">Nº of platforms:</tspan></text>
    <text id="N_of_platforms:-4" data-name="Nº of platforms:" transform="translate(535 1017)" fill="#fff" font-size="16" font-family="HelveticaNeue-Bold, Helvetica Neue" font-weight="700"><tspan x="0" y="0">Nº of platforms:</tspan></text>
    <text id="N_of_platforms:-5" data-name="Nº of platforms:" transform="translate(535 657)" fill="#fff" font-size="16" font-family="BaiJamjuree-Bold, Bai Jamjuree" font-weight="700"><tspan x="0" y="0">Nº of platforms:</tspan></text>
    <text id="N_of_platforms:-6" data-name="Nº of platforms:" transform="translate(535 777)" fill="#fff" font-size="16" font-family="BaiJamjuree-Bold, Bai Jamjuree" font-weight="700"><tspan x="0" y="0">Nº of platforms:</tspan></text>
    <text id="N_of_platforms:-7" data-name="Nº of platforms:" transform="translate(535 897)" fill="#fff" font-size="16" font-family="BaiJamjuree-Bold, Bai Jamjuree" font-weight="700"><tspan x="0" y="0">Nº of platforms:</tspan></text>
    <text id="_4" data-name="4" transform="translate(685 297)" fill="#fff" font-size="16" font-family="BaiJamjuree-Medium, Bai Jamjuree" font-weight="500"><tspan x="0" y="0">4</tspan></text>
    <text id="_4-2" data-name="4" transform="translate(685 417)" fill="#fff" font-size="16" font-family="BaiJamjuree-Medium, Bai Jamjuree" font-weight="500"><tspan x="0" y="0">4</tspan></text>
    <text id="_4-3" data-name="4" transform="translate(685 537)" fill="#fff" font-size="16" font-family="BaiJamjuree-Medium, Bai Jamjuree" font-weight="500"><tspan x="0" y="0">4</tspan></text>
    <text id="_4-4" data-name="4" transform="translate(685 1017)" fill="#fff" font-size="16" font-family="HelveticaNeue, Helvetica Neue"><tspan x="0" y="0">4</tspan></text>
    <text id="_4-5" data-name="4" transform="translate(685 657)" fill="#fff" font-size="16" font-family="BaiJamjuree-Medium, Bai Jamjuree" font-weight="500"><tspan x="0" y="0">4</tspan></text>
    <text id="_4-6" data-name="4" transform="translate(685 777)" fill="#fff" font-size="16" font-family="BaiJamjuree-Medium, Bai Jamjuree" font-weight="500"><tspan x="0" y="0">4</tspan></text>
    <text id="_4-7" data-name="4" transform="translate(685 897)" fill="#fff" font-size="16" font-family="BaiJamjuree-Medium, Bai Jamjuree" font-weight="500"><tspan x="0" y="0">4</tspan></text>
    <rect id="Rectangle_429" data-name="Rectangle 429" width="20" height="49" rx="10" transform="translate(741 244)" fill="#fff"/>
    <text id="Station_n_1-8" data-name="Station nº1" transform="translate(1230 192)" fill="#141f27" font-size="24" font-family="BaiJamjuree-Bold, Bai Jamjuree" font-weight="700"><tspan x="-63.072" y="0">Station nº1</tspan></text>
    <text id="Platform_available_4_6" data-name="Platform available 4/6" transform="translate(1530 192)" fill="#141f27" font-size="24" font-family="BaiJamjuree-Bold, Bai Jamjuree" font-weight="700"><tspan x="-129.768" y="0">Platform available 4/6</tspan></text>
    <g id="Group_297" data-name="Group 297" transform="translate(15.864 78.005)">
      <path id="Path_242" data-name="Path 242" d="M0,0H1794.187V108.422H0Z" transform="translate(109.949 894.995)" fill="#141f27"/>
      <rect id="Rectangle_348" data-name="Rectangle 348" width="184" height="41" rx="5" transform="translate(1598.136 937.995)" fill="#303a41"/>
      <rect id="Rectangle_349" data-name="Rectangle 349" width="184" height="41" rx="5" transform="translate(1392.136 937.995)" fill="#303a41"/>
      <rect id="Rectangle_428" data-name="Rectangle 428" width="184" height="41" rx="5" transform="translate(1184.136 937.995)" fill="#303a41"/>
      <text id="Cancel" transform="translate(1483.136 965.995)" fill="#fff" font-size="19" font-family="BaiJamjuree-Medium, Bai Jamjuree" font-weight="500"><tspan x="-30.372" y="0">Cancel</tspan></text>
      <text id="Back" transform="translate(1274.136 965.995)" fill="#fff" font-size="19" font-family="BaiJamjuree-Medium, Bai Jamjuree" font-weight="500"><tspan x="-21.907" y="0">Back</tspan></text>
      <text id="Continue" transform="translate(1688.136 965.995)" fill="#fff" font-size="19" font-family="BaiJamjuree-Medium, Bai Jamjuree" font-weight="500"><tspan x="-39.985" y="0">Continue</tspan></text>
    </g>
    <g id="Group_298" data-name="Group 298" transform="translate(6)">
      <rect id="Rectangle_545" data-name="Rectangle 545" width="1804" height="159" transform="translate(110)" fill="#141f27"/>
    </g>
    <rect id="Rectangle_335" data-name="Rectangle 335" width="503" height="50" rx="5" transform="translate(214 159)" fill="#303a41"/>
    <g id="surface1" transform="translate(228 168.493)">
      <path id="Path_122" data-name="Path 122" d="M21.291,18.4a11.66,11.66,0,1,0-3.587,3.3l8.6,8.547a2.441,2.441,0,0,0,3.539-3.362c-.029-.031-.058-.06-.089-.089Zm-9.525.8a7.515,7.515,0,1,1,.005,0Zm0,0" transform="translate(-0.109 0)" fill="#fff"/>
    </g>
    <g id="Navbar_add_drone" data-name="Navbar add drone">
      <g data-type="innerShadowGroup">
        <path id="Path_289-2" data-name="Path 289" d="M1.594,0h119.88c.88,0,1.594,2.608,1.594,5.825v1068.35c0,3.217-.714,5.825-1.594,5.825H1.594c-.88,0-1.594-2.608-1.594-5.825V5.825C0,2.608.714,0,1.594,0Z" fill="url(#linear-gradient)"/>
        <g transform="matrix(1, 0, 0, 1, 0, 0)" filter="url(#Path_289)">
          <path id="Path_289-3" data-name="Path 289" d="M1.594,0h119.88c.88,0,1.594,2.608,1.594,5.825v1068.35c0,3.217-.714,5.825-1.594,5.825H1.594c-.88,0-1.594-2.608-1.594-5.825V5.825C0,2.608.714,0,1.594,0Z" fill="#fff"/>
        </g>
      </g>
      <rect id="Rectangle_594" data-name="Rectangle 594" width="123.068" height="63" transform="translate(0 392.5)" fill="url(#linear-gradient-2)"/>
      <text id="Home" transform="translate(34.999 215.5)" fill="#fff" font-size="20" font-family="BaiJamjuree-Medium, Bai Jamjuree" font-weight="500"><tspan x="0" y="0">Home</tspan></text>
      <text id="Settings_" data-name="Settings " transform="translate(20 933.318)" fill="#fff" font-size="20" font-family="BaiJamjuree-Medium, Bai Jamjuree" font-weight="500"><tspan x="0" y="0">Settings </tspan></text>
      <text id="Log_out" data-name="Log out" transform="translate(26 1061.561)" fill="#fff" font-size="20" font-family="BaiJamjuree-Medium, Bai Jamjuree" font-weight="500"><tspan x="0" y="0">Log out</tspan></text>
      <text id="Drone" transform="translate(33.999 342.5)" fill="#fff" font-size="20" font-family="BaiJamjuree-Medium, Bai Jamjuree" font-weight="500"><tspan x="0" y="0">Drone</tspan></text>
      <text id="Add_drone-7" data-name="Add drone" transform="translate(14.522 479.962)" fill="#fff" font-size="20" font-family="BaiJamjuree-Medium, Bai Jamjuree" font-weight="500"><tspan x="0" y="0">Add drone</tspan></text>
      <g id="Group_367" data-name="Group 367" transform="translate(43 868.5)">
        <path id="settings-3" d="M34.855,14.435l-2.889-.367a14.522,14.522,0,0,0-.874-2.111l1.784-2.3a2.284,2.284,0,0,0-.187-3.041L30.268,4.2a2.29,2.29,0,0,0-3.05-.2L24.924,5.787a14.469,14.469,0,0,0-2.113-.874l-.367-2.884A2.3,2.3,0,0,0,20.16,0H16.718a2.3,2.3,0,0,0-2.283,2.024l-.367,2.889a14.3,14.3,0,0,0-2.113.874L9.659,4a2.286,2.286,0,0,0-3.041.187L4.2,6.609A2.291,2.291,0,0,0,4,9.661l1.784,2.3a14.352,14.352,0,0,0-.874,2.111l-2.884.367A2.3,2.3,0,0,0,0,16.718V20.16a2.3,2.3,0,0,0,2.024,2.283l2.889.367a14.521,14.521,0,0,0,.874,2.111L4,27.22a2.284,2.284,0,0,0,.187,3.041l2.42,2.42a2.292,2.292,0,0,0,3.05.194l2.3-1.784a14.186,14.186,0,0,0,2.111.874l.367,2.883a2.3,2.3,0,0,0,2.283,2.031H20.16a2.3,2.3,0,0,0,2.283-2.024l.367-2.889a14.522,14.522,0,0,0,2.111-.874l2.3,1.784a2.284,2.284,0,0,0,3.041-.187l2.42-2.42a2.289,2.289,0,0,0,.2-3.05l-1.784-2.3a14.187,14.187,0,0,0,.874-2.111l2.883-.367a2.3,2.3,0,0,0,2.028-2.283V16.718a2.3,2.3,0,0,0-2.022-2.283ZM18.439,26.123a7.683,7.683,0,1,1,7.683-7.683,7.692,7.692,0,0,1-7.683,7.683Z" transform="translate(0 0)" fill="#fff"/>
      </g>
      <g id="Group_368" data-name="Group 368" transform="translate(37 1004.682)">
        <g id="exit" transform="translate(0 0)">
          <g id="Group_35" data-name="Group 35" transform="translate(0 0)">
            <g id="Group_34" data-name="Group 34">
              <path id="Path_44" data-name="Path 44" d="M10.756,18.443a4.616,4.616,0,0,0-4.61-4.61H0V1.54A1.536,1.536,0,0,1,1.537,0H23.049A1.536,1.536,0,0,1,24.586,1.54V35.345a1.536,1.536,0,0,1-1.537,1.537H1.537A1.536,1.536,0,0,1,0,35.345V23.052H6.146A4.616,4.616,0,0,0,10.756,18.443Z" transform="translate(12.293 -0.003)" fill="#fff"/>
              <path id="Path_45" data-name="Path 45" d="M235.013,157.984l-.013-.018c-.026-.033-.052-.067-.075-.1-.011-.017-.02-.034-.031-.051s-.031-.051-.046-.077-.021-.044-.032-.066-.022-.045-.032-.069-.019-.051-.028-.076-.016-.042-.022-.064-.016-.061-.023-.091-.009-.035-.013-.053c-.008-.042-.014-.084-.019-.126,0-.007,0-.014,0-.022a1.546,1.546,0,0,1,0-.311c0-.007,0-.014,0-.022,0-.042.011-.084.019-.126,0-.018.009-.036.013-.053s.014-.061.023-.091.015-.043.022-.064.018-.051.028-.077.021-.046.032-.069.02-.044.032-.066.03-.052.046-.077.02-.034.031-.051c.024-.035.049-.069.075-.1l.013-.018a1.536,1.536,0,0,1,.11-.121l6.141-6.141a1.536,1.536,0,1,1,2.173,2.173l-3.523,3.523h13.193a1.537,1.537,0,1,1,0,3.073H239.913l3.523,3.523a1.536,1.536,0,1,1-2.173,2.173l-6.141-6.141A1.524,1.524,0,0,1,235.013,157.984Z" transform="translate(-234.667 -138.573)" fill="#fff"/>
            </g>
          </g>
        </g>
      </g>
      <g id="propeller-9" data-name="propeller" transform="translate(40.999 272.5)">
        <g id="Group_144" data-name="Group 144" transform="translate(13.018 0)">
          <g id="Group_143" data-name="Group 143">
            <path id="Path_113" data-name="Path 113" d="M178.39,36.308l-3.682-11.477A1.192,1.192,0,0,0,173.573,24h-4.909a1.192,1.192,0,0,0-1.135.828l-3.682,11.477a1.186,1.186,0,0,0-.015.678l.618,2.264a9.715,9.715,0,0,1,13.338,0l.618-2.264A1.186,1.186,0,0,0,178.39,36.308Z" transform="translate(-163.79 -24.003)" fill="#fff"/>
          </g>
        </g>
        <g id="Group_146" data-name="Group 146" transform="translate(0 20.458)">
          <g id="Group_145" data-name="Group 145" transform="translate(0 0)">
            <path id="Path_114" data-name="Path 114" d="M13,289.6A9.71,9.71,0,0,1,10.81,281.4l-2.245.691A1.2,1.2,0,0,0,8,282.47L.276,291.725a1.192,1.192,0,0,0-.091,1.4l2.629,4.143a1.193,1.193,0,0,0,1.307.515l11.669-3.04a1.2,1.2,0,0,0,.58-.35l1.582-1.733A9.722,9.722,0,0,1,13,289.6Z" transform="translate(0 -281.403)" fill="#fff"/>
          </g>
        </g>
        <g id="Group_148" data-name="Group 148" transform="translate(13.018 14.981)">
          <g id="Group_147" data-name="Group 147" transform="translate(0 0)">
            <path id="Path_115" data-name="Path 115" d="M171.12,212.493a7.325,7.325,0,1,0,7.329,7.325A7.328,7.328,0,0,0,171.12,212.493Z" transform="translate(-163.791 -212.493)" fill="#fff"/>
          </g>
        </g>
        <g id="Group_150" data-name="Group 150" transform="translate(22.741 20.458)">
          <g id="Group_149" data-name="Group 149" transform="translate(0 0)">
            <path id="Path_116" data-name="Path 116" d="M303.8,291.725l-7.725-9.255a1.2,1.2,0,0,0-.564-.376l-2.245-.691a9.712,9.712,0,0,1-7.143,11.258l1.582,1.734a1.2,1.2,0,0,0,.58.35l11.669,3.04a1.193,1.193,0,0,0,1.307-.515l2.629-4.143A1.192,1.192,0,0,0,303.8,291.725Z" transform="translate(-286.121 -281.403)" fill="#fff"/>
          </g>
        </g>
      </g>
      <line id="Line_86" data-name="Line 86" x2="123" transform="translate(0.5 971.5)" fill="none" stroke="#0072aa" stroke-width="3"/>
      <g id="Group_369" data-name="Group 369" transform="translate(42.001 145.5)">
        <path id="Path_224" data-name="Path 224" d="M16.439,0a2,2,0,0,1,2,2V15.021a2,2,0,0,1-2,2H2a2,2,0,0,1-2-2Z" fill="#fff"/>
        <rect id="Rectangle_63" data-name="Rectangle 63" width="18.439" height="17.021" rx="2" transform="translate(21.275)" fill="#fff"/>
        <rect id="Rectangle_64" data-name="Rectangle 64" width="18.439" height="17.021" rx="2" transform="translate(21.275 19.857)" fill="#fff"/>
        <rect id="Rectangle_65" data-name="Rectangle 65" width="18.439" height="17.021" rx="2" transform="translate(0 19.857)" fill="#fff"/>
      </g>
      <rect id="Rectangle_593" data-name="Rectangle 593" width="124" height="92" transform="translate(3)" fill="none"/>
      <line id="Line_87" data-name="Line 87" x2="123.5" transform="translate(0 100.5)" fill="none" stroke="#031732" stroke-width="3"/>
      <g id="left-arrow" transform="translate(47.754 28.004)">
        <g id="Group_366" data-name="Group 366">
          <path id="Path_288" data-name="Path 288" d="M108.585,18,122.05,4.539a1.973,1.973,0,0,0,0-2.784L120.87.575a1.972,1.972,0,0,0-2.784,0L102.054,16.607a1.987,1.987,0,0,0,0,2.794l16.017,16.016a1.972,1.972,0,0,0,2.785,0l1.18-1.179a1.971,1.971,0,0,0,0-2.784Z" transform="translate(-101.48 0)" fill="#fff"/>
        </g>
      </g>
      <path id="Exclusion_9" data-name="Exclusion 9" d="M33.1,36.881H4.949A4.958,4.958,0,0,1,0,31.928V4.955A4.958,4.958,0,0,1,4.949,0H33.1a4.957,4.957,0,0,1,4.949,4.955V31.928A4.956,4.956,0,0,1,33.1,36.881ZM9.541,16.275a2.093,2.093,0,1,0,0,4.186H17v7.461a2.092,2.092,0,1,0,4.184,0V20.461H28.5a2.093,2.093,0,1,0,0-4.186h-7.32V8.955a2.092,2.092,0,0,0-4.184,0v7.32Z" transform="translate(39.304 405.56)" fill="#fff"/>
    </g>
    <text id="Search_Drone_" data-name="Search Drone " transform="translate(521 195)" fill="#fff" font-size="30" font-family="BaiJamjuree-Medium, Bai Jamjuree" font-weight="500"><tspan x="0" y="0">Search Drone </tspan></text>
    <rect id="Rectangle_722" data-name="Rectangle 722" width="144" height="131" rx="13.5" transform="translate(1530 497.579)" fill="#141f27" stroke="#507fbb" stroke-width="2"/>
    <path id="add-2" data-name="add" d="M21.5,9.7H14.333a.422.422,0,0,1-.422-.422V2.108a2.108,2.108,0,1,0-4.216,0V9.275a.422.422,0,0,1-.422.422H2.108a2.108,2.108,0,1,0,0,4.216H9.275a.422.422,0,0,1,.422.422V21.5a2.108,2.108,0,1,0,4.216,0V14.333a.422.422,0,0,1,.422-.422H21.5a2.108,2.108,0,1,0,0-4.216Zm0,0" transform="translate(1638.893 505.275)" fill="#fff"/>
    <g id="propeller-10" data-name="propeller" transform="translate(1571.225 511.688)">
      <g id="Group_175-9" data-name="Group 175" transform="translate(19.691 0)">
        <g id="Group_174-9" data-name="Group 174" transform="translate(0 0)">
          <path id="Path_149-9" data-name="Path 149" d="M185.874,42.615l-5.57-17.36A1.8,1.8,0,0,0,178.588,24h-7.425a1.8,1.8,0,0,0-1.717,1.253l-5.57,17.36a1.794,1.794,0,0,0-.023,1.025l.934,3.425a14.695,14.695,0,0,1,20.175,0l.934-3.425A1.794,1.794,0,0,0,185.874,42.615Z" transform="translate(-163.79 -24.003)" fill="#fff"/>
        </g>
      </g>
      <g id="Group_177-9" data-name="Group 177" transform="translate(0 30.944)">
        <g id="Group_176-9" data-name="Group 176" transform="translate(0 0)">
          <path id="Path_150-9" data-name="Path 150" d="M19.658,293.8A14.686,14.686,0,0,1,16.351,281.4l-3.395,1.046a1.811,1.811,0,0,0-.854.569l-11.684,14a1.8,1.8,0,0,0-.137,2.122L4.258,305.4a1.8,1.8,0,0,0,1.976.779l17.651-4.6a1.817,1.817,0,0,0,.878-.53l2.392-2.622A14.7,14.7,0,0,1,19.658,293.8Z" transform="translate(0 -281.403)" fill="#fff"/>
        </g>
      </g>
      <g id="Group_179-9" data-name="Group 179" transform="translate(19.691 22.66)">
        <g id="Group_178-9" data-name="Group 178" transform="translate(0 0)">
          <path id="Path_151-9" data-name="Path 151" d="M174.876,212.493a11.079,11.079,0,1,0,11.085,11.079A11.083,11.083,0,0,0,174.876,212.493Z" transform="translate(-163.791 -212.493)" fill="#fff"/>
        </g>
      </g>
      <g id="Group_181-9" data-name="Group 181" transform="translate(34.397 30.944)">
        <g id="Group_180-9" data-name="Group 180" transform="translate(0 0)">
          <path id="Path_152-9" data-name="Path 152" d="M312.858,297.016l-11.684-14a1.811,1.811,0,0,0-.854-.569l-3.395-1.046a14.69,14.69,0,0,1-10.8,17.028l2.392,2.623a1.817,1.817,0,0,0,.878.53l17.651,4.6a1.8,1.8,0,0,0,1.976-.779l3.977-6.266A1.8,1.8,0,0,0,312.858,297.016Z" transform="translate(-286.121 -281.403)" fill="#fff"/>
        </g>
      </g>
    </g>
    <path id="step-platform-2" data-name="step-platform" d="M102.687,185.222,95.9,159.347a2.189,2.189,0,0,0-2.158-1.556H9.006a2.189,2.189,0,0,0-2.158,1.556L.061,185.222a1.9,1.9,0,0,0,.415,1.73,2.3,2.3,0,0,0,1.742.773h13.2a2.189,2.189,0,0,0,2.158-1.556l2.147-8.185H83.021l2.147,8.185a2.189,2.189,0,0,0,2.158,1.556h13.2a2.3,2.3,0,0,0,1.742-.773A1.9,1.9,0,0,0,102.687,185.222ZM91.993,161.85l1.158,4.415H87.594a2.217,2.217,0,0,0-2.09,1.349l-2.455,6.311H19.7l-2.455-6.311a2.217,2.217,0,0,0-2.09-1.349H9.6l1.158-4.415ZM13.674,183.666H5.033l3.5-13.342h5.055l2.141,5.5Zm75.4,0-2.056-7.838,2.141-5.5h5.055l3.5,13.342Z" transform="translate(1550.626 424.288)" fill="#fff"/>
    <rect id="Rectangle_723" data-name="Rectangle 723" width="144" height="131" rx="13.5" transform="translate(1143 731.579)" fill="#141f27" stroke="#507fbb" stroke-width="2"/>
    <rect id="Rectangle_724" data-name="Rectangle 724" width="144" height="131" rx="13.5" transform="translate(1531 731.579)" fill="#141f27" stroke="#507fbb" stroke-width="2"/>
    <path id="add-3" data-name="add" d="M21.5,9.7H14.333a.422.422,0,0,1-.422-.422V2.108a2.108,2.108,0,1,0-4.216,0V9.275a.422.422,0,0,1-.422.422H2.108a2.108,2.108,0,1,0,0,4.216H9.275a.422.422,0,0,1,.422.422V21.5a2.108,2.108,0,1,0,4.216,0V14.333a.422.422,0,0,1,.422-.422H21.5a2.108,2.108,0,1,0,0-4.216Zm0,0" transform="translate(1251.893 739.275)" fill="#fff"/>
    <path id="add-4" data-name="add" d="M21.5,9.7H14.333a.422.422,0,0,1-.422-.422V2.108a2.108,2.108,0,1,0-4.216,0V9.275a.422.422,0,0,1-.422.422H2.108a2.108,2.108,0,1,0,0,4.216H9.275a.422.422,0,0,1,.422.422V21.5a2.108,2.108,0,1,0,4.216,0V14.333a.422.422,0,0,1,.422-.422H21.5a2.108,2.108,0,1,0,0-4.216Zm0,0" transform="translate(1639.893 739.275)" fill="#fff"/>
    <g id="propeller-11" data-name="propeller" transform="translate(1184.225 745.688)">
      <g id="Group_175-10" data-name="Group 175" transform="translate(19.691 0)">
        <g id="Group_174-10" data-name="Group 174" transform="translate(0 0)">
          <path id="Path_149-10" data-name="Path 149" d="M185.874,42.615l-5.57-17.36A1.8,1.8,0,0,0,178.588,24h-7.425a1.8,1.8,0,0,0-1.717,1.253l-5.57,17.36a1.794,1.794,0,0,0-.023,1.025l.934,3.425a14.695,14.695,0,0,1,20.175,0l.934-3.425A1.794,1.794,0,0,0,185.874,42.615Z" transform="translate(-163.79 -24.003)" fill="#fff"/>
        </g>
      </g>
      <g id="Group_177-10" data-name="Group 177" transform="translate(0 30.944)">
        <g id="Group_176-10" data-name="Group 176" transform="translate(0 0)">
          <path id="Path_150-10" data-name="Path 150" d="M19.658,293.8A14.686,14.686,0,0,1,16.351,281.4l-3.395,1.046a1.811,1.811,0,0,0-.854.569l-11.684,14a1.8,1.8,0,0,0-.137,2.122L4.258,305.4a1.8,1.8,0,0,0,1.976.779l17.651-4.6a1.817,1.817,0,0,0,.878-.53l2.392-2.622A14.7,14.7,0,0,1,19.658,293.8Z" transform="translate(0 -281.403)" fill="#fff"/>
        </g>
      </g>
      <g id="Group_179-10" data-name="Group 179" transform="translate(19.691 22.66)">
        <g id="Group_178-10" data-name="Group 178" transform="translate(0 0)">
          <path id="Path_151-10" data-name="Path 151" d="M174.876,212.493a11.079,11.079,0,1,0,11.085,11.079A11.083,11.083,0,0,0,174.876,212.493Z" transform="translate(-163.791 -212.493)" fill="#fff"/>
        </g>
      </g>
      <g id="Group_181-10" data-name="Group 181" transform="translate(34.397 30.944)">
        <g id="Group_180-10" data-name="Group 180" transform="translate(0 0)">
          <path id="Path_152-10" data-name="Path 152" d="M312.858,297.016l-11.684-14a1.811,1.811,0,0,0-.854-.569l-3.395-1.046a14.69,14.69,0,0,1-10.8,17.028l2.392,2.623a1.817,1.817,0,0,0,.878.53l17.651,4.6a1.8,1.8,0,0,0,1.976-.779l3.977-6.266A1.8,1.8,0,0,0,312.858,297.016Z" transform="translate(-286.121 -281.403)" fill="#fff"/>
        </g>
      </g>
    </g>
    <g id="propeller-12" data-name="propeller" transform="translate(1572.225 745.688)">
      <g id="Group_175-11" data-name="Group 175" transform="translate(19.691 0)">
        <g id="Group_174-11" data-name="Group 174" transform="translate(0 0)">
          <path id="Path_149-11" data-name="Path 149" d="M185.874,42.615l-5.57-17.36A1.8,1.8,0,0,0,178.588,24h-7.425a1.8,1.8,0,0,0-1.717,1.253l-5.57,17.36a1.794,1.794,0,0,0-.023,1.025l.934,3.425a14.695,14.695,0,0,1,20.175,0l.934-3.425A1.794,1.794,0,0,0,185.874,42.615Z" transform="translate(-163.79 -24.003)" fill="#fff"/>
        </g>
      </g>
      <g id="Group_177-11" data-name="Group 177" transform="translate(0 30.944)">
        <g id="Group_176-11" data-name="Group 176" transform="translate(0 0)">
          <path id="Path_150-11" data-name="Path 150" d="M19.658,293.8A14.686,14.686,0,0,1,16.351,281.4l-3.395,1.046a1.811,1.811,0,0,0-.854.569l-11.684,14a1.8,1.8,0,0,0-.137,2.122L4.258,305.4a1.8,1.8,0,0,0,1.976.779l17.651-4.6a1.817,1.817,0,0,0,.878-.53l2.392-2.622A14.7,14.7,0,0,1,19.658,293.8Z" transform="translate(0 -281.403)" fill="#fff"/>
        </g>
      </g>
      <g id="Group_179-11" data-name="Group 179" transform="translate(19.691 22.66)">
        <g id="Group_178-11" data-name="Group 178" transform="translate(0 0)">
          <path id="Path_151-11" data-name="Path 151" d="M174.876,212.493a11.079,11.079,0,1,0,11.085,11.079A11.083,11.083,0,0,0,174.876,212.493Z" transform="translate(-163.791 -212.493)" fill="#fff"/>
        </g>
      </g>
      <g id="Group_181-11" data-name="Group 181" transform="translate(34.397 30.944)">
        <g id="Group_180-11" data-name="Group 180" transform="translate(0 0)">
          <path id="Path_152-11" data-name="Path 152" d="M312.858,297.016l-11.684-14a1.811,1.811,0,0,0-.854-.569l-3.395-1.046a14.69,14.69,0,0,1-10.8,17.028l2.392,2.623a1.817,1.817,0,0,0,.878.53l17.651,4.6a1.8,1.8,0,0,0,1.976-.779l3.977-6.266A1.8,1.8,0,0,0,312.858,297.016Z" transform="translate(-286.121 -281.403)" fill="#fff"/>
        </g>
      </g>
    </g>
    <path id="step-platform-3" data-name="step-platform" d="M102.687,185.222,95.9,159.347a2.189,2.189,0,0,0-2.158-1.556H9.006a2.189,2.189,0,0,0-2.158,1.556L.061,185.222a1.9,1.9,0,0,0,.415,1.73,2.3,2.3,0,0,0,1.742.773h13.2a2.189,2.189,0,0,0,2.158-1.556l2.147-8.185H83.021l2.147,8.185a2.189,2.189,0,0,0,2.158,1.556h13.2a2.3,2.3,0,0,0,1.742-.773A1.9,1.9,0,0,0,102.687,185.222ZM91.993,161.85l1.158,4.415H87.594a2.217,2.217,0,0,0-2.09,1.349l-2.455,6.311H19.7l-2.455-6.311a2.217,2.217,0,0,0-2.09-1.349H9.6l1.158-4.415ZM13.674,183.666H5.033l3.5-13.342h5.055l2.141,5.5Zm75.4,0-2.056-7.838,2.141-5.5h5.055l3.5,13.342Z" transform="translate(1163.626 658.288)" fill="#fff"/>
    <path id="step-platform-4" data-name="step-platform" d="M102.687,185.222,95.9,159.347a2.189,2.189,0,0,0-2.158-1.556H9.006a2.189,2.189,0,0,0-2.158,1.556L.061,185.222a1.9,1.9,0,0,0,.415,1.73,2.3,2.3,0,0,0,1.742.773h13.2a2.189,2.189,0,0,0,2.158-1.556l2.147-8.185H83.021l2.147,8.185a2.189,2.189,0,0,0,2.158,1.556h13.2a2.3,2.3,0,0,0,1.742-.773A1.9,1.9,0,0,0,102.687,185.222ZM91.993,161.85l1.158,4.415H87.594a2.217,2.217,0,0,0-2.09,1.349l-2.455,6.311H19.7l-2.455-6.311a2.217,2.217,0,0,0-2.09-1.349H9.6l1.158-4.415ZM13.674,183.666H5.033l3.5-13.342h5.055l2.141,5.5Zm75.4,0-2.056-7.838,2.141-5.5h5.055l3.5,13.342Z" transform="translate(1551.626 658.288)" fill="#fff"/>
    <text id="Choose_the_drone" data-name="Choose the drone" transform="translate(323 92)" fill="#fff" font-size="28" font-family="BaiJamjuree-Medium, Bai Jamjuree" font-weight="500"><tspan x="-115.178" y="0">Choose the drone</tspan></text>
    <text id="Create_the_checklist_" data-name="Create the checklist " transform="translate(678 92)" fill="#fff" font-size="28" font-family="BaiJamjuree-Medium, Bai Jamjuree" font-weight="500"><tspan x="-134.82" y="0">Create the checklist </tspan></text>
    <text id="Choose_platform_for_the_drone" data-name="Choose platform for the drone" transform="translate(1126 92)" fill="#fff" font-size="28" font-family="BaiJamjuree-Medium, Bai Jamjuree" font-weight="500"><tspan x="-195.846" y="0">Choose platform for the drone</tspan></text>
    <text id="Install_the_drone_on_the_platform" data-name="Install the drone on the platform" transform="translate(1630 92)" fill="#505050" font-size="28" font-family="BaiJamjuree-Medium, Bai Jamjuree" font-weight="500"><tspan x="-210.434" y="0">Install the drone on the platform</tspan></text>
    <rect id="Rectangle_842" data-name="Rectangle 842" width="146" height="15" rx="7.5" transform="translate(250 41)" fill="#2b9ad0"/>
    <rect id="Rectangle_843" data-name="Rectangle 843" width="146" height="15" rx="7.5" transform="translate(605 41)" fill="#2b9ad0"/>
    <rect id="Rectangle_844" data-name="Rectangle 844" width="146" height="15" rx="7.5" transform="translate(1053 41)" fill="#2b9ad0"/>
    <g id="Rectangle_845" data-name="Rectangle 845" transform="translate(1557 41)" fill="#141f27" stroke="#2b9ad0" stroke-width="1">
      <rect width="146" height="15" rx="7.5" stroke="none"/>
      <rect x="0.5" y="0.5" width="145" height="14" rx="7" fill="none"/>
    </g>
    <line id="Line_88" data-name="Line 88" x2="184" transform="translate(407.5 48.5)" fill="none" stroke="#2b9ad0" stroke-linecap="round" stroke-width="1"/>
    <line id="Line_89" data-name="Line 89" x2="273" transform="translate(764.5 48.5)" fill="none" stroke="#2b9ad0" stroke-linecap="round" stroke-width="1"/>
    <line id="Line_90" data-name="Line 90" x2="330" transform="translate(1216.5 48.5)" fill="none" stroke="#2b9ad0" stroke-linecap="round" stroke-width="1"/>
  </g>
</svg>
