<svg xmlns="http://www.w3.org/2000/svg" xmlns:xlink="http://www.w3.org/1999/xlink" width="1920" height="1080" viewBox="0 0 1920 1080">
  <defs>
    <linearGradient id="linear-gradient" x1="0.5" y1="1" x2="0.5" gradientUnits="objectBoundingBox">
      <stop offset="0" stop-color="#00132d"/>
      <stop offset="1" stop-color="#0072aa"/>
      <stop offset="1" stop-color="#546172" stop-opacity="0"/>
    </linearGradient>
    <filter id="Path_289">
      <feOffset dy="3" input="SourceAlpha"/>
      <feGaussianBlur stdDeviation="3" result="blur"/>
      <feFlood flood-opacity="0.161" result="color"/>
      <feComposite operator="out" in="SourceGraphic" in2="blur"/>
      <feComposite operator="in" in="color"/>
      <feComposite operator="in" in2="SourceGraphic"/>
    </filter>
    <linearGradient id="linear-gradient-2" x1="0.014" y1="0.5" x2="1" y2="0.5" gradientUnits="objectBoundingBox">
      <stop offset="0"/>
      <stop offset="0.739" stop-color="#2b2b2b" stop-opacity="0.482"/>
      <stop offset="1" stop-color="#545454" stop-opacity="0"/>
    </linearGradient>
    <clipPath id="clip-_1.2_Add_new_drone">
      <rect width="1920" height="1080"/>
    </clipPath>
  </defs>
  <g id="_1.2_Add_new_drone" data-name="1.2 Add new drone" clip-path="url(#clip-_1.2_Add_new_drone)">
    <rect width="1920" height="1080" fill="#141f27"/>
    <g id="Path_937" data-name="Path 937" transform="translate(215 296)" fill="#303a41">
      <path d="M 1573 438.5 L 10 438.5 C 4.761600017547607 438.5 0.5 434.2384033203125 0.5 429 L 0.5 10 C 0.5 4.761600017547607 4.761600017547607 0.5 10 0.5 L 1573 0.5 C 1578.238403320312 0.5 1582.5 4.761600017547607 1582.5 10 L 1582.5 429 C 1582.5 434.2384033203125 1578.238403320312 438.5 1573 438.5 Z" stroke="none"/>
      <path d="M 10 1 C 5.037353515625 1 1 5.03741455078125 1 10 L 1 429 C 1 433.9625854492188 5.037353515625 438 10 438 L 1573 438 C 1577.962646484375 438 1582 433.9625854492188 1582 429 L 1582 10 C 1582 5.03741455078125 1577.962646484375 1 1573 1 L 10 1 M 10 0 L 1573 0 C 1578.522827148438 0 1583 4.477203369140625 1583 10 L 1583 429 C 1583 434.5227966308594 1578.522827148438 439 1573 439 L 10 439 C 4.4771728515625 439 0 434.5227966308594 0 429 L 0 10 C 0 4.477203369140625 4.4771728515625 0 10 0 Z" stroke="none" fill="#707070"/>
    </g>
    <g id="Path_947" data-name="Path 947" transform="translate(944 667)" fill="#141f27">
      <path d="M 179 41.5 L 5 41.5 C 3.070095300674438 41.5 1.5 39.92990493774414 1.5 38 L 1.5 5 C 1.5 3.070095300674438 3.070095300674438 1.5 5 1.5 L 179 1.5 C 180.9299011230469 1.5 182.5 3.070095300674438 182.5 5 L 182.5 38 C 182.5 39.92990493774414 180.9299011230469 41.5 179 41.5 Z" stroke="none"/>
      <path d="M 5 3 C 3.897186279296875 3 3 3.897182464599609 3 5 L 3 38 C 3 39.10281753540039 3.897186279296875 40 5 40 L 179 40 C 180.1028137207031 40 181 39.10281753540039 181 38 L 181 5 C 181 3.897182464599609 180.1028137207031 3 179 3 L 5 3 M 5 0 L 179 0 C 181.7614135742188 0 184 2.238578796386719 184 5 L 184 38 C 184 40.76142120361328 181.7614135742188 43 179 43 L 5 43 C 2.23858642578125 43 0 40.76142120361328 0 38 L 0 5 C 0 2.238578796386719 2.23858642578125 0 5 0 Z" stroke="none" fill="#001d2b"/>
    </g>
    <path id="Path_948" data-name="Path 948" d="M-13.55-14.28h2.66L-5.39,0H-8.07L-9.41-3.78h-5.7L-16.45,0h-2.58Zm-.88,8.6h4.36l-2.14-6.14h-.06ZM5.39,0H3.23V-1.4H3.19A2.708,2.708,0,0,1,1.85-.11,4.54,4.54,0,0,1-.01.28,4.938,4.938,0,0,1-2.14-.15,4.249,4.249,0,0,1-3.65-1.32a5.007,5.007,0,0,1-.9-1.75,7.587,7.587,0,0,1-.3-2.17,6.934,6.934,0,0,1,.38-2.42A4.846,4.846,0,0,1-3.46-9.34a3.9,3.9,0,0,1,1.44-.97,4.582,4.582,0,0,1,1.65-.31,5.526,5.526,0,0,1,.98.09,4.317,4.317,0,0,1,.96.29,3.786,3.786,0,0,1,.85.51A2.827,2.827,0,0,1,3.07-9h.04v-5.28H5.39ZM-2.57-5.06a5.043,5.043,0,0,0,.17,1.3,3.564,3.564,0,0,0,.52,1.14,2.631,2.631,0,0,0,.89.8,2.6,2.6,0,0,0,1.28.3A2.56,2.56,0,0,0,1.6-1.84a2.716,2.716,0,0,0,.9-.84,3.8,3.8,0,0,0,.52-1.17,5.235,5.235,0,0,0,.17-1.33,4.178,4.178,0,0,0-.77-2.68A2.537,2.537,0,0,0,.33-8.82a2.581,2.581,0,0,0-1.35.33,2.775,2.775,0,0,0-.9.86,3.572,3.572,0,0,0-.5,1.2A6.252,6.252,0,0,0-2.57-5.06ZM17.61,0H15.45V-1.4h-.04A2.708,2.708,0,0,1,14.07-.11a4.54,4.54,0,0,1-1.86.39,4.938,4.938,0,0,1-2.13-.43A4.249,4.249,0,0,1,8.57-1.32a5.007,5.007,0,0,1-.9-1.75,7.587,7.587,0,0,1-.3-2.17,6.934,6.934,0,0,1,.38-2.42A4.846,4.846,0,0,1,8.76-9.34a3.9,3.9,0,0,1,1.44-.97,4.582,4.582,0,0,1,1.65-.31,5.526,5.526,0,0,1,.98.09,4.317,4.317,0,0,1,.96.29,3.786,3.786,0,0,1,.85.51,2.827,2.827,0,0,1,.65.73h.04v-5.28h2.28ZM9.65-5.06a5.043,5.043,0,0,0,.17,1.3,3.564,3.564,0,0,0,.52,1.14,2.631,2.631,0,0,0,.89.8,2.6,2.6,0,0,0,1.28.3,2.56,2.56,0,0,0,1.31-.32,2.716,2.716,0,0,0,.9-.84,3.8,3.8,0,0,0,.52-1.17,5.235,5.235,0,0,0,.17-1.33,4.178,4.178,0,0,0-.77-2.68,2.537,2.537,0,0,0-2.09-.96,2.581,2.581,0,0,0-1.35.33,2.775,2.775,0,0,0-.9.86,3.572,3.572,0,0,0-.5,1.2A6.252,6.252,0,0,0,9.65-5.06Z" transform="translate(1036 697)" fill="#fff"/>
    <path id="Path_938" data-name="Path 938" d="M5.82.16A4.772,4.772,0,0,1,3.34-.48,4.3,4.3,0,0,1,1.67-2.29,5.942,5.942,0,0,1,1.08-5V-9a5.859,5.859,0,0,1,.6-2.71,4.349,4.349,0,0,1,1.69-1.81,4.9,4.9,0,0,1,2.53-.64H8.02a4.835,4.835,0,0,1,2.41.59,4.064,4.064,0,0,1,1.62,1.65,5.072,5.072,0,0,1,.57,2.44H10.76a3.076,3.076,0,0,0-.75-2.16,2.567,2.567,0,0,0-1.99-.82H5.9a2.63,2.63,0,0,0-2.11.96,3.807,3.807,0,0,0-.81,2.54v3.92A3.9,3.9,0,0,0,3.76-2.5a2.523,2.523,0,0,0,2.06.96H7.98a2.551,2.551,0,0,0,2.05-.91,3.574,3.574,0,0,0,.77-2.39h1.86a5.7,5.7,0,0,1-.58,2.62A4.188,4.188,0,0,1,10.44-.46,4.783,4.783,0,0,1,7.98.16ZM14.78-14h1.86v5.28A3.518,3.518,0,0,1,17.8-9.75a2.821,2.821,0,0,1,1.38-.39h1.36a3.029,3.029,0,0,1,2.33.96,3.559,3.559,0,0,1,.89,2.52V0H21.9V-6.66a2.024,2.024,0,0,0-.42-1.33,1.356,1.356,0,0,0-1.1-.51H19.1a2.24,2.24,0,0,0-1.56.65,3.01,3.01,0,0,0-.9,1.69V0H14.78ZM29.94.16A3.954,3.954,0,0,1,27.11-.85,3.476,3.476,0,0,1,26.04-3.5V-6.26a3.792,3.792,0,0,1,1.07-2.82,3.846,3.846,0,0,1,2.83-1.06h1.64A3.7,3.7,0,0,1,34.32-9.1a3.731,3.731,0,0,1,1.04,2.76v1.88H27.9v.96a2,2,0,0,0,.56,1.48,2,2,0,0,0,1.48.56h1.54a2.195,2.195,0,0,0,1.46-.47,1.55,1.55,0,0,0,.56-1.25h1.82A3.049,3.049,0,0,1,34.26-.76a4.12,4.12,0,0,1-2.8.92Zm3.56-6.1v-.4a2.329,2.329,0,0,0-.53-1.6,1.766,1.766,0,0,0-1.39-.6H29.94a1.884,1.884,0,0,0-1.48.63,2.421,2.421,0,0,0-.56,1.67v.3ZM41.1.16A3.82,3.82,0,0,1,38.32-.87a3.608,3.608,0,0,1-1.06-2.71V-6.26a3.832,3.832,0,0,1,1.05-2.82,3.725,3.725,0,0,1,2.77-1.06H42.7a3.746,3.746,0,0,1,2.64.92,3.157,3.157,0,0,1,1,2.44H44.5a1.652,1.652,0,0,0-.49-1.25A1.813,1.813,0,0,0,42.7-8.5H41.1a1.809,1.809,0,0,0-1.43.63,2.448,2.448,0,0,0-.55,1.67v2.56a2.186,2.186,0,0,0,.56,1.57,1.9,1.9,0,0,0,1.44.59h1.6a1.7,1.7,0,0,0,1.35-.59,2.317,2.317,0,0,0,.51-1.57h1.84A3.779,3.779,0,0,1,45.4-.89,3.567,3.567,0,0,1,42.72.16ZM55.34,0,51.7-4.48,50.4-3.2V0H48.54V-14H50.4v8.6l4.62-4.58h2.22L52.92-5.7,57.5,0Zm6.5,0a3.225,3.225,0,0,1-2.28-.67,2.9,2.9,0,0,1-.7-2.17V-14h1.86V-2.9a1.411,1.411,0,0,0,.28.98,1.211,1.211,0,0,0,.92.3h.8V0ZM65.7-11.3a1.291,1.291,0,0,1-.94-.35,1.213,1.213,0,0,1-.36-.91,1.213,1.213,0,0,1,.36-.91,1.291,1.291,0,0,1,.94-.35,1.257,1.257,0,0,1,.93.35,1.231,1.231,0,0,1,.35.91,1.231,1.231,0,0,1-.35.91A1.257,1.257,0,0,1,65.7-11.3Zm-.94,1.32h1.86V0H64.76ZM72.86.16a3.719,3.719,0,0,1-2.6-.89,3.022,3.022,0,0,1-.98-2.35H71.1a1.587,1.587,0,0,0,.48,1.2,1.773,1.773,0,0,0,1.28.46h1.76a2.263,2.263,0,0,0,1.22-.29.877.877,0,0,0,.46-.77v-.58a.759.759,0,0,0-.27-.57,1.366,1.366,0,0,0-.69-.33l-3.46-.6a3.346,3.346,0,0,1-1.76-.83,1.972,1.972,0,0,1-.66-1.47v-.66a2.278,2.278,0,0,1,.94-1.9,4.041,4.041,0,0,1,2.52-.72H74.6a3.463,3.463,0,0,1,2.41.82,2.792,2.792,0,0,1,.91,2.18H76.1a1.421,1.421,0,0,0-.43-1.03,1.489,1.489,0,0,0-1.07-.39H72.94a2.014,2.014,0,0,0-1.17.3.93.93,0,0,0-.43.8v.5a.719.719,0,0,0,.28.56,1.646,1.646,0,0,0,.72.34l3.5.62a3.161,3.161,0,0,1,1.69.8,1.933,1.933,0,0,1,.65,1.44v.78A2.2,2.2,0,0,1,77.2-.55a4.3,4.3,0,0,1-2.58.71ZM84.32,0a3.284,3.284,0,0,1-2.37-.72,3.153,3.153,0,0,1-.73-2.32V-8.36H79.46V-9.98h1.78V-13h1.84v3.02h2.6v1.62h-2.6v5.28a1.642,1.642,0,0,0,.31,1.12,1.31,1.31,0,0,0,1.01.34h1.28V0ZM95.88-11.94l-3.22,1.62V-12.1L96.24-14h1.54V0h-1.9Z" transform="translate(298 357)" fill="#fff"/>
    <path id="Path_942" data-name="Path 942" d="M5.82.16A4.772,4.772,0,0,1,3.34-.48,4.3,4.3,0,0,1,1.67-2.29,5.942,5.942,0,0,1,1.08-5V-9a5.859,5.859,0,0,1,.6-2.71,4.349,4.349,0,0,1,1.69-1.81,4.9,4.9,0,0,1,2.53-.64H8.02a4.835,4.835,0,0,1,2.41.59,4.064,4.064,0,0,1,1.62,1.65,5.072,5.072,0,0,1,.57,2.44H10.76a3.076,3.076,0,0,0-.75-2.16,2.567,2.567,0,0,0-1.99-.82H5.9a2.63,2.63,0,0,0-2.11.96,3.807,3.807,0,0,0-.81,2.54v3.92A3.9,3.9,0,0,0,3.76-2.5a2.523,2.523,0,0,0,2.06.96H7.98a2.551,2.551,0,0,0,2.05-.91,3.574,3.574,0,0,0,.77-2.39h1.86a5.7,5.7,0,0,1-.58,2.62A4.188,4.188,0,0,1,10.44-.46,4.783,4.783,0,0,1,7.98.16ZM14.78-14h1.86v5.28A3.518,3.518,0,0,1,17.8-9.75a2.821,2.821,0,0,1,1.38-.39h1.36a3.029,3.029,0,0,1,2.33.96,3.559,3.559,0,0,1,.89,2.52V0H21.9V-6.66a2.024,2.024,0,0,0-.42-1.33,1.356,1.356,0,0,0-1.1-.51H19.1a2.24,2.24,0,0,0-1.56.65,3.01,3.01,0,0,0-.9,1.69V0H14.78ZM29.94.16A3.954,3.954,0,0,1,27.11-.85,3.476,3.476,0,0,1,26.04-3.5V-6.26a3.792,3.792,0,0,1,1.07-2.82,3.846,3.846,0,0,1,2.83-1.06h1.64A3.7,3.7,0,0,1,34.32-9.1a3.731,3.731,0,0,1,1.04,2.76v1.88H27.9v.96a2,2,0,0,0,.56,1.48,2,2,0,0,0,1.48.56h1.54a2.195,2.195,0,0,0,1.46-.47,1.55,1.55,0,0,0,.56-1.25h1.82A3.049,3.049,0,0,1,34.26-.76a4.12,4.12,0,0,1-2.8.92Zm3.56-6.1v-.4a2.329,2.329,0,0,0-.53-1.6,1.766,1.766,0,0,0-1.39-.6H29.94a1.884,1.884,0,0,0-1.48.63,2.421,2.421,0,0,0-.56,1.67v.3ZM41.1.16A3.82,3.82,0,0,1,38.32-.87a3.608,3.608,0,0,1-1.06-2.71V-6.26a3.832,3.832,0,0,1,1.05-2.82,3.725,3.725,0,0,1,2.77-1.06H42.7a3.746,3.746,0,0,1,2.64.92,3.157,3.157,0,0,1,1,2.44H44.5a1.652,1.652,0,0,0-.49-1.25A1.813,1.813,0,0,0,42.7-8.5H41.1a1.809,1.809,0,0,0-1.43.63,2.448,2.448,0,0,0-.55,1.67v2.56a2.186,2.186,0,0,0,.56,1.57,1.9,1.9,0,0,0,1.44.59h1.6a1.7,1.7,0,0,0,1.35-.59,2.317,2.317,0,0,0,.51-1.57h1.84A3.779,3.779,0,0,1,45.4-.89,3.567,3.567,0,0,1,42.72.16ZM55.34,0,51.7-4.48,50.4-3.2V0H48.54V-14H50.4v8.6l4.62-4.58h2.22L52.92-5.7,57.5,0Zm6.5,0a3.225,3.225,0,0,1-2.28-.67,2.9,2.9,0,0,1-.7-2.17V-14h1.86V-2.9a1.411,1.411,0,0,0,.28.98,1.211,1.211,0,0,0,.92.3h.8V0ZM65.7-11.3a1.291,1.291,0,0,1-.94-.35,1.213,1.213,0,0,1-.36-.91,1.213,1.213,0,0,1,.36-.91,1.291,1.291,0,0,1,.94-.35,1.257,1.257,0,0,1,.93.35,1.231,1.231,0,0,1,.35.91,1.231,1.231,0,0,1-.35.91A1.257,1.257,0,0,1,65.7-11.3Zm-.94,1.32h1.86V0H64.76ZM72.86.16a3.719,3.719,0,0,1-2.6-.89,3.022,3.022,0,0,1-.98-2.35H71.1a1.587,1.587,0,0,0,.48,1.2,1.773,1.773,0,0,0,1.28.46h1.76a2.263,2.263,0,0,0,1.22-.29.877.877,0,0,0,.46-.77v-.58a.759.759,0,0,0-.27-.57,1.366,1.366,0,0,0-.69-.33l-3.46-.6a3.346,3.346,0,0,1-1.76-.83,1.972,1.972,0,0,1-.66-1.47v-.66a2.278,2.278,0,0,1,.94-1.9,4.041,4.041,0,0,1,2.52-.72H74.6a3.463,3.463,0,0,1,2.41.82,2.792,2.792,0,0,1,.91,2.18H76.1a1.421,1.421,0,0,0-.43-1.03,1.489,1.489,0,0,0-1.07-.39H72.94a2.014,2.014,0,0,0-1.17.3.93.93,0,0,0-.43.8v.5a.719.719,0,0,0,.28.56,1.646,1.646,0,0,0,.72.34l3.5.62a3.161,3.161,0,0,1,1.69.8,1.933,1.933,0,0,1,.65,1.44v.78A2.2,2.2,0,0,1,77.2-.55a4.3,4.3,0,0,1-2.58.71ZM84.32,0a3.284,3.284,0,0,1-2.37-.72,3.153,3.153,0,0,1-.73-2.32V-8.36H79.46V-9.98h1.78V-13h1.84v3.02h2.6v1.62h-2.6v5.28a1.642,1.642,0,0,0,.31,1.12,1.31,1.31,0,0,0,1.01.34h1.28V0Zm8.66-1.54a4.468,4.468,0,0,1,.41-1.98A3.868,3.868,0,0,1,94.74-5L99.7-8.5a2.364,2.364,0,0,0,.71-.75,1.748,1.748,0,0,0,.25-.89v-.64a1.549,1.549,0,0,0-.52-1.22,2.037,2.037,0,0,0-1.4-.46H96.9a1.906,1.906,0,0,0-1.53.67,2.734,2.734,0,0,0-.57,1.83H92.9a4.283,4.283,0,0,1,1.07-3.07,3.791,3.791,0,0,1,2.89-1.13h1.88a4.024,4.024,0,0,1,2.77.93,3.115,3.115,0,0,1,1.05,2.45v.64a3.445,3.445,0,0,1-1.68,2.96L96.06-3.86a2.889,2.889,0,0,0-.91.92,2.56,2.56,0,0,0-.27,1.26h7.84V0H92.98Z" transform="translate(298 462)" fill="#fff"/>
    <path id="Path_944" data-name="Path 944" d="M5.82.16A4.772,4.772,0,0,1,3.34-.48,4.3,4.3,0,0,1,1.67-2.29,5.942,5.942,0,0,1,1.08-5V-9a5.859,5.859,0,0,1,.6-2.71,4.349,4.349,0,0,1,1.69-1.81,4.9,4.9,0,0,1,2.53-.64H8.02a4.835,4.835,0,0,1,2.41.59,4.064,4.064,0,0,1,1.62,1.65,5.072,5.072,0,0,1,.57,2.44H10.76a3.076,3.076,0,0,0-.75-2.16,2.567,2.567,0,0,0-1.99-.82H5.9a2.63,2.63,0,0,0-2.11.96,3.807,3.807,0,0,0-.81,2.54v3.92A3.9,3.9,0,0,0,3.76-2.5a2.523,2.523,0,0,0,2.06.96H7.98a2.551,2.551,0,0,0,2.05-.91,3.574,3.574,0,0,0,.77-2.39h1.86a5.7,5.7,0,0,1-.58,2.62A4.188,4.188,0,0,1,10.44-.46,4.783,4.783,0,0,1,7.98.16ZM14.78-14h1.86v5.28A3.518,3.518,0,0,1,17.8-9.75a2.821,2.821,0,0,1,1.38-.39h1.36a3.029,3.029,0,0,1,2.33.96,3.559,3.559,0,0,1,.89,2.52V0H21.9V-6.66a2.024,2.024,0,0,0-.42-1.33,1.356,1.356,0,0,0-1.1-.51H19.1a2.24,2.24,0,0,0-1.56.65,3.01,3.01,0,0,0-.9,1.69V0H14.78ZM29.94.16A3.954,3.954,0,0,1,27.11-.85,3.476,3.476,0,0,1,26.04-3.5V-6.26a3.792,3.792,0,0,1,1.07-2.82,3.846,3.846,0,0,1,2.83-1.06h1.64A3.7,3.7,0,0,1,34.32-9.1a3.731,3.731,0,0,1,1.04,2.76v1.88H27.9v.96a2,2,0,0,0,.56,1.48,2,2,0,0,0,1.48.56h1.54a2.195,2.195,0,0,0,1.46-.47,1.55,1.55,0,0,0,.56-1.25h1.82A3.049,3.049,0,0,1,34.26-.76a4.12,4.12,0,0,1-2.8.92Zm3.56-6.1v-.4a2.329,2.329,0,0,0-.53-1.6,1.766,1.766,0,0,0-1.39-.6H29.94a1.884,1.884,0,0,0-1.48.63,2.421,2.421,0,0,0-.56,1.67v.3ZM41.1.16A3.82,3.82,0,0,1,38.32-.87a3.608,3.608,0,0,1-1.06-2.71V-6.26a3.832,3.832,0,0,1,1.05-2.82,3.725,3.725,0,0,1,2.77-1.06H42.7a3.746,3.746,0,0,1,2.64.92,3.157,3.157,0,0,1,1,2.44H44.5a1.652,1.652,0,0,0-.49-1.25A1.813,1.813,0,0,0,42.7-8.5H41.1a1.809,1.809,0,0,0-1.43.63,2.448,2.448,0,0,0-.55,1.67v2.56a2.186,2.186,0,0,0,.56,1.57,1.9,1.9,0,0,0,1.44.59h1.6a1.7,1.7,0,0,0,1.35-.59,2.317,2.317,0,0,0,.51-1.57h1.84A3.779,3.779,0,0,1,45.4-.89,3.567,3.567,0,0,1,42.72.16ZM55.34,0,51.7-4.48,50.4-3.2V0H48.54V-14H50.4v8.6l4.62-4.58h2.22L52.92-5.7,57.5,0Zm6.5,0a3.225,3.225,0,0,1-2.28-.67,2.9,2.9,0,0,1-.7-2.17V-14h1.86V-2.9a1.411,1.411,0,0,0,.28.98,1.211,1.211,0,0,0,.92.3h.8V0ZM65.7-11.3a1.291,1.291,0,0,1-.94-.35,1.213,1.213,0,0,1-.36-.91,1.213,1.213,0,0,1,.36-.91,1.291,1.291,0,0,1,.94-.35,1.257,1.257,0,0,1,.93.35,1.231,1.231,0,0,1,.35.91,1.231,1.231,0,0,1-.35.91A1.257,1.257,0,0,1,65.7-11.3Zm-.94,1.32h1.86V0H64.76ZM72.86.16a3.719,3.719,0,0,1-2.6-.89,3.022,3.022,0,0,1-.98-2.35H71.1a1.587,1.587,0,0,0,.48,1.2,1.773,1.773,0,0,0,1.28.46h1.76a2.263,2.263,0,0,0,1.22-.29.877.877,0,0,0,.46-.77v-.58a.759.759,0,0,0-.27-.57,1.366,1.366,0,0,0-.69-.33l-3.46-.6a3.346,3.346,0,0,1-1.76-.83,1.972,1.972,0,0,1-.66-1.47v-.66a2.278,2.278,0,0,1,.94-1.9,4.041,4.041,0,0,1,2.52-.72H74.6a3.463,3.463,0,0,1,2.41.82,2.792,2.792,0,0,1,.91,2.18H76.1a1.421,1.421,0,0,0-.43-1.03,1.489,1.489,0,0,0-1.07-.39H72.94a2.014,2.014,0,0,0-1.17.3.93.93,0,0,0-.43.8v.5a.719.719,0,0,0,.28.56,1.646,1.646,0,0,0,.72.34l3.5.62a3.161,3.161,0,0,1,1.69.8,1.933,1.933,0,0,1,.65,1.44v.78A2.2,2.2,0,0,1,77.2-.55a4.3,4.3,0,0,1-2.58.71ZM84.32,0a3.284,3.284,0,0,1-2.37-.72,3.153,3.153,0,0,1-.73-2.32V-8.36H79.46V-9.98h1.78V-13h1.84v3.02h2.6v1.62h-2.6v5.28a1.642,1.642,0,0,0,.31,1.12,1.31,1.31,0,0,0,1.01.34h1.28V0Zm17-7.2a3.513,3.513,0,0,1,1.35,1.17,2.86,2.86,0,0,1,.49,1.63v.8a3.7,3.7,0,0,1-.52,1.97,3.482,3.482,0,0,1-1.48,1.32,4.989,4.989,0,0,1-2.22.47H97A4.029,4.029,0,0,1,93.99-.99a4.217,4.217,0,0,1-1.13-3.09h1.86a2.664,2.664,0,0,0,.62,1.85A2.122,2.122,0,0,0,97-1.54h1.94a2.459,2.459,0,0,0,1.68-.56,1.893,1.893,0,0,0,.64-1.5v-.8a1.73,1.73,0,0,0-.63-1.44,2.747,2.747,0,0,0-1.75-.5H96.62V-7.98h2.26a2.261,2.261,0,0,0,1.56-.5,1.78,1.78,0,0,0,.56-1.4v-.8a1.637,1.637,0,0,0-.55-1.3,2.156,2.156,0,0,0-1.47-.48H97.04a1.962,1.962,0,0,0-1.57.69,2.751,2.751,0,0,0-.59,1.85H92.96a4.261,4.261,0,0,1,1.11-3.09,3.937,3.937,0,0,1,2.97-1.15h1.94a4.135,4.135,0,0,1,2.85.95,3.217,3.217,0,0,1,1.07,2.53v.8a2.99,2.99,0,0,1-.42,1.55A3.1,3.1,0,0,1,101.32-7.2Z" transform="translate(298 567)" fill="#fff"/>
    <path id="Path_931" data-name="Path 931" d="M12.6.336A11.385,11.385,0,0,1,6.909-1.05a9.517,9.517,0,0,1-3.8-3.927,12.345,12.345,0,0,1-1.344-5.859v-7.728a12.19,12.19,0,0,1,1.365-5.859A9.579,9.579,0,0,1,6.993-28.35a11.71,11.71,0,0,1,5.775-1.386H17.22a11.134,11.134,0,0,1,5.544,1.344,9.415,9.415,0,0,1,3.717,3.759A11.485,11.485,0,0,1,27.8-19.026H22.092a5.926,5.926,0,0,0-1.344-4.053,4.466,4.466,0,0,0-3.528-1.533H12.768a4.644,4.644,0,0,0-3.78,1.743A6.961,6.961,0,0,0,7.56-18.312v7.224A7.1,7.1,0,0,0,8.946-6.531,4.44,4.44,0,0,0,12.6-4.788h4.536A4.477,4.477,0,0,0,20.769-6.51a6.944,6.944,0,0,0,1.407-4.536h5.712a12.785,12.785,0,0,1-1.344,5.985,9.631,9.631,0,0,1-3.78,3.99A11.049,11.049,0,0,1,17.136.336ZM31.332-29.4h5.712v10.542a7.011,7.011,0,0,1,2.289-1.764,5.938,5.938,0,0,1,2.625-.672h2.6a7.176,7.176,0,0,1,5.4,2.1A7.624,7.624,0,0,1,52-13.65V0H46.284V-13.44a3.089,3.089,0,0,0-.693-2.1,2.256,2.256,0,0,0-1.785-.8H41.2a3.756,3.756,0,0,0-2.625,1.071,5.224,5.224,0,0,0-1.533,2.793V0H31.332ZM64.764.336a10.613,10.613,0,0,1-4.683-.987A7.569,7.569,0,0,1,56.91-3.423a7.472,7.472,0,0,1-1.134-4.1v-5.418A8.324,8.324,0,0,1,56.91-17.3a7.755,7.755,0,0,1,3.171-2.94,10.078,10.078,0,0,1,4.683-1.05h3.36a9.112,9.112,0,0,1,6.468,2.268,7.869,7.869,0,0,1,2.436,6.048v4.452H61.488v1.008a2.931,2.931,0,0,0,.882,2.226,3.328,3.328,0,0,0,2.394.84H68.04A3.968,3.968,0,0,0,70.413-5.1a2.006,2.006,0,0,0,.9-1.7h5.628A6.408,6.408,0,0,1,75.81-3.066a7.249,7.249,0,0,1-3.171,2.52,11.691,11.691,0,0,1-4.683.882ZM71.4-12.642v-.336a3.793,3.793,0,0,0-.882-2.625,3,3,0,0,0-2.352-.987h-3.4a3.087,3.087,0,0,0-2.436,1.05,4.043,4.043,0,0,0-.924,2.772v.126ZM89,.336a10.078,10.078,0,0,1-4.683-1.05,7.614,7.614,0,0,1-3.15-2.94,8.446,8.446,0,0,1-1.113-4.368v-4.914A8.446,8.446,0,0,1,81.165-17.3a7.644,7.644,0,0,1,3.129-2.94,9.95,9.95,0,0,1,4.662-1.05h3.318a9.486,9.486,0,0,1,4.452,1.008,7.2,7.2,0,0,1,2.982,2.835,8.32,8.32,0,0,1,1.05,4.221h-5.67a3.287,3.287,0,0,0-.777-2.289,2.614,2.614,0,0,0-2.037-.861H89.04a2.953,2.953,0,0,0-2.373,1.071,4.186,4.186,0,0,0-.9,2.793v4.074a4.124,4.124,0,0,0,.924,2.793,3.014,3.014,0,0,0,2.394,1.071h3.234a2.7,2.7,0,0,0,2.163-.966A3.828,3.828,0,0,0,95.3-8.106h5.67A8.168,8.168,0,0,1,98.6-1.974,8.617,8.617,0,0,1,92.316.336ZM118.9,0,112.35-8.4l-2.226,2.226V0h-5.712V-29.4h5.712v16.8l8.274-8.358h6.636l-8.988,8.9L125.37,0Zm15.624,0q-3.738,0-5.481-1.575A6.279,6.279,0,0,1,127.3-6.468V-29.4h5.712V-6.8a2.012,2.012,0,0,0,.462,1.47,2.012,2.012,0,0,0,1.47.462h2.268V0Zm8.82-22.932a3.637,3.637,0,0,1-2.625-.945,3.3,3.3,0,0,1-.987-2.5,3.3,3.3,0,0,1,.987-2.5,3.637,3.637,0,0,1,2.625-.945,3.637,3.637,0,0,1,2.625.945,3.3,3.3,0,0,1,.987,2.5,3.3,3.3,0,0,1-.987,2.5A3.637,3.637,0,0,1,143.346-22.932Zm-2.856,1.974H146.2V0H140.49ZM159.264.336a8.993,8.993,0,0,1-6.132-2.016,6.685,6.685,0,0,1-2.31-5.292h5.628a2.33,2.33,0,0,0,.777,1.827,2.946,2.946,0,0,0,2.037.693h3.78q2.52,0,2.52-1.386v-.714a1.021,1.021,0,0,0-.42-.777,2.347,2.347,0,0,0-1.134-.483l-7.266-1.26a7.514,7.514,0,0,1-4.053-1.827,4.4,4.4,0,0,1-1.491-3.3v-1.386a4.815,4.815,0,0,1,2.205-4.2,10.776,10.776,0,0,1,6.153-1.512h3.276a8.4,8.4,0,0,1,5.691,1.869,6.2,6.2,0,0,1,2.163,4.935H165.06a1.876,1.876,0,0,0-.609-1.47,2.331,2.331,0,0,0-1.617-.546h-3.192q-2.73,0-2.73,1.26v.672a1,1,0,0,0,.357.777,2.123,2.123,0,0,0,1.029.441l7.644,1.386a7.41,7.41,0,0,1,3.864,1.785,4.125,4.125,0,0,1,1.47,3.087v1.512a5.036,5.036,0,0,1-2.247,4.326,10.134,10.134,0,0,1-5.985,1.6ZM183.792,0q-3.7,0-5.418-1.68t-1.722-5.208v-9.2h-3.7v-4.872h3.864V-27.3h5.544v6.342h5.46v4.872h-5.46V-7.14a2.73,2.73,0,0,0,.441,1.722,1.7,1.7,0,0,0,1.407.546h3.612V0Z" transform="translate(229 254)" fill="#fff"/>
    <g id="Path_939" data-name="Path 939" transform="translate(298 371)" fill="none" stroke-linecap="round">
      <path d="M8,0H1373a8,8,0,0,1,8,8V32a8,8,0,0,1-8,8H8a8,8,0,0,1-8-8V8A8,8,0,0,1,8,0Z" stroke="none"/>
      <path d="M 8 2 C 4.691650390625 2 2 4.691635131835938 2 8 L 2 32 C 2 35.30836486816406 4.691650390625 38 8 38 L 1373 38 C 1376.308349609375 38 1379 35.30836486816406 1379 32 L 1379 8 C 1379 4.691635131835938 1376.308349609375 2 1373 2 L 8 2 M 8 0 L 1373 0 C 1377.418334960938 0 1381 3.581634521484375 1381 8 L 1381 32 C 1381 36.41836547851562 1377.418334960938 40 1373 40 L 8 40 C 3.5816650390625 40 0 36.41836547851562 0 32 L 0 8 C 0 3.581634521484375 3.5816650390625 0 8 0 Z" stroke="none" fill="#c7c7c7"/>
    </g>
    <g id="Path_945" data-name="Path 945" transform="translate(298 476)" fill="none" stroke-linecap="round">
      <path d="M8,0H1373a8,8,0,0,1,8,8V32a8,8,0,0,1-8,8H8a8,8,0,0,1-8-8V8A8,8,0,0,1,8,0Z" stroke="none"/>
      <path d="M 8 2 C 4.691650390625 2 2 4.691635131835938 2 8 L 2 32 C 2 35.30836486816406 4.691650390625 38 8 38 L 1373 38 C 1376.308349609375 38 1379 35.30836486816406 1379 32 L 1379 8 C 1379 4.691635131835938 1376.308349609375 2 1373 2 L 8 2 M 8 0 L 1373 0 C 1377.418334960938 0 1381 3.581634521484375 1381 8 L 1381 32 C 1381 36.41836547851562 1377.418334960938 40 1373 40 L 8 40 C 3.5816650390625 40 0 36.41836547851562 0 32 L 0 8 C 0 3.581634521484375 3.5816650390625 0 8 0 Z" stroke="none" fill="#c7c7c7"/>
    </g>
    <g id="Path_949" data-name="Path 949" transform="translate(298 581)" fill="none" stroke-linecap="round">
      <path d="M8,0H1373a8,8,0,0,1,8,8V32a8,8,0,0,1-8,8H8a8,8,0,0,1-8-8V8A8,8,0,0,1,8,0Z" stroke="none"/>
      <path d="M 8 2 C 4.691650390625 2 2 4.691635131835938 2 8 L 2 32 C 2 35.30836486816406 4.691650390625 38 8 38 L 1373 38 C 1376.308349609375 38 1379 35.30836486816406 1379 32 L 1379 8 C 1379 4.691635131835938 1376.308349609375 2 1373 2 L 8 2 M 8 0 L 1373 0 C 1377.418334960938 0 1381 3.581634521484375 1381 8 L 1381 32 C 1381 36.41836547851562 1377.418334960938 40 1373 40 L 8 40 C 3.5816650390625 40 0 36.41836547851562 0 32 L 0 8 C 0 3.581634521484375 3.5816650390625 0 8 0 Z" stroke="none" fill="#c7c7c7"/>
    </g>
    <path id="Path_204" data-name="Path 204" d="M4.242,22.311A12.742,12.742,0,1,0,1.5,18.251,12.732,12.732,0,0,0,4.242,22.311ZM13.276,2.366A10.911,10.911,0,1,1,2.365,13.277,10.911,10.911,0,0,1,13.276,2.366Z" transform="translate(1698.627 378.152)" fill="#fff"/>
    <path id="Path_205" data-name="Path 205" d="M12.8,25.6A12.8,12.8,0,0,1,7.816,1.007,12.8,12.8,0,0,1,17.78,24.59,12.72,12.72,0,0,1,12.8,25.6ZM12.8.045A12.757,12.757,0,0,0,7.833,24.55a12.757,12.757,0,0,0,9.93-23.5A12.675,12.675,0,0,0,12.8.045Zm0,23.687A10.933,10.933,0,0,1,5.067,5.068,10.933,10.933,0,1,1,20.529,20.53,10.861,10.861,0,0,1,12.8,23.732Zm0-21.822A10.889,10.889,0,0,0,5.1,20.5,10.889,10.889,0,1,0,20.5,5.1,10.818,10.818,0,0,0,12.8,1.91Z" transform="translate(1699.105 378.631)" fill="#fff"/>
    <path id="Path_206" data-name="Path 206" d="M178.918,188.414a.932.932,0,0,0,1.319,0l3.428-3.428,3.428,3.428a.933.933,0,0,0,1.319-1.319l-3.428-3.428,3.428-3.428a.933.933,0,1,0-1.319-1.319l-3.428,3.428-3.428-3.428a.933.933,0,1,0-1.319,1.319l3.428,3.428-3.428,3.428A.933.933,0,0,0,178.918,188.414Z" transform="translate(1528.238 207.762)" fill="#fff"/>
    <path id="Path_207" data-name="Path 207" d="M187.277,188.231a.948.948,0,0,1-.675-.28l-3.413-3.413-3.413,3.413a.954.954,0,1,1-1.35-1.35l3.413-3.413-3.413-3.413a.954.954,0,0,1,1.35-1.35l3.413,3.413,3.413-3.413a.954.954,0,0,1,1.35,1.35l-3.413,3.413,3.413,3.413a.954.954,0,0,1-.675,1.629Zm-4.088-3.754,3.444,3.444a.911.911,0,1,0,1.288-1.288l-3.444-3.444,3.444-3.444a.911.911,0,1,0-1.288-1.288l-3.444,3.444-3.444-3.444a.911.911,0,0,0-1.288,1.288l3.444,3.444-3.444,3.444a.911.911,0,1,0,1.288,1.288Z" transform="translate(1528.715 208.241)" fill="#fff"/>
    <path id="Path_204-2" data-name="Path 204" d="M4.242,22.311A12.742,12.742,0,1,0,1.5,18.251,12.732,12.732,0,0,0,4.242,22.311ZM13.276,2.366A10.911,10.911,0,1,1,2.365,13.277,10.911,10.911,0,0,1,13.276,2.366Z" transform="translate(1698.627 483.152)" fill="#fff"/>
    <path id="Path_205-2" data-name="Path 205" d="M12.8,25.6A12.8,12.8,0,0,1,7.816,1.007,12.8,12.8,0,0,1,17.78,24.59,12.72,12.72,0,0,1,12.8,25.6ZM12.8.045A12.757,12.757,0,0,0,7.833,24.55a12.757,12.757,0,0,0,9.93-23.5A12.675,12.675,0,0,0,12.8.045Zm0,23.687A10.933,10.933,0,0,1,5.067,5.068,10.933,10.933,0,1,1,20.529,20.53,10.861,10.861,0,0,1,12.8,23.732Zm0-21.822A10.889,10.889,0,0,0,5.1,20.5,10.889,10.889,0,1,0,20.5,5.1,10.818,10.818,0,0,0,12.8,1.91Z" transform="translate(1699.105 483.631)" fill="#fff"/>
    <path id="Path_206-2" data-name="Path 206" d="M178.918,188.414a.932.932,0,0,0,1.319,0l3.428-3.428,3.428,3.428a.933.933,0,0,0,1.319-1.319l-3.428-3.428,3.428-3.428a.933.933,0,1,0-1.319-1.319l-3.428,3.428-3.428-3.428a.933.933,0,1,0-1.319,1.319l3.428,3.428-3.428,3.428A.933.933,0,0,0,178.918,188.414Z" transform="translate(1528.238 312.762)" fill="#fff"/>
    <path id="Path_207-2" data-name="Path 207" d="M187.277,188.231a.948.948,0,0,1-.675-.28l-3.413-3.413-3.413,3.413a.954.954,0,1,1-1.35-1.35l3.413-3.413-3.413-3.413a.954.954,0,0,1,1.35-1.35l3.413,3.413,3.413-3.413a.954.954,0,0,1,1.35,1.35l-3.413,3.413,3.413,3.413a.954.954,0,0,1-.675,1.629Zm-4.088-3.754,3.444,3.444a.911.911,0,1,0,1.288-1.288l-3.444-3.444,3.444-3.444a.911.911,0,1,0-1.288-1.288l-3.444,3.444-3.444-3.444a.911.911,0,0,0-1.288,1.288l3.444,3.444-3.444,3.444a.911.911,0,1,0,1.288,1.288Z" transform="translate(1528.715 313.241)" fill="#fff"/>
    <path id="Path_204-3" data-name="Path 204" d="M4.242,22.311A12.742,12.742,0,1,0,1.5,18.251,12.732,12.732,0,0,0,4.242,22.311ZM13.276,2.366A10.911,10.911,0,1,1,2.365,13.277,10.911,10.911,0,0,1,13.276,2.366Z" transform="translate(1698.627 588.152)" fill="#fff"/>
    <path id="Path_205-3" data-name="Path 205" d="M12.8,25.6A12.8,12.8,0,0,1,7.816,1.007,12.8,12.8,0,0,1,17.78,24.59,12.72,12.72,0,0,1,12.8,25.6ZM12.8.045A12.757,12.757,0,0,0,7.833,24.55a12.757,12.757,0,0,0,9.93-23.5A12.675,12.675,0,0,0,12.8.045Zm0,23.687A10.933,10.933,0,0,1,5.067,5.068,10.933,10.933,0,1,1,20.529,20.53,10.861,10.861,0,0,1,12.8,23.732Zm0-21.822A10.889,10.889,0,0,0,5.1,20.5,10.889,10.889,0,1,0,20.5,5.1,10.818,10.818,0,0,0,12.8,1.91Z" transform="translate(1699.105 588.631)" fill="#fff"/>
    <path id="Path_206-3" data-name="Path 206" d="M178.918,188.414a.932.932,0,0,0,1.319,0l3.428-3.428,3.428,3.428a.933.933,0,0,0,1.319-1.319l-3.428-3.428,3.428-3.428a.933.933,0,1,0-1.319-1.319l-3.428,3.428-3.428-3.428a.933.933,0,1,0-1.319,1.319l3.428,3.428-3.428,3.428A.933.933,0,0,0,178.918,188.414Z" transform="translate(1528.238 417.762)" fill="#fff"/>
    <path id="Path_207-3" data-name="Path 207" d="M187.277,188.231a.948.948,0,0,1-.675-.28l-3.413-3.413-3.413,3.413a.954.954,0,1,1-1.35-1.35l3.413-3.413-3.413-3.413a.954.954,0,0,1,1.35-1.35l3.413,3.413,3.413-3.413a.954.954,0,0,1,1.35,1.35l-3.413,3.413,3.413,3.413a.954.954,0,0,1-.675,1.629Zm-4.088-3.754,3.444,3.444a.911.911,0,1,0,1.288-1.288l-3.444-3.444,3.444-3.444a.911.911,0,1,0-1.288-1.288l-3.444,3.444-3.444-3.444a.911.911,0,0,0-1.288,1.288l3.444,3.444-3.444,3.444a.911.911,0,1,0,1.288,1.288Z" transform="translate(1528.715 418.24)" fill="#fff"/>
    <path id="Path_952" data-name="Path 952" d="M5,0H179a5,5,0,0,1,5,5V38a5,5,0,0,1-5,5H5a5,5,0,0,1-5-5V5A5,5,0,0,1,5,0Z" transform="translate(1614 1009)" fill="#303a41"/>
    <path id="Path_953" data-name="Path 953" d="M5,0H179a5,5,0,0,1,5,5V38a5,5,0,0,1-5,5H5a5,5,0,0,1-5-5V5A5,5,0,0,1,5,0Z" transform="translate(1405 1009)" fill="#303a41"/>
    <path id="Path_954" data-name="Path 954" d="M5,0H179a5,5,0,0,1,5,5V38a5,5,0,0,1-5,5H5a5,5,0,0,1-5-5V5A5,5,0,0,1,5,0Z" transform="translate(1195 1009)" fill="#303a41"/>
    <path id="Path_955" data-name="Path 955" d="M-26.15.16a4.772,4.772,0,0,1-2.48-.64A4.3,4.3,0,0,1-30.3-2.29,5.942,5.942,0,0,1-30.89-5V-9a5.859,5.859,0,0,1,.6-2.71,4.349,4.349,0,0,1,1.69-1.81,4.9,4.9,0,0,1,2.53-.64h2.12a4.835,4.835,0,0,1,2.41.59,4.064,4.064,0,0,1,1.62,1.65,5.072,5.072,0,0,1,.57,2.44h-1.86a3.076,3.076,0,0,0-.75-2.16,2.567,2.567,0,0,0-1.99-.82h-2.12a2.63,2.63,0,0,0-2.11.96,3.807,3.807,0,0,0-.81,2.54v3.92a3.9,3.9,0,0,0,.78,2.54,2.523,2.523,0,0,0,2.06.96h2.16a2.551,2.551,0,0,0,2.05-.91,3.574,3.574,0,0,0,.77-2.39h1.86a5.7,5.7,0,0,1-.58,2.62A4.188,4.188,0,0,1-21.53-.46a4.783,4.783,0,0,1-2.46.62Zm11.94,0a3.566,3.566,0,0,1-2.4-.77,2.563,2.563,0,0,1-.9-2.05v-.66a2.5,2.5,0,0,1,.94-2.03,3.758,3.758,0,0,1,2.46-.77h1.26a5.012,5.012,0,0,1,1.28.18,3.857,3.857,0,0,1,1.16.5V-6.9a1.59,1.59,0,0,0-.46-1.19,1.643,1.643,0,0,0-1.2-.45h-1.64a1.925,1.925,0,0,0-1.22.36,1.138,1.138,0,0,0-.46.94h-1.84a2.59,2.59,0,0,1,.97-2.1,3.879,3.879,0,0,1,2.55-.8h1.64a3.587,3.587,0,0,1,2.54.89A3.053,3.053,0,0,1-8.57-6.9V0h-1.74V-1.34a3.434,3.434,0,0,1-1.2,1.09,3.065,3.065,0,0,1-1.5.41Zm1.3-1.54a2.531,2.531,0,0,0,1.56-.51,2.6,2.6,0,0,0,.94-1.37v-.6a2.726,2.726,0,0,0-1.04-.54,4.664,4.664,0,0,0-1.36-.2h-1.28a1.742,1.742,0,0,0-1.14.36,1.177,1.177,0,0,0-.44.96v.6a1.16,1.16,0,0,0,.43.95,1.767,1.767,0,0,0,1.15.35Zm7.02-8.6h1.78V-8.6A3.461,3.461,0,0,1-2.94-9.71a2.84,2.84,0,0,1,1.45-.43H-.17a3.029,3.029,0,0,1,2.33.96,3.559,3.559,0,0,1,.89,2.52V0H1.19V-6.66A2.024,2.024,0,0,0,.77-7.99,1.356,1.356,0,0,0-.33-8.5H-1.57a2.222,2.222,0,0,0-1.56.66,3.074,3.074,0,0,0-.9,1.72V0H-5.89ZM9.17.16A3.82,3.82,0,0,1,6.39-.87,3.608,3.608,0,0,1,5.33-3.58V-6.26A3.832,3.832,0,0,1,6.38-9.08a3.725,3.725,0,0,1,2.77-1.06h1.62a3.746,3.746,0,0,1,2.64.92,3.157,3.157,0,0,1,1,2.44H12.57a1.652,1.652,0,0,0-.49-1.25,1.813,1.813,0,0,0-1.31-.47H9.17a1.809,1.809,0,0,0-1.43.63A2.448,2.448,0,0,0,7.19-6.2v2.56a2.186,2.186,0,0,0,.56,1.57,1.9,1.9,0,0,0,1.44.59h1.6a1.7,1.7,0,0,0,1.35-.59,2.317,2.317,0,0,0,.51-1.57h1.84A3.779,3.779,0,0,1,13.47-.89,3.567,3.567,0,0,1,10.79.16Zm10.94,0A3.954,3.954,0,0,1,17.28-.85,3.476,3.476,0,0,1,16.21-3.5V-6.26a3.792,3.792,0,0,1,1.07-2.82,3.846,3.846,0,0,1,2.83-1.06h1.64A3.7,3.7,0,0,1,24.49-9.1a3.731,3.731,0,0,1,1.04,2.76v1.88H18.07v.96a2,2,0,0,0,.56,1.48,2,2,0,0,0,1.48.56h1.54a2.195,2.195,0,0,0,1.46-.47,1.55,1.55,0,0,0,.56-1.25h1.82A3.049,3.049,0,0,1,24.43-.76a4.12,4.12,0,0,1-2.8.92Zm3.56-6.1v-.4a2.329,2.329,0,0,0-.53-1.6,1.766,1.766,0,0,0-1.39-.6H20.11a1.884,1.884,0,0,0-1.48.63,2.421,2.421,0,0,0-.56,1.67v.3ZM30.81,0a3.225,3.225,0,0,1-2.28-.67,2.9,2.9,0,0,1-.7-2.17V-14h1.86V-2.9a1.411,1.411,0,0,0,.28.98,1.211,1.211,0,0,0,.92.3h.8V0Z" transform="translate(1497 1039)" fill="#fff"/>
    <path id="Path_956" data-name="Path 956" d="M-20.06,0a1.508,1.508,0,0,1-1.1-.41,1.454,1.454,0,0,1-.42-1.09V-14h6.26a4.616,4.616,0,0,1,2.93.87,2.789,2.789,0,0,1,1.11,2.31v1.04a2.926,2.926,0,0,1-.33,1.36,2.739,2.739,0,0,1-.93,1.04v.02a2.978,2.978,0,0,1,1.55,1.03A2.719,2.719,0,0,1-10.4-4.6v1A3.35,3.35,0,0,1-11.49-.98,4.249,4.249,0,0,1-14.44,0Zm5.02-7.86a1.787,1.787,0,0,0,1.35-.53,1.948,1.948,0,0,0,.51-1.41v-.92a1.372,1.372,0,0,0-.6-1.16,2.574,2.574,0,0,0-1.56-.44h-4.34v4.46Zm.4,6.18a2.54,2.54,0,0,0,1.71-.54,1.8,1.8,0,0,0,.63-1.44V-4.6a1.5,1.5,0,0,0-.54-1.2,2.115,2.115,0,0,0-1.42-.46h-5.42v4.58ZM-5.26.16a3.566,3.566,0,0,1-2.4-.77,2.563,2.563,0,0,1-.9-2.05v-.66a2.5,2.5,0,0,1,.94-2.03,3.758,3.758,0,0,1,2.46-.77H-3.9a5.012,5.012,0,0,1,1.28.18,3.857,3.857,0,0,1,1.16.5V-6.9a1.59,1.59,0,0,0-.46-1.19,1.643,1.643,0,0,0-1.2-.45H-4.76a1.925,1.925,0,0,0-1.22.36,1.138,1.138,0,0,0-.46.94H-8.28a2.59,2.59,0,0,1,.97-2.1,3.879,3.879,0,0,1,2.55-.8h1.64a3.587,3.587,0,0,1,2.54.89A3.053,3.053,0,0,1,.38-6.9V0H-1.36V-1.34A3.434,3.434,0,0,1-2.56-.25a3.065,3.065,0,0,1-1.5.41Zm1.3-1.54A2.531,2.531,0,0,0-2.4-1.89a2.6,2.6,0,0,0,.94-1.37v-.6A2.726,2.726,0,0,0-2.5-4.4a4.664,4.664,0,0,0-1.36-.2H-5.14a1.742,1.742,0,0,0-1.14.36,1.177,1.177,0,0,0-.44.96v.6a1.16,1.16,0,0,0,.43.95,1.767,1.767,0,0,0,1.15.35ZM6.5.16A3.82,3.82,0,0,1,3.72-.87,3.608,3.608,0,0,1,2.66-3.58V-6.26A3.832,3.832,0,0,1,3.71-9.08a3.725,3.725,0,0,1,2.77-1.06H8.1a3.746,3.746,0,0,1,2.64.92,3.157,3.157,0,0,1,1,2.44H9.9a1.652,1.652,0,0,0-.49-1.25A1.813,1.813,0,0,0,8.1-8.5H6.5a1.809,1.809,0,0,0-1.43.63A2.448,2.448,0,0,0,4.52-6.2v2.56a2.186,2.186,0,0,0,.56,1.57,1.9,1.9,0,0,0,1.44.59h1.6a1.7,1.7,0,0,0,1.35-.59,2.317,2.317,0,0,0,.51-1.57h1.84A3.779,3.779,0,0,1,10.8-.89,3.567,3.567,0,0,1,8.12.16ZM20.74,0,17.1-4.48,15.8-3.2V0H13.94V-14H15.8v8.6l4.62-4.58h2.22L18.32-5.7,22.9,0Z" transform="translate(1287 1039)" fill="#fff"/>
    <path id="Path_957" data-name="Path 957" d="M-36.27.16a4.772,4.772,0,0,1-2.48-.64,4.3,4.3,0,0,1-1.67-1.81A5.942,5.942,0,0,1-41.01-5V-9a5.859,5.859,0,0,1,.6-2.71,4.349,4.349,0,0,1,1.69-1.81,4.9,4.9,0,0,1,2.53-.64h2.12a4.835,4.835,0,0,1,2.41.59,4.064,4.064,0,0,1,1.62,1.65,5.072,5.072,0,0,1,.57,2.44h-1.86a3.076,3.076,0,0,0-.75-2.16,2.567,2.567,0,0,0-1.99-.82h-2.12a2.63,2.63,0,0,0-2.11.96,3.807,3.807,0,0,0-.81,2.54v3.92a3.9,3.9,0,0,0,.78,2.54,2.523,2.523,0,0,0,2.06.96h2.16a2.551,2.551,0,0,0,2.05-.91,3.574,3.574,0,0,0,.77-2.39h1.86a5.7,5.7,0,0,1-.58,2.62A4.188,4.188,0,0,1-31.65-.46a4.783,4.783,0,0,1-2.46.62Zm12.46,0A3.846,3.846,0,0,1-26.64-.9a3.74,3.74,0,0,1-1.07-2.78v-2.6a3.747,3.747,0,0,1,1.08-2.8,3.907,3.907,0,0,1,2.86-1.06h1.68a3.907,3.907,0,0,1,2.86,1.06,3.747,3.747,0,0,1,1.08,2.8v2.6A3.7,3.7,0,0,1-19.24-.9,3.941,3.941,0,0,1-22.11.16Zm1.68-1.64a2.009,2.009,0,0,0,1.54-.62,2.332,2.332,0,0,0,.58-1.66V-6.22a2.357,2.357,0,0,0-.57-1.66,1.953,1.953,0,0,0-1.51-.62h-1.68a1.953,1.953,0,0,0-1.51.62,2.357,2.357,0,0,0-.57,1.66v2.46a2.383,2.383,0,0,0,.56,1.66,1.922,1.922,0,0,0,1.5.62Zm6.38-8.5h1.78V-8.6A3.461,3.461,0,0,1-12.8-9.71a2.84,2.84,0,0,1,1.45-.43h1.32a3.029,3.029,0,0,1,2.33.96,3.559,3.559,0,0,1,.89,2.52V0H-8.67V-6.66a2.024,2.024,0,0,0-.42-1.33,1.356,1.356,0,0,0-1.1-.51h-1.24a2.222,2.222,0,0,0-1.56.66,3.074,3.074,0,0,0-.9,1.72V0h-1.86ZM-.07,0A3.283,3.283,0,0,1-2.44-.72a3.153,3.153,0,0,1-.73-2.32V-8.36H-4.93V-9.98h1.78V-13h1.84v3.02h2.6v1.62h-2.6v5.28A1.642,1.642,0,0,0-1-1.96a1.31,1.31,0,0,0,1.01.34H1.29V0ZM4.99-11.3a1.291,1.291,0,0,1-.94-.35,1.213,1.213,0,0,1-.36-.91,1.213,1.213,0,0,1,.36-.91,1.291,1.291,0,0,1,.94-.35,1.257,1.257,0,0,1,.93.35,1.231,1.231,0,0,1,.35.91,1.231,1.231,0,0,1-.35.91A1.257,1.257,0,0,1,4.99-11.3ZM4.05-9.98H5.91V0H4.05Zm5.02,0h1.78V-8.6a3.461,3.461,0,0,1,1.17-1.11,2.84,2.84,0,0,1,1.45-.43h1.32a3.029,3.029,0,0,1,2.33.96,3.559,3.559,0,0,1,.89,2.52V0H16.15V-6.66a2.024,2.024,0,0,0-.42-1.33,1.356,1.356,0,0,0-1.1-.51H13.39a2.222,2.222,0,0,0-1.56.66,3.074,3.074,0,0,0-.9,1.72V0H9.07ZM23.81.16a3.022,3.022,0,0,1-2.35-.98,3.69,3.69,0,0,1-.89-2.58V-9.98h1.86v6.62A2.1,2.1,0,0,0,22.85-2a1.346,1.346,0,0,0,1.1.52h1.2a2.169,2.169,0,0,0,1.54-.68,3.28,3.28,0,0,0,.92-1.72v-6.1h1.86V0H27.71V-1.44a4.029,4.029,0,0,1-1.2,1.15,2.669,2.669,0,0,1-1.42.45Zm11.96,0A3.954,3.954,0,0,1,32.94-.85,3.476,3.476,0,0,1,31.87-3.5V-6.26a3.792,3.792,0,0,1,1.07-2.82,3.846,3.846,0,0,1,2.83-1.06h1.64A3.7,3.7,0,0,1,40.15-9.1a3.731,3.731,0,0,1,1.04,2.76v1.88H33.73v.96a2,2,0,0,0,.56,1.48,2,2,0,0,0,1.48.56h1.54a2.195,2.195,0,0,0,1.46-.47,1.55,1.55,0,0,0,.56-1.25h1.82A3.049,3.049,0,0,1,40.09-.76a4.12,4.12,0,0,1-2.8.92Zm3.56-6.1v-.4a2.329,2.329,0,0,0-.53-1.6,1.766,1.766,0,0,0-1.39-.6H35.77a1.884,1.884,0,0,0-1.48.63,2.421,2.421,0,0,0-.56,1.67v.3Z" transform="translate(1706 1039)" fill="#fff"/>
    <g data-type="innerShadowGroup">
      <path id="Path_289-2" data-name="Path 289" d="M1.594,0h119.88c.88,0,1.594,2.608,1.594,5.825v1068.35c0,3.217-.714,5.825-1.594,5.825H1.594c-.88,0-1.594-2.608-1.594-5.825V5.825C0,2.608.714,0,1.594,0Z" fill="url(#linear-gradient)"/>
      <g transform="matrix(1, 0, 0, 1, 0, 0)" filter="url(#Path_289)">
        <path id="Path_289-3" data-name="Path 289" d="M1.594,0h119.88c.88,0,1.594,2.608,1.594,5.825v1068.35c0,3.217-.714,5.825-1.594,5.825H1.594c-.88,0-1.594-2.608-1.594-5.825V5.825C0,2.608.714,0,1.594,0Z" fill="#fff"/>
      </g>
    </g>
    <path id="Path_919" data-name="Path 919" d="M0,0H123.068V63H0Z" transform="translate(0 392.5)" fill="url(#linear-gradient-2)"/>
    <path id="Path_920" data-name="Path 920" d="M1.48-14h1.9v6.12H10.7V-14h1.92V0H10.7V-6.2H3.38V0H1.48ZM19,.16A3.846,3.846,0,0,1,16.17-.9,3.74,3.74,0,0,1,15.1-3.68v-2.6a3.747,3.747,0,0,1,1.08-2.8,3.907,3.907,0,0,1,2.86-1.06h1.68a3.907,3.907,0,0,1,2.86,1.06,3.747,3.747,0,0,1,1.08,2.8v2.6A3.7,3.7,0,0,1,23.57-.9,3.941,3.941,0,0,1,20.7.16Zm1.68-1.64a2.009,2.009,0,0,0,1.54-.62,2.332,2.332,0,0,0,.58-1.66V-6.22a2.357,2.357,0,0,0-.57-1.66,1.953,1.953,0,0,0-1.51-.62H19.04a1.953,1.953,0,0,0-1.51.62,2.357,2.357,0,0,0-.57,1.66v2.46a2.383,2.383,0,0,0,.56,1.66,1.922,1.922,0,0,0,1.5.62Zm17.48-8.66a2.846,2.846,0,0,1,2.2.89,3.448,3.448,0,0,1,.82,2.43V0H39.32V-6.84a1.882,1.882,0,0,0-.36-1.21,1.147,1.147,0,0,0-.94-.45H36.98a1.691,1.691,0,0,0-1.27.53,2.592,2.592,0,0,0-.65,1.45V0H33.18V-6.76a2.164,2.164,0,0,0-.33-1.28,1.04,1.04,0,0,0-.89-.46H30.94a1.694,1.694,0,0,0-1.32.65,3.2,3.2,0,0,0-.7,1.71V0H27.06V-9.98h1.78v1.34a3.242,3.242,0,0,1,.99-1.1,2.132,2.132,0,0,1,1.21-.4H32.2a2.417,2.417,0,0,1,1.39.4,2.7,2.7,0,0,1,.93,1.14A3.163,3.163,0,0,1,35.6-9.75a2.6,2.6,0,0,1,1.38-.39ZM47.36.16A3.954,3.954,0,0,1,44.53-.85,3.476,3.476,0,0,1,43.46-3.5V-6.26a3.792,3.792,0,0,1,1.07-2.82,3.846,3.846,0,0,1,2.83-1.06H49A3.7,3.7,0,0,1,51.74-9.1a3.731,3.731,0,0,1,1.04,2.76v1.88H45.32v.96a2,2,0,0,0,.56,1.48,2,2,0,0,0,1.48.56H48.9a2.195,2.195,0,0,0,1.46-.47,1.55,1.55,0,0,0,.56-1.25h1.82A3.049,3.049,0,0,1,51.68-.76a4.12,4.12,0,0,1-2.8.92Zm3.56-6.1v-.4a2.329,2.329,0,0,0-.53-1.6A1.766,1.766,0,0,0,49-8.54H47.36a1.884,1.884,0,0,0-1.48.63,2.421,2.421,0,0,0-.56,1.67v.3Z" transform="translate(35 215.5)" fill="#fff"/>
    <path id="Path_921" data-name="Path 921" d="M5.26.16A4.19,4.19,0,0,1,2.16-1,4.216,4.216,0,0,1,1-4.12H2.86a2.605,2.605,0,0,0,.67,1.88,2.337,2.337,0,0,0,1.77.7H7.52a2.975,2.975,0,0,0,1.76-.47,1.462,1.462,0,0,0,.66-1.25V-4.34a1.339,1.339,0,0,0-.47-1.04,2.576,2.576,0,0,0-1.33-.56L4.5-6.54a4.5,4.5,0,0,1-2.47-1.1,2.8,2.8,0,0,1-.87-2.1v-1.1a2.921,2.921,0,0,1,1.15-2.41,4.742,4.742,0,0,1,3.03-.91H7.6a4.339,4.339,0,0,1,2.09.49,3.47,3.47,0,0,1,1.41,1.38,4.114,4.114,0,0,1,.5,2.05H9.72a2.24,2.24,0,0,0-.58-1.61,2.026,2.026,0,0,0-1.54-.61H5.34a2.777,2.777,0,0,0-1.65.45,1.432,1.432,0,0,0-.63,1.23v.9a1.388,1.388,0,0,0,.45,1.06,2.55,2.55,0,0,0,1.29.58l3.6.62a4.928,4.928,0,0,1,2.55,1.09,2.63,2.63,0,0,1,.89,2.03v1.3A2.95,2.95,0,0,1,10.67-.76,4.892,4.892,0,0,1,7.56.16Zm12.38,0A3.954,3.954,0,0,1,14.81-.85,3.476,3.476,0,0,1,13.74-3.5V-6.26a3.792,3.792,0,0,1,1.07-2.82,3.846,3.846,0,0,1,2.83-1.06h1.64A3.7,3.7,0,0,1,22.02-9.1a3.731,3.731,0,0,1,1.04,2.76v1.88H15.6v.96a2,2,0,0,0,.56,1.48,2,2,0,0,0,1.48.56h1.54a2.195,2.195,0,0,0,1.46-.47,1.55,1.55,0,0,0,.56-1.25h1.82A3.049,3.049,0,0,1,21.96-.76a4.12,4.12,0,0,1-2.8.92Zm3.56-6.1v-.4a2.329,2.329,0,0,0-.53-1.6,1.766,1.766,0,0,0-1.39-.6H17.64a1.884,1.884,0,0,0-1.48.63,2.421,2.421,0,0,0-.56,1.67v.3ZM29.3,0a3.283,3.283,0,0,1-2.37-.72,3.153,3.153,0,0,1-.73-2.32V-8.36H24.44V-9.98h1.78V-13h1.84v3.02h2.6v1.62h-2.6v5.28a1.642,1.642,0,0,0,.31,1.12,1.31,1.31,0,0,0,1.01.34h1.28V0Zm7.82,0a3.283,3.283,0,0,1-2.37-.72,3.153,3.153,0,0,1-.73-2.32V-8.36H32.26V-9.98h1.78V-13h1.84v3.02h2.6v1.62h-2.6v5.28a1.642,1.642,0,0,0,.31,1.12,1.31,1.31,0,0,0,1.01.34h1.28V0Zm5.06-11.3a1.291,1.291,0,0,1-.94-.35,1.213,1.213,0,0,1-.36-.91,1.213,1.213,0,0,1,.36-.91,1.291,1.291,0,0,1,.94-.35,1.257,1.257,0,0,1,.93.35,1.231,1.231,0,0,1,.35.91,1.231,1.231,0,0,1-.35.91A1.257,1.257,0,0,1,42.18-11.3Zm-.94,1.32H43.1V0H41.24Zm5.02,0h1.78V-8.6a3.461,3.461,0,0,1,1.17-1.11,2.84,2.84,0,0,1,1.45-.43h1.32a3.029,3.029,0,0,1,2.33.96,3.559,3.559,0,0,1,.89,2.52V0H53.34V-6.66a2.024,2.024,0,0,0-.42-1.33,1.356,1.356,0,0,0-1.1-.51H50.58a2.222,2.222,0,0,0-1.56.66,3.074,3.074,0,0,0-.9,1.72V0H46.26ZM61.34,4.06a3.532,3.532,0,0,1-2.35-.78,2.847,2.847,0,0,1-1.03-2.04h1.86a1.271,1.271,0,0,0,.48.88,1.6,1.6,0,0,0,1.04.34h1.7a1.714,1.714,0,0,0,1.41-.63A2.675,2.675,0,0,0,64.96.1V-1.24a3.415,3.415,0,0,1-1.1.88,2.755,2.755,0,0,1-1.26.34H61.16A3.8,3.8,0,0,1,59.24-.5a3.28,3.28,0,0,1-1.3-1.36,4.3,4.3,0,0,1-.46-2.02V-6.12a4.4,4.4,0,0,1,.49-2.1,3.473,3.473,0,0,1,1.37-1.42,4.017,4.017,0,0,1,2.02-.5h1.32A2.877,2.877,0,0,1,64-9.79a2.869,2.869,0,0,1,1.06.89V-9.98h1.76V.1A4.031,4.031,0,0,1,65.81,3a3.644,3.644,0,0,1-2.77,1.06Zm1.32-5.7a2.017,2.017,0,0,0,1.57-.74,3.113,3.113,0,0,0,.73-1.9v-2.1a2.345,2.345,0,0,0-.68-1.53,1.981,1.981,0,0,0-1.44-.59H61.46a1.944,1.944,0,0,0-1.53.67,2.581,2.581,0,0,0-.59,1.77v2.12a2.486,2.486,0,0,0,.54,1.66,1.7,1.7,0,0,0,1.36.64ZM72.7.16a3.719,3.719,0,0,1-2.6-.89,3.022,3.022,0,0,1-.98-2.35h1.82a1.587,1.587,0,0,0,.48,1.2,1.773,1.773,0,0,0,1.28.46h1.76a2.263,2.263,0,0,0,1.22-.29.877.877,0,0,0,.46-.77v-.58a.759.759,0,0,0-.27-.57,1.366,1.366,0,0,0-.69-.33l-3.46-.6a3.346,3.346,0,0,1-1.76-.83,1.972,1.972,0,0,1-.66-1.47v-.66a2.278,2.278,0,0,1,.94-1.9,4.041,4.041,0,0,1,2.52-.72h1.68a3.463,3.463,0,0,1,2.41.82,2.792,2.792,0,0,1,.91,2.18H75.94a1.421,1.421,0,0,0-.43-1.03,1.489,1.489,0,0,0-1.07-.39H72.78a2.014,2.014,0,0,0-1.17.3.93.93,0,0,0-.43.8v.5a.719.719,0,0,0,.28.56,1.646,1.646,0,0,0,.72.34l3.5.62a3.161,3.161,0,0,1,1.69.8,1.933,1.933,0,0,1,.65,1.44v.78a2.2,2.2,0,0,1-.98,1.87,4.3,4.3,0,0,1-2.58.71Z" transform="translate(20 933.318)" fill="#fff"/>
    <path id="Path_922" data-name="Path 922" d="M3,0A1.521,1.521,0,0,1,1.89-.4a1.44,1.44,0,0,1-.41-1.08V-14h1.9V-1.68h7.6V0ZM16.04.16A3.846,3.846,0,0,1,13.21-.9a3.74,3.74,0,0,1-1.07-2.78v-2.6a3.747,3.747,0,0,1,1.08-2.8,3.907,3.907,0,0,1,2.86-1.06h1.68a3.907,3.907,0,0,1,2.86,1.06,3.747,3.747,0,0,1,1.08,2.8v2.6A3.7,3.7,0,0,1,20.61-.9,3.941,3.941,0,0,1,17.74.16Zm1.68-1.64a2.009,2.009,0,0,0,1.54-.62,2.332,2.332,0,0,0,.58-1.66V-6.22a2.357,2.357,0,0,0-.57-1.66,1.953,1.953,0,0,0-1.51-.62H16.08a1.953,1.953,0,0,0-1.51.62A2.357,2.357,0,0,0,14-6.22v2.46a2.383,2.383,0,0,0,.56,1.66,1.922,1.922,0,0,0,1.5.62Zm9.84,5.54a3.532,3.532,0,0,1-2.35-.78,2.847,2.847,0,0,1-1.03-2.04h1.86a1.271,1.271,0,0,0,.48.88,1.6,1.6,0,0,0,1.04.34h1.7a1.714,1.714,0,0,0,1.41-.63A2.675,2.675,0,0,0,31.18.1V-1.24a3.415,3.415,0,0,1-1.1.88,2.755,2.755,0,0,1-1.26.34H27.38A3.8,3.8,0,0,1,25.46-.5a3.28,3.28,0,0,1-1.3-1.36,4.3,4.3,0,0,1-.46-2.02V-6.12a4.4,4.4,0,0,1,.49-2.1,3.473,3.473,0,0,1,1.37-1.42,4.017,4.017,0,0,1,2.02-.5H28.9a2.877,2.877,0,0,1,1.32.35,2.869,2.869,0,0,1,1.06.89V-9.98h1.76V.1A4.031,4.031,0,0,1,32.03,3a3.644,3.644,0,0,1-2.77,1.06Zm1.32-5.7a2.017,2.017,0,0,0,1.57-.74,3.113,3.113,0,0,0,.73-1.9v-2.1a2.345,2.345,0,0,0-.68-1.53,1.981,1.981,0,0,0-1.44-.59H27.68a1.944,1.944,0,0,0-1.53.67,2.581,2.581,0,0,0-.59,1.77v2.12a2.486,2.486,0,0,0,.54,1.66,1.7,1.7,0,0,0,1.36.64ZM44.72.16A3.846,3.846,0,0,1,41.89-.9a3.74,3.74,0,0,1-1.07-2.78v-2.6a3.747,3.747,0,0,1,1.08-2.8,3.907,3.907,0,0,1,2.86-1.06h1.68A3.907,3.907,0,0,1,49.3-9.08a3.747,3.747,0,0,1,1.08,2.8v2.6A3.7,3.7,0,0,1,49.29-.9,3.941,3.941,0,0,1,46.42.16ZM46.4-1.48a2.009,2.009,0,0,0,1.54-.62,2.332,2.332,0,0,0,.58-1.66V-6.22a2.357,2.357,0,0,0-.57-1.66,1.953,1.953,0,0,0-1.51-.62H44.76a1.953,1.953,0,0,0-1.51.62,2.357,2.357,0,0,0-.57,1.66v2.46a2.383,2.383,0,0,0,.56,1.66,1.922,1.922,0,0,0,1.5.62ZM55.9.16a3.022,3.022,0,0,1-2.35-.98,3.69,3.69,0,0,1-.89-2.58V-9.98h1.86v6.62A2.1,2.1,0,0,0,54.94-2a1.346,1.346,0,0,0,1.1.52h1.2a2.169,2.169,0,0,0,1.54-.68,3.28,3.28,0,0,0,.92-1.72v-6.1h1.86V0H59.8V-1.44A4.029,4.029,0,0,1,58.6-.29a2.669,2.669,0,0,1-1.42.45ZM68.42,0a3.284,3.284,0,0,1-2.37-.72,3.153,3.153,0,0,1-.73-2.32V-8.36H63.56V-9.98h1.78V-13h1.84v3.02h2.6v1.62h-2.6v5.28a1.642,1.642,0,0,0,.31,1.12,1.31,1.31,0,0,0,1.01.34h1.28V0Z" transform="translate(26 1061.561)" fill="#fff"/>
    <path id="Path_923" data-name="Path 923" d="M3,0A1.521,1.521,0,0,1,1.89-.4a1.466,1.466,0,0,1-.41-1.1V-14h6.1a5.854,5.854,0,0,1,2.67.58,4.221,4.221,0,0,1,1.78,1.65,4.737,4.737,0,0,1,.63,2.45v4.24a5.187,5.187,0,0,1-1.27,3.79A5.009,5.009,0,0,1,7.66,0ZM7.6-1.7a3.068,3.068,0,0,0,2.36-.86,3.637,3.637,0,0,0,.8-2.56V-9.28a2.854,2.854,0,0,0-.89-2.19,3.307,3.307,0,0,0-2.35-.83H3.38V-1.7Zm7.46-8.28h1.78v1.46A3.017,3.017,0,0,1,18.01-9.6a3.317,3.317,0,0,1,1.61-.42h1.04v1.66H19.62a2.63,2.63,0,0,0-1.96.75,2.684,2.684,0,0,0-.74,1.97V0H15.06ZM25.52.16A3.846,3.846,0,0,1,22.69-.9a3.74,3.74,0,0,1-1.07-2.78v-2.6a3.747,3.747,0,0,1,1.08-2.8,3.907,3.907,0,0,1,2.86-1.06h1.68A3.907,3.907,0,0,1,30.1-9.08a3.747,3.747,0,0,1,1.08,2.8v2.6A3.7,3.7,0,0,1,30.09-.9,3.941,3.941,0,0,1,27.22.16ZM27.2-1.48a2.009,2.009,0,0,0,1.54-.62,2.332,2.332,0,0,0,.58-1.66V-6.22a2.357,2.357,0,0,0-.57-1.66,1.953,1.953,0,0,0-1.51-.62H25.56a1.953,1.953,0,0,0-1.51.62,2.357,2.357,0,0,0-.57,1.66v2.46a2.383,2.383,0,0,0,.56,1.66,1.922,1.922,0,0,0,1.5.62Zm6.38-8.5h1.78V-8.6a3.461,3.461,0,0,1,1.17-1.11,2.84,2.84,0,0,1,1.45-.43H39.3a3.029,3.029,0,0,1,2.33.96,3.559,3.559,0,0,1,.89,2.52V0H40.66V-6.66a2.024,2.024,0,0,0-.42-1.33,1.356,1.356,0,0,0-1.1-.51H37.9a2.222,2.222,0,0,0-1.56.66,3.074,3.074,0,0,0-.9,1.72V0H33.58ZM48.7.16A3.954,3.954,0,0,1,45.87-.85,3.476,3.476,0,0,1,44.8-3.5V-6.26a3.792,3.792,0,0,1,1.07-2.82,3.846,3.846,0,0,1,2.83-1.06h1.64A3.7,3.7,0,0,1,53.08-9.1a3.731,3.731,0,0,1,1.04,2.76v1.88H46.66v.96a2,2,0,0,0,.56,1.48,2,2,0,0,0,1.48.56h1.54a2.195,2.195,0,0,0,1.46-.47,1.55,1.55,0,0,0,.56-1.25h1.82A3.049,3.049,0,0,1,53.02-.76a4.12,4.12,0,0,1-2.8.92Zm3.56-6.1v-.4a2.329,2.329,0,0,0-.53-1.6,1.766,1.766,0,0,0-1.39-.6H48.7a1.884,1.884,0,0,0-1.48.63,2.421,2.421,0,0,0-.56,1.67v.3Z" transform="translate(34 342.5)" fill="#fff"/>
    <path id="Path_924" data-name="Path 924" d="M9.5-3.68H3.66L2.3,0H.32L5.74-14H6.6a1.258,1.258,0,0,1,1.22.94L12.84,0H10.88ZM4.22-5.28H8.94L6.6-11.6H6.58ZM17.5.16A3.492,3.492,0,0,1,14.85-.9a3.891,3.891,0,0,1-1.01-2.8V-6.06a4.578,4.578,0,0,1,.48-2.13,3.478,3.478,0,0,1,1.35-1.44,3.9,3.9,0,0,1,2.01-.51h1.36a2.865,2.865,0,0,1,1.26.3,2.716,2.716,0,0,1,1,.8V-14h1.88V0H21.4V-1.42A3.513,3.513,0,0,1,20.24-.28,2.742,2.742,0,0,1,18.8.16Zm1.38-1.64a2.152,2.152,0,0,0,1.64-.77,2.978,2.978,0,0,0,.78-1.83V-6.34a2.684,2.684,0,0,0-.73-1.57,1.924,1.924,0,0,0-1.41-.59H17.82a1.919,1.919,0,0,0-1.53.69,2.719,2.719,0,0,0-.59,1.83v2.22a2.418,2.418,0,0,0,.55,1.65,1.766,1.766,0,0,0,1.39.63ZM29.24.16A3.492,3.492,0,0,1,26.59-.9a3.891,3.891,0,0,1-1.01-2.8V-6.06a4.578,4.578,0,0,1,.48-2.13,3.478,3.478,0,0,1,1.35-1.44,3.9,3.9,0,0,1,2.01-.51h1.36a2.865,2.865,0,0,1,1.26.3,2.716,2.716,0,0,1,1,.8V-14h1.88V0H33.14V-1.42A3.513,3.513,0,0,1,31.98-.28a2.742,2.742,0,0,1-1.44.44Zm1.38-1.64a2.152,2.152,0,0,0,1.64-.77,2.978,2.978,0,0,0,.78-1.83V-6.34a2.684,2.684,0,0,0-.73-1.57A1.924,1.924,0,0,0,30.9-8.5H29.56a1.919,1.919,0,0,0-1.53.69,2.719,2.719,0,0,0-.59,1.83v2.22a2.418,2.418,0,0,0,.55,1.65,1.766,1.766,0,0,0,1.39.63ZM46.36.16A3.492,3.492,0,0,1,43.71-.9,3.891,3.891,0,0,1,42.7-3.7V-6.06a4.578,4.578,0,0,1,.48-2.13,3.478,3.478,0,0,1,1.35-1.44,3.9,3.9,0,0,1,2.01-.51H47.9a2.865,2.865,0,0,1,1.26.3,2.716,2.716,0,0,1,1,.8V-14h1.88V0H50.26V-1.42A3.513,3.513,0,0,1,49.1-.28a2.742,2.742,0,0,1-1.44.44Zm1.38-1.64a2.152,2.152,0,0,0,1.64-.77,2.978,2.978,0,0,0,.78-1.83V-6.34a2.684,2.684,0,0,0-.73-1.57,1.924,1.924,0,0,0-1.41-.59H46.68a1.919,1.919,0,0,0-1.53.69,2.719,2.719,0,0,0-.59,1.83v2.22a2.418,2.418,0,0,0,.55,1.65,1.766,1.766,0,0,0,1.39.63Zm7.1-8.5h1.78v1.46A3.017,3.017,0,0,1,57.79-9.6a3.317,3.317,0,0,1,1.61-.42h1.04v1.66H59.4a2.63,2.63,0,0,0-1.96.75,2.684,2.684,0,0,0-.74,1.97V0H54.84ZM65.3.16A3.846,3.846,0,0,1,62.47-.9,3.74,3.74,0,0,1,61.4-3.68v-2.6a3.747,3.747,0,0,1,1.08-2.8,3.907,3.907,0,0,1,2.86-1.06h1.68a3.907,3.907,0,0,1,2.86,1.06,3.747,3.747,0,0,1,1.08,2.8v2.6A3.7,3.7,0,0,1,69.87-.9,3.941,3.941,0,0,1,67,.16Zm1.68-1.64a2.009,2.009,0,0,0,1.54-.62,2.332,2.332,0,0,0,.58-1.66V-6.22a2.357,2.357,0,0,0-.57-1.66,1.953,1.953,0,0,0-1.51-.62H65.34a1.953,1.953,0,0,0-1.51.62,2.357,2.357,0,0,0-.57,1.66v2.46a2.383,2.383,0,0,0,.56,1.66,1.922,1.922,0,0,0,1.5.62Zm6.38-8.5h1.78V-8.6a3.461,3.461,0,0,1,1.17-1.11,2.84,2.84,0,0,1,1.45-.43h1.32a3.029,3.029,0,0,1,2.33.96,3.559,3.559,0,0,1,.89,2.52V0H80.44V-6.66a2.024,2.024,0,0,0-.42-1.33,1.356,1.356,0,0,0-1.1-.51H77.68a2.222,2.222,0,0,0-1.56.66,3.074,3.074,0,0,0-.9,1.72V0H73.36ZM88.48.16A3.954,3.954,0,0,1,85.65-.85,3.476,3.476,0,0,1,84.58-3.5V-6.26a3.792,3.792,0,0,1,1.07-2.82,3.846,3.846,0,0,1,2.83-1.06h1.64A3.7,3.7,0,0,1,92.86-9.1,3.731,3.731,0,0,1,93.9-6.34v1.88H86.44v.96A2,2,0,0,0,87-2.02a2,2,0,0,0,1.48.56h1.54a2.195,2.195,0,0,0,1.46-.47,1.55,1.55,0,0,0,.56-1.25h1.82A3.049,3.049,0,0,1,92.8-.76,4.12,4.12,0,0,1,90,.16Zm3.56-6.1v-.4a2.329,2.329,0,0,0-.53-1.6,1.766,1.766,0,0,0-1.39-.6H88.48A1.884,1.884,0,0,0,87-7.91a2.421,2.421,0,0,0-.56,1.67v.3Z" transform="translate(14.523 479.962)" fill="#fff"/>
    <path id="settings-3" d="M34.855,14.435l-2.889-.367a14.522,14.522,0,0,0-.874-2.111l1.784-2.3a2.284,2.284,0,0,0-.187-3.041L30.268,4.2a2.29,2.29,0,0,0-3.05-.2L24.924,5.787a14.469,14.469,0,0,0-2.113-.874l-.367-2.884A2.3,2.3,0,0,0,20.16,0H16.718a2.3,2.3,0,0,0-2.283,2.024l-.367,2.889a14.3,14.3,0,0,0-2.113.874L9.659,4a2.286,2.286,0,0,0-3.041.187L4.2,6.609A2.291,2.291,0,0,0,4,9.661l1.784,2.3a14.352,14.352,0,0,0-.874,2.111l-2.884.367A2.3,2.3,0,0,0,0,16.718V20.16a2.3,2.3,0,0,0,2.024,2.283l2.889.367a14.521,14.521,0,0,0,.874,2.111L4,27.22a2.284,2.284,0,0,0,.187,3.041l2.42,2.42a2.292,2.292,0,0,0,3.05.194l2.3-1.784a14.186,14.186,0,0,0,2.111.874l.367,2.883a2.3,2.3,0,0,0,2.283,2.031H20.16a2.3,2.3,0,0,0,2.283-2.024l.367-2.889a14.522,14.522,0,0,0,2.111-.874l2.3,1.784a2.284,2.284,0,0,0,3.041-.187l2.42-2.42a2.289,2.289,0,0,0,.2-3.05l-1.784-2.3a14.187,14.187,0,0,0,.874-2.111l2.883-.367a2.3,2.3,0,0,0,2.028-2.283V16.718a2.3,2.3,0,0,0-2.022-2.283ZM18.439,26.123a7.683,7.683,0,1,1,7.683-7.683,7.692,7.692,0,0,1-7.683,7.683Z" transform="translate(43 868.5)" fill="#fff"/>
    <path id="Path_44" data-name="Path 44" d="M10.756,18.443a4.616,4.616,0,0,0-4.61-4.61H0V1.54A1.536,1.536,0,0,1,1.537,0H23.049A1.536,1.536,0,0,1,24.586,1.54V35.345a1.536,1.536,0,0,1-1.537,1.537H1.537A1.536,1.536,0,0,1,0,35.345V23.052H6.146A4.616,4.616,0,0,0,10.756,18.443Z" transform="translate(49.293 1004.679)" fill="#fff"/>
    <path id="Path_45" data-name="Path 45" d="M235.013,157.984l-.013-.018c-.026-.033-.052-.067-.075-.1-.011-.017-.02-.034-.031-.051s-.031-.051-.046-.077-.021-.044-.032-.066-.022-.045-.032-.069-.019-.051-.028-.076-.016-.042-.022-.064-.016-.061-.023-.091-.009-.035-.013-.053c-.008-.042-.014-.084-.019-.126,0-.007,0-.014,0-.022a1.546,1.546,0,0,1,0-.311c0-.007,0-.014,0-.022,0-.042.011-.084.019-.126,0-.018.009-.036.013-.053s.014-.061.023-.091.015-.043.022-.064.018-.051.028-.077.021-.046.032-.069.02-.044.032-.066.03-.052.046-.077.02-.034.031-.051c.024-.035.049-.069.075-.1l.013-.018a1.536,1.536,0,0,1,.11-.121l6.141-6.141a1.536,1.536,0,1,1,2.173,2.173l-3.523,3.523h13.193a1.537,1.537,0,1,1,0,3.073H239.913l3.523,3.523a1.536,1.536,0,1,1-2.173,2.173l-6.141-6.141A1.524,1.524,0,0,1,235.013,157.984Z" transform="translate(-197.666 866.108)" fill="#fff"/>
    <path id="Path_113" data-name="Path 113" d="M178.39,36.308l-3.682-11.477A1.192,1.192,0,0,0,173.573,24h-4.909a1.192,1.192,0,0,0-1.135.828l-3.682,11.477a1.186,1.186,0,0,0-.015.678l.618,2.264a9.715,9.715,0,0,1,13.338,0l.618-2.264A1.186,1.186,0,0,0,178.39,36.308Z" transform="translate(-109.771 248.497)" fill="#fff"/>
    <path id="Path_114" data-name="Path 114" d="M13,289.6A9.71,9.71,0,0,1,10.81,281.4l-2.245.691A1.2,1.2,0,0,0,8,282.47L.276,291.725a1.192,1.192,0,0,0-.091,1.4l2.629,4.143a1.193,1.193,0,0,0,1.307.515l11.669-3.04a1.2,1.2,0,0,0,.58-.35l1.582-1.733A9.722,9.722,0,0,1,13,289.6Z" transform="translate(41 11.555)" fill="#fff"/>
    <path id="Path_115" data-name="Path 115" d="M171.12,212.493a7.325,7.325,0,1,0,7.329,7.325A7.328,7.328,0,0,0,171.12,212.493Z" transform="translate(-109.773 74.989)" fill="#fff"/>
    <path id="Path_116" data-name="Path 116" d="M303.8,291.725l-7.725-9.255a1.2,1.2,0,0,0-.564-.376l-2.245-.691a9.712,9.712,0,0,1-7.143,11.258l1.582,1.734a1.2,1.2,0,0,0,.58.35l11.669,3.04a1.193,1.193,0,0,0,1.307-.515l2.629-4.143A1.192,1.192,0,0,0,303.8,291.725Z" transform="translate(-222.381 11.555)" fill="#fff"/>
    <path id="Path_925" data-name="Path 925" d="M0,0H123" transform="translate(0.5 971.5)" fill="none" stroke="#0072aa" stroke-width="3"/>
    <path id="Path_224" data-name="Path 224" d="M16.439,0a2,2,0,0,1,2,2V15.021a2,2,0,0,1-2,2H2a2,2,0,0,1-2-2Z" transform="translate(42 145.5)" fill="#fff"/>
    <path id="Path_926" data-name="Path 926" d="M2,0H16.439a2,2,0,0,1,2,2V15.021a2,2,0,0,1-2,2H2a2,2,0,0,1-2-2V2A2,2,0,0,1,2,0Z" transform="translate(63.275 145.5)" fill="#fff"/>
    <path id="Path_927" data-name="Path 927" d="M2,0H16.439a2,2,0,0,1,2,2V15.021a2,2,0,0,1-2,2H2a2,2,0,0,1-2-2V2A2,2,0,0,1,2,0Z" transform="translate(63.275 165.357)" fill="#fff"/>
    <path id="Path_928" data-name="Path 928" d="M2,0H16.439a2,2,0,0,1,2,2V15.021a2,2,0,0,1-2,2H2a2,2,0,0,1-2-2V2A2,2,0,0,1,2,0Z" transform="translate(42 165.357)" fill="#fff"/>
    <path id="Path_929" data-name="Path 929" d="M0,0H124V92H0Z" transform="translate(3)" fill="none"/>
    <path id="Path_930" data-name="Path 930" d="M0,0H123.5" transform="translate(0 100.5)" fill="none" stroke="#031732" stroke-width="3"/>
    <path id="Path_288" data-name="Path 288" d="M108.585,18,122.05,4.539a1.973,1.973,0,0,0,0-2.784L120.87.575a1.972,1.972,0,0,0-2.784,0L102.054,16.607a1.987,1.987,0,0,0,0,2.794l16.017,16.016a1.972,1.972,0,0,0,2.785,0l1.18-1.179a1.971,1.971,0,0,0,0-2.784Z" transform="translate(-53.727 28.004)" fill="#fff"/>
    <path id="Path_141" data-name="Path 141" d="M34.349,38.127H6.2A4.957,4.957,0,0,1,1.25,33.176V6.2A4.957,4.957,0,0,1,6.2,1.25H34.349A4.957,4.957,0,0,1,39.3,6.2V33.176A4.957,4.957,0,0,1,34.349,38.127Z" transform="translate(38.053 404.314)" fill="#fff"/>
    <path id="Path_142" data-name="Path 142" d="M35.9,28.44H28.58V35.9a2.092,2.092,0,0,1-4.183,0V28.44h-7.46a2.092,2.092,0,1,1,0-4.183H24.4V16.937a2.092,2.092,0,0,1,4.183,0v7.321H35.9a2.092,2.092,0,0,1,0,4.183Z" transform="translate(31.91 397.582)" fill="#fff"/>
    <path id="Path_932" data-name="Path 932" d="M-107.03.224a6.68,6.68,0,0,1-3.472-.9,6.026,6.026,0,0,1-2.338-2.534A8.318,8.318,0,0,1-113.666-7v-5.6a8.2,8.2,0,0,1,.84-3.794,6.088,6.088,0,0,1,2.366-2.534,6.865,6.865,0,0,1,3.542-.9h2.968a6.769,6.769,0,0,1,3.374.826,5.689,5.689,0,0,1,2.268,2.31,7.1,7.1,0,0,1,.8,3.416h-2.6a4.306,4.306,0,0,0-1.05-3.024,3.594,3.594,0,0,0-2.786-1.148h-2.968a3.682,3.682,0,0,0-2.954,1.344,5.33,5.33,0,0,0-1.134,3.556v5.488A5.466,5.466,0,0,0-109.914-3.5a3.533,3.533,0,0,0,2.884,1.344h3.024a3.571,3.571,0,0,0,2.87-1.274,5,5,0,0,0,1.078-3.346h2.6a7.979,7.979,0,0,1-.812,3.668,5.864,5.864,0,0,1-2.3,2.464,6.7,6.7,0,0,1-3.444.868ZM-94.486-19.6h2.6v7.392a4.925,4.925,0,0,1,1.624-1.442,3.95,3.95,0,0,1,1.932-.546h1.9a4.241,4.241,0,0,1,3.262,1.344,4.983,4.983,0,0,1,1.246,3.528V0h-2.6V-9.324a2.834,2.834,0,0,0-.588-1.862,1.9,1.9,0,0,0-1.54-.714h-1.792a3.135,3.135,0,0,0-2.184.91,4.215,4.215,0,0,0-1.26,2.366V0h-2.6ZM-73.262.224A5.384,5.384,0,0,1-77.224-1.26a5.236,5.236,0,0,1-1.5-3.892v-3.64a5.246,5.246,0,0,1,1.512-3.92,5.469,5.469,0,0,1,4-1.484h2.352a5.469,5.469,0,0,1,4,1.484,5.246,5.246,0,0,1,1.512,3.92v3.64A5.184,5.184,0,0,1-66.864-1.26,5.518,5.518,0,0,1-70.882.224Zm2.352-2.3a2.813,2.813,0,0,0,2.156-.868,3.265,3.265,0,0,0,.812-2.324V-8.708a3.3,3.3,0,0,0-.8-2.324,2.734,2.734,0,0,0-2.114-.868h-2.352a2.734,2.734,0,0,0-2.114.868,3.3,3.3,0,0,0-.8,2.324v3.444a3.336,3.336,0,0,0,.784,2.324,2.691,2.691,0,0,0,2.1.868Zm13.832,2.3A5.384,5.384,0,0,1-61.04-1.26a5.236,5.236,0,0,1-1.5-3.892v-3.64a5.246,5.246,0,0,1,1.512-3.92,5.469,5.469,0,0,1,4-1.484h2.352a5.469,5.469,0,0,1,4,1.484,5.246,5.246,0,0,1,1.512,3.92v3.64A5.184,5.184,0,0,1-50.68-1.26,5.518,5.518,0,0,1-54.7.224Zm2.352-2.3A2.813,2.813,0,0,0-52.57-2.94a3.265,3.265,0,0,0,.812-2.324V-8.708a3.3,3.3,0,0,0-.8-2.324A2.734,2.734,0,0,0-54.67-11.9h-2.352a2.734,2.734,0,0,0-2.114.868,3.3,3.3,0,0,0-.8,2.324v3.444A3.336,3.336,0,0,0-59.15-2.94a2.691,2.691,0,0,0,2.1.868Zm13.244,2.3a5.206,5.206,0,0,1-3.64-1.246,4.231,4.231,0,0,1-1.372-3.29h2.548a2.222,2.222,0,0,0,.672,1.68,2.482,2.482,0,0,0,1.792.644h2.464a3.169,3.169,0,0,0,1.708-.406,1.228,1.228,0,0,0,.644-1.078v-.812a1.063,1.063,0,0,0-.378-.8,1.913,1.913,0,0,0-.966-.462l-4.844-.84a4.684,4.684,0,0,1-2.464-1.162A2.76,2.76,0,0,1-46.242-9.6v-.924a3.189,3.189,0,0,1,1.316-2.66A5.657,5.657,0,0,1-41.4-14.2h2.352a4.849,4.849,0,0,1,3.374,1.148A3.908,3.908,0,0,1-34.4-10h-2.548a1.989,1.989,0,0,0-.6-1.442,2.084,2.084,0,0,0-1.5-.546H-41.37a2.819,2.819,0,0,0-1.638.42,1.3,1.3,0,0,0-.6,1.12v.7a1.007,1.007,0,0,0,.392.784,2.3,2.3,0,0,0,1.008.476l4.9.868A4.426,4.426,0,0,1-34.944-6.5a2.706,2.706,0,0,1,.91,2.016v1.092A3.085,3.085,0,0,1-35.406-.77a6.019,6.019,0,0,1-3.612.994Zm15.428,0A5.536,5.536,0,0,1-30.016-1.19a4.866,4.866,0,0,1-1.5-3.71V-8.764a5.308,5.308,0,0,1,1.5-3.948A5.384,5.384,0,0,1-26.054-14.2h2.3a5.186,5.186,0,0,1,3.836,1.456,5.223,5.223,0,0,1,1.456,3.864v2.632H-28.91V-4.9a2.8,2.8,0,0,0,.784,2.072,2.8,2.8,0,0,0,2.072.784H-23.9A3.072,3.072,0,0,0-21.854-2.7a2.17,2.17,0,0,0,.784-1.75h2.548a4.268,4.268,0,0,1-1.484,3.388A5.768,5.768,0,0,1-23.926.224Zm4.984-8.54v-.56a3.26,3.26,0,0,0-.742-2.24,2.472,2.472,0,0,0-1.946-.84h-2.3a2.638,2.638,0,0,0-2.072.882,3.389,3.389,0,0,0-.784,2.338v.42ZM-2.03,0A4.6,4.6,0,0,1-5.348-1.008,4.414,4.414,0,0,1-6.37-4.256V-11.7H-8.834v-2.268h2.492V-18.2h2.576v4.228h3.64V-11.7h-3.64v7.392a2.3,2.3,0,0,0,.434,1.568,1.834,1.834,0,0,0,1.414.476H-.126V0ZM3.234-19.6h2.6v7.392A4.925,4.925,0,0,1,7.462-13.65,3.95,3.95,0,0,1,9.394-14.2h1.9a4.241,4.241,0,0,1,3.262,1.344,4.983,4.983,0,0,1,1.246,3.528V0H13.2V-9.324a2.834,2.834,0,0,0-.588-1.862,1.9,1.9,0,0,0-1.54-.714H9.282a3.135,3.135,0,0,0-2.184.91,4.215,4.215,0,0,0-1.26,2.366V0h-2.6ZM24.458.224A5.536,5.536,0,0,1,20.5-1.19,4.866,4.866,0,0,1,19-4.9V-8.764a5.308,5.308,0,0,1,1.5-3.948A5.384,5.384,0,0,1,24.458-14.2h2.3A5.186,5.186,0,0,1,30.59-12.74a5.223,5.223,0,0,1,1.456,3.864v2.632H21.6V-4.9a2.8,2.8,0,0,0,.784,2.072,2.8,2.8,0,0,0,2.072.784h2.156A3.072,3.072,0,0,0,28.658-2.7a2.17,2.17,0,0,0,.784-1.75H31.99a4.268,4.268,0,0,1-1.484,3.388A5.768,5.768,0,0,1,26.586.224Zm4.984-8.54v-.56a3.26,3.26,0,0,0-.742-2.24,2.472,2.472,0,0,0-1.946-.84h-2.3a2.638,2.638,0,0,0-2.072.882A3.389,3.389,0,0,0,21.6-8.736v.42ZM47.362.224a4.889,4.889,0,0,1-3.71-1.484,5.447,5.447,0,0,1-1.414-3.92v-3.3a6.409,6.409,0,0,1,.672-2.982,4.869,4.869,0,0,1,1.89-2.016,5.461,5.461,0,0,1,2.814-.714h1.9a4.011,4.011,0,0,1,1.764.42,3.8,3.8,0,0,1,1.4,1.12V-19.6h2.632V0H52.822V-1.988A4.918,4.918,0,0,1,51.2-.392a3.839,3.839,0,0,1-2.016.616Zm1.932-2.3a3.013,3.013,0,0,0,2.3-1.078,4.169,4.169,0,0,0,1.092-2.562V-8.876a3.758,3.758,0,0,0-1.022-2.2,2.694,2.694,0,0,0-1.974-.826H47.81a2.686,2.686,0,0,0-2.142.966,3.807,3.807,0,0,0-.826,2.562v3.108a3.386,3.386,0,0,0,.77,2.31,2.472,2.472,0,0,0,1.946.882Zm9.94-11.9h2.492v2.044a4.223,4.223,0,0,1,1.638-1.512,4.644,4.644,0,0,1,2.254-.588h1.456V-11.7H65.618a3.682,3.682,0,0,0-2.744,1.05A3.757,3.757,0,0,0,61.838-7.9V0h-2.6ZM73.878.224A5.384,5.384,0,0,1,69.916-1.26a5.236,5.236,0,0,1-1.5-3.892v-3.64a5.246,5.246,0,0,1,1.512-3.92,5.469,5.469,0,0,1,4-1.484h2.352a5.469,5.469,0,0,1,4,1.484A5.246,5.246,0,0,1,81.8-8.792v3.64A5.184,5.184,0,0,1,80.276-1.26,5.518,5.518,0,0,1,76.258.224Zm2.352-2.3a2.813,2.813,0,0,0,2.156-.868A3.265,3.265,0,0,0,79.2-5.264V-8.708a3.3,3.3,0,0,0-.8-2.324,2.734,2.734,0,0,0-2.114-.868H73.934a2.734,2.734,0,0,0-2.114.868,3.3,3.3,0,0,0-.8,2.324v3.444a3.336,3.336,0,0,0,.784,2.324,2.691,2.691,0,0,0,2.1.868Zm8.932-11.9h2.492v1.932a4.845,4.845,0,0,1,1.638-1.554,3.975,3.975,0,0,1,2.03-.6H93.17a4.241,4.241,0,0,1,3.262,1.344,4.983,4.983,0,0,1,1.246,3.528V0h-2.6V-9.324a2.834,2.834,0,0,0-.588-1.862,1.9,1.9,0,0,0-1.54-.714H91.21a3.111,3.111,0,0,0-2.184.924,4.3,4.3,0,0,0-1.26,2.408V0h-2.6ZM106.33.224a5.536,5.536,0,0,1-3.962-1.414,4.866,4.866,0,0,1-1.5-3.71V-8.764a5.308,5.308,0,0,1,1.5-3.948A5.384,5.384,0,0,1,106.33-14.2h2.3a5.186,5.186,0,0,1,3.836,1.456,5.223,5.223,0,0,1,1.456,3.864v2.632H103.474V-4.9a2.8,2.8,0,0,0,.784,2.072,2.8,2.8,0,0,0,2.072.784h2.156A3.072,3.072,0,0,0,110.53-2.7a2.17,2.17,0,0,0,.784-1.75h2.548a4.268,4.268,0,0,1-1.484,3.388,5.768,5.768,0,0,1-3.92,1.288Zm4.984-8.54v-.56a3.26,3.26,0,0,0-.742-2.24,2.472,2.472,0,0,0-1.946-.84h-2.3a2.638,2.638,0,0,0-2.072.882,3.389,3.389,0,0,0-.784,2.338v.42Z" transform="translate(323 92)" fill="#fff"/>
    <path id="Path_933" data-name="Path 933" d="M-126.672.224a6.68,6.68,0,0,1-3.472-.9,6.026,6.026,0,0,1-2.338-2.534A8.318,8.318,0,0,1-133.308-7v-5.6a8.2,8.2,0,0,1,.84-3.794,6.088,6.088,0,0,1,2.366-2.534,6.865,6.865,0,0,1,3.542-.9h2.968a6.769,6.769,0,0,1,3.374.826,5.689,5.689,0,0,1,2.268,2.31,7.1,7.1,0,0,1,.8,3.416h-2.6a4.306,4.306,0,0,0-1.05-3.024,3.594,3.594,0,0,0-2.786-1.148h-2.968a3.682,3.682,0,0,0-2.954,1.344,5.33,5.33,0,0,0-1.134,3.556v5.488A5.466,5.466,0,0,0-129.556-3.5a3.533,3.533,0,0,0,2.884,1.344h3.024a3.571,3.571,0,0,0,2.87-1.274A5,5,0,0,0-119.7-6.776h2.6a7.979,7.979,0,0,1-.812,3.668,5.864,5.864,0,0,1-2.3,2.464,6.7,6.7,0,0,1-3.444.868Zm12.544-14.2h2.492v2.044A4.223,4.223,0,0,1-110-13.44a4.643,4.643,0,0,1,2.254-.588h1.456V-11.7h-1.456a3.682,3.682,0,0,0-2.744,1.05A3.757,3.757,0,0,0-111.524-7.9V0h-2.6ZM-99.484.224a5.536,5.536,0,0,1-3.962-1.414,4.866,4.866,0,0,1-1.5-3.71V-8.764a5.308,5.308,0,0,1,1.5-3.948A5.384,5.384,0,0,1-99.484-14.2h2.3a5.186,5.186,0,0,1,3.836,1.456A5.223,5.223,0,0,1-91.9-8.876v2.632H-102.34V-4.9a2.8,2.8,0,0,0,.784,2.072,2.8,2.8,0,0,0,2.072.784h2.156A3.072,3.072,0,0,0-95.284-2.7a2.17,2.17,0,0,0,.784-1.75h2.548a4.268,4.268,0,0,1-1.484,3.388A5.768,5.768,0,0,1-97.356.224Zm4.984-8.54v-.56a3.26,3.26,0,0,0-.742-2.24,2.472,2.472,0,0,0-1.946-.84h-2.3a2.638,2.638,0,0,0-2.072.882,3.389,3.389,0,0,0-.784,2.338v.42Zm10,8.54a4.992,4.992,0,0,1-3.36-1.078,3.588,3.588,0,0,1-1.26-2.87v-.924A3.493,3.493,0,0,1-87.808-7.49a5.262,5.262,0,0,1,3.444-1.078H-82.6a7.017,7.017,0,0,1,1.792.252,5.4,5.4,0,0,1,1.624.7V-9.66a2.225,2.225,0,0,0-.644-1.666,2.3,2.3,0,0,0-1.68-.63h-2.3a2.7,2.7,0,0,0-1.708.5,1.593,1.593,0,0,0-.644,1.316h-2.576a3.626,3.626,0,0,1,1.358-2.94A5.431,5.431,0,0,1-83.8-14.2h2.3a5.022,5.022,0,0,1,3.556,1.246,4.274,4.274,0,0,1,1.344,3.29V0h-2.436V-1.876A4.808,4.808,0,0,1-80.724-.35a4.29,4.29,0,0,1-2.1.574Zm1.82-2.156A3.543,3.543,0,0,0-80.5-2.646a3.644,3.644,0,0,0,1.316-1.918V-5.4A3.817,3.817,0,0,0-80.64-6.16a6.529,6.529,0,0,0-1.9-.28h-1.792a2.439,2.439,0,0,0-1.6.5,1.648,1.648,0,0,0-.616,1.344v.84a1.624,1.624,0,0,0,.6,1.33,2.474,2.474,0,0,0,1.61.49ZM-67.172,0A4.6,4.6,0,0,1-70.49-1.008a4.414,4.414,0,0,1-1.022-3.248V-11.7h-2.464v-2.268h2.492V-18.2h2.576v4.228h3.64V-11.7h-3.64v7.392a2.3,2.3,0,0,0,.434,1.568,1.834,1.834,0,0,0,1.414.476h1.792V0Zm9.716.224A5.536,5.536,0,0,1-61.418-1.19a4.866,4.866,0,0,1-1.5-3.71V-8.764a5.308,5.308,0,0,1,1.5-3.948A5.384,5.384,0,0,1-57.456-14.2h2.3a5.186,5.186,0,0,1,3.836,1.456,5.223,5.223,0,0,1,1.456,3.864v2.632H-60.312V-4.9a2.8,2.8,0,0,0,.784,2.072,2.8,2.8,0,0,0,2.072.784H-55.3A3.072,3.072,0,0,0-53.256-2.7a2.17,2.17,0,0,0,.784-1.75h2.548a4.269,4.269,0,0,1-1.484,3.388A5.768,5.768,0,0,1-55.328.224Zm4.984-8.54v-.56a3.26,3.26,0,0,0-.742-2.24,2.472,2.472,0,0,0-1.946-.84h-2.3a2.638,2.638,0,0,0-2.072.882,3.389,3.389,0,0,0-.784,2.338v.42ZM-33.432,0A4.6,4.6,0,0,1-36.75-1.008a4.414,4.414,0,0,1-1.022-3.248V-11.7h-2.464v-2.268h2.492V-18.2h2.576v4.228h3.64V-11.7h-3.64v7.392a2.3,2.3,0,0,0,.434,1.568,1.834,1.834,0,0,0,1.414.476h1.792V0Zm5.264-19.6h2.6v7.392A4.925,4.925,0,0,1-23.94-13.65a3.95,3.95,0,0,1,1.932-.546h1.9a4.241,4.241,0,0,1,3.262,1.344A4.983,4.983,0,0,1-15.6-9.324V0h-2.6V-9.324a2.834,2.834,0,0,0-.588-1.862,1.9,1.9,0,0,0-1.54-.714H-22.12a3.135,3.135,0,0,0-2.184.91,4.215,4.215,0,0,0-1.26,2.366V0h-2.6ZM-6.944.224A5.536,5.536,0,0,1-10.906-1.19,4.866,4.866,0,0,1-12.4-4.9V-8.764a5.308,5.308,0,0,1,1.5-3.948A5.384,5.384,0,0,1-6.944-14.2h2.3A5.186,5.186,0,0,1-.812-12.74,5.223,5.223,0,0,1,.644-8.876v2.632H-9.8V-4.9a2.8,2.8,0,0,0,.784,2.072,2.8,2.8,0,0,0,2.072.784h2.156A3.072,3.072,0,0,0-2.744-2.7a2.17,2.17,0,0,0,.784-1.75H.588A4.268,4.268,0,0,1-.9-1.064,5.768,5.768,0,0,1-4.816.224Zm4.984-8.54v-.56a3.26,3.26,0,0,0-.742-2.24,2.472,2.472,0,0,0-1.946-.84h-2.3a2.638,2.638,0,0,0-2.072.882A3.389,3.389,0,0,0-9.8-8.736v.42ZM16.212.224A5.348,5.348,0,0,1,12.32-1.218a5.051,5.051,0,0,1-1.484-3.794V-8.764a5.364,5.364,0,0,1,1.47-3.948A5.216,5.216,0,0,1,16.184-14.2h2.268a5.244,5.244,0,0,1,3.7,1.288,4.42,4.42,0,0,1,1.4,3.416H20.972a2.313,2.313,0,0,0-.686-1.75,2.538,2.538,0,0,0-1.834-.658h-2.24a2.533,2.533,0,0,0-2,.882,3.428,3.428,0,0,0-.77,2.338V-5.1a3.061,3.061,0,0,0,.784,2.2,2.656,2.656,0,0,0,2.016.826h2.24A2.375,2.375,0,0,0,20.37-2.9a3.244,3.244,0,0,0,.714-2.2H23.66a5.291,5.291,0,0,1-1.428,3.85A4.994,4.994,0,0,1,18.48.224ZM26.628-19.6h2.6v7.392a4.925,4.925,0,0,1,1.624-1.442,3.95,3.95,0,0,1,1.932-.546h1.9a4.241,4.241,0,0,1,3.262,1.344A4.983,4.983,0,0,1,39.2-9.324V0H36.6V-9.324a2.834,2.834,0,0,0-.588-1.862,1.9,1.9,0,0,0-1.54-.714H32.676a3.135,3.135,0,0,0-2.184.91,4.215,4.215,0,0,0-1.26,2.366V0h-2.6ZM47.852.224A5.536,5.536,0,0,1,43.89-1.19a4.866,4.866,0,0,1-1.5-3.71V-8.764a5.308,5.308,0,0,1,1.5-3.948A5.384,5.384,0,0,1,47.852-14.2h2.3a5.186,5.186,0,0,1,3.836,1.456A5.223,5.223,0,0,1,55.44-8.876v2.632H45V-4.9a2.8,2.8,0,0,0,.784,2.072,2.8,2.8,0,0,0,2.072.784h2.156A3.072,3.072,0,0,0,52.052-2.7a2.17,2.17,0,0,0,.784-1.75h2.548A4.269,4.269,0,0,1,53.9-1.064,5.768,5.768,0,0,1,49.98.224Zm4.984-8.54v-.56a3.26,3.26,0,0,0-.742-2.24,2.472,2.472,0,0,0-1.946-.84h-2.3a2.638,2.638,0,0,0-2.072.882A3.389,3.389,0,0,0,45-8.736v.42ZM63.476.224a5.348,5.348,0,0,1-3.892-1.442A5.051,5.051,0,0,1,58.1-5.012V-8.764a5.364,5.364,0,0,1,1.47-3.948A5.216,5.216,0,0,1,63.448-14.2h2.268a5.244,5.244,0,0,1,3.7,1.288,4.42,4.42,0,0,1,1.4,3.416H68.236a2.313,2.313,0,0,0-.686-1.75,2.538,2.538,0,0,0-1.834-.658h-2.24a2.533,2.533,0,0,0-2,.882A3.428,3.428,0,0,0,60.7-8.68V-5.1a3.061,3.061,0,0,0,.784,2.2,2.656,2.656,0,0,0,2.016.826h2.24a2.375,2.375,0,0,0,1.89-.826,3.244,3.244,0,0,0,.714-2.2h2.576A5.291,5.291,0,0,1,69.5-1.246,4.994,4.994,0,0,1,65.744.224ZM83.412,0l-5.1-6.272L76.5-4.48V0h-2.6V-19.6h2.6V-7.56l6.468-6.412h3.108L80.024-7.98,86.436,0Zm9.1,0A4.514,4.514,0,0,1,89.32-.938a4.055,4.055,0,0,1-.98-3.038V-19.6h2.6V-4.06a1.975,1.975,0,0,0,.392,1.372,1.7,1.7,0,0,0,1.288.42h1.12V0Zm5.4-15.82a1.808,1.808,0,0,1-1.316-.49,1.7,1.7,0,0,1-.5-1.274,1.7,1.7,0,0,1,.5-1.274,1.808,1.808,0,0,1,1.316-.49,1.76,1.76,0,0,1,1.3.49,1.723,1.723,0,0,1,.49,1.274,1.723,1.723,0,0,1-.49,1.274A1.76,1.76,0,0,1,97.916-15.82ZM96.6-13.972h2.6V0H96.6ZM107.94.224a5.206,5.206,0,0,1-3.64-1.246,4.231,4.231,0,0,1-1.372-3.29h2.548a2.222,2.222,0,0,0,.672,1.68,2.482,2.482,0,0,0,1.792.644H110.4a3.169,3.169,0,0,0,1.708-.406,1.228,1.228,0,0,0,.644-1.078v-.812a1.063,1.063,0,0,0-.378-.8,1.913,1.913,0,0,0-.966-.462l-4.844-.84A4.684,4.684,0,0,1,104.1-7.546,2.76,2.76,0,0,1,103.18-9.6v-.924a3.189,3.189,0,0,1,1.316-2.66,5.657,5.657,0,0,1,3.528-1.008h2.352a4.849,4.849,0,0,1,3.374,1.148A3.908,3.908,0,0,1,115.024-10h-2.548a1.989,1.989,0,0,0-.6-1.442,2.084,2.084,0,0,0-1.5-.546h-2.324a2.819,2.819,0,0,0-1.638.42,1.3,1.3,0,0,0-.6,1.12v.7a1.007,1.007,0,0,0,.392.784,2.3,2.3,0,0,0,1.008.476l4.9.868a4.426,4.426,0,0,1,2.366,1.12,2.706,2.706,0,0,1,.91,2.016v1.092A3.085,3.085,0,0,1,114.016-.77,6.019,6.019,0,0,1,110.4.224ZM123.984,0a4.6,4.6,0,0,1-3.318-1.008,4.414,4.414,0,0,1-1.022-3.248V-11.7H117.18v-2.268h2.492V-18.2h2.576v4.228h3.64V-11.7h-3.64v7.392a2.3,2.3,0,0,0,.434,1.568,1.834,1.834,0,0,0,1.414.476h1.792V0Z" transform="translate(678 92)" fill="#fff"/>
    <path id="Path_940" data-name="Path 940" d="M-187.7.224a6.68,6.68,0,0,1-3.472-.9,6.026,6.026,0,0,1-2.338-2.534A8.318,8.318,0,0,1-194.334-7v-5.6a8.2,8.2,0,0,1,.84-3.794,6.088,6.088,0,0,1,2.366-2.534,6.865,6.865,0,0,1,3.542-.9h2.968a6.769,6.769,0,0,1,3.374.826,5.689,5.689,0,0,1,2.268,2.31,7.1,7.1,0,0,1,.8,3.416h-2.6a4.306,4.306,0,0,0-1.05-3.024,3.594,3.594,0,0,0-2.786-1.148h-2.968A3.682,3.682,0,0,0-190.54-16.1a5.33,5.33,0,0,0-1.134,3.556v5.488A5.466,5.466,0,0,0-190.582-3.5,3.533,3.533,0,0,0-187.7-2.156h3.024A3.571,3.571,0,0,0-181.8-3.43a5,5,0,0,0,1.078-3.346h2.6a7.979,7.979,0,0,1-.812,3.668,5.864,5.864,0,0,1-2.3,2.464,6.7,6.7,0,0,1-3.444.868ZM-175.154-19.6h2.6v7.392a4.925,4.925,0,0,1,1.624-1.442,3.95,3.95,0,0,1,1.932-.546h1.9a4.241,4.241,0,0,1,3.262,1.344,4.982,4.982,0,0,1,1.246,3.528V0h-2.6V-9.324a2.834,2.834,0,0,0-.588-1.862,1.9,1.9,0,0,0-1.54-.714h-1.792a3.135,3.135,0,0,0-2.184.91,4.215,4.215,0,0,0-1.26,2.366V0h-2.6ZM-153.93.224a5.384,5.384,0,0,1-3.962-1.484,5.236,5.236,0,0,1-1.5-3.892v-3.64a5.245,5.245,0,0,1,1.512-3.92,5.469,5.469,0,0,1,4-1.484h2.352a5.469,5.469,0,0,1,4,1.484,5.246,5.246,0,0,1,1.512,3.92v3.64a5.184,5.184,0,0,1-1.526,3.892A5.518,5.518,0,0,1-151.55.224Zm2.352-2.3a2.813,2.813,0,0,0,2.156-.868,3.265,3.265,0,0,0,.812-2.324V-8.708a3.3,3.3,0,0,0-.8-2.324,2.734,2.734,0,0,0-2.114-.868h-2.352a2.734,2.734,0,0,0-2.114.868,3.3,3.3,0,0,0-.8,2.324v3.444A3.336,3.336,0,0,0-156-2.94a2.691,2.691,0,0,0,2.1.868Zm13.832,2.3a5.384,5.384,0,0,1-3.962-1.484,5.236,5.236,0,0,1-1.5-3.892v-3.64a5.245,5.245,0,0,1,1.512-3.92,5.469,5.469,0,0,1,4-1.484h2.352a5.469,5.469,0,0,1,4,1.484,5.246,5.246,0,0,1,1.512,3.92v3.64a5.184,5.184,0,0,1-1.526,3.892A5.518,5.518,0,0,1-135.366.224Zm2.352-2.3a2.813,2.813,0,0,0,2.156-.868,3.265,3.265,0,0,0,.812-2.324V-8.708a3.3,3.3,0,0,0-.8-2.324,2.734,2.734,0,0,0-2.114-.868h-2.352a2.734,2.734,0,0,0-2.114.868,3.3,3.3,0,0,0-.8,2.324v3.444a3.336,3.336,0,0,0,.784,2.324,2.691,2.691,0,0,0,2.1.868Zm13.244,2.3a5.206,5.206,0,0,1-3.64-1.246,4.231,4.231,0,0,1-1.372-3.29h2.548a2.222,2.222,0,0,0,.672,1.68,2.482,2.482,0,0,0,1.792.644h2.464a3.169,3.169,0,0,0,1.708-.406,1.228,1.228,0,0,0,.644-1.078v-.812a1.063,1.063,0,0,0-.378-.8,1.913,1.913,0,0,0-.966-.462l-4.844-.84a4.684,4.684,0,0,1-2.464-1.162A2.76,2.76,0,0,1-126.91-9.6v-.924a3.189,3.189,0,0,1,1.316-2.66,5.657,5.657,0,0,1,3.528-1.008h2.352a4.849,4.849,0,0,1,3.374,1.148A3.908,3.908,0,0,1-115.066-10h-2.548a1.989,1.989,0,0,0-.6-1.442,2.084,2.084,0,0,0-1.5-.546h-2.324a2.819,2.819,0,0,0-1.638.42,1.3,1.3,0,0,0-.6,1.12v.7a1.007,1.007,0,0,0,.392.784,2.3,2.3,0,0,0,1.008.476l4.9.868a4.426,4.426,0,0,1,2.366,1.12,2.706,2.706,0,0,1,.91,2.016v1.092A3.085,3.085,0,0,1-116.074-.77a6.019,6.019,0,0,1-3.612.994Zm15.428,0a5.536,5.536,0,0,1-3.962-1.414,4.866,4.866,0,0,1-1.5-3.71V-8.764a5.308,5.308,0,0,1,1.5-3.948,5.384,5.384,0,0,1,3.962-1.484h2.3a5.186,5.186,0,0,1,3.836,1.456,5.223,5.223,0,0,1,1.456,3.864v2.632h-10.444V-4.9a2.8,2.8,0,0,0,.784,2.072,2.8,2.8,0,0,0,2.072.784h2.156a3.072,3.072,0,0,0,2.044-.658,2.17,2.17,0,0,0,.784-1.75h2.548a4.268,4.268,0,0,1-1.484,3.388,5.768,5.768,0,0,1-3.92,1.288Zm4.984-8.54v-.56a3.26,3.26,0,0,0-.742-2.24,2.472,2.472,0,0,0-1.946-.84h-2.3a2.638,2.638,0,0,0-2.072.882,3.389,3.389,0,0,0-.784,2.338v.42Zm13.356-5.656h2.492v1.764a4.516,4.516,0,0,1,1.526-1.442,3.724,3.724,0,0,1,1.89-.546h1.932a5.1,5.1,0,0,1,3.794,1.456A5.214,5.214,0,0,1-75.306-8.9v3.332a6.674,6.674,0,0,1-.658,3.024A4.88,4.88,0,0,1-77.826-.5,5.251,5.251,0,0,1-80.6.224h-1.96a3.959,3.959,0,0,1-1.75-.448A4.1,4.1,0,0,1-85.778-1.4V5.572h-2.6Zm7.56,11.9a2.551,2.551,0,0,0,2.1-.98,4.047,4.047,0,0,0,.784-2.6V-8.82a3.2,3.2,0,0,0-.77-2.226,2.6,2.6,0,0,0-2.03-.854h-1.876a2.782,2.782,0,0,0-1.918.812A4.416,4.416,0,0,0-85.778-8.96v3.724a3.751,3.751,0,0,0,1.05,2.282,2.884,2.884,0,0,0,2.114.882ZM-67.774,0a4.514,4.514,0,0,1-3.192-.938,4.055,4.055,0,0,1-.98-3.038V-19.6h2.6V-4.06a1.975,1.975,0,0,0,.392,1.372,1.7,1.7,0,0,0,1.288.42h1.12V0Zm7.756.224a4.992,4.992,0,0,1-3.36-1.078,3.588,3.588,0,0,1-1.26-2.87v-.924A3.493,3.493,0,0,1-63.322-7.49a5.262,5.262,0,0,1,3.444-1.078h1.764a7.017,7.017,0,0,1,1.792.252,5.4,5.4,0,0,1,1.624.7V-9.66a2.225,2.225,0,0,0-.644-1.666,2.3,2.3,0,0,0-1.68-.63h-2.3a2.7,2.7,0,0,0-1.708.5,1.593,1.593,0,0,0-.644,1.316h-2.576a3.626,3.626,0,0,1,1.358-2.94,5.431,5.431,0,0,1,3.57-1.12h2.3a5.022,5.022,0,0,1,3.556,1.246,4.274,4.274,0,0,1,1.344,3.29V0h-2.436V-1.876A4.808,4.808,0,0,1-56.238-.35a4.29,4.29,0,0,1-2.1.574Zm1.82-2.156a3.543,3.543,0,0,0,2.184-.714A3.644,3.644,0,0,0-54.7-4.564V-5.4a3.817,3.817,0,0,0-1.456-.756,6.529,6.529,0,0,0-1.9-.28H-59.85a2.439,2.439,0,0,0-1.6.5,1.648,1.648,0,0,0-.616,1.344v.84a1.624,1.624,0,0,0,.6,1.33,2.474,2.474,0,0,0,1.61.49ZM-42.686,0A4.6,4.6,0,0,1-46-1.008a4.414,4.414,0,0,1-1.022-3.248V-11.7H-49.49v-2.268H-47V-18.2h2.576v4.228h3.64V-11.7h-3.64v7.392a2.3,2.3,0,0,0,.434,1.568,1.834,1.834,0,0,0,1.414.476h1.792V0Zm6.636-11.7h-2.408v-2.268h2.408v-1.036a4.616,4.616,0,0,1,1.26-3.5,5.067,5.067,0,0,1,3.64-1.2h1.372v2.24H-31.15a2.265,2.265,0,0,0-1.736.6,2.707,2.707,0,0,0-.56,1.89v1.008h3.36V-11.7h-3.36V0h-2.6ZM-23,.224A5.384,5.384,0,0,1-26.964-1.26a5.236,5.236,0,0,1-1.5-3.892v-3.64a5.246,5.246,0,0,1,1.512-3.92,5.469,5.469,0,0,1,4-1.484h2.352a5.469,5.469,0,0,1,4,1.484,5.246,5.246,0,0,1,1.512,3.92v3.64A5.184,5.184,0,0,1-16.6-1.26,5.518,5.518,0,0,1-20.622.224Zm2.352-2.3a2.813,2.813,0,0,0,2.156-.868,3.265,3.265,0,0,0,.812-2.324V-8.708a3.3,3.3,0,0,0-.8-2.324,2.734,2.734,0,0,0-2.114-.868h-2.352a2.734,2.734,0,0,0-2.114.868,3.3,3.3,0,0,0-.8,2.324v3.444a3.336,3.336,0,0,0,.784,2.324,2.691,2.691,0,0,0,2.1.868Zm8.932-11.9h2.492v2.044A4.223,4.223,0,0,1-7.588-13.44a4.644,4.644,0,0,1,2.254-.588h1.456V-11.7H-5.334a3.682,3.682,0,0,0-2.744,1.05A3.757,3.757,0,0,0-9.114-7.9V0h-2.6ZM14.014-14.2a3.985,3.985,0,0,1,3.08,1.246,4.827,4.827,0,0,1,1.148,3.4V0h-2.6V-9.576a2.635,2.635,0,0,0-.5-1.694,1.606,1.606,0,0,0-1.316-.63H12.362a2.367,2.367,0,0,0-1.778.742,3.628,3.628,0,0,0-.91,2.03V0H7.042V-9.464a3.03,3.03,0,0,0-.462-1.792A1.456,1.456,0,0,0,5.334-11.9H3.906a2.372,2.372,0,0,0-1.848.91A4.473,4.473,0,0,0,1.078-8.6V0h-2.6V-13.972H.966V-12.1a4.539,4.539,0,0,1,1.386-1.54,2.985,2.985,0,0,1,1.694-.56H5.67a3.384,3.384,0,0,1,1.946.56,3.775,3.775,0,0,1,1.3,1.6,4.428,4.428,0,0,1,1.512-1.61,3.647,3.647,0,0,1,1.932-.546ZM30.9-11.7H28.49v-2.268H30.9v-1.036a4.616,4.616,0,0,1,1.26-3.5,5.067,5.067,0,0,1,3.64-1.2H37.17v2.24H35.8a2.265,2.265,0,0,0-1.736.6,2.707,2.707,0,0,0-.56,1.89v1.008h3.36V-11.7H33.5V0H30.9ZM43.946.224A5.384,5.384,0,0,1,39.984-1.26a5.236,5.236,0,0,1-1.5-3.892v-3.64A5.246,5.246,0,0,1,40-12.712,5.469,5.469,0,0,1,44-14.2h2.352a5.469,5.469,0,0,1,4,1.484,5.246,5.246,0,0,1,1.512,3.92v3.64A5.184,5.184,0,0,1,50.344-1.26,5.518,5.518,0,0,1,46.326.224Zm2.352-2.3a2.813,2.813,0,0,0,2.156-.868,3.265,3.265,0,0,0,.812-2.324V-8.708a3.3,3.3,0,0,0-.8-2.324,2.734,2.734,0,0,0-2.114-.868H44a2.734,2.734,0,0,0-2.114.868,3.3,3.3,0,0,0-.8,2.324v3.444a3.336,3.336,0,0,0,.784,2.324,2.691,2.691,0,0,0,2.1.868Zm8.932-11.9h2.492v2.044A4.223,4.223,0,0,1,59.36-13.44a4.644,4.644,0,0,1,2.254-.588H63.07V-11.7H61.614a3.682,3.682,0,0,0-2.744,1.05A3.757,3.757,0,0,0,57.834-7.9V0h-2.6ZM78.638,0A4.6,4.6,0,0,1,75.32-1.008,4.414,4.414,0,0,1,74.3-4.256V-11.7H71.834v-2.268h2.492V-18.2H76.9v4.228h3.64V-11.7H76.9v7.392a2.3,2.3,0,0,0,.434,1.568,1.834,1.834,0,0,0,1.414.476h1.792V0ZM83.9-19.6h2.6v7.392A4.925,4.925,0,0,1,88.13-13.65a3.95,3.95,0,0,1,1.932-.546h1.9a4.241,4.241,0,0,1,3.262,1.344,4.983,4.983,0,0,1,1.246,3.528V0h-2.6V-9.324a2.834,2.834,0,0,0-.588-1.862,1.9,1.9,0,0,0-1.54-.714H89.95a3.135,3.135,0,0,0-2.184.91,4.215,4.215,0,0,0-1.26,2.366V0H83.9ZM105.126.224a5.536,5.536,0,0,1-3.962-1.414,4.866,4.866,0,0,1-1.5-3.71V-8.764a5.308,5.308,0,0,1,1.5-3.948,5.384,5.384,0,0,1,3.962-1.484h2.3a5.186,5.186,0,0,1,3.836,1.456,5.223,5.223,0,0,1,1.456,3.864v2.632H102.27V-4.9a2.8,2.8,0,0,0,.784,2.072,2.8,2.8,0,0,0,2.072.784h2.156a3.072,3.072,0,0,0,2.044-.658,2.17,2.17,0,0,0,.784-1.75h2.548a4.268,4.268,0,0,1-1.484,3.388,5.768,5.768,0,0,1-3.92,1.288Zm4.984-8.54v-.56a3.26,3.26,0,0,0-.742-2.24,2.472,2.472,0,0,0-1.946-.84h-2.3a2.638,2.638,0,0,0-2.072.882,3.389,3.389,0,0,0-.784,2.338v.42ZM128.03.224a4.889,4.889,0,0,1-3.71-1.484,5.447,5.447,0,0,1-1.414-3.92v-3.3a6.409,6.409,0,0,1,.672-2.982,4.869,4.869,0,0,1,1.89-2.016,5.461,5.461,0,0,1,2.814-.714h1.9a4.011,4.011,0,0,1,1.764.42,3.8,3.8,0,0,1,1.4,1.12V-19.6h2.632V0H133.49V-1.988a4.918,4.918,0,0,1-1.624,1.6,3.839,3.839,0,0,1-2.016.616Zm1.932-2.3a3.013,3.013,0,0,0,2.3-1.078,4.169,4.169,0,0,0,1.092-2.562V-8.876a3.758,3.758,0,0,0-1.022-2.2,2.694,2.694,0,0,0-1.974-.826h-1.876a2.686,2.686,0,0,0-2.142.966,3.807,3.807,0,0,0-.826,2.562v3.108a3.386,3.386,0,0,0,.77,2.31,2.472,2.472,0,0,0,1.946.882Zm9.94-11.9h2.492v2.044a4.223,4.223,0,0,1,1.638-1.512,4.644,4.644,0,0,1,2.254-.588h1.456V-11.7h-1.456a3.682,3.682,0,0,0-2.744,1.05A3.757,3.757,0,0,0,142.506-7.9V0h-2.6ZM154.546.224a5.384,5.384,0,0,1-3.962-1.484,5.236,5.236,0,0,1-1.5-3.892v-3.64a5.245,5.245,0,0,1,1.512-3.92,5.469,5.469,0,0,1,4-1.484h2.352a5.469,5.469,0,0,1,4,1.484,5.246,5.246,0,0,1,1.512,3.92v3.64a5.184,5.184,0,0,1-1.526,3.892A5.518,5.518,0,0,1,156.926.224Zm2.352-2.3a2.813,2.813,0,0,0,2.156-.868,3.265,3.265,0,0,0,.812-2.324V-8.708a3.3,3.3,0,0,0-.8-2.324,2.734,2.734,0,0,0-2.114-.868H154.6a2.734,2.734,0,0,0-2.114.868,3.3,3.3,0,0,0-.8,2.324v3.444a3.336,3.336,0,0,0,.784,2.324,2.691,2.691,0,0,0,2.1.868Zm8.932-11.9h2.492v1.932a4.845,4.845,0,0,1,1.638-1.554,3.975,3.975,0,0,1,2.03-.6h1.848a4.241,4.241,0,0,1,3.262,1.344,4.982,4.982,0,0,1,1.246,3.528V0h-2.6V-9.324a2.834,2.834,0,0,0-.588-1.862,1.9,1.9,0,0,0-1.54-.714h-1.736a3.111,3.111,0,0,0-2.184.924,4.3,4.3,0,0,0-1.26,2.408V0h-2.6ZM187,.224a5.536,5.536,0,0,1-3.962-1.414,4.866,4.866,0,0,1-1.5-3.71V-8.764a5.308,5.308,0,0,1,1.5-3.948A5.384,5.384,0,0,1,187-14.2h2.3a5.186,5.186,0,0,1,3.836,1.456,5.223,5.223,0,0,1,1.456,3.864v2.632H184.142V-4.9a2.8,2.8,0,0,0,.784,2.072A2.8,2.8,0,0,0,187-2.044h2.156A3.072,3.072,0,0,0,191.2-2.7a2.17,2.17,0,0,0,.784-1.75h2.548a4.268,4.268,0,0,1-1.484,3.388,5.768,5.768,0,0,1-3.92,1.288Zm4.984-8.54v-.56a3.26,3.26,0,0,0-.742-2.24,2.472,2.472,0,0,0-1.946-.84H187a2.638,2.638,0,0,0-2.072.882,3.389,3.389,0,0,0-.784,2.338v.42Z" transform="translate(1128 92)" fill="#505050"/>
    <path id="Path_950" data-name="Path 950" d="M-208.082-19.6h2.66V0h-2.66Zm6.972,5.628h2.492v1.932a4.845,4.845,0,0,1,1.638-1.554,3.975,3.975,0,0,1,2.03-.6h1.848a4.241,4.241,0,0,1,3.262,1.344,4.982,4.982,0,0,1,1.246,3.528V0h-2.6V-9.324a2.834,2.834,0,0,0-.588-1.862,1.9,1.9,0,0,0-1.54-.714h-1.736a3.111,3.111,0,0,0-2.184.924,4.3,4.3,0,0,0-1.26,2.408V0h-2.6Zm20.58,14.2a5.206,5.206,0,0,1-3.64-1.246,4.231,4.231,0,0,1-1.372-3.29h2.548a2.222,2.222,0,0,0,.672,1.68,2.482,2.482,0,0,0,1.792.644h2.464a3.169,3.169,0,0,0,1.708-.406,1.228,1.228,0,0,0,.644-1.078v-.812a1.063,1.063,0,0,0-.378-.8,1.913,1.913,0,0,0-.966-.462l-4.844-.84a4.684,4.684,0,0,1-2.464-1.162A2.76,2.76,0,0,1-185.29-9.6v-.924a3.189,3.189,0,0,1,1.316-2.66,5.657,5.657,0,0,1,3.528-1.008h2.352a4.849,4.849,0,0,1,3.374,1.148A3.908,3.908,0,0,1-173.446-10h-2.548a1.989,1.989,0,0,0-.6-1.442,2.084,2.084,0,0,0-1.5-.546h-2.324a2.819,2.819,0,0,0-1.638.42,1.3,1.3,0,0,0-.6,1.12v.7a1.007,1.007,0,0,0,.392.784,2.3,2.3,0,0,0,1.008.476l4.9.868a4.426,4.426,0,0,1,2.366,1.12,2.706,2.706,0,0,1,.91,2.016v1.092A3.085,3.085,0,0,1-174.454-.77a6.019,6.019,0,0,1-3.612.994ZM-164.486,0A4.6,4.6,0,0,1-167.8-1.008a4.414,4.414,0,0,1-1.022-3.248V-11.7h-2.464v-2.268h2.492V-18.2h2.576v4.228h3.64V-11.7h-3.64v7.392a2.3,2.3,0,0,0,.434,1.568,1.834,1.834,0,0,0,1.414.476h1.792V0Zm9.1.224a4.992,4.992,0,0,1-3.36-1.078,3.588,3.588,0,0,1-1.26-2.87v-.924A3.493,3.493,0,0,1-158.69-7.49a5.262,5.262,0,0,1,3.444-1.078h1.764a7.017,7.017,0,0,1,1.792.252,5.4,5.4,0,0,1,1.624.7V-9.66a2.225,2.225,0,0,0-.644-1.666,2.3,2.3,0,0,0-1.68-.63h-2.3a2.7,2.7,0,0,0-1.708.5,1.593,1.593,0,0,0-.644,1.316h-2.576a3.626,3.626,0,0,1,1.358-2.94,5.431,5.431,0,0,1,3.57-1.12h2.3a5.022,5.022,0,0,1,3.556,1.246,4.274,4.274,0,0,1,1.344,3.29V0h-2.436V-1.876a4.808,4.808,0,0,1-1.68,1.526,4.29,4.29,0,0,1-2.1.574Zm1.82-2.156a3.543,3.543,0,0,0,2.184-.714,3.644,3.644,0,0,0,1.316-1.918V-5.4a3.817,3.817,0,0,0-1.456-.756,6.529,6.529,0,0,0-1.9-.28h-1.792a2.439,2.439,0,0,0-1.6.5,1.648,1.648,0,0,0-.616,1.344v.84a1.624,1.624,0,0,0,.6,1.33,2.474,2.474,0,0,0,1.61.49Zm14,1.932a4.514,4.514,0,0,1-3.192-.938,4.055,4.055,0,0,1-.98-3.038V-19.6h2.6V-4.06a1.975,1.975,0,0,0,.392,1.372,1.7,1.7,0,0,0,1.288.42h1.12V0Zm7.588,0a4.514,4.514,0,0,1-3.192-.938,4.055,4.055,0,0,1-.98-3.038V-19.6h2.6V-4.06a1.975,1.975,0,0,0,.392,1.372,1.7,1.7,0,0,0,1.288.42h1.12V0Zm16.8,0A4.6,4.6,0,0,1-118.5-1.008a4.414,4.414,0,0,1-1.022-3.248V-11.7h-2.464v-2.268h2.492V-18.2h2.576v4.228h3.64V-11.7h-3.64v7.392a2.3,2.3,0,0,0,.434,1.568,1.834,1.834,0,0,0,1.414.476h1.792V0Zm5.264-19.6h2.6v7.392a4.925,4.925,0,0,1,1.624-1.442,3.95,3.95,0,0,1,1.932-.546h1.9a4.241,4.241,0,0,1,3.262,1.344,4.983,4.983,0,0,1,1.246,3.528V0h-2.6V-9.324a2.834,2.834,0,0,0-.588-1.862,1.9,1.9,0,0,0-1.54-.714h-1.792a3.135,3.135,0,0,0-2.184.91,4.215,4.215,0,0,0-1.26,2.366V0h-2.6ZM-88.69.224A5.536,5.536,0,0,1-92.652-1.19a4.866,4.866,0,0,1-1.5-3.71V-8.764a5.308,5.308,0,0,1,1.5-3.948A5.384,5.384,0,0,1-88.69-14.2h2.3a5.186,5.186,0,0,1,3.836,1.456A5.223,5.223,0,0,1-81.1-8.876v2.632H-91.546V-4.9a2.8,2.8,0,0,0,.784,2.072,2.8,2.8,0,0,0,2.072.784h2.156A3.072,3.072,0,0,0-84.49-2.7a2.17,2.17,0,0,0,.784-1.75h2.548a4.268,4.268,0,0,1-1.484,3.388A5.768,5.768,0,0,1-86.562.224Zm4.984-8.54v-.56a3.26,3.26,0,0,0-.742-2.24,2.472,2.472,0,0,0-1.946-.84h-2.3a2.638,2.638,0,0,0-2.072.882,3.389,3.389,0,0,0-.784,2.338v.42Zm17.92,8.54A4.889,4.889,0,0,1-69.5-1.26,5.447,5.447,0,0,1-70.91-5.18v-3.3a6.409,6.409,0,0,1,.672-2.982,4.869,4.869,0,0,1,1.89-2.016,5.461,5.461,0,0,1,2.814-.714h1.9a4.011,4.011,0,0,1,1.764.42,3.8,3.8,0,0,1,1.4,1.12V-19.6h2.632V0h-2.492V-1.988a4.918,4.918,0,0,1-1.624,1.6,3.839,3.839,0,0,1-2.016.616Zm1.932-2.3a3.013,3.013,0,0,0,2.3-1.078,4.169,4.169,0,0,0,1.092-2.562V-8.876a3.758,3.758,0,0,0-1.022-2.2,2.694,2.694,0,0,0-1.974-.826h-1.876a2.686,2.686,0,0,0-2.142.966,3.807,3.807,0,0,0-.826,2.562v3.108a3.386,3.386,0,0,0,.77,2.31,2.472,2.472,0,0,0,1.946.882Zm9.94-11.9h2.492v2.044a4.223,4.223,0,0,1,1.638-1.512,4.644,4.644,0,0,1,2.254-.588h1.456V-11.7H-47.53a3.682,3.682,0,0,0-2.744,1.05A3.757,3.757,0,0,0-51.31-7.9V0h-2.6ZM-39.27.224A5.384,5.384,0,0,1-43.232-1.26a5.236,5.236,0,0,1-1.5-3.892v-3.64a5.246,5.246,0,0,1,1.512-3.92,5.469,5.469,0,0,1,4-1.484h2.352a5.469,5.469,0,0,1,4,1.484,5.246,5.246,0,0,1,1.512,3.92v3.64A5.184,5.184,0,0,1-32.872-1.26,5.518,5.518,0,0,1-36.89.224Zm2.352-2.3a2.813,2.813,0,0,0,2.156-.868,3.265,3.265,0,0,0,.812-2.324V-8.708a3.3,3.3,0,0,0-.8-2.324,2.734,2.734,0,0,0-2.114-.868h-2.352a2.734,2.734,0,0,0-2.114.868,3.3,3.3,0,0,0-.8,2.324v3.444a3.336,3.336,0,0,0,.784,2.324,2.691,2.691,0,0,0,2.1.868Zm8.932-11.9h2.492v1.932a4.845,4.845,0,0,1,1.638-1.554,3.975,3.975,0,0,1,2.03-.6h1.848a4.241,4.241,0,0,1,3.262,1.344A4.983,4.983,0,0,1-15.47-9.324V0h-2.6V-9.324a2.834,2.834,0,0,0-.588-1.862A1.9,1.9,0,0,0-20.2-11.9h-1.736a3.111,3.111,0,0,0-2.184.924,4.3,4.3,0,0,0-1.26,2.408V0h-2.6ZM-6.818.224A5.536,5.536,0,0,1-10.78-1.19a4.866,4.866,0,0,1-1.5-3.71V-8.764a5.308,5.308,0,0,1,1.5-3.948A5.384,5.384,0,0,1-6.818-14.2h2.3A5.186,5.186,0,0,1-.686-12.74,5.223,5.223,0,0,1,.77-8.876v2.632H-9.674V-4.9A2.8,2.8,0,0,0-8.89-2.828a2.8,2.8,0,0,0,2.072.784h2.156A3.072,3.072,0,0,0-2.618-2.7a2.17,2.17,0,0,0,.784-1.75H.714A4.268,4.268,0,0,1-.77-1.064,5.768,5.768,0,0,1-4.69.224Zm4.984-8.54v-.56a3.26,3.26,0,0,0-.742-2.24,2.472,2.472,0,0,0-1.946-.84h-2.3a2.638,2.638,0,0,0-2.072.882,3.389,3.389,0,0,0-.784,2.338v.42ZM16.422.224A5.384,5.384,0,0,1,12.46-1.26a5.236,5.236,0,0,1-1.5-3.892v-3.64a5.246,5.246,0,0,1,1.512-3.92,5.469,5.469,0,0,1,4-1.484H18.83a5.469,5.469,0,0,1,4,1.484,5.246,5.246,0,0,1,1.512,3.92v3.64A5.184,5.184,0,0,1,22.82-1.26,5.518,5.518,0,0,1,18.8.224Zm2.352-2.3A2.813,2.813,0,0,0,20.93-2.94a3.265,3.265,0,0,0,.812-2.324V-8.708a3.3,3.3,0,0,0-.8-2.324A2.734,2.734,0,0,0,18.83-11.9H16.478a2.734,2.734,0,0,0-2.114.868,3.3,3.3,0,0,0-.8,2.324v3.444A3.336,3.336,0,0,0,14.35-2.94a2.691,2.691,0,0,0,2.1.868Zm8.932-11.9H30.2v1.932a4.845,4.845,0,0,1,1.638-1.554,3.975,3.975,0,0,1,2.03-.6h1.848a4.241,4.241,0,0,1,3.262,1.344,4.983,4.983,0,0,1,1.246,3.528V0h-2.6V-9.324a2.834,2.834,0,0,0-.588-1.862,1.9,1.9,0,0,0-1.54-.714H33.754a3.111,3.111,0,0,0-2.184.924,4.3,4.3,0,0,0-1.26,2.408V0h-2.6ZM57.19,0a4.6,4.6,0,0,1-3.318-1.008A4.414,4.414,0,0,1,52.85-4.256V-11.7H50.386v-2.268h2.492V-18.2h2.576v4.228h3.64V-11.7h-3.64v7.392a2.3,2.3,0,0,0,.434,1.568,1.834,1.834,0,0,0,1.414.476h1.792V0Zm5.264-19.6h2.6v7.392a4.925,4.925,0,0,1,1.624-1.442,3.95,3.95,0,0,1,1.932-.546h1.9a4.241,4.241,0,0,1,3.262,1.344,4.983,4.983,0,0,1,1.246,3.528V0h-2.6V-9.324a2.834,2.834,0,0,0-.588-1.862,1.9,1.9,0,0,0-1.54-.714H68.5a3.135,3.135,0,0,0-2.184.91,4.215,4.215,0,0,0-1.26,2.366V0h-2.6ZM83.678.224A5.536,5.536,0,0,1,79.716-1.19a4.866,4.866,0,0,1-1.5-3.71V-8.764a5.308,5.308,0,0,1,1.5-3.948A5.384,5.384,0,0,1,83.678-14.2h2.3A5.186,5.186,0,0,1,89.81-12.74a5.223,5.223,0,0,1,1.456,3.864v2.632H80.822V-4.9a2.8,2.8,0,0,0,.784,2.072,2.8,2.8,0,0,0,2.072.784h2.156A3.072,3.072,0,0,0,87.878-2.7a2.17,2.17,0,0,0,.784-1.75H91.21a4.268,4.268,0,0,1-1.484,3.388A5.768,5.768,0,0,1,85.806.224Zm4.984-8.54v-.56a3.26,3.26,0,0,0-.742-2.24,2.472,2.472,0,0,0-1.946-.84h-2.3a2.638,2.638,0,0,0-2.072.882,3.389,3.389,0,0,0-.784,2.338v.42Zm13.356-5.656h2.492v1.764a4.516,4.516,0,0,1,1.526-1.442,3.724,3.724,0,0,1,1.89-.546h1.932a5.1,5.1,0,0,1,3.794,1.456A5.214,5.214,0,0,1,115.094-8.9v3.332a6.674,6.674,0,0,1-.658,3.024A4.88,4.88,0,0,1,112.574-.5,5.251,5.251,0,0,1,109.8.224h-1.96a3.959,3.959,0,0,1-1.75-.448,4.1,4.1,0,0,1-1.47-1.176V5.572h-2.6Zm7.56,11.9a2.551,2.551,0,0,0,2.1-.98,4.047,4.047,0,0,0,.784-2.6V-8.82a3.2,3.2,0,0,0-.77-2.226,2.6,2.6,0,0,0-2.03-.854h-1.876a2.782,2.782,0,0,0-1.918.812,4.416,4.416,0,0,0-1.246,2.128v3.724a3.751,3.751,0,0,0,1.05,2.282,2.884,2.884,0,0,0,2.114.882ZM122.626,0a4.514,4.514,0,0,1-3.192-.938,4.055,4.055,0,0,1-.98-3.038V-19.6h2.6V-4.06a1.975,1.975,0,0,0,.392,1.372,1.7,1.7,0,0,0,1.288.42h1.12V0Zm7.756.224a4.992,4.992,0,0,1-3.36-1.078,3.588,3.588,0,0,1-1.26-2.87v-.924a3.493,3.493,0,0,1,1.316-2.842,5.262,5.262,0,0,1,3.444-1.078h1.764a7.017,7.017,0,0,1,1.792.252,5.4,5.4,0,0,1,1.624.7V-9.66a2.225,2.225,0,0,0-.644-1.666,2.3,2.3,0,0,0-1.68-.63h-2.3a2.7,2.7,0,0,0-1.708.5,1.593,1.593,0,0,0-.644,1.316h-2.576a3.626,3.626,0,0,1,1.358-2.94,5.431,5.431,0,0,1,3.57-1.12h2.3a5.022,5.022,0,0,1,3.556,1.246,4.274,4.274,0,0,1,1.344,3.29V0h-2.436V-1.876a4.808,4.808,0,0,1-1.68,1.526,4.29,4.29,0,0,1-2.1.574Zm1.82-2.156a3.543,3.543,0,0,0,2.184-.714A3.644,3.644,0,0,0,135.7-4.564V-5.4a3.817,3.817,0,0,0-1.456-.756,6.529,6.529,0,0,0-1.9-.28H130.55a2.439,2.439,0,0,0-1.6.5,1.648,1.648,0,0,0-.616,1.344v.84a1.624,1.624,0,0,0,.6,1.33,2.474,2.474,0,0,0,1.61.49ZM147.714,0A4.6,4.6,0,0,1,144.4-1.008a4.414,4.414,0,0,1-1.022-3.248V-11.7H140.91v-2.268H143.4V-18.2h2.576v4.228h3.64V-11.7h-3.64v7.392a2.3,2.3,0,0,0,.434,1.568,1.834,1.834,0,0,0,1.414.476h1.792V0Zm6.636-11.7h-2.408v-2.268h2.408v-1.036a4.616,4.616,0,0,1,1.26-3.5,5.067,5.067,0,0,1,3.64-1.2h1.372v2.24H159.25a2.265,2.265,0,0,0-1.736.6,2.707,2.707,0,0,0-.56,1.89v1.008h3.36V-11.7h-3.36V0h-2.6ZM167.4.224a5.384,5.384,0,0,1-3.962-1.484,5.236,5.236,0,0,1-1.5-3.892v-3.64a5.245,5.245,0,0,1,1.512-3.92,5.469,5.469,0,0,1,4-1.484h2.352a5.469,5.469,0,0,1,4,1.484,5.246,5.246,0,0,1,1.512,3.92v3.64A5.184,5.184,0,0,1,173.8-1.26,5.518,5.518,0,0,1,169.778.224Zm2.352-2.3a2.813,2.813,0,0,0,2.156-.868,3.265,3.265,0,0,0,.812-2.324V-8.708a3.3,3.3,0,0,0-.8-2.324,2.734,2.734,0,0,0-2.114-.868h-2.352a2.734,2.734,0,0,0-2.114.868,3.3,3.3,0,0,0-.8,2.324v3.444a3.336,3.336,0,0,0,.784,2.324,2.691,2.691,0,0,0,2.1.868Zm8.932-11.9h2.492v2.044a4.223,4.223,0,0,1,1.638-1.512,4.644,4.644,0,0,1,2.254-.588h1.456V-11.7h-1.456a3.682,3.682,0,0,0-2.744,1.05A3.757,3.757,0,0,0,181.286-7.9V0h-2.6Zm25.732-.224a3.985,3.985,0,0,1,3.08,1.246,4.827,4.827,0,0,1,1.148,3.4V0h-2.6V-9.576a2.635,2.635,0,0,0-.5-1.694,1.605,1.605,0,0,0-1.316-.63h-1.456a2.367,2.367,0,0,0-1.778.742,3.628,3.628,0,0,0-.91,2.03V0h-2.632V-9.464a3.03,3.03,0,0,0-.462-1.792,1.456,1.456,0,0,0-1.246-.644h-1.428a2.372,2.372,0,0,0-1.848.91,4.473,4.473,0,0,0-.98,2.394V0h-2.6V-13.972h2.492V-12.1a4.539,4.539,0,0,1,1.386-1.54,2.985,2.985,0,0,1,1.694-.56h1.624a3.384,3.384,0,0,1,1.946.56,3.775,3.775,0,0,1,1.3,1.6,4.428,4.428,0,0,1,1.512-1.61,3.647,3.647,0,0,1,1.932-.546Z" transform="translate(1630 92)" fill="#505050"/>
    <path id="Path_934" data-name="Path 934" d="M7.5,0h131a7.5,7.5,0,0,1,0,15H7.5a7.5,7.5,0,0,1,0-15Z" transform="translate(250 41)" fill="#2b9ad0"/>
    <path id="Path_935" data-name="Path 935" d="M7.5,0h131a7.5,7.5,0,0,1,0,15H7.5a7.5,7.5,0,0,1,0-15Z" transform="translate(605 41)" fill="#2b9ad0"/>
    <g id="Path_943" data-name="Path 943" transform="translate(1053 41)" fill="#141f27">
      <path d="M 138.5 14.5 L 7.5 14.5 C 3.64018177986145 14.5 0.5 11.35981845855713 0.5 7.5 C 0.5 3.64018177986145 3.64018177986145 0.5 7.5 0.5 L 138.5 0.5 C 142.3598175048828 0.5 145.5 3.64018177986145 145.5 7.5 C 145.5 11.35981845855713 142.3598175048828 14.5 138.5 14.5 Z" stroke="none"/>
      <path d="M 7.5 1 C 3.915878295898438 1 1 3.91588020324707 1 7.5 C 1 11.08411979675293 3.915878295898438 14 7.5 14 L 138.5 14 C 142.0841217041016 14 145 11.08411979675293 145 7.5 C 145 3.91588020324707 142.0841217041016 1 138.5 1 L 7.5 1 M 7.5 0 L 138.5 0 C 142.6421356201172 0 146 3.35785961151123 146 7.5 C 146 11.64213943481445 142.6421356201172 15 138.5 15 L 7.5 15 C 3.357864379882812 15 0 11.64213943481445 0 7.5 C 0 3.35785961151123 3.357864379882812 0 7.5 0 Z" stroke="none" fill="#2b9ad0"/>
    </g>
    <g id="Path_951" data-name="Path 951" transform="translate(1557 41)" fill="#141f27">
      <path d="M 138.5 14.5 L 7.5 14.5 C 3.64018177986145 14.5 0.5 11.35981845855713 0.5 7.5 C 0.5 3.64018177986145 3.64018177986145 0.5 7.5 0.5 L 138.5 0.5 C 142.3598175048828 0.5 145.5 3.64018177986145 145.5 7.5 C 145.5 11.35981845855713 142.3598175048828 14.5 138.5 14.5 Z" stroke="none"/>
      <path d="M 7.5 1 C 3.915878295898438 1 1 3.91588020324707 1 7.5 C 1 11.08411979675293 3.915878295898438 14 7.5 14 L 138.5 14 C 142.0841217041016 14 145 11.08411979675293 145 7.5 C 145 3.91588020324707 142.0841217041016 1 138.5 1 L 7.5 1 M 7.5 0 L 138.5 0 C 142.6421356201172 0 146 3.35785961151123 146 7.5 C 146 11.64213943481445 142.6421356201172 15 138.5 15 L 7.5 15 C 3.357864379882812 15 0 11.64213943481445 0 7.5 C 0 3.35785961151123 3.357864379882812 0 7.5 0 Z" stroke="none" fill="#2b9ad0"/>
    </g>
    <path id="Path_936" data-name="Path 936" d="M0,0H184" transform="translate(407.5 48.5)" fill="none" stroke="#2b9ad0" stroke-linecap="round" stroke-width="1"/>
    <path id="Path_941" data-name="Path 941" d="M0,0H273" transform="translate(764.5 48.5)" fill="none" stroke="#2b9ad0" stroke-linecap="round" stroke-width="1"/>
    <path id="Path_946" data-name="Path 946" d="M0,0H330" transform="translate(1216.5 48.5)" fill="none" stroke="#2b9ad0" stroke-linecap="round" stroke-width="1"/>
  </g>
</svg>
