<svg width="1446" height="420" viewBox="0 0 1446 420" fill="none" xmlns="http://www.w3.org/2000/svg">
<path fill-rule="evenodd" clip-rule="evenodd" d="M699.656 133.843V290.998C699.656 362.14 641.876 419.92 570.735 419.92C499.644 419.92 441.864 362.14 441.864 290.998V133.843H514.366V290.998C514.366 322.157 539.627 347.418 570.735 347.418C601.894 347.418 627.154 322.157 627.154 290.998V133.843H699.656Z" fill="#1B5638"/>
<path fill-rule="evenodd" clip-rule="evenodd" d="M908.806 419.865V262.659C908.806 191.518 966.585 133.737 1037.73 133.737C1108.82 133.737 1166.6 191.518 1166.6 262.659V419.865H1094.1V262.659C1094.1 231.5 1068.83 206.24 1037.73 206.24C1006.57 206.24 981.308 231.5 981.308 262.659V419.865L908.806 419.865Z" fill="#1B5638"/>
<path fill-rule="evenodd" clip-rule="evenodd" d="M1445.62 133.872V291.078C1445.62 362.22 1387.84 420 1316.7 420C1245.61 420 1187.83 362.22 1187.83 291.078V133.872H1260.33V291.078C1260.33 322.237 1285.59 347.498 1316.7 347.498C1347.86 347.498 1373.12 322.237 1373.12 291.078V133.872H1445.62Z" fill="#1B5638"/>
<path d="M794.183 3.8998H721.709V419.849H794.183V3.8998Z" fill="#1B5638"/>
<path d="M886.571 133.845H816.611V419.901H886.571V133.845Z" fill="#1B5638"/>
<path fill-rule="evenodd" clip-rule="evenodd" d="M809.158 49.8993C809.158 73.8468 827.977 92.7549 851.975 92.7549C875.216 92.7549 894.162 73.8468 894.162 49.8993C894.162 27.2022 875.216 7.67592 851.975 7.67592C827.977 7.67592 809.158 27.2022 809.158 49.8993Z" fill="#89C644"/>
<path fill-rule="evenodd" clip-rule="evenodd" d="M809.158 52.4942C809.158 76.4417 827.977 95.3498 851.975 95.3498C875.216 95.3498 894.162 76.4417 894.162 52.4942C894.162 29.7971 875.216 10.2708 851.975 10.2708C827.977 10.2708 809.158 29.7971 809.158 52.4942Z" fill="#89C644"/>
<path fill-rule="evenodd" clip-rule="evenodd" d="M135.947 13.4243C139.149 37.995 146.31 61.3295 156.782 82.7576C107.075 103.547 72.1191 152.661 72.1191 209.866C72.1191 285.891 133.849 347.611 209.864 347.611C263.585 347.611 310.163 316.797 332.831 271.879H410.407C383.943 357.473 304.124 419.741 209.864 419.741C94.0397 419.741 -0.00012207 325.7 -0.00012207 209.866C-0.00012207 120.058 56.5383 43.3415 135.947 13.4243Z" fill="#1B5638"/>
<path fill-rule="evenodd" clip-rule="evenodd" d="M418.243 184.781L418.252 184.936L418.188 184.388L418.243 184.781Z" fill="#1B5638"/>
<path fill-rule="evenodd" clip-rule="evenodd" d="M417.596 179.851L417.605 179.972L417.531 179.471L417.596 179.851Z" fill="#1B5638"/>
<path fill-rule="evenodd" clip-rule="evenodd" d="M416.83 174.954L416.839 175.028L416.774 174.646L416.83 174.954Z" fill="#1B5638"/>
<path fill-rule="evenodd" clip-rule="evenodd" d="M415.955 170.092L415.966 170.125L415.944 170.048L415.955 170.092Z" fill="#1B5638"/>
<path fill-rule="evenodd" clip-rule="evenodd" d="M405.081 132.731L405.11 132.81L405.061 132.692L405.081 132.731Z" fill="#1B5638"/>
<path fill-rule="evenodd" clip-rule="evenodd" d="M401.331 123.865L401.452 124.162L401.257 123.717L401.331 123.865Z" fill="#1B5638"/>
<path fill-rule="evenodd" clip-rule="evenodd" d="M397.189 115.215L397.39 115.626L397.061 114.968L397.189 115.215Z" fill="#1B5638"/>
<path fill-rule="evenodd" clip-rule="evenodd" d="M392.673 106.786L392.939 107.271L392.481 106.448L392.673 106.786Z" fill="#1B5638"/>
<path fill-rule="evenodd" clip-rule="evenodd" d="M387.793 98.5933L389.882 102.096L387.263 97.7905L387.793 98.5933Z" fill="#1B5638"/>
<path fill-rule="evenodd" clip-rule="evenodd" d="M382.557 90.639L384.709 93.9047L381.881 89.7085L382.557 90.639Z" fill="#1B5638"/>
<path fill-rule="evenodd" clip-rule="evenodd" d="M376.974 82.9492L379.163 85.9687L376.134 81.9001L376.974 82.9492Z" fill="#1B5638"/>
<path fill-rule="evenodd" clip-rule="evenodd" d="M371.053 75.5237L373.261 78.2969L370.041 74.3652L371.053 75.5237Z" fill="#1B5638"/>
<path fill-rule="evenodd" clip-rule="evenodd" d="M364.814 68.3808L367.021 70.9076L363.619 67.1219L364.814 68.3808Z" fill="#1B5638"/>
<path fill-rule="evenodd" clip-rule="evenodd" d="M358.264 61.5299L360.453 63.8196L356.868 60.1889L358.264 61.5299Z" fill="#1B5638"/>
<path fill-rule="evenodd" clip-rule="evenodd" d="M351.413 54.9711L353.575 57.0363L349.808 53.5726L351.413 54.9711Z" fill="#1B5638"/>
<path fill-rule="evenodd" clip-rule="evenodd" d="M344.271 48.7291L346.378 50.5727L342.455 47.2796L344.271 48.7291Z" fill="#1B5638"/>
<path fill-rule="evenodd" clip-rule="evenodd" d="M336.845 42.8085L338.898 44.4405L334.811 41.3253L336.845 42.8085Z" fill="#1B5638"/>
<path fill-rule="evenodd" clip-rule="evenodd" d="M329.164 37.2222L331.125 38.6526L326.884 35.7216L329.164 37.2222Z" fill="#1B5638"/>
<path fill-rule="evenodd" clip-rule="evenodd" d="M321.219 31.9807L323.089 33.2194L318.692 30.4791L321.219 31.9807Z" fill="#1B5638"/>
<path fill-rule="evenodd" clip-rule="evenodd" d="M313.028 27.095L313.567 27.4214L312.726 26.9377L313.028 27.095Z" fill="#1B5638"/>
<path fill-rule="evenodd" clip-rule="evenodd" d="M304.599 22.577L305.221 22.9107L304.206 22.3887L304.599 22.577Z" fill="#1B5638"/>
<path fill-rule="evenodd" clip-rule="evenodd" d="M295.951 18.4362L296.609 18.7524L295.467 18.2307L295.951 18.4362Z" fill="#1B5638"/>
<path fill-rule="evenodd" clip-rule="evenodd" d="M287.084 14.6843L287.751 14.9666L286.518 14.4732L287.084 14.6843Z" fill="#1B5638"/>
<path fill-rule="evenodd" clip-rule="evenodd" d="M144.066 10.5542C142.789 10.9739 141.521 11.4063 140.253 11.8524C138.985 12.2975 137.726 12.7554 136.476 13.2243L144.066 10.5542Z" fill="#1B5638"/>
<path fill-rule="evenodd" clip-rule="evenodd" d="M278.026 11.3328L278.675 11.5722L277.387 11.129L278.026 11.3328Z" fill="#1B5638"/>
<path fill-rule="evenodd" clip-rule="evenodd" d="M153.188 7.76451C151.874 8.13487 150.57 8.51711 149.265 8.91119C147.961 9.30527 146.666 9.71123 145.37 10.129L153.188 7.76451Z" fill="#1B5638"/>
<path fill-rule="evenodd" clip-rule="evenodd" d="M268.776 8.39288L269.379 8.58477L268.073 8.20651L268.776 8.39288Z" fill="#1B5638"/>
<path fill-rule="evenodd" clip-rule="evenodd" d="M162.556 5.36357C161.161 5.69197 159.765 6.03226 158.369 6.3862C156.983 6.73923 155.596 7.10594 154.219 7.48633L162.556 5.36357Z" fill="#1B5638"/>
<path fill-rule="evenodd" clip-rule="evenodd" d="M259.335 5.87424L259.883 6.01951L258.613 5.7162L259.335 5.87424Z" fill="#1B5638"/>
<path fill-rule="evenodd" clip-rule="evenodd" d="M171.131 3.58769L162.648 5.3446L167.592 4.2664L171.131 3.58769Z" fill="#1B5638"/>
<path fill-rule="evenodd" clip-rule="evenodd" d="M249.737 3.78822L250.203 3.88861L247.73 3.42699L249.737 3.78822Z" fill="#1B5638"/>
<path fill-rule="evenodd" clip-rule="evenodd" d="M180.345 2.08057C178.958 2.2694 177.581 2.47558 176.203 2.69725C174.826 2.91892 173.448 3.15516 172.08 3.40602L180.345 2.08057Z" fill="#1B5638"/>
<path fill-rule="evenodd" clip-rule="evenodd" d="M244.875 2.91167L245.578 3.03755L242.722 2.57599L244.875 2.91167Z" fill="#1B5638"/>
<path fill-rule="evenodd" clip-rule="evenodd" d="M239.977 2.1475L240.579 2.24232L237.66 1.84189L239.977 2.1475Z" fill="#1B5638"/>
<path fill-rule="evenodd" clip-rule="evenodd" d="M189.96 0.948303C188.573 1.0751 187.196 1.21828 185.818 1.37518C184.45 1.533 183.072 1.70541 181.704 1.89059L189.96 0.948303Z" fill="#1B5638"/>
<path fill-rule="evenodd" clip-rule="evenodd" d="M235.041 1.49701L235.552 1.56449L232.533 1.22697L235.041 1.49701Z" fill="#1B5638"/>
<path fill-rule="evenodd" clip-rule="evenodd" d="M230.07 0.961312L230.49 1.00602L227.324 0.731476L230.07 0.961312Z" fill="#1B5638"/>
<path fill-rule="evenodd" clip-rule="evenodd" d="M199.821 0.244507C198.407 0.310187 196.984 0.3914 195.57 0.488096C194.156 0.585703 192.742 0.697923 191.337 0.824722L199.821 0.244507Z" fill="#1B5638"/>
<path fill-rule="evenodd" clip-rule="evenodd" d="M225.071 0.542493L225.39 0.569886L221.979 0.3582L225.071 0.542493Z" fill="#1B5638"/>
<path fill-rule="evenodd" clip-rule="evenodd" d="M220.035 0.241814L220.254 0.25551L216.286 0.107742L220.035 0.241814Z" fill="#1B5638"/>
<path fill-rule="evenodd" clip-rule="evenodd" d="M200.842 0.205227C203.834 0.0638331 206.845 0 209.864 0C211.616 0 213.358 0.0209664 215.091 0.0647529L209.864 0L200.842 0.205227Z" fill="#1B5638"/>
<path fill-rule="evenodd" clip-rule="evenodd" d="M135.905 13.4126C158.893 4.74652 183.798 0.00291443 209.887 0.00291443C323.003 0.00291443 415.318 89.7471 419.605 201.886C400.54 207.086 380.564 209.868 359.948 209.868C245.19 209.868 150.409 124.202 135.905 13.4126Z" fill="#89C644"/>
<path fill-rule="evenodd" clip-rule="evenodd" d="M418.42 186.279L418.692 189.362L418.236 184.937L418.42 186.279Z" fill="#89C644"/>
<path fill-rule="evenodd" clip-rule="evenodd" d="M417.78 181.143L418.145 184.39L417.598 179.966L417.78 181.143Z" fill="#89C644"/>
<path fill-rule="evenodd" clip-rule="evenodd" d="M416.961 176.052L417.508 179.473L416.778 175.022L416.961 176.052Z" fill="#89C644"/>
<path fill-rule="evenodd" clip-rule="evenodd" d="M416.139 170.999L416.777 174.648L415.956 170.114L416.139 170.999Z" fill="#89C644"/>
<path fill-rule="evenodd" clip-rule="evenodd" d="M405.102 132.805C409.845 144.727 413.493 157.179 415.956 170.051C413.493 157.17 409.845 144.718 405.102 132.805Z" fill="#89C644"/>
<path fill-rule="evenodd" clip-rule="evenodd" d="M401.453 124.156L405.009 132.694C403.914 129.821 402.73 126.975 401.453 124.156Z" fill="#89C644"/>
<path fill-rule="evenodd" clip-rule="evenodd" d="M397.347 115.627L401.269 123.718C399.991 120.991 398.715 118.291 397.347 115.627Z" fill="#89C644"/>
<path fill-rule="evenodd" clip-rule="evenodd" d="M392.878 107.262L397.074 114.97C395.705 112.37 394.337 109.798 392.878 107.262Z" fill="#89C644"/>
<path fill-rule="evenodd" clip-rule="evenodd" d="M391.874 105.373L392.421 106.45L389.866 102.09L391.874 105.373Z" fill="#89C644"/>
<path fill-rule="evenodd" clip-rule="evenodd" d="M386.674 96.9172L387.221 97.793L384.668 93.9069L386.674 96.9172Z" fill="#89C644"/>
<path fill-rule="evenodd" clip-rule="evenodd" d="M381.2 88.7254L381.84 89.7107L379.103 85.9705L381.2 88.7254Z" fill="#89C644"/>
<path fill-rule="evenodd" clip-rule="evenodd" d="M375.272 80.8171L376.093 81.9026L373.265 78.2994L375.272 80.8171Z" fill="#89C644"/>
<path fill-rule="evenodd" clip-rule="evenodd" d="M369.068 73.1995L369.98 74.3671L366.969 70.9098L369.068 73.1995Z" fill="#89C644"/>
<path fill-rule="evenodd" clip-rule="evenodd" d="M362.5 65.8923L363.596 67.1239L360.403 63.8216L362.5 65.8923Z" fill="#89C644"/>
<path fill-rule="evenodd" clip-rule="evenodd" d="M355.568 58.8871L356.845 60.1915L353.562 57.0352L355.568 58.8871Z" fill="#89C644"/>
<path fill-rule="evenodd" clip-rule="evenodd" d="M348.361 52.2186L349.82 53.5778L346.355 50.5767L348.361 52.2186Z" fill="#89C644"/>
<path fill-rule="evenodd" clip-rule="evenodd" d="M340.791 45.8971L342.432 47.2837L338.874 44.4467L340.791 45.8971Z" fill="#89C644"/>
<path fill-rule="evenodd" clip-rule="evenodd" d="M332.943 39.9222L334.768 41.3271L331.119 38.6542L332.943 39.9222Z" fill="#89C644"/>
<path fill-rule="evenodd" clip-rule="evenodd" d="M324.827 34.3118L326.833 35.7258L323.094 33.2172L324.827 34.3118Z" fill="#89C644"/>
<path fill-rule="evenodd" clip-rule="evenodd" d="M316.434 29.0755L318.714 30.4803L313.515 27.4244L316.434 29.0755Z" fill="#89C644"/>
<path fill-rule="evenodd" clip-rule="evenodd" d="M305.214 22.9085L312.693 26.9406C310.23 25.5449 307.768 24.2039 305.214 22.9085Z" fill="#89C644"/>
<path fill-rule="evenodd" clip-rule="evenodd" d="M296.547 18.749L304.208 22.3888C301.654 21.1299 299.192 19.9167 296.547 18.749Z" fill="#89C644"/>
<path fill-rule="evenodd" clip-rule="evenodd" d="M287.697 14.9639L295.451 18.2296C292.897 17.0984 290.342 16.0038 287.697 14.9639Z" fill="#89C644"/>
<path fill-rule="evenodd" clip-rule="evenodd" d="M278.667 11.5701L286.513 14.4709C283.868 13.4584 281.312 12.4915 278.667 11.5701Z" fill="#89C644"/>
<path fill-rule="evenodd" clip-rule="evenodd" d="M136.455 13.2303L135.905 13.4223V13.4131L136.455 13.2303Z" fill="#89C644"/>
<path fill-rule="evenodd" clip-rule="evenodd" d="M269.363 8.58699L277.392 11.1321C274.746 10.229 272.009 9.38062 269.363 8.58699Z" fill="#89C644"/>
<path fill-rule="evenodd" clip-rule="evenodd" d="M145.394 10.1287L144.023 10.5582L144.664 10.3481L145.394 10.1287Z" fill="#89C644"/>
<path fill-rule="evenodd" clip-rule="evenodd" d="M259.875 6.01472L268.085 8.20396C265.348 7.41945 262.611 6.68977 259.875 6.01472Z" fill="#89C644"/>
<path fill-rule="evenodd" clip-rule="evenodd" d="M154.243 7.48355L153.145 7.76673L153.511 7.65709L154.243 7.48355Z" fill="#89C644"/>
<path fill-rule="evenodd" clip-rule="evenodd" d="M250.206 3.88918L258.598 5.71361C255.77 5.04769 253.034 4.43651 250.206 3.88918Z" fill="#89C644"/>
<path fill-rule="evenodd" clip-rule="evenodd" d="M162.645 5.34871L162.542 5.36937V5.35904L162.645 5.34871Z" fill="#89C644"/>
<path fill-rule="evenodd" clip-rule="evenodd" d="M172.033 3.4057L171.118 3.58864L171.758 3.46062L172.033 3.4057Z" fill="#89C644"/>
<path fill-rule="evenodd" clip-rule="evenodd" d="M246.102 3.13206L247.745 3.42392L245.555 3.04086L246.102 3.13206Z" fill="#89C644"/>
<path fill-rule="evenodd" clip-rule="evenodd" d="M241.083 2.3112L242.726 2.57578L240.536 2.24739L241.083 2.3112Z" fill="#89C644"/>
<path fill-rule="evenodd" clip-rule="evenodd" d="M181.701 1.89134L180.331 2.08317L181.06 1.95525L181.701 1.89134Z" fill="#89C644"/>
<path fill-rule="evenodd" clip-rule="evenodd" d="M235.976 1.60858L237.617 1.84576L235.52 1.56303L235.976 1.60858Z" fill="#89C644"/>
<path fill-rule="evenodd" clip-rule="evenodd" d="M230.775 1.034L232.508 1.22564L230.502 1.00661L230.775 1.034Z" fill="#89C644"/>
<path fill-rule="evenodd" clip-rule="evenodd" d="M191.28 0.824615L189.909 0.95254L190.548 0.879488L191.28 0.824615Z" fill="#89C644"/>
<path fill-rule="evenodd" clip-rule="evenodd" d="M225.576 0.586896L227.31 0.732883L225.394 0.568634L225.576 0.586896Z" fill="#89C644"/>
<path fill-rule="evenodd" clip-rule="evenodd" d="M220.377 0.258377L221.927 0.358708L220.193 0.258377H220.377Z" fill="#89C644"/>
<path fill-rule="evenodd" clip-rule="evenodd" d="M200.857 0.203842L199.76 0.249458L200.125 0.222022L200.857 0.203842Z" fill="#89C644"/>
<path fill-rule="evenodd" clip-rule="evenodd" d="M215.177 0.0670776L216.274 0.103548L215.086 0.0670776H215.177Z" fill="#89C644"/>
</svg>
