<svg width="180" height="73" viewBox="0 0 180 73" fill="none" xmlns="http://www.w3.org/2000/svg">
<path fill-rule="evenodd" clip-rule="evenodd" d="M179.254 0.676514C179.25 0.676514 179.246 0.676514 179.242 0.676514C171.917 0.676514 165.97 6.62342 165.97 13.9484C165.97 13.9525 165.97 13.9565 165.97 13.9607L179.242 13.9484L179.254 0.676514Z" fill="#07082C"/>
<path fill-rule="evenodd" clip-rule="evenodd" d="M154.457 13.9607C154.461 13.9607 154.465 13.9607 154.469 13.9607C161.794 13.9607 167.741 8.01378 167.741 0.688798C167.741 0.684788 167.741 0.680653 167.741 0.676514L154.469 0.688798L154.457 13.9607Z" fill="#E91838"/>
<path fill-rule="evenodd" clip-rule="evenodd" d="M160.213 28.7969C160.218 28.7969 160.222 28.7969 160.226 28.7969C167.551 28.7969 173.498 22.85 173.498 15.525C173.498 15.5209 173.498 15.5167 173.498 15.5127L160.226 15.525L160.213 28.7969Z" fill="#07082C"/>
<path d="M18.4452 17.7323H12.7053V9.37354L5.46107 10.9337V17.7323H0V24.3636H5.46107V46.1522H12.7053V24.3636H18.4452V17.7323Z" fill="#07082C"/>
<path d="M34.3277 46.821C43.021 46.821 49.5965 40.4126 49.5965 31.9424C49.5965 23.4722 43.021 17.0637 34.3277 17.0637C25.6346 17.0637 19.0591 23.4722 19.0591 31.9424C19.0591 40.4126 25.6346 46.821 34.3277 46.821ZM34.3277 39.7996C29.8697 39.7996 26.5262 36.4005 26.5262 31.9424C26.5262 27.4844 29.8697 24.0851 34.3277 24.0851C38.8415 24.0851 42.1294 27.4844 42.1294 31.9424C42.1294 36.4005 38.8415 39.7996 34.3277 39.7996Z" fill="#07082C"/>
<path d="M68.9323 17.7323H63.1927V9.37354L55.9484 10.9337V17.7323H50.4873V24.3636H55.9484V46.1522H63.1927V24.3636H68.9323V17.7323Z" fill="#07082C"/>
<path d="M100.083 31.9976C100.083 23.4717 93.5078 17.0632 84.8147 17.0632C76.1216 17.0632 69.5459 23.4716 69.5459 31.9419C69.5459 40.4121 76.1216 46.8205 84.8147 46.8205C91.8361 46.8205 97.4643 42.8084 99.5262 37.013H91.7803C90.6659 38.9633 88.0467 40.4121 84.9262 40.4121C81.1368 40.4121 78.2391 38.0717 77.2918 34.4496H99.8604C100.028 33.7808 100.083 32.7221 100.083 31.9976ZM84.8147 23.4159C88.381 23.4159 91.3346 25.7007 92.2818 29.1556H77.4031C78.3505 25.7007 81.1925 23.4159 84.8147 23.4159Z" fill="#07082C"/>
<path d="M138.478 17.0632C134.298 17.0632 131.011 18.8464 128.837 22.1899C127.166 18.9579 123.933 17.0632 119.698 17.0632C116.243 17.0632 113.346 18.4007 111.284 21.0197V17.732H104.04V46.1519H111.284V29.9358C111.284 26.425 113.736 24.0846 117.302 24.0846C120.646 24.0846 122.875 26.3694 122.875 29.8243V46.1519H130.119V29.9358C130.119 26.425 132.515 24.0846 136.082 24.0846C139.481 24.0846 141.654 26.3694 141.654 29.8243V46.1519H148.898V27.651C148.898 21.2427 144.719 17.0632 138.478 17.0632Z" fill="#07082C"/>
<path d="M4.77165 72.4254C7.36974 72.4254 9.5182 70.9265 9.5182 68.3283C9.5182 65.8801 7.6446 64.9058 5.67101 64.4061C4.34687 64.0814 3.44751 63.6067 3.44751 62.8072C3.44751 62.2327 4.02221 61.7581 4.72173 61.7581C5.49613 61.7581 6.07069 62.3326 6.07069 63.0072H9.34333C9.34333 60.8336 7.36974 59.085 4.74669 59.085C2.29839 59.085 0.174869 60.484 0.174869 63.0072C0.174869 65.5803 2.19852 66.5546 4.09709 67.0043C5.24622 67.3041 6.22061 67.7288 6.22061 68.6032C6.22061 69.2526 5.59599 69.7523 4.79662 69.7523C3.94719 69.7523 3.27277 69.1028 3.27277 68.3033H0C0 70.5768 2.02365 72.4254 4.77165 72.4254Z" fill="#E91838"/>
<path d="M18.4878 59.3851H15.9147V55.6379L12.667 56.3373V59.3851H10.2188V62.3581H12.667V72.1261H15.9147V62.3581H18.4878V59.3851Z" fill="#E91838"/>
<path d="M28.5057 59.385V66.5549C28.5057 68.2038 27.3815 69.2779 25.7076 69.2779C24.1339 69.2779 23.0846 68.2288 23.0846 66.605V59.385H19.8369V67.5542C19.8369 70.5021 21.7605 72.4258 24.6334 72.4258C26.2323 72.4258 27.5564 71.7762 28.5057 70.5771V72.1259H31.7534V59.385H28.5057Z" fill="#E91838"/>
<path d="M43.9941 54.1384V61.0586C42.9949 59.8344 41.5709 59.0849 39.8471 59.0849C36.2996 59.0849 33.6265 61.9579 33.6265 65.7552C33.6265 69.5524 36.2996 72.4254 39.8471 72.4254C41.5709 72.4254 42.9949 71.676 43.9941 70.4518V72.1256H47.2418V54.1384H43.9941ZM40.4717 69.2776C38.473 69.2776 36.9741 67.7537 36.9741 65.7552C36.9741 63.7566 38.473 62.2326 40.4717 62.2326C42.4952 62.2326 43.9941 63.7566 43.9941 65.7552C43.9941 67.7537 42.4952 69.2776 40.4717 69.2776Z" fill="#E91838"/>
<path d="M51.4637 57.5103C52.6128 57.5103 53.5121 56.6359 53.5121 55.4868C53.5121 54.3375 52.6128 53.4631 51.4637 53.4631C50.3144 53.4631 49.415 54.3375 49.415 55.4868C49.415 56.6359 50.3144 57.5103 51.4637 57.5103ZM49.8398 72.1248H53.0875V59.3839H49.8398V72.1248Z" fill="#E91838"/>
<path d="M61.7562 72.4254C65.6535 72.4254 68.6013 69.5525 68.6013 65.7552C68.6013 61.9579 65.6535 59.085 61.7562 59.085C57.859 59.085 54.9111 61.9579 54.9111 65.7552C54.9111 69.5525 57.859 72.4254 61.7562 72.4254ZM61.7562 69.2776C59.7577 69.2776 58.2588 67.7538 58.2588 65.7552C58.2588 63.7566 59.7577 62.2327 61.7562 62.2327C63.7797 62.2327 65.2538 63.7566 65.2538 65.7552C65.2538 67.7538 63.7797 69.2776 61.7562 69.2776Z" fill="#E91838"/>
</svg>
