<svg width="568" height="192" viewBox="0 0 568 192" fill="none" xmlns="http://www.w3.org/2000/svg">
<path d="M258.909 54.8378L276.997 30.9871C277.281 30.6288 277.419 30.3214 277.419 30.0649C277.419 29.6811 277.112 29.4883 276.499 29.4883H261.903C261.47 29.4883 261.03 29.6247 260.577 29.8921C260.131 30.1613 259.768 30.5142 259.484 30.9471C256.715 34.5323 253.992 38.0667 251.3 41.5482C248.615 45.0316 245.876 48.5641 243.084 52.1493V31.2163C243.084 30.7052 242.873 30.2959 242.451 29.9885C242.029 29.6811 241.627 29.5283 241.247 29.5283H229.907C229.37 29.5283 228.952 29.6938 228.661 30.0267C228.366 30.3596 228.219 30.7561 228.219 31.2163V84.8731C228.219 86.0009 228.794 86.5648 229.945 86.5648H241.247C242.469 86.5648 243.084 86.0009 243.084 84.8731V69.8955L247.962 64.2875C249.243 66.1829 250.418 67.9874 251.498 69.7027C252.572 71.418 253.632 73.1133 254.684 74.7922C255.733 76.4693 256.817 78.1519 257.93 79.8418C259.044 81.5316 260.275 83.2997 261.634 85.1423C261.916 85.5789 262.271 85.9245 262.694 86.181C263.116 86.4375 263.542 86.5648 263.979 86.5648H278.5C279.06 86.5648 279.344 86.372 279.344 85.9882C279.344 85.7317 279.198 85.3861 278.92 84.9495L258.909 54.8378Z" fill="#250102"/>
<path d="M297.086 29.5281H285.794C285.228 29.5281 284.806 29.6936 284.522 30.0265C284.24 30.3612 284.1 30.7559 284.1 31.2161V84.8729C284.1 86.0007 284.666 86.5646 285.794 86.5646H297.086C298.338 86.5646 298.967 86.0007 298.967 84.8729V31.2161C298.967 30.7049 298.751 30.2957 298.314 29.9883C297.877 29.6808 297.47 29.5281 297.086 29.5281Z" fill="#250102"/>
<path d="M338.878 54.8375L356.967 30.9868C357.25 30.6284 357.39 30.321 357.39 30.0645C357.39 29.6807 357.083 29.4879 356.468 29.4879H341.873C341.44 29.4879 340.999 29.6243 340.548 29.8917C340.103 30.161 339.737 30.5138 339.455 30.9468C336.687 34.532 333.962 38.0663 331.271 41.5479C328.585 45.0313 325.845 48.5638 323.055 52.149V31.216C323.055 30.7048 322.844 30.2956 322.422 29.9881C321.998 29.6807 321.596 29.5279 321.218 29.5279H309.878C309.34 29.5279 308.923 29.6935 308.63 30.0263C308.338 30.3592 308.188 30.7558 308.188 31.216V84.8728C308.188 86.0006 308.765 86.5644 309.916 86.5644H321.218C322.44 86.5644 323.055 86.0006 323.055 84.8728V69.8951L327.932 64.2872C329.214 66.1826 330.389 67.987 331.468 69.7023C332.543 71.4177 333.603 73.113 334.653 74.7919C335.703 76.469 336.788 78.1516 337.9 79.8414C339.013 81.5313 340.246 83.2994 341.603 85.142C341.887 85.5786 342.242 85.9242 342.664 86.1806C343.086 86.4371 343.513 86.5644 343.95 86.5644H358.469C359.031 86.5644 359.313 86.3716 359.313 85.9878C359.313 85.7314 359.169 85.3857 358.891 84.9492L338.878 54.8375Z" fill="#250102"/>
<path d="M404.594 73.3886H378.782V63.5551H398.027C398.564 63.5551 398.972 63.3896 399.255 63.0567C399.534 62.7257 399.677 62.3764 399.677 62.0199V53.7234C399.677 53.185 399.515 52.8012 399.197 52.5702C398.875 52.3392 398.473 52.2246 397.989 52.2246H378.782V42.7003H403.674C404.258 42.7003 404.709 42.502 405.016 42.1055C405.323 41.7108 405.476 41.2942 405.476 40.8613V31.3625C405.476 30.8022 405.323 30.3566 405.016 30.0237C404.709 29.6927 404.272 29.5271 403.712 29.5271H365.606C365.069 29.5271 364.651 29.6854 364.358 30.0055C364.067 30.3257 363.918 30.7549 363.918 31.2916V84.9102C363.918 85.4741 364.07 85.8906 364.378 86.1598C364.685 86.4272 365.093 86.5636 365.606 86.5636H404.441C405.385 86.5636 405.913 86.2053 406.015 85.4904C406.22 85.2867 406.32 85.0575 406.32 84.8028V75.1494C406.32 73.9762 405.745 73.3886 404.594 73.3886Z" fill="#250102"/>
<path d="M461.244 29.5271H450.297C449.89 29.5271 449.532 29.6545 449.224 29.9109C448.917 30.1674 448.709 30.5239 448.609 30.986V61.7525C445.333 56.501 442.09 51.3315 438.89 46.2346C435.693 41.1378 432.464 35.9664 429.211 30.7167C428.928 30.282 428.597 29.9728 428.213 29.7945C427.829 29.6163 427.46 29.5271 427.1 29.5271H414.543C413.977 29.5271 413.554 29.6927 413.272 30.0255C412.988 30.3602 412.85 30.7549 412.85 31.2152V84.9102C412.85 85.374 412.984 85.7633 413.252 86.0834C413.521 86.4036 413.952 86.5636 414.543 86.5636H425.45C426.112 86.5636 426.572 86.4218 426.832 86.1416C427.087 85.8579 427.216 85.4359 427.216 84.872V51.8808C430.645 57.5142 434.028 63.0822 437.357 68.5883C440.686 74.0944 444.053 79.6624 447.458 85.2976C447.736 85.6814 448.005 85.9888 448.264 86.218C448.518 86.4472 448.815 86.5636 449.148 86.5636H461.397C461.935 86.5636 462.357 86.4418 462.668 86.198C462.976 85.9561 463.13 85.5777 463.13 85.0648V31.2152C463.13 30.6786 462.947 30.2638 462.592 29.9691C462.232 29.6726 461.781 29.5271 461.244 29.5271Z" fill="#250102"/>
<path d="M519.589 30.1019C519.589 29.9491 519.531 29.8145 519.416 29.6981C519.301 29.5835 519.152 29.5271 518.974 29.5271H504.186C504.033 29.5762 503.898 29.609 503.784 29.6217C503.669 29.6344 503.558 29.6726 503.456 29.7363C503.356 29.8 503.251 29.9037 503.151 30.0437C503.049 30.1856 502.92 30.4093 502.765 30.7149L493.49 50.5711L484.135 30.7149C483.958 30.4093 483.818 30.1856 483.713 30.0437C483.613 29.9037 483.507 29.8 483.405 29.7363C483.305 29.6726 483.2 29.6344 483.1 29.6217C482.998 29.609 482.854 29.5762 482.678 29.5271H467.889C467.711 29.5271 467.567 29.5835 467.467 29.6981C467.365 29.8145 467.313 29.9491 467.313 30.1019C467.313 30.4093 467.482 30.7295 467.813 31.0605L485.981 63.2095V84.7556C485.981 85.3194 486.121 85.7615 486.405 86.0834C486.683 86.4017 487.08 86.5636 487.589 86.5636H499.083C500.258 86.5636 500.842 85.9597 500.842 84.7556V63.2859L519.052 31.0605C519.411 30.704 519.589 30.3821 519.589 30.1019Z" fill="#250102"/>
<path d="M533.528 65.0158C534.017 63.7079 534.512 62.3073 535.01 60.8084C535.509 59.3114 536.004 57.7944 536.487 56.2591C536.973 54.7221 537.466 53.1977 537.964 51.688C538.463 50.1764 538.958 48.7685 539.447 47.4624L545.322 65.0158H533.528ZM567.292 84.8338L547.127 32.8286L546.168 30.6403C546.014 30.4348 545.784 30.1983 545.477 29.9291C545.169 29.6599 544.795 29.5271 544.36 29.5271H534.53C534.325 29.5271 534.108 29.569 533.874 29.6599C533.643 29.749 533.428 29.8727 533.22 30.0255C533.02 30.1783 532.846 30.3439 532.702 30.5239C532.564 30.704 532.477 30.8695 532.453 31.0242L511.596 85.0248C511.396 85.5395 511.453 85.9233 511.771 86.1798C512.091 86.4363 512.495 86.5636 512.984 86.5636H524.313C525.288 86.5636 525.939 86.0907 526.27 85.1394C526.754 83.8351 527.249 82.5364 527.747 81.2431C528.247 79.9498 528.74 78.651 529.23 77.3449H549.621C550.11 78.651 550.596 79.9498 551.085 81.2431C551.569 82.5364 552.067 83.8351 552.582 85.1394C552.758 85.6541 553.008 86.0179 553.33 86.2362C553.651 86.4545 554.106 86.5636 554.692 86.5636H565.715C566.41 86.5636 566.894 86.4017 567.178 86.0834C567.456 85.7615 567.494 85.3467 567.292 84.8338Z" fill="#250102"/>
<path d="M271.355 104.635H230.025C229.512 104.635 229.085 104.79 228.741 105.096C228.395 105.403 228.223 105.811 228.223 106.32V115.855C228.223 116.495 228.395 116.983 228.741 117.314C229.085 117.645 229.512 117.812 230.025 117.812H243.237V159.866C243.237 160.38 243.428 160.806 243.811 161.155C244.195 161.503 244.603 161.674 245.039 161.674H256.302C256.841 161.674 257.272 161.488 257.603 161.119C257.94 160.744 258.101 160.326 258.101 159.866V117.812H271.355C271.94 117.812 272.395 117.601 272.717 117.179C273.039 116.757 273.197 116.317 273.197 115.855V106.32C273.145 105.758 272.943 105.336 272.583 105.057C272.224 104.776 271.815 104.635 271.355 104.635Z" fill="#250102"/>
<path d="M316.137 139.131C315.422 140.973 314.42 142.58 313.124 143.947C311.835 145.319 310.3 146.394 308.524 147.176C306.745 147.958 304.797 148.346 302.673 148.346C300.552 148.346 298.609 147.958 296.844 147.176C295.078 146.394 293.548 145.319 292.259 143.947C290.969 142.58 289.965 140.973 289.246 139.131C288.532 137.284 288.171 135.304 288.171 133.175C288.171 131.076 288.532 129.095 289.246 127.24C289.965 125.383 290.969 123.768 292.259 122.381C293.548 120.999 295.078 119.911 296.844 119.12C298.609 118.323 300.552 117.93 302.673 117.93C304.797 117.93 306.745 118.323 308.524 119.12C310.3 119.911 311.835 120.999 313.124 122.381C314.42 123.768 315.422 125.383 316.137 127.24C316.852 129.095 317.212 131.076 317.212 133.175C317.212 135.304 316.852 137.284 316.137 139.131ZM328.057 118.371C326.791 116.179 325.261 114.189 323.465 112.395C321.672 110.603 319.687 109.075 317.508 107.808C315.331 106.538 312.986 105.554 310.476 104.848C307.962 104.144 305.363 103.791 302.673 103.791C299.957 103.791 297.348 104.144 294.853 104.848C292.355 105.554 290.014 106.538 287.835 107.808C285.658 109.075 283.682 110.603 281.898 112.395C280.117 114.189 278.587 116.179 277.307 118.371C276.026 120.559 275.038 122.898 274.347 125.397C273.656 127.893 273.312 130.501 273.312 133.212C273.312 135.928 273.656 138.532 274.347 141.032C275.038 143.525 276.026 145.856 277.307 148.02C278.587 150.183 280.117 152.155 281.898 153.936C283.682 155.715 285.658 157.244 287.835 158.525C290.014 159.806 292.355 160.793 294.853 161.484C297.348 162.176 299.957 162.519 302.673 162.519C305.363 162.519 307.962 162.176 310.476 161.484C312.986 160.793 315.331 159.806 317.508 158.525C319.687 157.244 321.672 155.715 323.465 153.936C325.261 152.155 326.791 150.183 328.057 148.02C329.328 145.856 330.31 143.525 331.016 141.032C331.722 138.532 332.077 135.928 332.077 133.212C332.077 130.501 331.722 127.893 331.016 125.397C330.31 122.898 329.328 120.559 328.057 118.371Z" fill="#250102"/>
<path d="M384.889 104.637H373.673C373.138 104.637 372.706 104.806 372.389 105.136C372.067 105.472 371.905 105.871 371.905 106.331V138.931C371.905 140.619 371.656 142.12 371.156 143.424C370.657 144.733 369.977 145.828 369.119 146.711C368.258 147.597 367.256 148.264 366.115 148.71C364.973 149.163 363.76 149.383 362.479 149.383C361.246 149.383 360.056 149.19 358.919 148.806C357.773 148.422 356.775 147.813 355.916 146.984C355.054 146.149 354.363 145.074 353.835 143.751C353.313 142.431 353.049 140.826 353.049 138.931V106.331C353.049 105.841 352.837 105.438 352.415 105.117C351.993 104.796 351.591 104.637 351.21 104.637H339.718C339.281 104.637 338.918 104.81 338.625 105.156C338.332 105.501 338.183 105.894 338.183 106.327V138.705C338.183 143.113 338.841 146.829 340.16 149.867C341.479 152.897 343.252 155.36 345.479 157.239C347.711 159.12 350.296 160.477 353.24 161.312C356.185 162.141 359.27 162.56 362.497 162.56C365.721 162.56 368.8 162.156 371.732 161.35C374.666 160.544 377.244 159.211 379.474 157.354C381.701 155.498 383.474 153.046 384.793 149.999C386.112 146.951 386.77 143.189 386.77 138.705V106.327C386.77 105.894 386.601 105.501 386.272 105.156C385.941 104.81 385.48 104.637 384.889 104.637Z" fill="#250102"/>
<path d="M424.605 125.86C424.344 126.642 423.975 127.346 423.491 127.97C423.002 128.597 422.404 129.126 421.683 129.547C420.968 129.97 420.163 130.232 419.266 130.334C418.829 130.387 418.431 130.425 418.076 130.449C417.716 130.473 417.303 130.487 416.843 130.487H409.778V116.39H415.078C415.821 116.39 416.503 116.41 417.13 116.446C417.76 116.486 418.431 116.534 419.149 116.581C420.019 116.712 420.816 116.994 421.53 117.425C422.249 117.863 422.862 118.4 423.377 119.042C423.884 119.68 424.283 120.384 424.566 121.154C424.845 121.921 424.988 122.689 424.988 123.46C424.988 124.275 424.859 125.076 424.605 125.86ZM440.735 157.874L430.864 139.286C432.246 138.489 433.521 137.534 434.687 136.422C435.848 135.307 436.856 134.067 437.7 132.695C438.544 131.327 439.206 129.854 439.68 128.277C440.15 126.704 440.39 125.048 440.39 123.307C440.39 120.745 439.897 118.333 438.907 116.062C437.925 113.8 436.572 111.819 434.86 110.131C433.143 108.443 431.133 107.102 428.83 106.116C426.524 105.13 424.053 104.637 421.414 104.637H396.599C396.039 104.637 395.617 104.796 395.335 105.117C395.051 105.438 394.911 105.867 394.911 106.404V160.02C394.911 160.588 395.066 161.004 395.373 161.274C395.679 161.541 396.092 161.676 396.599 161.676H408.012C409.187 161.676 409.778 161.126 409.778 160.02V142.7H415.999L425.334 160.251C425.434 160.688 425.66 161.034 426.005 161.292C426.349 161.546 426.738 161.676 427.175 161.676H440.352C440.814 161.676 441.177 161.566 441.445 161.35C441.714 161.13 441.849 160.819 441.849 160.41C441.849 160.051 441.709 159.627 441.427 159.14C441.143 158.654 440.914 158.232 440.735 157.874Z" fill="#250102"/>
<path d="M485.618 137.016C484.683 135.149 483.382 133.538 481.718 132.195C480.054 130.851 478.073 129.685 475.785 128.703C473.491 127.715 470.988 126.773 468.272 125.876C466.868 125.416 465.631 124.99 464.57 124.592C463.504 124.194 462.617 123.772 461.898 123.326C461.183 122.875 460.645 122.389 460.287 121.862C459.927 121.34 459.748 120.716 459.748 120.001C459.748 119.286 459.912 118.677 460.248 118.178C460.58 117.674 461.029 117.272 461.591 116.965C462.153 116.658 462.81 116.437 463.548 116.292C464.292 116.154 465.087 116.081 465.933 116.081C466.751 116.081 467.559 116.206 468.35 116.445C469.145 116.69 469.898 116.998 470.619 117.367C471.333 117.742 472.005 118.158 472.634 118.62C473.262 119.08 473.833 119.526 474.346 119.963L474.691 120.27C475.046 120.577 475.372 120.832 475.67 121.038C475.963 121.243 476.288 121.345 476.649 121.345C477.085 121.345 477.516 121.129 477.953 120.69L483.83 114.431C484.165 114.073 484.414 113.756 484.578 113.472C484.745 113.189 484.827 112.881 484.827 112.552C484.827 112.216 484.654 111.817 484.308 111.357C483.963 110.897 483.497 110.411 482.908 109.898C482.318 109.387 481.638 108.858 480.854 108.306C480.074 107.754 479.248 107.222 478.375 106.709C476.303 105.558 474.197 104.718 472.057 104.192C469.918 103.67 467.688 103.406 465.356 103.406C462.258 103.406 459.452 103.784 456.943 104.539C454.433 105.294 452.29 106.362 450.511 107.744C448.731 109.127 447.359 110.791 446.399 112.732C445.44 114.677 444.96 116.839 444.96 119.219C444.96 121.469 445.344 123.511 446.111 125.34C446.879 127.171 448.036 128.847 449.571 130.367C451.104 131.893 453.029 133.272 455.332 134.511C457.635 135.753 460.325 136.908 463.395 137.983C464.09 138.214 464.905 138.502 465.856 138.847C466.801 139.193 467.712 139.61 468.579 140.093C469.453 140.585 470.187 141.141 470.791 141.763C471.392 142.393 471.694 143.102 471.694 143.893C471.694 144.614 471.583 145.29 471.368 145.927C471.152 146.571 470.782 147.133 470.273 147.615C469.76 148.106 469.065 148.495 468.177 148.786C467.295 149.085 466.2 149.228 464.896 149.228C463.486 149.228 462.142 148.988 460.861 148.497C459.581 148.013 458.291 147.333 456.982 146.464C456.114 145.874 455.337 145.279 454.659 144.681C453.978 144.075 453.422 143.595 452.991 143.237C452.631 142.929 452.323 142.698 452.065 142.545C451.81 142.393 451.566 142.314 451.335 142.314C451.004 142.314 450.568 142.507 450.031 142.891L443.388 149.228C442.797 149.771 442.504 150.258 442.504 150.696C442.504 151.078 442.797 151.593 443.388 152.235C443.412 152.259 443.435 152.279 443.465 152.292C443.488 152.306 443.512 152.335 443.541 152.388C443.565 152.414 443.59 152.432 443.617 152.446C443.641 152.461 443.666 152.49 443.694 152.543L443.81 152.657C444.218 153.094 444.772 153.674 445.478 154.394C446.184 155.107 447.046 155.842 448.074 156.586C450.53 158.36 453.182 159.771 456.021 160.826C458.866 161.876 461.758 162.403 464.703 162.403C467.826 162.403 470.744 161.963 473.458 161.079C476.174 160.193 478.539 158.947 480.548 157.334C482.558 155.722 484.137 153.771 485.292 151.477C486.444 149.183 487.019 146.633 487.019 143.812C487.019 141.148 486.549 138.886 485.618 137.016Z" fill="#250102"/>
<path d="M103.221 167.065C99.3039 167.065 96.0518 170.331 96.0518 174.46C96.0518 178.377 99.3039 181.641 103.221 181.641C107.348 181.641 110.615 178.377 110.615 174.46C110.615 170.331 107.348 167.065 103.221 167.065Z" fill="#250102"/>
<path d="M103.223 127.972C99.3117 127.972 96.0641 131.221 96.0641 135.131C96.0641 139.255 99.3117 142.516 103.223 142.516C107.345 142.516 110.608 139.255 110.608 135.131C110.608 131.221 107.345 127.972 103.223 127.972Z" fill="#250102"/>
<path d="M103.225 147.532C99.3719 147.532 96.1732 150.952 96.1732 154.803C96.1732 158.865 99.3719 162.065 103.225 162.065C107.284 162.065 110.498 158.865 110.498 154.803C110.498 150.952 107.284 147.532 103.225 147.532Z" fill="#F1D0A7"/>
<path d="M103.224 69.1982C99.424 69.1982 96.2692 72.3549 96.2692 76.3586C96.2692 80.1585 99.424 83.5321 103.224 83.5321C107.228 83.5321 110.397 80.1585 110.397 76.3586C110.397 72.3549 107.228 69.1982 103.224 69.1982Z" fill="#F1D0A7"/>
<path d="M103.224 108.425C99.3748 108.425 96.1789 111.636 96.1789 115.692C96.1789 119.528 99.3748 122.738 103.224 122.738C107.28 122.738 110.491 119.528 110.491 115.692C110.491 111.636 107.28 108.425 103.224 108.425Z" fill="#F1D0A7"/>
<path d="M103.223 10.2385C99.3242 10.2385 96.0872 13.4869 96.0872 17.5987C96.0872 21.4957 99.3242 24.7346 103.223 24.7346C107.331 24.7346 110.583 21.4957 110.583 17.5987C110.583 13.4869 107.331 10.2385 103.223 10.2385Z" fill="#250102"/>
<path d="M103.222 29.9428C99.3449 29.9428 96.1258 33.1618 96.1258 37.0391C96.1258 41.1263 99.3449 44.3586 103.222 44.3586C107.307 44.3586 110.542 41.1263 110.542 37.0391C110.542 33.1618 107.307 29.9428 103.222 29.9428Z" fill="#F1D0A7"/>
<path d="M103.223 49.6747C99.3891 49.6747 96.2059 52.871 96.2059 56.705C96.2059 60.7448 99.3891 63.9298 103.223 63.9298C107.263 63.9298 110.461 60.7448 110.461 56.705C110.461 52.871 107.263 49.6747 103.223 49.6747Z" fill="#250102"/>
<path d="M103.225 88.765C99.3775 88.765 96.183 91.9726 96.183 96.0286C96.183 99.8743 99.3775 103.071 103.225 103.071C107.279 103.071 110.489 99.8743 110.489 96.0286C110.489 91.9726 107.279 88.765 103.225 88.765Z" fill="#250102"/>
<path d="M37.2057 10.5539L4.7129 64.3653V10.5539H37.2057ZM0.580139 81.5403L51.4866 3.05176e-05H0.580139V81.5403Z" fill="#250102"/>
<path d="M201.323 64.3653L168.83 10.5538H201.323V64.3653ZM207.53 84.638V0H154.549L207.53 84.638Z" fill="#250102"/>
<path d="M4.7129 127.277L37.2057 181.077H4.7129V127.277ZM0.580139 110.091V191.844H51.7013L0.580139 110.091Z" fill="#250102"/>
<path d="M168.83 181.077L201.323 127.276V181.077H168.83ZM154.549 191.843H207.528V106.991L154.549 191.843Z" fill="#250102"/>
<path d="M11.134 95.8212L70.9372 0H62.2551L2.43915 95.8212L62.457 191.844H71.1518L11.134 95.8212Z" fill="#BF7A40"/>
<path d="M195.117 95.8212L135.099 191.844H143.781L203.597 95.8212L143.781 0H135.099L195.117 95.8212Z" fill="#BF7A40"/>
<path d="M103.227 24.4187C99.4979 24.4187 96.402 21.321 96.402 17.5938C96.402 13.663 99.4979 10.5543 103.227 10.5543C107.156 10.5543 110.266 13.663 110.266 17.5938C110.266 21.321 107.156 24.4187 103.227 24.4187ZM103.227 44.0839C99.4979 44.0839 96.402 40.9753 96.402 37.0444C96.402 33.3155 99.4979 30.2195 103.227 30.2195C107.156 30.2195 110.266 33.3155 110.266 37.0444C110.266 40.9753 107.156 44.0839 103.227 44.0839ZM103.227 63.7346C99.4979 63.7346 96.402 60.6386 96.402 56.7078C96.402 52.9806 99.4979 49.872 103.227 49.872C107.156 49.872 110.266 52.9806 110.266 56.7078C110.266 60.6386 107.156 63.7346 103.227 63.7346ZM103.227 83.3998C99.4979 83.3998 96.402 80.0874 96.402 76.3602C96.402 72.4312 99.4979 69.3334 103.227 69.3334C107.156 69.3334 110.266 72.4312 110.266 76.3602C110.266 80.0874 107.156 83.3998 103.227 83.3998ZM103.227 102.85C99.4979 102.85 96.402 99.7544 96.402 96.0254C96.402 92.0946 99.4979 88.9859 103.227 88.9859C107.156 88.9859 110.266 92.0946 110.266 96.0254C110.266 99.7544 107.156 102.85 103.227 102.85ZM103.227 122.514C99.4979 122.514 96.402 119.405 96.402 115.689C96.402 111.76 99.4979 108.649 103.227 108.649C107.156 108.649 110.266 111.76 110.266 115.689C110.266 119.405 107.156 122.514 103.227 122.514ZM103.227 142.179C99.4979 142.179 96.402 139.07 96.402 135.139C96.402 131.412 99.4979 128.314 103.227 128.314C107.156 128.314 110.266 131.412 110.266 135.139C110.266 139.07 107.156 142.179 103.227 142.179ZM103.227 161.831C99.4979 161.831 96.402 158.734 96.402 154.803C96.402 151.076 99.4979 147.765 103.227 147.765C107.156 147.765 110.266 151.076 110.266 154.803C110.266 158.734 107.156 161.831 103.227 161.831ZM103.227 181.293C99.4979 181.293 96.402 178.186 96.402 174.457C96.402 170.526 99.4979 167.417 103.227 167.417C107.156 167.417 110.266 170.526 110.266 174.457C110.266 178.186 107.156 181.293 103.227 181.293ZM184.147 95.8217L124.331 0.00231934H81.7045L21.9012 95.8217L81.9064 191.845H91.9272L32.6552 96.6457L92.4711 0.822681V191.845H113.779V0.822681L173.582 96.6457L114.108 191.845H124.331L184.147 95.8217Z" fill="#A64F1C"/>
<path d="M52.9382 96.6447L76.9399 135.138V58.1492L52.9382 96.6447Z" fill="#250102"/>
<path d="M129.097 58.1488V135.138L153.097 96.6442L129.097 58.1488Z" fill="#250102"/>
</svg>
