<svg width="119" height="119" viewBox="0 0 119 119" fill="none" xmlns="http://www.w3.org/2000/svg">
<rect width="119" height="119" rx="15" fill="white"/>
<path fill-rule="evenodd" clip-rule="evenodd" d="M23.6151 60.5995C23.6151 61.3731 23.3407 64.9232 18.212 64.9232C13.0831 64.9232 12.7879 60.5757 12.7879 59.1861C12.7879 57.7964 13.0265 52.9698 18.2089 52.9698C23.1081 52.9698 23.5763 56.4038 23.5763 57.112H27.7062C27.7062 57.112 28.234 49.5001 17.9793 49.5001C10.9571 49.5001 8.66699 54.8802 8.66699 59.3616C8.66699 63.3997 10.5963 68.5 18.212 68.5C28.1505 68.5 27.7568 60.5965 27.7568 60.5965L23.6151 60.5995ZM87.1556 60.9588V60.9507L87.1526 49.9137H91.3124V60.299V60.3048C91.3124 61.3985 91.3126 68.4851 83.0675 68.4851C74.8136 68.4851 74.8136 61.5022 74.8136 60.3045V60.3019C74.8136 58.4868 74.7928 49.9167 74.7928 49.9167H78.9585V60.9626L78.9584 60.9851C78.9565 61.4446 78.9421 64.9232 83.0257 64.9232C87.1576 64.9232 87.1559 61.3794 87.1556 60.9588ZM46.3637 49.9167C47.4074 49.9167 52.736 50.0893 52.736 55.6092C52.736 60.8197 46.6798 60.3495 46.6828 60.3495V60.5637C52.7479 60.5637 52.4229 64.9142 52.4229 64.9142V68.2471H48.2989V65.4826C48.2989 61.8345 45.3826 62.0576 45.3826 62.0576L40.6564 62.0635V68.2203H36.4997V49.9167H46.3637ZM40.6087 58.6326H45.338C45.338 58.6326 48.618 58.8081 48.618 55.8592C48.618 53.1751 45.2723 53.3447 45.2723 53.3447L40.6087 53.3239V58.6326ZM29.7011 49.9197H33.8101V68.2054H29.7011V49.9197ZM68.85 60.5995C68.85 61.3731 68.5756 64.9232 63.4468 64.9232C58.318 64.9232 58.0228 60.5757 58.0228 59.1861C58.0228 57.7964 58.2613 52.9698 63.4438 52.9698C68.343 52.9698 68.8112 56.4038 68.8112 57.112H72.941C72.941 57.112 73.4688 49.5001 63.2142 49.5001C56.192 49.5001 53.9019 54.8802 53.9019 59.3616C53.9019 63.3997 55.8312 68.5 63.4468 68.5C73.3853 68.5 72.9917 60.5965 72.9917 60.5965L68.85 60.5995ZM102.427 57.222C102.618 57.2418 102.82 57.2626 103.031 57.2846C103.066 57.2882 103.101 57.2918 103.138 57.2956C105.083 57.4956 109.997 58.0011 110 62.6915C110 66.539 106.41 68.4703 102.065 68.4703C96.1101 68.4703 92.7198 66.2682 92.7198 62.2034H96.8199C96.8199 63.959 98.7431 64.9589 101.874 64.9589C103.834 64.9589 105.807 64.3905 105.807 62.7331C105.807 61.0756 103.743 60.6917 102.667 60.5697C101.436 60.4299 98.603 60.1174 98.603 60.1174C93.3251 59.5223 93.2655 56.3829 93.2655 55.5646V55.5376C93.2644 54.6386 93.259 49.5567 101.132 49.5567C110.315 49.5567 109.734 55.2819 109.734 55.2819H105.673C105.673 54.0976 104.364 52.9995 101.194 52.9995C98.281 52.9995 97.4192 54.1154 97.4192 55.1986C97.4192 56.4867 98.799 56.7443 99.456 56.8669C99.4744 56.8703 99.4923 56.8737 99.5095 56.8769C100.007 56.9719 100.926 57.0669 102.427 57.222Z" fill="black"/>
</svg>
