<?xml version="1.0" encoding="utf-8"?>
<!-- Generator: Adobe Illustrator 26.0.3, SVG Export Plug-In . SVG Version: 6.00 Build 0)  -->
<svg version="1.0" id="Layer_1" xmlns="http://www.w3.org/2000/svg" xmlns:xlink="http://www.w3.org/1999/xlink" x="0px" y="0px"
	 viewBox="0 0 1070.2 841.2" style="enable-background:new 0 0 1070.2 841.2;" xml:space="preserve">
<style type="text/css">
	.st0{fill:#0072BA;}
	.st1{fill:#FFFFFF;}
	.st2{fill:none;}
</style>
<rect x="544.1" y="239.6" class="st0" width="362" height="361.9"/>
<rect x="164.1" y="239.6" class="st0" width="361.9" height="361.9"/>
<path class="st1" d="M448.9,378.6c-4.2-2.2-6.9-6.5-7-11.3c0-7.3,6.3-12.8,13.8-12.8c4.8-0.1,9.3,2.1,12.3,5.8
	c-5.1,2.9-8.3,8.2-8.5,14c0,7.3,3.8,11.8,7.3,15.5l-9.3,6.8C452.1,391.8,448.9,385.6,448.9,378.6 M417.6,541.7c-4,0-6,2.3-6.3,4.3
	c1.5-0.7,3.1-1,4.8-1c4,0,7.3,2.3,8.3,4.5C424.8,545.4,422.3,541.7,417.6,541.7L417.6,541.7z M415.3,553.2c-4.8,0-7.3,3.8-6.8,6.8
	c1-1.2,3-3,7-3c2.8,0,5.4,1.2,7.3,3.2C422.8,556.7,420.3,553.2,415.3,553.2L415.3,553.2z M405.5,566.8c0-1.6,0.3-3.1,1-4.5
	c-1.5-2-2.3-4.5-2.2-7c0-3.4,1.8-6.5,4.8-8.3c-1-7.5,5-12.5,11.8-12.5c7.5,0,11.3,5.3,12.5,10.5c1,3.8,2.5,5,4.3,5.3
	c3.5,0.4,7.1,0.2,10.5-0.5c2.2-0.5,3.3-1.8,3.3-5.5c0-6.3-1.8-14.5-3.3-21.5c-6.6,0.7-13.3,1-20,1c-15.5,0-24.3-7-25.8-22.3
	c-0.4-6.7-2.3-13.2-5.5-19c-2.8-5.3-9-12.3-9-21.3c0-6.8,2.5-10.8,10.3-14.5c6-2.6,11.8-5.5,17.5-8.8c-0.2,8.8,5,20.5,11.8,25.5
	c7.5,5.5,14.5,7,24.8,7c11.8,0,23-3.5,29.1-10.5c-3.5,2.2-8.3,3.5-14.3,3.5c-18.5,0-30.3-14.3-30.3-29.6c0-11,6-20.8,16-29.1
	c8.3-6.8,15.8-11,21.5-16.8c3.8-3.8,7-8.3,7-13.5c0-6.3-4.3-12.3-8.8-14c3.1-3.4,7.4-5.5,12-5.8c7.5,0,14.5,5.5,14.5,12.8
	c0,5.1-2.9,9.7-7.5,11.8c0.2,4.3-2.5,9.8-5.8,13.3c-6.3,6.8-17.8,14-25.3,20s-11.5,12.3-11.5,20.8c0,11.3,9,19.5,20.5,19.5
	c10.9,0.2,19.8-8.5,20-19.4c0-0.1,0-0.2,0-0.4c0-10.5-7.5-18.3-19-23.5l9.5-6.8c10.3,6,21.5,14.3,21.5,32.1
	c0,24.6-19.8,46.1-51.9,46.1c-10,0-12.8-1.2-19-3.8c4,3.8,8.3,9.3,8.5,16c5,1.5,8.5,2.2,19.3,2.2c5.6,0,11.1-0.8,16.5-2.2
	c3.8-1,6-2.5,7.3-4.3c1.2,1.9,1.9,4,2,6.3c0,5.3-3.6,9.9-8.8,11.3c1.8,17.8,3.2,35.6,3.2,51.6c0,12-6,19.3-14.5,19.3
	c0.5-0.5,0.8-1.3,0.8-2c0-4.8-5.3-7-9-7c-7.5,0-11.5,6-19.8,6c-7.3,0-10.3-6-15.8-6c-3.5,0-6,2.3-6,5.3c0,1.5,0.5,2.9,1.5,4
	C411,577.5,405.5,573,405.5,566.8L405.5,566.8z M387.7,494.8c0-2.5,0.8-4,3.8-4.5c-2.4-5.5-5.2-10.8-8.3-16c-0.8-1.2,0-2,1-2
	c1.5-0.1,3,0.7,3.8,2c2.1,2.9,4.1,5.9,5.8,9c3.5,5.8,5.4,12.5,5.5,19.3h-2.5C391.5,502.6,387.7,498.8,387.7,494.8L387.7,494.8z
	 M375,452.3c0-7,4.8-12.8,13.3-17.3c6-3,11-5,21-10c15.8-7.8,21.8-20.6,21.8-37.9c-0.1-4.3-0.6-8.6-1.5-12.8c3.3,6.3,5,13.2,5,20.3
	c0,16.5-5.8,32.6-22.3,41.1c-7,3.5-11,5.8-16.3,8.3c-8,3.5-11.8,9-11.8,15.5c-0.1,3.5,0.8,7,2.5,10C379.5,467.5,375,461,375,452.3
	L375,452.3z M384.2,346c-5,0-10,0.2-15.3,0.8l-6.8-13.3h11.5c0,2.8,2.2,5,5,5c2.8,0,5-2.2,5-5H394c0,3.2,2,5.3,5,5.3
	c2.8,0,5-2.8,5-5.3h11.5l-7.8,13.8C399.9,346.4,392.1,346,384.2,346L384.2,346z M361.4,445c0-10,4.8-16.8,17-22.5
	c7.8-3.5,13.5-4.8,22.6-8.5c17.8-7,22.3-20.3,22.3-35.6c0-5.3-0.8-11.5-3.5-16.8c3.8,4.5,8.3,11.5,8.3,25.3
	c0,14.3-4.8,27.6-20.6,35.3c-7.5,3.5-12.5,5.5-21,9.5c-9.8,5-15.3,12-15.3,20.3c0,5.3,2.1,10.5,5.8,14.3
	C367.4,463.5,361.4,454.5,361.4,445L361.4,445z M346.4,438c0-13.5,7.5-21.5,22.1-27.1c8-3,15.8-5.3,23-7.5c17.8-6.3,24-15.5,24-32.1
	c0-7-2-13.8-5.3-17.8c5.5,4.8,10,12,10,24.5c0,13-3.8,26.3-21.8,33.1c-8.5,3.3-13.3,5-22.3,8.8c-14,6-18.5,14-18.5,24.8
	c0,10.3,5.5,16,9.8,19.5C357.2,462.5,346.4,452,346.4,438L346.4,438z M331.4,431.5c0-16.5,12.5-31.3,31.8-35.8
	c7.3-1.8,13.5-2.8,22-5c16-4.3,21-11.3,21-20.5c0.1-2.3-0.5-4.6-1.8-6.5c0.2,1.4,0.3,2.8,0.2,4.3c0,10-9.3,19-22.8,20.3
	c-7.3,0.5-15,1.5-22.5,2.3c-1.8,0.2-2.5-0.5-2.5-2l-0.2-12c0-0.5,0.3-1,0.8-1c0.1,0,0.1,0,0.2,0c0.5,0,0.8,0.2,1,0.8
	c2,2.9,5.3,4.6,8.8,4.5c3.5,0,5.5-2,5.5-4.3c0-2.5-2.2-4.8-6.8-4.8c-9.8,0-14.8,6.8-25.5,6.8c-11.8,0-15.8-5.8-15.8-11.3
	c-0.1-3.8,2.2-7.3,5.8-8.8c-0.9,1.1-1.4,2.6-1.3,4c0,3.8,4.5,6.8,12.5,6.8c7.5,0,12.3-1.8,18-1.8c7.5,0,12,2.5,14,5.3
	c-0.2-5.8-4.5-10.8-10-10.8c-2.4-0.2-4.7,1.1-5.8,3.3c-0.1,0.6-0.7,1-1.2,1c-0.5,0-1-0.2-1-0.7l-1.2-12.5c-0.2-1.5,0.5-2.3,2.5-2.5
	l12.8-1c2.2,6.3,3.8,9.8,7,9.8c1.8,0,2.5-2,2.5-3.8c2.7-0.7,5.5-0.8,8.3-0.5c-3.3-2.2-14-1-17.3-5.5c5.3-0.2,9.3-0.5,13.5-0.5
	c3.9-0.1,7.7,0.1,11.5,0.5c4,0.5,8,2.8,8,7c0,2.8-1.5,4.8-4.3,4.8c-1,0-2-0.3-2.8-1c0.2,2,2.3,3.3,4.3,3.3c3.3,0,5.5-2,5.5-6.3
	c0.1-2.5-0.7-4.9-2.2-6.8c5.3,4.3,8.5,11.8,8.5,20.5c0,15.3-5.5,23.3-22.5,29.3c-8.8,3-15.8,5-24.6,8.3c-14.3,5.3-22.8,15-22.8,28.8
	c0,9.5,4.8,20.3,14.8,25.3C342.1,460.5,331.4,446.7,331.4,431.5L331.4,431.5z M298.8,541.7c-4,0-6,2.3-6.3,4.3c1.5-0.7,3.1-1,4.8-1
	c4,0,7.3,2.3,8.3,4.5C306.1,545.4,303.6,541.7,298.8,541.7z M296.6,553.2c-4.8,0-7.3,3.8-6.8,6.8c1-1.2,3-3,7-3
	c2.8,0,5.4,1.2,7.3,3.2C304.1,556.7,301.6,553.2,296.6,553.2z M286.8,566.7c0-1.6,0.3-3.1,1-4.5c-1.5-2-2.3-4.5-2.3-7
	c0-3.4,1.8-6.5,4.8-8.3c-1-7.5,5-12.5,11.8-12.5c7.5,0,11.3,5.3,12.5,10.5c1,3.8,2.5,5,4.2,5.3c3.5,0.4,7.1,0.2,10.5-0.5
	c2.3-0.5,3.3-1.8,3.3-5.5c0.2-26.3-3-43.1-3-52.6c0-10.3,5.8-14.8,11.8-16.8c8-2.8,23.8-5,31.6-4.8c3.5,0,5.3,2.3,6.8,4.5
	c2.9,4.7,5.5,9.5,7.8,14.5c-2,1-3.2,3.1-3,5.3c0,3.3,1.8,6.4,4.8,8l-29.3,0.8c-0.2,1.7-0.3,3.3-0.2,5c-0.2,2.9,2,5.3,4.9,5.5
	c0.1,0,0.3,0,0.4,0c2.2,0,4.3-0.8,6-2.3c1,10.3-5.2,13.5-11.8,13.8c0.2,9.3,0.8,16,0.8,32.8c0,12-6,19.3-14.5,19.3
	c0.5-0.5,0.8-1.3,0.8-2c0-4.8-5.3-7-9-7c-7.5,0-11.5,6-19.8,6c-7.3,0-10.3-6-15.8-6c-3.5,0-6,2.3-6,5.3c0,1.5,0.5,2.9,1.5,4
	C292.3,577.5,286.8,573,286.8,566.7L286.8,566.7z M278.8,365.3c-0.1-3.7-3.2-6.6-7-6.5c0,0,0,0,0,0c2,2,3,4.7,3,7.5
	c0,2-0.4,3.9-1.2,5.8C276.5,371.1,278.8,368.8,278.8,365.3L278.8,365.3z M270.8,440.7c-0.1-3.4-2.8-6.2-6.3-6.3
	c-1.4,0-2.8,0.4-4,1.3c4.8,1,8.4,5.1,8.8,10C270.3,444.2,270.8,442.5,270.8,440.7L270.8,440.7z M266.8,366.8c0-3.8-3-6.9-6.8-7
	c-1.1,0-2.2,0.3-3.2,0.8c4.3,1.8,7.3,5.5,7,12.5C265.7,371.6,266.9,369.3,266.8,366.8L266.8,366.8z M279,567.2l-18.8-80.7l-6.8-4.8
	l-3.2-15.5c-0.5-2,0.5-3,2-3c1.1,0.1,2.1,0.6,2.8,1.5c2.7,3.2,5.6,6.3,8.8,9c2.1,1.8,4.5,3.3,7,4.5l15.5,67.4
	c-2.7,2.4-4.2,5.9-4.3,9.5c0,2.6,0.7,5.2,2,7.5c-0.5,1.3-0.8,2.6-0.8,4c0,1.6,0.3,3.1,1,4.5L279,567.2z M255.5,444.5
	c-3.3,0-5.5,1.8-6,3.8c1.2-0.3,2.5-0.5,3.8-0.5c3.5-0.2,6.8,1.7,8.5,4.8C262.5,447.7,259.7,444.5,255.5,444.5z M276.8,490.6
	c3-0.8,4.5-3,4.5-5c0-3-1.8-5-4-6.5c-3.8-2.3-7.8-4.3-11.3-7.3c-3.1-2.7-5.9-5.7-8.3-9c-1.8-2-3.2-2.8-5.5-2.8
	c-2.5-0.1-4.6,1.8-4.8,4.2c0,0,0,0,0,0c-0.1,1.1,0.2,2.1,0.8,3c-3.8-1.2-6-5.3-6-9.5c0.1-3.5,2-6.7,5-8.5c-0.3-1-0.5-2-0.5-3
	c0-5.3,4.2-10.3,11-10.8c1.2-3.5,5-6.3,10-6.3c6.7-0.1,12.2,5.3,12.3,12.1c0,0.2,0,0.3,0,0.5c0,4-1,5-1,8c0,1.8,0.5,3.2,3,5.8
	c3,3,4.5,4.8,6.3,4.8c1.8,0,2.8-0.8,4.8-2.3c11.3-9.5,21-19.5,34.6-26.8c0.2,11.8,4.8,21.3,14.5,28.6l-8.5,6.5c-1.3-1.4-3.1-2.1-5-2
	c-3.3,0-6.5,1.2-11.5,4.5c-5.8,3.8-15.3,13.5-22,20c-3.8,3.8-7.8,5.8-11.5,5.8C280.5,494.6,278,493.3,276.8,490.6z M288,422.7
	c-7.3,0-11.8,0.5-16.8,0.5c-7.8,0-13.5-3.3-15.3-9.5c3,0,5.3-2.5,5.3-5.4c0,0,0,0,0-0.1c0-6-9.3-12-9.3-23.5c0-3.8,0.5-7.3,0.5-10
	c0-2.8-2.4-5.1-5.2-5c0,0-0.1,0-0.1,0c-1.9,0-3.8,0.7-5.3,2c-0.5-7,5.3-12.3,12.5-11.8c1-2.2,4.7-5,9-5c2.1-0.1,4.3,0.5,6,1.8
	c1.5-0.6,3.1-0.8,4.8-0.8c6.6,0.1,11.9,5.4,12,12c0,6.8-4,10-8,12.8c-1.8,1.1-2.7,3.2-2.2,5.3c0.2,2.8,1.8,7.5,2.5,10
	c0.8,2.2,2.5,3.3,5.3,3c13.8-1,33.6-2.5,45.6-3c11.3-0.5,19.3-0.8,28.6-1.2c-17.5,4.3-27.6,16-30.3,32.8l-8,4.3
	C317.8,424.9,308.8,422.7,288,422.7L288,422.7z M235.7,399.1c-14-0.2-25.3-11.3-25.3-25.1c0-14.8,11.5-25.3,26.1-25.3
	c6.5,0,12.7,2.9,16.8,8c-5.8-0.8-11.3,3.2-13,7.8c-1.2-0.4-2.5-0.6-3.8-0.5c-5.6-0.1-10.2,4.4-10.3,9.9c0,0,0,0,0,0.1
	c0,5.7,4.6,10.3,10.3,10.3c5.8,0,9.3-4.5,9.3-10.3v-1c0.2-0.2,0.8-0.2,1.5-0.2c1,0,2,0.5,2,2.2c0,2-0.8,5.8-0.8,9.5
	c0,2.9,0.6,5.8,1.8,8.5l8.5,35.6c-1.4,1.1-2.5,2.3-3.5,3.8c-4.7,0.8-8.6,3.9-10.5,8.3L235.7,399.1z M223.1,398.9
	c3.1,1.6,6.4,2.7,9.8,3.2l3.2,15l-15,64.7l-6.7,4.8l-18.8,80.7L180.3,579L223.1,398.9z"/>
<path class="st1" d="M571.8,485.3c0-7,5.6-11.4,12.1-11.4c1.9-0.1,3.8,0.3,5.5,1v5.5c-1.4-0.7-3-1.1-4.7-1.1c-3.2-0.1-5.9,2.4-6,5.6
	c-0.1,3.2,2.4,5.9,5.6,6c1.8,0,3.5-0.4,5-1.3v5.6c-1.9,0.9-4,1.4-6.2,1.4C576.8,496.7,571.8,492.3,571.8,485.3"/>
<polyline class="st1" points="592.6,491.5 601.8,479.4 592.8,479.4 592.8,474.2 609.8,474.2 609.8,478.9 600.4,491.2 609.9,491.2 
	609.9,496.3 592.6,496.3 592.6,491.5 "/>
<polyline class="st1" points="614.8,474.2 630,474.2 630,479.3 621.2,479.3 621.2,482.8 629.7,482.8 629.7,487.7 621.2,487.7 
	621.2,491.3 630,491.3 630,496.3 614.8,496.3 614.8,474.2 "/>
<path class="st1" d="M634.6,485.3c0-7,5.6-11.4,12.1-11.4c1.9-0.1,3.8,0.3,5.5,1v5.5c-1.4-0.7-3-1.1-4.6-1.1c-3.2-0.1-5.9,2.4-6,5.6
	c-0.1,3.2,2.4,5.9,5.6,6c1.8,0,3.5-0.4,5-1.3v5.6c-1.9,0.9-4,1.4-6.1,1.4C639.6,496.7,634.6,492.3,634.6,485.3"/>
<polyline class="st1" points="663.4,474.2 663.4,482.7 670,482.7 670,474.2 676.3,474.2 676.3,496.3 670,496.3 670,487.7 
	663.4,487.7 663.4,496.3 657.1,496.3 657.1,474.2 663.4,474.2 "/>
<polyline class="st1" points="693.2,479.4 687.7,479.4 687.7,474.2 705.1,474.2 705.1,479.4 699.6,479.4 699.6,496.3 693.2,496.3 
	693.2,479.4 "/>
<polyline class="st1" points="709.2,474.2 724.5,474.2 724.5,479.3 715.6,479.3 715.6,482.8 724.2,482.8 724.2,487.7 715.6,487.7 
	715.6,491.3 724.5,491.3 724.5,496.3 709.2,496.3 709.2,474.2 "/>
<path class="st1" d="M729.1,485.3c0-7,5.6-11.4,12.1-11.4c1.9-0.1,3.8,0.3,5.5,1v5.5c-1.4-0.7-3-1.1-4.7-1.1c-3.2-0.1-5.9,2.4-6,5.6
	s2.4,5.9,5.6,6c1.8,0,3.5-0.4,5-1.3v5.6c-1.9,0.9-4,1.4-6.2,1.4C734,496.7,729.1,492.3,729.1,485.3"/>
<polyline class="st1" points="757.9,474.2 757.9,482.7 764.4,482.7 764.4,474.2 770.8,474.2 770.8,496.3 764.4,496.3 764.4,487.7 
	757.9,487.7 757.9,496.3 751.5,496.3 751.5,474.2 757.9,474.2 "/>
<polyline class="st1" points="777.3,474.2 785.1,474.2 791.8,487.4 791.9,487.4 791.9,474.2 798.2,474.2 798.2,496.3 790.5,496.3 
	783.8,483.1 783.7,483.1 783.7,496.3 777.3,496.3 777.3,474.2 "/>
<rect x="804.7" y="474.2" class="st1" width="6.4" height="22.1"/>
<path class="st1" d="M816.3,485.3c0-7,5.6-11.4,12.1-11.4c1.9-0.1,3.8,0.3,5.5,1v5.5c-1.4-0.7-3-1.1-4.7-1.1c-3.2-0.1-5.9,2.4-6,5.6
	s2.4,5.9,5.6,6c1.8,0,3.5-0.4,5-1.3v5.6c-1.9,0.9-4,1.4-6.2,1.4C821.3,496.7,816.3,492.3,816.3,485.3"/>
<path class="st1" d="M850.3,487.2l-2.2-8.2h-0.3l-2.2,8.2H850.3 M851.5,491.7h-7.1l-1.2,4.6h-6.5l6.6-22.1h9.3l6.6,22.1h-6.5
	L851.5,491.7z"/>
<polyline class="st1" points="862.7,474.2 869,474.2 869,491.1 876.9,491.1 876.9,496.3 862.7,496.3 862.7,474.2 "/>
<path class="st1" d="M572.9,527.6v-14h6.4V527c0,2.5,1.4,3.6,3.2,3.6c1.8,0,3.2-1.1,3.2-3.6v-13.3h6.4v14c0,6.2-4.3,8.7-9.5,8.7
	C577.2,536.4,572.9,533.9,572.9,527.6"/>
<polyline class="st1" points="598.3,513.7 606.1,513.7 612.7,526.9 612.8,526.9 612.8,513.7 619.2,513.7 619.2,535.8 611.4,535.8 
	604.7,522.5 604.6,522.5 604.6,535.8 598.3,535.8 598.3,513.7 "/>
<rect x="625.7" y="513.7" class="st1" width="6.4" height="22.1"/>
<polyline class="st1" points="635.5,513.7 642.6,513.7 646.4,530.2 646.5,530.2 650.3,513.7 657.5,513.7 650.8,535.8 642.1,535.8 
	635.5,513.7 "/>
<polyline class="st1" points="661.5,513.7 676.8,513.7 676.8,518.7 667.9,518.7 667.9,522.3 676.5,522.3 676.5,527.2 667.9,527.2 
	667.9,530.7 676.8,530.7 676.8,535.8 661.5,535.8 661.5,513.7 "/>
<path class="st1" d="M691.5,523.9c1.5,0,2.7-1.2,2.7-2.7c0,0,0-0.1,0-0.1c0-1.5-1.1-2.7-2.6-2.7c0,0-0.1,0-0.1,0H689v5.5H691.5
	 M682.6,513.7h10.2c5.2,0,8.3,3.3,8.3,7.3c0,3.8-2.8,5.4-4.7,6.3v0.1c0.5,0.4,0.9,1,1.2,1.6l4.1,6.8h-7.2l-3.8-7.8H689v7.8h-6.4
	V513.7z"/>
<path class="st1" d="M705.4,534.6v-5.8c2.2,1.4,4.7,2.2,7.3,2.3c2.2,0,3.3-0.6,3.3-1.7c0-0.9-0.8-1.3-2-1.6c-1.4-0.4-2.3-0.5-4-1
	c-3-0.6-5.1-3.3-4.9-6.3c0-4.5,4.1-7.4,9.6-7.4c2.2,0,4.4,0.4,6.4,1.2v5.5c-1.9-1-3.9-1.5-6-1.5c-2.5,0-3.6,0.6-3.6,1.6
	c0,1,0.7,1.3,2.2,1.6c1.1,0.2,1.9,0.4,3.4,0.7c3.6,0.9,5.5,3,5.5,6.6c0,3.6-3.3,7.5-9.4,7.5C710.4,536.4,707.8,535.8,705.4,534.6"/>
<rect x="727.5" y="513.7" class="st1" width="6.4" height="22.1"/>
<polyline class="st1" points="743.7,518.8 738.2,518.8 738.2,513.7 755.6,513.7 755.6,518.8 750.1,518.8 750.1,535.8 743.7,535.8 
	743.7,518.8 "/>
<polyline class="st1" points="764.1,527.7 756.6,513.7 763.8,513.7 767.3,521.6 767.5,521.6 771.1,513.7 778.1,513.7 770.5,527.7 
	770.5,535.8 764.1,535.8 764.1,527.7 "/>
<rect x="573.1" y="553.1" class="st1" width="6.4" height="22.1"/>
<polyline class="st1" points="585.9,553.1 593.8,553.1 600.4,566.3 600.5,566.3 600.5,553.1 606.9,553.1 606.9,575.2 599.1,575.2 
	592.4,562 592.3,562 592.3,575.2 585.9,575.2 585.9,553.1 "/>
<path class="st1" d="M630.4,563.4c1.5-0.1,2.7-1.4,2.6-2.9c-0.1-1.4-1.2-2.5-2.6-2.6h-2.5v5.5H630.4 M621.5,553.1h9.6
	c5.2,0,8.4,3.5,8.4,7.6s-3.2,7.3-8.4,7.3h-3.2v7.2h-6.4V553.1z"/>
<path class="st1" d="M653.2,563.4c1.5,0,2.7-1.2,2.7-2.6c0,0,0-0.1,0-0.1c0-1.5-1.1-2.7-2.6-2.7c0,0-0.1,0-0.1,0h-2.6v5.5H653.2
	 M644.2,553.1h10.2c5.2,0,8.3,3.3,8.3,7.3c0,3.8-2.8,5.4-4.7,6.3v0.1c0.5,0.4,0.9,1,1.2,1.6l4.1,6.8h-7.2l-3.8-7.8h-1.6v7.8h-6.4
	L644.2,553.1z"/>
<path class="st1" d="M678.1,566.2l-2.2-8.2h-0.3l-2.2,8.2H678.1 M679.3,570.7h-7.1l-1.2,4.6h-6.5l6.6-22.1h9.3l6.7,22.1h-6.5
	L679.3,570.7z"/>
<path class="st1" d="M689.5,564.2c0-7.2,5-11.9,12.5-11.9c2.2,0,4.4,0.5,6.4,1.4v5.2c-1.7-0.9-3.5-1.4-5.4-1.4
	c-4.1,0-6.5,2.2-6.5,6.7c0,4.2,2.7,6,5.2,6c0.5,0,1-0.1,1.4-0.2v-6h6.2v9.8c-2.5,1.3-5.2,1.9-8,1.9
	C695.1,575.7,689.5,571.4,689.5,564.2"/>
<path class="st1" d="M714.7,567.1v-14h6.4v13.4c0,2.5,1.4,3.6,3.2,3.6s3.2-1.1,3.2-3.6v-13.3h6.4v14c0,6.2-4.3,8.7-9.5,8.7
	S714.7,573.3,714.7,567.1"/>
<polyline class="st1" points="740.1,553.1 755.4,553.1 755.4,558.2 746.5,558.2 746.5,561.7 755.1,561.7 755.1,566.6 746.5,566.6 
	746.5,570.2 755.4,570.2 755.4,575.2 740.1,575.2 740.1,553.1 "/>
<path class="st1" d="M568.7,311.8c0,23.8,18.4,38.5,42.6,38.5c7.9,0.1,15.7-1.5,22.9-4.6v-18.8c-5.8,2.9-12.2,4.4-18.7,4.3
	c-8.6,0-21-5.9-21-19.4s11.3-19.8,22.3-19.8c6-0.1,11.9,1.1,17.3,3.6V277c-4.8-2-10.8-3.5-20.5-3.5
	C589.4,273.5,568.8,288,568.7,311.8 M737.5,274.5h-23.6v47c0,20.8,16,29.3,35.3,29.3s35.3-8.4,35.3-29.3v-47h-23.6v45
	c0,8.4-5.1,12.2-11.7,12.2s-11.7-3.7-11.7-12.2L737.5,274.5z M662.1,291.9V349h23.6v-57.1h20.4v-17.4h-64.5v17.4L662.1,291.9z"/>
<path class="st2" d="M488.4,424.6v-5h-0.8v-0.8h0.8v-0.3c-0.1-0.7,0.2-1.4,0.7-2c0.4-0.4,0.9-0.6,1.4-0.5c0.3,0,0.6,0.1,0.9,0.2
	l-0.1,0.8c-0.2-0.1-0.4-0.1-0.7-0.1c-0.9,0-1.1,0.8-1.1,1.7v0.3h1.4v0.8h-1.4v5H488.4z"/>
<path class="st2" d="M491.7,420.6c0-0.7,0-1.3,0-1.8h0.9v1.1l0,0c0.2-0.7,0.9-1.2,1.6-1.3c0.1,0,0.2,0,0.3,0v1c-0.1,0-0.2,0-0.4,0
	c-0.7,0-1.3,0.6-1.4,1.4c0,0.2,0,0.3,0,0.5v3.1h-1L491.7,420.6z"/>
<path class="st2" d="M496.1,421.9c-0.1,1,0.7,1.9,1.7,2c0.1,0,0.2,0,0.3,0c0.5,0,1.1-0.1,1.6-0.3l0.2,0.8c-0.6,0.3-1.3,0.4-1.9,0.4
	c-1.5,0.1-2.8-1-2.9-2.5c0-0.1,0-0.3,0-0.4c0-1.8,1-3.1,2.7-3.1c1.4,0,2.4,1.1,2.4,2.5c0,0.1,0,0.2,0,0.2c0,0.2,0,0.3,0,0.5
	L496.1,421.9z M499.2,421.1c0.1-0.8-0.5-1.6-1.3-1.7c-0.1,0-0.1,0-0.2,0c-0.9,0.1-1.6,0.8-1.6,1.7H499.2z"/>
<path class="st2" d="M502.1,421.9c-0.1,1,0.7,1.9,1.7,2c0.1,0,0.2,0,0.3,0c0.6,0,1.1-0.1,1.6-0.3l0.2,0.8c-0.6,0.3-1.3,0.4-1.9,0.4
	c-1.5,0.1-2.8-1-2.9-2.5c0-0.1,0-0.3,0-0.4c0-1.8,1-3.1,2.7-3.1c1.4,0,2.4,1.1,2.4,2.5c0,0.1,0,0.2,0,0.2c0,0.2,0,0.3,0,0.5
	L502.1,421.9z M505.2,421.1c0.1-0.8-0.5-1.6-1.3-1.7c-0.1,0-0.1,0-0.2,0c-0.9,0.1-1.6,0.8-1.6,1.7H505.2z"/>
<path class="st2" d="M507.6,416.1h1.1v8.5h-1.1V416.1z"/>
<path class="st2" d="M515.7,421.6c0.1,1.6-1,2.9-2.6,3.1c-0.1,0-0.2,0-0.3,0c-1.5,0-2.8-1.2-2.8-2.7c0-0.1,0-0.2,0-0.3
	c-0.1-1.6,1-2.9,2.6-3.1c0.1,0,0.2,0,0.3,0c1.5,0,2.8,1.2,2.8,2.7C515.7,421.4,515.7,421.5,515.7,421.6z M511.1,421.7
	c0,1.3,0.7,2.2,1.8,2.2c1,0,1.8-1,1.8-2.3c0-1-0.5-2.2-1.7-2.2S511.1,420.6,511.1,421.7z"/>
<path class="st2" d="M522,418.8c0,0.4,0,0.9,0,1.6v3.4c0.1,1-0.2,1.9-0.8,2.6c-0.6,0.5-1.3,0.7-2.1,0.7c-0.7,0-1.3-0.2-1.9-0.5
	l0.3-0.8c0.5,0.3,1.1,0.5,1.7,0.5c1.1,0,1.9-0.6,1.9-2v-0.7l0,0c-0.4,0.6-1.1,1-1.8,1c-1.4-0.1-2.5-1.3-2.5-2.7c0,0,0-0.1,0-0.1
	c-0.2-1.5,0.9-2.9,2.5-3.1c0,0,0.1,0,0.1,0c0.7,0,1.4,0.3,1.8,1l0,0v-0.9L522,418.8z M520.9,421.1c0-0.2,0-0.3-0.1-0.5
	c-0.2-0.7-0.8-1.1-1.5-1.1c-1,0-1.7,0.9-1.7,2.2c0,1.1,0.6,2.1,1.7,2.1c0.7,0,1.3-0.4,1.5-1.1c0.1-0.2,0.1-0.4,0.1-0.6L520.9,421.1z
	"/>
<path class="st2" d="M529,421.6c0.1,1.6-1,2.9-2.6,3.1c-0.1,0-0.2,0-0.3,0c-1.5,0-2.8-1.2-2.8-2.7c0-0.1,0-0.2,0-0.3
	c-0.1-1.6,1-2.9,2.6-3.1c0.1,0,0.2,0,0.3,0c1.5,0,2.8,1.2,2.8,2.7C529,421.4,529,421.5,529,421.6z M524.4,421.7
	c0,1.3,0.7,2.2,1.8,2.2c1,0,1.8-1,1.8-2.3c0-1-0.5-2.2-1.7-2.2S524.4,420.6,524.4,421.7z"/>
<path class="st2" d="M530.6,418.8l1.1,3.3c0.2,0.5,0.3,1,0.5,1.5l0,0c0.1-0.5,0.3-1,0.5-1.5l1.1-3.3h1.1l-2.2,5.8h-1l-2.2-5.8H530.6
	z"/>
<path class="st2" d="M536.4,421.9c-0.1,1,0.7,1.9,1.7,2c0.1,0,0.2,0,0.3,0c0.6,0,1.1-0.1,1.6-0.3l0.2,0.8c-0.6,0.3-1.3,0.4-1.9,0.4
	c-1.5,0.1-2.8-1-2.9-2.5c0-0.1,0-0.3,0-0.4c0-1.8,1-3.1,2.7-3.1c1.4,0,2.4,1.2,2.4,2.5c0,0.1,0,0.1,0,0.2c0,0.2,0,0.3,0,0.5
	L536.4,421.9z M539.5,421.1c0.1-0.8-0.5-1.6-1.3-1.7c-0.1,0-0.1,0-0.2,0c-0.9,0.1-1.6,0.8-1.6,1.7H539.5z"/>
<path class="st2" d="M546,424.4c-0.5,0.2-1.1,0.4-1.7,0.3c-1.5,0.1-2.8-1.1-2.9-2.6c0-0.1,0-0.3,0-0.4c-0.1-1.7,1.3-3,2.9-3.1
	c0.1,0,0.1,0,0.2,0c0.5,0,1,0.1,1.5,0.3l-0.2,0.8c-0.4-0.2-0.8-0.3-1.2-0.3c-1.2,0.1-2.1,1.1-2,2.3c0.1,1.1,0.9,2,2,2
	c0.4,0,0.9-0.1,1.3-0.3L546,424.4z"/>
<path class="st2" d="M548.7,417.1v1.7h1.5v0.8h-1.5v3.1c0,0.7,0.2,1.1,0.8,1.1c0.2,0,0.4,0,0.6-0.1l0,0.8c-0.3,0.1-0.6,0.2-0.9,0.1
	c-0.4,0-0.8-0.1-1.1-0.5c-0.3-0.4-0.5-1-0.4-1.5v-3.2h-0.9v-0.8h0.9v-1.4L548.7,417.1z"/>
<path class="st2" d="M556.6,421.6c0.1,1.6-1,2.9-2.6,3.1c-0.1,0-0.2,0-0.3,0c-1.5,0-2.8-1.2-2.8-2.7c0-0.1,0-0.2,0-0.3
	c-0.1-1.6,1-2.9,2.6-3.1c0.1,0,0.2,0,0.3,0c1.5,0,2.8,1.2,2.8,2.7C556.6,421.4,556.6,421.5,556.6,421.6z M552,421.7
	c0,1.3,0.7,2.2,1.8,2.2c1,0,1.8-1,1.8-2.3c0-1-0.5-2.2-1.7-2.2S552,420.6,552,421.7z"/>
<path class="st2" d="M557.9,420.6c0-0.7,0-1.3,0-1.8h0.9v1.1h0c0.2-0.7,0.8-1.2,1.6-1.3c0.1,0,0.2,0,0.3,0v1c-0.1,0-0.2,0-0.4,0
	c-0.7,0-1.3,0.6-1.4,1.4c0,0.2,0,0.3,0,0.5v3.1h-1L557.9,420.6z"/>
<path class="st2" d="M561.7,423.5c0.4,0.3,0.9,0.4,1.4,0.4c0.8,0,1.1-0.4,1.1-0.9s-0.3-0.8-1.1-1.1c-1-0.4-1.5-1-1.5-1.6
	c0-1,0.9-1.8,1.9-1.7c0,0,0.1,0,0.1,0c0.5,0,1,0.1,1.4,0.4l-0.3,0.8c-0.4-0.2-0.8-0.3-1.2-0.3c-0.6,0-1,0.4-1,0.8s0.4,0.7,1.1,1
	c1,0.4,1.5,0.9,1.5,1.8c0,1-0.8,1.7-2.2,1.7c-0.6,0-1.1-0.1-1.6-0.4L561.7,423.5z"/>
<path class="st2" d="M566.2,424c0-0.4,0.3-0.7,0.7-0.7c0,0,0,0,0.1,0c0.4,0,0.7,0.4,0.7,0.8c0,0.4-0.3,0.6-0.7,0.7
	C566.5,424.7,566.2,424.4,566.2,424C566.2,424,566.2,424,566.2,424z"/>
<path class="st2" d="M568.9,420.4c0-0.6,0-1.1,0-1.6h0.9l0.1,1l0,0c0.4-0.7,1.1-1.1,1.9-1.1c0.8,0,2,0.5,2,2.5v3.4h-1.1v-3.4
	c0-0.9-0.4-1.7-1.3-1.7c-0.7,0-1.2,0.4-1.4,1.1c-0.1,0.2-0.1,0.3-0.1,0.5v3.5h-1L568.9,420.4z"/>
<path class="st2" d="M576.2,421.9c-0.1,1,0.7,1.9,1.7,2c0.1,0,0.2,0,0.3,0c0.6,0,1.1-0.1,1.6-0.3l0.2,0.8c-0.6,0.3-1.3,0.4-1.9,0.4
	c-1.5,0.1-2.8-1-2.9-2.5c0-0.1,0-0.3,0-0.4c0-1.8,1-3.1,2.7-3.1c1.4,0,2.4,1.2,2.4,2.5c0,0.1,0,0.1,0,0.2c0,0.2,0,0.3,0,0.5
	L576.2,421.9z M579.3,421.1c0.1-0.8-0.5-1.6-1.3-1.7c-0.1,0-0.1,0-0.2,0c-0.9,0.1-1.6,0.8-1.6,1.7H579.3z"/>
<path class="st2" d="M582.9,417.1v1.7h1.5v0.8h-1.5v3.1c0,0.7,0.2,1.1,0.8,1.1c0.2,0,0.4,0,0.6-0.1l0,0.8c-0.3,0.1-0.6,0.2-0.9,0.1
	c-0.4,0-0.8-0.1-1.1-0.5c-0.3-0.4-0.5-1-0.4-1.5v-3.2h-0.9v-0.8h0.9v-1.4L582.9,417.1z"/>
</svg>
