<svg width="472" height="472" viewBox="0 0 472 472" fill="none" xmlns="http://www.w3.org/2000/svg">
<rect width="472" height="472" fill="#1B5638"/>
<path fill-rule="evenodd" clip-rule="evenodd" d="M184.254 95.975C186.508 113.267 191.546 129.688 198.913 144.763C163.933 159.4 139.338 193.958 139.338 234.217C139.338 287.717 182.771 331.15 236.271 331.15C274.075 331.15 306.854 309.467 322.809 277.854H377.396C358.771 338.088 302.6 381.904 236.271 381.904C154.758 381.904 88.5834 315.729 88.5834 234.217C88.5834 171.013 128.371 117.025 184.254 95.975Z" fill="white"/>
<path fill-rule="evenodd" clip-rule="evenodd" d="M184.252 95.9749C200.433 89.8732 217.964 86.5349 236.274 86.5352C315.903 86.5348 380.893 149.692 383.855 228.612C370.484 232.269 356.403 234.223 341.866 234.223C261.155 234.225 194.415 173.943 184.252 95.9749Z" fill="#89C644"/>
</svg>
