<?xml version="1.0" encoding="UTF-8" standalone="no"?>
<!DOCTYPE svg PUBLIC "-//W3C//DTD SVG 1.1//EN" "http://www.w3.org/Graphics/SVG/1.1/DTD/svg11.dtd">
<svg width="100%" height="100%" viewBox="0 0 539 216" version="1.1" xmlns="http://www.w3.org/2000/svg" xmlns:xlink="http://www.w3.org/1999/xlink" xml:space="preserve" xmlns:serif="http://www.serif.com/" style="fill-rule:evenodd;clip-rule:evenodd;stroke-linejoin:round;stroke-miterlimit:2;">
    <g transform="matrix(1,0,0,1,-6402.15,-2527.95)">
        <g transform="matrix(1,0,0,1,468.252,16.2808)">
            <g>
                <g transform="matrix(4.16667,0,0,4.16667,3946.36,731.194)">
                    <path d="M606.268,427.313L606.259,427.313C600.977,427.313 596.688,431.601 596.688,436.883L596.688,436.892L606.259,436.883L606.268,427.313Z" style="fill:rgb(7,8,44);"/>
                </g>
                <g transform="matrix(4.16667,0,0,4.16667,3946.36,820.344)">
                    <path d="M592.537,426.194L592.546,426.194C597.828,426.194 602.117,421.906 602.117,416.624L602.117,416.615L592.546,416.624L592.537,426.194Z" style="fill:rgb(7,8,44);"/>
                </g>
                <g transform="matrix(4.16667,0,0,4.16667,3946.36,854.044)">
                    <path d="M490.309,410.127L486.17,410.127L486.17,404.1L480.946,405.225L480.946,410.127L477.008,410.127L477.008,414.909L480.946,414.909L480.946,430.621L486.17,430.621L486.17,414.909L490.309,414.909L490.309,410.127Z" style="fill:rgb(7,8,44);fill-rule:nonzero;"/>
                </g>
                <g transform="matrix(4.16667,0,0,4.16667,3946.36,879.156)">
                    <path d="M501.761,425.076C508.03,425.076 512.771,420.455 512.771,414.347C512.771,408.239 508.03,403.618 501.761,403.618C495.492,403.618 490.751,408.239 490.751,414.347C490.751,420.455 495.492,425.076 501.761,425.076ZM501.761,420.013C498.546,420.013 496.135,417.562 496.135,414.347C496.135,411.133 498.546,408.681 501.761,408.681C505.016,408.681 507.387,411.133 507.387,414.347C507.387,417.562 505.016,420.013 501.761,420.013Z" style="fill:rgb(7,8,44);fill-rule:nonzero;"/>
                </g>
                <g transform="matrix(4.16667,0,0,4.16667,3946.36,854.044)">
                    <path d="M526.715,410.127L522.576,410.127L522.576,404.1L517.352,405.225L517.352,410.127L513.414,410.127L513.414,414.909L517.352,414.909L517.352,430.621L522.576,430.621L522.576,414.909L526.715,414.909L526.715,410.127Z" style="fill:rgb(7,8,44);fill-rule:nonzero;"/>
                </g>
                <g transform="matrix(4.16667,0,0,4.16667,3946.36,879.156)">
                    <path d="M549.177,414.387C549.177,408.239 544.436,403.618 538.167,403.618C531.898,403.618 527.157,408.239 527.157,414.347C527.157,420.455 531.898,425.076 538.167,425.076C543.23,425.076 547.289,422.183 548.776,418.004L543.19,418.004C542.386,419.41 540.498,420.455 538.247,420.455C535.515,420.455 533.425,418.767 532.742,416.155L549.017,416.155C549.137,415.673 549.177,414.91 549.177,414.387ZM538.167,408.199C540.739,408.199 542.869,409.847 543.552,412.338L532.823,412.338C533.506,409.847 535.555,408.199 538.167,408.199Z" style="fill:rgb(7,8,44);fill-rule:nonzero;"/>
                </g>
                <g transform="matrix(4.16667,0,0,4.16667,3946.36,877.148)">
                    <path d="M576.864,404.1C573.85,404.1 571.479,405.386 569.912,407.797C568.707,405.466 566.376,404.1 563.322,404.1C560.831,404.1 558.741,405.065 557.254,406.953L557.254,404.582L552.03,404.582L552.03,425.076L557.254,425.076L557.254,413.383C557.254,410.851 559.022,409.163 561.594,409.163C564.005,409.163 565.612,410.811 565.612,413.302L565.612,425.076L570.836,425.076L570.836,413.383C570.836,410.851 572.564,409.163 575.136,409.163C577.587,409.163 579.154,410.811 579.154,413.302L579.154,425.076L584.378,425.076L584.378,411.735C584.378,407.114 581.364,404.1 576.864,404.1Z" style="fill:rgb(7,8,44);fill-rule:nonzero;"/>
                </g>
            </g>
            <g transform="matrix(4.16667,0,0,4.16667,3946.36,731.194)">
                <path d="M588.386,436.892L588.395,436.892C593.677,436.892 597.965,432.603 597.965,427.321L597.965,427.313L588.395,427.321L588.386,436.892Z" style="fill:rgb(233,24,56);"/>
            </g>
            <g transform="matrix(4.16667,0,0,4.16667,3946.36,1082.34)">
                <path d="M480.449,394.775C482.322,394.775 483.871,393.694 483.871,391.821C483.871,390.055 482.52,389.353 481.097,388.993C480.142,388.758 479.494,388.416 479.494,387.84C479.494,387.425 479.908,387.083 480.413,387.083C480.971,387.083 481.385,387.497 481.385,387.984L483.745,387.984C483.745,386.416 482.322,385.155 480.431,385.155C478.665,385.155 477.134,386.164 477.134,387.984C477.134,389.839 478.593,390.542 479.962,390.866C480.791,391.082 481.494,391.388 481.494,392.019C481.494,392.487 481.043,392.848 480.467,392.848C479.854,392.848 479.368,392.379 479.368,391.803L477.008,391.803C477.008,393.442 478.467,394.775 480.449,394.775Z" style="fill:rgb(233,24,56);fill-rule:nonzero;"/>
            </g>
            <g transform="matrix(4.16667,0,0,4.16667,3946.36,1071.08)">
                <path d="M490.339,388.074L488.483,388.074L488.483,385.371L486.141,385.876L486.141,388.074L484.376,388.074L484.376,390.217L486.141,390.217L486.141,397.261L488.483,397.261L488.483,390.217L490.339,390.217L490.339,388.074Z" style="fill:rgb(233,24,56);fill-rule:nonzero;"/>
            </g>
            <g transform="matrix(4.16667,0,0,4.16667,3946.36,1083.24)">
                <path d="M497.563,385.155L497.563,390.325C497.563,391.514 496.752,392.288 495.545,392.288C494.41,392.288 493.653,391.532 493.653,390.361L493.653,385.155L491.311,385.155L491.311,391.045C491.311,393.171 492.699,394.558 494.77,394.558C495.923,394.558 496.878,394.09 497.563,393.225L497.563,394.342L499.904,394.342L499.904,385.155L497.563,385.155Z" style="fill:rgb(233,24,56);fill-rule:nonzero;"/>
            </g>
            <g transform="matrix(4.16667,0,0,4.16667,3946.36,1067.48)">
                <path d="M508.732,385.155L508.732,390.145C508.011,389.262 506.984,388.721 505.741,388.721C503.183,388.721 501.256,390.793 501.256,393.531C501.256,396.27 503.183,398.341 505.741,398.341C506.984,398.341 508.011,397.801 508.732,396.918L508.732,398.125L511.074,398.125L511.074,385.155L508.732,385.155ZM506.192,396.071C504.75,396.071 503.67,394.972 503.67,393.531C503.67,392.09 504.75,390.991 506.192,390.991C507.651,390.991 508.732,392.09 508.732,393.531C508.732,394.972 507.651,396.071 506.192,396.071Z" style="fill:rgb(233,24,56);fill-rule:nonzero;"/>
            </g>
            <g transform="matrix(4.16667,0,0,4.16667,3946.36,1064.55)">
                <path d="M514.118,388.289C514.947,388.289 515.595,387.659 515.595,386.83C515.595,386.002 514.947,385.371 514.118,385.371C513.289,385.371 512.641,386.002 512.641,386.83C512.641,387.659 513.289,388.289 514.118,388.289ZM512.947,398.828L515.289,398.828L515.289,389.64L512.947,389.64L512.947,398.828Z" style="fill:rgb(233,24,56);fill-rule:nonzero;"/>
            </g>
            <g transform="matrix(4.16667,0,0,4.16667,3946.36,1082.34)">
                <path d="M521.54,394.775C524.35,394.775 526.476,392.704 526.476,389.965C526.476,387.227 524.35,385.155 521.54,385.155C518.73,385.155 516.604,387.227 516.604,389.965C516.604,392.704 518.73,394.775 521.54,394.775ZM521.54,392.505C520.099,392.505 519.018,391.406 519.018,389.965C519.018,388.524 520.099,387.425 521.54,387.425C522.999,387.425 524.062,388.524 524.062,389.965C524.062,391.406 522.999,392.505 521.54,392.505Z" style="fill:rgb(233,24,56);fill-rule:nonzero;"/>
            </g>
        </g>
    </g>
</svg>
