<svg width="459" height="459" viewBox="0 0 459 459" fill="none" xmlns="http://www.w3.org/2000/svg">
<path fill-rule="evenodd" clip-rule="evenodd" d="M148.701 152.19C147.401 148.984 149.372 144.675 149.372 144.675C151.724 143.941 156.109 144.404 157.429 147.454C158.852 150.762 157.429 153.604 153.629 155.88C151.721 155.05 150.032 153.786 148.698 152.189" fill="#50565B"/>
<path fill-rule="evenodd" clip-rule="evenodd" d="M261.187 344.171L237.957 362.682L237.833 171.637H261.187V344.171Z" fill="#50565B"/>
<path fill-rule="evenodd" clip-rule="evenodd" d="M276.148 327.509L276.218 171.637H295.156L295.343 290.567C291.692 301.821 285.725 314.08 276.148 327.509Z" fill="#50565B"/>
<path fill-rule="evenodd" clip-rule="evenodd" d="M199.767 345.93L223.308 364.45V171.639H199.767V345.93Z" fill="#50565B"/>
<path fill-rule="evenodd" clip-rule="evenodd" d="M186.592 332.908L186.454 171.638H165.559V298.58C166.351 307.144 181.665 328.848 186.592 332.908Z" fill="#50565B"/>
<path d="M229.466 388.95C141.506 388.95 69.955 317.394 69.955 229.439C69.955 141.484 141.506 69.9459 229.466 69.9459C317.426 69.9459 388.966 141.497 388.966 229.446C388.966 317.395 317.415 388.952 229.466 388.952V394.599C320.529 394.599 394.61 320.509 394.61 229.446C394.61 138.383 320.529 64.299 229.466 64.299C138.403 64.299 64.308 138.38 64.308 229.439C64.308 320.498 138.394 394.597 229.466 394.597V388.95Z" fill="#50565B"/>
<path d="M229.465 451.585C106.96 451.585 7.3 351.935 7.3 229.443C7.3 106.951 106.96 7.31 229.465 7.31C351.97 7.31 451.612 106.96 451.612 229.443C451.612 351.926 351.958 451.585 229.465 451.585V458.895C355.986 458.895 458.922 355.964 458.922 229.443C458.922 102.922 355.986 0 229.465 0C102.944 0 0 102.927 0 229.443C0 355.959 102.931 458.9 229.465 458.9V451.585Z" fill="#50565B"/>
<path fill-rule="evenodd" clip-rule="evenodd" d="M40.3 294.487C45.311 299.378 47.85 302.753 50.59 309.192C53.045 314.928 53.565 318.623 53.907 324.858L65.259 319.824C61.059 315.173 58.714 312.3 56.17 306.56C53.5826 301.147 52.1269 295.262 51.892 289.267L40.3 294.487Z" fill="#50565B"/>
<path fill-rule="evenodd" clip-rule="evenodd" d="M39.571 319.618C44.413 314.575 47.815 312.01 54.276 309.328C60.039 306.928 63.707 306.407 69.937 306.015L64.917 294.663C60.279 298.883 57.358 301.173 51.644 303.743C46.2285 306.332 40.3419 307.789 34.344 308.025L39.571 319.618Z" fill="#50565B"/>
<path fill-rule="evenodd" clip-rule="evenodd" d="M418.144 294.487C413.155 299.387 410.585 302.753 407.859 309.192C405.4 314.942 404.871 318.623 404.542 324.858L393.19 319.824C397.334 315.133 399.776 312.314 402.27 306.56C404.848 301.143 406.307 295.261 406.557 289.267L418.144 294.487Z" fill="#50565B"/>
<path fill-rule="evenodd" clip-rule="evenodd" d="M418.878 319.618C414.009 314.589 410.647 311.996 404.173 309.328C398.401 306.949 394.742 306.38 388.512 306.015L393.532 294.663C398.157 298.896 401.091 301.151 406.805 303.743C413.124 306.62 417.17 307.505 424.105 308.025L418.878 319.618Z" fill="#50565B"/>
<path fill-rule="evenodd" clip-rule="evenodd" d="M139.929 388.472C142.913 386.84 144.367 388.321 145.114 387.36C145.67 386.653 145.025 386.346 144.189 385.701C143.077 384.834 141.855 384.136 140.738 383.278C139.6 382.378 138.626 381.353 137.474 380.459C137.012 380.09 135.958 379.067 135.34 379.85C134.202 381.317 139.386 382.887 136.34 386.805C135.824 387.463 134.61 388.85 131.249 390.705L115.97 399.117C115.614 399.317 115.01 399.775 114.77 399.597C114.53 399.419 114.783 398.677 114.895 398.285L120.217 380.899C120.829 378.449 121.837 376.114 123.2 373.988C124.57 372.245 126.451 374.722 127.322 373.588C127.878 372.894 127.651 372.77 126.388 371.783C125.752 371.303 124.476 370.569 121.95 368.599C120.607 367.545 119.398 366.322 118.095 365.308C117.495 364.854 116.539 363.565 115.752 364.552C115.53 364.852 115.845 365.499 115.934 365.637C117.224 367.304 117.424 368.203 116.834 370.337L107.754 402.211C107.109 404.511 107.171 405.235 107.581 405.546C108.008 405.888 108.399 405.791 109.675 405.052L139.929 388.472Z" fill="#50565B"/>
<path fill-rule="evenodd" clip-rule="evenodd" d="M179.64 404.908C180.614 401.017 183.598 403.77 184.078 401.822C184.229 401.222 184.002 401.093 182.978 400.839C182.209 400.648 181.564 400.71 177.442 399.674C175.583 399.22 172.817 398.309 170.879 397.829C169.856 397.576 169.225 397.842 169.1 398.309C168.655 400.101 174.5 400.079 173.413 404.428L167.376 428.64C165.824 434.886 162.814 431.192 162.214 433.558C162.143 433.858 162.37 434.189 163.006 434.358C165.678 435.016 167.768 435.318 169.285 435.696C171.717 436.305 174.585 437.239 181.962 439.089C185.951 440.072 189.868 436.594 190.862 432.601C191.102 431.627 190.804 431.387 190.613 431.334C188.768 430.88 187.767 437.746 175.713 434.749C172.213 433.877 172.858 432.081 173.654 428.906L179.64 404.908Z" fill="#50565B"/>
<path fill-rule="evenodd" clip-rule="evenodd" d="M208.69 411.065C208.948 407.428 209.148 407.397 215.19 407.819C224.839 408.486 220.513 414.378 222.852 414.529C224.004 414.618 223.879 412.862 223.879 412.177L224.039 406.957C224.051 406.826 224.037 406.693 223.997 406.567C223.958 406.441 223.893 406.324 223.807 406.224C223.721 406.124 223.616 406.042 223.498 405.983C223.38 405.924 223.251 405.889 223.119 405.881C218.719 405.581 215.253 405.543 211.7 405.303C204.052 404.756 200.472 404.303 198.422 404.151C197.715 404.111 197.288 404.502 197.261 404.969C197.11 407.081 202.873 405.792 202.544 410.523L200.825 435.149C200.376 441.561 196.783 438.462 196.605 440.876C196.578 441.192 196.872 441.485 197.517 441.521C200.269 441.712 202.382 441.659 203.929 441.761C206.429 441.939 209.412 442.361 217.011 442.886C221.111 443.179 224.361 439.071 224.65 434.962C224.717 433.962 224.37 433.784 224.179 433.77C222.271 433.632 222.498 440.57 210.096 439.711C206.508 439.462 206.832 437.577 207.063 434.317L207.53 427.576C207.743 424.53 207.592 423.885 209.896 424.036L213.587 424.303C218.787 424.672 216.998 430.141 218.594 430.257C219.794 430.346 219.63 428.421 219.63 427.74L219.93 418.34C219.99 416.931 219.426 416.993 219.074 416.971C218.074 416.895 217.58 421.733 213.28 421.435L210.132 421.204C207.984 421.057 208.011 420.688 208.175 418.42L208.69 411.065Z" fill="#50565B"/>
<path fill-rule="evenodd" clip-rule="evenodd" d="M235.418 436.388C235.885 441.737 231.007 441.217 231.198 443.316C231.269 444.216 232.243 443.858 232.798 443.81C234.141 443.699 235.47 443.37 237.076 443.227C238.819 443.076 240.522 443.143 242.976 442.927C243.625 442.878 244.876 442.816 244.808 442.082C244.595 439.614 238.508 443.736 237.64 433.647L236.072 415.783C236.036 415.312 236.099 414.934 236.405 414.907C236.645 414.885 236.974 415.125 237.357 415.516L263.766 440.737C263.913 440.954 264.117 441.126 264.355 441.236C264.594 441.346 264.857 441.389 265.118 441.36C265.718 441.307 265.687 440.875 265.585 439.728L263.005 410.255C262.525 404.732 266.874 405.63 266.736 404.047C266.723 403.896 266.669 403.367 265.718 403.447C265.282 403.496 263.548 403.847 260.4 404.127C256.963 404.427 255.5 404.354 254.7 404.42C254.586 404.426 254.474 404.457 254.373 404.511C254.272 404.564 254.184 404.64 254.115 404.731C254.046 404.823 253.999 404.928 253.975 405.041C253.952 405.153 253.954 405.268 253.98 405.38C254.131 407.11 260.139 405.633 260.552 410.409L262.08 427.908C262.191 429.224 262.16 429.869 261.853 429.896C261.546 429.923 260.893 429.34 260.186 428.669L238.099 407.245C237.112 406.325 237.681 405.907 236.071 406.045C233.434 406.276 232.158 406.601 230.855 406.716C229.903 406.792 228.996 406.667 228.045 406.752C227.927 406.753 227.81 406.781 227.704 406.833C227.597 406.884 227.504 406.959 227.43 407.051C227.356 407.144 227.303 407.251 227.276 407.366C227.248 407.481 227.247 407.601 227.271 407.717C227.49 410.229 232.786 406.325 233.655 416.423L235.418 436.388Z" fill="#50565B"/>
<path fill-rule="evenodd" clip-rule="evenodd" d="M297.394 395.985C297.305 395.732 296.963 395.785 296.727 395.86C296.051 396.06 296.509 397.745 295.602 398.021C294.17 398.461 289.528 396.505 283.743 398.288C271.663 401.976 270.136 414.631 272.728 423.097C273.942 427.086 280.047 439.336 294.081 435.036C304.299 431.923 307.043 422.745 306.416 420.736C306.331 420.436 305.825 420.318 305.584 420.385C304.335 420.776 303.094 428.376 295.672 430.635C286.521 433.441 279.633 424.619 277.454 417.513C275.396 410.762 277.113 402.505 284.156 400.357C289.719 398.663 295.281 401.744 299.15 405.871C299.697 406.413 300.35 407.371 301.111 407.143C301.934 406.894 301.387 405.796 301.191 405.302L297.394 395.985Z" fill="#50565B"/>
<path fill-rule="evenodd" clip-rule="evenodd" d="M311.832 392.823C309.48 388.399 313.691 388.296 312.846 386.718C312.539 386.158 312.277 386.184 310.946 386.891C308.429 388.234 306.935 389.257 305.346 390.119C303.79 390.937 301.971 391.658 300.246 392.578C299.855 392.796 298.663 393.236 299.094 394.032C299.952 395.664 304.265 391.711 306.515 395.944L318.396 418.298C320.744 422.722 316.915 423.198 317.787 424.83C317.813 424.906 317.856 424.975 317.912 425.032C317.968 425.09 318.036 425.134 318.111 425.163C318.186 425.191 318.266 425.203 318.346 425.198C318.426 425.192 318.504 425.169 318.574 425.13C319.717 424.521 321.518 423.316 323.425 422.306C326.88 420.474 328.605 419.789 330.251 418.918C331.265 418.376 331.567 417.984 331.292 417.464C330.505 415.974 326.692 420.75 323.639 415.036L311.832 392.823Z" fill="#50565B"/>
<path fill-rule="evenodd" clip-rule="evenodd" d="M25.027 208.022C22.034 206.581 22.475 204.874 21.261 204.754C20.361 204.661 20.469 205.265 20.376 206.154C20.265 207.341 20.349 208.546 20.238 209.72C20.113 210.947 19.78 212.103 19.655 213.32C19.606 213.827 19.326 215.041 20.326 215.143C22.171 215.321 20.642 210.87 25.6 211.359C27.7315 211.658 29.7947 212.325 31.697 213.332L47.136 220.713C47.501 220.882 48.221 221.113 48.194 221.371C48.167 221.629 47.411 221.762 47.02 221.851L29.505 225.635C27.0753 226.273 24.5684 226.568 22.057 226.511C19.857 226.289 20.896 223.839 19.478 223.696C18.584 223.607 18.611 223.825 18.464 225.168C18.406 225.848 18.491 227.085 18.228 229.793C18.077 231.22 17.721 232.639 17.583 234.031C17.521 234.658 16.974 235.925 18.241 236.05C18.61 236.09 18.975 235.57 19.033 235.45C19.744 233.778 20.376 233.244 22.515 232.729L54.233 225.3C56.523 224.762 57.092 224.4 57.133 223.97C57.177 223.512 56.893 223.27 55.563 222.663L25.027 208.022Z" fill="#50565B"/>
<path fill-rule="evenodd" clip-rule="evenodd" d="M50.114 204.647C55.348 205.852 53.514 209.587 55.574 210.059C56.45 210.259 56.374 209.379 56.486 208.93C56.739 207.818 56.786 206.662 57.086 205.342C57.419 203.906 57.949 202.558 58.416 200.542C58.541 200.004 58.816 198.995 58.116 198.826C55.688 198.266 57.978 204.335 48.102 202.059L30.628 198.021C30.174 197.921 29.828 197.754 29.881 197.501C29.934 197.301 30.25 197.11 30.735 196.923L62.013 183.321C62.489 183.121 62.845 182.992 62.987 182.421C63.098 181.927 62.68 181.83 61.555 181.567L32.732 174.908C27.332 173.658 29.366 170.457 27.823 170.092C27.672 170.061 27.156 169.941 26.978 170.723C26.885 171.092 26.765 172.582 26.169 175.17C25.511 178.007 25.026 179.15 24.879 179.808C24.763 180.346 25.244 180.586 25.599 180.666C27.293 181.057 27.533 175.833 32.211 176.909L49.311 180.862C50.601 181.155 51.196 181.382 51.147 181.627C51.098 181.872 50.347 182.227 49.515 182.596L23.029 193.886C21.891 194.402 21.638 193.829 21.338 195.145C20.849 197.328 20.796 198.445 20.56 199.507C20.369 200.285 20.004 200.979 19.813 201.766C19.697 202.255 20.062 202.557 20.533 202.66C22.996 203.229 20.724 197.86 30.582 200.13L50.114 204.647Z" fill="#50565B"/>
<path fill-rule="evenodd" clip-rule="evenodd" d="M36.527 160.333C31.774 158.781 34.557 156.362 32.85 155.806C32.241 155.606 32.076 155.784 31.685 156.98C30.938 159.27 30.676 160.78 30.204 162.223C29.75 163.633 29.043 165.123 28.537 166.692C28.412 167.052 27.937 168.008 28.79 168.284C30.546 168.853 30.609 163.86 35.184 165.349L59.258 173.171C64.029 174.718 61.775 177.186 63.531 177.755C63.784 177.835 64.162 177.866 64.278 177.506C64.616 176.465 64.972 174.678 65.541 172.948C66.555 169.822 67.235 168.399 67.733 166.918C68.022 165.993 67.933 165.566 67.386 165.388C65.781 164.863 66.635 170.101 60.463 168.105L36.527 160.333Z" fill="#50565B"/>
<path fill-rule="evenodd" clip-rule="evenodd" d="M48.395 130.344C46.02 128.044 46.968 126.56 45.856 126.071C45.029 125.702 44.944 126.311 44.58 127.12C44.095 128.201 43.806 129.361 43.326 130.442C42.832 131.563 42.165 132.554 41.654 133.675C41.454 134.137 40.809 135.187 41.734 135.596C43.415 136.352 43.361 131.656 47.893 133.679C49.8169 134.617 51.5577 135.891 53.033 137.441L65.333 149.241C65.618 149.508 66.227 149.966 66.111 150.193C65.995 150.42 65.253 150.318 64.875 150.277L47.118 148.384C44.6237 148.231 42.1631 147.73 39.808 146.894C37.785 145.994 39.546 143.994 38.243 143.421C37.42 143.052 37.38 143.27 36.838 144.506C36.562 145.12 36.26 146.325 35.157 148.788C34.579 150.104 33.792 151.333 33.236 152.595C32.969 153.178 32.062 154.2 33.209 154.716C33.551 154.863 34.067 154.494 34.161 154.405C35.344 153.04 36.118 152.733 38.296 152.911L70.602 155.801C72.932 156.001 73.59 155.828 73.764 155.45C73.942 155.023 73.737 154.707 72.679 153.72L48.395 130.344Z" fill="#50565B"/>
<path fill-rule="evenodd" clip-rule="evenodd" d="M57.271 119.401C54.212 117.422 54.261 117.244 57.04 112.967C61.478 106.141 64.857 112.26 65.94 110.597C66.46 109.779 64.895 109.01 64.299 108.672L59.821 105.972C59.6261 105.823 59.3805 105.757 59.1372 105.788C58.8939 105.819 58.6725 105.944 58.521 106.137C56.498 109.245 55.097 111.807 53.465 114.314C49.952 119.735 48.116 122.167 47.173 123.614C47.1009 123.712 47.0499 123.823 47.0233 123.942C46.9967 124.06 46.995 124.183 47.0184 124.302C47.0419 124.421 47.0898 124.534 47.1593 124.634C47.2288 124.734 47.3183 124.818 47.422 124.881C49.192 126.033 50.366 121.115 54.35 123.694L75.057 137.139C80.446 140.647 76.311 141.786 78.343 143.102C78.61 143.275 78.979 143.202 79.263 142.746C80.53 140.798 81.326 139.198 82.038 138.108C83.185 136.338 84.738 134.324 88.232 128.943C90.117 126.043 87.85 121.602 84.39 119.356C83.554 118.814 83.265 118.978 83.172 119.116C82.287 120.463 88.41 123.732 82.723 132.505C81.064 135.053 79.561 133.875 76.818 132.105L71.153 128.419C68.583 126.752 67.965 126.551 69.027 124.919L70.717 122.3C73.117 118.623 77.16 122.656 77.889 121.531C78.449 120.677 76.715 119.859 76.119 119.521L68.079 114.656C66.865 113.913 66.701 114.363 66.536 114.603C66.078 115.31 70.076 118.067 68.106 121.108L66.662 123.341C65.662 124.857 65.362 124.657 63.452 123.421L57.271 119.401Z" fill="#50565B"/>
<path fill-rule="evenodd" clip-rule="evenodd" d="M109.827 99.116C110.801 99.952 111.036 100.299 112.05 99.863C114.367 98.814 116.83 98.4 118.804 96.746C123.037 93.189 123.004 87.106 118.551 81.81C114.251 76.683 110.663 76.732 105.602 77.737C99.27 78.991 97.056 79.951 94.779 77.248C92.502 74.545 92.685 71.783 94.806 69.996C100.369 65.327 107.159 72.437 107.906 71.815C108.617 71.215 108.306 70.65 107.506 69.815L102.597 64.701C101.752 63.821 101.347 63.136 100.854 63.54C100.436 63.891 100.169 65.216 99.754 65.572C98.78 66.381 96.099 65.95 93.454 68.172C89.679 71.342 89.928 76.91 93.836 81.548C97.389 85.799 100.626 85.772 104.699 84.976C112.307 83.476 114.771 82.299 117.657 85.723C120.374 88.96 120.057 92.523 117.541 94.643C113.953 97.649 108.866 95.661 104.566 92.643C104.001 92.229 103.632 91.918 103.116 92.354C102.307 93.03 103.61 93.928 104.188 94.417L109.827 99.116Z" fill="#50565B"/>
<path fill-rule="evenodd" clip-rule="evenodd" d="M115.337 59.1889C112.464 55.0799 116.151 54.8269 115.124 53.3549C114.755 52.8349 114.524 52.8659 113.492 53.5999C111.522 54.9779 110.397 56.0229 109.152 56.8859C107.943 57.7349 106.475 58.5089 105.123 59.4559C104.823 59.6689 103.86 60.1499 104.376 60.8829C105.425 62.3949 108.485 58.4509 111.242 62.3829L125.769 83.1209C128.637 87.2209 125.369 87.8349 126.423 89.3549C126.574 89.5729 126.859 89.8219 127.17 89.6079C128.07 88.9769 129.433 87.7629 130.914 86.7219C133.604 84.8369 135.014 84.1069 136.286 83.2139C137.086 82.6629 137.273 82.2669 136.944 81.7959C135.975 80.4129 133.493 85.1089 129.776 79.7959L115.337 59.1889Z" fill="#50565B"/>
<path fill-rule="evenodd" clip-rule="evenodd" d="M262.055 27.255C262.473 24.916 263.322 23.991 265.194 24.32C271.628 25.458 270.668 33.107 270.388 34.449C270.108 35.791 268.707 41.59 263.674 40.705C263.026 40.5337 262.391 40.3169 261.774 40.056C261.274 39.963 261.08 40.572 261.023 40.932C260.983 41.15 260.956 42.484 265.029 43.195C269.969 44.067 274.536 40.807 275.683 34.306C277.026 26.729 272.321 23.22 266.983 22.385C264.022 21.918 261.042 21.554 260.464 21.451C257.316 20.891 255.064 20.286 254.764 20.237C253.764 20.059 253.474 20.704 253.43 21.015C253.083 22.94 257.788 21.571 256.814 27.076L252.788 49.928C251.65 56.42 248.528 54.695 248.261 56.202C248.227 56.313 248.221 56.4307 248.243 56.5447C248.264 56.6588 248.313 56.7658 248.386 56.8568C248.458 56.9477 248.551 57.0198 248.657 57.0669C248.763 57.1139 248.879 57.1345 248.995 57.127C249.235 57.176 252.477 57.536 254.144 57.827C255.051 57.992 256.844 58.521 259.756 59.032C260.334 59.132 260.73 59.312 260.89 58.432C261.21 56.609 256.67 57.841 257.808 51.348L262.055 27.255Z" fill="#50565B"/>
<path fill-rule="evenodd" clip-rule="evenodd" d="M299.418 51.438C296.572 59.722 292.032 65.638 285.118 63.417C277.937 61.109 278.999 49.824 281.518 42.54C284.008 35.31 288.37 29.111 295.16 31.285C300.34 32.957 303.222 40.418 299.42 51.437M297.092 29.556C287.518 26.368 279.392 32.775 275.619 43.696C272.146 53.817 275.205 62.403 283.219 65.169C295.954 69.544 302.593 58.169 304.994 51.184C308.631 40.614 304.901 32.135 297.094 29.555" fill="#50565B"/>
<path fill-rule="evenodd" clip-rule="evenodd" d="M320.418 44.8411C322.223 41.2751 324.011 44.3741 324.918 42.5821C325.207 42.0171 325.042 41.882 324.26 41.475C322.778 40.8904 321.327 40.2316 319.911 39.501C318.479 38.772 316.398 37.469 314.891 36.701C314.108 36.301 313.499 36.4651 313.286 36.8831C312.454 38.5331 317.346 39.426 315.314 43.42L303.983 65.6521C301.057 71.3881 299.492 67.3951 298.394 69.5521C298.256 69.8321 298.354 70.183 298.848 70.432C300.907 71.486 302.592 72.104 303.748 72.695C305.633 73.647 307.794 74.989 313.508 77.9021C316.585 79.4761 320.765 76.746 322.637 73.086C323.095 72.192 322.89 71.917 322.748 71.841C321.321 71.112 318.706 77.5411 309.39 72.7881C306.682 71.4141 307.696 69.788 309.177 66.878L320.418 44.8411Z" fill="#50565B"/>
<path fill-rule="evenodd" clip-rule="evenodd" d="M343.198 59.089C346.004 54.936 347.556 58.28 348.574 56.789C348.925 56.273 348.814 56.064 347.751 55.357C345.763 54.01 344.389 53.338 343.118 52.489C341.908 51.657 340.659 50.568 339.294 49.648C338.978 49.43 338.194 48.714 337.684 49.457C336.661 50.987 341.441 52.427 338.747 56.407L324.598 77.396C321.798 81.54 320.036 78.712 319.017 80.242C318.861 80.455 318.717 80.811 319.035 81.025C319.947 81.639 321.583 82.479 323.073 83.488C325.803 85.333 326.982 86.388 328.285 87.254C329.076 87.801 329.521 87.832 329.837 87.354C330.784 85.954 325.51 85.317 329.143 79.937L343.198 59.089Z" fill="#50565B"/>
<path fill-rule="evenodd" clip-rule="evenodd" d="M341.617 88.5921C337.753 93.5411 335.565 88.6101 334.289 90.2281C333.578 91.1351 334.169 91.5441 334.765 92.0111C336.108 93.0471 337.331 93.7411 339.559 95.4841C341.787 97.2271 342.743 98.245 344.086 99.284C345.047 100.04 345.611 100.684 346.386 99.6841C347.298 98.5191 342.099 96.3931 346.097 91.284L360.775 72.5011C362.327 70.5011 362.834 70.553 364.186 71.621L367.023 73.827C370.976 76.646 366.303 80.4351 367.623 81.475C368.495 82.146 369.393 80.2391 369.723 79.6961L372.338 75.5831C372.632 75.1431 373.085 74.5601 372.592 74.1691C369.497 71.7541 367.14 70.169 362.292 66.383C357.444 62.597 355.337 60.683 352.243 58.272C351.743 57.881 351.291 58.472 350.943 58.85L346.114 63.9191C345.629 64.4081 344.722 65.1641 345.42 65.7071C346.905 66.8851 350.169 60.6601 353.926 63.5991L356.718 65.773C358.07 66.84 358.248 67.3121 356.696 69.3041L341.617 88.5921Z" fill="#50565B"/>
<path fill-rule="evenodd" clip-rule="evenodd" d="M377.945 89.065C380.613 86.584 380.764 86.673 384.245 90.408C389.808 96.362 383.045 98.159 384.396 99.608C385.054 100.324 386.196 98.977 386.659 98.483L390.359 94.797C390.456 94.7225 390.536 94.6294 390.596 94.5232C390.656 94.4171 390.695 94.3 390.709 94.1788C390.723 94.0577 390.712 93.9349 390.678 93.8178C390.644 93.7007 390.587 93.5916 390.51 93.497C387.984 90.785 385.845 88.797 383.796 86.605C379.396 81.883 377.486 79.521 376.296 78.254C376.219 78.1607 376.123 78.0844 376.015 78.03C375.907 77.9756 375.789 77.9443 375.668 77.938C375.547 77.9317 375.427 77.9505 375.313 77.9934C375.2 78.0363 375.097 78.1022 375.011 78.187C373.464 79.623 377.955 81.958 374.477 85.195L356.425 102.036C351.725 106.42 351.618 102.129 349.853 103.788C349.622 104.001 349.6 104.371 349.977 104.766C351.556 106.466 352.907 107.616 353.806 108.572C355.247 110.115 356.816 112.112 361.188 116.803C363.558 119.333 368.409 118.208 371.415 115.398C372.153 114.718 372.064 114.389 371.949 114.268C370.86 113.099 366.208 118.243 359.08 110.582C357.008 108.372 358.497 107.194 360.899 104.961L365.83 100.361C368.067 98.271 368.422 97.715 369.73 99.138L371.873 101.419C374.857 104.625 369.961 107.578 370.881 108.565C371.575 109.303 372.793 107.827 373.26 107.329L379.934 100.703C380.948 99.703 380.534 99.44 380.352 99.222C379.77 98.604 376.141 101.822 373.664 99.169L371.845 97.221C370.604 95.9 370.88 95.647 372.539 94.099L377.945 89.065Z" fill="#50565B"/>
<path fill-rule="evenodd" clip-rule="evenodd" d="M409.181 121.786C409.394 121.644 409.274 121.368 409.154 121.186C408.829 120.692 407.362 121.635 406.904 120.973C406.197 119.924 407.055 115.432 404.204 111.199C398.263 102.39 386.159 105.294 378.818 110.252C375.364 112.59 365.218 121.706 372.136 131.964C377.17 139.408 386.272 138.664 388.015 137.487C388.127 137.387 388.202 137.253 388.229 137.106C388.256 136.958 388.234 136.806 388.166 136.673C387.552 135.761 380.215 137.247 376.56 131.822C372.06 125.143 378.823 116.503 384.995 112.346C390.851 108.397 398.895 107.099 402.355 112.246C405.099 116.301 403.364 121.946 400.345 126.529C399.945 127.156 399.193 128.019 399.571 128.574C399.971 129.174 400.871 128.356 401.292 128.018L409.181 121.786Z" fill="#50565B"/>
<path fill-rule="evenodd" clip-rule="evenodd" d="M388.055 142.607C383.173 144.884 382.328 140.807 380.416 141.707C379.616 142.085 380.203 142.734 380.394 143.161C380.874 144.188 381.541 145.135 382.115 146.361C382.746 147.704 383.164 149.087 384.036 150.961C384.263 151.461 384.667 152.433 385.33 152.126C387.576 151.081 382.048 147.693 391.217 143.419L407.474 135.842C407.905 135.642 408.274 135.557 408.386 135.789C408.475 135.98 408.337 136.318 408.086 136.772L391.799 166.748C391.546 167.197 391.341 167.513 391.599 168.055C391.817 168.513 392.199 168.335 393.244 167.842L420.071 155.342C425.078 153.003 425.456 156.787 426.883 156.12C427.025 156.049 427.506 155.831 427.176 155.102C427.011 154.76 426.189 153.51 425.076 151.102C423.835 148.465 423.511 147.265 423.231 146.651C422.986 146.151 422.457 146.269 422.131 146.415C420.552 147.158 423.585 151.426 419.241 153.45L403.316 160.86C402.124 161.42 401.506 161.611 401.408 161.38C401.31 161.149 401.661 160.424 402.102 159.615L416.002 134.415C416.584 133.299 417.14 133.606 416.571 132.383C415.624 130.355 414.966 129.453 414.499 128.457C414.17 127.732 414.032 126.957 413.699 126.225C413.486 125.767 412.999 125.754 412.574 125.954C410.288 127.03 415.393 129.863 406.215 134.136L388.055 142.607Z" fill="#50565B"/>
<path fill-rule="evenodd" clip-rule="evenodd" d="M425.717 170.434C430.484 168.887 429.652 172.484 431.36 171.928C431.96 171.728 432 171.497 431.609 170.296C430.862 168.006 430.195 166.632 429.724 165.187C429.275 163.777 428.968 162.145 428.448 160.587C428.337 160.222 428.159 159.173 427.31 159.449C425.554 160.018 428.422 164.105 423.859 165.581L399.789 173.407C395.022 174.954 395.389 171.642 393.63 172.207C393.381 172.296 393.061 172.487 393.176 172.852C393.518 173.888 394.276 175.552 394.83 177.276C395.853 180.406 396.137 181.954 396.613 183.444C396.913 184.364 397.236 184.662 397.791 184.484C399.383 183.959 395.625 180.215 401.784 178.214L425.717 170.434Z" fill="#50565B"/>
<path fill-rule="evenodd" clip-rule="evenodd" d="M436.986 201.782C437.248 201.738 437.248 201.435 437.213 201.231C437.113 200.653 435.394 200.906 435.239 200.119C435.026 198.869 437.631 195.112 436.739 190.083C434.894 179.616 422.656 177.361 413.932 178.9C409.832 179.62 396.866 183.836 399.013 196.011C400.569 204.86 409.191 207.884 411.268 207.519C411.41 207.473 411.533 207.38 411.617 207.256C411.701 207.132 411.741 206.983 411.731 206.834C411.544 205.753 404.252 204.126 403.113 197.687C401.703 189.754 411.406 184.614 418.725 183.32C425.688 182.093 433.555 184.178 434.631 190.283C435.489 195.108 431.607 199.559 426.992 202.516C426.361 202.925 425.324 203.405 425.449 204.077C425.565 204.777 426.739 204.406 427.249 204.268L436.986 201.782Z" fill="#50565B"/>
<path fill-rule="evenodd" clip-rule="evenodd" d="M135.087 334.678C133.735 335.701 133.66 335.638 132.05 333.5C129.471 330.089 132.81 329.734 132.192 328.9C131.885 328.491 131.303 329.073 131.054 329.278L129.168 330.822C129.119 330.856 129.078 330.899 129.046 330.95C129.013 331 128.992 331.056 128.981 331.114C128.971 331.173 128.972 331.233 128.985 331.291C128.998 331.349 129.023 331.404 129.057 331.453C130.231 333.009 131.231 334.17 132.179 335.424C134.216 338.124 135.1 339.466 135.643 340.186C135.675 340.238 135.716 340.283 135.766 340.319C135.815 340.354 135.871 340.379 135.931 340.392C135.99 340.406 136.052 340.407 136.111 340.396C136.171 340.385 136.228 340.362 136.279 340.328C137.057 339.728 134.923 338.203 136.693 336.873L145.893 329.95C148.281 328.14 148.232 330.292 149.144 329.608C149.26 329.508 149.277 329.328 149.104 329.101C148.37 328.127 147.739 327.447 147.321 326.901C146.654 326.016 145.929 324.896 143.906 322.201C142.806 320.76 140.42 320.925 138.877 322.076C138.512 322.365 138.543 322.534 138.597 322.61C139.104 323.281 141.492 321.089 144.797 325.478C145.753 326.754 144.997 327.208 143.783 328.133L141.268 330.026C140.116 330.884 139.938 331.126 139.329 330.315L138.342 329.003C136.955 327.167 139.405 326.09 138.978 325.521C138.662 325.107 138.04 325.734 137.786 325.952L134.386 328.709C133.87 329.127 134.061 329.292 134.146 329.416C134.413 329.767 136.263 328.469 137.41 329.985L138.246 331.097C138.829 331.857 138.686 331.96 137.846 332.597L135.087 334.678Z" fill="#50565B"/>
<path fill-rule="evenodd" clip-rule="evenodd" d="M139.303 319.544C140.922 319.517 141.603 320.558 142.06 320.211C142.34 320.002 142.087 319.784 141.798 319.419C141.38 318.85 140.873 318.33 140.428 317.747C140.05 317.253 139.761 316.698 139.103 315.839C138.845 315.497 138.681 315.439 138.52 315.55C137.84 316.079 139.569 317.266 138.52 318.05C137.958 318.34 137.333 318.488 136.701 318.481L133.473 318.632C133.072 318.686 132.667 318.695 132.264 318.659C132.319 318.289 132.433 317.93 132.602 317.596L133.932 314.079C134.062 313.586 134.341 313.144 134.732 312.816C135.479 312.247 135.946 313.425 136.532 312.981C136.843 312.741 136.608 312.514 136.421 312.261C136.012 311.718 135.532 311.161 134.811 310.291C134.153 309.451 133.926 308.948 133.624 308.543C133.082 307.823 132.89 307.658 132.637 307.849C132.206 308.178 133.055 308.949 132.081 311.449L129.803 317.397C129.554 318.051 129.474 318.42 129.172 318.633C128.718 318.775 128.241 318.827 127.767 318.784L123.191 318.922C120.345 319.022 119.843 317.622 119.391 317.966C119.173 318.131 119.151 318.295 119.378 318.593C120.018 319.465 120.503 319.936 120.903 320.469C121.272 320.958 121.592 321.527 122.203 322.363C122.227 322.416 122.264 322.462 122.31 322.497C122.355 322.533 122.409 322.557 122.466 322.568C122.523 322.579 122.582 322.576 122.637 322.56C122.693 322.543 122.744 322.514 122.786 322.474C123.271 322.123 122.012 320.958 122.875 320.3C123.231 320.038 123.622 319.935 124.845 319.9L128.007 319.8C128.307 319.787 128.692 319.724 128.794 319.849C128.878 319.978 128.767 320.227 128.678 320.432L126.903 324.4C126.789 324.672 126.623 324.92 126.414 325.129C125.698 325.663 125.014 324.587 124.542 324.956C124.435 325.027 124.289 325.121 124.573 325.512C124.947 325.992 125.333 326.344 126.347 327.7C127.356 329.038 127.712 329.67 128.041 330.115C128.281 330.431 128.432 330.457 128.624 330.315C129.358 329.759 127.775 329.483 129.456 325.415L131.244 321.106C131.395 320.627 131.61 320.171 131.884 319.75C132.269 319.654 132.667 319.62 133.062 319.65L139.303 319.544Z" fill="#50565B"/>
<path fill-rule="evenodd" clip-rule="evenodd" d="M206.062 93.835C206.716 93.8347 207.364 93.9633 207.968 94.2135C208.572 94.4637 209.121 94.8305 209.584 95.293C210.046 95.7555 210.413 96.3046 210.663 96.9089C210.914 97.5132 211.042 98.1609 211.042 98.815C211.042 99.469 210.914 100.117 210.663 100.721C210.413 101.325 210.046 101.874 209.584 102.337C209.121 102.799 208.572 103.166 207.968 103.416C207.364 103.667 206.716 103.795 206.062 103.795C204.742 103.793 203.476 103.268 202.542 102.335C201.609 101.401 201.084 100.135 201.082 98.815C201.084 97.4947 201.609 96.2289 202.542 95.2953C203.476 94.3617 204.742 93.8365 206.062 93.835Z" fill="#50565B"/>
<path fill-rule="evenodd" clip-rule="evenodd" d="M161.245 103.799C162.565 103.801 163.831 104.326 164.765 105.259C165.698 106.193 166.223 107.459 166.225 108.779C166.224 110.1 165.7 111.367 164.766 112.302C163.832 113.236 162.566 113.762 161.245 113.764C160.591 113.764 159.943 113.635 159.338 113.385C158.733 113.134 158.184 112.767 157.722 112.304C157.259 111.841 156.892 111.291 156.642 110.686C156.392 110.082 156.264 109.433 156.265 108.779C156.265 108.125 156.393 107.477 156.644 106.873C156.894 106.269 157.261 105.719 157.723 105.257C158.186 104.794 158.735 104.428 159.339 104.177C159.943 103.927 160.591 103.799 161.245 103.799Z" fill="#50565B"/>
<path d="M308.91 122.653C307.705 125.512 306.424 125.944 301.698 125.112C297.754 124.418 297.852 119.238 298.07 117.046L291.431 115.116C288.585 120.799 285.21 121.11 282.587 120.745C277.82 120.091 277.576 112.181 277.86 107.525L271.03 106.142C267.722 115.502 266.23 116.942 262.07 117.708C261.146 117.818 260.208 117.694 259.345 117.345C258.481 116.997 257.719 116.437 257.13 115.716C255.696 114.119 254.835 112.09 254.684 109.949C254.864 108.928 254.974 107.895 255.013 106.859L248.113 105.792C247.795 106.971 247.633 108.186 247.633 109.407C247.223 111.846 245.988 114.07 244.133 115.707C243.622 116.109 243.02 116.381 242.38 116.5C241.741 116.618 241.082 116.58 240.46 116.387C237.138 115.508 232.738 112.822 232.738 99.6949H225.703C225.703 100.095 225.716 100.482 225.725 100.873H225.703C225.703 110.318 223.395 114.956 217.997 116.383C217.324 116.564 216.617 116.575 215.94 116.414C215.262 116.253 214.635 115.927 214.115 115.463C212.272 113.813 211.05 111.581 210.651 109.14C210.668 108.118 210.586 107.096 210.406 106.09L203.429 106.61C203.402 107.595 203.457 108.582 203.594 109.558C203.442 112.013 202.443 114.339 200.766 116.139C200.23 116.753 199.546 117.219 198.778 117.494C198.011 117.769 197.186 117.843 196.382 117.709C192.158 116.935 190.072 115.023 186.817 105.845L180 107.228C180.289 112.093 180.12 120.337 175.7 120.942C173.237 121.284 170.288 120.755 167.02 114.232L160.378 116.166C160.827 120.63 159.093 124.93 156.578 125.553C152.108 126.675 152.108 126.675 150.038 123.098L149.438 122.075L143.377 125.637L143.951 126.624C147.161 132.169 149.625 134.543 158.274 132.378C162.147 131.413 164.757 128.452 166.18 124.783C167.583 126.051 169.253 126.99 171.065 127.531C172.878 128.072 174.789 128.201 176.658 127.909C180.135 127.429 183.964 125.409 185.88 119.438C188.218 122.238 191.503 124.081 195.111 124.618C197.034 124.966 199.014 124.827 200.87 124.214C202.726 123.601 204.4 122.534 205.738 121.11C206.429 120.416 207.053 119.658 207.601 118.847C208.236 119.624 208.95 120.334 209.731 120.964C211.11 122.109 212.744 122.907 214.494 123.292C216.245 123.676 218.063 123.636 219.795 123.175C221.767 122.7 223.626 121.842 225.266 120.647C226.906 119.453 228.294 117.947 229.351 116.216C230.361 117.935 231.704 119.436 233.301 120.631C234.898 121.826 236.716 122.691 238.651 123.175C240.291 123.64 242.017 123.718 243.692 123.402C245.367 123.086 246.947 122.386 248.305 121.356C249.215 120.67 250.037 119.874 250.751 118.986C251.122 119.504 251.522 120.001 251.948 120.475C253.328 122.089 255.103 123.318 257.098 124.044C259.094 124.771 261.243 124.968 263.338 124.619C266.809 124.138 269.976 122.381 272.222 119.692C274.432 125.619 278.665 127.305 281.622 127.714C283.457 128.011 285.333 127.941 287.141 127.509C288.949 127.077 290.653 126.291 292.156 125.197C292.825 126.963 293.944 128.524 295.403 129.724C296.862 130.923 298.609 131.721 300.471 132.036C304.131 132.681 311.748 134.024 315.381 125.375L308.91 122.653Z" fill="#50565B"/>
<path fill-rule="evenodd" clip-rule="evenodd" d="M251.79 94.1281C252.444 94.1278 253.092 94.2564 253.696 94.5066C254.3 94.7568 254.849 95.1236 255.312 95.5861C255.774 96.0486 256.141 96.5977 256.391 97.202C256.642 97.8063 256.77 98.454 256.77 99.108C256.77 99.7621 256.642 100.41 256.391 101.014C256.141 101.618 255.774 102.168 255.312 102.63C254.849 103.093 254.3 103.459 253.696 103.71C253.092 103.96 252.444 104.088 251.79 104.088C250.469 104.088 249.203 103.563 248.269 102.629C247.335 101.695 246.81 100.429 246.81 99.108C246.81 97.7874 247.335 96.5208 248.269 95.587C249.203 94.6531 250.469 94.1283 251.79 94.1281Z" fill="#50565B"/>
<path fill-rule="evenodd" clip-rule="evenodd" d="M297.205 103.213C297.859 103.213 298.507 103.341 299.112 103.591C299.717 103.841 300.266 104.208 300.729 104.67C301.192 105.133 301.559 105.682 301.81 106.286C302.061 106.891 302.19 107.539 302.19 108.193C302.19 108.847 302.061 109.495 301.81 110.1C301.559 110.704 301.192 111.253 300.729 111.716C300.266 112.178 299.717 112.545 299.112 112.795C298.507 113.045 297.859 113.173 297.205 113.173C295.884 113.173 294.618 112.648 293.684 111.714C292.75 110.78 292.225 109.514 292.225 108.193C292.225 106.872 292.75 105.606 293.684 104.672C294.618 103.738 295.884 103.213 297.205 103.213Z" fill="#50565B"/>
<path fill-rule="evenodd" clip-rule="evenodd" d="M161.346 147.284L166.629 142.201L173.129 144.656L168.129 149.699L161.346 147.284Z" fill="#50565B"/>
<path d="M149.651 143.293C179.737 133.684 197.657 130.913 229.551 130.949C261.74 130.971 279.714 133.741 309.675 143.293C309.675 143.293 312.161 143.947 313.103 140.993C313.422 140.268 313.454 139.449 313.191 138.702C312.928 137.954 312.391 137.335 311.689 136.969C281.336 127.289 262.149 124.332 229.559 124.305C197.259 124.274 178.111 127.235 147.629 136.969C146.92 137.316 146.373 137.924 146.101 138.665C145.829 139.406 145.854 140.224 146.17 140.947C146.324 141.718 146.776 142.397 147.429 142.835C148.081 143.274 148.88 143.438 149.652 143.29" fill="#50565B"/>
<path d="M156.061 162.726C158.791 162.152 161.588 161.512 164.545 160.832C179.455 157.408 198.006 153.148 229.226 153.121C255.07 153.099 272.599 156.621 294.796 161.089L303.009 162.73C303.009 162.73 305.526 163.104 306.122 160.106C306.345 159.347 306.283 158.532 305.947 157.815C305.611 157.099 305.025 156.53 304.299 156.215L296.099 154.574C273.541 150.038 255.723 146.454 229.212 146.481C197.245 146.508 178.284 150.856 163.05 154.356C160.129 155.027 157.363 155.663 154.69 156.224C153.969 156.541 153.388 157.11 153.055 157.825C152.723 158.539 152.663 159.35 152.885 160.106C152.963 160.872 153.34 161.575 153.933 162.066C154.526 162.556 155.288 162.793 156.055 162.725" fill="#50565B"/>
<path fill-rule="evenodd" clip-rule="evenodd" d="M201.917 139.591L207.817 135.304L214.394 138.764L208.351 142.984L201.917 139.591Z" fill="#50565B"/>
<path fill-rule="evenodd" clip-rule="evenodd" d="M309.744 151.891C311.044 148.685 309.077 144.376 309.077 144.376C306.72 143.647 302.145 144.034 301.011 147.164C299.784 150.552 301.011 153.314 304.817 155.586C306.727 154.756 308.415 153.489 309.744 151.886" fill="#50565B"/>
<path fill-rule="evenodd" clip-rule="evenodd" d="M297.394 147.284L292.111 142.201L285.611 144.656L290.605 149.699L297.394 147.284Z" fill="#50565B"/>
<path fill-rule="evenodd" clip-rule="evenodd" d="M256.532 139.591L250.627 135.304L244.041 138.764L250.097 142.984L256.532 139.591Z" fill="#50565B"/>
<path fill-rule="evenodd" clip-rule="evenodd" d="M281.196 143.274C281.752 139.761 277.861 137.155 272.583 136.324C267.305 135.493 262.649 136.738 262.093 140.255C261.537 143.772 265.268 146.325 270.542 147.165C275.816 148.005 280.642 146.791 281.196 143.274Z" fill="#50565B"/>
<path fill-rule="evenodd" clip-rule="evenodd" d="M346.79 160.741C347.79 160.141 348.417 160.176 348.924 161.021C350.685 163.951 347.537 166.063 346.941 166.393C346.345 166.723 343.731 168.069 342.365 165.793C342.214 165.478 342.08 165.154 341.965 164.824C341.84 164.597 341.547 164.724 341.382 164.815C341.306 164.868 340.8 165.291 341.911 167.145C343.254 169.391 345.997 170.12 348.79 168.452C352.028 166.486 351.744 163.485 350.244 161.106C349.426 159.776 348.554 158.478 348.399 158.216C347.527 156.78 346.999 155.69 346.918 155.557C346.892 155.488 346.851 155.426 346.799 155.374C346.747 155.322 346.684 155.282 346.615 155.256C346.546 155.231 346.472 155.22 346.399 155.225C346.325 155.23 346.254 155.251 346.189 155.286C345.353 155.786 347.447 157.198 345.089 158.612L335.289 164.499C332.51 166.175 332.089 164.366 331.447 164.757C331.394 164.784 331.348 164.823 331.314 164.871C331.279 164.92 331.256 164.975 331.248 165.034C331.239 165.093 331.244 165.153 331.264 165.209C331.283 165.265 331.315 165.316 331.358 165.357C331.425 165.473 332.385 166.864 332.839 167.62C333.092 168.038 333.497 168.92 334.284 170.235C334.444 170.502 334.506 170.715 334.884 170.488C335.667 170.021 333.684 168.629 336.467 166.953L346.79 160.741Z" fill="#50565B"/>
<path fill-rule="evenodd" clip-rule="evenodd" d="M367.65 215.773C368.068 215.706 368.637 215.635 368.584 215.306C368.535 214.955 367.815 215.013 367.748 214.532C367.663 213.949 369.078 211.882 368.648 208.854C367.874 203.367 361.88 201.926 357.558 202.535C355.521 202.82 349.087 204.723 349.972 211.104C350.51 213.553 351.718 215.804 353.463 217.604C353.614 217.782 353.757 217.786 354.157 217.729C354.526 217.68 355.233 217.516 356.282 217.364C359.582 216.902 358.407 218.605 359.506 218.445C359.759 218.405 359.848 218.263 359.835 218.156C359.719 217.369 359.519 216.622 359.404 215.822C359.253 214.799 359.217 213.781 359.075 212.758C359.026 212.384 359.128 211.664 358.375 211.758C357.401 211.9 359.518 214.244 355.511 214.808C354.017 215.017 351.842 215.253 351.296 211.335C350.796 207.804 355.271 205.625 358.784 205.135C365.298 204.219 367.268 206.869 367.557 208.897C368.357 214.62 362.75 215.416 362.812 215.892C362.879 216.301 363.012 216.417 363.359 216.372L367.65 215.773Z" fill="#50565B"/>
<path fill-rule="evenodd" clip-rule="evenodd" d="M365.575 240.299C367.358 240.481 367.375 240.579 367.091 243.22C366.651 247.44 363.809 245.42 363.703 246.444C363.654 246.944 364.517 246.92 364.859 246.938L367.42 247.125C367.481 247.136 367.543 247.134 367.603 247.12C367.664 247.106 367.72 247.08 367.77 247.043C367.82 247.007 367.862 246.96 367.894 246.907C367.925 246.854 367.946 246.795 367.954 246.734C368.154 244.813 368.207 243.297 368.385 241.74C368.727 238.387 368.994 236.84 369.092 235.94C369.104 235.878 369.103 235.815 369.089 235.754C369.074 235.692 369.048 235.635 369.01 235.585C368.972 235.534 368.925 235.492 368.87 235.462C368.815 235.431 368.755 235.412 368.692 235.406C367.674 235.299 368.23 237.861 365.899 237.616L353.818 236.341C350.67 236.012 352.239 234.496 351.048 234.367C350.897 234.354 350.759 234.467 350.719 234.754C350.595 235.963 350.608 236.884 350.532 237.569C350.421 238.654 350.176 239.957 349.825 243.283C349.647 245.083 351.617 246.596 353.64 246.796C354.125 246.849 354.223 246.707 354.24 246.623C354.329 245.783 350.901 245.734 351.47 240.318C351.648 238.744 352.559 238.926 354.165 239.095L357.465 239.442C358.972 239.607 359.288 239.549 359.186 240.554L359.008 242.173C358.781 244.45 356.1 243.547 356.024 244.245C355.975 244.774 356.909 244.739 357.251 244.752L361.867 245.081C362.574 245.13 362.543 244.881 362.561 244.725C362.597 244.294 360.235 243.978 360.427 242.093L360.578 240.719C360.678 239.781 360.854 239.803 361.965 239.919L365.575 240.299Z" fill="#50565B"/>
<path fill-rule="evenodd" clip-rule="evenodd" d="M350.876 247.872C350.24 247.859 350.04 247.792 349.787 248.312C349.076 249.388 348.519 250.558 348.133 251.789C347.577 254.626 349.458 257.036 352.811 257.694C356.044 258.325 357.411 257.111 359.054 255.035C361.131 252.435 361.686 251.309 363.403 251.651C363.749 251.672 364.086 251.767 364.391 251.931C364.697 252.095 364.963 252.322 365.172 252.599C365.381 252.875 365.528 253.193 365.602 253.532C365.677 253.87 365.677 254.221 365.603 254.559C364.878 258.276 360.076 257.667 359.987 258.174C359.887 258.641 360.196 258.765 360.761 258.832L364.212 259.263C364.812 259.339 365.186 259.476 365.248 259.147C365.301 258.871 364.999 258.247 365.048 257.969C365.172 257.315 366.348 256.604 366.693 254.834C367.182 252.308 365.377 250.174 362.442 249.605C359.761 249.08 358.524 250.161 357.195 251.828C354.705 254.95 354.113 256.252 351.948 255.821C351.525 255.783 351.114 255.656 350.744 255.448C350.373 255.241 350.051 254.957 349.798 254.616C349.544 254.274 349.366 253.883 349.275 253.469C349.183 253.054 349.181 252.624 349.267 252.208C349.716 249.82 352.295 248.931 354.888 248.717C355.23 248.695 355.471 248.695 355.537 248.352C355.648 247.81 354.861 247.885 354.496 247.885L350.876 247.872Z" fill="#50565B"/>
<path fill-rule="evenodd" clip-rule="evenodd" d="M348.47 258.984C347.839 258.884 347.647 258.806 347.332 259.273C346.499 260.264 345.803 261.362 345.26 262.537C344.375 265.281 345.945 267.909 349.182 268.971C352.312 269.985 353.833 268.944 355.714 267.086C358.08 264.76 358.773 263.711 360.432 264.258C360.774 264.319 361.1 264.453 361.385 264.652C361.67 264.851 361.909 265.11 362.084 265.41C362.26 265.71 362.368 266.045 362.401 266.391C362.434 266.737 362.392 267.087 362.277 267.415C361.103 271.021 356.412 269.83 356.247 270.315C356.105 270.777 356.372 270.933 356.927 271.071L360.315 271.92C360.898 272.058 361.253 272.231 361.351 271.929C361.44 271.653 361.213 271.009 361.302 270.729C361.502 270.106 362.756 269.537 363.312 267.816C364.112 265.375 362.583 263.027 359.732 262.102C357.14 261.257 355.779 262.178 354.263 263.685C351.404 266.469 350.657 267.678 348.558 266.998C348.143 266.909 347.752 266.733 347.409 266.482C347.067 266.23 346.782 265.91 346.572 265.541C346.362 265.172 346.232 264.763 346.192 264.34C346.151 263.918 346.2 263.491 346.335 263.089C347.091 260.777 349.759 260.208 352.351 260.31C352.693 260.319 352.934 260.359 353.036 260.017C353.209 259.501 352.436 259.475 352.062 259.426L348.47 258.984Z" fill="#50565B"/>
<path fill-rule="evenodd" clip-rule="evenodd" d="M356.573 277.672C358.89 278.504 357.445 279.744 358.285 280.047C358.574 280.147 358.663 280.074 358.885 279.438C359.299 278.264 359.476 277.495 359.757 276.748C360.006 276.028 360.402 275.258 360.704 274.448C360.766 274.257 361.033 273.777 360.615 273.625C359.757 273.309 359.592 275.888 357.369 275.079L345.662 270.815C343.332 269.97 344.51 268.721 343.662 268.405C343.533 268.365 343.342 268.338 343.28 268.53C343.093 269.059 342.862 269.984 342.537 270.882C341.955 272.487 341.577 273.221 341.292 273.977C341.114 274.457 341.159 274.688 341.425 274.777C342.208 275.066 341.925 272.336 344.925 273.434L356.573 277.672Z" fill="#50565B"/>
<path fill-rule="evenodd" clip-rule="evenodd" d="M354.931 287.532C354.019 290.213 350.266 291.703 344.868 289.746C340.822 288.265 337.968 285.913 339.19 282.333C340.471 278.616 346.042 279.163 349.6 280.465C353.14 281.755 356.137 284.018 354.932 287.531M349.141 277.42C344.187 275.62 339.87 277.202 338.353 281.36C335.965 287.95 341.479 291.387 344.89 292.628C350.075 294.509 354.335 292.575 355.767 288.528C357.511 283.575 354.473 279.364 349.141 277.42Z" fill="#50565B"/>
<path d="M352.726 303.048L329.403 288.89C351.747 238.821 349.933 198.307 323.863 165.157L350.263 148.264C365.508 170.704 373.973 197.058 374.645 224.178C375.528 252.085 367.881 279.598 352.726 303.048ZM337.395 305.107C336.168 307.126 334.331 309.776 333.126 311.484L320.826 303.969L319.439 303.12L319.399 303.049L319.359 303.071L319.323 303.049L319.296 303.102L310.896 307.753C313.29 304.247 315.39 300.55 317.175 296.699C319.485 291.863 321.406 286.85 322.92 281.709L325.041 290.109L325.241 290.06L325.174 290.207L326.432 290.972L340.279 299.372C339.415 301.329 338.452 303.24 337.393 305.099M338.967 318.937C337.015 323.05 330.594 333.887 321.527 336.608C315.327 338.467 314.927 338.408 310.027 337.644L306.75 337.159C306.174 336.943 305.588 336.756 304.994 336.599C303.369 336.136 301.775 335.568 300.223 334.899C299.836 334.739 299.823 334.579 299.801 334.445C299.668 333.471 300.837 331.439 302.949 329.852L303.025 329.794L303.105 329.718L305.155 327.757C307.718 325.397 310.069 322.817 312.181 320.046C315.384 316.221 318.198 312.086 320.581 307.702L338.967 318.937ZM310.086 311.978L316.271 308.563C315.063 310.604 313.743 312.577 312.318 314.473L310.086 311.978ZM329.296 280.687C328.651 282.261 327.981 283.847 327.286 285.445L325.868 279.824L329.296 280.687ZM324.69 207.578L320.008 189.791L327.558 199.182L328.132 199.898L329.044 199.791L337.813 198.755C338.093 199.707 338.351 200.663 338.596 201.623L324.69 207.578ZM324.703 171.822C329.851 179.103 333.922 187.088 336.789 195.532L330.146 196.319L324.703 171.822ZM323.476 181.622L325.686 191.56L319.403 183.743L323.476 181.622ZM377.965 224.093C377.222 195.617 368.031 167.54 352.09 145.036L350.734 145.996L349.845 144.596L320.532 163.347L318.967 164.347L319.892 165.481L322.733 178.261L316.072 181.725L314.734 182.425L314.641 182.447V182.469L314.272 182.66L314.895 183.438L321.97 210.287L322.459 212.15L324.229 211.39L339.37 204.902C344.07 226.37 341.122 250.462 330.534 277.574L323.98 275.929L321.29 275.253L321.317 275.378L321.237 275.356C319.554 282.227 317.18 288.91 314.153 295.304C312.149 299.575 309.773 303.661 307.053 307.515L304.803 310.921L304.959 311.021L304.83 311.097L306.222 312.644L310.246 317.144C310.033 317.415 309.815 317.686 309.588 317.967C307.568 320.626 305.315 323.099 302.856 325.357L300.828 327.3C297.889 329.559 296.186 332.52 296.497 334.886C296.586 335.581 296.866 336.238 297.305 336.785C297.745 337.331 298.327 337.745 298.987 337.981C300.655 338.704 302.369 339.315 304.118 339.809C304.674 339.951 305.22 340.128 305.754 340.338L305.927 340.396C305.94 340.396 306.114 340.427 306.114 340.427L309.514 340.934C314.872 341.761 315.814 341.788 322.48 339.791C335.055 336.016 342.503 319.652 342.695 318.563L341.062 318.278L341.929 316.86L335.966 313.218C337.198 311.475 338.985 308.878 340.23 306.824C341.297 304.971 342.268 303.064 343.138 301.11L352.387 306.726L353.748 307.553L354.633 306.228C370.737 281.931 378.891 253.228 377.965 224.093ZM151.604 338.799C149.194 340.799 147.113 342.525 143.716 343.659C132.644 347.359 119.593 325.29 114.684 316.983L114.551 316.756L135.151 303.349C138.395 309.145 142.085 314.68 146.188 319.904C148.97 323.145 151.473 326.615 153.671 330.278C154.67 331.893 155.446 333.635 155.979 335.458C154.458 336.487 152.997 337.602 151.603 338.797M118.174 299.378L132.016 290.978L133.274 290.213L133.207 290.066L133.407 290.115L135.528 281.715C137.04 286.857 138.962 291.869 141.273 296.705C142.682 299.777 144.313 302.742 146.152 305.578L136.69 299.033L136.628 299.117L136.357 298.601L134.841 299.588L122.687 307.499C122.108 306.737 121.57 305.946 121.073 305.129C120.006 303.324 118.703 300.536 118.173 299.379M105.723 303.048C90.5691 279.597 82.9221 252.085 83.801 224.178C84.4754 197.058 92.9392 170.705 108.182 148.264L134.582 165.157C108.515 198.311 106.701 238.82 129.045 288.89L105.723 303.048ZM139.045 183.744L132.766 191.561L134.972 181.627L139.045 183.744ZM121.663 195.544C124.528 187.099 128.597 179.112 133.745 171.831L128.303 196.324L121.663 195.544ZM133.755 207.578L119.855 201.624C120.104 200.664 120.355 199.707 120.642 198.756L129.402 199.792L130.318 199.899L130.892 199.183L138.429 189.809L133.755 207.578ZM132.581 279.827L131.163 285.452C130.469 283.852 129.793 282.264 129.153 280.69L132.581 279.827ZM145.945 314.102C144.051 311.478 142.081 308.502 140.298 305.569L148.498 311.243L145.945 314.102ZM159.125 334.397C158.512 332.336 157.63 330.365 156.501 328.536C154.227 324.754 151.641 321.169 148.768 317.82C148.506 317.5 148.243 317.162 147.968 316.82L152.223 312.058L152.659 311.569L153.637 310.933L153.464 310.666L153.473 310.657L153.446 310.635L151.285 307.371C148.604 303.565 146.262 299.531 144.285 295.316C141.256 288.922 138.882 282.237 137.201 275.364L137.125 275.386L137.152 275.266L134.457 275.937L127.912 277.578C117.329 250.466 114.376 226.378 119.076 204.91L134.217 211.393L135.987 212.153L136.476 210.29L143.533 183.459L144.178 182.659L143.796 182.459V182.446L143.725 182.428L142.369 181.728L135.712 178.269L138.553 165.485L139.478 164.351L137.908 163.351L108.608 144.599L107.708 145.999L106.356 145.039C90.41 167.539 81.219 195.62 80.476 224.096C79.5542 253.232 87.71 281.934 103.815 306.232L104.704 307.557L106.06 306.73L115.309 301.114C115.94 302.47 117.15 305.027 118.209 306.814C118.727 307.676 119.29 308.51 119.894 309.314L111.401 314.841L112.301 316.233L110.874 317.087L111.817 318.674C117.602 328.452 131.147 351.357 144.762 346.812C148.084 345.612 151.129 343.755 153.718 341.352C155.313 339.96 157.019 338.701 158.818 337.586L159.965 336.897C159.965 336.888 159.534 335.616 159.534 335.616L159.125 334.397Z" fill="#50565B"/>
<path fill-rule="evenodd" clip-rule="evenodd" d="M239.323 138.582C239.39 135.02 235.179 132.982 229.843 132.882C224.507 132.782 220.043 134.674 219.985 138.24C219.927 141.806 223.969 143.812 229.327 143.905C234.659 143.994 239.274 142.135 239.327 138.578" fill="#50565B"/>
<path fill-rule="evenodd" clip-rule="evenodd" d="M176.96 143.274C176.404 139.761 180.282 137.155 185.56 136.324C190.838 135.493 195.512 136.738 196.067 140.255C196.622 143.772 192.892 146.325 187.609 147.165C182.326 148.005 177.516 146.793 176.96 143.274Z" fill="#50565B"/>
<path fill-rule="evenodd" clip-rule="evenodd" d="M115.302 279.201C117.943 277.911 117.97 280.682 118.842 280.264C119.318 280.024 119.131 279.695 118.953 279.339C118.571 278.539 118.175 277.925 117.512 276.6C116.854 275.258 116.627 274.558 116.249 273.758C115.956 273.176 115.831 272.749 115.302 273.015C114.679 273.315 116.565 275.541 113.848 276.87L103.847 281.758C102.784 282.278 102.58 282.127 102.175 281.318L101.352 279.624C100.143 277.37 102.908 276.814 102.53 276.024C102.277 275.504 101.516 276.149 101.263 276.313L99.342 277.527C99.129 277.652 98.826 277.803 98.964 278.105C99.871 279.95 100.605 281.244 102.023 284.152C103.441 287.06 104.006 288.439 104.904 290.297C105.055 290.586 105.362 290.435 105.598 290.346L108.675 289.246C108.975 289.146 109.52 289.033 109.315 288.606C108.888 287.717 106.273 289.718 105.171 287.468L104.362 285.796C103.962 284.987 103.98 284.738 105.042 284.213L115.302 279.201Z" fill="#50565B"/>
<path fill-rule="evenodd" clip-rule="evenodd" d="M97.942 267.379C96.315 267.837 96.261 267.757 95.514 265.179C94.336 261.079 97.591 261.937 97.293 260.941C97.155 260.447 96.413 260.776 96.11 260.892L93.793 261.65C93.6762 261.681 93.5763 261.757 93.5148 261.861C93.4533 261.965 93.435 262.089 93.464 262.206C93.998 264.078 94.513 265.519 94.945 267.026C95.883 270.285 96.221 271.855 96.475 272.726C96.486 272.786 96.5092 272.843 96.5432 272.894C96.5771 272.944 96.6211 272.987 96.6724 273.02C96.7236 273.053 96.7811 273.075 96.8413 273.085C96.9014 273.095 96.9629 273.092 97.022 273.077C97.969 272.801 96.515 270.614 98.649 270.009L109.708 266.834C112.608 265.998 111.785 267.986 112.883 267.679C113.025 267.63 113.101 267.479 113.025 267.199C112.683 266.025 112.325 265.154 112.153 264.499C111.837 263.436 111.57 262.133 110.632 258.899C110.138 257.151 107.844 256.444 105.994 256.974C105.54 257.099 105.514 257.281 105.54 257.365C105.78 258.174 108.786 256.987 110.302 262.265C110.738 263.795 109.862 263.955 108.402 264.373L105.378 265.249C104 265.636 103.733 265.805 103.453 264.831L103.004 263.248C102.368 261.038 105.049 260.909 104.858 260.229C104.707 259.722 103.898 260.1 103.595 260.202L99.424 261.567C98.788 261.767 98.904 261.985 98.957 262.136C99.068 262.554 101.265 261.998 101.785 263.83L102.176 265.173C102.447 266.093 102.269 266.133 101.256 266.423L97.942 267.379Z" fill="#50565B"/>
<path fill-rule="evenodd" clip-rule="evenodd" d="M97.498 255.572C100.268 255.127 102.074 253.046 101.682 250.552C101.326 248.302 99.116 246.772 98.512 246.861C98.245 246.901 98.232 247.039 98.245 247.128C98.312 247.479 99.761 248.342 99.966 249.628C100.291 251.687 97.849 253.265 95.515 253.628C94.008 253.873 92.202 253.77 91.935 252.089C91.744 250.911 92.518 250.408 93.643 249.95C93.808 249.888 93.999 249.812 93.959 249.625C93.892 249.243 92.659 248.158 92.225 248.233C90.811 248.46 90.725 250.533 90.838 251.279C91.3 254.223 94.238 256.068 97.499 255.566" fill="#50565B"/>
<path fill-rule="evenodd" clip-rule="evenodd" d="M92.2 227.448C89.785 227.448 90.835 225.848 89.9 225.848C89.691 225.848 89.611 225.937 89.611 226.315C89.611 227.271 89.711 228.085 89.711 229.245C89.711 230.615 89.611 231.188 89.611 232.1C89.611 232.411 89.562 232.616 90.011 232.616C90.731 232.616 89.846 230.175 92.55 230.175H96.009C96.556 230.175 97.125 230.304 97.125 230.944V237.534C97.125 237.992 96.809 238.081 96.142 238.081H92.227C90.027 238.081 90.751 236.373 89.977 236.373C89.732 236.373 89.608 236.573 89.608 236.889C89.608 237.534 89.708 238.414 89.708 239.744C89.708 240.896 89.608 241.558 89.608 242.221C89.608 242.639 89.635 243.31 90.008 243.31C90.942 243.31 89.87 240.802 92.547 240.802H103.517C106.559 240.802 105.678 242.687 106.665 242.687C106.994 242.687 107.03 242.46 107.03 242.193C107.03 241.093 106.941 240.161 106.941 239.232C106.941 237.64 107.03 236.902 107.03 235.999C107.03 235.292 106.843 235.328 106.692 235.328C105.807 235.328 106.692 238.081 103.642 238.081H99.773C98.701 238.081 98.448 238.01 98.448 236.992V231.082C98.448 230.108 98.715 230.175 99.748 230.175H104.181C106.556 230.175 105.902 231.789 106.76 231.789C106.938 231.789 107.027 231.651 107.027 231.349C107.027 230.22 106.938 229.349 106.938 228.556C106.938 227.644 107.027 226.342 107.027 225.608C107.027 225.319 107.054 225.141 106.738 225.141C105.778 225.141 106.689 227.449 103.568 227.449L92.2 227.448Z" fill="#50565B"/>
<path fill-rule="evenodd" clip-rule="evenodd" d="M103.961 220.923C106.461 221.176 105.806 223.253 106.794 223.351C107.208 223.395 107.123 222.942 107.145 222.697C107.207 222.097 107.172 221.492 107.245 220.785C107.321 220.011 107.498 219.273 107.596 218.185C107.623 217.896 107.716 217.349 107.374 217.309C106.209 217.198 107.596 220.19 102.883 219.715L94.541 218.883C94.31 218.865 94.15 218.799 94.163 218.665C94.172 218.554 94.31 218.434 94.514 218.3L108.356 208.953C108.556 208.815 108.721 208.726 108.747 208.41C108.774 208.143 108.582 208.13 108.04 208.072L94.276 206.693C91.697 206.44 92.466 204.621 91.737 204.545C91.657 204.536 91.421 204.514 91.368 204.936C91.355 205.136 91.368 205.914 91.23 207.306C91.079 208.827 90.91 209.463 90.888 209.814C90.852 210.107 91.088 210.192 91.27 210.205C92.07 210.294 91.897 207.55 94.138 207.782L102.315 208.596C102.924 208.654 103.215 208.729 103.2 208.867C103.185 209.005 102.875 209.232 102.493 209.485L90.785 217.281C90.278 217.632 90.131 217.352 90.051 218.059C89.94 219.228 89.975 219.815 89.926 220.385C89.877 220.812 89.748 221.199 89.695 221.612C89.6892 221.665 89.6947 221.719 89.7114 221.77C89.728 221.821 89.7553 221.868 89.7915 221.907C89.8276 221.947 89.8718 221.978 89.921 221.999C89.9702 222.021 90.0234 222.031 90.077 222.03C91.255 222.155 89.912 219.513 94.626 219.985L103.961 220.923Z" fill="#50565B"/>
<path fill-rule="evenodd" clip-rule="evenodd" d="M95.944 195.706C93.654 195.212 94.872 193.772 94.044 193.606C93.755 193.548 93.679 193.642 93.544 194.295C93.291 195.527 93.215 196.332 93.05 197.105C92.885 197.861 92.605 198.692 92.432 199.533C92.392 199.733 92.201 200.262 92.619 200.342C93.451 200.524 93.304 197.936 95.487 198.394L107.043 200.853C109.333 201.338 108.386 202.765 109.217 202.938C109.346 202.965 109.524 202.965 109.564 202.765C109.675 202.209 109.773 201.253 109.973 200.324C110.342 198.63 110.609 197.843 110.773 197.047C110.884 196.547 110.826 196.336 110.56 196.278C109.786 196.113 110.382 198.773 107.421 198.15L95.944 195.706Z" fill="#50565B"/>
<path fill-rule="evenodd" clip-rule="evenodd" d="M101.064 175.319C100.953 175.275 100.877 175.412 100.837 175.519C100.721 175.812 101.468 176.119 101.317 176.519C101.077 177.142 99.067 178.195 98.107 180.699C96.107 185.906 100.37 189.988 104.239 191.469C106.044 192.163 112.279 193.488 114.604 187.436C116.298 183.029 113.67 179.508 112.763 179.152C112.689 179.14 112.613 179.152 112.547 179.186C112.48 179.221 112.427 179.276 112.394 179.343C112.176 179.881 114.657 182.443 113.426 185.653C111.91 189.597 106.726 189.508 103.479 188.263C100.411 187.085 97.827 184.172 99.006 181.135C99.913 178.735 102.621 177.68 105.227 177.489C105.583 177.458 106.112 177.502 106.236 177.169C106.36 176.836 105.818 176.702 105.582 176.631L101.064 175.319Z" fill="#50565B"/>
<path fill-rule="evenodd" clip-rule="evenodd" d="M148.448 408.638C148.449 409.318 148.316 409.992 148.057 410.621C147.817 411.088 147.225 410.721 146.416 410.321L140.346 407.226C139.537 406.817 138.892 406.541 139.128 406.074C139.482 405.487 139.953 404.979 140.511 404.581L148.185 398.019C148.67 397.619 148.87 397.65 148.959 397.703C149.186 397.814 149.048 397.752 149.124 398.259L148.448 408.638ZM155.438 391.71C155.58 390.016 155.545 389.865 155.138 389.66C154.56 389.371 153.875 390.14 153.177 390.736L126.602 413.013C124.139 415.072 122.013 413.613 121.457 414.703C121.137 415.312 121.911 415.592 122.533 415.903C123.833 416.566 125.223 417.032 126.566 417.717C127.98 418.446 129.234 419.317 130.666 420.038C131.6 420.523 132.814 421.554 133.321 420.572C133.961 419.305 128.754 417.602 130.488 414.213C131.279 413.007 132.232 411.916 133.321 410.971C135.927 408.41 136.963 408.685 137.721 409.081L146.508 413.554C147.673 414.145 147.66 414.732 147.255 419.154C147.226 420.38 146.954 421.587 146.455 422.707C145.005 425.58 142.093 423.441 141.399 424.807C141.057 425.461 141.688 425.665 142.499 426.065C143.789 426.736 145.536 427.386 147.506 428.382C150.436 429.882 151.552 430.682 153.158 431.508C154.372 432.122 154.723 432.428 155.132 431.619C155.915 430.072 152.58 430.685 152.838 426.612L155.438 391.71Z" fill="#50565B"/>
<path fill-rule="evenodd" clip-rule="evenodd" d="M343.794 390.417L338.422 394.617C337.711 395.173 337.195 395.658 336.866 395.235C336.494 394.663 336.236 394.024 336.106 393.354L333.388 383.618C333.237 383.009 333.361 382.844 333.437 382.782C333.637 382.631 333.513 382.729 334.024 382.871L343.124 387.865C343.748 388.15 344.307 388.558 344.769 389.065C345.098 389.483 344.501 389.865 343.794 390.417ZM366.795 391.533C365.723 390.168 364.861 393.454 361.286 391.48L330.742 374.391C329.266 373.528 329.115 373.515 328.759 373.791C328.259 374.182 328.675 375.129 328.91 376.014L337.866 409.52C338.684 412.615 336.483 413.944 337.23 414.892C337.648 415.434 338.217 414.852 338.773 414.421C339.911 413.541 340.921 412.478 342.112 411.54C343.375 410.557 344.691 409.797 345.954 408.814C346.79 408.165 348.231 407.498 347.554 406.626C346.678 405.514 342.938 409.494 340.595 406.51C339.838 405.287 339.257 403.964 338.87 402.579C337.625 399.124 338.323 398.301 338.995 397.785L346.777 391.707C347.8 390.907 348.32 391.173 352.153 393.397C353.249 393.95 354.23 394.706 355.043 395.625C357.031 398.151 353.874 399.898 354.807 401.099C355.261 401.677 355.707 401.188 356.426 400.632C357.564 399.747 358.898 398.432 360.633 397.079C363.242 395.046 364.442 394.374 365.858 393.276C366.916 392.444 367.348 392.24 366.792 391.533" fill="#50565B"/>
<path fill-rule="evenodd" clip-rule="evenodd" d="M183.205 103.812C181.823 104.104 180.381 103.837 179.196 103.069C178.011 102.3 177.179 101.093 176.882 99.712C176.736 99.0269 176.726 98.3198 176.854 97.6311C176.981 96.9424 177.243 96.2856 177.625 95.6983C178.007 95.111 178.501 94.6047 179.078 94.2084C179.656 93.8122 180.306 93.5337 180.991 93.389C182.373 93.0954 183.815 93.3622 185.001 94.1309C186.186 94.8996 187.018 96.1074 187.314 97.489C187.606 98.8717 187.338 100.314 186.567 101.499C185.797 102.684 184.588 103.514 183.205 103.808M196.416 97.587L195.366 92.695C195.267 92.2188 195.074 91.7671 194.799 91.3658C194.524 90.9645 194.173 90.6217 193.765 90.3571C193.357 90.0924 192.9 89.9113 192.422 89.8241C191.943 89.7369 191.452 89.7453 190.977 89.849L186.744 90.769L185.797 86.305C185.592 85.3457 185.015 84.507 184.192 83.9734C183.369 83.4397 182.367 83.2547 181.408 83.459L176.579 84.487C176.103 84.587 175.651 84.7799 175.25 85.0547C174.848 85.3295 174.505 85.6808 174.239 86.0885C173.974 86.4961 173.791 86.9522 173.702 87.4305C173.613 87.9088 173.619 88.4 173.72 88.876L174.632 93.323L170.448 94.212C169.973 94.3126 169.523 94.5059 169.123 94.7808C168.722 95.0556 168.38 95.4067 168.116 95.8139C167.852 96.2211 167.67 96.6764 167.582 97.1537C167.494 97.6311 167.501 98.1212 167.602 98.596L168.643 103.496C168.744 103.971 168.937 104.421 169.212 104.821C169.487 105.221 169.838 105.562 170.245 105.826C170.653 106.09 171.108 106.271 171.585 106.359C172.063 106.446 172.553 106.439 173.027 106.337L193.557 101.979C194.517 101.772 195.356 101.195 195.891 100.372C196.427 99.5493 196.616 98.5482 196.416 97.587Z" fill="#50565B"/>
<path fill-rule="evenodd" clip-rule="evenodd" d="M229.083 96.699C227.669 96.7001 226.312 96.1396 225.31 95.1407C224.309 94.1418 223.745 92.7863 223.743 91.372C223.745 89.9577 224.309 88.6021 225.31 87.6033C226.312 86.6044 227.669 86.0439 229.083 86.045C229.782 86.0447 230.475 86.1824 231.121 86.45C231.767 86.7177 232.355 87.1101 232.849 87.6049C233.343 88.0997 233.735 88.687 234.002 89.3334C234.27 89.9798 234.407 90.6726 234.406 91.372C234.407 92.0714 234.27 92.7642 234.002 93.4106C233.735 94.0569 233.343 94.6443 232.849 95.1391C232.355 95.6339 231.767 96.0263 231.121 96.294C230.475 96.5616 229.782 96.6993 229.083 96.699ZM239.564 84.653H235.282L235.255 80.117C235.255 79.1372 234.866 78.1975 234.174 77.5039C233.483 76.8102 232.544 76.4194 231.564 76.417H226.602C225.621 76.417 224.68 76.8068 223.986 77.5007C223.292 78.1946 222.902 79.1357 222.902 80.117V84.679L218.571 84.657C218.084 84.6558 217.602 84.7506 217.152 84.9361C216.702 85.1215 216.293 85.3938 215.949 85.7375C215.604 86.0812 215.331 86.4895 215.145 86.939C214.958 87.3885 214.862 87.8703 214.862 88.357V93.357C214.862 93.8436 214.958 94.3255 215.145 94.775C215.331 95.2245 215.604 95.6328 215.949 95.9765C216.293 96.3202 216.702 96.5925 217.152 96.7779C217.602 96.9633 218.084 97.0582 218.571 97.057H239.564C240.545 97.057 241.486 96.6672 242.18 95.9733C242.874 95.2794 243.264 94.3383 243.264 93.357V88.357C243.264 87.3757 242.874 86.4346 242.18 85.7407C241.486 85.0468 240.545 84.657 239.564 84.657" fill="#50565B"/>
<path fill-rule="evenodd" clip-rule="evenodd" d="M281.566 99.711C281.271 101.093 280.439 102.301 279.253 103.07C278.068 103.839 276.625 104.105 275.243 103.811C273.861 103.517 272.651 102.687 271.881 101.502C271.11 100.317 270.842 98.8748 271.134 97.492C271.428 96.1104 272.26 94.9024 273.445 94.1335C274.63 93.3646 276.071 93.0979 277.453 93.392C278.138 93.5362 278.788 93.8141 279.366 94.2099C279.944 94.6057 280.438 95.1115 280.82 95.6985C281.202 96.2854 281.465 96.9419 281.593 97.6304C281.721 98.319 281.712 99.026 281.566 99.711ZM288 94.211L283.816 93.322L284.728 88.875C284.83 88.4002 284.838 87.9099 284.75 87.4322C284.662 86.9545 284.481 86.4989 284.216 86.0916C283.952 85.6842 283.609 85.3331 283.209 85.0584C282.808 84.7837 282.357 84.5909 281.882 84.491L277.035 83.459C276.076 83.2563 275.075 83.4426 274.253 83.9769C273.431 84.5113 272.855 85.3501 272.651 86.309L271.704 90.773L267.466 89.848C266.991 89.7463 266.501 89.7394 266.024 89.8274C265.546 89.9155 265.091 90.097 264.683 90.3613C264.276 90.6257 263.925 90.9678 263.65 91.3681C263.376 91.7684 263.182 92.2189 263.082 92.694L262.033 97.585C261.834 98.5458 262.022 99.5464 262.558 100.369C263.094 101.191 263.933 101.768 264.892 101.974L285.422 106.336C286.381 106.54 287.383 106.355 288.206 105.822C289.029 105.288 289.606 104.449 289.811 103.49L290.844 98.599C290.946 98.1239 290.954 97.6332 290.866 97.1552C290.778 96.6772 290.597 96.2213 290.332 95.8135C290.068 95.4057 289.726 95.0542 289.325 94.779C288.924 94.5038 288.474 94.3105 287.998 94.21" fill="#50565B"/>
<path fill-rule="evenodd" clip-rule="evenodd" d="M314.803 121.369C313.593 120.64 312.722 119.461 312.381 118.09C312.04 116.72 312.257 115.27 312.984 114.059C313.343 113.459 313.817 112.936 314.378 112.52C314.94 112.104 315.578 111.803 316.256 111.634C316.935 111.465 317.639 111.431 318.331 111.535C319.022 111.639 319.686 111.879 320.284 112.24L314.803 121.369ZM323.363 103.391C322.946 103.14 322.484 102.973 322.003 102.9C321.522 102.828 321.032 102.851 320.56 102.968C320.087 103.086 319.643 103.295 319.252 103.584C318.861 103.873 318.53 104.237 318.28 104.654L315.941 108.563L312.224 106.309C311.383 105.804 310.377 105.654 309.426 105.891C308.474 106.127 307.656 106.732 307.15 107.572L304.572 111.857C304.068 112.7 303.918 113.708 304.155 114.661C304.392 115.614 304.996 116.435 305.835 116.944L313.892 122.075C314.308 122.326 314.77 122.492 315.251 122.565C315.731 122.637 316.222 122.614 316.693 122.497C317.165 122.379 317.609 122.17 318 121.881C318.391 121.593 318.721 121.23 318.972 120.813L321.557 116.527C322.602 114.775 323.402 113.188 323.402 113.188L327.596 105.927L323.363 103.391Z" fill="#50565B"/>
<path fill-rule="evenodd" clip-rule="evenodd" d="M143.646 121.369L138.159 112.24C138.758 111.878 139.422 111.639 140.114 111.534C140.805 111.43 141.511 111.463 142.19 111.632C142.868 111.801 143.507 112.103 144.069 112.519C144.631 112.936 145.106 113.459 145.465 114.059C146.192 115.27 146.409 116.72 146.068 118.09C145.727 119.461 144.856 120.64 143.646 121.369ZM153.874 111.857L151.299 107.57C150.793 106.731 149.975 106.126 149.024 105.89C148.072 105.653 147.066 105.804 146.226 106.308L142.526 108.562L140.174 104.653C139.924 104.236 139.593 103.872 139.202 103.583C138.811 103.294 138.367 103.085 137.894 102.967C137.422 102.85 136.932 102.827 136.451 102.899C135.97 102.972 135.508 103.139 135.091 103.39L130.853 105.927L135.06 113.184C135.06 113.184 135.847 114.771 136.905 116.523L139.484 120.81C139.733 121.227 140.063 121.59 140.453 121.88C140.843 122.169 141.287 122.378 141.759 122.496C142.23 122.613 142.72 122.636 143.2 122.564C143.681 122.491 144.142 122.324 144.558 122.073L152.611 116.942C153.029 116.691 153.393 116.361 153.682 115.97C153.972 115.578 154.181 115.133 154.299 114.661C154.416 114.188 154.439 113.697 154.366 113.216C154.293 112.734 154.126 112.272 153.874 111.855" fill="#50565B"/>
<path fill-rule="evenodd" clip-rule="evenodd" d="M84.123 102.275C83.287 103.231 82.26 104.405 81.264 103.542L73.224 96.5469C70.836 94.4749 71.694 93.4879 72.717 92.3139C75.51 89.0949 80.01 89.8729 83.905 93.2609C86.257 95.3059 88.321 97.4369 84.123 102.275ZM108.207 100.681C108.145 100.614 108.069 100.561 107.985 100.525C107.902 100.489 107.811 100.47 107.72 100.47C107.629 100.47 107.538 100.489 107.455 100.525C107.371 100.561 107.295 100.614 107.233 100.681C106.957 100.997 106.917 101.521 106.633 101.842C106.458 102.1 106.206 102.296 105.913 102.402C105.62 102.508 105.301 102.519 105.001 102.433C98.001 100.365 89.873 98.0569 89.629 97.8479C89.238 97.5009 89.682 96.2649 89.571 94.5479C89.4577 93.3458 89.1012 92.1793 88.5233 91.1192C87.9453 90.0591 87.158 89.1275 86.209 88.3809C84.377 86.7889 78.209 82.5379 72.153 89.5189C70.294 91.6489 68.573 93.9569 66.715 96.0819C64.967 98.0919 64.585 98.2069 63.309 99.6699C63.2237 99.7471 63.1554 99.8411 63.1083 99.946C63.0613 100.051 63.0366 100.164 63.0357 100.279C63.0349 100.394 63.0579 100.508 63.1034 100.614C63.1489 100.72 63.2159 100.815 63.3 100.893C64.745 102.134 66.284 97.3849 70.735 101.258L88.259 116.486C93.266 120.848 89.713 122.286 90.989 123.396C91.789 124.085 92.239 123.312 92.545 122.96C93.932 121.373 95.155 119.638 96.645 117.922C97.81 116.588 98.717 115.868 99.188 115.322C99.815 114.588 99.806 114.117 99.45 113.822C98.009 112.564 96.898 117.144 92.65 113.44L85.758 107.455C84.371 106.25 83.926 106.188 85.393 104.502C86.771 102.91 87.63 102.648 90.018 103.439L98.631 106.239C101.806 107.253 105.19 108.413 107.378 105.892C108.478 104.625 109.437 101.761 108.201 100.685" fill="#50565B"/>
<path fill-rule="evenodd" clip-rule="evenodd" d="M173.734 48.815L168.282 50.594C167.553 50.821 167.006 51.061 166.841 50.554C166.675 49.9012 166.623 49.2244 166.69 48.554L166.89 38.669C166.903 38.055 167.055 37.953 167.13 37.922C167.33 37.86 167.219 37.895 167.584 38.222L173.823 46.222C174.27 46.73 174.623 47.3125 174.868 47.943C175.033 48.443 174.45 48.574 173.73 48.806M192.344 58.566C191.797 56.912 190.267 59.566 187.831 56.423L167.024 29.258C166.014 27.924 165.908 27.846 165.539 27.964C165.023 28.137 165.121 29.151 165.117 30.045L164.09 63.929C164.001 67.064 161.862 67.429 162.231 68.585C162.444 69.225 163.054 68.923 163.623 68.741C164.784 68.363 165.882 67.789 167.087 67.398C168.363 66.98 169.639 66.789 170.916 66.371C171.765 66.095 173.116 66.042 172.788 64.988C172.343 63.636 168.261 65.842 167.101 62.24C166.785 60.8467 166.632 59.4216 166.643 57.993C166.492 54.387 167.274 53.911 167.959 53.693L175.859 51.132C176.908 50.785 177.264 51.225 179.865 54.707C180.634 55.6422 181.246 56.6968 181.675 57.829C182.675 60.888 179.638 61.266 180.123 62.72C180.345 63.42 180.83 63.151 181.559 62.92C182.72 62.542 184.143 61.862 185.908 61.284C188.554 60.426 189.701 60.275 191.142 59.808C192.231 59.452 192.623 59.439 192.347 58.585" fill="#50565B"/>
<path fill-rule="evenodd" clip-rule="evenodd" d="M430.256 219.648L421.056 224.064C420.465 224.39 419.822 224.613 419.156 224.722C418.627 224.771 418.627 224.18 418.547 223.422L417.964 217.69C417.893 216.93 417.777 216.343 418.306 216.29C418.983 216.266 419.659 216.356 420.306 216.557L429.955 218.869C430.555 219.025 430.635 219.185 430.635 219.269C430.662 219.482 430.644 219.358 430.253 219.647M440.747 219.834C440.698 219.283 439.675 219.176 438.804 218.967L405.781 210.727C402.722 209.967 402.824 207.788 401.61 207.908C400.925 207.984 401.09 208.642 401.152 209.233C401.276 210.456 401.61 211.665 401.734 212.933C401.872 214.28 401.787 215.561 401.925 216.917C402.01 217.802 401.774 219.14 402.872 219.029C404.299 218.887 402.996 214.422 406.794 214.044C408.227 214.034 409.657 214.19 411.054 214.511C414.629 215.129 414.923 215.992 414.994 216.711L415.83 225.017C415.93 226.117 415.43 226.378 411.454 228.179C410.374 228.741 409.208 229.117 408.003 229.291C404.793 229.62 405.073 226.561 403.539 226.721C402.796 226.788 402.961 227.335 403.039 228.086C403.164 229.309 403.533 230.847 403.706 232.706C403.986 235.49 403.897 236.646 404.048 238.166C404.164 239.304 404.088 239.696 404.986 239.607C406.729 239.429 404.439 237.357 408.059 235.636L439.172 221.024C440.702 220.313 440.804 220.224 440.751 219.841" fill="#50565B"/>
<path fill-rule="evenodd" clip-rule="evenodd" d="M356.69 198.172C352.59 199.497 348.904 199.404 347.663 195.833C346.373 192.116 351.1 189.119 354.707 187.945C358.291 186.78 362.035 186.718 363.267 190.231C364.187 192.912 362.151 196.398 356.69 198.172ZM364.529 190.511C362.861 185.526 357.877 184.077 352.465 185.833C347.445 187.465 345.03 191.369 346.4 195.567C348.574 202.241 355.035 201.548 358.495 200.432C363.729 198.732 365.903 194.576 364.529 190.511Z" fill="#50565B"/>
<path fill-rule="evenodd" clip-rule="evenodd" d="M353.338 178.525C351.946 179.174 350.572 179.668 349.154 176.64C348.878 176.049 348.536 175.306 349.132 175.035L353.881 172.812C355.286 172.154 355.575 172.776 355.922 173.512C356.865 175.522 355.642 177.447 353.339 178.523M357.323 173.858C356.705 172.515 355.971 171.208 355.349 169.874C354.749 168.616 354.78 168.415 354.349 167.499C354.334 167.442 354.307 167.389 354.27 167.343C354.233 167.297 354.187 167.26 354.134 167.233C354.082 167.207 354.024 167.192 353.965 167.189C353.906 167.187 353.848 167.197 353.793 167.219C352.944 167.619 354.829 169.38 352.193 170.619L341.834 175.448C338.873 176.831 338.899 174.848 338.143 175.199C337.676 175.426 337.943 175.808 338.043 176.026C338.51 177.026 339.066 177.974 339.568 179.059C339.968 179.891 340.115 180.473 340.268 180.811C340.477 181.269 340.69 181.362 340.908 181.265C341.757 180.865 339.872 179.348 342.389 178.17L346.462 176.276C347.298 175.889 347.396 175.693 347.885 176.752C348.356 177.744 348.303 178.202 347.485 179.144L344.551 182.554C343.475 183.804 342.292 185.138 343.026 186.703C343.391 187.503 344.526 188.575 345.249 188.233C345.292 188.218 345.332 188.195 345.366 188.164C345.4 188.133 345.427 188.096 345.446 188.054C345.465 188.012 345.475 187.967 345.475 187.921C345.476 187.876 345.467 187.83 345.449 187.788C345.349 187.588 345.12 187.45 345.022 187.254C344.935 187.12 344.893 186.961 344.902 186.802C344.911 186.642 344.97 186.489 345.071 186.365C347.357 183.546 349.989 180.26 350.127 180.193C350.367 180.082 350.847 180.562 351.657 180.893C352.218 181.104 352.818 181.193 353.417 181.156C354.015 181.118 354.599 180.954 355.13 180.675C356.219 180.175 359.359 178.22 357.322 173.863" fill="#50565B"/>
<path fill-rule="evenodd" clip-rule="evenodd" d="M368.432 227.378C368.219 229.597 366.169 230.637 363.632 230.378C362.089 230.227 360.648 229.951 360.991 226.607C361.053 225.949 361.129 225.14 361.791 225.202L367.038 225.722C368.59 225.887 368.532 226.567 368.438 227.376M369.83 220.853C368.896 220.764 369.617 223.253 366.704 222.961L355.274 221.82C351.997 221.491 353.037 219.797 352.201 219.72C351.681 219.667 351.716 220.138 351.694 220.374C351.578 221.474 351.578 222.588 351.454 223.774C351.365 224.703 351.201 225.286 351.161 225.651C351.112 226.158 351.254 226.351 351.49 226.371C352.428 226.471 351.579 224.188 354.349 224.463L358.849 224.917C359.756 225.006 359.949 224.895 359.832 226.06C359.716 227.16 359.45 227.532 358.253 227.919L353.966 229.355C352.401 229.889 350.68 230.431 350.515 232.165C350.422 233.041 350.853 234.553 351.653 234.628C351.698 234.638 351.744 234.638 351.789 234.628C351.834 234.619 351.876 234.599 351.913 234.572C351.949 234.545 351.98 234.51 352.002 234.469C352.024 234.429 352.037 234.385 352.04 234.339C352.067 234.117 351.94 233.881 351.956 233.663C351.957 233.504 352.004 233.348 352.091 233.214C352.177 233.08 352.3 232.974 352.445 232.907C355.887 231.653 359.831 230.163 359.995 230.177C360.248 230.204 360.426 230.866 360.956 231.569C361.336 232.039 361.81 232.424 362.349 232.697C362.888 232.971 363.479 233.127 364.083 233.155C365.275 233.284 368.974 233.208 369.455 228.388C369.611 226.916 369.655 225.413 369.802 223.941C369.94 222.558 370.064 222.389 370.167 221.38C370.194 221.113 370.078 220.88 369.825 220.855" fill="#50565B"/>
<path fill-rule="evenodd" clip-rule="evenodd" d="M116.323 167.45L114.856 170.091C114.669 170.433 114.545 170.722 114.327 170.598C114.061 170.426 113.829 170.206 113.642 169.949L110.663 166.343C110.485 166.107 110.507 166.023 110.521 165.983C110.583 165.883 110.548 165.947 110.788 165.925L115.568 166.503C115.883 166.515 116.192 166.592 116.475 166.73C116.693 166.841 116.514 167.108 116.323 167.45ZM126.201 164.115C125.494 163.715 125.747 165.231 123.871 165.004L107.801 162.928C107.014 162.821 106.956 162.835 106.854 163.013C106.716 163.266 107.067 163.595 107.334 163.913L117.452 176.388C118.386 177.54 117.714 178.456 118.208 178.727C118.484 178.878 118.608 178.549 118.764 178.278C119.08 177.718 119.306 177.109 119.622 176.53C119.964 175.907 120.382 175.378 120.722 174.751C120.949 174.351 121.422 173.831 120.975 173.582C120.392 173.253 119.583 175.539 118.027 174.682C117.477 174.298 116.981 173.844 116.551 173.33C115.386 172.098 115.524 171.649 115.702 171.316L117.814 167.501C118.09 166.994 118.37 167.021 120.393 167.314C120.964 167.353 121.522 167.506 122.034 167.763C123.35 168.488 122.35 169.728 122.972 170.084C123.272 170.249 123.372 169.968 123.563 169.617C123.879 169.057 124.186 168.292 124.663 167.438C125.37 166.162 125.739 165.69 126.13 164.983C126.415 164.467 126.561 164.316 126.192 164.116" fill="#50565B"/>
<path d="M272.708 336.38C262.254 348.848 253.934 354.843 244.303 361.78C239.358 365.342 236.166 367.449 230.252 372.345C212.478 360.187 201.517 352.588 185.696 336.491C159.309 309.633 157.268 281.877 157.268 245.597V169.185L302.634 169.194V245.594C302.634 283.675 298.316 305.824 272.708 336.377M302.634 162.622L300.993 162.6H150.683V245.6C150.683 282.236 152.915 312.531 180.996 341.11C197.538 357.941 208.783 365.642 227.419 378.4L228.562 379.183L230.612 380.583L232.524 379.004C238.274 374.251 243.298 370.631 248.158 367.127C258.15 359.932 266.776 353.711 277.758 340.616C304.509 308.685 309.223 284.535 309.223 245.6V162.622H302.634Z" fill="#50565B"/>
<path fill-rule="evenodd" clip-rule="evenodd" d="M389.532 81.406L386.882 76.639L384.445 84.216L386.05 87.111L389.532 81.406Z" fill="#50565B"/>
<path fill-rule="evenodd" clip-rule="evenodd" d="M200.649 50.942C201.956 57.105 196.749 55.611 197.172 57.625C197.417 58.772 198.11 58.572 198.862 58.412C200.512 58.056 201.837 57.563 204.612 56.967C207.387 56.371 208.801 56.296 210.464 55.944C211.664 55.686 212.523 55.668 212.256 54.423C211.949 52.978 206.964 55.61 205.613 49.238L200.636 25.832C200.107 23.346 200.463 22.991 202.166 22.632L205.683 21.881C210.404 20.669 210.304 26.702 211.962 26.348C213.038 26.117 212.149 24.196 211.935 23.587L210.468 18.927C210.321 18.42 210.161 17.686 209.548 17.827C205.693 18.641 202.962 19.441 196.911 20.722C190.86 22.003 188.044 22.394 184.189 23.212C183.566 23.35 183.722 24.07 183.789 24.599L184.581 31.571C184.639 32.265 184.63 33.456 185.506 33.271C187.374 32.871 184.688 26.361 189.366 25.365L192.843 24.618C194.543 24.262 195.017 24.436 195.543 26.918L200.649 50.942Z" fill="#50565B"/>
<path fill-rule="evenodd" clip-rule="evenodd" d="M145.14 70.458C148.048 76.047 142.632 76.012 143.584 77.839C144.122 78.875 144.736 78.493 145.42 78.139C146.914 77.352 148.061 76.516 150.569 75.204C153.095 73.888 154.429 73.434 155.927 72.652C157.016 72.074 157.844 71.834 157.252 70.704C156.563 69.392 152.467 73.256 149.461 67.489L138.39 46.272C137.212 44.022 137.461 43.586 139.008 42.79L142.203 41.118C146.418 38.681 147.939 44.518 149.442 43.733C150.416 43.226 149.042 41.612 148.677 41.092L146.009 36.992C145.729 36.538 145.378 35.885 144.822 36.174C141.322 37.997 138.908 39.496 133.422 42.364C127.936 45.232 125.329 46.344 121.838 48.164C121.278 48.457 121.625 49.116 121.825 49.6L124.462 56.11C124.698 56.764 125.022 57.915 125.805 57.497C127.49 56.617 123.164 51.058 127.405 48.844L130.558 47.203C132.092 46.394 132.595 46.438 133.764 48.684L145.14 70.458Z" fill="#50565B"/>
<path fill-rule="evenodd" clip-rule="evenodd" d="M208.171 398.946L202.771 399.32L208.578 404.692L211.842 404.461L208.171 398.946Z" fill="#50565B"/>
</svg>
